<?xml version="1.0" encoding="UTF-8"?>
<svg width="3170px" height="1003px" viewBox="0 0 3170 1003" version="1.1" xmlns="http://www.w3.org/2000/svg" xmlns:xlink="http://www.w3.org/1999/xlink">
    <!-- Generator: Sketch 50.2 (55047) - http://www.bohemiancoding.com/sketch -->
    <title>Curve</title>
    <desc>Created with Sketch.</desc>
    <defs></defs>
    <g id="Page-1" stroke="none" stroke-width="1" fill="none" fill-rule="evenodd">
        <g id="Curve" transform="translate(-82.000000, -26.000000)">
            <path d="M1.2,7.3 C18.1,41.2 6.5,48.4 29.2,78.7 C51.9,109 68.4,96.6 91.1,126.9 C113.8,157.2 97.3,169.6 120.1,199.9 C142.8,230.2 159.3,217.8 182,248.1 C204.7,278.4 188.2,290.8 211,321.1 C233.7,351.4 250.2,339 272.9,369.3 C295.6,399.6 279.1,412 301.9,442.3 C324.6,472.6 341.1,460.2 363.8,490.5 C386.5,520.8 370,533.2 392.8,563.5 C415.5,593.8 432,581.4 454.7,611.7 C477.4,642 460.9,654.4 483.7,684.7 C506.4,715 522.9,702.6 545.6,732.9 C568.3,763.2 551.8,775.6 574.6,805.9 C597.3,836.2 613.8,823.8 636.5,854.1 C659.2,884.4 642.7,896.8 665.5,927.1 C688.2,957.4 704.7,945 727.4,975.3 C750.1,1005.6 728.6,1026.5 758.2,1050.1 C770,1059.6 779.8,1031.8 794.9,1031.8 C810,1031.8 810,1052.4 825.2,1052.4 C840.3,1052.4 840.3,1031.8 855.5,1031.8 C870.6,1031.8 870.6,1052.4 885.8,1052.4 C900.9,1052.4 900.9,1031.8 916.1,1031.8 C931.2,1031.8 931.2,1052.4 946.4,1052.4 C961.5,1052.4 961.5,1031.8 976.7,1031.8 C991.8,1031.8 991.8,1052.4 1007,1052.4 C1022.1,1052.4 1022.1,1031.8 1037.3,1031.8 C1052.4,1031.8 1052.4,1052.4 1067.6,1052.4 C1082.7,1052.4 1082.7,1031.8 1097.9,1031.8 C1113.1,1031.8 1113.1,1052.4 1128.2,1052.4 C1143.4,1052.4 1143.4,1031.8 1158.5,1031.8 C1173.7,1031.8 1173.7,1052.4 1188.8,1052.4 C1204,1052.4 1204,1031.8 1219.1,1031.8 C1234.3,1031.8 1234.3,1052.4 1249.4,1052.4 C1264.5,1052.4 1277.3,1060.3 1270.5,1046.7 C1251.3,1008.4 1256.7,1004.5 1226.4,974.2 C1196.1,943.9 1181.5,958.5 1151.2,928.2 C1120.9,897.9 1135.5,883.3 1105.2,853 C1074.9,822.7 1060.3,837.3 1030,807 C999.7,776.7 1014.3,762.1 984,731.8 C953.7,701.5 939.1,716.1 908.8,685.8 C878.5,655.5 893.1,640.9 862.8,610.6 C832.5,580.3 817.9,594.9 787.6,564.6 C757.3,534.3 771.9,519.7 741.6,489.4 C711.3,459.1 696.7,473.7 666.4,443.4 C636.1,413.1 650.7,398.5 620.4,368.2 C590.1,337.9 575.5,352.5 545.2,322.2 C514.9,291.9 529.5,277.3 499.2,247 C468.9,216.7 454.3,231.3 424,201 C393.7,170.7 408.3,156.1 378,125.8 C347.7,95.5 333.1,110.1 302.8,79.8 C272.5,49.5 289.4,30.7 256,3.9 C250.1,-0.8 242,22.2 234.4,22.2 C226.8,22.2 226.8,1.6 219.3,1.6 C211.7,1.6 211.7,22.2 204.2,22.2 C196.6,22.2 196.6,1.6 189.1,1.6 C181.5,1.6 181.5,22.2 174,22.2 C166.4,22.2 166.4,1.6 158.9,1.6 C151.3,1.6 151.3,22.2 143.8,22.2 C136.2,22.2 136.2,1.6 128.7,1.6 C121.1,1.6 121.1,22.2 113.6,22.2 C106,22.2 106,1.6 98.5,1.6 C90.9,1.6 90.9,22.2 83.4,22.2 C75.8,22.2 75.8,1.6 68.2,1.6 C60.6,1.6 60.6,22.2 53.1,22.2 C45.5,22.2 45.5,1.6 37.9,1.6 C30.3,1.6 30.3,22.2 22.7,22.2 C15.1,22.2 18.8,5.8 11.9,2.6 C6.1,0.1 -2.2,0.5 1.2,7.3 Z" id="Shape" fill-opacity="0.16" fill="#FFFFFF" fill-rule="nonzero"></path>
            <path d="M257.8,5.7 C283.5,40 272.6,49.5 302.9,79.8 C333.2,110.1 347.8,95.5 378.1,125.8 C408.4,156.1 393.8,170.7 424.1,201 C454.4,231.3 469,216.7 499.3,247 C529.6,277.3 515,291.9 545.3,322.2 C575.6,352.5 590.2,337.9 620.5,368.2 C650.8,398.5 636.2,413.1 666.5,443.4 C696.8,473.7 711.4,459.1 741.7,489.4 C772,519.7 757.4,534.3 787.7,564.6 C818,594.9 832.6,580.3 862.9,610.6 C893.2,640.9 878.6,655.5 908.9,685.8 C939.2,716.1 953.8,701.5 984.1,731.8 C1014.4,762.1 999.8,776.7 1030.1,807 C1060.4,837.3 1075,822.7 1105.3,853 C1135.6,883.3 1121,897.9 1151.3,928.2 C1181.6,958.5 1196.2,943.9 1226.5,974.2 C1256.8,1004.5 1239.9,1023.4 1273.4,1050.1 C1279.3,1054.8 1287.4,1031.8 1295,1031.8 C1302.6,1031.8 1302.6,1052.4 1310.1,1052.4 C1317.7,1052.4 1317.7,1031.8 1325.2,1031.8 C1332.8,1031.8 1332.8,1052.4 1340.3,1052.4 C1347.9,1052.4 1347.9,1031.8 1355.4,1031.8 C1363,1031.8 1363,1052.4 1370.5,1052.4 C1378.1,1052.4 1378.1,1031.8 1385.6,1031.8 C1393.2,1031.8 1393.2,1052.4 1400.7,1052.4 C1408.3,1052.4 1408.3,1031.8 1415.8,1031.8 C1423.4,1031.8 1423.4,1052.4 1430.9,1052.4 C1438.5,1052.4 1438.5,1031.8 1446,1031.8 C1453.6,1031.8 1453.6,1052.4 1461.2,1052.4 C1468.8,1052.4 1468.8,1031.8 1476.3,1031.8 C1483.9,1031.8 1483.9,1052.4 1491.5,1052.4 C1499.1,1052.4 1499.1,1031.8 1506.7,1031.8 C1514.3,1031.8 1514.3,1052.4 1521.9,1052.4 C1529.5,1052.4 1533.4,1054.3 1528.8,1048.3 C1503.1,1014 1514,1004.5 1483.7,974.2 C1453.4,943.9 1438.8,958.5 1408.5,928.2 C1378.2,897.9 1392.8,883.3 1362.5,853 C1332.2,822.7 1317.6,837.3 1287.3,807 C1257,776.7 1271.6,762.1 1241.3,731.8 C1211,701.5 1196.4,716.1 1166.1,685.8 C1135.8,655.5 1150.4,640.9 1120.1,610.6 C1089.8,580.3 1075.2,594.9 1044.9,564.6 C1014.6,534.3 1029.2,519.7 998.9,489.4 C968.6,459.1 954,473.7 923.7,443.4 C893.4,413.1 908,398.5 877.7,368.2 C847.4,337.9 832.8,352.5 802.5,322.2 C772.2,291.9 786.8,277.3 756.5,247 C726.2,216.7 711.6,231.3 681.3,201 C651,170.7 665.6,156.1 635.3,125.8 C605,95.5 590.4,110.1 560.1,79.8 C529.8,49.5 546.7,30.6 513.2,3.9 C507.3,-0.8 499.2,22.2 491.6,22.2 C484,22.2 484,1.6 476.5,1.6 C468.9,1.6 468.9,22.2 461.4,22.2 C453.8,22.2 453.8,1.6 446.3,1.6 C438.7,1.6 438.7,22.2 431.2,22.2 C423.6,22.2 423.6,1.6 416.1,1.6 C408.5,1.6 408.5,22.2 401,22.2 C393.4,22.2 393.4,1.6 385.9,1.6 C378.3,1.6 378.3,22.2 370.8,22.2 C363.2,22.2 363.2,1.6 355.7,1.6 C348.1,1.6 348.1,22.2 340.6,22.2 C333,22.2 333,1.6 325.4,1.6 C317.8,1.6 317.8,22.2 310.3,22.2 C302.7,22.2 302.7,1.6 295.1,1.6 C287.5,1.6 287.5,22.2 279.9,22.2 C272.3,22.2 275.9,5.7 269.1,2.5 C263,-0.2 253.2,-0.3 257.8,5.7 Z" id="Shape" fill-opacity="0.12" fill="#FFFFFF" fill-rule="nonzero"></path>
            <path d="M515.3,5.7 C541,40 530.1,49.5 560.4,79.8 C590.7,110.1 605.3,95.5 635.6,125.8 C665.9,156.1 651.3,170.7 681.6,201 C711.9,231.3 726.5,216.7 756.8,247 C787.1,277.3 772.5,291.9 802.8,322.2 C833.1,352.5 847.7,337.9 878,368.2 C908.3,398.5 893.7,413.1 924,443.4 C954.3,473.7 968.9,459.1 999.2,489.4 C1029.5,519.7 1014.9,534.3 1045.2,564.6 C1075.5,594.9 1090.1,580.3 1120.4,610.6 C1150.7,640.9 1136.1,655.5 1166.4,685.8 C1196.7,716.1 1211.3,701.5 1241.6,731.8 C1271.9,762.1 1257.3,776.7 1287.6,807 C1317.9,837.3 1332.5,822.7 1362.8,853 C1393.1,883.3 1378.5,897.9 1408.8,928.2 C1439.1,958.5 1453.7,943.9 1484,974.2 C1514.3,1004.5 1497.4,1023.4 1530.9,1050.1 C1536.8,1054.8 1544.9,1031.8 1552.5,1031.8 C1560.1,1031.8 1560.1,1052.4 1567.6,1052.4 C1575.2,1052.4 1575.2,1031.8 1582.7,1031.8 C1590.3,1031.8 1590.3,1052.4 1597.8,1052.4 C1605.4,1052.4 1605.4,1031.8 1612.9,1031.8 C1620.5,1031.8 1620.5,1052.4 1628,1052.4 C1635.6,1052.4 1635.6,1031.8 1643.1,1031.8 C1650.7,1031.8 1650.7,1052.4 1658.2,1052.4 C1665.8,1052.4 1665.8,1031.8 1673.3,1031.8 C1680.9,1031.8 1680.9,1052.4 1688.4,1052.4 C1696,1052.4 1696,1031.8 1703.5,1031.8 C1711.1,1031.8 1711.1,1052.4 1718.7,1052.4 C1726.3,1052.4 1726.3,1031.8 1733.8,1031.8 C1741.4,1031.8 1741.4,1052.4 1749,1052.4 C1756.6,1052.4 1756.6,1031.8 1764.2,1031.8 C1771.8,1031.8 1771.8,1052.4 1779.4,1052.4 C1787,1052.4 1790.9,1054.3 1786.3,1048.3 C1760.6,1014 1771.5,1004.5 1741.2,974.2 C1710.9,943.9 1696.3,958.5 1666,928.2 C1635.7,897.9 1650.3,883.3 1620,853 C1589.7,822.7 1575.1,837.3 1544.8,807 C1514.5,776.7 1529.1,762.1 1498.8,731.8 C1468.5,701.5 1453.9,716.1 1423.6,685.8 C1393.3,655.5 1407.9,640.9 1377.6,610.6 C1347.3,580.3 1332.7,594.9 1302.4,564.6 C1272.1,534.3 1286.7,519.7 1256.4,489.4 C1226.1,459.1 1211.5,473.7 1181.2,443.4 C1150.9,413.1 1165.5,398.5 1135.2,368.2 C1104.9,337.9 1090.3,352.5 1060,322.2 C1029.7,291.9 1044.3,277.3 1014,247 C983.7,216.7 969.1,231.3 938.8,201 C908.5,170.7 923.1,156.1 892.8,125.8 C862.5,95.5 847.9,110.1 817.6,79.8 C787.3,49.5 804.2,30.6 770.7,3.9 C764.8,-0.8 756.7,22.2 749.1,22.2 C741.5,22.2 741.5,1.6 734,1.6 C726.4,1.6 726.4,22.2 718.9,22.2 C711.3,22.2 711.3,1.6 703.8,1.6 C696.2,1.6 696.2,22.2 688.7,22.2 C681.1,22.2 681.1,1.6 673.6,1.6 C666,1.6 666,22.2 658.5,22.2 C650.9,22.2 650.9,1.6 643.4,1.6 C635.8,1.6 635.8,22.2 628.3,22.2 C620.7,22.2 620.7,1.6 613.2,1.6 C605.6,1.6 605.6,22.2 598.1,22.2 C590.5,22.2 590.5,1.6 582.9,1.6 C575.3,1.6 575.3,22.2 567.8,22.2 C560.2,22.2 560.2,1.6 552.6,1.6 C545,1.6 545,22.2 537.4,22.2 C529.8,22.2 533.4,5.7 526.6,2.5 C520.5,-0.2 510.8,-0.3 515.3,5.7 Z" id="Shape" fill-opacity="0.08" fill="#FFFFFF" fill-rule="nonzero"></path>
            <path d="M772.9,5.7 C798.6,40 787.7,49.5 818,79.8 C848.3,110.1 862.9,95.5 893.2,125.8 C923.5,156.1 908.9,170.7 939.2,201 C969.5,231.3 984.1,216.7 1014.4,247 C1044.7,277.3 1030.1,291.9 1060.4,322.2 C1090.7,352.5 1105.3,337.9 1135.6,368.2 C1165.9,398.5 1151.3,413.1 1181.6,443.4 C1211.9,473.7 1226.5,459.1 1256.8,489.4 C1287.1,519.7 1272.5,534.3 1302.8,564.6 C1333.1,594.9 1347.7,580.3 1378,610.6 C1408.3,640.9 1393.7,655.5 1424,685.8 C1454.3,716.1 1468.9,701.5 1499.2,731.8 C1529.5,762.1 1514.9,776.7 1545.2,807 C1575.5,837.3 1590.1,822.7 1620.4,853 C1650.7,883.3 1636.1,897.9 1666.4,928.2 C1696.7,958.5 1711.3,943.9 1741.6,974.2 C1771.9,1004.5 1755,1023.4 1788.5,1050.1 C1794.4,1054.8 1802.5,1031.8 1810.1,1031.8 C1817.7,1031.8 1817.7,1052.4 1825.2,1052.4 C1832.8,1052.4 1832.8,1031.8 1840.3,1031.8 C1847.9,1031.8 1847.9,1052.4 1855.4,1052.4 C1863,1052.4 1863,1031.8 1870.5,1031.8 C1878.1,1031.8 1878.1,1052.4 1885.6,1052.4 C1893.2,1052.4 1893.2,1031.8 1900.7,1031.8 C1908.3,1031.8 1908.3,1052.4 1915.8,1052.4 C1923.4,1052.4 1923.4,1031.8 1930.9,1031.8 C1938.5,1031.8 1938.5,1052.4 1946,1052.4 C1953.6,1052.4 1953.6,1031.8 1961.1,1031.8 C1968.7,1031.8 1968.7,1052.4 1976.3,1052.4 C1983.9,1052.4 1983.9,1031.8 1991.4,1031.8 C1999,1031.8 1999,1052.4 2006.6,1052.4 C2014.2,1052.4 2014.2,1031.8 2021.8,1031.8 C2029.4,1031.8 2029.4,1052.4 2037,1052.4 C2044.6,1052.4 2048.5,1054.3 2043.9,1048.3 C2018.2,1014 2029.1,1004.5 1998.8,974.2 C1968.5,943.9 1953.9,958.5 1923.6,928.2 C1893.3,897.9 1907.9,883.3 1877.6,853 C1847.3,822.7 1832.7,837.3 1802.4,807 C1772.1,776.7 1786.7,762.1 1756.4,731.8 C1726.1,701.5 1711.5,716.1 1681.2,685.8 C1650.9,655.5 1665.5,640.9 1635.2,610.6 C1604.9,580.3 1590.3,594.9 1560,564.6 C1529.7,534.3 1544.3,519.7 1514,489.4 C1483.7,459.1 1469.1,473.7 1438.8,443.4 C1408.5,413.1 1423.1,398.5 1392.8,368.2 C1362.5,337.9 1347.9,352.5 1317.6,322.2 C1287.3,291.9 1301.9,277.3 1271.6,247 C1241.3,216.7 1226.7,231.3 1196.4,201 C1166.1,170.7 1180.7,156.1 1150.4,125.8 C1120.1,95.5 1105.5,110.1 1075.2,79.8 C1044.9,49.5 1061.8,30.6 1028.3,3.9 C1022.4,-0.8 1014.3,22.2 1006.7,22.2 C999.1,22.2 999.1,1.6 991.6,1.6 C984,1.6 984,22.2 976.5,22.2 C968.9,22.2 968.9,1.6 961.4,1.6 C953.8,1.6 953.8,22.2 946.3,22.2 C938.7,22.2 938.7,1.6 931.2,1.6 C923.6,1.6 923.6,22.2 916.1,22.2 C908.5,22.2 908.5,1.6 901,1.6 C893.4,1.6 893.4,22.2 885.9,22.2 C878.3,22.2 878.3,1.6 870.8,1.6 C863.2,1.6 863.2,22.2 855.7,22.2 C848.1,22.2 848.1,1.6 840.5,1.6 C832.9,1.6 832.9,22.2 825.4,22.2 C817.8,22.2 817.8,1.6 810.2,1.6 C802.6,1.6 802.6,22.2 795,22.2 C787.4,22.2 791,5.7 784.2,2.5 C778.1,-0.2 768.3,-0.3 772.9,5.7 Z" id="Shape" fill-opacity="0.04" fill="#FFFFFF" fill-rule="nonzero"></path>
            <path d="M1030.4,5.7 C1056.1,40 1045.2,49.5 1075.5,79.8 C1105.8,110.1 1120.4,95.5 1150.7,125.8 C1181,156.1 1166.4,170.7 1196.7,201 C1227,231.3 1241.6,216.7 1271.9,247 C1302.2,277.3 1287.6,291.9 1317.9,322.2 C1348.2,352.5 1362.8,337.9 1393.1,368.2 C1423.4,398.5 1408.8,413.1 1439.1,443.4 C1469.4,473.7 1484,459.1 1514.3,489.4 C1544.6,519.7 1530,534.3 1560.3,564.6 C1590.6,594.9 1605.2,580.3 1635.5,610.6 C1665.8,640.9 1651.2,655.5 1681.5,685.8 C1711.8,716.1 1726.4,701.5 1756.7,731.8 C1787,762.1 1772.4,776.7 1802.7,807 C1833,837.3 1847.6,822.7 1877.9,853 C1908.2,883.3 1893.6,897.9 1923.9,928.2 C1954.2,958.5 1968.8,943.9 1999.1,974.2 C2029.4,1004.5 2012.5,1023.4 2046,1050.1 C2051.9,1054.8 2060,1031.8 2067.6,1031.8 C2075.2,1031.8 2075.2,1052.4 2082.7,1052.4 C2090.3,1052.4 2090.3,1031.8 2097.8,1031.8 C2105.4,1031.8 2105.4,1052.4 2112.9,1052.4 C2120.5,1052.4 2120.5,1031.8 2128,1031.8 C2135.6,1031.8 2135.6,1052.4 2143.1,1052.4 C2150.7,1052.4 2150.7,1031.8 2158.2,1031.8 C2165.8,1031.8 2165.8,1052.4 2173.3,1052.4 C2180.9,1052.4 2180.9,1031.8 2188.4,1031.8 C2196,1031.8 2196,1052.4 2203.5,1052.4 C2211.1,1052.4 2211.1,1031.8 2218.6,1031.8 C2226.2,1031.8 2226.2,1052.4 2233.8,1052.4 C2241.4,1052.4 2241.4,1031.8 2248.9,1031.8 C2256.5,1031.8 2256.5,1052.4 2264.1,1052.4 C2271.7,1052.4 2271.7,1031.8 2279.3,1031.8 C2286.9,1031.8 2286.9,1052.4 2294.5,1052.4 C2302.1,1052.4 2306,1054.3 2301.4,1048.3 C2275.7,1014 2286.6,1004.5 2256.3,974.2 C2226,943.9 2211.4,958.5 2181.1,928.2 C2150.8,897.9 2165.4,883.3 2135.1,853 C2104.8,822.7 2090.2,837.3 2059.9,807 C2029.6,776.7 2044.2,762.1 2013.9,731.8 C1983.6,701.5 1969,716.1 1938.7,685.8 C1908.4,655.5 1923,640.9 1892.7,610.6 C1862.4,580.3 1847.8,594.9 1817.5,564.6 C1787.2,534.3 1801.8,519.7 1771.5,489.4 C1741.2,459.1 1726.6,473.7 1696.3,443.4 C1666,413.1 1680.6,398.5 1650.3,368.2 C1620,337.9 1605.4,352.5 1575.1,322.2 C1544.8,291.9 1559.4,277.3 1529.1,247 C1498.8,216.7 1484.2,231.3 1453.9,201 C1423.6,170.7 1438.2,156.1 1407.9,125.8 C1377.6,95.5 1363,110.1 1332.7,79.8 C1302.4,49.5 1319.3,30.6 1285.8,3.9 C1279.9,-0.8 1271.8,22.2 1264.2,22.2 C1257,22.2 1257,1.6 1249.4,1.6 C1241.8,1.6 1241.8,22.2 1234.3,22.2 C1226.7,22.2 1226.7,1.6 1219.2,1.6 C1211.6,1.6 1211.6,22.2 1204.1,22.2 C1196.5,22.2 1196.5,1.6 1189,1.6 C1181.4,1.6 1181.4,22.2 1173.9,22.2 C1166.3,22.2 1166.3,1.6 1158.8,1.6 C1151.2,1.6 1151.2,22.2 1143.7,22.2 C1136.1,22.2 1136.1,1.6 1128.6,1.6 C1121,1.6 1121,22.2 1113.5,22.2 C1105.9,22.2 1105.9,1.6 1098.3,1.6 C1090.7,1.6 1090.7,22.2 1083.2,22.2 C1075.6,22.2 1075.6,1.6 1068,1.6 C1060.4,1.6 1060.4,22.2 1052.8,22.2 C1045.2,22.2 1048.8,5.7 1042,2.5 C1035.6,-0.2 1025.9,-0.3 1030.4,5.7 Z" id="Shape"></path>
            <path d="M1287.9,5.7 C1313.6,40 1302.7,49.5 1333,79.8 C1363.3,110.1 1377.9,95.5 1408.2,125.8 C1438.5,156.1 1423.9,170.7 1454.2,201 C1484.5,231.3 1499.1,216.7 1529.4,247 C1559.7,277.3 1545.1,291.9 1575.4,322.2 C1605.7,352.5 1620.3,337.9 1650.6,368.2 C1680.9,398.5 1666.3,413.1 1696.6,443.4 C1726.9,473.7 1741.5,459.1 1771.8,489.4 C1802.1,519.7 1787.5,534.3 1817.8,564.6 C1848.1,594.9 1862.7,580.3 1893,610.6 C1923.3,640.9 1908.7,655.5 1939,685.8 C1969.3,716.1 1983.9,701.5 2014.2,731.8 C2044.5,762.1 2029.9,776.7 2060.2,807 C2090.5,837.3 2105.1,822.7 2135.4,853 C2165.7,883.3 2151.1,897.9 2181.4,928.2 C2211.7,958.5 2226.3,943.9 2256.6,974.2 C2286.9,1004.5 2270,1023.4 2303.5,1050.1 C2309.4,1054.8 2317.5,1031.8 2325.1,1031.8 C2332.7,1031.8 2332.7,1052.4 2340.2,1052.4 C2347.8,1052.4 2347.8,1031.8 2355.3,1031.8 C2362.9,1031.8 2362.9,1052.4 2370.4,1052.4 C2378,1052.4 2378,1031.8 2385.5,1031.8 C2393,1031.8 2393.1,1052.4 2400.6,1052.4 C2408.2,1052.4 2408.2,1031.8 2415.7,1031.8 C2423.3,1031.8 2423.3,1052.4 2430.8,1052.4 C2438.4,1052.4 2438.4,1031.8 2445.9,1031.8 C2453.5,1031.8 2453.5,1052.4 2461,1052.4 C2468.6,1052.4 2468.6,1031.8 2476.1,1031.8 C2483.7,1031.8 2483.7,1052.4 2491.3,1052.4 C2498.9,1052.4 2498.9,1031.8 2506.4,1031.8 C2514,1031.8 2514,1052.4 2521.6,1052.4 C2529.2,1052.4 2529.2,1031.8 2536.8,1031.8 C2544.4,1031.8 2544.4,1052.4 2552,1052.4 C2559.6,1052.4 2563.5,1054.3 2558.9,1048.3 C2533.2,1014 2544.1,1004.5 2513.8,974.2 C2483.5,943.9 2468.9,958.5 2438.6,928.2 C2408.3,897.9 2422.9,883.3 2392.6,853 C2362.3,822.7 2347.7,837.3 2317.4,807 C2287.1,776.7 2301.7,762.1 2271.4,731.8 C2241.1,701.5 2226.5,716.1 2196.2,685.8 C2165.9,655.5 2180.5,640.9 2150.2,610.6 C2119.9,580.3 2105.3,594.9 2075,564.6 C2044.7,534.3 2059.3,519.7 2029,489.4 C1998.7,459.1 1984.1,473.7 1953.8,443.4 C1923.5,413.1 1938.1,398.5 1907.8,368.2 C1877.5,337.9 1862.9,352.5 1832.6,322.2 C1802.3,291.9 1816.9,277.3 1786.6,247 C1756.3,216.7 1741.7,231.3 1711.4,201 C1681.1,170.7 1695.7,156.1 1665.4,125.8 C1635.1,95.5 1620.5,110.1 1590.2,79.8 C1559.9,49.5 1576.8,30.6 1543.3,3.9 C1537.4,-0.8 1529.3,22.2 1521.7,22.2 C1514.1,22.2 1514.1,1.6 1506.6,1.6 C1499,1.6 1499,22.2 1491.5,22.2 C1483.9,22.2 1483.9,1.6 1476.4,1.6 C1468.8,1.6 1468.8,22.2 1461.3,22.2 C1453.7,22.2 1453.7,1.6 1446.2,1.6 C1438.6,1.6 1438.6,22.2 1431.1,22.2 C1423.5,22.2 1423.5,1.6 1416,1.6 C1408.4,1.6 1408.4,22.2 1400.9,22.2 C1393.3,22.2 1393.3,1.6 1385.8,1.6 C1378.2,1.6 1378.2,22.2 1370.7,22.2 C1363.1,22.2 1363.1,1.6 1355.5,1.6 C1347.9,1.6 1347.9,22.2 1340.4,22.2 C1332.8,22.2 1332.8,1.6 1325.2,1.6 C1317.6,1.6 1317.6,22.2 1310,22.2 C1302.4,22.2 1306,5.7 1299.2,2.5 C1293.1,-0.2 1283.4,-0.3 1287.9,5.7 Z" id="Shape" fill-opacity="0.06" fill="#000000" fill-rule="nonzero"></path>
            <path d="M1545.5,5.7 C1571.2,40 1560.3,49.5 1590.6,79.8 C1620.9,110.1 1635.5,95.5 1665.8,125.8 C1696.1,156.1 1681.5,170.7 1711.8,201 C1742.1,231.3 1756.7,216.7 1787,247 C1817.3,277.3 1802.7,291.9 1833,322.2 C1863.3,352.5 1877.9,337.9 1908.2,368.2 C1938.5,398.5 1923.9,413.1 1954.2,443.4 C1984.5,473.7 1999.1,459.1 2029.4,489.4 C2059.7,519.7 2045.1,534.3 2075.4,564.6 C2105.7,594.9 2120.3,580.3 2150.6,610.6 C2180.9,640.9 2166.3,655.5 2196.6,685.8 C2226.9,716.1 2241.5,701.5 2271.8,731.8 C2302.1,762.1 2287.5,776.7 2317.8,807 C2348.1,837.3 2362.7,822.7 2393,853 C2423.3,883.3 2408.7,897.9 2439,928.2 C2469.3,958.5 2483.9,943.9 2514.2,974.2 C2544.5,1004.5 2527.6,1023.4 2561.1,1050.1 C2567,1054.8 2575.1,1031.8 2582.7,1031.8 C2590.3,1031.8 2590.3,1052.4 2597.8,1052.4 C2605.4,1052.4 2605.4,1031.8 2612.9,1031.8 C2620.5,1031.8 2620.5,1052.4 2628,1052.4 C2635.6,1052.4 2635.6,1031.8 2643.1,1031.8 C2650.6,1031.8 2650.7,1052.4 2658.2,1052.4 C2665.8,1052.4 2665.8,1031.8 2673.3,1031.8 C2680.9,1031.8 2680.9,1052.4 2688.4,1052.4 C2696,1052.4 2696,1031.8 2703.5,1031.8 C2711.1,1031.8 2711.1,1052.4 2718.6,1052.4 C2726.2,1052.4 2726.2,1031.8 2733.7,1031.8 C2741.3,1031.8 2741.3,1052.4 2748.9,1052.4 C2756.5,1052.4 2756.5,1031.8 2764,1031.8 C2771.6,1031.8 2771.6,1052.4 2779.2,1052.4 C2786.8,1052.4 2786.8,1031.8 2794.4,1031.8 C2802,1031.8 2802,1052.4 2809.6,1052.4 C2817.2,1052.4 2821.1,1054.3 2816.5,1048.3 C2790.8,1014 2801.7,1004.5 2771.4,974.2 C2741.1,943.9 2726.5,958.5 2696.2,928.2 C2665.9,897.9 2680.5,883.3 2650.2,853 C2619.9,822.7 2605.3,837.3 2575,807 C2544.7,776.7 2559.3,762.1 2529,731.8 C2498.7,701.5 2484.1,716.1 2453.8,685.8 C2423.5,655.5 2438.1,640.9 2407.8,610.6 C2377.5,580.3 2362.9,594.9 2332.6,564.6 C2302.3,534.3 2316.9,519.7 2286.6,489.4 C2256.3,459.1 2241.7,473.7 2211.4,443.4 C2181.1,413.1 2195.7,398.5 2165.4,368.2 C2135.1,337.9 2120.5,352.5 2090.2,322.2 C2059.9,291.9 2074.5,277.3 2044.2,247 C2013.9,216.7 1999.3,231.3 1969,201 C1938.7,170.7 1953.3,156.1 1923,125.8 C1892.7,95.5 1878.1,110.1 1847.8,79.8 C1817.5,49.5 1834.4,30.6 1800.9,3.9 C1795,-0.8 1786.9,22.2 1779.3,22.2 C1771.7,22.2 1771.7,1.6 1764.2,1.6 C1756.6,1.6 1756.6,22.2 1749.1,22.2 C1741.5,22.2 1741.5,1.6 1734,1.6 C1726.4,1.6 1726.4,22.2 1718.9,22.2 C1711.3,22.2 1711.3,1.6 1703.8,1.6 C1696.2,1.6 1696.2,22.2 1688.7,22.2 C1681.1,22.2 1681.1,1.6 1673.6,1.6 C1666,1.6 1666,22.2 1658.5,22.2 C1650.9,22.2 1650.9,1.6 1643.4,1.6 C1635.8,1.6 1635.8,22.2 1628.3,22.2 C1620.7,22.2 1620.7,1.6 1613.1,1.6 C1605.5,1.6 1605.5,22.2 1598,22.2 C1590.4,22.2 1590.4,1.6 1582.8,1.6 C1575.2,1.6 1575.2,22.2 1567.6,22.2 C1560,22.2 1563.6,5.7 1556.8,2.5 C1550.7,-0.2 1540.9,-0.3 1545.5,5.7 Z" id="Shape" fill-opacity="0.12" fill="#000000" fill-rule="nonzero"></path>
            <path d="M1803,5.7 C1828.7,40 1817.8,49.5 1848.1,79.8 C1878.4,110.1 1893,95.5 1923.3,125.8 C1953.6,156.1 1939,170.7 1969.3,201 C1999.6,231.3 2014.2,216.7 2044.5,247 C2074.8,277.3 2060.2,291.9 2090.5,322.2 C2120.8,352.5 2135.4,337.9 2165.7,368.2 C2196,398.5 2181.4,413.1 2211.7,443.4 C2242,473.7 2256.6,459.1 2286.9,489.4 C2317.2,519.7 2302.6,534.3 2332.9,564.6 C2363.2,594.9 2377.8,580.3 2408.1,610.6 C2438.4,640.9 2423.8,655.5 2454.1,685.8 C2484.4,716.1 2499,701.5 2529.3,731.8 C2559.6,762.1 2545,776.7 2575.3,807 C2605.6,837.3 2620.2,822.7 2650.5,853 C2680.8,883.3 2666.2,897.9 2696.5,928.2 C2726.8,958.5 2741.4,943.9 2771.7,974.2 C2802,1004.5 2785.1,1023.4 2818.6,1050.1 C2824.5,1054.8 2832.6,1031.8 2840.2,1031.8 C2847.8,1031.8 2847.8,1052.4 2855.3,1052.4 C2862.9,1052.4 2862.9,1031.8 2870.4,1031.8 C2878,1031.8 2878,1052.4 2885.5,1052.4 C2893.1,1052.4 2893.1,1031.8 2900.6,1031.8 C2908.2,1031.8 2908.2,1052.4 2915.7,1052.4 C2923.3,1052.4 2923.3,1031.8 2930.8,1031.8 C2938.4,1031.8 2938.4,1052.4 2945.9,1052.4 C2953.5,1052.4 2953.5,1031.8 2961,1031.8 C2968.6,1031.8 2968.6,1052.4 2976.1,1052.4 C2983.7,1052.4 2983.7,1031.8 2991.2,1031.8 C2998.8,1031.8 2998.8,1052.4 3006.4,1052.4 C3014,1052.4 3014,1031.8 3021.5,1031.8 C3029.1,1031.8 3029.1,1052.4 3036.7,1052.4 C3044.3,1052.4 3044.3,1031.8 3051.9,1031.8 C3059.5,1031.8 3059.5,1052.4 3067.1,1052.4 C3074.7,1052.4 3078.6,1054.3 3074,1048.3 C3048.3,1014 3059.2,1004.5 3028.9,974.2 C2998.6,943.9 2984,958.5 2953.7,928.2 C2923.4,897.9 2938,883.3 2907.7,853 C2877.4,822.7 2862.8,837.3 2832.5,807 C2802.2,776.7 2816.8,762.1 2786.5,731.8 C2756.2,701.5 2741.6,716.1 2711.3,685.8 C2681,655.5 2695.6,640.9 2665.3,610.6 C2635,580.3 2620.4,594.9 2590.1,564.6 C2559.8,534.3 2574.4,519.7 2544.1,489.4 C2513.8,459.1 2499.2,473.7 2468.9,443.4 C2438.6,413.1 2453.2,398.5 2422.9,368.2 C2392.6,337.9 2378,352.5 2347.7,322.2 C2317.4,291.9 2332,277.3 2301.7,247 C2271.4,216.7 2256.8,231.3 2226.5,201 C2196.2,170.7 2210.8,156.1 2180.5,125.8 C2150.2,95.5 2135.6,110.1 2105.3,79.8 C2075,49.5 2091.9,30.6 2058.4,3.9 C2052.5,-0.8 2044.4,22.2 2036.8,22.2 C2029.2,22.2 2029.2,1.6 2021.7,1.6 C2014.1,1.6 2014.1,22.2 2006.6,22.2 C1999,22.2 1999,1.6 1991.5,1.6 C1983.9,1.6 1983.9,22.2 1976.4,22.2 C1968.8,22.2 1968.8,1.6 1961.3,1.6 C1953.7,1.6 1953.7,22.2 1946.2,22.2 C1938.6,22.2 1938.6,1.6 1931.1,1.6 C1923.5,1.6 1923.5,22.2 1916,22.2 C1908.4,22.2 1908.4,1.6 1900.9,1.6 C1893.3,1.6 1893.3,22.2 1885.8,22.2 C1878.2,22.2 1878.2,1.6 1870.6,1.6 C1863,1.6 1863,22.2 1855.5,22.2 C1847.9,22.2 1847.9,1.6 1840.3,1.6 C1832.7,1.6 1832.7,22.2 1825.1,22.2 C1817.5,22.2 1821.1,5.7 1814.3,2.5 C1808.2,-0.2 1798.5,-0.3 1803,5.7 Z" id="Shape" fill-opacity="0.16" fill="#000000" fill-rule="nonzero"></path>
            <path d="M2060.5,5.7 C2086.2,40 2075.3,49.5 2105.6,79.8 C2135.9,110.1 2150.5,95.5 2180.8,125.8 C2211.1,156.1 2196.5,170.7 2226.8,201 C2257.1,231.3 2271.7,216.7 2302,247 C2332.3,277.3 2317.7,291.9 2348,322.2 C2378.3,352.5 2392.9,337.9 2423.2,368.2 C2453.5,398.5 2438.9,413.1 2469.2,443.4 C2499.5,473.7 2514.1,459.1 2544.4,489.4 C2574.7,519.7 2560.1,534.3 2590.4,564.6 C2620.7,594.9 2635.3,580.3 2665.6,610.6 C2695.9,640.9 2681.3,655.5 2711.6,685.8 C2741.9,716.1 2756.5,701.5 2786.8,731.8 C2817.1,762.1 2802.5,776.7 2832.8,807 C2863.1,837.3 2877.7,822.7 2908,853 C2938.3,883.3 2923.7,897.9 2954,928.2 C2984.3,958.5 2998.9,943.9 3029.2,974.2 C3059.5,1004.5 3042.6,1023.4 3076.1,1050.1 C3082,1054.8 3090.1,1031.8 3097.7,1031.8 C3105.3,1031.8 3105.3,1052.4 3112.8,1052.4 C3120.4,1052.4 3120.4,1031.8 3127.9,1031.8 C3135.5,1031.8 3135.5,1052.4 3143,1052.4 C3150.6,1052.4 3150.6,1031.8 3158.1,1031.8 C3165.7,1031.8 3165.7,1052.4 3173.2,1052.4 C3180.8,1052.4 3180.8,1031.8 3188.3,1031.8 C3195.9,1031.8 3195.9,1052.4 3203.4,1052.4 C3211,1052.4 3211,1031.8 3218.5,1031.8 C3226.1,1031.8 3226.1,1052.4 3233.6,1052.4 C3241.1,1052.4 3241.2,1031.8 3248.7,1031.8 C3256.3,1031.8 3256.3,1052.4 3263.9,1052.4 C3271.5,1052.4 3271.5,1031.8 3279,1031.8 C3286.6,1031.8 3286.6,1052.4 3294.2,1052.4 C3301.8,1052.4 3301.8,1031.8 3309.4,1031.8 C3317,1031.8 3317,1052.4 3324.6,1052.4 C3332.2,1052.4 3336.1,1054.3 3331.5,1048.3 C3305.8,1014 3316.7,1004.5 3286.4,974.2 C3256.1,943.9 3241.5,958.5 3211.2,928.2 C3180.9,897.9 3195.5,883.3 3165.2,853 C3134.9,822.7 3120.3,837.3 3090,807 C3059.7,776.7 3074.3,762.1 3044,731.8 C3013.7,701.5 2999.1,716.1 2968.8,685.8 C2938.5,655.5 2953.1,640.9 2922.8,610.6 C2892.5,580.3 2877.9,594.9 2847.6,564.6 C2817.3,534.3 2831.9,519.7 2801.6,489.4 C2771.3,459.1 2756.7,473.7 2726.4,443.4 C2696.1,413.1 2710.7,398.5 2680.4,368.2 C2650.1,337.9 2635.5,352.5 2605.2,322.2 C2574.9,291.9 2589.5,277.3 2559.2,247 C2528.9,216.7 2514.3,231.3 2484,201 C2453.7,170.7 2468.3,156.1 2438,125.8 C2407.7,95.5 2393.1,110.1 2362.8,79.8 C2332.5,49.5 2349.4,30.6 2315.9,3.9 C2310,-0.8 2301.9,22.2 2294.3,22.2 C2286.7,22.2 2286.7,1.6 2279.2,1.6 C2271.6,1.6 2271.6,22.2 2264.1,22.2 C2256.5,22.2 2256.5,1.6 2249,1.6 C2241.4,1.6 2241.4,22.2 2233.9,22.2 C2226.3,22.2 2226.3,1.6 2218.8,1.6 C2211.2,1.6 2211.2,22.2 2203.7,22.2 C2196.1,22.2 2196.1,1.6 2188.6,1.6 C2181,1.6 2181,22.2 2173.5,22.2 C2165.9,22.2 2165.9,1.6 2158.4,1.6 C2150.8,1.6 2150.8,22.2 2143.3,22.2 C2135.7,22.2 2135.7,1.6 2128.1,1.6 C2120.5,1.6 2120.5,22.2 2113,22.2 C2105.4,22.2 2105.4,1.6 2097.8,1.6 C2090.2,1.6 2090.2,22.2 2082.6,22.2 C2075,22.2 2078.6,5.7 2071.8,2.5 C2065.8,-0.2 2056,-0.3 2060.5,5.7 Z" id="Shape" fill-opacity="0.18" fill="#000000" fill-rule="nonzero"></path>
        </g>
    </g>
</svg>