<?xml version="1.0" standalone="no"?>
<!DOCTYPE svg PUBLIC "-//W3C//DTD SVG 20010904//EN"
 "http://www.w3.org/TR/2001/REC-SVG-20010904/DTD/svg10.dtd">
<svg version="1.0" xmlns="http://www.w3.org/2000/svg"
 width="692.000000pt" height="692.000000pt" viewBox="0 0 692.000000 692.000000"
 preserveAspectRatio="xMidYMid meet">
<metadata>
Created by potrace 1.11, written by Peter Selinger 2001-2013
</metadata>
<g transform="translate(0.000000,692.000000) scale(0.100000,-0.100000)"
fill="#000000" stroke="none">
<path d="M2250 6660 c-96 -39 -184 -74 -195 -79 -11 -6 -90 -37 -176 -71
l-156 -61 0 -175 c0 -96 -4 -178 -9 -183 -5 -4 -110 -45 -234 -90 -124 -46
-274 -101 -335 -125 l-109 -41 -1 -173 0 -173 -25 -14 c-14 -7 -68 -30 -120
-50 -52 -21 -108 -43 -125 -50 -31 -14 -83 -35 -305 -122 l-125 -50 0 -902 0
-902 235 -95 c129 -51 244 -98 255 -103 11 -5 62 -26 112 -47 l93 -37 2 -449
3 -450 160 -64 c88 -35 170 -69 183 -74 12 -6 32 -14 45 -19 52 -20 115 -46
152 -61 22 -10 61 -25 88 -35 28 -11 47 -24 48 -34 0 -9 0 -214 0 -457 l0
-441 72 -28 c40 -15 86 -33 102 -41 17 -7 77 -31 135 -54 58 -24 119 -48 135
-55 17 -7 134 -55 260 -105 127 -51 244 -98 260 -106 17 -7 53 -22 80 -32 51
-19 529 -212 862 -348 100 -41 184 -74 188 -74 7 0 247 95 292 115 17 8 36 15
42 15 6 0 19 4 29 10 9 5 143 60 297 121 154 61 294 117 310 124 17 7 107 43
200 80 94 36 184 72 200 79 17 7 338 136 715 286 377 150 688 276 692 279 5 5
13 1639 9 1802 -1 20 -8 28 -25 33 -22 5 -147 54 -562 217 -109 43 -99 43
-199 -1 -11 -5 -148 -58 -304 -119 -157 -61 -287 -113 -290 -116 -3 -3 -6
-204 -7 -447 l-1 -441 -304 -121 c-167 -67 -322 -129 -344 -138 l-40 -16 1
422 c1 231 4 1116 5 1966 l4 1545 -488 196 c-268 107 -505 203 -525 211 -20 9
-257 105 -527 213 -269 109 -505 204 -524 211 -18 8 -34 14 -35 14 0 -1 -80
-32 -176 -70z m353 -1471 c165 -66 171 -68 237 -96 25 -11 100 -41 167 -68
l121 -48 -2 -1506 c-2 -828 -5 -1506 -8 -1506 -3 0 -159 61 -346 135 l-342
135 0 446 0 447 -342 137 c-189 75 -345 139 -348 141 -10 10 -5 1234 5 1238 6
2 159 63 340 136 182 72 335 136 340 140 7 6 11 69 10 170 -1 88 3 160 8 160
4 0 76 -27 160 -61z"/>
<path d="M5740 5215 c-80 -34 -154 -67 -165 -72 -11 -5 -98 -42 -192 -82
l-173 -73 -2 -417 c-2 -229 -2 -429 0 -446 3 -29 10 -33 255 -134 249 -103
292 -121 383 -162 29 -13 56 -18 72 -14 29 7 616 241 652 260 l25 13 0 448 1
449 -60 27 c-334 148 -619 268 -634 267 -9 0 -82 -29 -162 -64z"/>
</g>
</svg>
