<?xml version="1.0" standalone="no"?>
<!DOCTYPE svg PUBLIC "-//W3C//DTD SVG 20010904//EN"
 "http://www.w3.org/TR/2001/REC-SVG-20010904/DTD/svg10.dtd">
<svg version="1.0" xmlns="http://www.w3.org/2000/svg"
 width="2048.000000pt" height="2048.000000pt" viewBox="0 0 2048.000000 2048.000000"
 preserveAspectRatio="xMidYMid meet">
<metadata>
Created by potrace 1.11, written by Peter Selinger 2001-2013
</metadata>
<g transform="translate(0.000000,2048.000000) scale(0.100000,-0.100000)"
fill="#000000" stroke="none">
<path d="M13120 16386 c14 -18 13 -19 -1 -14 -9 4 -22 1 -29 -5 -10 -9 -11 -9
-5 1 5 10 2 13 -11 11 -11 -2 -24 0 -31 4 -6 4 -14 3 -18 -3 -3 -5 -11 -10
-16 -10 -6 0 -7 5 -3 11 4 8 0 7 -15 -1 -12 -6 -31 -8 -43 -4 -15 5 -19 3 -13
-7 5 -8 -2 -5 -15 6 -13 11 -20 14 -16 8 12 -21 -53 -20 -66 0 -8 12 -12 -4
-9 -28 1 -5 -6 -1 -14 9 -8 11 -15 14 -15 8 0 -7 -5 -12 -11 -12 -5 0 -7 4 -4
10 3 6 -1 7 -10 4 -8 -4 -23 0 -32 7 -12 10 -15 10 -9 2 5 -9 0 -13 -14 -13
-14 0 -19 -4 -14 -12 4 -7 -2 -5 -13 5 -21 18 -22 18 -32 0 -8 -14 -10 -14
-11 -3 0 13 -1 13 -10 0 -9 -13 -10 -13 -10 0 0 13 -1 13 -10 0 -8 -13 -10
-13 -10 0 0 11 -3 11 -12 2 -14 -14 -32 -16 -23 -2 3 6 -1 7 -9 4 -9 -3 -13
-10 -10 -15 8 -14 -3 -11 -20 6 -13 13 -15 13 -21 -6 -7 -19 -7 -20 -21 -2 -8
11 -13 13 -14 6 0 -7 -4 -13 -10 -13 -5 0 -7 8 -3 18 4 12 -1 10 -15 -7 -12
-13 -22 -19 -22 -12 0 7 -5 9 -12 4 -7 -4 -22 -8 -33 -8 -11 0 -25 -3 -31 -7
-6 -4 -14 -4 -18 -1 -10 11 -46 11 -46 0 0 -5 -6 -5 -13 1 -10 9 -19 7 -36 -4
-16 -12 -25 -13 -35 -5 -10 8 -17 7 -26 -4 -7 -8 -16 -12 -21 -9 -16 9 -50 13
-44 5 8 -14 -21 -20 -35 -8 -10 10 -12 8 -6 -7 5 -16 4 -17 -9 -6 -8 7 -15 9
-15 5 0 -4 -7 -2 -15 5 -13 11 -14 10 -9 -4 5 -14 3 -15 -20 -6 -16 6 -25 6
-21 1 3 -5 1 -12 -5 -16 -5 -3 -10 0 -10 7 0 9 -3 9 -10 -2 -8 -13 -10 -13
-10 -1 0 11 -4 10 -16 -5 -8 -10 -13 -13 -9 -6 3 6 1 12 -4 12 -6 0 -11 -4
-11 -10 0 -5 -5 -10 -11 -10 -5 0 -8 4 -4 9 3 5 1 13 -5 16 -6 4 -9 1 -8 -7 2
-8 -6 -13 -19 -12 -13 1 -20 -3 -17 -8 4 -6 -2 -7 -16 -3 -17 5 -21 4 -16 -6
4 -8 0 -5 -8 5 -16 19 -16 19 -16 -2 0 -20 -3 -21 -20 -12 -15 8 -20 8 -20 -1
0 -9 -4 -8 -14 0 -11 10 -16 9 -24 -5 -6 -11 -11 -13 -16 -5 -4 6 -13 11 -19
11 -7 0 -6 -4 3 -10 13 -9 13 -10 0 -11 -8 -1 -23 0 -34 1 -13 1 -16 -2 -10
-12 6 -10 4 -10 -9 1 -11 9 -17 10 -17 2 0 -6 -5 -11 -11 -11 -5 0 -7 6 -3 13
4 6 -3 3 -16 -8 -13 -11 -20 -14 -16 -7 4 6 2 12 -3 12 -6 0 -11 -5 -11 -11 0
-6 -9 -9 -20 -6 -11 3 -18 1 -15 -3 3 -5 1 -11 -5 -15 -5 -3 -10 -1 -10 6 0 8
-3 9 -13 0 -8 -6 -17 -8 -20 -4 -4 3 -7 1 -7 -6 0 -8 -5 -9 -19 -2 -14 8 -22
7 -31 -4 -10 -12 -16 -13 -27 -4 -11 10 -12 8 -7 -6 6 -15 4 -16 -15 -6 -12 7
-21 8 -20 4 3 -20 -2 -27 -11 -13 -6 10 -10 11 -10 3 0 -7 -9 -13 -19 -13 -11
0 -23 -5 -26 -10 -4 -6 -15 -8 -25 -5 -10 3 -20 0 -23 -8 -3 -9 -18 -14 -39
-13 -19 1 -38 -4 -45 -14 -7 -9 -12 -10 -13 -3 0 14 -50 -7 -50 -22 0 -5 -5
-3 -10 5 -9 13 -12 13 -23 -1 -16 -21 -63 -37 -51 -18 6 11 5 12 -8 2 -8 -7
-19 -9 -23 -5 -5 4 -5 1 -1 -6 6 -10 3 -13 -10 -12 -32 4 -45 0 -39 -9 3 -5 1
-12 -5 -16 -5 -3 -10 -1 -10 6 0 7 -12 2 -27 -12 -15 -13 -21 -16 -14 -7 12
16 11 17 -18 7 -19 -7 -28 -15 -24 -22 4 -7 -1 -6 -10 2 -15 12 -17 11 -17 -2
0 -10 -6 -14 -15 -11 -8 4 -15 2 -15 -4 0 -6 -8 -9 -17 -8 -9 2 -28 -3 -42
-10 -13 -7 -29 -10 -35 -7 -6 4 -5 -1 3 -10 13 -16 12 -17 -13 -7 -20 7 -25 7
-20 -2 5 -8 2 -9 -10 -5 -11 5 -15 3 -10 -5 5 -8 2 -9 -10 -5 -9 4 -14 3 -11
-2 3 -5 1 -12 -5 -16 -5 -3 -10 0 -10 7 0 10 -2 10 -9 -1 -5 -7 -14 -10 -20
-7 -10 7 -16 -6 -12 -27 1 -5 -3 -6 -9 -2 -6 3 -7 12 -3 18 3 7 -4 3 -17 -8
-15 -13 -21 -15 -16 -5 4 8 1 7 -8 -4 -9 -10 -20 -15 -27 -10 -8 5 -11 2 -6
-8 4 -12 1 -14 -14 -11 -11 3 -19 0 -19 -7 0 -8 -9 -11 -24 -8 -19 4 -23 1
-19 -11 5 -13 3 -14 -8 -3 -11 10 -17 8 -32 -10 -10 -13 -16 -17 -12 -11 4 9
1 11 -9 7 -9 -3 -16 -10 -16 -15 0 -5 -6 -8 -12 -7 -7 2 -12 -3 -10 -11 3 -12
0 -12 -12 -2 -17 14 -32 -2 -20 -21 6 -10 4 -10 -8 0 -12 10 -21 10 -42 1 -15
-7 -25 -18 -22 -25 3 -8 0 -11 -10 -7 -7 3 -14 0 -14 -5 0 -6 -9 -9 -21 -7
-16 3 -19 0 -15 -12 5 -12 3 -13 -7 -5 -8 7 -18 7 -27 2 -13 -9 -13 -10 0 -10
13 0 13 -1 0 -10 -9 -6 -17 -5 -22 3 -6 9 -8 9 -8 0 0 -6 -16 -21 -37 -33 -29
-17 -38 -18 -44 -8 -6 9 -9 5 -9 -12 0 -19 -2 -22 -10 -10 -8 12 -10 12 -16
-3 -3 -9 -10 -15 -14 -12 -5 3 -11 1 -15 -5 -4 -6 -11 -8 -16 -5 -5 3 -6 0 -4
-7 4 -9 -3 -14 -17 -15 -13 -1 -24 -7 -26 -13 -2 -5 -8 -8 -13 -4 -5 3 -12 -2
-15 -11 -6 -13 -8 -14 -15 -3 -6 9 -9 6 -9 -12 0 -17 -3 -21 -9 -12 -6 10 -15
6 -36 -16 -16 -17 -34 -28 -42 -25 -7 3 -13 0 -13 -7 0 -6 -4 -9 -9 -5 -6 3
-13 0 -18 -7 -4 -7 -19 -22 -33 -33 -17 -14 -20 -15 -12 -3 11 13 11 18 0 24
-7 4 -10 4 -6 -1 7 -7 -1 -18 -36 -45 -16 -12 -18 -12 -11 -1 6 10 4 12 -4 7
-7 -5 -10 -14 -7 -22 3 -8 0 -11 -8 -8 -17 7 -78 -30 -68 -41 4 -4 -3 -6 -15
-3 -16 5 -20 2 -16 -10 5 -11 2 -14 -11 -9 -10 4 -15 3 -11 -3 3 -6 1 -10 -5
-10 -6 0 -8 -5 -4 -12 6 -10 5 -10 -7 -1 -11 9 -20 6 -41 -12 -16 -13 -28 -30
-28 -37 0 -9 -3 -9 -10 2 -5 8 -10 12 -11 8 -1 -5 -3 -12 -4 -18 -1 -5 -3 -13
-4 -16 0 -4 -8 -1 -16 6 -13 11 -14 10 -10 -3 4 -8 1 -18 -6 -23 -8 -5 -10 -3
-5 7 5 8 2 8 -6 -2 -7 -9 -20 -14 -28 -11 -13 5 -13 3 -1 -12 12 -14 12 -16
-3 -10 -9 3 -16 1 -16 -6 0 -6 -5 -8 -12 -4 -8 5 -9 2 -4 -11 6 -16 4 -16 -11
-4 -9 8 -14 9 -10 3 4 -7 -1 -18 -10 -25 -14 -12 -16 -12 -9 1 4 8 0 6 -9 -5
-9 -11 -19 -20 -24 -20 -4 0 -19 -12 -32 -27 -20 -22 -28 -25 -38 -15 -10 9
-11 8 -5 -7 6 -15 4 -17 -6 -11 -10 6 -12 4 -6 -10 5 -15 4 -16 -9 -5 -13 11
-16 11 -13 -1 2 -8 -3 -13 -9 -12 -7 2 -13 -4 -13 -13 0 -14 -2 -15 -17 -3
-12 10 -15 10 -9 1 4 -7 0 -19 -8 -28 -9 -8 -16 -13 -16 -9 0 3 -12 -7 -27
-22 -28 -29 -35 -33 -53 -33 -5 0 -10 -4 -10 -10 0 -5 8 -7 18 -4 13 5 14 4 3
-4 -8 -6 -21 -8 -29 -4 -11 4 -13 2 -7 -8 6 -10 4 -12 -8 -7 -12 4 -14 2 -10
-11 3 -9 3 -14 -1 -10 -11 9 -36 -14 -28 -26 3 -5 -2 -7 -11 -3 -10 3 -17 2
-17 -4 0 -6 -4 -7 -10 -4 -6 4 -7 -1 -3 -12 3 -10 3 -15 -1 -11 -5 4 -21 -6
-36 -22 -15 -16 -31 -26 -36 -22 -4 4 -4 -1 -1 -10 4 -12 2 -15 -9 -11 -8 3
-14 2 -13 -3 4 -21 -2 -28 -11 -14 -8 13 -10 12 -10 -2 0 -10 -5 -18 -11 -18
-5 0 -7 -6 -3 -12 6 -10 4 -10 -8 0 -13 10 -15 9 -14 -10 1 -17 -4 -22 -17
-20 -10 2 -16 -3 -15 -10 2 -7 -5 -12 -14 -12 -11 1 -14 -4 -11 -14 5 -11 3
-13 -7 -7 -10 6 -12 4 -7 -9 4 -10 3 -15 -3 -11 -6 3 -13 -1 -16 -9 -3 -9 -10
-13 -15 -10 -5 3 -9 -3 -9 -12 0 -10 -3 -15 -6 -11 -3 3 -16 -5 -29 -19 -12
-13 -28 -24 -35 -24 -7 0 -10 -7 -6 -16 5 -12 2 -15 -10 -10 -12 4 -15 2 -10
-9 5 -14 -6 -20 -28 -16 -5 1 -3 -5 4 -14 7 -9 9 -15 4 -14 -21 4 -34 -2 -34
-16 0 -10 -6 -12 -17 -8 -16 6 -17 5 -3 -12 9 -11 10 -16 3 -11 -8 4 -13 2
-13 -4 0 -7 -7 -9 -16 -6 -14 5 -15 4 -4 -9 11 -13 10 -14 -5 -9 -13 5 -16 4
-11 -4 4 -8 0 -12 -11 -12 -15 0 -16 -2 -3 -10 11 -7 11 -10 2 -10 -7 0 -10
-4 -7 -10 3 -6 -1 -7 -9 -4 -9 3 -16 1 -16 -6 0 -6 -4 -9 -9 -5 -5 3 -13 0
-17 -6 -4 -8 -3 -9 4 -5 7 4 12 2 12 -3 0 -6 -5 -11 -11 -11 -5 0 -7 -4 -4
-10 4 -6 -1 -7 -12 -3 -10 3 -15 3 -11 -1 4 -5 -6 -21 -22 -36 -16 -15 -26
-31 -22 -36 4 -4 -1 -4 -11 -1 -11 4 -16 3 -12 -3 3 -6 1 -10 -4 -10 -6 0 -11
-5 -11 -11 0 -5 5 -7 12 -3 7 4 8 3 4 -5 -4 -6 -11 -9 -16 -6 -4 3 -14 -3 -21
-12 -12 -14 -12 -16 0 -8 10 6 12 4 7 -4 -5 -7 -14 -10 -22 -7 -9 3 -11 0 -7
-12 3 -9 3 -14 -1 -10 -11 10 -34 -14 -29 -29 3 -8 -4 -13 -18 -13 -19 0 -21
-2 -9 -10 10 -6 11 -10 3 -10 -7 0 -13 -7 -13 -16 0 -8 -3 -13 -7 -11 -10 6
-34 -19 -26 -27 4 -3 1 -6 -6 -6 -7 0 -9 -5 -5 -12 5 -8 2 -9 -9 -5 -9 3 -16
3 -14 -1 1 -4 -8 -18 -20 -32 -13 -13 -23 -30 -23 -37 0 -7 -6 -13 -14 -13 -8
0 -18 -5 -22 -12 -4 -7 -3 -8 4 -4 7 4 12 2 12 -3 0 -6 -5 -11 -10 -11 -6 0
-18 -13 -29 -30 -10 -16 -21 -27 -26 -22 -4 4 -6 -1 -2 -10 3 -10 0 -19 -10
-22 -8 -4 -13 -13 -9 -21 3 -8 2 -14 -2 -14 -20 3 -33 -2 -27 -11 3 -5 -5 -20
-17 -33 -13 -13 -22 -30 -20 -37 3 -7 0 -10 -7 -6 -6 4 -11 1 -11 -9 0 -8 -6
-18 -14 -21 -8 -3 -12 -12 -9 -20 4 -10 0 -12 -11 -8 -12 5 -15 2 -10 -10 4
-9 1 -16 -6 -16 -7 0 -10 -7 -6 -16 3 -8 2 -12 -4 -9 -6 3 -10 1 -10 -5 0 -6
-4 -8 -10 -5 -9 6 -15 -16 -11 -39 1 -5 -5 -6 -13 -3 -10 4 -13 -1 -12 -17 2
-15 -2 -23 -12 -22 -8 0 -17 -6 -19 -14 -4 -13 -3 -13 7 0 10 13 11 13 7 0 -2
-8 -11 -14 -20 -14 -9 1 -15 -2 -12 -6 3 -5 1 -11 -4 -15 -6 -3 -7 -13 -4 -22
5 -12 3 -14 -7 -8 -10 6 -12 3 -8 -13 4 -14 2 -19 -8 -15 -9 3 -12 -2 -9 -16
2 -12 0 -19 -6 -16 -5 4 -9 1 -9 -5 0 -6 -4 -9 -9 -6 -4 3 -7 -6 -5 -20 2 -22
0 -24 -14 -12 -9 7 -14 8 -9 3 4 -4 0 -19 -9 -33 -12 -18 -12 -22 -3 -17 8 4
3 -3 -11 -14 -17 -14 -20 -21 -10 -21 9 0 5 -6 -10 -15 -15 -9 -19 -14 -10
-15 13 0 13 -2 0 -9 -8 -6 -19 -7 -25 -3 -5 3 -4 -2 4 -11 10 -13 10 -17 1
-17 -7 0 -10 -7 -6 -16 5 -14 4 -15 -8 -5 -12 10 -14 9 -12 -6 2 -10 -4 -24
-13 -31 -9 -8 -11 -11 -5 -8 6 3 11 -1 11 -8 0 -8 -7 -12 -14 -9 -8 3 -13 2
-12 -3 4 -21 -2 -35 -11 -29 -6 3 -7 -1 -4 -9 3 -9 1 -16 -6 -16 -6 0 -8 -5
-4 -12 5 -7 2 -9 -8 -6 -8 4 -15 0 -15 -8 0 -7 5 -10 11 -7 13 8 -14 -28 -29
-39 -6 -5 -4 -8 5 -8 8 -1 2 -8 -15 -16 -16 -8 -23 -12 -15 -10 10 2 16 -3 16
-14 0 -11 -5 -16 -15 -12 -9 3 -12 1 -7 -6 4 -7 3 -12 -3 -12 -6 0 -7 -7 -4
-17 5 -12 3 -14 -7 -8 -10 6 -12 3 -7 -14 3 -13 3 -20 0 -17 -3 3 -13 -5 -23
-17 -14 -16 -16 -27 -8 -41 7 -13 7 -16 -1 -12 -6 4 -11 3 -11 -3 0 -6 -8 -8
-17 -4 -15 5 -15 3 2 -11 11 -10 14 -15 8 -11 -9 4 -13 -1 -13 -15 0 -12 -4
-19 -9 -16 -5 3 -8 -6 -8 -21 0 -15 -6 -29 -12 -31 -6 -2 -9 -8 -5 -13 5 -8
-10 -13 -29 -10 -5 1 -6 -3 -2 -9 3 -6 10 -8 15 -5 4 3 3 -6 -3 -19 -7 -14
-14 -24 -17 -24 -17 1 -19 -4 -9 -23 6 -12 7 -19 1 -16 -5 4 -14 -5 -21 -19
-8 -18 -8 -23 0 -18 8 4 8 0 0 -15 -7 -12 -9 -27 -5 -34 5 -6 -1 -5 -11 3 -11
9 -16 10 -11 3 4 -8 2 -13 -6 -13 -8 0 -9 -3 -3 -8 6 -4 11 -13 13 -21 3 -12
0 -12 -13 -1 -13 11 -15 10 -9 -4 4 -10 1 -16 -7 -16 -11 0 -11 -3 1 -10 12
-7 12 -10 1 -10 -8 0 -11 -6 -7 -15 3 -9 -1 -18 -8 -21 -8 -3 -12 -14 -9 -27
4 -18 3 -20 -7 -7 -10 12 -11 11 -7 -7 3 -13 1 -23 -5 -23 -5 0 -6 -4 -3 -10
3 -5 1 -10 -6 -10 -8 0 -8 -4 1 -15 11 -13 10 -14 -5 -9 -14 6 -16 3 -11 -14
4 -11 2 -23 -4 -27 -5 -3 -10 -15 -10 -26 0 -11 -4 -18 -9 -14 -6 3 -8 -4 -6
-15 3 -13 -2 -20 -13 -21 -11 0 -13 -2 -4 -6 10 -4 10 -8 0 -21 -11 -13 -11
-14 2 -7 13 8 13 6 1 -8 -7 -9 -11 -23 -8 -31 4 -11 1 -13 -10 -9 -12 5 -15 2
-10 -10 3 -9 2 -17 -4 -17 -6 0 -7 -5 -4 -10 4 -6 1 -18 -6 -26 -6 -8 -9 -17
-6 -21 4 -3 -1 -12 -11 -20 -9 -8 -11 -12 -4 -8 6 3 12 2 12 -4 0 -5 -4 -11
-10 -13 -5 -1 -11 -15 -12 -30 -1 -16 -7 -28 -13 -28 -5 0 -3 -5 5 -10 11 -7
11 -10 2 -10 -7 0 -11 -4 -8 -9 4 -5 0 -12 -6 -14 -9 -4 -9 -6 1 -6 11 -1 10
-5 -5 -17 -10 -8 -12 -12 -4 -8 12 6 13 4 3 -7 -7 -7 -13 -22 -13 -34 0 -12
-5 -26 -12 -33 -9 -9 -9 -12 3 -12 11 -1 10 -3 -3 -10 -11 -7 -15 -19 -12 -36
3 -14 1 -23 -5 -20 -5 3 -11 -1 -15 -9 -3 -8 -1 -17 5 -21 6 -3 3 -11 -8 -20
-13 -9 -14 -13 -4 -14 11 0 11 -3 1 -15 -6 -8 -9 -19 -5 -25 3 -5 1 -10 -4
-10 -6 0 -10 -3 -10 -7 1 -5 0 -11 -1 -15 -6 -20 -5 -34 5 -40 6 -5 2 -8 -9
-8 -13 0 -16 -5 -12 -16 4 -9 1 -23 -5 -30 -9 -11 -8 -14 2 -14 10 -1 9 -5 -4
-14 -12 -10 -15 -16 -7 -21 8 -5 7 -14 -4 -30 -10 -15 -12 -26 -6 -30 6 -3 10
-12 10 -18 0 -7 -4 -6 -10 3 -8 12 -10 9 -10 -12 0 -16 0 -31 1 -34 0 -4 -5
-11 -13 -15 -10 -7 -10 -9 2 -9 13 0 13 -1 0 -10 -11 -7 -11 -10 -2 -10 7 0
10 -5 7 -11 -4 -6 -14 -8 -23 -4 -14 5 -14 4 1 -13 15 -16 15 -20 2 -39 -9
-12 -11 -24 -6 -27 5 -4 8 -12 6 -19 -9 -36 -18 -56 -24 -53 -3 2 -6 -9 -7
-25 -1 -16 2 -29 6 -29 10 0 5 -43 -6 -47 -6 -2 -9 -18 -8 -36 1 -17 -3 -35
-9 -39 -9 -6 -8 -8 1 -8 7 0 10 -5 7 -10 -4 -6 -12 -8 -18 -4 -7 3 -4 -1 6 -9
13 -11 14 -16 5 -19 -8 -3 -11 -20 -10 -46 2 -24 -2 -42 -8 -42 -5 0 -10 -5
-10 -11 0 -5 5 -7 10 -4 14 9 12 -8 -2 -24 -8 -9 -9 -12 -1 -7 13 7 12 -19 -2
-31 -4 -4 -5 -2 0 6 6 10 4 12 -4 7 -9 -6 -8 -13 5 -27 13 -15 14 -18 3 -14
-11 4 -15 -2 -14 -22 0 -16 5 -31 10 -35 6 -4 1 -8 -10 -8 -12 0 -16 -3 -9 -8
15 -9 15 -62 1 -62 -6 0 -2 -7 9 -15 16 -13 16 -14 2 -9 -10 3 -18 1 -18 -5 0
-6 5 -11 12 -11 6 0 3 -7 -8 -16 -10 -8 -13 -13 -6 -9 6 3 12 1 12 -4 0 -6 -4
-11 -10 -11 -5 0 -10 -4 -10 -10 0 -5 6 -7 13 -4 8 3 14 -2 14 -10 0 -8 -4
-13 -8 -11 -3 3 -9 -7 -12 -20 -3 -17 1 -29 12 -35 15 -9 15 -9 0 -10 -18 0
-20 -44 -4 -70 5 -8 4 -11 -3 -6 -8 5 -9 -7 -5 -40 4 -38 3 -45 -8 -39 -11 6
-12 5 -1 -6 13 -15 17 -33 4 -25 -5 3 -8 -8 -8 -25 0 -20 4 -28 12 -25 8 3 11
-1 7 -9 -3 -8 -8 -13 -12 -10 -4 2 -6 -10 -5 -28 1 -18 3 -32 4 -32 1 0 3 -17
5 -37 1 -21 -2 -35 -6 -32 -5 3 -9 0 -9 -5 0 -6 6 -11 13 -11 8 0 7 -4 -3 -10
-14 -9 -6 -15 15 -10 5 1 1 -7 -8 -18 -14 -15 -15 -21 -5 -24 11 -4 11 -8 0
-20 -10 -12 -10 -17 -1 -20 9 -3 9 -9 0 -25 -7 -14 -7 -24 -1 -28 5 -3 8 -19
6 -35 -2 -18 1 -30 8 -30 6 0 3 -7 -7 -14 -17 -13 -17 -14 0 -21 17 -7 17 -8
-2 -15 -17 -7 -17 -9 -2 -9 9 -1 17 -5 17 -11 0 -5 -8 -10 -17 -10 -17 -1 -17
-1 -1 -10 10 -6 14 -18 11 -30 -3 -11 -1 -20 5 -20 12 0 10 -38 -2 -58 -4 -7
-2 -12 6 -12 10 0 10 -2 -1 -9 -8 -6 -10 -14 -5 -22 13 -22 14 -43 1 -51 -8
-5 -5 -8 8 -8 17 0 17 -2 5 -10 -13 -9 -13 -10 0 -10 12 0 13 -2 1 -9 -11 -7
-10 -11 5 -21 17 -10 17 -11 -4 -6 -20 4 -21 2 -10 -11 7 -9 12 -24 10 -35 -2
-10 2 -18 9 -18 9 0 9 -3 0 -14 -9 -10 -9 -16 -1 -21 8 -5 7 -11 -2 -23 -10
-12 -10 -14 -1 -8 9 5 12 0 12 -16 -1 -13 2 -32 6 -43 6 -17 5 -18 -5 -5 -10
13 -11 12 -6 -3 3 -10 6 -21 6 -23 0 -3 4 -3 8 0 5 3 9 -1 9 -9 0 -8 -4 -12
-8 -10 -9 6 -6 -16 6 -35 5 -7 8 -31 6 -52 -1 -25 2 -38 11 -38 9 0 9 -3 -2
-10 -12 -8 -12 -10 -1 -10 11 0 11 -3 0 -17 -12 -14 -12 -16 0 -9 11 7 13 1 9
-27 -2 -20 -1 -34 3 -31 4 2 10 0 14 -6 3 -5 -2 -10 -12 -11 -16 0 -16 -1 1
-8 14 -5 16 -10 7 -15 -9 -6 -8 -12 6 -23 10 -8 11 -11 3 -7 -13 7 -13 5 -1
-9 11 -14 11 -17 0 -17 -11 0 -11 -2 1 -10 8 -5 15 -22 15 -38 0 -16 7 -37 14
-46 11 -13 11 -17 -3 -22 -9 -3 -13 -10 -10 -15 3 -5 9 -7 13 -5 4 3 8 -1 8
-9 0 -8 -5 -11 -11 -8 -6 4 -2 -4 9 -17 11 -13 15 -20 8 -17 -7 5 -9 0 -6 -13
3 -11 8 -18 12 -16 9 6 5 -49 -4 -65 -5 -8 -4 -10 3 -5 7 4 12 2 12 -4 0 -6 6
-8 13 -5 6 4 3 -1 -7 -9 -16 -13 -17 -16 -4 -16 11 0 15 -11 15 -45 0 -24 5
-51 11 -58 7 -8 8 -17 4 -21 -4 -4 2 -14 12 -22 11 -8 14 -14 8 -14 -7 0 -12
-5 -12 -11 0 -5 5 -7 11 -4 6 4 10 1 8 -6 -3 -29 1 -40 14 -33 8 5 8 2 -2 -9
-9 -11 -10 -17 -2 -17 6 0 11 -5 11 -11 0 -5 -5 -7 -12 -3 -7 5 -8 3 -2 -7 9
-14 10 -19 13 -40 0 -5 7 -7 14 -3 8 5 8 3 -2 -9 -11 -14 -11 -18 3 -23 9 -3
16 -10 16 -16 0 -5 -6 -6 -12 -3 -7 4 -5 0 4 -8 14 -11 15 -16 5 -27 -10 -10
-9 -11 2 -5 11 6 13 4 8 -8 -3 -10 -2 -17 3 -17 5 0 6 -8 3 -17 -5 -13 -2 -15
13 -10 18 7 18 6 1 -7 -11 -8 -13 -16 -7 -18 6 -2 12 -14 14 -28 5 -39 17 -61
30 -53 6 4 4 -2 -4 -12 -8 -10 -10 -16 -4 -12 7 4 15 0 18 -9 3 -8 2 -13 -2
-10 -5 3 -9 -1 -9 -9 0 -8 4 -12 8 -9 4 2 10 0 14 -6 3 -5 1 -10 -6 -10 -7 0
-4 -7 7 -15 12 -9 14 -14 6 -15 -7 0 -10 -5 -7 -10 4 -6 12 -7 18 -3 7 4 6 0
-2 -10 -11 -15 -11 -17 2 -17 10 0 13 -6 10 -20 -3 -11 -1 -20 5 -20 5 0 13
-7 16 -16 3 -8 2 -12 -4 -9 -6 3 -10 1 -10 -4 0 -6 8 -11 18 -11 14 0 15 -2 2
-10 -12 -8 -12 -10 -1 -10 8 0 11 -7 8 -20 -3 -12 0 -20 8 -20 8 0 11 -7 8
-18 -2 -10 5 -28 16 -41 24 -27 27 -38 8 -25 -7 5 -4 1 6 -8 13 -13 15 -18 6
-18 -12 0 -12 -2 0 -9 8 -5 10 -14 5 -22 -6 -10 -3 -10 11 1 17 14 18 14 6 -8
-10 -18 -9 -23 3 -28 8 -3 12 -12 9 -20 -3 -7 3 -17 12 -20 13 -5 14 -9 3 -15
-10 -7 -9 -9 5 -9 9 0 17 -5 17 -11 0 -5 -6 -7 -12 -3 -7 4 -5 -2 5 -14 11
-11 16 -25 13 -30 -3 -5 3 -18 12 -28 24 -25 26 -35 10 -46 -10 -8 -9 -9 4 -5
9 3 22 -2 30 -10 11 -15 10 -16 -7 -9 -16 5 -14 1 8 -19 30 -29 37 -45 10 -24
-16 12 -15 11 0 -8 11 -12 16 -27 11 -34 -5 -8 -3 -10 6 -4 10 6 12 4 7 -7 -5
-15 24 -53 34 -44 2 2 5 -9 6 -26 3 -36 21 -61 37 -51 6 4 5 -1 -2 -10 -12
-13 -11 -18 7 -29 16 -10 18 -15 8 -27 -9 -12 -9 -13 1 -7 8 5 12 0 12 -16 0
-18 2 -20 10 -8 8 12 10 10 10 -10 0 -14 9 -32 19 -40 11 -7 18 -17 15 -21 -8
-13 8 -39 20 -32 6 4 4 -2 -4 -12 -8 -10 -10 -16 -4 -12 7 4 18 -1 25 -10 10
-12 10 -15 1 -9 -10 6 -10 2 -1 -18 7 -14 16 -23 20 -20 5 3 9 0 9 -6 0 -6 5
-8 13 -4 8 5 8 2 -2 -9 -9 -11 -10 -17 -2 -17 6 0 11 -5 11 -11 0 -6 7 -17 16
-26 8 -9 13 -22 10 -30 -3 -8 -2 -11 3 -8 9 5 27 -32 23 -48 -1 -4 1 -6 5 -6
20 3 24 -2 14 -15 -9 -11 -8 -14 6 -12 10 0 19 -7 21 -19 2 -11 9 -24 14 -30
8 -7 8 -6 3 4 -5 9 -4 12 3 7 6 -4 8 -14 5 -23 -5 -12 -3 -14 8 -8 12 8 12 6
1 -8 -12 -14 -11 -16 8 -12 19 4 20 2 8 -12 -9 -12 -9 -15 0 -9 7 4 12 1 12
-8 0 -9 5 -16 11 -16 5 0 7 -5 4 -10 -3 -6 2 -10 12 -10 15 0 16 -2 3 -10 -13
-9 -13 -10 0 -11 8 -1 19 -1 24 0 5 1 3 -6 -5 -15 -12 -15 -12 -17 0 -9 11 6
13 4 8 -8 -3 -9 -1 -19 5 -23 7 -5 8 -2 3 6 -5 9 -4 11 3 6 7 -4 12 -13 12
-21 0 -8 12 -26 28 -41 15 -15 20 -23 12 -19 -8 5 -6 -1 5 -12 11 -11 23 -19
26 -17 4 2 6 -4 5 -14 0 -10 5 -16 13 -14 12 3 12 1 1 -15 -8 -10 -11 -15 -6
-11 11 9 39 -19 31 -32 -4 -6 1 -7 12 -3 16 6 17 5 3 -12 -9 -11 -10 -16 -2
-11 7 4 12 2 12 -4 0 -6 5 -8 10 -5 6 3 10 -3 10 -14 0 -11 10 -28 23 -38 13
-10 22 -24 19 -32 -3 -8 0 -11 7 -7 6 4 11 2 11 -4 0 -6 4 -8 10 -5 6 4 7 -1
3 -11 -5 -14 -3 -16 12 -11 16 7 16 5 4 -10 -9 -11 -10 -14 -1 -9 7 4 12 1 12
-9 0 -9 5 -13 10 -10 6 3 10 -1 10 -10 0 -10 5 -13 13 -9 8 6 8 3 -1 -9 -12
-14 -11 -16 7 -12 14 2 18 -1 14 -11 -3 -8 0 -14 7 -14 6 0 8 -4 5 -10 -3 -5
1 -10 10 -10 9 0 14 -4 10 -9 -3 -5 4 -13 16 -16 17 -6 19 -9 8 -16 -10 -6
-11 -9 -1 -9 7 0 17 -11 24 -25 6 -13 15 -22 19 -19 5 3 9 -2 9 -10 0 -9 7
-16 16 -16 8 0 13 -3 11 -7 -6 -10 19 -34 27 -26 3 4 6 -1 6 -10 0 -10 5 -17
10 -17 6 0 10 -7 10 -16 0 -8 5 -12 10 -9 6 3 10 -1 10 -10 0 -11 5 -15 14
-12 10 4 14 0 11 -13 -2 -10 3 -21 11 -24 10 -4 13 -2 8 7 -4 7 -3 9 2 4 9 -8
10 -12 13 -39 1 -9 4 -8 11 2 8 12 10 11 10 -7 0 -14 6 -23 15 -23 9 0 12 -6
8 -17 -4 -11 -3 -14 5 -9 8 4 16 -2 21 -16 6 -13 10 -17 10 -10 1 6 5 12 11
12 5 0 7 -7 4 -15 -4 -9 0 -15 7 -15 11 0 11 -3 -1 -11 -12 -9 -10 -10 8 -6
13 3 21 3 18 0 -3 -3 2 -12 10 -20 8 -8 11 -20 7 -26 -5 -9 -3 -9 8 0 12 10
17 8 29 -10 12 -21 12 -21 -6 -7 -12 9 -10 4 5 -13 13 -14 33 -29 43 -33 10
-3 16 -10 13 -15 -4 -5 1 -9 9 -9 14 0 20 -11 18 -31 -1 -4 12 -9 28 -13 18
-3 30 -12 30 -21 0 -8 5 -15 11 -15 5 0 7 -5 3 -12 -5 -8 -2 -9 9 -5 16 6 22
-3 18 -26 -1 -5 3 -6 9 -2 5 3 10 1 10 -4 0 -6 7 -11 16 -11 8 0 13 -4 9 -9
-3 -5 4 -12 15 -16 11 -3 20 -14 20 -23 0 -13 2 -14 9 -4 6 10 10 8 14 -8 4
-16 11 -21 22 -17 13 5 14 3 5 -13 -9 -16 -8 -18 5 -14 8 4 15 1 15 -5 0 -6 8
-8 18 -4 15 6 16 5 2 -12 -9 -11 -10 -16 -2 -11 6 4 12 3 12 -3 0 -6 7 -7 17
-4 11 4 14 3 9 -5 -4 -7 -2 -12 4 -12 6 0 8 -5 5 -10 -4 -6 -3 -9 2 -8 4 1 22
-5 38 -15 17 -9 26 -16 22 -17 -4 0 1 -9 12 -21 11 -12 24 -18 30 -14 7 3 11
3 10 -2 -5 -27 3 -35 26 -31 20 4 23 3 14 -8 -9 -11 -7 -14 10 -14 14 0 20 -4
15 -12 -5 -7 -2 -9 9 -5 11 4 14 2 10 -9 -3 -7 0 -14 7 -14 17 0 40 -26 32
-36 -4 -5 2 -2 12 6 13 10 17 10 12 3 -4 -7 -3 -13 2 -13 5 0 14 -10 21 -23 9
-17 10 -18 6 -2 -6 20 -6 20 15 0 11 -11 34 -34 51 -52 17 -17 37 -29 43 -27
7 3 19 -3 27 -13 13 -17 13 -17 -6 -3 -18 14 -19 14 -7 -2 7 -9 22 -15 34 -13
17 4 18 2 6 -12 -7 -9 -8 -14 -3 -11 17 10 55 -10 55 -29 0 -15 2 -16 10 -3 6
10 10 11 10 3 0 -7 7 -13 16 -13 8 0 12 -4 9 -10 -3 -5 3 -10 14 -10 12 0 21
-5 21 -11 0 -5 5 -7 12 -3 6 4 8 3 5 -3 -4 -6 1 -17 10 -24 9 -8 14 -9 10 -3
-3 6 0 11 7 11 9 0 12 -7 8 -15 -4 -11 -1 -14 11 -9 9 3 17 2 17 -4 0 -6 6 -7
13 -3 7 5 6 0 -3 -11 -9 -11 -10 -16 -2 -11 7 4 12 2 12 -6 0 -9 3 -9 10 2 8
13 10 13 10 -2 0 -11 7 -15 23 -12 12 2 16 2 9 -2 -15 -7 36 -50 55 -46 7 2
13 -2 13 -8 0 -6 5 -8 10 -5 6 3 10 1 10 -4 0 -6 6 -11 14 -11 7 0 21 -10 30
-22 9 -13 14 -17 11 -10 -3 6 -2 12 3 12 6 0 13 -7 16 -16 3 -8 10 -12 16 -9
5 3 10 -1 10 -9 0 -9 5 -16 11 -16 5 0 7 6 4 13 -4 6 2 2 13 -11 14 -15 22
-18 25 -10 3 8 6 6 6 -4 1 -10 8 -18 17 -18 8 0 22 -7 31 -16 9 -8 22 -13 30
-10 8 3 11 1 8 -4 -3 -6 -1 -10 5 -10 6 0 8 -5 4 -11 -5 -8 -1 -8 14 0 17 9
22 8 27 -8 3 -11 13 -25 23 -33 15 -12 16 -11 3 5 -12 15 -12 17 3 11 9 -3 16
-10 16 -15 0 -5 5 -9 11 -9 5 0 7 6 3 13 -4 7 -3 9 2 4 5 -5 9 -14 9 -20 0 -7
8 -11 18 -9 10 2 17 -3 17 -13 0 -8 4 -15 10 -15 5 0 7 8 4 18 -4 12 -1 10 8
-4 7 -12 19 -19 26 -17 6 3 12 -2 12 -10 0 -9 9 -13 24 -12 17 2 23 -1 20 -10
-4 -9 2 -13 20 -11 15 2 29 -1 32 -6 3 -4 10 -6 15 -2 5 3 9 2 8 -3 -4 -22 2
-32 16 -27 8 4 15 2 15 -3 0 -5 6 -10 13 -11 29 -2 49 -9 65 -23 43 -35 55
-43 49 -32 -5 8 -1 8 17 0 13 -7 22 -16 19 -20 -3 -5 4 -4 16 2 17 10 20 9 15
-4 -5 -11 -2 -14 12 -8 10 4 15 2 11 -3 -3 -5 6 -11 21 -12 15 -1 28 -7 30
-12 2 -6 12 -10 22 -10 10 0 21 -6 23 -12 4 -10 6 -9 6 1 1 9 8 6 21 -9 13
-15 20 -18 20 -9 0 11 2 11 10 -1 9 -13 11 -13 21 0 9 13 10 13 6 -2 -7 -21 3
-31 19 -17 8 7 14 6 20 -2 5 -8 3 -9 -6 -4 -8 5 -11 4 -6 -3 3 -6 15 -9 26 -7
15 3 20 -2 21 -18 0 -21 1 -21 9 -2 5 11 9 14 9 7 1 -8 7 -12 13 -10 7 3 21
-3 31 -13 10 -9 31 -16 48 -15 20 2 29 -3 30 -13 0 -11 2 -12 6 -4 3 10 8 9
20 -2 8 -8 18 -13 23 -10 5 3 11 -1 13 -7 4 -10 6 -10 6 1 1 9 6 8 19 -6 9
-10 13 -13 8 -6 -12 18 -1 16 18 -3 9 -8 16 -11 16 -4 0 7 5 6 14 -2 8 -7 11
-17 8 -23 -2 -5 1 -4 9 3 18 17 32 15 25 -3 -4 -13 -2 -14 14 -5 16 9 20 8 20
-7 0 -10 4 -14 8 -8 10 14 32 17 32 4 0 -7 9 -9 21 -6 14 4 17 2 10 -6 -7 -9
-1 -13 21 -14 17 -1 36 -7 43 -13 10 -8 15 -8 20 0 5 8 14 5 27 -10 16 -17 23
-19 34 -9 10 8 14 8 14 0 0 -6 3 -10 8 -10 18 3 33 -2 28 -9 -3 -5 1 -9 9 -9
8 0 12 4 9 9 -3 4 0 8 5 8 6 0 11 -6 11 -12 0 -10 2 -10 9 0 6 11 10 10 15 -3
3 -10 12 -15 21 -11 8 3 15 1 15 -3 0 -5 7 -12 16 -15 14 -5 15 -4 4 9 -11 13
-10 14 4 9 9 -3 16 -10 16 -15 0 -5 5 -9 11 -9 5 0 7 5 3 11 -5 8 -1 8 14 0
11 -6 23 -16 25 -23 3 -7 6 -4 7 7 0 17 2 18 10 4 6 -11 18 -15 36 -11 19 3
25 1 20 -7 -4 -6 -1 -11 9 -11 10 0 14 5 10 13 -4 6 1 3 9 -7 9 -11 16 -15 16
-8 0 6 7 9 15 6 8 -4 12 -11 8 -17 -4 -6 -1 -7 8 -2 18 12 49 14 43 3 -3 -4 9
-8 25 -8 17 0 31 -4 31 -9 0 -5 14 -8 30 -6 17 2 28 1 26 -4 -3 -4 11 -7 30
-6 25 2 34 -2 35 -14 0 -10 2 -11 6 -4 3 9 10 10 22 3 10 -5 21 -7 24 -4 3 3
12 2 19 -2 7 -5 22 -10 33 -11 16 -2 17 -1 5 6 -8 5 -18 7 -24 4 -5 -3 -6 -1
-2 5 5 9 13 9 29 0 12 -7 28 -11 34 -10 8 2 11 -4 7 -15 -5 -17 -5 -17 6 0 11
18 12 18 33 0 11 -10 17 -12 13 -5 -11 19 15 14 31 -5 8 -10 12 -13 9 -6 -4 6
-2 14 4 18 5 3 10 1 10 -4 0 -6 7 -11 16 -11 9 0 13 5 9 13 -4 6 0 4 8 -5 11
-14 16 -15 27 -5 8 8 11 8 7 1 -4 -7 0 -15 9 -18 8 -3 12 -2 9 4 -3 6 -1 10 4
10 6 0 11 -6 11 -12 0 -9 4 -8 10 2 8 12 10 12 10 1 0 -11 3 -11 17 0 9 8 14
9 10 3 -4 -7 0 -15 9 -18 8 -3 12 -2 9 4 -3 6 -1 10 4 10 6 0 11 -6 11 -12 0
-9 4 -8 10 2 8 12 10 12 10 -5 0 -12 3 -16 8 -9 7 11 123 14 116 3 -2 -4 3
-10 12 -13 21 -8 24 -8 24 5 0 5 -5 7 -12 3 -7 -5 -8 -3 -4 5 6 9 12 9 25 -3
10 -9 21 -13 24 -10 4 4 13 1 22 -6 13 -11 15 -10 10 2 -4 9 0 15 9 15 8 0 13
-4 11 -8 -3 -4 2 -10 11 -13 8 -3 12 -2 9 4 -3 6 1 10 10 10 9 0 13 -4 10 -10
-4 -7 3 -7 19 0 17 6 26 6 26 -1 0 -6 7 -6 19 1 14 7 22 7 26 0 5 -8 12 -7 23
2 12 10 14 10 8 0 -6 -10 3 -12 38 -8 25 2 44 1 41 -3 -2 -4 2 -8 10 -8 8 0
12 4 9 9 -3 4 0 8 5 8 6 0 11 -7 11 -16 0 -8 5 -12 10 -9 6 4 8 11 4 16 -7 13
19 7 28 -6 5 -6 8 -4 8 4 0 11 4 10 13 -4 10 -12 16 -14 21 -7 10 16 49 15 65
0 11 -11 13 -10 8 5 -6 15 -3 16 13 7 24 -13 33 -13 25 0 -3 6 1 7 9 4 9 -3
16 -10 16 -16 0 -5 5 -6 10 -3 6 4 7 12 3 18 -4 7 5 4 19 -5 17 -11 29 -14 33
-8 3 6 17 10 31 10 14 0 22 -4 19 -10 -3 -6 1 -7 9 -4 9 3 13 11 10 16 -4 6 3
5 15 -1 11 -7 21 -8 21 -4 0 4 5 1 10 -7 8 -12 10 -12 11 5 0 11 3 14 6 8 2
-7 9 -13 14 -13 6 0 8 3 6 8 -3 4 8 7 24 8 15 1 26 -2 24 -7 -3 -4 0 -11 6
-15 7 -4 9 -3 6 3 -4 6 0 14 9 17 21 8 26 8 20 -3 -3 -4 6 -6 19 -3 14 2 22 8
19 13 -6 11 25 0 45 -15 11 -8 13 -8 7 2 -6 9 -1 11 19 8 21 -4 26 -2 21 11
-6 14 -4 14 18 -1 17 -11 27 -12 32 -5 4 8 9 7 15 -2 7 -11 9 -11 9 -1 0 9 7
11 21 7 16 -6 20 -4 14 6 -6 11 -5 11 5 2 15 -14 43 -6 33 10 -3 6 -1 7 6 3 6
-4 8 -12 5 -18 -5 -8 -1 -9 10 -5 10 4 20 7 22 7 3 0 2 5 -1 11 -4 6 3 5 14
-3 18 -11 23 -11 30 1 7 11 9 11 14 0 4 -12 7 -11 16 1 9 12 12 13 20 1 6 -9
11 -10 15 -2 4 6 12 9 17 6 5 -4 9 -1 9 5 0 7 6 8 19 0 25 -13 31 -13 31 1 0
5 -5 7 -12 3 -7 -4 -8 -3 -4 5 6 9 11 9 21 1 10 -8 20 -8 33 -1 13 7 23 7 32
-2 10 -9 11 -9 5 2 -7 11 -2 13 24 8 24 -5 30 -4 25 6 -5 8 -2 7 9 -2 15 -12
17 -11 17 5 0 15 2 16 9 5 8 -12 12 -12 25 -2 13 11 16 11 16 0 0 -8 6 -6 16
7 8 10 13 14 10 8 -9 -17 21 -25 36 -10 7 7 19 11 27 8 8 -3 11 0 7 7 -4 6 -2
11 3 11 6 0 11 -4 11 -8 0 -5 7 -9 15 -9 8 0 11 5 8 10 -4 6 0 8 10 4 10 -4
17 -1 18 6 0 7 4 3 9 -8 8 -18 9 -18 9 -2 1 14 5 16 20 8 14 -8 22 -7 32 5 7
8 21 13 31 11 10 -3 18 0 18 5 0 7 5 6 14 -1 11 -9 15 -8 20 6 6 14 9 15 15 4
6 -9 11 -10 15 -2 4 6 12 11 17 11 6 0 7 -5 4 -11 -4 -6 2 -5 14 3 12 7 21 17
21 23 0 5 5 3 10 -5 9 -13 11 -13 20 0 9 13 10 13 10 0 0 -13 1 -13 10 0 5 8
10 11 10 6 0 -6 6 -2 13 9 10 13 16 15 21 6 6 -9 11 -9 22 0 11 9 14 8 14 -2
1 -9 4 -8 11 4 9 15 13 16 27 5 14 -11 15 -10 9 6 -6 16 -5 17 8 6 12 -10 15
-10 15 1 0 11 2 11 10 -1 7 -12 10 -12 10 -1 0 7 6 11 15 7 10 -3 15 1 15 11
0 14 2 14 15 -3 11 -13 14 -14 13 -4 -2 11 5 14 25 13 23 -2 28 1 23 14 -5 13
-4 14 9 3 12 -10 15 -10 15 0 0 10 3 10 15 0 12 -10 16 -9 21 4 3 9 10 16 16
16 5 0 6 -4 3 -10 -3 -6 1 -7 10 -4 9 4 14 13 11 21 -3 8 -1 11 4 8 20 -12 50
-14 56 -3 5 7 2 8 -6 3 -9 -5 -11 -4 -6 4 6 9 11 9 24 -1 14 -11 15 -10 9 6
-6 16 -5 17 8 6 9 -7 15 -8 15 -2 0 5 9 8 20 5 12 -3 20 0 20 6 0 7 5 9 10 6
6 -3 10 2 11 12 0 16 1 16 8 -1 7 -19 8 -19 15 -1 6 16 9 17 16 5 8 -12 10
-12 10 -1 0 8 6 11 16 7 11 -4 15 -2 11 7 -3 8 1 14 9 14 8 0 14 -4 14 -9 0
-4 5 -8 11 -8 5 0 7 5 3 12 -5 7 0 9 14 6 13 -4 20 -2 19 6 -1 6 10 11 25 10
19 0 24 3 18 11 -6 7 -3 11 10 11 10 0 16 -4 14 -8 -3 -5 9 0 28 10 18 10 39
17 47 14 10 -3 12 0 8 12 -5 12 -3 15 5 9 7 -4 21 -8 30 -8 13 -1 15 2 7 11
-8 10 -5 12 15 8 15 -2 26 0 26 7 0 6 6 9 13 6 6 -2 18 3 25 12 8 9 11 10 7 4
-4 -9 -1 -11 9 -7 9 3 16 11 16 16 0 6 7 5 16 -2 8 -8 14 -9 13 -4 -4 20 2 26
15 15 10 -9 16 -8 26 4 7 8 17 12 23 8 6 -4 7 -1 3 6 -6 9 -13 8 -27 -5 -10
-9 -19 -13 -19 -8 0 15 34 31 58 28 12 -2 22 1 22 7 0 5 5 7 10 4 6 -3 10 -1
10 5 0 6 5 8 12 4 8 -5 9 -2 4 11 -5 14 -4 16 7 7 10 -9 17 -8 27 1 10 10 12
9 6 -3 -4 -8 1 -6 11 6 10 11 24 19 31 16 7 -2 20 4 28 14 9 11 13 13 9 6 -3
-6 -1 -12 4 -12 6 0 11 7 11 16 0 12 7 15 25 12 13 -3 24 -2 23 1 -2 19 4 22
17 11 13 -11 14 -10 10 3 -4 8 -1 18 6 23 8 5 10 3 4 -7 -7 -11 -6 -12 6 -2
12 9 18 10 27 1 8 -8 9 -5 6 13 -4 17 -3 20 4 10 7 -10 11 -10 17 -1 4 6 13 9
21 6 9 -3 11 0 7 11 -4 11 -2 14 5 9 7 -4 12 -3 12 2 0 8 6 10 49 14 12 2 17
8 13 17 -3 9 -1 12 6 7 7 -4 12 -3 12 3 0 5 9 8 20 6 11 -2 18 0 15 6 -4 5 1
9 9 9 9 0 16 4 16 10 0 5 7 6 17 3 10 -4 14 -2 9 5 -3 6 -2 13 4 17 5 3 10 1
10 -5 0 -6 5 -8 11 -5 6 4 8 14 4 22 -4 13 -3 14 9 4 11 -10 19 -7 37 11 12
13 18 16 14 8 -8 -13 -7 -13 11 0 10 8 22 20 26 25 5 6 8 5 8 -2 0 -9 6 -7 19
4 11 9 18 20 15 25 -3 4 2 5 10 2 10 -4 18 1 22 10 5 14 9 14 22 4 9 -7 13 -8
10 -3 -8 14 14 32 35 29 14 -2 16 1 7 11 -9 11 -7 13 14 9 18 -3 29 2 40 18 9
12 16 19 16 16 0 -4 12 4 26 17 15 14 36 25 46 25 12 0 17 4 12 12 -5 8 -2 9
10 5 14 -6 17 -3 12 8 -3 10 -2 13 5 10 6 -4 17 1 25 11 9 11 12 13 9 6 -6
-12 -3 -12 16 -2 31 16 39 25 16 17 -11 -4 -16 -3 -12 3 3 6 13 10 21 10 8 0
14 6 14 13 0 8 4 7 10 -3 8 -13 10 -13 10 2 0 9 5 20 12 24 8 5 9 2 5 -10 -4
-10 -3 -15 3 -11 6 3 10 13 10 22 0 9 3 14 6 10 8 -8 33 16 27 25 -2 4 3 5 11
2 9 -3 16 -1 16 5 0 6 7 11 15 11 9 0 18 7 21 15 4 8 10 15 16 15 5 0 6 -6 2
-12 -4 -8 -3 -10 2 -5 5 5 10 13 10 18 3 22 5 23 14 9 8 -13 10 -12 11 5 1 11
1 23 1 26 -1 3 11 4 25 1 22 -4 25 -2 20 12 -4 9 -3 14 2 11 5 -3 12 -1 16 5
4 6 11 8 16 5 8 -5 13 7 11 26 -1 4 8 4 20 1 14 -3 19 -1 14 6 -7 11 6 17 27
13 5 -1 6 2 3 7 -2 4 -1 14 5 22 6 11 9 12 9 2 0 -7 5 -10 10 -7 6 4 8 11 5
16 -4 5 3 9 14 9 15 0 19 4 14 18 -6 15 -5 16 12 2 10 -8 16 -10 12 -4 -9 15
38 58 54 48 9 -5 10 -2 6 9 -5 13 -1 17 14 17 11 0 18 4 15 9 -3 5 4 11 15 14
14 4 18 10 13 19 -6 10 -4 10 9 -1 15 -12 17 -12 11 3 -4 10 -1 16 9 16 9 0
20 8 26 17 5 10 12 17 15 16 3 -2 12 -3 19 -3 9 0 9 2 -1 8 -9 6 -7 13 10 28
15 12 19 13 13 4 -6 -9 -1 -6 10 7 12 13 26 23 32 23 6 0 14 9 18 19 3 11 12
18 20 15 7 -3 16 0 21 7 5 8 3 10 -7 5 -8 -4 -6 -1 3 7 10 8 15 17 11 21 -4 4
1 4 11 0 15 -6 17 -4 11 6 -6 10 -4 12 10 6 16 -6 16 -4 4 11 -8 9 -9 14 -2
10 15 -9 94 62 86 77 -4 6 0 5 9 -2 13 -11 16 -10 14 5 0 10 5 17 13 15 9 -2
11 3 7 14 -5 14 -4 15 8 5 12 -10 14 -8 12 13 -2 15 1 23 7 19 5 -3 19 5 29
18 11 13 17 17 13 9 -4 -10 -2 -9 8 2 8 10 18 14 23 10 4 -4 2 1 -5 10 -11 15
-10 17 9 13 19 -4 20 -2 8 12 -9 12 -9 15 0 9 7 -4 12 -2 12 4 0 6 5 8 12 4 8
-5 9 -2 5 10 -4 9 -3 15 2 12 12 -8 33 19 23 30 -4 4 1 2 11 -6 10 -7 17 -9
16 -4 -4 24 2 36 17 30 14 -6 15 -4 4 9 -11 13 -11 16 1 13 8 -2 13 3 11 12
-2 8 -1 12 3 8 8 -8 32 12 31 26 -1 5 10 13 23 17 14 6 21 15 18 24 -4 10 -1
12 10 8 11 -4 14 -2 9 5 -3 6 3 16 14 22 14 7 19 17 16 27 -5 13 -4 13 8 4 11
-9 15 -8 20 4 4 11 2 14 -7 9 -6 -3 0 5 15 18 15 14 24 28 20 32 -4 4 0 6 8 4
9 -2 14 4 14 15 -2 15 1 16 14 5 12 -10 14 -10 8 0 -4 7 -2 12 4 12 6 0 8 5 5
10 -3 6 -1 10 5 10 6 0 8 5 5 10 -3 6 1 10 9 10 9 0 16 7 16 16 0 10 6 14 14
11 10 -4 13 -1 9 8 -3 8 2 18 11 21 9 3 13 10 10 15 -3 5 2 9 11 9 9 0 13 5
10 10 -4 6 -11 7 -17 4 -6 -4 -8 -2 -5 4 4 5 17 8 29 4 14 -3 19 -2 14 6 -4 7
-2 12 4 12 6 0 8 5 4 12 -5 8 -2 9 12 4 10 -4 15 -4 12 0 -12 11 12 45 25 37
7 -4 6 1 -2 11 -8 9 -10 16 -5 15 19 -3 34 1 34 12 0 5 -6 7 -12 3 -10 -5 -10
-3 0 7 7 8 17 15 23 15 22 3 23 5 9 14 -13 8 -13 10 1 10 9 0 23 7 30 17 13
15 12 15 -11 4 l-25 -12 24 20 c12 12 28 18 35 14 6 -4 5 1 -3 11 -12 15 -12
17 0 14 8 -2 13 3 11 11 -2 8 3 11 12 8 10 -4 14 0 11 14 -3 12 2 19 12 19 13
0 13 3 3 15 -11 13 -10 14 3 10 8 -4 18 -1 23 6 5 8 3 10 -7 4 -8 -4 -5 1 6
12 11 11 23 19 27 16 4 -2 5 5 3 17 -2 11 1 19 8 17 7 -1 11 6 9 17 -2 11 1
15 7 11 6 -3 11 1 11 10 0 9 4 14 9 10 5 -3 13 0 17 6 4 8 3 9 -4 5 -18 -11
-14 5 3 18 9 6 17 21 18 33 0 12 5 19 9 17 5 -3 5 -10 2 -16 -4 -6 -2 -8 4 -4
6 3 9 15 7 26 -2 12 0 18 6 15 5 -4 10 -1 10 4 1 6 2 17 3 24 1 6 10 11 19 10
10 0 16 1 13 4 -9 9 16 63 27 56 6 -4 8 0 5 9 -4 8 -2 21 3 29 7 12 9 12 9 -1
1 -12 3 -11 11 3 8 13 7 22 -2 33 -10 12 -9 13 3 9 16 -6 45 21 34 32 -3 3 3
12 14 20 11 8 20 21 20 29 0 8 5 12 10 9 6 -3 10 -2 10 4 0 5 -6 12 -12 14 -8
3 -6 6 4 6 12 1 15 6 11 18 -5 13 -2 15 11 10 9 -4 15 -3 11 2 -3 5 -1 12 4
16 6 3 8 12 4 21 -3 8 -2 14 3 13 21 -4 28 2 14 11 -10 6 -11 10 -2 10 6 0 12
7 12 16 0 11 5 14 16 10 14 -5 15 -4 4 9 -9 11 -9 15 -1 15 7 0 9 4 6 10 -3 5
-3 10 2 10 11 0 34 51 27 61 -3 5 2 6 11 3 11 -5 14 -2 8 12 -4 11 -3 15 4 11
6 -4 14 0 17 9 3 8 2 12 -4 9 -6 -3 -10 -2 -10 4 0 5 9 13 21 16 16 5 18 10 8
21 -9 11 -7 16 12 23 13 5 19 10 12 10 -18 1 -4 31 16 32 10 0 11 2 4 6 -7 2
-13 9 -13 15 0 6 7 7 16 4 8 -3 13 -2 9 3 -3 5 1 12 7 14 9 4 8 6 -2 7 -10 0
-6 6 10 16 l25 15 -25 -7 -25 -6 23 17 c12 9 20 21 17 26 -4 5 1 12 9 15 13 5
13 10 5 27 -10 18 -9 20 2 10 7 -7 18 -13 24 -13 5 0 3 5 -5 10 -13 9 -13 11
0 20 13 9 13 10 0 10 -10 1 -8 5 6 13 12 7 19 18 17 25 -3 6 0 12 6 12 6 0 11
5 11 11 0 5 -6 7 -12 4 -7 -4 -6 -1 3 7 9 7 14 18 12 25 -2 6 1 15 8 19 8 5 9
3 4 -6 -5 -8 -4 -11 3 -6 6 3 8 18 6 32 -4 21 -2 25 11 20 13 -4 14 -2 5 14
-8 15 -6 21 10 30 11 6 17 16 14 25 -4 8 -1 15 5 15 6 0 11 5 11 11 0 5 -6 7
-12 4 -7 -4 -2 3 12 15 14 12 19 19 13 15 -7 -3 -13 -1 -13 4 0 6 5 11 11 11
6 0 9 7 5 15 -3 8 2 19 11 24 9 5 18 16 19 25 1 9 -1 14 -5 11 -4 -2 -8 2 -8
10 0 8 4 12 9 9 4 -3 8 0 8 6 0 6 5 8 13 4 7 -5 6 0 -3 11 -8 10 -10 16 -4 12
7 -4 15 0 18 9 3 8 2 12 -4 9 -6 -3 -10 -2 -10 3 0 6 8 13 17 16 15 6 15 8 3
16 -12 8 -12 10 -1 10 8 0 11 6 7 16 -3 8 -2 13 3 10 5 -3 12 1 15 10 4 10 2
13 -7 9 -6 -4 -4 0 5 8 10 8 15 17 11 21 -4 4 -1 11 7 17 13 8 13 10 0 19 -8
5 -10 10 -5 10 6 0 16 9 23 21 11 17 11 20 0 13 -10 -6 -10 -4 1 9 11 14 11
17 0 18 -8 0 -4 4 9 9 19 8 21 13 13 29 -8 14 -6 24 9 41 23 27 25 34 8 24
-10 -6 -10 -4 0 7 6 7 12 21 12 31 0 10 6 18 13 18 9 0 8 3 -2 9 -11 7 -10 11
5 20 13 7 15 10 5 11 -11 0 -9 4 5 15 14 10 15 14 5 15 -11 0 -9 4 5 15 19 15
19 15 -1 9 -18 -6 -18 -5 3 15 18 18 20 26 11 43 -6 11 -7 18 -1 15 5 -4 14 5
21 20 10 22 9 25 -4 19 -11 -4 -9 3 8 27 24 34 28 57 12 69 -6 5 -5 8 3 8 6 0
12 7 12 15 0 8 -5 15 -10 15 -6 0 -2 10 10 22 15 16 17 24 8 30 -10 6 -10 8 1
8 7 0 11 6 8 14 -3 8 1 17 9 20 11 4 12 10 4 25 -7 14 -7 22 2 27 7 5 8 3 3
-6 -5 -8 -4 -11 1 -7 5 3 9 25 9 49 -1 27 6 53 17 70 10 15 14 29 10 32 -11 6
-8 40 5 76 6 14 9 38 8 53 -1 15 2 30 7 33 5 3 4 12 -3 20 -10 12 -9 13 5 8
12 -5 15 -2 10 9 -3 9 -2 22 2 29 13 21 14 59 1 52 -7 -4 -2 4 11 18 16 18 18
25 8 25 -8 0 -12 -5 -9 -10 4 -6 1 -7 -7 -2 -10 6 -8 12 8 24 15 11 19 20 12
31 -5 9 -5 19 2 27 8 10 7 13 -3 13 -11 0 -11 2 1 10 8 5 12 10 8 10 -4 0 -3
11 2 24 5 13 6 27 2 30 -10 10 -9 45 1 43 5 -1 12 4 14 11 3 7 -3 12 -14 12
-13 0 -15 2 -5 9 7 4 15 17 17 27 2 10 4 19 5 19 1 0 2 16 3 35 1 24 -2 34
-11 32 -8 -1 -11 2 -7 8 3 5 14 10 23 10 13 0 13 2 -4 16 -10 8 -14 13 -7 10
6 -4 14 -2 18 4 3 5 1 10 -4 10 -6 0 -11 5 -11 11 0 5 6 7 13 3 9 -5 9 -4 0 6
-7 7 -9 21 -4 34 4 11 7 37 7 56 -1 22 5 38 14 42 12 5 11 7 -4 7 -16 1 -17 3
-5 18 8 9 9 14 3 10 -6 -3 -11 0 -11 7 0 8 7 12 16 9 11 -3 10 0 -3 11 -19 15
-19 16 -1 16 18 0 18 0 0 13 -14 11 -15 16 -5 22 9 6 11 4 5 -5 -5 -8 -4 -11
3 -6 6 4 9 13 5 22 -4 11 -8 12 -19 3 -12 -10 -13 -9 -8 5 3 9 14 16 23 17 10
0 11 2 4 6 -7 2 -13 9 -13 14 0 6 6 7 13 3 8 -5 8 -2 -2 9 -11 14 -11 17 0 17
12 0 12 2 0 9 -8 6 -10 14 -5 22 12 20 14 38 3 45 -13 8 0 25 14 18 7 -3 5 0
-3 8 -17 15 -26 43 -10 33 5 -3 10 -1 10 4 0 6 -4 11 -9 11 -10 0 -9 19 2 37
4 6 3 15 -3 18 -8 5 -7 11 1 21 9 11 8 14 -2 14 -11 0 -11 2 1 10 13 9 13 10
0 10 -13 0 -13 1 0 10 13 9 13 10 0 10 -13 0 -13 1 0 10 13 9 13 10 0 10 -13
0 -13 1 0 10 13 9 13 10 0 10 -9 0 -11 3 -5 8 15 10 12 31 -5 42 -11 7 -11 10
-2 10 7 0 11 4 8 9 -4 5 0 12 6 14 10 4 10 6 1 6 -7 1 -13 6 -13 12 0 5 4 8 8
5 5 -3 9 1 9 9 0 8 -4 12 -9 9 -13 -8 -10 10 5 25 7 9 7 11 1 8 -7 -4 -15 0
-18 9 -8 21 -8 24 5 24 5 0 7 -5 3 -12 -4 -7 -3 -8 5 -4 9 6 9 11 0 23 -19 22
-18 53 0 54 9 1 5 5 -9 9 -20 6 -21 8 -6 9 16 1 17 4 8 13 -17 17 -15 28 6 21
13 -5 12 -1 -5 14 -17 15 -20 22 -10 32 9 9 9 14 -2 20 -11 7 -11 9 0 14 12 5
12 6 0 6 -11 1 -11 4 -1 16 9 11 9 15 1 15 -7 0 -9 5 -4 13 11 18 13 38 2 31
-5 -3 -6 -10 -3 -16 4 -7 2 -8 -5 -4 -6 4 -8 13 -4 19 10 16 10 101 0 108 -13
10 -15 43 -3 51 8 5 7 8 -2 8 -8 0 -10 5 -5 13 14 22 12 39 -3 33 -9 -4 -12
-2 -8 5 4 6 0 15 -7 20 -10 6 -8 9 9 9 l22 0 -21 21 c-16 16 -18 23 -9 34 9
11 8 18 -4 30 -17 18 -22 30 -7 21 4 -3 8 8 7 24 -1 19 -6 30 -16 30 -9 0 -11
3 -5 8 13 9 15 42 3 42 -6 0 -4 8 3 17 10 11 10 14 2 9 -7 -4 -13 -3 -13 1 0
5 6 15 13 22 6 8 7 11 2 8 -6 -3 -17 -2 -25 4 -12 7 -12 9 4 9 15 0 16 3 6 15
-6 8 -9 19 -5 25 3 5 1 10 -6 10 -10 0 -10 3 -2 11 9 9 7 16 -6 28 -9 9 -12
13 -6 9 14 -9 13 27 0 39 -4 5 -5 1 0 -7 5 -8 4 -12 0 -7 -13 12 -15 37 -2 37
6 0 2 7 -9 16 -10 8 -14 13 -8 10 7 -3 14 0 17 7 6 16 -17 49 -28 39 -5 -4 -5
-1 -1 6 13 22 14 61 2 59 -6 -1 -10 4 -8 12 1 7 -3 20 -10 29 -11 13 -11 14 2
7 13 -7 13 -6 2 7 -10 13 -10 17 0 21 9 4 7 6 -4 6 -11 1 -15 7 -10 23 4 15 2
19 -7 13 -10 -6 -11 -3 -2 13 9 17 8 23 -6 31 -12 7 -13 10 -4 11 10 0 10 6
-4 26 -9 15 -13 24 -8 21 5 -4 10 0 10 8 0 8 -4 12 -9 9 -7 -4 -13 34 -9 59 0
4 -4 7 -10 7 -7 0 -10 12 -7 30 4 27 -2 35 -24 31 -4 0 -5 6 -2 14 4 8 11 15
17 15 5 0 0 9 -13 20 -15 13 -18 20 -9 20 12 0 12 2 0 9 -11 7 -11 9 0 14 10
4 10 6 -2 6 -9 1 -20 8 -23 17 -6 15 -4 15 10 3 16 -13 16 -12 6 8 -7 12 -17
25 -22 28 -6 3 -7 18 -4 32 5 17 3 24 -4 20 -6 -5 -9 4 -8 23 1 17 -4 36 -11
42 -7 6 -13 19 -13 30 0 11 -4 16 -11 12 -8 -5 -8 -1 0 13 12 24 6 34 -17 26
-12 -4 -11 -1 3 10 19 15 19 16 2 22 -14 6 -15 10 -5 23 11 13 9 14 -12 8 -14
-4 -20 -4 -14 1 14 10 14 44 1 36 -6 -4 -8 0 -4 10 3 10 2 17 -2 17 -5 0 -12
7 -15 16 -6 15 -4 15 11 3 10 -7 7 0 -7 15 -14 16 -18 25 -10 21 10 -6 8 -1
-4 13 -11 13 -16 30 -13 43 4 15 0 23 -12 26 -13 3 -17 11 -14 28 3 12 -1 26
-8 30 -8 6 -10 4 -4 -5 5 -8 4 -11 -3 -7 -5 4 -8 17 -4 29 4 16 2 19 -9 13
-11 -7 -11 -5 1 10 9 11 10 16 3 11 -8 -4 -13 -1 -13 8 0 9 -5 16 -11 16 -8 0
-8 4 -1 13 12 14 -10 52 -23 39 -5 -4 -5 -2 -2 5 4 6 0 19 -9 27 -8 9 -12 16
-8 16 3 0 0 8 -7 17 -9 11 -10 14 -2 9 9 -5 11 -2 7 8 -3 9 -11 13 -18 9 -6
-4 -4 2 4 12 9 11 10 16 3 11 -8 -4 -13 -1 -13 9 0 9 -4 13 -10 10 -6 -3 -7 1
-4 9 3 9 1 16 -4 16 -6 0 -9 9 -7 20 2 11 -1 23 -7 26 -7 5 -8 2 -3 -6 5 -8 4
-11 -3 -6 -6 4 -8 14 -5 23 5 11 3 14 -6 8 -10 -6 -11 -3 -2 14 9 16 9 21 1
19 -7 -2 -19 8 -28 22 -14 20 -14 23 -2 16 12 -6 11 -4 -1 6 -9 7 -14 19 -12
25 3 7 -2 16 -11 19 -9 3 -16 12 -16 20 0 8 -4 14 -10 14 -5 0 -10 4 -10 10 0
5 8 7 18 3 15 -5 14 -4 -2 9 -11 8 -16 20 -12 27 4 6 4 11 -1 10 -19 -3 -33 2
-33 12 0 5 5 7 11 4 6 -4 5 2 -2 13 -7 12 -17 18 -22 15 -5 -3 -4 4 2 16 10
18 9 20 -6 14 -16 -6 -17 -5 -3 13 8 10 10 16 6 12 -5 -4 -15 -3 -23 3 -11 10
-11 15 -1 27 12 14 10 14 -12 2 -23 -12 -24 -12 -11 3 9 11 10 17 2 17 -6 0
-11 7 -11 16 0 8 -4 12 -10 9 -6 -3 -7 1 -4 9 3 9 1 16 -6 16 -6 0 -8 5 -5 10
3 6 0 10 -7 10 -10 0 -9 3 2 11 12 9 10 10 -8 6 -19 -5 -21 -3 -11 9 11 13 5
19 -16 14 -5 -1 -7 2 -2 6 4 4 -1 17 -10 28 -17 20 -17 20 0 7 15 -12 17 -12
11 3 -3 9 -12 16 -20 16 -8 0 -13 3 -13 8 4 21 -2 32 -13 26 -10 -6 -10 -4 0
8 10 13 10 17 -3 22 -11 4 -14 2 -9 -7 4 -7 3 -9 -2 -4 -5 5 -9 18 -9 30 0 12
-10 26 -23 33 -16 8 -20 14 -12 19 8 5 6 13 -7 27 -10 11 -18 23 -18 27 0 3
-4 5 -8 3 -5 -1 -11 7 -14 18 -3 11 -10 17 -17 13 -7 -4 -6 -1 1 9 11 12 10
18 -5 31 -9 8 -21 16 -25 15 -5 0 -12 4 -15 8 -4 4 -1 4 6 0 6 -4 12 -4 12 -1
0 11 -27 34 -33 29 -3 -3 -4 3 -4 13 1 11 -4 17 -12 15 -12 -3 -12 -1 -1 15 8
10 11 15 6 11 -10 -8 -36 15 -36 32 0 6 -5 8 -12 4 -8 -5 -8 -1 2 12 8 10 11
16 6 12 -10 -8 -36 15 -36 32 0 16 -47 60 -55 52 -4 -4 -2 3 4 15 10 20 9 22
-5 16 -12 -4 -15 -3 -10 5 4 7 2 12 -4 12 -6 0 -8 5 -5 10 4 6 3 10 -2 9 -19
-3 -33 2 -33 12 0 5 4 8 9 4 5 -3 13 0 17 6 4 8 3 9 -5 5 -6 -4 -14 -1 -17 8
-3 8 -12 12 -19 9 -10 -3 -13 2 -10 17 3 16 0 20 -10 16 -9 -3 -12 0 -8 10 3
9 -1 14 -12 14 -9 0 -13 5 -10 10 3 6 1 10 -5 10 -7 0 -9 7 -6 16 3 8 2 12 -4
9 -6 -3 -10 1 -10 10 0 9 -4 14 -9 10 -5 -3 -12 4 -16 15 -3 11 -13 20 -22 20
-10 0 -13 6 -9 16 3 8 2 12 -4 9 -9 -6 -14 8 -11 28 0 4 -6 7 -14 7 -8 0 -15
7 -15 16 0 10 -6 14 -15 10 -8 -3 -14 -2 -13 2 4 16 -14 52 -28 52 -8 0 -14 4
-14 8 0 16 -37 52 -46 44 -4 -4 -2 1 6 11 7 10 9 17 4 16 -20 -3 -35 1 -30 10
3 5 -1 11 -9 15 -8 3 -15 13 -15 23 0 15 -2 16 -10 3 -8 -13 -10 -12 -10 3 0
10 -7 20 -15 23 -8 3 -17 14 -20 25 -4 11 -11 17 -16 14 -5 -4 -9 -1 -9 5 0 7
-17 28 -37 47 -21 20 -29 30 -18 22 20 -14 20 -13 1 9 -11 12 -25 22 -32 22
-7 0 -16 5 -20 12 -5 7 -3 8 6 3 9 -6 11 -4 6 4 -5 7 -14 10 -22 7 -8 -3 -11
0 -8 8 3 8 0 17 -5 21 -6 3 -8 11 -5 17 4 7 2 8 -5 4 -6 -4 -8 -12 -5 -18 5
-7 2 -8 -5 -4 -7 5 -10 14 -7 22 3 8 0 11 -8 8 -8 -3 -17 0 -22 7 -4 8 -3 10
4 5 8 -5 10 -2 6 8 -3 9 -15 16 -25 16 -10 0 -19 5 -19 11 0 5 -6 7 -12 3 -10
-6 -10 -4 0 8 10 13 10 18 1 24 -8 5 -10 3 -5 -7 4 -8 1 -6 -7 4 -8 9 -19 17
-26 17 -6 0 -11 10 -12 23 0 12 -3 17 -6 10 -3 -10 -7 -10 -18 0 -7 7 -10 16
-7 21 3 5 -2 7 -11 3 -11 -4 -14 -2 -10 9 3 7 0 14 -6 14 -6 0 -19 7 -28 15
-10 8 -27 21 -38 29 -19 15 -19 15 5 10 17 -4 14 0 -13 14 -20 10 -34 22 -30
27 5 4 0 5 -9 2 -13 -4 -15 -2 -11 10 4 10 2 14 -4 10 -6 -4 -13 0 -17 8 -3 8
-12 15 -19 15 -8 0 -21 8 -28 18 -13 15 -12 16 4 3 9 -8 20 -12 22 -9 3 3 -6
11 -20 18 -14 7 -25 18 -25 23 0 5 -7 4 -15 -3 -12 -10 -13 -8 -10 10 4 18 2
20 -11 9 -12 -10 -13 -9 -8 4 4 11 -2 20 -20 28 -14 7 -26 16 -26 21 0 5 -4 6
-10 3 -5 -3 -10 1 -10 10 0 9 -4 14 -9 10 -5 -3 -12 4 -16 15 -3 11 -15 20
-25 20 -11 0 -24 9 -30 20 -6 11 -16 17 -22 14 -8 -5 -9 -1 -4 11 6 16 4 16
-11 4 -10 -7 -15 -9 -11 -5 10 12 -32 47 -46 39 -6 -4 -5 1 3 10 12 15 12 17
-3 11 -9 -3 -16 -1 -16 5 0 6 -11 16 -25 23 -13 6 -21 16 -18 22 4 6 -1 5 -10
-3 -9 -7 -18 -11 -18 -7 -1 3 -2 10 -3 14 -2 16 -31 39 -44 34 -6 -2 -12 4
-12 13 0 9 -4 13 -10 10 -5 -3 -10 -1 -10 5 0 7 -7 9 -16 6 -8 -3 -12 -2 -9 4
3 6 -1 10 -9 10 -15 0 -21 12 -17 34 1 5 -6 3 -15 -5 -12 -9 -15 -9 -10 -1 4
7 1 12 -8 12 -9 0 -16 5 -16 11 0 6 -7 9 -15 6 -8 -4 -17 -1 -21 5 -4 7 -3 8
4 4 7 -4 12 -3 12 2 0 5 -13 15 -29 22 -16 6 -32 18 -35 26 -3 7 -12 11 -21 8
-10 -4 -15 0 -15 11 0 15 -3 15 -15 5 -13 -11 -14 -10 -9 5 5 13 4 16 -4 11
-7 -4 -12 -2 -12 4 0 6 -4 8 -10 5 -5 -3 -10 -1 -10 4 0 6 -7 11 -16 11 -8 0
-12 5 -8 11 4 8 -1 9 -16 4 -16 -5 -20 -4 -15 5 4 7 -1 13 -14 17 -11 3 -19 9
-16 13 3 5 -5 6 -17 3 -19 -4 -20 -3 -8 7 12 10 11 11 -8 7 -17 -4 -22 -2 -18
8 3 8 0 17 -6 21 -7 5 -8 2 -3 -6 5 -8 3 -11 -6 -8 -8 3 -13 10 -12 16 1 6 -9
9 -22 7 -14 -1 -25 1 -25 4 0 4 -7 16 -16 27 -8 10 -13 13 -9 7 4 -9 1 -11 -9
-7 -9 3 -16 12 -16 19 0 8 -8 11 -20 8 -15 -4 -20 0 -20 16 0 13 -4 19 -10 16
-6 -4 -7 -12 -4 -18 4 -7 -4 0 -19 16 -26 27 -44 36 -31 15 4 -7 3 -8 -4 -4
-7 4 -12 15 -12 24 0 15 -2 15 -10 2 -7 -12 -10 -12 -10 -1 0 8 -6 11 -16 7
-8 -3 -12 -2 -9 3 7 12 -31 25 -45 16 -6 -4 -10 -3 -9 2 3 20 -2 34 -11 28 -5
-3 -10 -2 -10 4 0 5 -9 8 -21 6 -12 -3 -30 5 -44 18 -12 12 -29 23 -36 25 -8
2 -17 8 -20 14 -4 6 -9 5 -12 -3 -3 -9 -6 -7 -6 6 -1 17 -3 17 -11 5 -8 -13
-10 -13 -10 2 0 11 -6 16 -20 13 -11 -2 -20 1 -20 6 0 6 -6 7 -12 3 -10 -6
-10 -4 0 8 11 14 10 16 -7 11 -13 -3 -21 -1 -21 7 0 9 -4 9 -17 -1 -9 -8 -14
-9 -11 -4 3 6 0 16 -8 23 -9 8 -14 9 -14 2 0 -6 -5 -8 -10 -5 -6 4 -7 11 -4
17 4 6 -1 8 -14 4 -15 -5 -21 -1 -25 15 -5 18 -9 20 -20 11 -11 -9 -19 -8 -37
8 -19 16 -26 18 -39 8 -9 -7 -13 -9 -9 -4 11 13 -21 39 -42 33 -11 -3 -23 0
-27 5 -4 7 -1 8 7 3 9 -6 11 -4 6 4 -5 7 -14 10 -21 7 -7 -2 -16 2 -19 10 -3
9 -10 13 -15 9 -5 -3 -12 -1 -16 5 -3 5 -11 10 -16 10 -6 0 -8 -4 -5 -8 3 -5
-1 -9 -9 -9 -8 0 -12 4 -9 9 4 5 -3 12 -15 15 -12 3 -18 10 -14 17 4 6 -1 5
-10 -3 -11 -9 -17 -10 -17 -2 0 6 -7 11 -15 11 -8 0 -15 6 -15 13 0 8 -4 7
-10 -3 -8 -12 -10 -12 -10 -1 0 8 -7 11 -20 8 -13 -3 -20 0 -20 10 0 8 -4 12
-9 8 -5 -3 -16 2 -24 10 -12 11 -17 12 -20 2 -4 -9 -6 -9 -6 1 -1 6 -13 12
-27 12 -17 0 -23 4 -18 13 6 9 5 9 -8 -1 -12 -10 -17 -10 -27 1 -6 8 -8 16 -6
19 8 8 -42 1 -57 -8 -9 -5 -8 -1 2 11 11 13 11 17 2 11 -8 -5 -24 -4 -35 2
-12 6 -35 15 -52 20 -16 5 -29 15 -27 21 1 7 -2 10 -8 6 -6 -3 -7 -11 -4 -17
4 -5 -4 -4 -17 3 -13 7 -30 12 -38 10 -8 -1 -10 2 -6 9 5 9 1 10 -14 5 -11 -3
-21 -2 -21 3 0 6 -7 12 -14 15 -11 4 -13 1 -9 -10 4 -11 2 -14 -5 -9 -7 4 -12
15 -13 24 0 11 -3 12 -6 5 -7 -18 -23 -16 -46 5 -11 9 -17 12 -14 5 4 -6 3
-15 -3 -18 -6 -4 -10 -3 -9 2 5 27 -1 35 -16 23 -9 -7 -15 -8 -15 -2 0 6 -11
9 -25 7 -14 -1 -28 2 -32 8 -4 6 -1 7 8 2 11 -6 12 -5 2 5 -10 11 -15 11 -29
-1 -15 -12 -17 -12 -9 0 6 11 3 13 -13 9 -12 -4 -20 -3 -17 2 3 4 -2 11 -11
14 -8 3 -12 2 -9 -4 3 -6 1 -10 -4 -10 -6 0 -11 5 -11 10 0 6 -7 10 -16 10 -9
0 -12 5 -8 12 4 7 3 8 -5 4 -6 -4 -9 -11 -6 -16 3 -4 -4 -6 -15 -3 -11 3 -17
10 -13 17 4 6 0 5 -9 -2 -14 -11 -19 -9 -32 10 -13 18 -16 19 -16 5 0 -9 -5
-17 -11 -17 -5 0 -7 4 -4 10 3 5 0 7 -8 4 -8 -3 -17 2 -21 12 -5 13 -9 14 -20
5 -10 -8 -16 -9 -21 -1 -3 5 -17 7 -31 4 -15 -4 -24 -2 -24 6 0 6 -8 10 -17 9
-33 -3 -54 1 -49 9 3 5 -1 9 -9 9 -8 0 -12 -4 -9 -9 3 -4 0 -8 -5 -8 -6 0 -11
6 -11 13 0 8 -4 7 -10 -3 -5 -8 -10 -10 -10 -3 0 6 -13 10 -29 9 -17 -1 -28 1
-25 5 2 4 0 10 -6 14 -5 3 -10 2 -10 -3 0 -5 -7 -9 -15 -9 -8 0 -15 7 -15 16
0 11 -3 11 -16 -5 -8 -10 -12 -13 -9 -6 5 9 1 13 -11 11 -11 -2 -25 0 -32 5
-7 4 -19 2 -28 -5 -12 -10 -13 -9 -9 3 5 11 0 15 -17 14 -13 0 -26 -5 -30 -11
-5 -6 -8 -3 -8 7 0 9 -5 20 -12 24 -7 5 -9 2 -5 -8 4 -12 0 -14 -16 -10 -12 3
-25 10 -29 16 -5 7 -8 6 -8 -3 0 -11 -3 -11 -17 0 -15 12 -16 12 -8 -1 5 -9 0
-7 -14 4 -22 20 -22 20 -15 0 7 -16 5 -17 -7 -7 -8 7 -32 13 -53 15 -20 1 -40
6 -42 10 -3 4 -14 3 -25 -2 -10 -6 -19 -7 -19 -2 0 5 -14 8 -32 6 -17 -2 -37
1 -45 7 -10 9 -13 7 -13 -7 0 -15 -2 -16 -9 -5 -5 8 -14 10 -22 5 -12 -6 -12
-5 -1 8 11 14 10 16 -7 11 -12 -3 -18 -9 -15 -14 3 -5 -2 -6 -10 -3 -9 3 -16
11 -16 18 0 7 -3 7 -8 1 -9 -13 -42 -15 -42 -3 0 6 -6 6 -14 -1 -11 -10 -15
-8 -18 5 -3 17 -4 17 -20 0 -11 -10 -18 -13 -18 -5 0 8 -5 8 -17 -2 -14 -12
-16 -12 -11 1 4 11 0 16 -13 16 -11 0 -19 -4 -19 -7 0 -4 -12 -4 -27 0 -16 4
-45 7 -66 5 -22 -2 -35 1 -32 6 3 6 -1 7 -9 4 -9 -3 -14 -10 -11 -14 3 -5 -4
-6 -15 -3 -17 5 -18 8 -8 22 10 13 9 12 -8 -1 -24 -21 -38 -23 -28 -5 5 9 4 9
-6 0 -9 -9 -19 -9 -33 -2 -14 8 -18 8 -13 0 5 -7 -1 -11 -14 -11 -14 0 -19 4
-14 13 4 6 4 9 -1 5 -4 -4 -15 -2 -24 5 -14 11 -15 10 -1 -7z m-2905 -676 c-3
-5 -12 -10 -18 -10 -7 0 -6 4 3 10 19 12 23 12 15 0z m-685 -395 c-7 -9 -15
-13 -19 -10 -3 3 1 10 9 15 21 14 24 12 10 -5z m-133 -78 c0 -8 -6 -14 -14
-14 -9 0 -10 4 -2 14 6 7 12 13 14 13 1 0 2 -6 2 -13z m-1477 -1381 c0 -2 -8
-10 -17 -17 -16 -13 -17 -12 -4 4 13 16 21 21 21 13z m10715 -496 c3 -5 1 -10
-4 -10 -6 0 -11 5 -11 10 0 6 2 10 4 10 3 0 8 -4 11 -10z m-11085 -34 c0 -2
-7 -7 -16 -10 -8 -3 -12 -2 -9 4 6 10 25 14 25 6z m11175 -115 c3 -5 2 -12 -3
-15 -5 -3 -9 1 -9 9 0 17 3 19 12 6z m830 -2111 c3 -5 1 -10 -4 -10 -6 0 -11
5 -11 10 0 6 2 10 4 10 3 0 8 -4 11 -10z m-12848 -2912 c2 -17 0 -19 -7 -8 -5
8 -6 18 -4 22 8 12 10 10 11 -14z m12768 -49 c-4 -5 -12 -9 -18 -8 -9 0 -8 2
1 6 6 2 9 10 6 15 -4 7 -2 8 5 4 6 -4 9 -12 6 -17z m-12390 -1027 c-3 -3 -11
0 -18 7 -9 10 -8 11 6 5 10 -3 15 -9 12 -12z m82 -187 c0 -8 -4 -12 -9 -9 -5
3 -6 10 -3 15 9 13 12 11 12 -6z m2008 -2416 c11 -16 1 -19 -13 -3 -7 8 -8 14
-3 14 5 0 13 -5 16 -11z m389 -275 c5 -14 4 -15 -9 -4 -17 14 -19 20 -6 20 5
0 12 -7 15 -16z m6936 -78 c0 -3 -4 -8 -10 -11 -5 -3 -10 -1 -10 4 0 6 5 11
10 11 6 0 10 -2 10 -4z"/>
<path d="M9720 15461 c0 -7 -5 -9 -12 -5 -7 5 -8 3 -3 -5 5 -9 10 -10 18 -2 6
6 8 14 4 18 -4 3 -7 1 -7 -6z"/>
<path d="M6044 14103 c5 -10 -3 -13 -31 -14 -21 -1 -44 0 -52 1 -9 1 -12 -4
-8 -14 8 -20 3 -20 -17 0 -15 14 -16 14 -16 0 0 -9 -5 -16 -11 -16 -5 0 -7 4
-4 10 3 6 -1 7 -9 4 -9 -3 -16 -14 -17 -23 0 -13 -1 -14 -7 -1 -10 21 -33 24
-25 3 4 -10 2 -14 -5 -9 -6 3 -13 2 -17 -4 -4 -6 -12 -7 -23 -1 -17 9 -65 -6
-57 -19 2 -4 -6 -7 -18 -6 -12 1 -28 -5 -35 -14 -12 -13 -13 -13 -7 0 6 13 5
13 -7 0 -12 -13 -26 -18 -65 -22 -6 -1 -9 -7 -6 -15 3 -7 1 -13 -5 -13 -6 0
-13 6 -15 13 -3 7 -6 5 -6 -5 -1 -12 -8 -16 -22 -13 -17 4 -19 2 -8 -11 10
-12 9 -13 -6 -8 -14 6 -16 4 -10 -7 8 -12 6 -12 -8 0 -15 12 -21 9 -19 -11 1
-3 -5 -9 -14 -12 -8 -3 -12 -2 -9 4 3 6 2 10 -4 10 -5 0 -13 -10 -16 -21 -5
-16 -9 -18 -15 -9 -6 10 -10 8 -18 -6 -6 -11 -21 -20 -33 -21 -13 -1 -29 -9
-35 -17 -6 -9 -14 -12 -18 -8 -4 4 -13 0 -19 -9 -7 -9 -16 -17 -22 -18 -5 -2
-9 -6 -8 -11 1 -4 -9 -6 -23 -4 -13 1 -22 -2 -18 -7 3 -5 -2 -10 -10 -10 -30
-3 -34 -4 -43 -13 -4 -5 -3 -7 3 -3 6 3 11 1 11 -6 0 -7 -12 -13 -26 -14 -14
0 -27 -7 -29 -13 -3 -9 -7 -9 -13 1 -7 11 -9 10 -9 -4 0 -10 -5 -15 -10 -12
-6 3 -13 -1 -16 -10 -5 -12 -9 -13 -20 -4 -12 10 -13 8 -8 -6 5 -13 4 -16 -4
-11 -7 4 -12 2 -12 -4 0 -7 -7 -10 -15 -6 -8 3 -14 2 -14 -2 3 -20 -3 -23 -18
-11 -10 7 -15 9 -11 5 4 -5 0 -15 -10 -23 -9 -8 -11 -11 -3 -7 9 4 12 3 7 -4
-4 -6 -13 -9 -22 -5 -8 3 -22 -3 -30 -13 -9 -11 -13 -12 -9 -4 5 12 4 12 -7
-1 -7 -9 -17 -18 -23 -20 -5 -2 -9 -7 -8 -10 1 -4 -7 -4 -19 -1 -14 3 -19 1
-14 -6 4 -7 2 -12 -4 -12 -7 0 -26 -10 -43 -22 -18 -13 -28 -16 -23 -7 4 7 -1
4 -11 -8 -10 -13 -30 -24 -45 -25 -22 -2 -25 -5 -15 -17 9 -12 9 -13 0 -7 -8
4 -13 2 -13 -6 0 -10 -3 -9 -10 2 -8 12 -10 12 -16 -3 -5 -14 -9 -15 -20 -6
-12 9 -13 9 -9 -3 4 -11 -3 -17 -25 -22 -17 -3 -29 -10 -25 -16 3 -5 -1 -10
-9 -10 -9 0 -16 -4 -16 -9 0 -5 -7 -12 -16 -15 -15 -6 -15 -4 -3 11 13 16 12
17 -3 4 -10 -7 -18 -21 -18 -30 0 -14 -2 -14 -10 -1 -6 10 -10 11 -10 3 0 -7
-7 -13 -16 -13 -9 0 -12 -5 -8 -12 4 -7 4 -10 -1 -6 -4 4 -15 2 -23 -5 -13
-10 -14 -9 -7 3 4 8 -1 6 -12 -5 -11 -11 -18 -24 -15 -30 3 -5 -2 -4 -11 4
-15 12 -18 10 -26 -10 -5 -13 -10 -18 -10 -11 -1 7 -9 4 -21 -8 -12 -12 -26
-18 -32 -14 -8 5 -9 1 -4 -11 5 -15 4 -16 -8 -6 -11 9 -18 8 -31 -6 -25 -24
-65 -44 -76 -37 -5 3 -8 0 -7 -8 2 -7 -7 -14 -20 -16 -12 -2 -21 -6 -18 -10 2
-4 -11 -14 -30 -23 -18 -9 -31 -12 -27 -6 4 6 1 7 -6 3 -7 -5 -10 -15 -7 -23
3 -8 1 -11 -5 -8 -6 4 -19 -1 -30 -11 -19 -17 -20 -17 -14 2 5 14 3 13 -7 -4
-8 -12 -17 -19 -21 -16 -4 4 -7 1 -7 -6 0 -7 -3 -10 -7 -7 -3 4 -12 -1 -20
-11 -12 -16 -13 -16 -6 2 6 19 6 19 -14 0 -11 -10 -17 -23 -14 -29 2 -5 -4 -3
-14 5 -11 9 -16 10 -11 3 4 -8 2 -13 -4 -13 -6 0 -8 -5 -4 -12 5 -7 3 -8 -6
-3 -7 4 -16 2 -21 -6 -7 -12 -9 -12 -9 1 0 10 -5 7 -16 -8 -8 -12 -20 -20 -25
-17 -5 4 -17 1 -26 -4 -10 -6 -13 -11 -8 -11 12 0 -44 -30 -57 -30 -5 0 -6 5
-2 12 4 7 3 8 -4 4 -6 -4 -8 -14 -5 -23 5 -12 3 -14 -7 -8 -10 6 -12 4 -6 -10
6 -18 6 -18 -15 1 -12 10 -19 13 -15 7 4 -7 3 -13 -3 -13 -6 0 -8 -8 -5 -17 5
-15 4 -16 -5 -3 -9 12 -12 13 -20 1 -7 -11 -9 -11 -14 0 -4 10 -6 9 -6 -4 -1
-9 -7 -16 -13 -15 -7 2 -12 -3 -10 -11 3 -12 0 -12 -12 -2 -11 10 -16 9 -23
-4 -5 -9 -18 -18 -29 -19 -10 -2 -18 -9 -16 -17 2 -9 -1 -9 -14 2 -12 9 -15 9
-10 2 4 -8 2 -13 -4 -13 -6 0 -8 -5 -4 -11 4 -7 -1 -7 -16 1 -15 8 -20 8 -16
1 4 -6 2 -11 -4 -11 -6 0 -8 -5 -4 -12 5 -9 2 -9 -9 1 -11 8 -17 9 -17 3 0 -7
-8 -9 -17 -5 -15 6 -16 4 -5 -9 10 -13 9 -15 -14 -12 -19 2 -24 -1 -20 -12 3
-8 2 -12 -3 -9 -5 3 -13 1 -16 -5 -5 -8 -11 -7 -21 1 -12 10 -16 8 -21 -10 -4
-17 -8 -19 -14 -9 -7 10 -9 10 -9 1 0 -7 -9 -13 -21 -13 -11 0 -17 -4 -14 -10
3 -5 -1 -10 -10 -10 -10 0 -13 5 -9 12 5 7 3 8 -5 4 -7 -5 -10 -14 -7 -21 3
-9 -2 -11 -16 -7 -13 3 -19 1 -15 -5 4 -6 -4 -9 -18 -7 -14 1 -23 -2 -19 -7 5
-8 -12 -13 -43 -12 -7 1 -13 -6 -13 -14 0 -10 -6 -12 -19 -8 -13 4 -27 -2 -40
-16 -15 -16 -21 -18 -21 -8 0 11 -2 11 -8 2 -5 -7 -20 -14 -35 -15 -20 -2 -23
-5 -15 -15 8 -11 7 -12 -7 -7 -10 4 -21 1 -26 -7 -7 -11 -9 -11 -9 -1 0 10 -3
10 -14 0 -8 -7 -11 -17 -8 -22 3 -5 -1 -5 -9 0 -20 12 -40 14 -33 3 8 -13 -10
-11 -25 4 -10 10 -11 9 -6 -5 5 -13 1 -16 -18 -14 -15 2 -32 -5 -42 -16 -13
-16 -19 -17 -31 -8 -11 10 -14 10 -14 0 0 -10 -3 -10 -15 0 -13 11 -14 10 -9
-4 5 -14 3 -15 -21 -6 -24 9 -26 8 -16 -3 9 -12 6 -14 -19 -12 -16 1 -30 -1
-30 -6 0 -5 -6 -6 -14 -3 -8 3 -17 0 -21 -6 -5 -8 -10 -8 -20 0 -9 8 -17 6
-30 -7 -17 -16 -18 -16 -32 3 -15 18 -15 18 -10 -5 4 -18 3 -21 -6 -12 -15 15
-47 14 -47 -1 0 -9 -4 -8 -10 2 -6 9 -13 11 -17 5 -10 -12 -37 -19 -29 -7 3 5
-10 8 -28 8 -19 -1 -32 -4 -29 -8 2 -5 -1 -8 -6 -8 -6 0 -11 6 -11 13 0 8 -4
7 -10 -3 -6 -10 -10 -11 -10 -2 0 6 -5 12 -11 12 -5 0 -8 -4 -5 -8 2 -4 -4 -8
-15 -8 -10 0 -19 3 -19 7 0 4 -11 7 -25 8 -48 3 -55 4 -55 13 0 5 -12 6 -26 4
-22 -4 -24 -3 -13 10 7 8 8 14 3 13 -22 -4 -35 2 -28 13 4 7 3 8 -5 4 -9 -6
-9 -11 0 -23 9 -10 2 -8 -22 5 -18 11 -33 25 -31 32 2 8 -3 10 -13 7 -15 -6
-19 4 -15 32 1 12 -1 12 -13 3 -11 -10 -17 -9 -27 2 -6 9 -8 21 -4 27 4 7 3
10 -2 7 -5 -3 -20 6 -34 20 -14 14 -17 20 -7 13 25 -20 21 -6 -8 23 -16 16
-20 26 -12 29 7 3 4 6 -6 6 -10 1 -15 6 -12 11 3 6 1 10 -4 10 -6 0 -11 4 -11
9 0 5 8 8 17 6 10 -1 12 0 6 2 -7 3 -13 9 -13 14 0 6 -4 7 -10 4 -6 -4 -7 1
-3 11 5 13 3 15 -8 9 -11 -7 -11 -5 1 10 9 11 10 16 2 11 -6 -4 -12 -3 -12 3
0 5 6 12 13 14 7 3 4 6 -7 6 -14 1 -16 4 -7 15 9 11 6 17 -15 31 -24 15 -25
18 -9 35 15 16 14 18 -6 23 -19 5 -20 8 -9 21 10 13 10 16 -4 16 -10 0 -14 5
-11 10 4 6 10 8 15 5 4 -3 14 3 21 13 13 15 12 16 -3 3 -13 -9 -18 -10 -18 -2
0 7 -5 9 -12 5 -9 -5 -9 -2 1 9 10 13 10 17 1 17 -9 0 -9 4 1 17 12 14 12 16
-2 11 -10 -4 -16 -1 -16 8 0 8 6 13 12 10 6 -2 12 2 12 9 0 7 -9 10 -21 8 -15
-3 -17 -2 -8 5 10 7 10 11 -3 22 -14 11 -14 15 -1 35 14 22 14 23 -7 18 -18
-4 -19 -3 -7 6 13 9 13 11 0 11 -11 0 -11 3 -2 12 16 16 15 33 -1 19 -18 -14
-30 -2 -16 16 9 10 8 13 -1 13 -10 0 -10 3 0 15 11 13 10 14 -4 9 -12 -5 -15
-2 -10 10 3 9 11 13 17 9 6 -3 7 -1 3 6 -4 6 -11 9 -16 6 -16 -10 -29 29 -17
50 10 19 9 19 -9 5 -10 -8 -16 -11 -12 -6 3 4 0 23 -8 43 -12 27 -12 33 -2 27
10 -6 10 -4 -1 9 -7 9 -18 14 -24 10 -6 -3 -7 -1 -3 5 4 6 14 8 23 5 11 -4 14
-3 9 5 -4 7 -14 12 -22 12 -8 0 -12 5 -9 10 3 6 1 10 -5 10 -6 0 -8 5 -5 10 3
6 2 10 -3 10 -12 0 -11 32 2 49 8 11 8 13 -1 8 -6 -4 -14 -3 -18 3 -4 6 -11 8
-16 5 -5 -3 -6 2 -2 11 4 12 3 15 -6 10 -8 -5 -12 -3 -10 5 3 29 -1 40 -13 33
-8 -5 -7 0 2 11 8 10 11 16 5 13 -5 -3 -16 0 -23 8 -9 10 -9 14 -1 14 6 0 1 9
-12 21 -13 11 -18 18 -12 14 7 -3 13 -1 13 6 0 7 -8 9 -21 6 -16 -4 -18 -3 -8
9 8 10 8 14 0 14 -6 0 -11 10 -11 21 0 16 -5 20 -18 17 -13 -4 -18 1 -19 15
-1 10 -11 26 -22 34 -12 8 -21 19 -21 24 0 18 -29 41 -42 33 -7 -5 -5 5 6 21
10 17 13 25 6 19 -13 -13 -50 -7 -50 8 0 5 4 7 8 4 5 -3 9 1 9 9 0 12 -4 12
-20 -2 -11 -10 -17 -12 -13 -5 4 7 1 15 -8 18 -9 3 -14 9 -11 13 2 4 -2 8 -10
8 -8 0 -15 -5 -15 -10 0 -6 -3 -7 -6 -4 -4 4 -1 14 6 22 7 9 9 15 4 14 -26 -5
-55 2 -48 12 4 8 -1 9 -16 4 -13 -4 -20 -3 -17 2 3 5 2 15 -4 23 -7 12 -9 11
-10 -5 0 -11 -3 -14 -6 -7 -2 6 -13 12 -24 12 -10 0 -19 5 -19 11 0 6 -7 9
-15 6 -8 -4 -17 -2 -20 3 -4 7 -13 6 -26 0 -19 -10 -25 -3 -20 24 1 5 -5 4
-13 -3 -9 -7 -13 -18 -9 -24 3 -6 1 -7 -6 -3 -6 4 -8 12 -5 18 4 6 -1 6 -14
-1 -15 -8 -22 -8 -25 2 -4 9 -6 9 -6 0 -1 -7 -6 -13 -12 -13 -5 0 -8 4 -5 9 8
12 -13 8 -41 -7 -18 -10 -25 -9 -37 4 -15 14 -16 13 -17 -8 0 -13 -3 -17 -6
-10 -4 10 -8 10 -21 0 -13 -11 -14 -11 -7 2 5 9 -1 7 -15 -5 -13 -11 -20 -14
-15 -6 6 11 4 13 -9 8 -10 -4 -22 -7 -27 -7 -6 0 -7 -5 -3 -11 5 -8 1 -8 -14
0 -14 7 -23 8 -27 1 -4 -6 -11 -7 -17 -4 -7 4 -8 2 -4 -5 6 -9 11 -9 22 0 10
8 14 8 14 0 0 -6 -4 -11 -10 -11 -18 0 -25 -2 -45 -13 -11 -6 -24 -10 -28 -9
-5 1 -6 -2 -2 -8 3 -6 12 -8 18 -4 7 3 4 -1 -5 -9 -10 -8 -14 -18 -10 -22 4
-5 -2 -5 -13 -2 -19 7 -19 6 -2 -7 14 -10 15 -15 5 -19 -10 -4 -10 -8 2 -16
11 -8 12 -11 2 -11 -10 0 -9 -4 2 -16 9 -8 14 -20 11 -25 -4 -5 -1 -9 6 -9 8
0 8 -5 -2 -17 -7 -10 -10 -15 -5 -11 4 4 14 1 21 -5 10 -9 10 -15 1 -26 -8
-12 -8 -13 2 -7 11 6 17 -5 13 -26 0 -5 3 -8 7 -8 5 0 14 -12 21 -27 10 -22
10 -25 -1 -17 -8 5 -6 2 4 -7 9 -9 14 -19 11 -23 -4 -3 -2 -6 4 -6 6 0 9 -9 5
-22 -3 -14 -1 -19 6 -14 8 5 10 2 6 -8 -4 -11 0 -16 12 -17 18 0 17 -1 -1 -9
-18 -8 -18 -9 5 -10 22 -1 23 -2 6 -9 -18 -7 -18 -8 -3 -14 9 -3 17 -16 17
-27 0 -12 7 -28 15 -36 8 -9 15 -21 14 -27 0 -9 -2 -8 -6 1 -2 6 -9 12 -14 12
-5 0 -4 -9 3 -19 7 -11 16 -17 22 -14 5 4 7 -1 3 -11 -6 -14 -3 -17 9 -12 14
5 15 4 4 -9 -10 -12 -10 -15 0 -15 9 0 9 -4 -1 -17 -10 -11 -10 -14 -1 -9 7 4
12 2 12 -4 0 -6 5 -8 13 -4 8 5 8 2 -2 -9 -9 -11 -10 -17 -2 -17 6 0 11 -5 11
-11 0 -5 -6 -7 -12 -3 -8 4 -10 3 -5 -2 5 -5 13 -10 18 -10 5 -1 12 -2 16 -3
4 0 -2 -8 -13 -16 -11 -9 -13 -13 -4 -10 20 7 42 -39 27 -54 -8 -8 -8 -11 1
-11 7 0 12 -7 12 -15 0 -8 6 -15 13 -15 8 0 7 -4 -3 -10 -12 -8 -12 -10 5 -11
19 0 19 -1 1 -8 -18 -7 -18 -8 -2 -14 9 -4 14 -11 11 -17 -3 -5 -1 -10 6 -10
8 0 7 -5 -2 -17 -12 -14 -12 -16 0 -8 11 6 13 3 9 -13 -4 -12 -3 -20 2 -17 4
3 10 -2 14 -10 3 -8 1 -15 -4 -15 -6 0 -10 -5 -10 -11 0 -5 4 -8 9 -5 12 8 21
-18 16 -44 -2 -11 0 -20 6 -20 5 0 9 -13 9 -29 0 -16 6 -32 13 -34 9 -4 8 -6
-2 -6 -11 -1 -11 -4 0 -18 12 -15 12 -16 -1 -8 -12 7 -13 6 -4 -6 12 -15 29
-88 25 -104 -9 -29 -4 -52 14 -67 16 -14 18 -19 7 -30 -11 -11 -12 -10 -7 3 4
11 0 19 -12 23 -14 6 -15 4 -6 -5 6 -6 9 -18 6 -25 -3 -8 -1 -14 4 -14 5 0 8
-13 5 -30 -3 -19 -8 -27 -16 -23 -6 4 -5 0 2 -9 10 -12 10 -18 1 -23 -8 -6 -8
-10 2 -15 10 -7 10 -11 0 -24 -11 -13 -11 -16 0 -16 12 0 12 -2 0 -9 -7 -5
-11 -15 -9 -22 3 -8 -2 -19 -11 -25 -13 -10 -12 -13 6 -24 l21 -13 -22 -19
-21 -19 25 7 c24 6 24 6 5 -10 -11 -8 -15 -16 -10 -16 6 0 3 -5 -5 -10 -13 -9
-13 -10 0 -10 13 0 13 -1 0 -10 -13 -9 -13 -10 0 -10 13 0 13 -1 0 -10 -13 -9
-13 -11 0 -20 13 -9 13 -10 0 -10 -13 0 -13 -1 0 -10 12 -8 12 -10 1 -10 -10
0 -11 -4 -3 -13 7 -8 6 -18 -4 -31 -12 -17 -11 -21 4 -33 9 -8 12 -12 6 -9 -7
3 -14 -1 -18 -9 -3 -8 0 -15 7 -15 8 0 8 -3 -2 -9 -11 -7 -10 -10 5 -14 16 -4
16 -5 2 -6 -11 -1 -15 -6 -12 -16 4 -8 11 -12 18 -8 7 4 7 1 -1 -9 -7 -8 -9
-19 -5 -23 4 -5 1 -5 -6 -1 -7 4 -9 12 -6 18 4 7 2 8 -4 4 -9 -5 -9 -13 -2
-26 5 -10 10 -28 10 -39 0 -10 6 -22 13 -25 6 -4 1 -4 -13 -2 -22 4 -23 3 -8
-8 15 -11 15 -13 0 -24 -9 -7 -11 -10 -3 -6 11 5 13 1 9 -19 -3 -15 0 -28 6
-31 7 -3 7 -5 -1 -5 -19 -1 -16 -28 4 -36 17 -6 17 -7 -1 -21 -15 -10 -16 -14
-5 -15 8 0 6 -4 -6 -9 l-20 -9 20 0 c15 -1 17 -3 6 -10 -11 -7 -10 -11 5 -20
16 -9 16 -10 3 -11 -19 0 -18 -48 1 -60 9 -6 9 -9 -1 -13 -11 -3 -11 -8 -3
-17 14 -15 6 -52 -10 -44 -6 3 -3 -1 7 -9 14 -11 15 -16 5 -21 -11 -5 -10 -7
1 -12 11 -5 11 -8 0 -15 -12 -7 -12 -9 0 -9 11 0 11 -3 1 -15 -10 -12 -10 -18
0 -30 19 -23 19 -77 0 -70 -8 4 -4 -5 8 -18 15 -16 20 -27 13 -32 -6 -3 -11
-11 -11 -16 0 -6 4 -8 8 -5 5 3 9 -1 9 -9 0 -8 -4 -12 -9 -9 -4 3 -8 0 -8 -5
0 -6 6 -11 13 -11 8 0 7 -4 -3 -10 -12 -8 -12 -10 5 -10 17 0 17 -2 5 -10 -8
-5 -10 -10 -5 -10 6 0 3 -5 -5 -10 -13 -8 -12 -10 4 -10 19 0 19 0 0 -22 -10
-12 -14 -19 -9 -16 6 4 15 -5 22 -18 8 -18 8 -22 0 -17 -7 4 -6 -1 2 -10 11
-14 11 -17 0 -17 -8 0 -5 -6 7 -15 14 -11 15 -14 3 -9 -10 3 -20 0 -25 -7 -4
-7 -3 -10 4 -5 17 10 25 -13 10 -32 -11 -15 -11 -15 3 -5 22 18 33 3 11 -14
-10 -9 -11 -11 -2 -7 13 7 13 5 1 -9 -12 -15 -11 -17 5 -17 16 0 17 -2 4 -10
-10 -6 -11 -10 -2 -10 6 0 12 -6 12 -14 0 -8 -6 -17 -12 -19 -7 -3 -4 -6 7 -6
17 -1 17 -3 5 -11 -11 -7 -11 -10 -2 -10 7 0 10 -4 7 -10 -3 -5 0 -10 7 -10 9
0 9 -3 -2 -10 -13 -9 -13 -10 0 -10 13 0 13 -1 0 -10 -10 -6 -11 -10 -3 -10 7
0 12 -3 12 -7 -5 -28 2 -53 13 -47 7 5 8 3 3 -7 -13 -20 -15 -59 -4 -59 6 0 7
5 3 12 -4 7 -3 8 4 4 8 -5 8 -15 1 -32 -8 -22 -7 -25 6 -20 12 4 13 2 7 -12
-10 -19 -5 -45 7 -38 4 3 8 -1 8 -9 0 -8 -5 -11 -11 -8 -6 4 -5 0 2 -9 7 -8 9
-24 5 -33 -5 -14 -3 -16 7 -10 10 6 12 4 7 -8 -4 -11 -1 -17 9 -17 8 0 12 -5
9 -10 -4 -6 -10 -8 -14 -6 -4 3 -8 -1 -8 -9 0 -8 5 -11 10 -8 6 4 7 -5 3 -23
-7 -27 -7 -28 8 -9 8 11 18 17 22 12 4 -4 2 -7 -4 -7 -7 0 -12 -7 -12 -16 0
-9 5 -12 13 -8 9 6 9 4 0 -7 -18 -18 -16 -29 5 -29 14 0 15 -2 2 -10 -11 -7
-11 -10 -2 -10 7 0 10 -4 7 -10 -3 -5 0 -10 7 -10 9 0 9 -3 -2 -10 -12 -8 -12
-10 -1 -10 11 0 11 -3 1 -15 -10 -11 -9 -17 3 -29 8 -8 18 -12 22 -8 4 4 3 -3
-4 -15 -8 -16 -8 -24 1 -29 7 -5 8 -3 3 6 -5 8 -4 11 3 6 6 -3 9 -16 7 -27 -3
-13 0 -19 8 -16 7 3 12 -5 12 -18 0 -13 -3 -21 -7 -19 -4 2 -10 0 -13 -6 -4
-6 -3 -10 2 -9 19 3 31 -2 37 -17 5 -14 4 -15 -9 -4 -13 11 -14 10 -9 -4 3 -9
9 -16 13 -16 3 0 12 -10 20 -21 11 -19 11 -21 -1 -16 -8 3 -15 -1 -15 -9 0 -7
4 -11 8 -8 4 2 13 -5 19 -17 8 -15 9 -19 1 -15 -6 4 -11 2 -11 -3 0 -6 7 -11
15 -11 9 0 12 -6 9 -15 -4 -9 4 -24 17 -36 13 -11 18 -18 11 -14 -6 3 -12 1
-12 -4 0 -6 5 -11 11 -11 6 0 9 -9 6 -20 -3 -14 0 -20 10 -20 13 0 13 -2 2
-17 -8 -9 -9 -14 -4 -11 6 4 17 -2 24 -14 7 -11 9 -18 4 -15 -5 3 -9 -3 -9
-13 0 -13 4 -16 12 -9 8 6 10 2 9 -16 -2 -14 2 -28 7 -32 6 -3 8 -1 4 5 -3 6
-2 14 4 17 6 4 10 3 9 -2 -4 -16 14 -68 29 -85 8 -10 12 -24 8 -33 -4 -11 -1
-15 11 -13 9 2 18 -4 20 -12 4 -12 3 -12 -5 -2 -7 11 -10 9 -14 -6 -4 -14 -2
-19 7 -16 6 3 18 -2 25 -11 9 -11 9 -15 1 -15 -7 0 -9 -5 -6 -10 4 -6 12 -7
18 -3 7 4 6 -1 -2 -10 -12 -15 -12 -17 3 -11 11 4 16 1 16 -10 0 -9 5 -16 11
-16 5 0 8 -4 5 -9 -3 -4 3 -19 15 -32 11 -12 17 -29 14 -37 -4 -12 -3 -12 9
-3 11 9 16 9 22 0 4 -8 3 -9 -4 -5 -7 4 -12 2 -12 -3 0 -6 5 -11 11 -11 6 0 9
-7 6 -15 -4 -8 -1 -17 5 -21 7 -4 8 -3 4 4 -4 7 -2 12 3 12 6 0 11 -7 11 -16
0 -9 5 -12 13 -8 10 6 10 4 0 -7 -7 -7 -13 -18 -13 -23 0 -6 5 -4 10 4 5 8 10
10 10 4 0 -7 9 -14 20 -17 12 -3 20 -14 20 -25 0 -12 5 -24 10 -27 6 -4 7 -11
4 -17 -4 -7 -2 -8 5 -4 9 6 9 11 0 24 -7 10 -1 6 13 -8 16 -16 21 -27 14 -32
-6 -5 -1 -8 12 -8 23 0 29 -18 12 -38 -5 -7 -2 -5 7 3 15 13 18 11 35 -15 10
-18 26 -30 38 -30 12 0 18 -4 15 -10 -3 -6 4 -10 17 -10 18 0 20 -2 8 -10 -13
-8 -12 -10 3 -10 12 0 16 -4 11 -12 -6 -10 -4 -10 8 0 14 11 17 10 23 -7 6
-19 23 -26 49 -22 5 1 6 -6 2 -15 -4 -12 -2 -15 9 -10 8 3 15 2 15 -2 0 -7 65
-36 83 -37 5 0 15 -8 22 -18 9 -12 15 -15 20 -7 5 8 13 6 26 -6 21 -19 26 -40
7 -28 -7 5 -8 3 -3 -6 6 -10 11 -9 22 5 7 11 13 13 13 6 0 -7 5 -9 10 -6 5 3
10 0 10 -7 0 -10 2 -10 9 1 7 11 10 11 15 0 5 -11 7 -11 12 -2 4 10 9 9 21 -2
8 -8 20 -12 26 -8 6 4 8 0 4 -11 -6 -14 -3 -15 13 -6 16 8 22 8 26 -4 3 -8 2
-20 -2 -27 -4 -8 -3 -9 4 -5 7 4 12 13 12 19 0 7 14 13 33 13 17 1 26 -1 20
-3 -27 -10 -11 -18 32 -16 47 1 53 -4 33 -27 -7 -8 -3 -6 10 5 32 27 52 27 53
2 0 -22 0 -22 9 1 5 12 12 22 15 22 4 0 3 -4 0 -10 -3 -5 -1 -10 6 -10 8 0 7
-5 -2 -17 -13 -16 -12 -17 3 -4 10 7 15 17 12 22 -3 5 0 9 5 9 6 0 11 -6 11
-14 0 -8 4 -17 9 -20 5 -4 7 4 3 16 -5 21 -4 22 11 9 9 -7 17 -10 17 -5 0 5
17 9 39 9 29 0 37 -3 34 -15 -4 -12 -1 -11 9 2 9 11 19 14 28 8 10 -6 21 -3
34 8 11 9 16 11 12 5 -4 -7 -2 -13 4 -13 6 0 9 -4 6 -8 -3 -5 1 -9 8 -9 8 0
12 6 9 13 -3 9 2 11 18 7 17 -5 20 -3 14 8 -5 8 2 5 15 -6 13 -11 20 -15 17
-9 -9 16 22 27 38 14 8 -6 15 -6 23 2 7 7 12 9 12 5 0 -4 9 -3 20 3 15 8 18 8
14 -3 -3 -8 2 -14 10 -14 8 0 13 4 10 9 -3 4 2 8 11 8 10 0 13 5 9 12 -4 6 -3
8 4 4 6 -3 9 -19 7 -34 -4 -26 -3 -25 11 6 8 17 17 32 20 32 3 0 2 -4 -1 -10
-8 -14 8 -13 22 1 9 9 18 8 37 -5 24 -15 25 -15 19 1 -5 12 -2 15 10 10 10 -4
17 -2 17 5 0 7 5 6 15 -2 13 -11 14 -10 10 2 -4 9 0 15 10 15 9 0 14 -6 11
-13 -3 -8 0 -16 6 -20 7 -4 8 -3 4 4 -9 15 6 16 21 1 8 -8 13 -7 18 2 5 7 4
10 -2 6 -6 -4 -17 1 -24 10 -12 15 -12 16 4 10 10 -4 17 -2 17 5 0 7 7 3 15
-8 13 -18 14 -18 9 6 -5 21 -4 22 6 8 6 -9 17 -15 25 -12 8 4 13 10 10 14 -3
4 2 11 11 14 8 3 13 2 10 -3 -9 -14 28 -7 40 7 5 8 17 13 25 12 29 -5 50 0 44
10 -3 6 1 7 10 4 8 -4 21 -2 28 4 19 16 21 16 46 3 14 -8 21 -9 17 -2 -4 6 -2
11 4 11 6 0 8 6 4 13 -5 9 -4 9 6 0 11 -10 16 -9 27 5 8 9 11 11 7 3 -5 -10
-3 -13 8 -8 9 3 21 0 28 -6 10 -10 10 -7 1 10 -8 16 -8 24 1 29 7 5 8 3 4 -5
-5 -8 -3 -12 5 -10 25 3 40 -1 35 -9 -3 -5 1 -9 9 -9 12 0 12 4 -2 21 -10 12
-14 18 -9 14 5 -4 15 -3 23 4 11 8 12 7 7 -6 -3 -9 -1 -16 5 -16 6 0 11 6 11
14 0 8 5 18 12 22 7 4 8 3 4 -4 -4 -7 -1 -12 9 -12 11 0 15 5 12 15 -5 11 -1
12 18 5 14 -5 24 -6 24 -2 -3 19 2 25 11 12 8 -13 11 -13 22 -1 11 11 11 13
-1 6 -10 -5 -12 -4 -7 4 4 6 12 9 17 6 5 -4 9 0 9 7 1 7 8 2 16 -12 8 -14 13
-17 10 -8 -4 13 1 17 22 15 15 -1 27 3 27 10 0 6 3 15 8 19 4 4 7 2 7 -5 0 -8
6 -7 17 4 16 16 17 16 29 0 12 -16 13 -16 11 4 -1 11 -6 21 -11 21 -5 0 -7 2
-4 5 8 9 38 -6 32 -16 -3 -5 2 -6 11 -3 9 4 14 12 12 19 -3 6 1 12 9 12 7 0
10 -5 7 -11 -4 -6 1 -5 10 3 9 7 24 11 32 7 13 -4 14 -2 5 14 -9 16 -7 18 14
14 14 -2 27 0 31 5 3 6 13 7 22 4 12 -5 14 -3 9 8 -4 8 -1 6 7 -4 14 -17 15
-16 20 4 5 18 8 19 29 8 l23 -12 -20 24 c-11 13 -14 19 -6 12 8 -7 23 -8 42
-3 28 8 33 6 30 -13 -1 -5 3 -6 9 -2 8 5 7 11 -1 21 -6 8 -9 18 -5 21 4 4 11
1 16 -7 8 -13 10 -13 10 1 0 9 9 19 21 22 16 4 19 2 15 -10 -5 -12 -4 -13 7
-5 8 7 18 8 23 4 4 -4 3 0 -4 10 -10 12 -10 18 -1 24 8 5 9 3 4 -6 -5 -8 -3
-11 6 -8 8 3 13 10 12 16 -2 6 4 9 12 5 12 -4 13 -9 4 -19 -6 -8 -8 -14 -4
-14 4 0 2 -6 -4 -13 -8 -10 -7 -14 3 -14 8 0 13 7 11 16 -1 9 2 21 7 28 5 7 7
16 4 21 -3 5 1 9 9 9 8 0 12 -3 10 -7 -2 -4 2 -7 9 -7 7 0 13 7 12 15 0 8 7
16 17 17 9 2 15 0 12 -4 -2 -4 2 -8 10 -8 8 0 14 3 13 6 -2 24 4 32 20 26 22
-9 52 -15 52 -11 0 2 -8 10 -17 17 -14 12 -16 12 -8 0 5 -10 4 -12 -3 -7 -15
9 -15 11 5 27 11 10 14 10 9 2 -4 -7 -2 -13 3 -13 6 0 11 5 11 11 0 5 5 7 10
4 6 -4 7 -11 4 -17 -4 -7 -2 -8 5 -4 6 4 9 12 6 17 -4 5 -1 9 5 9 6 0 8 4 5
10 -4 6 1 7 11 3 13 -5 15 -3 9 8 -7 12 -6 12 7 1 13 -10 18 -9 29 5 13 16 12
17 -3 4 -12 -9 -18 -10 -18 -2 0 10 4 12 40 15 8 1 14 7 13 13 -2 7 6 10 18 8
11 -2 22 2 26 11 3 8 12 13 20 9 11 -4 13 -1 9 11 -4 10 -2 14 6 11 7 -2 21 0
31 5 16 8 16 12 5 26 -11 15 -11 15 3 5 9 -7 19 -9 24 -5 4 4 3 -3 -4 -15 -6
-12 -16 -24 -23 -26 -10 -4 -10 -6 -1 -6 7 -1 20 10 29 23 8 14 21 24 27 22 7
-1 9 -1 5 1 -14 8 -8 25 7 20 8 -4 25 7 41 26 14 18 23 26 19 20 -3 -7 -1 -13
4 -13 6 0 11 7 11 16 0 11 6 15 20 11 11 -3 23 0 27 5 3 7 1 8 -5 4 -7 -4 -12
-2 -12 3 0 6 7 11 15 11 8 0 14 5 12 12 -1 7 4 13 11 14 6 1 17 2 23 3 5 0 7
6 3 13 -5 7 -3 8 6 3 9 -6 12 -4 8 7 -4 9 0 15 8 15 8 0 14 -4 14 -9 0 -4 4
-8 10 -8 6 0 6 10 0 28 l-10 27 20 -25 20 -25 -10 28 c-5 16 -6 26 -1 23 5 -3
12 1 15 10 4 9 9 14 13 11 3 -4 0 -13 -6 -21 -8 -10 -9 -16 -1 -21 6 -4 9 -3
8 2 -1 4 3 18 10 31 10 18 10 22 0 23 -7 0 -2 4 10 10 13 5 28 7 33 3 5 -3 9
-1 9 5 0 5 -6 12 -12 14 -8 3 -6 6 4 6 10 1 17 4 17 9 -3 20 3 31 22 37 15 5
17 10 9 19 -8 10 -5 13 15 11 14 -2 23 2 22 8 -1 7 4 11 11 10 6 -2 12 2 12 8
0 6 -7 9 -15 6 -8 -4 -17 -2 -20 3 -6 9 7 14 27 11 4 0 5 8 3 19 -2 11 1 23 7
26 6 4 8 2 4 -4 -3 -6 -3 -13 2 -16 4 -2 8 11 9 30 1 31 -1 33 -16 22 -14 -12
-14 -11 -2 4 7 10 17 15 22 12 6 -3 8 6 5 20 -3 15 -1 24 5 21 12 -8 11 2 -3
28 -10 21 -10 21 7 7 17 -14 18 -14 5 10 -15 28 -15 28 8 54 9 11 12 16 5 13
-6 -4 -14 -3 -18 3 -4 6 -10 8 -15 5 -4 -3 -7 10 -6 29 1 24 -2 32 -10 25 -19
-16 -25 4 -7 24 18 19 17 20 -7 7 -14 -7 -22 -9 -18 -5 5 5 -1 14 -12 22 -11
8 -20 21 -20 29 0 8 -7 14 -16 14 -9 0 -12 5 -8 12 5 8 2 9 -9 5 -10 -3 -17
-2 -17 4 0 6 -4 8 -8 5 -4 -2 -14 -1 -22 5 -10 5 -11 9 -3 9 7 0 10 7 6 17 -4
11 -3 14 5 9 7 -4 12 -1 12 8 0 19 11 21 27 5 8 -8 13 -8 18 0 3 7 1 10 -6 9
-20 -4 -17 24 4 55 12 17 25 26 34 23 8 -3 11 -1 8 4 -14 22 -13 50 3 62 13
11 15 11 7 -2 -5 -9 -5 -12 1 -7 5 5 9 12 9 15 0 4 4 12 8 19 4 6 3 15 -3 18
-6 4 -9 1 -8 -6 2 -6 -4 -14 -12 -16 -10 -3 -11 -2 -4 4 6 4 10 16 8 25 -1 10
3 21 8 25 7 3 8 1 4 -5 -4 -7 -2 -12 3 -12 16 0 13 11 -6 33 -11 13 -12 17 -4
12 11 -6 13 -4 8 9 -4 10 -3 15 3 11 6 -3 10 -1 10 4 0 6 -8 11 -17 11 -16 1
-16 2 1 15 17 13 16 19 -4 17 -9 -1 -6 42 4 58 8 13 7 13 -6 2 -11 -9 -18 -10
-23 -2 -3 5 -1 10 4 10 6 0 11 5 11 11 0 5 -4 8 -9 5 -10 -7 -21 17 -21 45 0
13 -4 18 -12 13 -8 -5 -9 -2 -5 9 4 12 1 17 -11 17 -15 0 -15 2 -2 10 13 8 12
10 -3 10 -11 0 -20 10 -23 30 -4 16 -10 28 -14 25 -4 -3 -14 2 -21 11 -10 13
-10 17 2 26 11 8 10 9 -4 4 -12 -4 -27 3 -43 21 -21 23 -27 25 -34 13 -8 -13
-10 -12 -10 3 0 9 6 17 13 18 6 0 -3 5 -20 10 -18 5 -40 21 -48 37 -9 15 -14
19 -11 10 3 -12 1 -15 -9 -12 -8 3 -11 13 -8 21 5 13 3 14 -18 3 -22 -12 -23
-12 -10 4 12 15 12 17 0 14 -8 -2 -13 3 -11 11 3 12 0 12 -12 2 -11 -9 -16 -9
-22 0 -5 8 -3 9 6 4 10 -6 12 -1 7 21 -5 27 -4 27 9 9 13 -18 14 -17 14 9 0
18 4 25 12 20 8 -5 9 -2 5 10 -4 9 -3 14 2 11 5 -3 12 -1 16 5 3 5 2 10 -4 10
-15 0 -6 31 12 45 20 14 23 30 5 19 -10 -6 -10 -5 -1 8 7 8 12 17 10 19 -1 2
4 -2 11 -10 15 -18 16 -7 1 21 -10 18 -8 19 13 14 22 -7 22 -6 3 6 -25 16 -30
37 -10 44 12 5 12 9 -1 29 -11 16 -12 25 -4 30 6 4 9 13 6 21 -7 20 4 45 17
37 6 -3 7 -1 3 5 -4 6 -12 9 -19 6 -14 -5 -16 34 -2 56 6 10 4 12 -7 7 -12 -4
-14 -1 -10 15 3 14 -2 26 -14 36 -15 11 -15 13 -2 9 21 -7 18 17 -7 46 -11 12
-18 30 -17 39 2 9 -6 19 -17 23 -11 3 -20 9 -20 13 3 22 -2 32 -13 26 -8 -5
-7 0 2 11 8 10 10 16 3 12 -6 -4 -14 -3 -18 2 -3 6 -13 7 -23 4 -15 -6 -15 -4
-4 9 11 14 10 17 -8 23 -11 3 -18 11 -15 16 3 5 0 6 -8 4 -14 -6 -61 28 -51
37 2 3 -7 4 -21 3 -14 -2 -32 4 -41 12 -8 8 -23 13 -34 10 -13 -3 -17 -1 -13
9 6 17 -9 18 -25 2 -9 -9 -12 -8 -12 5 0 14 -4 16 -17 9 -23 -12 -45 -4 -36
11 4 7 -2 5 -12 -3 -17 -13 -18 -13 -13 1 4 9 1 16 -8 16 -7 0 -11 -4 -8 -9 3
-4 -2 -5 -10 -2 -9 3 -14 9 -12 13 2 3 -13 6 -34 6 -21 1 -36 -3 -34 -7 3 -5
10 -6 15 -3 5 4 9 1 9 -4 0 -13 -10 -14 -30 -1 -10 6 -21 4 -35 -8 -16 -13
-15 -12 3 9 12 14 19 29 15 34 -5 4 -2 4 6 0 11 -6 13 -4 8 9 -5 12 -3 15 6 9
6 -4 19 -8 27 -10 10 -1 9 3 -4 13 -26 18 -13 18 27 -1 30 -15 31 -15 10 1
-22 15 -34 42 -14 30 13 -8 42 4 35 15 -3 5 -10 6 -16 3 -6 -4 -8 -2 -5 4 4 5
17 8 29 4 17 -4 20 -2 15 11 -5 13 -2 15 18 7 16 -6 27 -6 31 2 4 7 3 8 -4 4
-7 -4 -12 -2 -12 5 0 6 8 9 19 6 14 -3 18 -1 14 9 -3 8 -9 11 -14 8 -5 -3 -6
2 -3 10 5 13 8 12 24 -2 11 -8 17 -18 15 -22 -2 -3 7 -6 20 -6 13 0 21 4 19 8
-3 5 -9 6 -14 3 -4 -3 -13 2 -20 10 -11 13 -9 19 11 36 13 12 23 25 22 30 -2
4 4 6 13 2 14 -5 13 -9 -6 -23 -16 -12 -19 -19 -11 -25 7 -4 15 -4 18 -1 4 3
0 6 -8 6 -8 0 -5 6 8 15 14 10 20 22 17 33 -5 14 -2 13 11 -3 17 -20 17 -20
11 2 -6 18 -3 21 12 18 15 -2 18 2 17 18 -2 17 3 22 22 24 14 0 30 6 37 13 8
8 6 10 -9 5 -16 -5 -17 -5 -5 3 9 7 18 8 26 1 8 -7 15 -6 20 2 5 8 3 9 -6 4
-8 -5 -11 -3 -8 6 3 8 11 13 18 11 8 -2 11 4 7 18 -4 17 -3 19 8 10 8 -6 13
-17 11 -23 -1 -7 -1 -9 1 -4 3 4 10 4 16 1 8 -5 8 -2 0 7 -18 18 -16 34 1 20
11 -9 16 -9 22 0 4 8 3 9 -4 5 -7 -4 -12 -3 -12 2 0 16 13 22 26 11 9 -8 11
-5 7 9 -6 25 17 40 64 44 9 1 10 5 2 14 -7 8 -6 14 2 20 8 5 9 3 4 -6 -6 -10
-4 -12 7 -7 9 3 22 0 29 -6 7 -7 5 -2 -6 11 -18 22 -18 23 0 16 14 -6 16 -4
10 6 -6 10 -3 12 12 8 16 -4 19 -1 17 18 -1 15 2 21 11 17 8 -2 11 -11 8 -19
-3 -8 -1 -14 5 -14 11 0 11 18 -1 38 -10 15 5 16 20 1 9 -9 10 -7 6 10 -4 15
-1 21 11 21 9 0 16 4 16 10 0 5 7 7 15 4 8 -4 12 -10 9 -15 -3 -5 3 -6 12 -2
11 4 13 8 6 11 -7 2 -9 9 -6 14 5 7 2 8 -7 3 -12 -8 -12 -6 0 8 13 17 37 24
27 9 -2 -4 4 -8 14 -8 18 0 18 1 2 20 -9 11 -12 16 -6 13 7 -4 14 0 18 8 3 8
12 12 21 9 12 -5 14 -2 8 12 -6 16 -5 17 9 6 13 -10 18 -10 24 -1 4 8 3 9 -4
5 -7 -4 -12 -2 -12 3 0 15 27 14 33 -1 3 -7 4 2 2 21 -3 24 -1 31 7 23 12 -12
38 -5 38 10 0 5 -5 6 -12 2 -7 -5 -8 -3 -4 5 5 7 10 10 13 7 3 -3 12 2 20 10
8 8 23 12 33 9 10 -3 21 -1 25 4 3 6 0 8 -8 5 -8 -3 -18 0 -22 6 -3 6 -3 10 2
9 20 -3 27 2 13 11 -9 6 -10 10 -3 10 6 0 18 -7 27 -15 23 -23 31 -18 10 7
-10 12 -14 18 -7 15 18 -11 45 4 38 20 -4 11 -1 13 11 9 12 -5 15 -2 10 9 -4
11 -2 14 6 9 8 -5 9 -2 4 11 -5 14 -3 15 6 7 12 -10 35 4 40 25 2 5 9 7 17 5
9 -2 12 2 7 13 -3 9 -2 14 2 11 4 -2 14 -1 22 4 8 5 19 5 25 0 8 -7 11 -3 10
13 -3 33 14 51 33 35 13 -10 14 -10 8 0 -4 6 -3 12 3 12 5 0 12 9 16 19 3 11
21 26 40 36 36 17 48 29 18 18 -10 -4 -4 5 12 19 22 19 33 23 43 16 9 -8 11
-7 6 6 -5 13 -2 15 12 9 16 -6 17 -5 6 9 -11 14 -10 16 10 11 18 -4 20 -3 8 6
-13 9 -12 11 3 11 11 0 15 4 11 12 -5 8 -2 9 9 5 10 -4 16 -2 14 5 -1 6 4 13
12 16 8 2 11 0 7 -6 -3 -6 -2 -13 3 -16 10 -7 9 13 -2 31 -5 8 1 10 18 8 18
-2 23 1 15 10 -10 12 5 35 25 35 5 0 1 -7 -9 -15 -11 -8 -15 -15 -9 -15 7 0
15 5 18 10 4 6 11 7 17 4 6 -4 5 3 -2 16 -10 18 -9 21 1 15 9 -6 11 -4 6 7 -4
12 0 15 17 14 13 -2 29 -6 37 -10 8 -4 6 -1 -3 7 -23 18 -23 31 -2 23 15 -6
15 -4 3 11 -8 9 -9 14 -4 11 11 -6 37 16 29 26 -2 3 -1 4 3 1 3 -3 13 1 22 7
13 10 14 10 4 -2 -7 -8 -13 -18 -13 -24 0 -5 6 -1 14 10 11 15 12 22 3 33 -9
12 -9 13 1 7 6 -4 12 -2 12 3 0 6 4 11 10 11 5 0 7 -8 4 -17 -5 -15 -4 -15 4
-3 6 8 8 18 6 22 -3 4 0 8 7 8 8 0 7 5 -2 17 -13 15 -12 15 10 4 13 -7 21 -8
17 -3 -3 6 -2 13 3 16 11 7 23 -22 15 -37 -5 -9 -3 -8 6 0 11 10 10 17 -5 39
-9 14 -13 24 -9 21 11 -6 35 18 27 27 -4 3 1 6 11 6 11 0 15 -5 10 -12 -4 -8
-2 -8 7 1 10 10 11 15 2 18 -7 3 -3 12 10 27 12 12 25 21 28 19 4 -1 9 4 12
12 4 8 1 13 -6 11 -7 -1 -9 -1 -4 1 4 3 4 9 1 15 -4 6 3 5 16 -2 20 -11 21
-10 9 12 -11 21 -11 22 5 9 9 -8 16 -10 15 -5 -4 21 2 26 19 13 15 -13 16 -12
3 3 -7 10 -17 15 -22 12 -16 -10 -9 9 8 21 15 11 16 17 4 41 l-13 29 22 -20
22 -20 -20 36 c-16 28 -18 40 -9 49 9 10 9 11 0 6 -8 -4 -13 -2 -13 6 0 10 -3
9 -11 -2 -8 -12 -9 -10 -4 7 4 15 0 25 -12 32 -14 8 -15 11 -3 11 9 0 5 6 -10
15 -14 8 -20 14 -15 15 6 0 -3 9 -20 20 -16 11 -25 20 -19 20 5 0 16 -6 23
-12 9 -8 11 -9 7 -2 -3 7 -22 21 -42 33 -19 12 -32 17 -29 11 3 -6 -1 -7 -9
-4 -9 3 -16 11 -16 16 0 6 -6 6 -14 -1 -11 -9 -16 -9 -22 0 -4 7 -3 9 3 6 5
-3 10 0 10 7 0 11 -5 12 -25 3 -20 -9 -26 -9 -30 1 -2 6 -13 12 -23 12 -13 0
-18 -4 -13 -12 5 -7 3 -8 -6 -3 -18 11 -57 13 -73 3 -6 -4 -18 -1 -26 5 -12 9
-13 9 -7 0z m-254 -67 c0 -2 -8 -10 -17 -17 -16 -13 -17 -12 -4 4 13 16 21 21
21 13z m-719 -2213 c13 -16 12 -17 -3 -4 -10 7 -18 15 -18 17 0 8 8 3 21 -13z
m-3811 -1443 c0 -5 -2 -10 -4 -10 -3 0 -8 5 -11 10 -3 6 -1 10 4 10 6 0 11 -4
11 -10z m3721 -713 c-10 -9 -11 -8 -5 6 3 10 9 15 12 12 3 -3 0 -11 -7 -18z
m-3117 -393 c3 -8 2 -12 -4 -9 -6 3 -10 10 -10 16 0 14 7 11 14 -7z m2099 -57
c3 -8 -1 -14 -8 -14 -7 0 -11 6 -8 14 3 7 6 13 8 13 2 0 5 -6 8 -13z"/>
<path d="M1461 13823 c-1 -17 16 -25 25 -12 4 7 3 9 -4 5 -5 -3 -13 0 -15 6
-4 9 -6 10 -6 1z"/>
<path d="M6546 13718 c3 -5 10 -6 15 -3 13 9 11 12 -6 12 -8 0 -12 -4 -9 -9z"/>
<path d="M6400 13680 c-12 -7 -10 -9 7 -7 12 0 19 5 17 9 -6 10 -6 10 -24 -2z"/>
<path d="M6310 13601 c0 -6 4 -12 8 -15 5 -3 9 1 9 9 0 8 -4 15 -9 15 -4 0 -8
-4 -8 -9z"/>
<path d="M6470 13601 c0 -6 4 -13 10 -16 6 -3 7 1 4 9 -7 18 -14 21 -14 7z"/>
<path d="M6376 13542 c-3 -4 4 -9 15 -9 23 -2 25 3 4 10 -8 4 -16 3 -19 -1z"/>
<path d="M6246 13482 c-3 -5 1 -9 9 -9 8 0 12 4 9 9 -3 4 -7 8 -9 8 -2 0 -6
-4 -9 -8z"/>
<path d="M1750 13441 c0 -6 4 -13 10 -16 6 -3 7 1 4 9 -7 18 -14 21 -14 7z"/>
<path d="M6114 13395 c0 -13 3 -22 7 -19 8 4 6 30 -2 38 -3 3 -5 -5 -5 -19z"/>
<path d="M6195 13409 c-4 -6 -5 -12 -2 -15 2 -3 7 2 10 11 7 17 1 20 -8 4z"/>
<path d="M6154 13388 l-19 -23 23 19 c21 18 27 26 19 26 -2 0 -12 -10 -23 -22z"/>
<path d="M1710 13361 c0 -6 4 -12 8 -15 5 -3 9 1 9 9 0 8 -4 15 -9 15 -4 0 -8
-4 -8 -9z"/>
<path d="M6073 13305 c0 -8 4 -12 9 -9 5 3 6 10 3 15 -9 13 -12 11 -12 -6z"/>
<path d="M1735 13300 c-3 -5 -1 -10 4 -10 6 0 11 5 11 10 0 6 -2 10 -4 10 -3
0 -8 -4 -11 -10z"/>
<path d="M6090 13280 c0 -5 5 -10 11 -10 5 0 7 5 4 10 -3 6 -8 10 -11 10 -2 0
-4 -4 -4 -10z"/>
<path d="M1780 13266 c0 -2 8 -10 18 -17 15 -13 16 -12 3 4 -13 16 -21 21 -21
13z"/>
<path d="M5990 13256 c7 -7 13 -7 20 0 6 6 3 10 -10 10 -13 0 -16 -4 -10 -10z"/>
<path d="M5890 13225 c-7 -9 -8 -15 -2 -15 5 0 12 7 16 15 3 8 4 15 2 15 -2 0
-9 -7 -16 -15z"/>
<path d="M5993 13225 c0 -8 4 -12 9 -9 5 3 6 10 3 15 -9 13 -12 11 -12 -6z"/>
<path d="M910 13226 c0 -2 7 -7 16 -10 8 -3 12 -2 9 4 -6 10 -25 14 -25 6z"/>
<path d="M6056 13218 c3 -4 11 -5 19 -1 21 7 19 12 -4 10 -11 0 -18 -5 -15 -9z"/>
<path d="M6000 13200 c-9 -6 -10 -10 -3 -10 6 0 15 5 18 10 8 12 4 12 -15 0z"/>
<path d="M5875 13181 c-3 -5 -2 -12 3 -15 5 -3 9 1 9 9 0 17 -3 19 -12 6z"/>
<path d="M5837 13173 c-10 -9 -9 -23 1 -23 5 0 9 7 9 15 0 17 -1 18 -10 8z"/>
<path d="M5919 13153 c-13 -16 -12 -17 4 -4 16 13 21 21 13 21 -2 0 -10 -8
-17 -17z"/>
<path d="M5810 13140 c0 -5 5 -10 11 -10 5 0 7 5 4 10 -3 6 -8 10 -11 10 -2 0
-4 -4 -4 -10z"/>
<path d="M5875 13141 c-3 -5 -2 -12 3 -15 5 -3 9 1 9 9 0 17 -3 19 -12 6z"/>
<path d="M5755 13100 c3 -5 8 -10 11 -10 2 0 4 5 4 10 0 6 -5 10 -11 10 -5 0
-7 -4 -4 -10z"/>
<path d="M5854 13076 c1 -8 5 -18 8 -22 4 -3 5 1 4 10 -1 8 -5 18 -8 22 -4 3
-5 -1 -4 -10z"/>
<path d="M5790 13059 c0 -5 5 -7 10 -4 6 3 10 8 10 11 0 2 -4 4 -10 4 -5 0
-10 -5 -10 -11z"/>
<path d="M5715 13039 c-3 -4 2 -6 10 -5 21 3 28 13 10 13 -9 0 -18 -4 -20 -8z"/>
<path d="M5795 13001 c-3 -5 -2 -12 3 -15 5 -3 9 1 9 9 0 17 -3 19 -12 6z"/>
<path d="M5730 12979 c0 -5 5 -7 10 -4 6 3 10 8 10 11 0 2 -4 4 -10 4 -5 0
-10 -5 -10 -11z"/>
<path d="M5594 12926 c1 -8 5 -18 8 -22 4 -3 5 1 4 10 -1 8 -5 18 -8 22 -4 3
-5 -1 -4 -10z"/>
<path d="M5486 12882 c-3 -5 1 -9 9 -9 8 0 12 4 9 9 -3 4 -7 8 -9 8 -2 0 -6
-4 -9 -8z"/>
<path d="M1846 12861 c-4 -5 -2 -12 3 -15 5 -4 12 -2 15 3 4 5 2 12 -3 15 -5
4 -12 2 -15 -3z"/>
<path d="M5570 12859 c0 -5 5 -7 10 -4 6 3 10 8 10 11 0 2 -4 4 -10 4 -5 0
-10 -5 -10 -11z"/>
<path d="M5619 12868 c-5 -18 -6 -38 -1 -34 7 8 12 36 6 36 -2 0 -4 -1 -5 -2z"/>
<path d="M5520 12840 c-9 -6 -10 -10 -3 -10 6 0 15 5 18 10 8 12 4 12 -15 0z"/>
<path d="M5433 12813 c0 -9 4 -10 14 -2 7 6 13 12 13 14 0 1 -6 2 -13 2 -8 0
-14 -6 -14 -14z"/>
<path d="M5393 12755 c0 -8 4 -12 9 -9 5 3 6 10 3 15 -9 13 -12 11 -12 -6z"/>
<path d="M3376 12733 c-6 -14 -5 -15 5 -6 7 7 10 15 7 18 -3 3 -9 -2 -12 -12z"/>
<path d="M5356 12738 c3 -5 10 -6 15 -3 13 9 11 12 -6 12 -8 0 -12 -4 -9 -9z"/>
<path d="M5456 12742 c-3 -5 1 -9 9 -9 8 0 12 4 9 9 -3 4 -7 8 -9 8 -2 0 -6
-4 -9 -8z"/>
<path d="M5395 12700 c3 -5 8 -10 11 -10 2 0 4 5 4 10 0 6 -5 10 -11 10 -5 0
-7 -4 -4 -10z"/>
<path d="M5241 12691 c-8 -5 -9 -11 -3 -15 5 -3 12 1 16 9 6 17 6 18 -13 6z"/>
<path d="M5176 12593 c-6 -14 -5 -15 5 -6 7 7 10 15 7 18 -3 3 -9 -2 -12 -12z"/>
<path d="M5256 12578 c3 -5 10 -6 15 -3 13 9 11 12 -6 12 -8 0 -12 -4 -9 -9z"/>
<path d="M5120 12560 c-12 -7 -10 -9 7 -7 12 0 19 5 17 9 -6 10 -6 10 -24 -2z"/>
<path d="M5047 12553 c-3 -5 -1 -17 4 -28 6 -17 7 -16 6 8 -1 28 -3 32 -10 20z"/>
<path d="M5113 12525 c0 -8 4 -12 9 -9 5 3 6 10 3 15 -9 13 -12 11 -12 -6z"/>
<path d="M2776 12493 c-6 -14 -5 -15 5 -6 7 7 10 15 7 18 -3 3 -9 -2 -12 -12z"/>
<path d="M5130 12500 c0 -5 5 -10 11 -10 5 0 7 5 4 10 -3 6 -8 10 -11 10 -2 0
-4 -4 -4 -10z"/>
<path d="M2070 12490 c0 -5 5 -10 11 -10 5 0 7 5 4 10 -3 6 -8 10 -11 10 -2 0
-4 -4 -4 -10z"/>
<path d="M5050 12440 c0 -5 5 -10 11 -10 5 0 7 5 4 10 -3 6 -8 10 -11 10 -2 0
-4 -4 -4 -10z"/>
<path d="M4913 12406 c0 -15 22 -15 34 0 4 5 4 6 -1 2 -5 -4 -14 -3 -21 2 -8
7 -12 5 -12 -4z"/>
<path d="M4856 12358 c3 -5 10 -6 15 -3 13 9 11 12 -6 12 -8 0 -12 -4 -9 -9z"/>
<path d="M4856 12327 c3 -10 9 -15 12 -12 3 3 0 11 -7 18 -10 9 -11 8 -5 -6z"/>
<path d="M4790 12286 c0 -2 7 -7 16 -10 8 -3 12 -2 9 4 -6 10 -25 14 -25 6z"/>
<path d="M4730 12219 c0 -5 5 -7 10 -4 6 3 10 8 10 11 0 2 -4 4 -10 4 -5 0
-10 -5 -10 -11z"/>
<path d="M4629 12197 c6 -8 9 -16 6 -19 -3 -2 2 -5 10 -5 13 0 13 3 -2 19 -19
21 -31 25 -14 5z"/>
<path d="M4670 12206 c0 -2 7 -7 16 -10 8 -3 12 -2 9 4 -6 10 -25 14 -25 6z"/>
<path d="M4735 12191 c-3 -5 -2 -12 3 -15 5 -3 9 1 9 9 0 17 -3 19 -12 6z"/>
<path d="M4679 12153 c-13 -16 -12 -17 4 -4 16 13 21 21 13 21 -2 0 -10 -8
-17 -17z"/>
<path d="M1018 11813 c7 -3 16 -2 19 1 4 3 -2 6 -13 5 -11 0 -14 -3 -6 -6z"/>
<path d="M19395 11729 c-4 -6 -5 -12 -2 -15 2 -3 7 2 10 11 7 17 1 20 -8 4z"/>
<path d="M5106 11602 c-3 -5 1 -15 8 -21 11 -10 14 -9 12 3 -3 21 -13 29 -20
18z"/>
<path d="M5130 11420 c0 -5 5 -10 11 -10 5 0 7 5 4 10 -3 6 -8 10 -11 10 -2 0
-4 -4 -4 -10z"/>
<path d="M5065 11411 c-3 -5 -1 -12 4 -15 5 -3 11 1 15 9 6 16 -9 21 -19 6z"/>
<path d="M5096 11393 c-6 -14 -5 -15 5 -6 7 7 10 15 7 18 -3 3 -9 -2 -12 -12z"/>
<path d="M5054 11282 c4 -3 14 -7 22 -8 9 -1 13 0 10 4 -4 3 -14 7 -22 8 -9 1
-13 0 -10 -4z"/>
<path d="M5130 11286 c0 -2 7 -7 16 -10 8 -3 12 -2 9 4 -6 10 -25 14 -25 6z"/>
<path d="M5406 10702 c-3 -5 1 -9 9 -9 8 0 12 4 9 9 -3 4 -7 8 -9 8 -2 0 -6
-4 -9 -8z"/>
<path d="M5354 10646 c3 -24 22 -40 31 -27 3 7 1 10 -6 9 -7 -2 -13 2 -14 9 0
6 -3 14 -7 18 -3 4 -5 0 -4 -9z"/>
<path d="M5325 10590 c-3 -5 -1 -10 4 -10 6 0 11 5 11 10 0 6 -2 10 -4 10 -3
0 -8 -4 -11 -10z"/>
<path d="M5306 10561 c-3 -5 0 -11 7 -14 8 -3 14 1 14 9 0 16 -13 19 -21 5z"/>
<path d="M5370 10539 c0 -5 5 -7 10 -4 6 3 10 8 10 11 0 2 -4 4 -10 4 -5 0
-10 -5 -10 -11z"/>
<path d="M5375 10511 c-3 -5 -2 -12 3 -15 5 -3 9 1 9 9 0 17 -3 19 -12 6z"/>
<path d="M5320 10500 c-9 -6 -10 -10 -3 -10 6 0 15 5 18 10 8 12 4 12 -15 0z"/>
<path d="M5266 10482 c-2 -4 4 -8 14 -8 10 0 16 4 14 8 -3 4 -9 8 -14 8 -5 0
-11 -4 -14 -8z"/>
<path d="M5340 10421 c0 -6 4 -13 10 -16 6 -3 7 1 4 9 -7 18 -14 21 -14 7z"/>
<path d="M5435 10241 c-3 -5 -2 -12 3 -15 5 -3 9 1 9 9 0 17 -3 19 -12 6z"/>
<path d="M5446 10178 c3 -5 10 -6 15 -3 13 9 11 12 -6 12 -8 0 -12 -4 -9 -9z"/>
<path d="M5430 10150 c0 -5 5 -10 11 -10 5 0 7 5 4 10 -3 6 -8 10 -11 10 -2 0
-4 -4 -4 -10z"/>
<path d="M5420 10106 c0 -2 8 -10 18 -17 15 -13 16 -12 3 4 -13 16 -21 21 -21
13z"/>
<path d="M5527 10079 c7 -7 15 -10 18 -7 3 3 -2 9 -12 12 -14 6 -15 5 -6 -5z"/>
<path d="M5455 10040 c-3 -5 -1 -10 4 -10 6 0 11 5 11 10 0 6 -2 10 -4 10 -3
0 -8 -4 -11 -10z"/>
<path d="M5395 10001 c-3 -5 -2 -12 3 -15 5 -3 9 1 9 9 0 17 -3 19 -12 6z"/>
<path d="M5370 9959 c0 -5 5 -7 10 -4 6 3 10 8 10 11 0 2 -4 4 -10 4 -5 0 -10
-5 -10 -11z"/>
<path d="M5470 9960 c0 -5 5 -10 11 -10 5 0 7 5 4 10 -3 6 -8 10 -11 10 -2 0
-4 -4 -4 -10z"/>
<path d="M5315 9949 c-4 -6 -5 -12 -2 -15 2 -3 7 2 10 11 7 17 1 20 -8 4z"/>
<path d="M5315 9900 c6 -30 16 -40 12 -12 -2 12 -6 24 -10 28 -3 4 -4 -4 -2
-16z"/>
<path d="M5256 9862 c-3 -5 1 -9 9 -9 8 0 12 4 9 9 -3 4 -7 8 -9 8 -2 0 -6 -4
-9 -8z"/>
<path d="M5335 9821 c-3 -5 -2 -12 3 -15 5 -3 9 1 9 9 0 17 -3 19 -12 6z"/>
<path d="M5250 9779 c0 -5 5 -7 10 -4 6 3 10 8 10 11 0 2 -4 4 -10 4 -5 0 -10
-5 -10 -11z"/>
<path d="M1474 9760 c0 -13 4 -16 10 -10 7 7 7 13 0 20 -6 6 -10 3 -10 -10z"/>
<path d="M5195 9769 c-4 -6 -5 -12 -2 -15 2 -3 7 2 10 11 7 17 1 20 -8 4z"/>
<path d="M5155 9760 c3 -5 8 -10 11 -10 2 0 4 5 4 10 0 6 -5 10 -11 10 -5 0
-7 -4 -4 -10z"/>
<path d="M5107 9749 c7 -7 15 -10 18 -7 3 3 -2 9 -12 12 -14 6 -15 5 -6 -5z"/>
<path d="M5210 9740 c0 -5 5 -10 11 -10 5 0 7 5 4 10 -3 6 -8 10 -11 10 -2 0
-4 -4 -4 -10z"/>
<path d="M5099 9713 c-13 -17 -13 -17 6 -3 11 8 22 16 24 17 2 2 0 3 -6 3 -6
0 -17 -8 -24 -17z"/>
<path d="M5170 9719 c0 -5 5 -7 10 -4 6 3 10 8 10 11 0 2 -4 4 -10 4 -5 0 -10
-5 -10 -11z"/>
<path d="M4986 9642 c-2 -4 4 -8 14 -8 10 0 16 4 14 8 -3 4 -9 8 -14 8 -5 0
-11 -4 -14 -8z"/>
<path d="M5095 9621 c-3 -5 -2 -12 3 -15 5 -3 9 1 9 9 0 17 -3 19 -12 6z"/>
<path d="M4975 9611 c-3 -5 -2 -12 3 -15 5 -3 9 1 9 9 0 17 -3 19 -12 6z"/>
<path d="M4935 9601 c-3 -5 -2 -12 3 -15 5 -3 9 1 9 9 0 17 -3 19 -12 6z"/>
<path d="M5013 9585 c0 -8 4 -12 9 -9 5 3 6 10 3 15 -9 13 -12 11 -12 -6z"/>
<path d="M4896 9558 c3 -5 10 -6 15 -3 13 9 11 12 -6 12 -8 0 -12 -4 -9 -9z"/>
<path d="M4833 9547 c0 -8 6 -14 14 -14 9 0 10 4 2 14 -6 7 -12 13 -14 13 -1
0 -2 -6 -2 -13z"/>
<path d="M5073 9525 c0 -8 4 -12 9 -9 5 3 6 10 3 15 -9 13 -12 11 -12 -6z"/>
<path d="M4775 9460 c3 -5 8 -10 11 -10 2 0 4 5 4 10 0 6 -5 10 -11 10 -5 0
-7 -4 -4 -10z"/>
<path d="M4596 9367 c3 -10 9 -15 12 -12 3 3 0 11 -7 18 -10 9 -11 8 -5 -6z"/>
<path d="M4576 9342 c-2 -4 -1 -14 4 -22 7 -11 9 -9 7 8 -1 24 -3 26 -11 14z"/>
<path d="M4476 9327 c3 -10 9 -15 12 -12 3 3 0 11 -7 18 -10 9 -11 8 -5 -6z"/>
<path d="M4310 9318 c0 -6 3 -8 7 -5 3 4 13 1 22 -6 14 -11 14 -10 2 6 -15 20
-31 22 -31 5z"/>
<path d="M4195 9289 c-4 -6 -5 -12 -2 -15 2 -3 7 2 10 11 7 17 1 20 -8 4z"/>
<path d="M4330 9259 c0 -5 5 -7 10 -4 6 3 10 8 10 11 0 2 -4 4 -10 4 -5 0 -10
-5 -10 -11z"/>
<path d="M4374 9262 c4 -3 14 -7 22 -8 9 -1 13 0 10 4 -4 3 -14 7 -22 8 -9 1
-13 0 -10 -4z"/>
<path d="M4133 9234 c0 -9 5 -10 11 -5 6 5 19 7 29 5 11 -1 16 0 12 4 -12 12
-52 9 -52 -4z"/>
<path d="M4236 9233 c-6 -14 -5 -15 5 -6 7 7 10 15 7 18 -3 3 -9 -2 -12 -12z"/>
<path d="M4475 9240 c3 -5 8 -10 11 -10 2 0 4 5 4 10 0 6 -5 10 -11 10 -5 0
-7 -4 -4 -10z"/>
<path d="M1830 9200 c0 -5 5 -10 11 -10 5 0 7 5 4 10 -3 6 -8 10 -11 10 -2 0
-4 -4 -4 -10z"/>
<path d="M4006 9202 c-3 -5 1 -9 9 -9 8 0 12 4 9 9 -3 4 -7 8 -9 8 -2 0 -6 -4
-9 -8z"/>
<path d="M4137 9195 c-4 -8 -3 -16 1 -19 4 -3 9 4 9 15 2 23 -3 25 -10 4z"/>
<path d="M4276 9202 c-3 -5 1 -9 9 -9 8 0 12 4 9 9 -3 4 -7 8 -9 8 -2 0 -6 -4
-9 -8z"/>
<path d="M3889 9163 c-13 -16 -12 -17 4 -4 9 7 17 15 17 17 0 8 -8 3 -21 -13z"/>
<path d="M3913 9145 c0 -8 4 -12 9 -9 5 3 6 10 3 15 -9 13 -12 11 -12 -6z"/>
<path d="M3826 9138 c3 -5 10 -6 15 -3 13 9 11 12 -6 12 -8 0 -12 -4 -9 -9z"/>
<path d="M3867 9139 c7 -7 15 -10 18 -7 3 3 -2 9 -12 12 -14 6 -15 5 -6 -5z"/>
<path d="M4035 9140 c3 -5 8 -10 11 -10 2 0 4 5 4 10 0 6 -5 10 -11 10 -5 0
-7 -4 -4 -10z"/>
<path d="M3955 9101 c-3 -5 -2 -12 3 -15 5 -3 9 1 9 9 0 17 -3 19 -12 6z"/>
<path d="M2120 9091 c0 -6 4 -13 10 -16 6 -3 7 1 4 9 -7 18 -14 21 -14 7z"/>
<path d="M3544 9070 c0 -9 5 -17 11 -17 6 0 11 8 11 17 0 9 -5 17 -11 17 -6 0
-11 -8 -11 -17z"/>
<path d="M3630 9081 c0 -6 4 -13 10 -16 6 -3 7 1 4 9 -7 18 -14 21 -14 7z"/>
<path d="M3773 9071 c0 -11 5 -18 9 -15 4 3 5 11 1 19 -7 21 -12 19 -10 -4z"/>
<path d="M2170 9070 c0 -5 5 -10 11 -10 5 0 7 5 4 10 -3 6 -8 10 -11 10 -2 0
-4 -4 -4 -10z"/>
<path d="M3443 9049 c9 -6 14 -15 11 -21 -4 -7 -2 -8 5 -4 14 9 -3 36 -23 36
-6 0 -3 -5 7 -11z"/>
<path d="M3490 9056 c0 -2 8 -10 18 -17 15 -13 16 -12 3 4 -13 16 -21 21 -21
13z"/>
<path d="M3133 8985 c0 -7 6 -11 14 -8 7 3 13 6 13 8 0 2 -6 5 -13 8 -8 3 -14
-1 -14 -8z"/>
<path d="M3495 8981 c-3 -5 -2 -12 3 -15 5 -3 9 1 9 9 0 17 -3 19 -12 6z"/>
<path d="M2935 8970 c3 -5 8 -10 11 -10 2 0 4 5 4 10 0 6 -5 10 -11 10 -5 0
-7 -4 -4 -10z"/>
<path d="M2987 8963 c3 -7 6 -13 8 -13 2 0 5 6 8 13 3 8 -1 14 -8 14 -7 0 -11
-6 -8 -14z"/>
<path d="M3141 8956 c-9 -11 -9 -16 1 -22 7 -4 10 -4 6 1 -4 4 -3 14 3 22 6 7
9 13 6 13 -2 0 -10 -6 -16 -14z"/>
<path d="M3295 8951 c-3 -5 -2 -12 3 -15 5 -3 9 1 9 9 0 17 -3 19 -12 6z"/>
<path d="M3390 8940 c0 -5 5 -10 11 -10 5 0 7 5 4 10 -3 6 -8 10 -11 10 -2 0
-4 -4 -4 -10z"/>
<path d="M2630 8921 c0 -6 4 -13 10 -16 6 -3 7 1 4 9 -7 18 -14 21 -14 7z"/>
<path d="M2735 8911 c-3 -5 -2 -12 3 -15 5 -3 9 1 9 9 0 17 -3 19 -12 6z"/>
<path d="M3013 8905 c0 -8 4 -12 9 -9 5 3 6 10 3 15 -9 13 -12 11 -12 -6z"/>
<path d="M2834 8902 c4 -3 14 -7 22 -8 9 -1 13 0 10 4 -4 3 -14 7 -22 8 -9 1
-13 0 -10 -4z"/>
<path d="M3053 8895 c0 -8 4 -12 9 -9 5 3 6 10 3 15 -9 13 -12 11 -12 -6z"/>
<path d="M6600 8559 c0 -5 5 -7 10 -4 6 3 10 8 10 11 0 2 -4 4 -10 4 -5 0 -10
-5 -10 -11z"/>
<path d="M6618 8483 c7 -3 16 -2 19 1 4 3 -2 6 -13 5 -11 0 -14 -3 -6 -6z"/>
<path d="M19496 8233 c-6 -14 -5 -15 5 -6 7 7 10 15 7 18 -3 3 -9 -2 -12 -12z"/>
<path d="M19365 7780 c-3 -6 1 -7 9 -4 18 7 21 14 7 14 -6 0 -13 -4 -16 -10z"/>
<path d="M17179 4623 c-13 -16 -12 -17 4 -4 16 13 21 21 13 21 -2 0 -10 -8
-17 -17z"/>
<path d="M10156 3887 c3 -10 9 -15 12 -12 3 3 0 11 -7 18 -10 9 -11 8 -5 -6z"/>
<path d="M10270 3830 c0 -5 5 -10 11 -10 5 0 7 5 4 10 -3 6 -8 10 -11 10 -2 0
-4 -4 -4 -10z"/>
</g>
</svg>
