<?xml version="1.0" encoding="utf-8"?>
<!-- Generator: Adobe Illustrator 23.0.4, SVG Export Plug-In . SVG Version: 6.00 Build 0)  -->
<svg version="1.1" id="Layer_1" xmlns="http://www.w3.org/2000/svg" xmlns:xlink="http://www.w3.org/1999/xlink" x="0px" y="0px"
	 viewBox="0 0 193.7 193.7" style="enable-background:new 0 0 193.7 193.7;" xml:space="preserve">
<style type="text/css">
	.st0{fill:#FFF200;}
	.st1{fill:#231F20;}
</style>
<title>HeadImg</title>
<desc>Created with Sketch.</desc>
<path class="st0" d="M96.8,193.7c53.4,0,96.8-43.4,96.8-96.8S150.3,0,96.8,0S0,43.4,0,96.8S43.4,193.7,96.8,193.7"/>
<path class="st1" d="M93.5,176.6c47.8,0,86.6-38.8,86.6-86.6S141.3,3.5,93.5,3.5S6.9,42.3,6.9,90S45.7,176.6,93.5,176.6"/>
<g>
	<path class="st0" d="M58.4,82.5c-2.5,7.2-6,10.1-12.7,12.8c1.2,6.8,3,13.4,5.7,19.7l-1.2,1.6l-1.9-2.3l-1,1.3l-2-2l-0.6,1.8
		l-1.9-2.1l-0.6,1.7l-1-1.4l-1.1-0.2l-0.7-1.1l-3.5-1.2c-1-2.7-1.9-5.5-2.8-8.2c-1.4,3.8-2.8,7.6-4,11.5l-1.3,0.7l-0.5-3.1l-3.3,2
		l-0.4-2.7l-1.2,0.9l-0.2-0.9l-1.2,1.7l-0.9-1.6l0.1-1.2L20,110l-1.7,2.4l-2.1-3.5c3.4-11.7,7.6-23.3,12.5-34.4l-1.4-0.6l2.3-2.4
		l-1.3-1.4l3.3-1l-1.3-1.3l1.8-1l-1.7-2c4.3-1.2,8.8-1.9,13.2-1.9c5.8,0,11.3,0.9,13.4,7.2c1.6,1.9,2.4,4.4,2.4,6.9
		C59.4,78.8,59,80.7,58.4,82.5z M43.3,64.4c-3.5,0-7,0.5-10.3,1.4l1.2,1.3l-1.4,1.1l2.1,1.6l-4.1,1.2l0.6,0.8l-1.6,1.7l2.1,0.8
		l-2.1,1.4c-4.8,10.8-9,21.9-12.1,33.3l0.6,1l2.5-3.9l0.5,2.6l1.4-1.2l0.6,2.4l1.3-1.1l0.5,3.2l0.8-0.5c1.8-5.8,3.9-11.3,6.2-17
		c1.2,5.3,3,10.4,4.9,15.5l1.3,0.4l0.2-2.7l3.1,4.2l0.6-1.8l1.4,2l1-1.8l2.5,3.1l0.9-1.2c-2.7-6.4-4.5-13-5.7-19.8
		c6.8-2.9,10.3-5.7,12.8-12.8c0.6-1.7,1-3.5,1-5.4C56.2,65.9,50.2,64.4,43.3,64.4z M44.9,79c-1.8,3.5-4.7,5.1-8.6,5.1
		c1.5-3.6,2.9-7.3,5-10.6c0.6-0.1,1.2-0.2,1.7-0.2c1.6,0,2.9,0.6,2.9,2.4C45.9,76.8,45.5,78,44.9,79z"/>
	<path class="st0" d="M80.8,68.6c-3.1,6.4-5.6,12.9-8.2,19.6c-3.4,8.8-6.8,17.7-9.4,26.9l-1.8,0.5l-0.2-2.4l-0.1,0.1l-1.2,1.2
		l-0.1-0.8l-2.7,1.2l0.1-1.8l-1.3,1.2l-0.1-2l-2.3,1.8l-0.4-3.1l-1.3,1.6l-2.4-3.1c1.8-8.1,5-17,8-24.7c2.4-6.2,5-13,8.4-18.6
		l2.7-1.7l0.3,1.1l2.9-2.9l0.8,2.7l1.4-1.3l0.2,1.8c0.8-1.2,2-2.1,3.2-2.8l1.9,2.8l-2.3,4.9c0.8-1.2,1.7-2.3,2.9-3.1L80.8,68.6z
		 M77,65c-1.3,0.9-2.9,3.1-3.9,4.4l-0.3-2.5l-1.7,1.6L71,65.2l-2.8,3.2l-0.6-1.8L66.8,67c-3.3,5.6-5.9,12-8.2,18.1
		c-2.9,7.6-5.9,15.9-7.7,23.8l0.9,1.2l2.9-3.6l-0.2,4.6c1.1-0.8,1.8-2,2.5-3.2l0.1,2.9l1.3-1.2l0.2,2.7L60,112
		c2.4-8.7,5.6-17.1,8.8-25.5c2.7-7,5.4-13.9,8.7-20.7L77,65z"/>
	<path class="st0" d="M108.3,74.3l-0.2,1.2l-2.1-0.3L106,77l-2.8-1.2l0.9,2.9l-2,0.3l-1,1.4c-0.5-0.9-1.1-1.6-1.8-2.3l-1.1,1.5
		l-1.5-2.2c-3.1,0.3-5.3,3.6-6.6,6.1l13.4-0.6l-0.5,2.5l2.5-0.1l-0.9,1.6l2.3,1.7l-1.2,2.8h1.7l0.9,0.5c-2.8,6.8-4.7,12.8-10.3,17.9
		c-3.4,2.9-7.3,5.3-11.8,5.3c-2.8,0-6.9-0.9-9-2.8c-5.5-1.8-7.2-6.6-7.2-11.9c0-10,6.5-23.8,12.7-31.3c3.1-3.7,8.5-6.2,13.2-6.2
		c6.1,0,10.3,4.2,12.9,9.3h-0.1c0.5,0.6,0.9,1.2,1.2,1.9L108.3,74.3z M106.8,70.9c-2.3-4-5.8-6.6-10.5-6.6c-4.5,0-9.4,2.2-12.2,5.7
		c-6.1,7.3-12.4,20.9-12.4,30.5c0,4.3,1.2,8.6,5.6,10.3c2,0.8,4.2,1.3,6.3,1.3c4.5,0,8.4-2.3,11.6-5.3c5.6-5,7.5-10.8,10.2-17.5
		l-0.6-0.3h-2.7l1.2-2l-1.7,0.1l0.5-2.5l-11.6,0.5l-1,1.1l1.8,1.2l-1.4,0.9l2,1.3l-3.1,1l2.3,0.9l-1.7,1.3l0.9,0.7
		c1.3,0.2,2.7,0.2,4,0.2c-1.8,3.1-4.4,9-8.6,9c-3,0-4.2-3.1-4.2-5.7c0-4,4.2-13.5,6.4-17.1c1.6-2.5,3.6-5.5,6.9-5.5
		c1.8,0,3,1.4,3.9,2.8l0.9-1.2l2.3,0.2l-1.6-3.6l3,1.3l0.1-1.8l2.6,0.9l-0.3-1.7L106.8,70.9z M89.3,94.8l-2.7-2l1-0.8l-1.2-0.3
		c-0.9,2.5-2.2,5.5-2.2,8.2c0,0.3,0,0.8,0.1,1.1c0.3,0.1,0.6,0.2,0.9,0.2c2.9,0,5-3.8,6.2-6.1C90.8,94.9,90,94.9,89.3,94.8z"/>
	<path class="st0" d="M148.5,68.4c-3.2,6.5-5.7,13.3-8.1,20.1c-3,8.6-5.9,17-7.9,25.9l-0.9-1.4l-1.5,1.5l-1-1.7l-0.7,0.7l-0.6-1
		l-1.3,1l-0.2-2.1l-0.6-0.1l-1.8,2.1l-1.2-0.6l-0.2-2.2l-1.3,1.4l-2.8-1.6c1.1-4.7,2.5-9.3,4.1-13.8l-2.7,0.5
		c-2.1,5.5-4.1,10.9-5.6,16.6l-1.1,0.7l-0.5-2.7l-1.6,2.1l-0.8-1l-1.9,1.3l-0.9-2.1l-1.6,2.5l-1.3-1.6l-1.7,1l-1-2.1l-3.1,1.6
		c2.4-9.6,5.7-18.8,9.2-28c2.8-7.3,5.7-14.4,9.6-21.2l1.2,2.3l4.1-4.3l0.6,4l1.5-1.9l0.9,2.1l2.8-2.5l1,2.7
		c-0.7,1.2-1.3,2.3-1.9,3.5l0.5,1.2l2.8-2.5l0.2,0.6c-2.5,4.3-4.3,8.9-6.1,13.4l1.8-0.2c2.2-6.2,4.6-12.2,7.4-18.2l1,2.1l2.3-2.3
		l0.2,1.3l2.4-3.4l1.1,2.7l0.8-0.8l1,1.4l2.5-2.1l1,2.3l-1.6,3.5l0.7,1l2.5-2.2L148.5,68.4z M143,67.7l-0.9-1.2l-1.5,1.7l-0.5-2.9
		l-3.1,4.2l-0.2-2.1l-1.6,1.6l-0.6-1.1c-2.4,5.3-4.5,10.7-6.4,16.2c-2.7,0.2-5.4,0.8-8.1,1.3c2.4-6.4,4.6-12.8,8-18.8v-0.1l-2.8,2.5
		l-0.7-1.8l-2.5,3.2l-0.1-5.2l-3.6,3.8l-0.9-1.7c-3.4,6-5.9,12.4-8.3,18.8c-3.1,8.1-6,16.3-8.2,24.7l1.6-0.9l0.5,1.1l2.3-3.8
		l0.3,3.4l1.5-1.4l1,1.3l1.7-2.4l0.5,2.9l0.6-0.4c1.5-5.7,3.6-11.2,5.7-16.7c2.8-0.5,5.7-1,8.6-1.2c-1.7,5.7-4,11.1-5.3,17l0.9,0.5
		l2.6-2.9l0.3,2.8l1.1-0.9l0.6,1l1.9-2l0.2,2.4l1.1-0.8l0.7,1c2-8.6,4.8-16.9,7.7-25.2c2.4-6.7,4.8-13.3,7.9-19.7L143,67.7z"/>
	<path class="st0" d="M174.8,70.2l-2.5,1.4l1,1.5l-1.8,1.5l0.8,1.9l-6.6,0.5c-5.9,12-10.4,25.1-13.9,37.9l-1.8,0.5l-0.2-2.4
		l-0.1,0.1l-1.2,1l-0.1-0.7l-3.3,1.3l-0.6-3.1l-2.8,2.4l-0.6-3.1l-1.3,1.4l-1.8-3.4c3.5-10.4,7.2-20.7,11.5-30.9h-0.9l-0.2-1.8
		l-3.7,0.2l-0.6-3.5l1.8-1l-1.9-0.7l1.4-2.8l1.4-0.3l-0.3-3.6c8-0.8,15.9-1.4,23.9-1.6l2,2.9l-0.4,0.3l2.7,0.9l-1.4,0.8l0.5,0.7
		l-1.3,0.9L174.8,70.2z M171.1,67.4l-2.2-0.7l1.5-1.1l-0.8-1.1c-7.3,0.2-14.4,0.6-21.6,1.4l0.1,1.1l3.4,1.6l-5.1,1.2l-0.4,0.8
		l3.4,1.4l-3.8,1.9l0.2,1.2l6.6-0.2c-5.3,10.9-9.2,22.6-13,34.1l0.6,1l2.4-2.6v3.9l1.6-1.1l1.4-2.4l0.3,2.9l1.3-1.1l0.3,2.7l1.3-0.3
		c3.6-12.9,8.1-26,13.9-38l6.5-0.5l-0.7-1.7l1.8-1.5l-1-1.5L171.1,67.4z"/>
</g>
</svg>
