<?xml version="1.0" encoding="UTF-8"?>
<svg width="328px" height="174px" viewBox="0 0 328 174" version="1.1" xmlns="http://www.w3.org/2000/svg" xmlns:xlink="http://www.w3.org/1999/xlink">
    <!-- Generator: Sketch 50.2 (55047) - http://www.bohemiancoding.com/sketch -->
    <title>HeadImg</title>
    <desc>Created with Sketch.</desc>
    <defs></defs>
    <g id="Page-1" stroke="none" stroke-width="1" fill="none" fill-rule="evenodd">
        <g id="Desktop-Copy" transform="translate(-344.000000, -154.000000)">
            <g id="HeadImg" transform="translate(346.000000, 157.000000)">
                <path d="M195.577982,42.3716814 C195.577982,49.3512866 179.989235,55.0088496 160.759174,55.0088496 C141.529114,55.0088496 125.940367,49.3512866 125.940367,42.3716814 C125.940367,35.3920762 141.529114,29.7345133 160.759174,29.7345133 C179.989235,29.7345133 195.577982,35.3920762 195.577982,42.3716814 Z" id="Stroke-1" stroke="#FBF301" stroke-width="5"></path>
                <path d="M195.577982,134.548673 C195.577982,141.528278 179.989235,147.185841 160.759174,147.185841 C141.529114,147.185841 125.940367,141.528278 125.940367,134.548673 C125.940367,127.569067 141.529114,121.911504 160.759174,121.911504 C179.989235,121.911504 195.577982,127.569067 195.577982,134.548673 Z" id="Stroke-3" stroke="#FBF301" stroke-width="5"></path>
                <path d="M125.940367,44.6017699 L125.940367,136.778761" id="Stroke-5" stroke="#FBF301" stroke-width="5"></path>
                <path d="M195.577982,44.6017699 L195.577982,136.778761" id="Stroke-7" stroke="#FBF301" stroke-width="5"></path>
                <path d="M151.12844,84 C151.12844,90.9785781 145.489163,96.6371681 138.534404,96.6371681 C131.579644,96.6371681 125.940367,90.9785781 125.940367,84 C125.940367,77.0214219 131.579644,71.3628319 138.534404,71.3628319 C145.489163,71.3628319 151.12844,77.0214219 151.12844,84" id="Fill-9" fill="#FBF301"></path>
                <path d="M151.12844,84 C151.12844,90.9785781 145.489163,96.6371681 138.534404,96.6371681 C131.579644,96.6371681 125.940367,90.9785781 125.940367,84 C125.940367,77.0214219 131.579644,71.3628319 138.534404,71.3628319 C145.489163,71.3628319 151.12844,77.0214219 151.12844,84 Z" id="Stroke-11" stroke="#FBF301" stroke-width="5"></path>
                <path d="M108.16055,60.9557522 L0,0" id="Stroke-13" stroke="#FBF301" stroke-width="5"></path>
                <path d="M108.16055,104.070796 L0,159.079646" id="Stroke-15" stroke="#FBF301" stroke-width="5"></path>
                <path d="M112.605505,71.3628319 L112.605505,95.1504425" id="Stroke-17" stroke="#FBF301" stroke-width="2"></path>
                <path d="M103.715596,66.9026549 L103.715596,98.1238938" id="Stroke-19" stroke="#FBF301" stroke-width="2.25"></path>
                <path d="M94.8256881,63.9292035 L94.8256881,104.070796" id="Stroke-21" stroke="#FBF301" stroke-width="2.5"></path>
                <path d="M85.9357798,57.9823009 L85.9357798,107.044248" id="Stroke-23" stroke="#FBF301" stroke-width="2.75"></path>
                <path d="M78.5275229,53.5221239 L78.5275229,111.504425" id="Stroke-25" stroke="#FBF301" stroke-width="3"></path>
                <path d="M68.1559633,47.5752212 L68.1559633,112.99115" id="Stroke-27" stroke="#FBF301" stroke-width="3.25"></path>
                <path d="M60.7477064,44.6017699 L60.7477064,118.938053" id="Stroke-29" stroke="#FBF301" stroke-width="3.5"></path>
                <path d="M51.8577982,38.6548673 L51.8577982,121.911504" id="Stroke-31" stroke="#FBF301" stroke-width="3.75"></path>
                <path d="M44.4495413,35.6814159 L44.4495413,126.371681" id="Stroke-33" stroke="#FBF301" stroke-width="4"></path>
                <path d="M34.0779817,29.7345133 L34.0779817,129.345133" id="Stroke-35" stroke="#FBF301" stroke-width="4.25"></path>
                <path d="M26.6697248,26.7610619 L26.6697248,133.80531" id="Stroke-37" stroke="#FBF301" stroke-width="4.5"></path>
                <path d="M17.7798165,20.8141593 L17.7798165,138.265487" id="Stroke-39" stroke="#FBF301" stroke-width="4.75"></path>
                <path d="M8.88990826,16.3539823 L8.88990826,141.238938" id="Stroke-41" stroke="#FBF301" stroke-width="5"></path>
                <path d="M211.876147,104.070796 C220.889758,110.215833 229.902441,120.981348 238.916981,126.92483 C247.929664,133.457693 256.943275,135.168521 265.955958,136.807707 C274.969569,138.453579 283.98318,140.018257 292.996792,146.268369 C302.009475,151.932922 311.023086,162.281954 320.036697,168" id="Stroke-43" stroke="#FBF301" stroke-width="5"></path>
                <path d="M210.394495,62.4424779 C219.407875,57.9647479 228.421254,57.7749027 237.434633,53.3093303 C246.448012,49.376821 255.461391,41.1685846 264.474771,32.9930802 C273.48815,24.8213166 282.501529,16.6738681 291.514908,12.8713514 C300.528287,8.53857722 309.541667,8.55167 318.555046,4.46017699" id="Stroke-45" stroke="#FBF301" stroke-width="5"></path>
                <path d="M211.876147,95.1504425 C206.743556,88.8465583 217.008738,78.6205259 211.876147,71.3628319" id="Stroke-47" stroke="#FBF301" stroke-width="2" stroke-linecap="round"></path>
                <path d="M221.408129,101.097345 C219.05823,89.4045614 224.119551,79.4184186 221.408129,68.3893805" id="Stroke-49" stroke="#FBF301" stroke-width="2.25" stroke-linecap="round"></path>
                <path d="M228.469592,107.044248 C230.435744,89.9381746 227.226487,80.2257149 228.469592,65.4159292" id="Stroke-51" stroke="#FBF301" stroke-width="2.5" stroke-linecap="round"></path>
                <path d="M238.305449,112.99115 C243.896674,91.1237437 233.676863,81.9768801 238.305449,63.9292035" id="Stroke-53" stroke="#FBF301" stroke-width="2.75" stroke-linecap="round"></path>
                <path d="M246.414681,120.424779 C254.653952,92.4629027 239.297167,83.3358276 246.414681,60.9557522" id="Stroke-55" stroke="#FBF301" stroke-width="3" stroke-linecap="round"></path>
                <path d="M253.855973,123.39823 C262.033631,90.7279593 246.667724,82.0961045 253.855973,56.4955752" id="Stroke-57" stroke="#FBF301" stroke-width="3.25" stroke-linecap="round"></path>
                <path d="M264.092753,123.39823 C277.665756,85.3108291 252.048425,76.956904 264.092753,47.5752212" id="Stroke-59" stroke="#FBF301" stroke-width="3.5" stroke-linecap="round"></path>
                <path d="M270.705962,130.831858 C286.951744,87.3212609 256.205764,79.2534343 270.705962,46.0884956" id="Stroke-61" stroke="#FBF301" stroke-width="3.75" stroke-linecap="round"></path>
                <path d="M279.61152,132.318584 C295.82772,83.3808642 265.078239,75.6058781 279.61152,38.6548673" id="Stroke-63" stroke="#FBF301" stroke-width="4" stroke-linecap="round"></path>
                <path d="M286.222631,133.80531 C305.11544,79.4367618 269.238063,71.9581535 286.222631,31.2212389" id="Stroke-65" stroke="#FBF301" stroke-width="4.25" stroke-linecap="round"></path>
                <path d="M295.796793,139.752212 C317.366657,79.950784 276.361501,72.771841 295.796793,28.2477876" id="Stroke-67" stroke="#FBF301" stroke-width="4.5" stroke-linecap="round"></path>
                <path d="M303.889402,145.699115 C328.136114,80.462932 282.0032,73.5873293 303.889402,25.2743363" id="Stroke-69" stroke="#FBF301" stroke-width="4.75" stroke-linecap="round"></path>
                <path d="M314.945423,148.672566 C341.868762,77.9990655 290.608096,71.4278427 314.945423,19.3274336" id="Stroke-71" stroke="#FBF301" stroke-width="5" stroke-linecap="round"></path>
            </g>
        </g>
    </g>
</svg>