<?xml version="1.0" encoding="utf-8"?>
<!-- Generator: Adobe Illustrator 22.1.0, SVG Export Plug-In . SVG Version: 6.00 Build 0)  -->
<svg version="1.1" id="Layer_1" zoomAndPan="disable"
	 xmlns="http://www.w3.org/2000/svg" xmlns:xlink="http://www.w3.org/1999/xlink" x="0px" y="0px" viewBox="0 0 1000 1000"
	 style="enable-background:new 0 0 1000 1000;" xml:space="preserve">
<style type="text/css">
	.st0{fill:none;}
</style>
<g>
	<path d="M-1164.8-19.7c16.9,33.9,5.3,41.1,28,71.4c22.7,30.3,39.2,17.9,61.9,48.2c22.7,30.3,6.2,42.7,29,73
		c22.7,30.3,39.2,17.9,61.9,48.2c22.7,30.3,6.2,42.7,29,73c22.7,30.3,39.2,17.9,61.9,48.2c22.7,30.3,6.2,42.7,29,73
		c22.7,30.3,39.2,17.9,61.9,48.2c22.7,30.3,6.2,42.7,29,73c22.7,30.3,39.2,17.9,61.9,48.2c22.7,30.3,6.2,42.7,29,73
		c22.7,30.3,39.2,17.9,61.9,48.2c22.7,30.3,6.2,42.7,29,73c22.7,30.3,39.2,17.9,61.9,48.2c22.7,30.3,6.2,42.7,29,73
		c22.7,30.3,39.2,17.9,61.9,48.2c22.7,30.3,1.2,51.2,30.8,74.8c11.8,9.5,21.6-18.3,36.7-18.3c15.1,0,15.1,20.6,30.3,20.6
		c15.1,0,15.1-20.6,30.3-20.6c15.1,0,15.1,20.6,30.3,20.6c15.1,0,15.1-20.6,30.3-20.6c15.1,0,15.1,20.6,30.3,20.6
		c15.1,0,15.1-20.6,30.3-20.6c15.1,0,15.1,20.6,30.3,20.6c15.1,0,15.1-20.6,30.3-20.6c15.1,0,15.1,20.6,30.3,20.6
		c15.1,0,15.1-20.6,30.3-20.6c15.2,0,15.2,20.6,30.3,20.6c15.2,0,15.2-20.6,30.3-20.6c15.2,0,15.2,20.6,30.3,20.6
		c15.2,0,15.2-20.6,30.3-20.6c15.2,0,15.2,20.6,30.3,20.6s27.9,7.9,21.1-5.7c-19.2-38.3-13.8-42.2-44.1-72.5
		c-30.3-30.3-44.9-15.7-75.2-46c-30.3-30.3-15.7-44.9-46-75.2c-30.3-30.3-44.9-15.7-75.2-46c-30.3-30.3-15.7-44.9-46-75.2
		c-30.3-30.3-44.9-15.7-75.2-46c-30.3-30.3-15.7-44.9-46-75.2c-30.3-30.3-44.9-15.7-75.2-46c-30.3-30.3-15.7-44.9-46-75.2
		c-30.3-30.3-44.9-15.7-75.2-46c-30.3-30.3-15.7-44.9-46-75.2c-30.3-30.3-44.9-15.7-75.2-46c-30.3-30.3-15.7-44.9-46-75.2
		c-30.3-30.3-44.9-15.7-75.2-46c-30.3-30.3-15.7-44.9-46-75.2c-30.3-30.3-44.9-15.7-75.2-46S-876.6,3.7-910-23.1
		c-5.9-4.7-14,18.3-21.6,18.3c-7.6,0-7.6-20.6-15.1-20.6c-7.6,0-7.6,20.6-15.1,20.6c-7.6,0-7.6-20.6-15.1-20.6
		c-7.6,0-7.6,20.6-15.1,20.6c-7.6,0-7.6-20.6-15.1-20.6c-7.6,0-7.6,20.6-15.1,20.6c-7.6,0-7.6-20.6-15.1-20.6
		c-7.6,0-7.6,20.6-15.1,20.6c-7.6,0-7.6-20.6-15.1-20.6c-7.6,0-7.6,20.6-15.1,20.6c-7.6,0-7.6-20.6-15.2-20.6
		c-7.6,0-7.6,20.6-15.1,20.6c-7.6,0-7.6-20.6-15.2-20.6c-7.6,0-7.6,20.6-15.2,20.6c-7.6,0-3.9-16.4-10.8-19.6
		C-1159.9-26.9-1168.2-26.5-1164.8-19.7z"/>
</g>
<g>
	<path d="M-908.2-21.3c25.7,34.3,14.8,43.8,45.1,74.1c30.3,30.3,44.9,15.7,75.2,46c30.3,30.3,15.7,44.9,46,75.2
		c30.3,30.3,44.9,15.7,75.2,46c30.3,30.3,15.7,44.9,46,75.2c30.3,30.3,44.9,15.7,75.2,46c30.3,30.3,15.7,44.9,46,75.2
		c30.3,30.3,44.9,15.7,75.2,46c30.3,30.3,15.7,44.9,46,75.2c30.3,30.3,44.9,15.7,75.2,46c30.3,30.3,15.7,44.9,46,75.2
		c30.3,30.3,44.9,15.7,75.2,46c30.3,30.3,15.7,44.9,46,75.2c30.3,30.3,44.9,15.7,75.2,46c30.3,30.3,15.7,44.9,46,75.2
		c30.3,30.3,44.9,15.7,75.2,46s13.4,49.2,46.9,75.9c5.9,4.7,14-18.3,21.6-18.3c7.6,0,7.6,20.6,15.1,20.6c7.6,0,7.6-20.6,15.1-20.6
		c7.6,0,7.6,20.6,15.1,20.6c7.6,0,7.6-20.6,15.1-20.6c7.6,0,7.6,20.6,15.1,20.6c7.6,0,7.6-20.6,15.1-20.6c7.6,0,7.6,20.6,15.1,20.6
		c7.6,0,7.6-20.6,15.1-20.6c7.6,0,7.6,20.6,15.1,20.6c7.6,0,7.6-20.6,15.1-20.6c7.6,0,7.6,20.6,15.2,20.6c7.6,0,7.6-20.6,15.1-20.6
		c7.6,0,7.6,20.6,15.2,20.6c7.6,0,7.6-20.6,15.2-20.6c7.6,0,7.6,20.6,15.2,20.6s11.5,1.9,6.9-4.1c-25.7-34.3-14.8-43.8-45.1-74.1
		c-30.3-30.3-44.9-15.7-75.2-46c-30.3-30.3-15.7-44.9-46-75.2c-30.3-30.3-44.9-15.7-75.2-46c-30.3-30.3-15.7-44.9-46-75.2
		c-30.3-30.3-44.9-15.7-75.2-46c-30.3-30.3-15.7-44.9-46-75.2c-30.3-30.3-44.9-15.7-75.2-46c-30.3-30.3-15.7-44.9-46-75.2
		c-30.3-30.3-44.9-15.7-75.2-46c-30.3-30.3-15.7-44.9-46-75.2c-30.3-30.3-44.9-15.7-75.2-46c-30.3-30.3-15.7-44.9-46-75.2
		c-30.3-30.3-44.9-15.7-75.2-46c-30.3-30.3-15.7-44.9-46-75.2c-30.3-30.3-44.9-15.7-75.2-46c-30.3-30.3-13.4-49.2-46.9-75.9
		c-5.9-4.7-14,18.3-21.6,18.3c-7.6,0-7.6-20.6-15.1-20.6c-7.6,0-7.6,20.6-15.1,20.6c-7.6,0-7.6-20.6-15.1-20.6
		c-7.6,0-7.6,20.6-15.1,20.6c-7.6,0-7.6-20.6-15.1-20.6c-7.6,0-7.6,20.6-15.1,20.6c-7.6,0-7.6-20.6-15.1-20.6
		c-7.6,0-7.6,20.6-15.1,20.6c-7.6,0-7.6-20.6-15.1-20.6c-7.6,0-7.6,20.6-15.1,20.6c-7.6,0-7.6-20.6-15.2-20.6
		c-7.6,0-7.6,20.6-15.1,20.6c-7.6,0-7.6-20.6-15.2-20.6c-7.6,0-7.6,20.6-15.2,20.6c-7.6,0-4-16.5-10.8-19.7
		C-903-27.2-912.8-27.3-908.2-21.3z"/>
</g>
<g>
	<path d="M-650.7-21.3c25.7,34.3,14.8,43.8,45.1,74.1c30.3,30.3,44.9,15.7,75.2,46c30.3,30.3,15.7,44.9,46,75.2
		c30.3,30.3,44.9,15.7,75.2,46c30.3,30.3,15.7,44.9,46,75.2c30.3,30.3,44.9,15.7,75.2,46c30.3,30.3,15.7,44.9,46,75.2
		c30.3,30.3,44.9,15.7,75.2,46c30.3,30.3,15.7,44.9,46,75.2c30.3,30.3,44.9,15.7,75.2,46c30.3,30.3,15.7,44.9,46,75.2
		c30.3,30.3,44.9,15.7,75.2,46c30.3,30.3,15.7,44.9,46,75.2c30.3,30.3,44.9,15.7,75.2,46c30.3,30.3,15.7,44.9,46,75.2
		c30.3,30.3,44.9,15.7,75.2,46c30.3,30.3,13.4,49.2,46.9,75.9c5.9,4.7,14-18.3,21.6-18.3c7.6,0,7.6,20.6,15.1,20.6
		c7.6,0,7.6-20.6,15.1-20.6c7.6,0,7.6,20.6,15.1,20.6c7.6,0,7.6-20.6,15.1-20.6c7.6,0,7.6,20.6,15.1,20.6c7.6,0,7.6-20.6,15.1-20.6
		c7.6,0,7.6,20.6,15.1,20.6c7.6,0,7.6-20.6,15.1-20.6c7.6,0,7.6,20.6,15.1,20.6c7.6,0,7.6-20.6,15.1-20.6c7.6,0,7.6,20.6,15.2,20.6
		c7.6,0,7.6-20.6,15.1-20.6c7.6,0,7.6,20.6,15.2,20.6c7.6,0,7.6-20.6,15.2-20.6c7.6,0,7.6,20.6,15.2,20.6c7.6,0,11.5,1.9,6.9-4.1
		c-25.7-34.3-14.8-43.8-45.1-74.1c-30.3-30.3-44.9-15.7-75.2-46c-30.3-30.3-15.7-44.9-46-75.2c-30.3-30.3-44.9-15.7-75.2-46
		c-30.3-30.3-15.7-44.9-46-75.2c-30.3-30.3-44.9-15.7-75.2-46c-30.3-30.3-15.7-44.9-46-75.2c-30.3-30.3-44.9-15.7-75.2-46
		c-30.3-30.3-15.7-44.9-46-75.2c-30.3-30.3-44.9-15.7-75.2-46c-30.3-30.3-15.7-44.9-46-75.2c-30.3-30.3-44.9-15.7-75.2-46
		c-30.3-30.3-15.7-44.9-46-75.2c-30.3-30.3-44.9-15.7-75.2-46c-30.3-30.3-15.7-44.9-46-75.2c-30.3-30.3-44.9-15.7-75.2-46
		c-30.3-30.3-13.4-49.2-46.9-75.9c-5.9-4.7-14,18.3-21.6,18.3c-7.6,0-7.6-20.6-15.1-20.6c-7.6,0-7.6,20.6-15.1,20.6
		c-7.6,0-7.6-20.6-15.1-20.6c-7.6,0-7.6,20.6-15.1,20.6c-7.6,0-7.6-20.6-15.1-20.6c-7.6,0-7.6,20.6-15.1,20.6
		c-7.6,0-7.6-20.6-15.1-20.6c-7.6,0-7.6,20.6-15.1,20.6c-7.6,0-7.6-20.6-15.1-20.6c-7.6,0-7.6,20.6-15.1,20.6
		c-7.6,0-7.6-20.6-15.2-20.6c-7.6,0-7.6,20.6-15.1,20.6c-7.6,0-7.6-20.6-15.2-20.6c-7.6,0-7.6,20.6-15.2,20.6
		c-7.6,0-4-16.5-10.8-19.7C-645.5-27.2-655.2-27.3-650.7-21.3z"/>
</g>
<g>
	<path d="M-393.1-21.3c25.7,34.3,14.8,43.8,45.1,74.1c30.3,30.3,44.9,15.7,75.2,46c30.3,30.3,15.7,44.9,46,75.2
		c30.3,30.3,44.9,15.7,75.2,46c30.3,30.3,15.7,44.9,46,75.2c30.3,30.3,44.9,15.7,75.2,46c30.3,30.3,15.7,44.9,46,75.2
		c30.3,30.3,44.9,15.7,75.2,46c30.3,30.3,15.7,44.9,46,75.2c30.3,30.3,44.9,15.7,75.2,46c30.3,30.3,15.7,44.9,46,75.2
		c30.3,30.3,44.9,15.7,75.2,46c30.3,30.3,15.7,44.9,46,75.2c30.3,30.3,44.9,15.7,75.2,46c30.3,30.3,15.7,44.9,46,75.2
		c30.3,30.3,44.9,15.7,75.2,46c30.3,30.3,13.4,49.2,46.9,75.9c5.9,4.7,14-18.3,21.6-18.3c7.6,0,7.6,20.6,15.1,20.6
		c7.6,0,7.6-20.6,15.1-20.6c7.6,0,7.6,20.6,15.1,20.6c7.6,0,7.6-20.6,15.1-20.6c7.6,0,7.6,20.6,15.1,20.6c7.6,0,7.6-20.6,15.1-20.6
		c7.6,0,7.6,20.6,15.1,20.6c7.6,0,7.6-20.6,15.1-20.6c7.6,0,7.6,20.6,15.1,20.6c7.6,0,7.6-20.6,15.1-20.6c7.6,0,7.6,20.6,15.2,20.6
		c7.6,0,7.6-20.6,15.1-20.6c7.6,0,7.6,20.6,15.2,20.6c7.6,0,7.6-20.6,15.2-20.6c7.6,0,7.6,20.6,15.2,20.6c7.6,0,11.5,1.9,6.9-4.1
		c-25.7-34.3-14.8-43.8-45.1-74.1c-30.3-30.3-44.9-15.7-75.2-46c-30.3-30.3-15.7-44.9-46-75.2c-30.3-30.3-44.9-15.7-75.2-46
		c-30.3-30.3-15.7-44.9-46-75.2c-30.3-30.3-44.9-15.7-75.2-46c-30.3-30.3-15.7-44.9-46-75.2c-30.3-30.3-44.9-15.7-75.2-46
		c-30.3-30.3-15.7-44.9-46-75.2c-30.3-30.3-44.9-15.7-75.2-46c-30.3-30.3-15.7-44.9-46-75.2c-30.3-30.3-44.9-15.7-75.2-46
		c-30.3-30.3-15.7-44.9-46-75.2c-30.3-30.3-44.9-15.7-75.2-46c-30.3-30.3-15.7-44.9-46-75.2c-30.3-30.3-44.9-15.7-75.2-46
		s-13.4-49.2-46.9-75.9c-5.9-4.7-14,18.3-21.6,18.3c-7.6,0-7.6-20.6-15.1-20.6c-7.6,0-7.6,20.6-15.1,20.6c-7.6,0-7.6-20.6-15.1-20.6
		c-7.6,0-7.6,20.6-15.1,20.6c-7.6,0-7.6-20.6-15.1-20.6c-7.6,0-7.6,20.6-15.1,20.6c-7.6,0-7.6-20.6-15.1-20.6
		c-7.6,0-7.6,20.6-15.1,20.6c-7.6,0-7.6-20.6-15.1-20.6c-7.6,0-7.6,20.6-15.1,20.6c-7.6,0-7.6-20.6-15.2-20.6
		c-7.6,0-7.6,20.6-15.1,20.6c-7.6,0-7.6-20.6-15.2-20.6c-7.6,0-7.6,20.6-15.2,20.6c-7.6,0-4-16.5-10.8-19.7
		C-387.9-27.2-397.7-27.3-393.1-21.3z"/>
</g>
<g>
	<path class="st0" d="M-135.6-21.3c25.7,34.3,14.8,43.8,45.1,74.1c30.3,30.3,44.9,15.7,75.2,46c30.3,30.3,15.7,44.9,46,75.2
		c30.3,30.3,44.9,15.7,75.2,46c30.3,30.3,15.7,44.9,46,75.2c30.3,30.3,44.9,15.7,75.2,46c30.3,30.3,15.7,44.9,46,75.2
		c30.3,30.3,44.9,15.7,75.2,46c30.3,30.3,15.7,44.9,46,75.2c30.3,30.3,44.9,15.7,75.2,46c30.3,30.3,15.7,44.9,46,75.2
		c30.3,30.3,44.9,15.7,75.2,46c30.3,30.3,15.7,44.9,46,75.2c30.3,30.3,44.9,15.7,75.2,46c30.3,30.3,15.7,44.9,46,75.2
		c30.3,30.3,44.9,15.7,75.2,46c30.3,30.3,13.4,49.2,46.9,75.9c5.9,4.7,14-18.3,21.6-18.3c7.6,0,7.6,20.6,15.1,20.6
		c7.6,0,7.6-20.6,15.1-20.6c7.6,0,7.6,20.6,15.1,20.6c7.6,0,7.6-20.6,15.1-20.6c7.6,0,7.6,20.6,15.1,20.6c7.6,0,7.6-20.6,15.1-20.6
		c7.6,0,7.6,20.6,15.1,20.6c7.6,0,7.6-20.6,15.1-20.6c7.6,0,7.6,20.6,15.1,20.6c7.6,0,7.6-20.6,15.1-20.6c7.6,0,7.6,20.6,15.2,20.6
		c7.6,0,7.6-20.6,15.1-20.6c7.6,0,7.6,20.6,15.2,20.6c7.6,0,7.6-20.6,15.2-20.6c7.6,0,7.6,20.6,15.2,20.6c7.6,0,11.5,1.9,6.9-4.1
		c-25.7-34.3-14.8-43.8-45.1-74.1c-30.3-30.3-44.9-15.7-75.2-46c-30.3-30.3-15.7-44.9-46-75.2c-30.3-30.3-44.9-15.7-75.2-46
		c-30.3-30.3-15.7-44.9-46-75.2c-30.3-30.3-44.9-15.7-75.2-46c-30.3-30.3-15.7-44.9-46-75.2c-30.3-30.3-44.9-15.7-75.2-46
		c-30.3-30.3-15.7-44.9-46-75.2c-30.3-30.3-44.9-15.7-75.2-46c-30.3-30.3-15.7-44.9-46-75.2c-30.3-30.3-44.9-15.7-75.2-46
		c-30.3-30.3-15.7-44.9-46-75.2c-30.3-30.3-44.9-15.7-75.2-46c-30.3-30.3-15.7-44.9-46-75.2c-30.3-30.3-44.9-15.7-75.2-46
		s-13.4-49.2-46.9-75.9c-5.9-4.7-14,18.3-21.6,18.3C91-4.8,91-25.4,83.4-25.4c-7.6,0-7.6,20.6-15.1,20.6c-7.6,0-7.6-20.6-15.1-20.6
		c-7.6,0-7.6,20.6-15.1,20.6c-7.6,0-7.6-20.6-15.1-20.6c-7.6,0-7.6,20.6-15.1,20.6c-7.6,0-7.6-20.6-15.1-20.6
		c-7.6,0-7.6,20.6-15.1,20.6c-7.6,0-7.6-20.6-15.1-20.6c-7.6,0-7.6,20.6-15.1,20.6c-7.6,0-7.6-20.6-15.2-20.6
		c-7.6,0-7.6,20.6-15.1,20.6c-7.6,0-7.6-20.6-15.2-20.6c-7.6,0-7.6,20.6-15.2,20.6c-7.6,0-4-16.5-10.8-19.7
		C-130.4-27.2-140.1-27.3-135.6-21.3z"/>
</g>
<g>
	<path d="M121.9-21.3C147.6,13,136.7,22.5,167,52.8c30.3,30.3,44.9,15.7,75.2,46c30.3,30.3,15.7,44.9,46,75.2
		c30.3,30.3,44.9,15.7,75.2,46c30.3,30.3,15.7,44.9,46,75.2c30.3,30.3,44.9,15.7,75.2,46c30.3,30.3,15.7,44.9,46,75.2
		c30.3,30.3,44.9,15.7,75.2,46c30.3,30.3,15.7,44.9,46,75.2c30.3,30.3,44.9,15.7,75.2,46c30.3,30.3,15.7,44.9,46,75.2
		c30.3,30.3,44.9,15.7,75.2,46c30.3,30.3,15.7,44.9,46,75.2c30.3,30.3,44.9,15.7,75.2,46c30.3,30.3,15.7,44.9,46,75.2
		c30.3,30.3,44.9,15.7,75.2,46s13.4,49.2,46.9,75.9c5.9,4.7,14-18.3,21.6-18.3c7.6,0,7.6,20.6,15.1,20.6c7.6,0,7.6-20.6,15.1-20.6
		c7.6,0,7.6,20.6,15.1,20.6c7.6,0,7.6-20.6,15.1-20.6s7.6,20.6,15.1,20.6c7.6,0,7.6-20.6,15.1-20.6c7.6,0,7.6,20.6,15.1,20.6
		c7.6,0,7.6-20.6,15.1-20.6c7.6,0,7.6,20.6,15.1,20.6c7.6,0,7.6-20.6,15.1-20.6c7.6,0,7.6,20.6,15.2,20.6c7.6,0,7.6-20.6,15.1-20.6
		c7.6,0,7.6,20.6,15.2,20.6c7.6,0,7.6-20.6,15.2-20.6c7.6,0,7.6,20.6,15.2,20.6c7.6,0,11.5,1.9,6.9-4.1
		c-25.7-34.3-14.8-43.8-45.1-74.1c-30.3-30.3-44.9-15.7-75.2-46c-30.3-30.3-15.7-44.9-46-75.2c-30.3-30.3-44.9-15.7-75.2-46
		c-30.3-30.3-15.7-44.9-46-75.2c-30.3-30.3-44.9-15.7-75.2-46c-30.3-30.3-15.7-44.9-46-75.2c-30.3-30.3-44.9-15.7-75.2-46
		c-30.3-30.3-15.7-44.9-46-75.2c-30.3-30.3-44.9-15.7-75.2-46c-30.3-30.3-15.7-44.9-46-75.2c-30.3-30.3-44.9-15.7-75.2-46
		c-30.3-30.3-15.7-44.9-46-75.2c-30.3-30.3-44.9-15.7-75.2-46c-30.3-30.3-15.7-44.9-46-75.2c-30.3-30.3-44.9-15.7-75.2-46
		c-30.3-30.3-13.4-49.2-46.9-75.9c-5.9-4.7-14,18.3-21.6,18.3c-7.6,0-7.6-20.6-15.1-20.6c-7.6,0-7.6,20.6-15.1,20.6
		c-7.6,0-7.6-20.6-15.1-20.6c-7.6,0-7.6,20.6-15.1,20.6c-7.6,0-7.6-20.6-15.1-20.6c-7.6,0-7.6,20.6-15.1,20.6
		c-7.6,0-7.6-20.6-15.1-20.6c-7.6,0-7.6,20.6-15.1,20.6c-7.6,0-7.6-20.6-15.1-20.6c-7.6,0-7.6,20.6-15.1,20.6
		c-7.6,0-7.6-20.6-15.2-20.6c-7.6,0-7.6,20.6-15.1,20.6c-7.6,0-7.6-20.6-15.2-20.6c-7.6,0-7.6,20.6-15.2,20.6
		c-7.6,0-4-16.5-10.8-19.7C127.1-27.2,117.4-27.3,121.9-21.3z"/>
</g>
<g>
	<path d="M379.5-21.3c25.7,34.3,14.8,43.8,45.1,74.1c30.3,30.3,44.9,15.7,75.2,46c30.3,30.3,15.7,44.9,46,75.2
		c30.3,30.3,44.9,15.7,75.2,46c30.3,30.3,15.7,44.9,46,75.2c30.3,30.3,44.9,15.7,75.2,46c30.3,30.3,15.7,44.9,46,75.2
		c30.3,30.3,44.9,15.7,75.2,46c30.3,30.3,15.7,44.9,46,75.2c30.3,30.3,44.9,15.7,75.2,46c30.3,30.3,15.7,44.9,46,75.2
		c30.3,30.3,44.9,15.7,75.2,46c30.3,30.3,15.7,44.9,46,75.2c30.3,30.3,44.9,15.7,75.2,46c30.3,30.3,15.7,44.9,46,75.2
		c30.3,30.3,44.9,15.7,75.2,46s13.4,49.2,46.9,75.9c5.9,4.7,14-18.3,21.6-18.3c7.6,0,7.6,20.6,15.1,20.6c7.6,0,7.6-20.6,15.1-20.6
		c7.6,0,7.6,20.6,15.1,20.6c7.6,0,7.6-20.6,15.1-20.6s7.6,20.6,15.1,20.6c7.6,0,7.6-20.6,15.1-20.6c7.6,0,7.6,20.6,15.1,20.6
		c7.6,0,7.6-20.6,15.1-20.6c7.6,0,7.6,20.6,15.1,20.6c7.6,0,7.6-20.6,15.1-20.6c7.6,0,7.6,20.6,15.2,20.6c7.6,0,7.6-20.6,15.1-20.6
		c7.6,0,7.6,20.6,15.2,20.6c7.6,0,7.6-20.6,15.2-20.6c7.6,0,7.6,20.6,15.2,20.6s11.5,1.9,6.9-4.1c-25.7-34.3-14.8-43.8-45.1-74.1
		c-30.3-30.3-44.9-15.7-75.2-46c-30.3-30.3-15.7-44.9-46-75.2c-30.3-30.3-44.9-15.7-75.2-46c-30.3-30.3-15.7-44.9-46-75.2
		c-30.3-30.3-44.9-15.7-75.2-46c-30.3-30.3-15.7-44.9-46-75.2c-30.3-30.3-44.9-15.7-75.2-46c-30.3-30.3-15.7-44.9-46-75.2
		c-30.3-30.3-44.9-15.7-75.2-46c-30.3-30.3-15.7-44.9-46-75.2c-30.3-30.3-44.9-15.7-75.2-46c-30.3-30.3-15.7-44.9-46-75.2
		c-30.3-30.3-44.9-15.7-75.2-46c-30.3-30.3-15.7-44.9-46-75.2c-30.3-30.3-44.9-15.7-75.2-46s-13.4-49.2-46.9-75.9
		c-5.9-4.7-14,18.3-21.6,18.3c-7.6,0-7.6-20.6-15.1-20.6c-7.6,0-7.6,20.6-15.1,20.6c-7.6,0-7.6-20.6-15.1-20.6
		c-7.6,0-7.6,20.6-15.1,20.6c-7.6,0-7.6-20.6-15.1-20.6c-7.6,0-7.6,20.6-15.1,20.6c-7.6,0-7.6-20.6-15.1-20.6
		c-7.6,0-7.6,20.6-15.1,20.6c-7.6,0-7.6-20.6-15.1-20.6c-7.6,0-7.6,20.6-15.1,20.6c-7.6,0-7.6-20.6-15.2-20.6
		c-7.6,0-7.6,20.6-15.1,20.6c-7.6,0-7.6-20.6-15.2-20.6c-7.6,0-7.6,20.6-15.2,20.6c-7.6,0-4-16.5-10.8-19.7
		C384.7-27.2,374.9-27.3,379.5-21.3z"/>
</g>
<g>
	<path d="M637-21.3c25.7,34.3,14.8,43.8,45.1,74.1c30.3,30.3,44.9,15.7,75.2,46c30.3,30.3,15.7,44.9,46,75.2
		c30.3,30.3,44.9,15.7,75.2,46c30.3,30.3,15.7,44.9,46,75.2c30.3,30.3,44.9,15.7,75.2,46c30.3,30.3,15.7,44.9,46,75.2
		c30.3,30.3,44.9,15.7,75.2,46c30.3,30.3,15.7,44.9,46,75.2c30.3,30.3,44.9,15.7,75.2,46c30.3,30.3,15.7,44.9,46,75.2
		c30.3,30.3,44.9,15.7,75.2,46c30.3,30.3,15.7,44.9,46,75.2c30.3,30.3,44.9,15.7,75.2,46c30.3,30.3,15.7,44.9,46,75.2
		c30.3,30.3,44.9,15.7,75.2,46c30.3,30.3,13.4,49.2,46.9,75.9c5.9,4.7,14-18.3,21.6-18.3c7.6,0,7.6,20.6,15.1,20.6
		c7.6,0,7.6-20.6,15.1-20.6c7.6,0,7.6,20.6,15.1,20.6c7.6,0,7.6-20.6,15.1-20.6c7.6,0,7.6,20.6,15.1,20.6c7.6,0,7.6-20.6,15.1-20.6
		c7.6,0,7.6,20.6,15.1,20.6c7.6,0,7.6-20.6,15.1-20.6c7.6,0,7.6,20.6,15.1,20.6c7.6,0,7.6-20.6,15.1-20.6c7.6,0,7.6,20.6,15.2,20.6
		c7.6,0,7.6-20.6,15.1-20.6c7.6,0,7.6,20.6,15.2,20.6c7.6,0,7.6-20.6,15.2-20.6c7.6,0,7.6,20.6,15.2,20.6s11.5,1.9,6.9-4.1
		c-25.7-34.3-14.8-43.8-45.1-74.1c-30.3-30.3-44.9-15.7-75.2-46c-30.3-30.3-15.7-44.9-46-75.2c-30.3-30.3-44.9-15.7-75.2-46
		c-30.3-30.3-15.7-44.9-46-75.2c-30.3-30.3-44.9-15.7-75.2-46c-30.3-30.3-15.7-44.9-46-75.2c-30.3-30.3-44.9-15.7-75.2-46
		c-30.3-30.3-15.7-44.9-46-75.2c-30.3-30.3-44.9-15.7-75.2-46c-30.3-30.3-15.7-44.9-46-75.2c-30.3-30.3-44.9-15.7-75.2-46
		c-30.3-30.3-15.7-44.9-46-75.2c-30.3-30.3-44.9-15.7-75.2-46c-30.3-30.3-15.7-44.9-46-75.2c-30.3-30.3-44.9-15.7-75.2-46
		s-13.4-49.2-46.9-75.9c-5.9-4.7-14,18.3-21.6,18.3c-7.6,0-7.6-20.6-15.1-20.6c-7.6,0-7.6,20.6-15.1,20.6c-7.6,0-7.6-20.6-15.1-20.6
		c-7.6,0-7.6,20.6-15.1,20.6c-7.6,0-7.6-20.6-15.1-20.6c-7.6,0-7.6,20.6-15.1,20.6c-7.6,0-7.6-20.6-15.1-20.6
		c-7.6,0-7.6,20.6-15.1,20.6c-7.6,0-7.6-20.6-15.1-20.6c-7.6,0-7.6,20.6-15.1,20.6c-7.6,0-7.6-20.6-15.2-20.6
		c-7.6,0-7.6,20.6-15.1,20.6c-7.6,0-7.6-20.6-15.2-20.6c-7.6,0-7.6,20.6-15.2,20.6c-7.6,0-4-16.5-10.8-19.7
		C642.2-27.2,632.5-27.3,637-21.3z"/>
</g>
<g>
	<path d="M894.5-21.3c25.7,34.3,14.8,43.8,45.1,74.1c30.3,30.3,44.9,15.7,75.2,46c30.3,30.3,15.7,44.9,46,75.2
		c30.3,30.3,44.9,15.7,75.2,46c30.3,30.3,15.7,44.9,46,75.2c30.3,30.3,44.9,15.7,75.2,46c30.3,30.3,15.7,44.9,46,75.2
		c30.3,30.3,44.9,15.7,75.2,46c30.3,30.3,15.7,44.9,46,75.2c30.3,30.3,44.9,15.7,75.2,46c30.3,30.3,15.7,44.9,46,75.2
		c30.3,30.3,44.9,15.7,75.2,46c30.3,30.3,15.7,44.9,46,75.2c30.3,30.3,44.9,15.7,75.2,46c30.3,30.3,15.7,44.9,46,75.2
		c30.3,30.3,44.9,15.7,75.2,46c30.3,30.3,13.4,49.2,46.9,75.9c5.9,4.7,14-18.3,21.6-18.3c7.6,0,7.6,20.6,15.1,20.6
		c7.6,0,7.6-20.6,15.1-20.6c7.6,0,7.6,20.6,15.1,20.6c7.6,0,7.6-20.6,15.1-20.6c7.6,0,7.6,20.6,15.1,20.6c7.6,0,7.6-20.6,15.1-20.6
		c7.6,0,7.6,20.6,15.1,20.6c7.6,0,7.6-20.6,15.1-20.6c7.6,0,7.6,20.6,15.1,20.6s7.6-20.6,15.1-20.6c7.6,0,7.6,20.6,15.2,20.6
		c7.6,0,7.6-20.6,15.1-20.6c7.6,0,7.6,20.6,15.2,20.6c7.6,0,7.6-20.6,15.2-20.6c7.6,0,7.6,20.6,15.2,20.6s11.5,1.9,6.9-4.1
		c-25.7-34.3-14.8-43.8-45.1-74.1c-30.3-30.3-44.9-15.7-75.2-46c-30.3-30.3-15.7-44.9-46-75.2c-30.3-30.3-44.9-15.7-75.2-46
		c-30.3-30.3-15.7-44.9-46-75.2c-30.3-30.3-44.9-15.7-75.2-46c-30.3-30.3-15.7-44.9-46-75.2c-30.3-30.3-44.9-15.7-75.2-46
		c-30.3-30.3-15.7-44.9-46-75.2c-30.3-30.3-44.9-15.7-75.2-46c-30.3-30.3-15.7-44.9-46-75.2c-30.3-30.3-44.9-15.7-75.2-46
		c-30.3-30.3-15.7-44.9-46-75.2c-30.3-30.3-44.9-15.7-75.2-46c-30.3-30.3-15.7-44.9-46-75.2c-30.3-30.3-44.9-15.7-75.2-46
		s-13.4-49.2-46.9-75.9c-5.9-4.7-14,18.3-21.6,18.3c-7.6,0-7.6-20.6-15.1-20.6c-7.6,0-7.6,20.6-15.1,20.6c-7.6,0-7.6-20.6-15.1-20.6
		c-7.6,0-7.6,20.6-15.1,20.6c-7.6,0-7.6-20.6-15.1-20.6c-7.6,0-7.6,20.6-15.1,20.6c-7.6,0-7.6-20.6-15.1-20.6
		c-7.6,0-7.6,20.6-15.1,20.6c-7.6,0-7.6-20.6-15.1-20.6c-7.6,0-7.6,20.6-15.1,20.6c-7.6,0-7.6-20.6-15.2-20.6
		c-7.6,0-7.6,20.6-15.1,20.6c-7.6,0-7.6-20.6-15.2-20.6c-7.6,0-7.6,20.6-15.2,20.6c-7.6,0-4-16.5-10.8-19.7
		C899.8-27.2,890-27.3,894.5-21.3z"/>
</g>
</svg>
