<svg xmlns="http://www.w3.org/2000/svg" viewBox="0 0 172.5 34.7"><defs><style>.cls-1,.cls-2{fill:#191717;}.cls-2{fill-rule:evenodd;}</style></defs><g id="Layer_2" data-name="Layer 2"><g id="Layer_1-2" data-name="Layer 1"><path class="cls-1" d="M72,15.4H61.5a.5.5,0,0,0-.5.5V21a.5.5,0,0,0,.5.5h4.1v6.4a12.9,12.9,0,0,1-3.5.3c-2.9,0-7.1-1.1-7.1-10.3S59.3,7.5,63.4,7.5a16.4,16.4,0,0,1,6,.9.5.5,0,0,0,.6-.5L71.2,3a.8.8,0,0,0-.2-.4C70.6,2.3,68.2,1,62.1,1S48,4,48,18.2s8.2,16.5,15.1,16.5a16.9,16.9,0,0,0,9.2-2.5.8.8,0,0,0,.2-.4V15.9A.5.5,0,0,0,72,15.4Z"/><path class="cls-1" d="M125.9,2.7a.5.5,0,0,0-.5-.5h-5.9a.5.5,0,0,0-.5.5V14.1h-9.2V2.7a.5.5,0,0,0-.4-.5h-5.9a.5.5,0,0,0-.5.5V33.5a.5.5,0,0,0,.5.5h5.9a.5.5,0,0,0,.4-.5V20.3H119V33.5a.5.5,0,0,0,.5.5h5.9a.5.5,0,0,0,.5-.5Z"/><path class="cls-1" d="M83.1,6.8a3.8,3.8,0,1,0-7.6,0,3.8,3.8,0,1,0,7.6,0Z"/><path class="cls-1" d="M82.7,27V12.8a.5.5,0,0,0-.5-.5H76.3a.6.6,0,0,0-.5.6V33.2c0,.6.4.8.9.8h5.2c.6,0,.8-.3.8-.8Z"/><path class="cls-1" d="M148.3,12.4h-5.9a.5.5,0,0,0-.5.4V28a7.1,7.1,0,0,1-3.6,1c-2.1,0-2.6-.9-2.6-3V12.8a.5.5,0,0,0-.5-.4h-5.9a.5.5,0,0,0-.5.4V27c0,6.2,3.4,7.7,8.1,7.7a13.3,13.3,0,0,0,6.9-2.2,11.1,11.1,0,0,0,.3,1.3c0,.1.2.2.4.2h3.8a.5.5,0,0,0,.5-.5V12.8C148.8,12.6,148.5,12.4,148.3,12.4Z"/><path class="cls-1" d="M164.2,11.7a11.1,11.1,0,0,0-5.5,1.4V2.7a.5.5,0,0,0-.5-.5h-5.9a.5.5,0,0,0-.5.5V33.5a.5.5,0,0,0,.5.5h4.1l.4-.2a10.4,10.4,0,0,0,.2-1.5,10.8,10.8,0,0,0,7,2.3c5.4,0,8.5-2.7,8.5-12.2S167.6,11.7,164.2,11.7ZM161.9,29a6.3,6.3,0,0,1-3.4-1V18.3a9.1,9.1,0,0,1,3-1c2.2-.2,4.2.5,4.2,5.5S164.8,29.1,161.9,29Z"/><path class="cls-1" d="M99.6,12.3H95.2V6.5c0-.3-.1-.4-.4-.4h-6c-.3,0-.4.1-.4.4v6l-3.2.8a.5.5,0,0,0-.4.5v3.7a.5.5,0,0,0,.5.5h3.1v9.2c0,6.7,4.8,7.4,8,7.4a14.1,14.1,0,0,0,3.5-.6c.2,0,.3-.2.3-.4V29.4a.5.5,0,0,0-.5-.5H98.1c-2.2,0-2.9-1-2.9-2.3V18h4.4a.5.5,0,0,0,.5-.5V12.8A.5.5,0,0,0,99.6,12.3Z"/><path class="cls-2" d="M17.7,0a17.7,17.7,0,0,0-5.6,34.5c.9.2,1.2-.4,1.2-.8v-3c-4.9,1-6-2.4-6-2.4a4.5,4.5,0,0,0-1.9-2.6c-1.6-1.1.1-1.1.1-1.1a3.6,3.6,0,0,1,2.7,1.8,3.8,3.8,0,0,0,5.2,1.5,3.9,3.9,0,0,1,1.1-2.4c-4-.4-8.1-1.9-8.1-8.7A7.3,7.3,0,0,1,8.2,12a6.7,6.7,0,0,1,.2-4.7s1.5-.4,4.9,1.9a16.1,16.1,0,0,1,4.4-.6,17.4,17.4,0,0,1,4.5.6C25.5,6.9,27,7.3,27,7.3a6.1,6.1,0,0,1,.2,4.7A7.3,7.3,0,0,1,29,16.8c0,6.8-4.1,8.3-8.1,8.7a4.2,4.2,0,0,1,1.2,3.3v4.9c0,.4.3,1,1.2.8A17.7,17.7,0,0,0,17.7,0Z"/></g></g></svg>