<svg width="527" height="697" viewBox="0 0 527 697" fill="none" xmlns="http://www.w3.org/2000/svg">
<path opacity="0.48" d="M131.016 673.799C120.15 672.601 110.023 669.848 101.27 665.711C91.4682 660.529 84.4744 653.305 81.1674 644.945C80.1138 642.502 79.2594 640.008 78.6076 637.474C76.975 630.746 76.2868 623.858 76.5518 616.899C76.9412 600.152 79.8344 583.283 85.1868 566.551C86.0403 563.807 87.0304 561.043 88.0243 558.324C89.5774 554.192 91.2053 550.096 93.0359 545.972C100.464 529.273 110.45 511.665 104.39 495.889C101.461 488.239 94.8206 481.569 92.0204 473.857C90.1662 468.444 89.9714 462.709 91.4472 456.989C92.1335 454.222 93.1046 451.47 94.3532 448.753C97.2099 442.624 100.984 436.646 105.612 430.92C116.416 417.203 130.427 404.281 139.457 390.168C149.45 374.584 152.967 358.44 155.019 342.166C155.339 339.542 155.651 336.865 155.9 334.214C156.642 326.74 157.312 319.232 158.263 311.775C159.183 304.6 160.565 297.267 165.458 290.457C169.176 285.583 173.953 281.059 179.608 277.056C189.787 269.414 201.097 262.5 213.315 256.449L215.245 255.488C235.065 245.96 256.442 238.226 278.755 232.51C279.417 232.326 280.084 232.186 280.748 232.001C303.132 226.307 326.016 221.994 349.102 219.117L351.133 218.88C362.558 217.46 373.956 216.33 385.255 215.486C393.223 214.877 401.479 214.412 408.471 216.243C415.462 218.073 420.337 221.904 424.466 225.84C442.774 243.163 449.717 261.311 445.103 283.373C444.364 286.931 443.55 290.452 442.676 294.028C442.025 296.743 441.301 299.433 440.591 302.149C435.71 320.839 430.351 339.55 430.55 358.174C430.594 359.965 430.638 361.756 430.763 363.536C430.987 367.051 431.48 370.573 432.096 374.034C433.747 382.978 436.377 391.753 439.966 400.288C441.001 402.768 442.098 405.202 443.269 407.656C448.252 418.195 454.369 428.483 460.934 438.527C462.255 440.597 463.638 442.615 465.016 444.679C468.133 449.263 471.252 453.847 474.374 458.468C483.593 472.238 492.143 486.146 496.976 501.035L498.119 504.884L499.049 508.576C504.124 532.279 499.11 557.233 484.577 580.604C482.784 583.526 480.845 586.376 478.772 589.246C475.878 593.214 472.703 597.101 469.259 600.893C462.352 608.882 453.716 616.202 443.68 622.573C433.568 628.669 422.072 633.543 409.788 636.942L407.801 637.497C387.422 642.746 366.178 645.344 345.251 645.147C343.048 645.133 340.913 645.109 338.71 645.095C338.023 645.1 337.33 645.058 336.641 645.063C316.992 644.683 297.27 643.385 277.717 647.185C275.24 647.671 272.843 648.227 270.446 648.802C269.785 648.986 269.117 649.126 268.453 649.311C252.677 653.591 238.143 660.278 222.607 665.254C193.101 674.629 161.005 677.623 131.016 673.799Z" fill="#BECFFF"/>
</svg>
