<svg width="557" height="697" viewBox="0 0 557 697" fill="none" xmlns="http://www.w3.org/2000/svg">
<path opacity="0.48" d="M396.956 592.954C390.634 600.28 383.364 606.253 375.602 610.498C366.446 614.966 356.944 616.312 348.289 614.366C345.718 613.862 343.201 613.185 340.748 612.338C334.286 610.019 328.151 606.926 322.423 603.098C308.515 594.068 295.729 583.142 284.261 570.487C282.369 568.43 280.526 566.262 278.724 564.115C276.005 560.82 273.353 557.49 270.776 553.997C260.351 539.84 250.411 523.338 234.167 519.534C226.295 517.683 217.433 519.06 209.571 517.081C204.108 515.612 199.185 512.76 195.092 508.693C193.098 506.745 191.256 504.597 189.579 502.265C185.817 496.974 182.63 491.09 180.072 484.713C173.809 469.643 169.782 452.643 162.317 438.664C154.085 423.213 142.214 412.209 129.519 402.209C127.466 400.605 125.366 398.978 123.255 397.411C117.327 392.966 111.334 388.555 105.521 383.965C99.931 379.544 94.4338 374.704 91.0935 367.567C88.8089 362.3 87.3365 356.442 86.7316 350.213C85.2764 338.774 84.9863 326.886 85.8672 314.785L86.0025 312.871C87.6744 293.391 91.6172 273.708 97.7168 254.394C97.8851 253.814 98.0936 253.252 98.2629 252.67C104.416 233.315 111.975 214.316 120.843 195.919L121.636 194.308C126.028 185.206 130.651 176.275 135.465 167.565C138.849 161.416 142.495 155.131 147.455 150.97C152.415 146.81 158.024 145.243 163.356 144.277C186.892 139.924 205.564 144.32 221.88 159.217C224.514 161.616 227.08 164.051 229.663 166.558C231.63 168.452 233.54 170.387 235.48 172.324C248.826 185.657 261.957 199.35 277.733 208.929C279.262 209.833 280.791 210.736 282.351 211.573C285.419 213.245 288.626 214.724 291.839 216.08C300.176 219.542 308.85 222.199 317.79 224.03C320.383 224.568 322.97 225.036 325.607 225.461C336.917 227.317 348.568 228.214 360.233 228.654C362.622 228.769 364.997 228.81 367.409 228.879C372.792 228.992 378.176 229.103 383.593 229.231C399.692 229.676 415.582 230.681 430.48 234.919L434.278 236.093L437.842 237.34C460.276 246.004 478.832 262.704 491.398 285.544C492.982 288.382 494.433 291.289 495.835 294.305C497.76 298.495 499.48 302.849 500.988 307.349C504.336 316.575 506.275 326.719 506.73 337.389C506.917 347.973 505.398 358.931 502.252 369.696L501.748 371.44C496.201 389.094 487.999 405.998 477.6 421.21C476.511 422.815 475.447 424.365 474.358 425.97C474.026 426.475 473.652 426.96 473.319 427.467C463.39 441.648 452.653 455.403 446.291 471.697C445.488 473.763 444.785 475.808 444.096 477.862C443.928 478.443 443.719 479.004 443.55 479.587C439.439 493.367 437.96 507.495 434.552 521.464C428.016 547.952 414.84 573.004 396.956 592.954Z" fill="#BECFFF"/>
</svg>
