<svg width="504" height="194" viewBox="0 0 504 194" fill="none" xmlns="http://www.w3.org/2000/svg">
<g clip-path="url(#clip0)">
<path d="M113.2 155.1C113.2 155.1 113.2 155 113.2 155.1C113.3 155 113.3 155 113.3 155C113.3 155 113.3 154.9 113.4 154.9C113.4 154.9 113.4 154.8 113.5 154.8V154.7V154.6V154.5C113.5 154.4 113.5 154.4 113.5 154.3V51.8C113.5 50.9 112.8 50.2 111.9 50.2H63.6C62.7 50.2 62 51 62 51.8V165.3C62 166.2 62.7 166.9 63.6 166.9H100.7C100.8 166.9 100.8 166.9 100.9 166.9H101H101.1H101.2C101.2 166.9 101.3 166.9 101.3 166.8C101.3 166.8 101.4 166.8 101.4 166.7C101.4 166.7 101.5 166.7 101.5 166.6L101.6 166.5L112.8 155.3C113.1 155.2 113.1 155.2 113.2 155.1ZM65.2 53.4H110.3V152.5H100.7C99.8 152.5 99.1 153.2 99.1 154.1V163.7H65.2V53.4ZM108.1 155.7L102.4 161.4V155.7H108.1Z" fill="black"/>
<path d="M80.6 141.3C79.9 140.8 78.9 140.9 78.4 141.6L74.3 146.9L72.7 145.6C72 145.1 71 145.2 70.5 145.9C70 146.6 70.1 147.6 70.8 148.1L73.7 150.4C74 150.6 74.3 150.7 74.7 150.7C74.8 150.7 74.8 150.7 74.9 150.7C75.3 150.6 75.7 150.4 76 150.1L81.1 143.5C81.4 142.8 81.3 141.8 80.6 141.3Z" fill="black"/>
<path d="M84.3998 147.4H102.3C103.2 147.4 103.9 146.7 103.9 145.8C103.9 144.9 103.2 144.2 102.3 144.2H84.3998C83.4998 144.2 82.7998 144.9 82.7998 145.8C82.7998 146.7 83.4998 147.4 84.3998 147.4Z" fill="black"/>
<path d="M80.6 131.5C79.9 131 78.9 131.1 78.4 131.8L74.3 137.1L72.7 135.8C72 135.3 71 135.4 70.5 136.1C70 136.8 70.1 137.8 70.8 138.3L73.7 140.6C74 140.8 74.3 140.9 74.7 140.9C74.8 140.9 74.8 140.9 74.9 140.9C75.3 140.8 75.7 140.6 76 140.3L81.1 133.7C81.4 133 81.3 132 80.6 131.5Z" fill="black"/>
<path d="M84.3998 137.6H102.3C103.2 137.6 103.9 136.9 103.9 136C103.9 135.1 103.2 134.4 102.3 134.4H84.3998C83.4998 134.4 82.7998 135.1 82.7998 136C82.7998 136.9 83.4998 137.6 84.3998 137.6Z" fill="black"/>
<path d="M80.5998 121.7C79.8998 121.2 78.8998 121.3 78.3998 122L74.2998 127.3L72.5998 126C71.8998 125.5 70.8998 125.6 70.3998 126.3C69.7998 127 69.8998 128 70.5998 128.5L73.4998 130.8C73.7998 131 74.0998 131.1 74.4998 131.1C74.5998 131.1 74.5998 131.1 74.6998 131.1C75.0998 131 75.4998 130.8 75.7998 130.5L80.8998 123.9C81.3998 123.3 81.2998 122.2 80.5998 121.7Z" fill="black"/>
<path d="M84.3998 127.9H102.3C103.2 127.9 103.9 127.2 103.9 126.3C103.9 125.4 103.2 124.7 102.3 124.7H84.3998C83.4998 124.7 82.7998 125.4 82.7998 126.3C82.7998 127.1 83.4998 127.9 84.3998 127.9Z" fill="black"/>
<path d="M80.6 111.9C79.9 111.4 78.9 111.5 78.4 112.2L74.3 117.5L72.7 116.2C72 115.7 71 115.8 70.5 116.5C70 117.2 70.1 118.2 70.8 118.7L73.7 121C74 121.2 74.3 121.3 74.7 121.3C74.8 121.3 74.8 121.3 74.9 121.3C75.3 121.2 75.7 121 76 120.7L81.1 114.1C81.4 113.5 81.3 112.5 80.6 111.9Z" fill="black"/>
<path d="M84.3998 118.1H102.3C103.2 118.1 103.9 117.4 103.9 116.5C103.9 115.6 103.2 114.9 102.3 114.9H84.3998C83.4998 114.9 82.7998 115.6 82.7998 116.5C82.7998 117.4 83.4998 118.1 84.3998 118.1Z" fill="black"/>
<path d="M80.6 102.1C79.9 101.6 78.9 101.7 78.4 102.4L74.3 107.7L72.7 106.4C72 105.9 71 106 70.5 106.7C70 107.4 70.1 108.4 70.8 108.9L73.7 111.2C74 111.4 74.3 111.5 74.7 111.5C74.8 111.5 74.8 111.5 74.9 111.5C75.3 111.4 75.7 111.2 76 110.9L81.1 104.3C81.4 103.7 81.3 102.7 80.6 102.1Z" fill="black"/>
<path d="M84.3998 108.3H102.3C103.2 108.3 103.9 107.6 103.9 106.7C103.9 105.8 103.2 105.1 102.3 105.1H84.3998C83.4998 105.1 82.7998 105.8 82.7998 106.7C82.7998 107.6 83.4998 108.3 84.3998 108.3Z" fill="black"/>
<path d="M80.6 92.3999C79.9 91.8999 78.9 91.9999 78.4 92.6999L74.3 97.9999L72.7 96.6999C72 96.1999 71 96.2999 70.5 96.9999C70 97.6999 70.1 98.6999 70.8 99.1999L73.7 101.5C74 101.7 74.3 101.8 74.7 101.8C74.8 101.8 74.8 101.8 74.9 101.8C75.3 101.7 75.7 101.5 76 101.2L81.1 94.5999C81.4 93.8999 81.3 92.8999 80.6 92.3999Z" fill="black"/>
<path d="M84.3998 98.5H102.3C103.2 98.5 103.9 97.8001 103.9 96.9001C103.9 96.0001 103.2 95.3 102.3 95.3H84.3998C83.4998 95.3 82.7998 96.0001 82.7998 96.9001C82.7998 97.8001 83.4998 98.5 84.3998 98.5Z" fill="black"/>
<path d="M80.6 82.5999C79.9 82.0999 78.9 82.1999 78.4 82.8999L74.3 88.1999L72.7 86.8999C72 86.3999 71 86.4999 70.5 87.1999C70 87.8999 70.1 88.8999 70.8 89.3999L73.7 91.6999C74 91.8999 74.3 91.9999 74.7 91.9999C74.8 91.9999 74.8 91.9999 74.9 91.9999C75.3 91.8999 75.7 91.6999 76 91.3999L81.1 84.7999C81.4 84.0999 81.3 83.0999 80.6 82.5999Z" fill="black"/>
<path d="M84.3998 88.7H102.3C103.2 88.7 103.9 88 103.9 87.1C103.9 86.2 103.2 85.5 102.3 85.5H84.3998C83.4998 85.5 82.7998 86.2 82.7998 87.1C82.7998 88 83.4998 88.7 84.3998 88.7Z" fill="black"/>
<path d="M80.6 72.8C79.9 72.3 78.9 72.4 78.4 73.1L74.3 78.4001L72.7 77.1C72 76.6 71 76.7001 70.5 77.4001C70 78.1001 70.1 79.1 70.8 79.6L73.7 81.9001C74 82.1001 74.3 82.2001 74.7 82.2001C74.8 82.2001 74.8 82.2001 74.9 82.2001C75.3 82.1 75.7 81.9 76 81.6L81.1 75C81.4 74.3 81.3 73.3 80.6 72.8Z" fill="black"/>
<path d="M84.3998 78.9H102.3C103.2 78.9 103.9 78.1999 103.9 77.2999C103.9 76.3999 103.2 75.7 102.3 75.7H84.3998C83.4998 75.7 82.7998 76.3999 82.7998 77.2999C82.7998 78.1999 83.4998 78.9 84.3998 78.9Z" fill="black"/>
<path d="M80.6 63C79.9 62.5 78.9 62.6 78.4 63.3L74.3 68.6L72.7 67.3C72 66.8 71 66.9 70.5 67.6C70 68.3 70.1 69.3 70.8 69.8L73.7 72.1C74 72.3 74.3 72.4 74.7 72.4C74.8 72.4 74.8 72.4 74.9 72.4C75.3 72.3 75.7 72.1 76 71.8L81.1 65.2C81.4 64.6 81.3 63.5 80.6 63Z" fill="black"/>
<path d="M84.3998 69.2H102.3C103.2 69.2 103.9 68.5 103.9 67.6C103.9 66.7 103.2 66 102.3 66H84.3998C83.4998 66 82.7998 66.7 82.7998 67.6C82.7998 68.4 83.4998 69.2 84.3998 69.2Z" fill="black"/>
<path d="M276.401 82.6C280.501 81.6 283.501 78.1 284.101 73.9C284.101 73.9 284.101 73.8 284.201 73.8C294.301 72.4 301.701 65.7 301.701 57.8C301.701 48.8 292.201 41.5 280.501 41.5C268.801 41.5 259.301 48.8 259.301 57.8C259.301 65.7 266.701 72.4 276.801 73.8C276.801 73.8 276.801 73.8 276.901 73.9C277.301 76.4 276.801 79 275.401 81.1L274.201 83.1L276.401 82.6Z" stroke="black" stroke-width="3.2" stroke-miterlimit="10" stroke-linecap="round" stroke-linejoin="round"/>
<path d="M332.101 95.3C328.001 94.7 325.001 92.6001 324.401 90.2001C324.401 90.2001 324.401 90.2001 324.301 90.2001C314.201 89.4001 306.801 85.4 306.801 80.8C306.801 75.5 316.301 71.3 328.001 71.3C339.701 71.3 349.201 75.6 349.201 80.8C349.201 85.4 341.801 89.4001 331.701 90.2001C331.701 90.2001 331.701 90.2001 331.601 90.2001C331.201 91.7001 331.701 93.2 333.101 94.5L334.301 95.7001L332.101 95.3Z" stroke="black" stroke-width="3.2" stroke-miterlimit="10" stroke-linecap="round" stroke-linejoin="round"/>
<path d="M272.5 135.9C276.6 134.9 279.6 131.4 280.2 127.2C280.2 127.2 280.2 127.1 280.3 127.1C290.4 125.7 297.8 119 297.8 111.1C297.8 102.1 288.3 94.8 276.6 94.8C264.9 94.8 255.4 102.1 255.4 111.1C255.4 119 262.8 125.7 272.9 127.1C272.9 127.1 272.9 127.1 273 127.2C273.4 129.7 272.9 132.3 271.5 134.4L270.3 136.4L272.5 135.9Z" stroke="black" stroke-width="3.2" stroke-miterlimit="10" stroke-linecap="round" stroke-linejoin="round"/>
<path d="M269.3 51.8C268.4 51.8 267.7 52.5 267.7 53.4C267.7 54.3 268.4 55 269.3 55H292.8C293.7 55 294.4 54.3 294.4 53.4C294.4 52.5 293.7 51.8 292.8 51.8H269.3Z" fill="black"/>
<path d="M320.5 78.8999C319.6 78.8999 318.9 79.5999 318.9 80.4999C318.9 81.3999 319.6 82.0999 320.5 82.0999H335.5C336.4 82.0999 337.1 81.3999 337.1 80.4999C337.1 79.5999 336.4 78.8999 335.5 78.8999H320.5Z" fill="black"/>
<path d="M269.3 57.3C268.4 57.3 267.7 58 267.7 58.9C267.7 59.8 268.4 60.5 269.3 60.5H292.8C293.7 60.5 294.4 59.8 294.4 58.9C294.4 58 293.7 57.3 292.8 57.3H269.3Z" fill="black"/>
<path d="M265.5 103.8C264.6 103.8 263.9 104.5 263.9 105.4C263.9 106.3 264.6 107 265.5 107H289C289.9 107 290.6 106.3 290.6 105.4C290.6 104.5 289.9 103.8 289 103.8H265.5Z" fill="black"/>
<path d="M265.5 114.2C264.6 114.2 263.9 114.9 263.9 115.8C263.9 116.7 264.6 117.4 265.5 117.4H289C289.9 117.4 290.6 116.7 290.6 115.8C290.6 114.9 289.9 114.2 289 114.2H265.5Z" fill="black"/>
<path d="M265.5 109.2C264.6 109.2 263.9 109.9 263.9 110.8C263.9 111.7 264.6 112.4 265.5 112.4H289C289.9 112.4 290.6 111.7 290.6 110.8C290.6 109.9 289.9 109.2 289 109.2H265.5Z" fill="black"/>
<path d="M272.5 191.7C276.6 190.7 279.6 187.2 280.2 183C280.2 183 280.2 182.9 280.3 182.9C290.4 181.5 297.8 174.8 297.8 166.9C297.8 157.9 288.3 150.6 276.6 150.6C264.9 150.6 255.4 157.9 255.4 166.9C255.4 174.8 262.8 181.5 272.9 182.9C272.9 182.9 272.9 182.9 273 183C273.4 185.5 272.9 188.1 271.5 190.2L270.3 192.2L272.5 191.7Z" stroke="black" stroke-width="3.2" stroke-miterlimit="10" stroke-linecap="round" stroke-linejoin="round"/>
<path d="M265.5 159.6C264.6 159.6 263.9 160.3 263.9 161.2C263.9 162.1 264.6 162.8 265.5 162.8H289C289.9 162.8 290.6 162.1 290.6 161.2C290.6 160.3 289.9 159.6 289 159.6H265.5Z" fill="black"/>
<path d="M265.5 170C264.6 170 263.9 170.7 263.9 171.6C263.9 172.5 264.6 173.2 265.5 173.2H289C289.9 173.2 290.6 172.5 290.6 171.6C290.6 170.7 289.9 170 289 170H265.5Z" fill="black"/>
<path d="M265.5 165C264.6 165 263.9 165.7 263.9 166.6C263.9 167.5 264.6 168.2 265.5 168.2H289C289.9 168.2 290.6 167.5 290.6 166.6C290.6 165.7 289.9 165 289 165H265.5Z" fill="black"/>
<path d="M332.101 152.8C328.001 152.2 325.001 150.1 324.401 147.7C324.401 147.7 324.401 147.7 324.301 147.7C314.201 146.9 306.801 142.9 306.801 138.3C306.801 133 316.301 128.8 328.001 128.8C339.701 128.8 349.201 133.1 349.201 138.3C349.201 142.9 341.801 146.9 331.701 147.7C331.701 147.7 331.701 147.7 331.601 147.7C331.201 149.2 331.701 150.7 333.101 152L334.301 153.2L332.101 152.8Z" stroke="black" stroke-width="3.2" stroke-miterlimit="10" stroke-linecap="round" stroke-linejoin="round"/>
<path d="M320.5 136.4C319.6 136.4 318.9 137.1 318.9 138C318.9 138.9 319.6 139.6 320.5 139.6H335.5C336.4 139.6 337.1 138.9 337.1 138C337.1 137.1 336.4 136.4 335.5 136.4H320.5Z" fill="black"/>
<path d="M411.8 126C412.1 126.3 412.5 126.5 412.9 126.5C413.3 126.5 413.7 126.3 414 126C414.6 125.4 414.6 124.4 414 123.7L404.4 114.1C403.8 113.5 402.8 113.5 402.1 114.1C401.5 114.7 401.5 115.7 402.1 116.4L411.8 126Z" fill="black"/>
<path d="M411.1 117.1C411.4 117.4 411.8 117.6 412.2 117.6C412.6 117.6 413 117.4 413.3 117.1C413.9 116.5 413.9 115.5 413.3 114.8L408.5 110C407.9 109.4 406.9 109.4 406.2 110C405.6 110.6 405.6 111.6 406.2 112.3L411.1 117.1Z" fill="black"/>
<path d="M383.5 105.8C382.7 106.2 382.5 107.2 382.9 108C383.3 108.8 384.3 109 385.1 108.6C386.8 107.6 389 107.9 390.5 109.3C391.9 110.7 392.2 112.9 391.2 114.7C390.8 115.5 391 116.4 391.8 116.9C392 117 392.3 117.1 392.6 117.1C393.2 117.1 393.7 116.8 394 116.3C395.7 113.3 395.2 109.5 392.8 107.1C390.3 104.6 386.5 104.1 383.5 105.8Z" fill="black"/>
<path d="M409.8 130.3C410.4 129.7 410.4 128.7 409.8 128L400.2 118.4C399.6 117.8 398.6 117.8 397.9 118.4C397.3 119 397.3 120 397.9 120.7L407.5 130.3C407.8 130.6 408.2 130.8 408.6 130.8C409.1 130.7 409.5 130.6 409.8 130.3Z" fill="black"/>
<path d="M427.2 134.6L407.7 154.1L375.2 121.6C374.6 121 373.6 121 372.9 121.6C372.2 122.2 372.3 123.2 372.9 123.9L406.5 157.5C406.8 157.8 407.2 158 407.6 158C408 158 408.4 157.8 408.7 157.5L429.4 136.8C430 136.2 430 135.2 429.4 134.5C428.8 134 427.8 134 427.2 134.6Z" fill="black"/>
<path d="M427.2 126.6L407.7 146.1L375.2 113.6C374.6 113 373.6 113 372.9 113.6C372.2 114.2 372.3 115.2 372.9 115.9L406.5 149.5C406.8 149.8 407.2 150 407.6 150C408 150 408.4 149.8 408.7 149.5L429.4 128.8C430 128.2 430 127.2 429.4 126.5C428.8 126 427.8 126 427.2 126.6Z" fill="black"/>
<path d="M406.5 141.6C406.8 141.9 407.2 142.1 407.6 142.1C408 142.1 408.4 141.9 408.7 141.6L429.4 120.9C430 120.3 430 119.3 429.4 118.6L395.9 85C395.3 84.4 394.3 84.4 393.6 85L372.9 105.7C372.3 106.3 372.3 107.3 372.9 108L406.5 141.6ZM394.7 88.4001L426 119.7L407.6 138.1L376.3 106.8L394.7 88.4001Z" fill="black"/>
<path d="M400.4 105.9C401.3 105 401.8 103.9 401.8 102.6C401.8 101.4 401.3 100.2 400.4 99.3001C399.5 98.4001 398.4 97.9001 397.1 97.9001C395.9 97.9001 394.7 98.4001 393.8 99.3001C392.9 100.2 392.4 101.3 392.4 102.6C392.4 103.8 392.9 105 393.8 105.9C394.7 106.8 395.9 107.3 397.1 107.3C398.3 107.3 399.5 106.8 400.4 105.9ZM398.1 103.7C397.5 104.3 396.6 104.3 396.1 103.7C395.8 103.4 395.7 103.1 395.7 102.7C395.7 102.3 395.8 102 396.1 101.7C396.4 101.4 396.7 101.3 397.1 101.3C397.5 101.3 397.8 101.4 398.1 101.7C398.4 102 398.5 102.3 398.5 102.7C398.5 103 398.4 103.4 398.1 103.7Z" fill="black"/>
<path d="M223.1 113.5H228.8C229.7 113.5 230.4 112.8 230.4 111.9C230.4 111 229.7 110.3 228.8 110.3H223.1C222.2 110.3 221.5 111 221.5 111.9C221.5 112.8 222.3 113.5 223.1 113.5Z" fill="black"/>
<path d="M148.4 113.5H199.2C200.1 113.5 200.8 112.8 200.8 111.9C200.8 111 200.1 110.3 199.2 110.3H148.4C147.5 110.3 146.8 111 146.8 111.9C146.8 112.8 147.5 113.5 148.4 113.5Z" fill="black"/>
<path d="M230.399 137C230.399 136.1 229.699 135.4 228.799 135.4H219.999V88.5H228.799C229.699 88.5 230.399 87.8001 230.399 86.9001C230.399 86.0001 229.699 85.3 228.799 85.3H218.399C217.499 85.3 216.799 86.0001 216.799 86.9001V110.4H207.999C207.099 110.4 206.399 111.1 206.399 112C206.399 112.9 207.099 113.6 207.999 113.6H216.799V137C216.799 137.9 217.499 138.6 218.399 138.6H228.799C229.699 138.6 230.399 137.9 230.399 137Z" fill="black"/>
</g>
<defs>
<clipPath id="clip0">
<rect x="62" y="40" width="368.1" height="153.9" fill="white"/>
</clipPath>
</defs>
</svg>
