<svg width="527" height="697" viewBox="0 0 527 697" fill="none" xmlns="http://www.w3.org/2000/svg">
<path opacity="0.48" d="M110.857 651.688C102.133 647.76 94.2728 641.94 87.7701 634.594C80.5783 625.642 76.0304 614.604 74.6977 602.866C74.2366 599.418 73.9475 595.945 73.8316 592.462C73.6038 583.238 74.1779 574.007 75.5466 564.888C78.6364 542.889 83.8022 521.272 90.9647 500.366C92.1193 496.933 93.3896 493.502 94.6553 490.132C96.614 485.019 98.6283 479.97 100.814 474.928C109.675 454.515 120.787 433.455 118.42 411.343C117.281 400.623 112.931 390.393 111.908 379.618C111.281 372.08 112.069 364.476 114.227 357.253C115.248 353.753 116.501 350.333 117.975 347.021C121.335 339.557 125.423 332.49 130.17 325.939C141.31 310.188 154.952 296.178 164.702 279.52C175.485 261.132 181.043 240.604 185.419 219.59C186.116 216.199 186.816 212.737 187.459 209.294C189.304 199.601 191.096 189.845 193.11 180.217C195.052 170.956 197.4 161.586 202.544 153.663C206.404 148.04 211.074 143.108 216.38 139.051C226.002 131.175 236.432 124.503 247.466 119.165L249.209 118.316C267.06 110.037 285.892 104.46 305.16 101.746C305.734 101.646 306.305 101.605 306.881 101.505C326.203 98.8352 345.707 98.0942 365.139 99.2916L366.846 99.4174C376.462 100.015 386.008 100.989 395.426 102.318C402.069 103.238 408.926 104.409 414.364 108.334C419.802 112.259 423.171 118.364 425.91 124.446C438.079 151.246 440.778 176.676 433.34 204.769C432.145 209.301 430.893 213.768 429.584 218.294C428.601 221.733 427.561 225.123 426.529 228.552C419.43 252.14 411.934 275.655 409.017 300.255C408.757 302.626 408.497 304.998 408.306 307.372C407.908 312.055 407.73 316.806 407.664 321.501C407.54 333.652 408.249 345.791 409.784 357.822C410.223 361.315 410.722 364.762 411.277 368.25C413.626 383.225 416.947 398.112 420.676 412.775C421.418 415.791 422.22 418.749 423.011 421.77C424.812 428.488 426.615 435.206 428.414 441.974C433.706 462.123 438.427 482.311 439.932 502.988L440.234 508.31L440.387 513.38C440.634 545.73 432.389 577.552 416.59 605.226C414.635 608.691 412.571 612.031 410.394 615.367C407.361 619.974 404.111 624.413 400.657 628.668C393.664 637.709 385.361 645.495 376.067 651.726C366.755 657.579 356.51 661.52 345.86 663.347L344.137 663.649C326.536 666.165 308.662 664.999 291.511 660.216C289.704 659.722 287.955 659.228 286.148 658.734C285.584 658.591 285.021 658.387 284.455 658.244C268.383 653.495 252.404 647.521 235.72 648.306C233.605 648.41 231.545 648.626 229.482 648.866C228.908 648.966 228.337 649.006 227.761 649.106C214.099 651.34 201.058 657.015 187.478 660.219C161.7 666.203 134.849 663.213 110.857 651.688Z" fill="#BECFFF"/>
</svg>
