<svg width="77" height="78" viewBox="0 0 77 78" fill="none" xmlns="http://www.w3.org/2000/svg">
<path d="M59.0982 43.7015L59.0296 43.6441C58.0966 42.8555 56.8902 42.4587 55.6459 42.5308C56.4446 40.4274 55.99 38.0559 54.3097 36.6523C53.2735 35.7996 51.9209 35.4195 50.559 35.5998C51.0619 33.6644 50.5319 31.6238 49.0187 30.3597L48.9456 30.2986C48.1454 29.6081 47.1239 29.2226 46.0493 29.205L54.3115 19.3144C56.3081 16.9243 56.1509 13.4918 53.984 11.6816C51.8195 9.87351 48.4241 10.3361 46.4277 12.7236L30.0169 32.332L30.0804 30.0951C30.161 28.1039 29.4175 26.2047 28.0277 24.8507C26.6604 23.5319 24.7884 22.8653 22.8543 23.0099L21.2605 23.0378C20.7463 23.0469 20.2933 23.4162 20.1721 23.9244L14.0806 49.4965C12.9682 54.1705 14.3773 58.843 17.7696 61.6768L27.9054 70.1439L27.9132 70.1347C33.0524 74.4278 41.1104 73.2503 45.8937 67.535C48.0335 64.9775 49.6177 63.0623 50.9106 61.5178C54.371 57.3861 55.6419 55.8565 59.4384 51.2914C61.4252 48.9024 61.2591 45.5066 59.0982 43.7015V43.7015ZM49.259 60.1281C47.9656 61.673 46.3635 63.586 44.2233 66.1431C40.2309 70.9134 33.5289 71.9242 29.2926 68.3854L19.2053 59.9589C16.4285 57.6393 15.2827 53.7876 16.2029 49.9221L22.0826 25.2255L22.8235 25.2101C22.8421 25.2099 22.8616 25.2077 22.8801 25.2068C24.2234 25.0978 25.527 25.5544 26.4798 26.4678C27.4439 27.4134 27.9563 28.7373 27.8956 30.1229L27.7402 35.4246C27.7259 35.889 28.0033 36.2995 28.4321 36.4504C28.8608 36.6014 29.3497 36.4601 29.6524 36.0977L48.0619 14.0902C49.2672 12.6489 51.291 12.3479 52.5501 13.3997C53.8092 14.4515 53.8721 16.4979 52.6669 17.9406L41.576 31.2174C41.5375 31.2636 41.4966 31.3084 41.4573 31.3554C41.4405 31.3756 41.4254 31.3978 41.4089 31.4175L36.667 37.094C36.2707 37.5684 36.3176 38.2605 36.7717 38.6398C37.2258 39.0192 37.9153 38.9421 38.3115 38.4678L43.1964 32.6202C44.3585 31.229 46.284 30.9919 47.5106 32.0165L47.5837 32.0775C48.8436 33.13 48.9337 35.1528 47.7285 36.5955L43.3894 41.7897C42.9932 42.2641 43.0401 42.9562 43.4942 43.3356C43.9483 43.7149 44.6378 43.6379 45.034 43.1635L48.4383 39.0882C49.6439 37.6451 51.6226 37.305 52.8893 38.3632C54.1489 39.4153 54.1667 41.4226 52.9608 42.8662L49.7492 46.7108C49.3529 47.1851 49.3999 47.8773 49.854 48.2566C50.3081 48.6359 50.9975 48.5589 51.3937 48.0846L53.1329 46.0027C54.3384 44.5595 56.3346 44.3095 57.5945 45.362L57.6632 45.4193C58.9199 46.4691 58.9845 48.4735 57.786 49.9147C53.9924 54.4765 52.7168 55.9993 49.259 60.1281Z" fill="white"/>
</svg>
