<svg width="343" height="121" viewBox="0 0 343 121" fill="none" xmlns="http://www.w3.org/2000/svg">
<path d="M21.3027 28.2461V35H16.5039V15.0938H24.4473C25.9694 15.0938 27.3138 15.3763 28.4805 15.9414C29.6562 16.4974 30.5632 17.2949 31.2012 18.334C31.8483 19.3639 32.1719 20.5352 32.1719 21.8477C32.1719 23.7891 31.4746 25.3431 30.0801 26.5098C28.6947 27.6673 26.7897 28.2461 24.3652 28.2461H21.3027ZM21.3027 24.541H24.4473C25.377 24.541 26.0833 24.3086 26.5664 23.8438C27.0586 23.3789 27.3047 22.7227 27.3047 21.875C27.3047 20.9453 27.054 20.2025 26.5527 19.6465C26.0514 19.0905 25.3678 18.8079 24.502 18.7988H21.3027V24.541ZM42.6992 35C42.5352 34.6992 42.3893 34.2572 42.2617 33.6738C41.4141 34.7402 40.2292 35.2734 38.707 35.2734C37.3125 35.2734 36.1276 34.8542 35.1523 34.0156C34.1771 33.168 33.6895 32.1061 33.6895 30.8301C33.6895 29.2259 34.2819 28.0137 35.4668 27.1934C36.6517 26.373 38.3743 25.9629 40.6348 25.9629H42.0566V25.1836C42.0566 23.8255 41.4688 23.1465 40.293 23.1465C39.1992 23.1465 38.6523 23.6842 38.6523 24.7598H34.0449C34.0449 23.3288 34.651 22.1667 35.8633 21.2734C37.0846 20.3802 38.6387 19.9336 40.5254 19.9336C42.4121 19.9336 43.9023 20.3939 44.9961 21.3145C46.0898 22.235 46.6504 23.4974 46.6777 25.1016V31.6504C46.696 33.0085 46.9056 34.0475 47.3066 34.7676V35H42.6992ZM39.8145 31.9922C40.3887 31.9922 40.8626 31.8691 41.2363 31.623C41.6191 31.377 41.8926 31.099 42.0566 30.7891V28.4238H40.7168C39.1126 28.4238 38.3105 29.1439 38.3105 30.584C38.3105 31.0033 38.4518 31.3451 38.7344 31.6094C39.0169 31.8646 39.377 31.9922 39.8145 31.9922ZM58.1895 24.377L56.6719 24.2676C55.2227 24.2676 54.293 24.7233 53.8828 25.6348V35H49.2754V20.207H53.5957L53.7461 22.1074C54.5208 20.6582 55.6009 19.9336 56.9863 19.9336C57.4785 19.9336 57.9069 19.9883 58.2715 20.0977L58.1895 24.377ZM66.7344 35.2734C64.4648 35.2734 62.6283 34.599 61.2246 33.25C59.821 31.8919 59.1191 30.1283 59.1191 27.959V27.5762C59.1191 26.0632 59.3971 24.7279 59.9531 23.5703C60.5182 22.4128 61.3385 21.5195 62.4141 20.8906C63.4896 20.2526 64.7656 19.9336 66.2422 19.9336C68.3203 19.9336 69.9609 20.5807 71.1641 21.875C72.3672 23.1602 72.9688 24.9557 72.9688 27.2617V29.0527H63.8086C63.9727 29.8822 64.3327 30.5339 64.8887 31.0078C65.4447 31.4818 66.1647 31.7188 67.0488 31.7188C68.5072 31.7188 69.6465 31.2083 70.4668 30.1875L72.5723 32.6758C71.998 33.4688 71.1823 34.1022 70.125 34.5762C69.0768 35.041 67.9466 35.2734 66.7344 35.2734ZM66.2148 23.4883C64.8659 23.4883 64.0638 24.3815 63.8086 26.168H68.457V25.8125C68.4753 25.0742 68.2884 24.5046 67.8965 24.1035C67.5046 23.6934 66.944 23.4883 66.2148 23.4883ZM79.6953 35H75.0742V20.207H79.6953V35ZM74.8008 16.3926C74.8008 15.7363 75.0378 15.1986 75.5117 14.7793C75.9857 14.36 76.6009 14.1504 77.3574 14.1504C78.1139 14.1504 78.7292 14.36 79.2031 14.7793C79.6771 15.1986 79.9141 15.7363 79.9141 16.3926C79.9141 17.0488 79.6771 17.5866 79.2031 18.0059C78.7292 18.4251 78.1139 18.6348 77.3574 18.6348C76.6009 18.6348 75.9857 18.4251 75.5117 18.0059C75.0378 17.5866 74.8008 17.0488 74.8008 16.3926ZM81.9648 27.4941C81.9648 25.1517 82.4707 23.306 83.4824 21.957C84.4941 20.6081 85.9069 19.9336 87.7207 19.9336C89.0423 19.9336 90.1543 20.4531 91.0566 21.4922V14H95.6777V35H91.5352L91.3027 33.4141C90.3548 34.6536 89.1517 35.2734 87.6934 35.2734C85.9342 35.2734 84.5397 34.599 83.5098 33.25C82.4798 31.901 81.9648 29.9824 81.9648 27.4941ZM86.5723 27.7812C86.5723 30.4062 87.3379 31.7188 88.8691 31.7188C89.89 31.7188 90.6191 31.2904 91.0566 30.4336V24.8008C90.6374 23.9258 89.9173 23.4883 88.8965 23.4883C87.4746 23.4883 86.7044 24.6367 86.5859 26.9336L86.5723 27.7812ZM97.7148 27.4668C97.7148 25.9902 98.002 24.6777 98.5762 23.5293C99.1504 22.3717 99.9753 21.4831 101.051 20.8633C102.126 20.2435 103.389 19.9336 104.838 19.9336C107.053 19.9336 108.798 20.6217 110.074 21.998C111.35 23.3652 111.988 25.2292 111.988 27.5898V27.7539C111.988 30.0599 111.346 31.8919 110.061 33.25C108.785 34.599 107.053 35.2734 104.865 35.2734C102.76 35.2734 101.069 34.6445 99.793 33.3867C98.5169 32.1198 97.8288 30.4062 97.7285 28.2461L97.7148 27.4668ZM102.322 27.7539C102.322 29.1211 102.536 30.1237 102.965 30.7617C103.393 31.3997 104.027 31.7188 104.865 31.7188C106.506 31.7188 107.344 30.4564 107.381 27.9316V27.4668C107.381 24.8145 106.533 23.4883 104.838 23.4883C103.298 23.4883 102.464 24.6322 102.336 26.9199L102.322 27.7539ZM118.879 35H114.258V14H118.879V35ZM126.59 35H121.969V20.207H126.59V35ZM121.695 16.3926C121.695 15.7363 121.932 15.1986 122.406 14.7793C122.88 14.36 123.495 14.1504 124.252 14.1504C125.008 14.1504 125.624 14.36 126.098 14.7793C126.572 15.1986 126.809 15.7363 126.809 16.3926C126.809 17.0488 126.572 17.5866 126.098 18.0059C125.624 18.4251 125.008 18.6348 124.252 18.6348C123.495 18.6348 122.88 18.4251 122.406 18.0059C121.932 17.5866 121.695 17.0488 121.695 16.3926ZM137.773 35C137.609 34.6992 137.464 34.2572 137.336 33.6738C136.488 34.7402 135.303 35.2734 133.781 35.2734C132.387 35.2734 131.202 34.8542 130.227 34.0156C129.251 33.168 128.764 32.1061 128.764 30.8301C128.764 29.2259 129.356 28.0137 130.541 27.1934C131.726 26.373 133.449 25.9629 135.709 25.9629H137.131V25.1836C137.131 23.8255 136.543 23.1465 135.367 23.1465C134.273 23.1465 133.727 23.6842 133.727 24.7598H129.119C129.119 23.3288 129.725 22.1667 130.938 21.2734C132.159 20.3802 133.713 19.9336 135.6 19.9336C137.486 19.9336 138.977 20.3939 140.07 21.3145C141.164 22.235 141.725 23.4974 141.752 25.1016V31.6504C141.77 33.0085 141.98 34.0475 142.381 34.7676V35H137.773ZM134.889 31.9922C135.463 31.9922 135.937 31.8691 136.311 31.623C136.693 31.377 136.967 31.099 137.131 30.7891V28.4238H135.791C134.187 28.4238 133.385 29.1439 133.385 30.584C133.385 31.0033 133.526 31.3451 133.809 31.6094C134.091 31.8646 134.451 31.9922 134.889 31.9922ZM159.594 23.707H164.256V27.6582H159.594V33.0039H155.287V27.6582H150.611V23.707H155.287V18.5117H159.594V23.707ZM182.166 24.377L180.648 24.2676C179.199 24.2676 178.27 24.7233 177.859 25.6348V35H173.252V20.207H177.572L177.723 22.1074C178.497 20.6582 179.577 19.9336 180.963 19.9336C181.455 19.9336 181.883 19.9883 182.248 20.0977L182.166 24.377ZM190.711 35.2734C188.441 35.2734 186.605 34.599 185.201 33.25C183.798 31.8919 183.096 30.1283 183.096 27.959V27.5762C183.096 26.0632 183.374 24.7279 183.93 23.5703C184.495 22.4128 185.315 21.5195 186.391 20.8906C187.466 20.2526 188.742 19.9336 190.219 19.9336C192.297 19.9336 193.938 20.5807 195.141 21.875C196.344 23.1602 196.945 24.9557 196.945 27.2617V29.0527H187.785C187.949 29.8822 188.309 30.5339 188.865 31.0078C189.421 31.4818 190.141 31.7188 191.025 31.7188C192.484 31.7188 193.623 31.2083 194.443 30.1875L196.549 32.6758C195.975 33.4688 195.159 34.1022 194.102 34.5762C193.053 35.041 191.923 35.2734 190.711 35.2734ZM190.191 23.4883C188.842 23.4883 188.04 24.3815 187.785 26.168H192.434V25.8125C192.452 25.0742 192.265 24.5046 191.873 24.1035C191.481 23.6934 190.921 23.4883 190.191 23.4883ZM215.129 28.2598C215.065 29.6452 214.691 30.8711 214.008 31.9375C213.324 32.9948 212.363 33.8151 211.123 34.3984C209.893 34.9818 208.484 35.2734 206.898 35.2734C204.283 35.2734 202.223 34.4212 200.719 32.7168C199.215 31.0124 198.463 28.6061 198.463 25.498V24.5137C198.463 22.5632 198.8 20.8587 199.475 19.4004C200.158 17.9329 201.138 16.8027 202.414 16.0098C203.69 15.2077 205.167 14.8066 206.844 14.8066C209.259 14.8066 211.201 15.4447 212.668 16.7207C214.135 17.9876 214.969 19.7376 215.17 21.9707H210.385C210.348 20.7585 210.043 19.888 209.469 19.3594C208.895 18.8307 208.02 18.5664 206.844 18.5664C205.65 18.5664 204.775 19.013 204.219 19.9062C203.663 20.7995 203.371 22.2259 203.344 24.1855V25.5938C203.344 27.7174 203.608 29.235 204.137 30.1465C204.674 31.0579 205.595 31.5137 206.898 31.5137C208.001 31.5137 208.844 31.2539 209.428 30.7344C210.011 30.2148 210.321 29.39 210.357 28.2598H215.129ZM228.705 31.2812H222.129L220.98 35H215.854L223.154 15.0938H227.666L235.021 35H229.867L228.705 31.2812ZM223.277 27.5762H227.557L225.41 20.6719L223.277 27.5762ZM241.283 28.2461V35H236.484V15.0938H244.428C245.95 15.0938 247.294 15.3763 248.461 15.9414C249.637 16.4974 250.544 17.2949 251.182 18.334C251.829 19.3639 252.152 20.5352 252.152 21.8477C252.152 23.7891 251.455 25.3431 250.061 26.5098C248.675 27.6673 246.77 28.2461 244.346 28.2461H241.283ZM241.283 24.541H244.428C245.357 24.541 246.064 24.3086 246.547 23.8438C247.039 23.3789 247.285 22.7227 247.285 21.875C247.285 20.9453 247.035 20.2025 246.533 19.6465C246.032 19.0905 245.348 18.8079 244.482 18.7988H241.283V24.541ZM270.35 18.7988H264.375V35H259.576V18.7988H253.711V15.0938H270.35V18.7988ZM288.109 28.2598C288.046 29.6452 287.672 30.8711 286.988 31.9375C286.305 32.9948 285.343 33.8151 284.104 34.3984C282.873 34.9818 281.465 35.2734 279.879 35.2734C277.263 35.2734 275.203 34.4212 273.699 32.7168C272.195 31.0124 271.443 28.6061 271.443 25.498V24.5137C271.443 22.5632 271.781 20.8587 272.455 19.4004C273.139 17.9329 274.118 16.8027 275.395 16.0098C276.671 15.2077 278.147 14.8066 279.824 14.8066C282.24 14.8066 284.181 15.4447 285.648 16.7207C287.116 17.9876 287.95 19.7376 288.15 21.9707H283.365C283.329 20.7585 283.023 19.888 282.449 19.3594C281.875 18.8307 281 18.5664 279.824 18.5664C278.63 18.5664 277.755 19.013 277.199 19.9062C276.643 20.7995 276.352 22.2259 276.324 24.1855V25.5938C276.324 27.7174 276.589 29.235 277.117 30.1465C277.655 31.0579 278.576 31.5137 279.879 31.5137C280.982 31.5137 281.825 31.2539 282.408 30.7344C282.992 30.2148 283.301 29.39 283.338 28.2598H288.109ZM307.018 35H302.246V26.6875H295.178V35H290.379V15.0938H295.178V22.9961H302.246V15.0938H307.018V35ZM321.619 31.2812H315.043L313.895 35H308.768L316.068 15.0938H320.58L327.936 35H322.781L321.619 31.2812ZM316.191 27.5762H320.471L318.324 20.6719L316.191 27.5762Z" fill="#2950FB"/>
<path d="M21.3027 93.2461V100H16.5039V80.0938H24.4473C25.9694 80.0938 27.3138 80.3763 28.4805 80.9414C29.6562 81.4974 30.5632 82.2949 31.2012 83.334C31.8483 84.3639 32.1719 85.5352 32.1719 86.8477C32.1719 88.7891 31.4746 90.3431 30.0801 91.5098C28.6947 92.6673 26.7897 93.2461 24.3652 93.2461H21.3027ZM21.3027 89.541H24.4473C25.377 89.541 26.0833 89.3086 26.5664 88.8438C27.0586 88.3789 27.3047 87.7227 27.3047 86.875C27.3047 85.9453 27.054 85.2025 26.5527 84.6465C26.0514 84.0905 25.3678 83.8079 24.502 83.7988H21.3027V89.541ZM43.6152 96.2812H37.0391L35.8906 100H30.7637L38.0645 80.0938H42.5762L49.9316 100H44.7773L43.6152 96.2812ZM38.1875 92.5762H42.4668L40.3203 85.6719L38.1875 92.5762ZM58.791 92.9727H56.1934V100H51.3945V80.0938H59.2285C61.5892 80.0938 63.4349 80.6178 64.7656 81.666C66.0964 82.7142 66.7617 84.1953 66.7617 86.1094C66.7617 87.4948 66.4792 88.6432 65.9141 89.5547C65.3581 90.4661 64.4831 91.2044 63.2891 91.7695L67.4453 99.7949V100H62.3047L58.791 92.9727ZM56.1934 89.2676H59.2285C60.14 89.2676 60.8236 89.0306 61.2793 88.5566C61.7441 88.0736 61.9766 87.4036 61.9766 86.5469C61.9766 85.6901 61.7441 85.0202 61.2793 84.5371C60.8145 84.0449 60.1309 83.7988 59.2285 83.7988H56.1934V89.2676ZM82.0059 91.5645H74.459V96.3086H83.373V100H69.6602V80.0938H83.4004V83.7988H74.459V87.9961H82.0059V91.5645ZM90.4414 100H85.6562V80.0938H90.4414V100ZM93.7773 100V80.0938H100.189C101.949 80.0938 103.53 80.4948 104.934 81.2969C106.337 82.0898 107.431 83.2155 108.215 84.6738C109.008 86.123 109.409 87.75 109.418 89.5547V90.4707C109.418 92.2936 109.031 93.9297 108.256 95.3789C107.49 96.819 106.406 97.9492 105.002 98.7695C103.607 99.5807 102.049 99.9909 100.326 100H93.7773ZM98.5762 83.7988V96.3086H100.244C101.62 96.3086 102.678 95.821 103.416 94.8457C104.154 93.8613 104.523 92.403 104.523 90.4707V89.6094C104.523 87.6862 104.154 86.237 103.416 85.2617C102.678 84.2865 101.602 83.7988 100.189 83.7988H98.5762ZM128.736 90.457C128.736 92.3984 128.376 94.1165 127.656 95.6113C126.936 97.1061 125.911 98.2591 124.58 99.0703C123.258 99.8724 121.75 100.273 120.055 100.273C118.359 100.273 116.855 99.8861 115.543 99.1113C114.23 98.3275 113.205 97.2109 112.467 95.7617C111.738 94.3125 111.355 92.6491 111.318 90.7715V89.6504C111.318 87.6999 111.674 85.9818 112.385 84.4961C113.105 83.0013 114.13 81.8483 115.461 81.0371C116.801 80.2259 118.323 79.8203 120.027 79.8203C121.714 79.8203 123.217 80.2214 124.539 81.0234C125.861 81.8255 126.886 82.9694 127.615 84.4551C128.354 85.9316 128.727 87.627 128.736 89.541V90.457ZM123.855 89.623C123.855 87.6452 123.523 86.1458 122.857 85.125C122.201 84.0951 121.258 83.5801 120.027 83.5801C117.621 83.5801 116.35 85.3848 116.213 88.9941L116.199 90.457C116.199 92.4076 116.523 93.9069 117.17 94.9551C117.817 96.0033 118.779 96.5273 120.055 96.5273C121.267 96.5273 122.201 96.0124 122.857 94.9824C123.514 93.9525 123.846 92.4714 123.855 90.5391V89.623ZM136.01 93.2461V100H131.211V80.0938H139.154C140.676 80.0938 142.021 80.3763 143.188 80.9414C144.363 81.4974 145.27 82.2949 145.908 83.334C146.555 84.3639 146.879 85.5352 146.879 86.8477C146.879 88.7891 146.182 90.3431 144.787 91.5098C143.402 92.6673 141.497 93.2461 139.072 93.2461H136.01ZM136.01 89.541H139.154C140.084 89.541 140.79 89.3086 141.273 88.8438C141.766 88.3789 142.012 87.7227 142.012 86.875C142.012 85.9453 141.761 85.2025 141.26 84.6465C140.758 84.0905 140.075 83.8079 139.209 83.7988H136.01V89.541ZM165.076 83.7988H159.102V100H154.303V83.7988H148.438V80.0938H165.076V83.7988ZM182.836 93.2598C182.772 94.6452 182.398 95.8711 181.715 96.9375C181.031 97.9948 180.07 98.8151 178.83 99.3984C177.6 99.9818 176.191 100.273 174.605 100.273C171.99 100.273 169.93 99.4212 168.426 97.7168C166.922 96.0124 166.17 93.6061 166.17 90.498V89.5137C166.17 87.5632 166.507 85.8587 167.182 84.4004C167.865 82.9329 168.845 81.8027 170.121 81.0098C171.397 80.2077 172.874 79.8066 174.551 79.8066C176.966 79.8066 178.908 80.4447 180.375 81.7207C181.842 82.9876 182.676 84.7376 182.877 86.9707H178.092C178.055 85.7585 177.75 84.888 177.176 84.3594C176.602 83.8307 175.727 83.5664 174.551 83.5664C173.357 83.5664 172.482 84.013 171.926 84.9062C171.37 85.7995 171.078 87.2259 171.051 89.1855V90.5938C171.051 92.7174 171.315 94.235 171.844 95.1465C172.382 96.0579 173.302 96.5137 174.605 96.5137C175.708 96.5137 176.551 96.2539 177.135 95.7344C177.718 95.2148 178.028 94.39 178.064 93.2598H182.836ZM201.744 100H196.973V91.6875H189.904V100H185.105V80.0938H189.904V87.9961H196.973V80.0938H201.744V100ZM216.346 96.2812H209.77L208.621 100H203.494L210.795 80.0938H215.307L222.662 100H217.508L216.346 96.2812ZM210.918 92.5762H215.197L213.051 85.6719L210.918 92.5762Z" fill="black"/>
<path d="M20 46V64L26 59.0685" stroke="#2950FB" stroke-width="3"/>
</svg>
