<svg width="286" height="273" viewBox="0 0 286 273" fill="none" xmlns="http://www.w3.org/2000/svg">
<circle opacity="0.2" cx="145" cy="144" r="71" fill="#ED394A"/>
<circle opacity="0.2" cx="145" cy="144" r="42" fill="#ED394A"/>
<circle opacity="0.2" cx="145" cy="144" r="18" fill="#ED394A"/>
<path d="M47.8506 123.314C51.5084 104.568 60.7747 87.6474 73.6988 74.3789" stroke="#ED394A" stroke-width="3.565" stroke-miterlimit="10"/>
<path d="M77.7222 77.5438L79.673 70.9704C80.0388 69.6314 78.8195 68.4141 77.4783 68.7793L70.8943 70.3618C69.5532 70.7269 69.0655 72.3094 70.0409 73.2833L74.796 78.1524C75.6494 79.248 77.3564 78.8828 77.7222 77.5438Z" fill="#ED394A"/>
<path d="M177.335 233.722C166.728 237.618 155.389 239.809 143.44 239.809C134.783 239.809 126.492 238.713 118.445 236.644" stroke="#ED394A" stroke-width="3.565" stroke-miterlimit="10"/>
<path d="M119.177 231.531L112.593 233.114C111.251 233.479 110.764 235.061 111.739 236.035L116.372 241.026C117.348 242 118.933 241.635 119.42 240.296L121.371 233.844C121.737 232.383 120.518 231.166 119.177 231.531Z" fill="#ED394A"/>
<path d="M205.5 67.1968C220.863 79.8566 232.202 97.0204 237.566 116.619" stroke="#ED394A" stroke-width="3.565" stroke-miterlimit="10"/>
<path d="M232.812 118.567L237.445 123.557C238.42 124.531 240.005 124.166 240.493 122.827L242.444 116.375C242.81 115.036 241.712 113.819 240.371 114.184L233.787 115.767C232.324 115.889 231.836 117.593 232.812 118.567Z" fill="#ED394A"/>
<path d="M146.854 28H120.03C117.348 28 115.275 30.1911 115.275 32.7474V48.5722C115.275 51.2503 117.47 53.3197 120.03 53.3197H146.854C149.537 53.3197 151.609 51.1286 151.609 48.5722V32.7474C151.609 30.1911 149.537 28 146.854 28ZM148.927 48.5722C148.927 49.6678 148.073 50.6416 146.854 50.6416H120.03C118.933 50.6416 117.958 49.7895 117.958 48.5722V32.7474C117.958 31.6519 118.811 30.678 120.03 30.678H146.854C147.951 30.678 148.927 31.5301 148.927 32.7474V48.5722Z" fill="#ED394A"/>
<path d="M142.709 60.6234H139.538L138.441 55.7542C138.319 55.0238 137.588 54.5369 136.856 54.7804C136.125 54.9021 135.637 55.6325 135.881 56.3629L136.856 60.5016H130.15L131.126 56.3629C131.247 55.6325 130.882 54.9021 130.15 54.7804C129.419 54.6586 128.687 55.0238 128.565 55.7542L127.468 60.6234H124.298C123.566 60.6234 122.957 61.232 122.957 61.9624C122.957 62.6928 123.566 63.3014 124.298 63.3014H128.443H138.563H142.709C143.44 63.3014 144.05 62.6928 144.05 61.9624C144.05 61.232 143.44 60.6234 142.709 60.6234Z" fill="#ED394A"/>
<path d="M174.287 28H156.486C155.755 28 155.145 28.6086 155.145 29.339V61.9625C155.145 62.6928 155.755 63.3015 156.486 63.3015H174.287C175.019 63.3015 175.629 62.6928 175.629 61.9625V29.339C175.75 28.6086 175.141 28 174.287 28ZM172.946 60.6234H157.827V30.678H172.946V60.6234Z" fill="#ED394A"/>
<path d="M161.973 37.4949H168.923C169.654 37.4949 170.264 36.8863 170.264 36.1559C170.264 35.4255 169.654 34.8169 168.923 34.8169H161.973C161.241 34.8169 160.632 35.4255 160.632 36.1559C160.632 36.8863 161.241 37.4949 161.973 37.4949Z" fill="#ED394A"/>
<path d="M161.973 42.9727H168.923C169.654 42.9727 170.264 42.3641 170.264 41.6337C170.264 40.9033 169.654 40.2947 168.923 40.2947H161.973C161.241 40.2947 160.632 40.9033 160.632 41.6337C160.632 42.3641 161.241 42.9727 161.973 42.9727Z" fill="#ED394A"/>
<path d="M165.387 52.3459C164.289 52.3459 163.314 53.3198 163.314 54.4153C163.314 55.5109 164.289 56.4847 165.387 56.4847C166.484 56.4847 167.459 55.5109 167.459 54.4153C167.459 53.3198 166.484 52.3459 165.387 52.3459ZM165.387 55.1457C165.021 55.1457 164.655 54.7805 164.655 54.4153C164.655 54.0502 165.021 53.685 165.387 53.685C165.752 53.685 166.118 54.0502 166.118 54.4153C166.118 54.7805 165.752 55.1457 165.387 55.1457Z" fill="#ED394A"/>
<path d="M226.959 211.811V199.029C235.982 198.421 243.054 190.995 243.054 181.866V181.744C243.054 181.135 242.566 180.648 241.956 180.648C242.078 179.918 242.2 179.188 242.2 178.457C242.2 173.832 238.664 170.058 234.153 169.814C233.056 166.163 229.642 163.485 225.74 163.606C221.839 163.606 218.425 166.163 217.327 169.936C212.816 170.301 209.28 174.075 209.28 178.579C209.28 179.309 209.402 180.04 209.524 180.77C208.914 180.77 208.427 181.257 208.427 181.866V181.987C208.427 191.117 215.62 198.543 224.521 199.151V211.933C220.985 212.298 217.937 214.367 216.23 217.532C215.986 217.897 216.108 218.263 216.23 218.628C216.474 218.993 216.84 219.115 217.205 219.115H234.031C234.397 219.115 234.763 218.871 235.007 218.628C235.25 218.263 235.25 217.897 235.007 217.532C233.543 214.246 230.495 212.176 226.959 211.811ZM240.006 178.579C240.006 179.309 239.884 180.04 239.64 180.77H227.447C227.325 180.405 227.203 180.161 227.203 179.796C227.081 179.431 227.081 179.066 227.081 178.701C227.081 175.171 229.886 172.371 233.422 172.249C233.543 172.249 233.543 172.249 233.665 172.249C237.079 172.006 240.006 174.927 240.006 178.579ZM225.862 165.797C228.545 165.797 230.983 167.502 231.958 169.936C230.251 170.301 228.666 171.153 227.325 172.371C226.716 172.979 226.228 173.588 225.862 174.318C225.496 173.588 225.009 172.979 224.399 172.371C223.18 171.032 221.473 170.18 219.766 169.936C220.741 167.502 223.058 165.797 225.862 165.797ZM218.059 172.127C218.181 172.127 218.181 172.127 218.303 172.127C221.839 172.249 224.643 175.049 224.643 178.579C224.643 178.944 224.643 179.309 224.521 179.796C224.399 180.161 224.399 180.527 224.277 180.77H212.085C211.841 180.04 211.719 179.309 211.719 178.579C211.597 174.927 214.523 172.127 218.059 172.127ZM210.865 182.961H240.737C240.249 190.752 233.665 196.96 225.74 196.96C217.937 196.96 211.353 190.752 210.865 182.961ZM219.522 216.924C221.107 215.098 223.424 214.124 225.862 214.124C228.301 214.124 230.617 215.219 232.202 216.924H219.522Z" fill="#ED394A"/>
<path d="M264.39 155.207L256.343 151.799C255.978 151.677 255.612 151.677 255.368 151.799C255.124 151.92 254.88 152.285 254.758 152.651L253.539 160.685H244.76L243.297 155.085C243.175 154.477 242.566 154.111 241.956 154.233C241.346 154.355 240.981 154.964 241.103 155.572L242.444 160.685H236.104C235.738 160.685 235.494 160.807 235.25 161.05C235.006 161.293 234.884 161.537 235.006 161.902L235.616 168.475C235.616 169.084 236.226 169.571 236.835 169.449C237.445 169.449 237.933 168.841 237.811 168.232L237.689 166.893H258.782L258.05 174.562H243.907C243.297 174.562 242.81 175.049 242.81 175.658C242.81 176.266 243.297 176.753 243.907 176.753H257.806L257.563 179.431H245.126C244.517 179.431 244.029 179.918 244.029 180.527C244.029 181.135 244.517 181.622 245.126 181.622H257.441L256.953 187.587H243.785C243.175 187.587 242.688 188.074 242.688 188.683C242.688 189.291 243.175 189.778 243.785 189.778H256.709L256.221 194.647H240.005C239.761 194.282 239.396 194.039 238.908 194.039C238.298 194.16 237.811 194.647 237.933 195.256L238.054 196.838C238.298 199.395 239.396 201.708 241.346 203.412C242.931 204.873 244.882 205.725 247.077 205.968V212.907C244.517 213.272 242.2 214.854 240.981 217.167C240.737 217.532 240.859 217.898 240.981 218.263C241.225 218.628 241.59 218.75 241.956 218.75H254.392C254.758 218.75 255.124 218.506 255.368 218.263C255.612 217.898 255.612 217.532 255.368 217.167C254.149 214.854 251.832 213.272 249.272 212.907V205.968C251.344 205.725 253.417 204.873 255.002 203.412C256.831 201.708 258.05 199.395 258.294 196.838L261.464 161.659C261.464 161.293 261.342 161.05 261.22 160.807C260.976 160.563 260.733 160.441 260.367 160.441H255.856L256.831 154.233L263.659 157.033C264.268 157.276 264.878 157.033 265.122 156.424C265.244 156.181 264.878 155.45 264.39 155.207ZM253.173 162.998L252.929 164.824H245.858L245.37 162.998H253.173ZM237.201 162.998H242.931L243.419 164.824H237.323L237.201 162.998ZM244.273 216.924C245.37 215.95 246.711 215.463 248.174 215.463C249.637 215.463 250.979 215.95 252.076 216.924H244.273ZM248.174 204.142C244.151 204.142 240.859 201.221 240.371 197.204H256.099C255.49 201.099 252.198 204.142 248.174 204.142ZM259.026 162.998L258.904 164.824H255.124L255.368 162.998H259.026Z" fill="#ED394A"/>
<path d="M89.6708 213.15H39.6813V163.241C39.6813 162.511 39.0717 161.902 38.3401 161.902C37.6086 161.902 36.999 162.511 36.999 163.241V213.15H33.3412C32.6096 213.15 32 213.759 32 214.489C32 215.22 32.6096 215.828 33.3412 215.828H37.1209V219.602C37.1209 220.332 37.7305 220.941 38.4621 220.941C39.1936 220.941 39.8032 220.332 39.8032 219.602V215.828H89.7928C90.5243 215.828 91.134 215.22 91.134 214.489C91.134 213.759 90.4024 213.15 89.6708 213.15Z" fill="#ED394A"/>
<path d="M46.9968 210.472C49.5573 210.472 51.5081 208.403 51.5081 205.968C51.5081 204.994 51.1423 204.02 50.6546 203.29L58.4579 193.917C58.9456 194.16 59.5552 194.282 60.1648 194.282C61.2621 194.282 62.3595 193.795 63.213 193.186L68.9435 196.717C68.8215 197.082 68.8215 197.447 68.8215 197.812C68.8215 200.369 70.8943 202.316 73.3328 202.316C75.8932 202.316 77.844 200.247 77.844 197.812C77.844 196.473 77.2344 195.256 76.3809 194.526L85.7692 175.049C86.0131 175.049 86.2569 175.171 86.5008 175.171C89.0612 175.171 91.012 173.101 91.012 170.667C91.012 168.11 88.9393 166.163 86.5008 166.163C83.9403 166.163 81.9895 168.232 81.9895 170.667C81.9895 172.006 82.4772 173.101 83.4526 173.953L74.0643 193.43C73.8205 193.43 73.5766 193.43 73.3328 193.43C72.2355 193.43 71.1381 193.917 70.2846 194.526L64.5541 190.995C64.6761 190.63 64.6761 190.265 64.6761 189.9C64.6761 187.343 62.6033 185.396 60.1648 185.396C57.6044 185.396 55.6536 187.465 55.6536 189.9C55.6536 190.874 55.8974 191.726 56.3851 192.456L48.5819 201.951C48.0942 201.829 47.6065 201.708 46.9968 201.708C44.4364 201.708 42.4856 203.777 42.4856 206.212C42.3637 208.403 44.4364 210.472 46.9968 210.472ZM86.5008 168.597C87.4762 168.597 88.3297 169.449 88.3297 170.423C88.3297 171.397 87.4762 172.249 86.5008 172.249C85.5254 172.249 84.6719 171.397 84.6719 170.423C84.55 169.449 85.4034 168.597 86.5008 168.597ZM73.3328 195.865C74.3082 195.865 75.1617 196.717 75.1617 197.69C75.1617 198.664 74.3082 199.516 73.3328 199.516C72.3574 199.516 71.5039 198.664 71.5039 197.69C71.382 196.717 72.2355 195.865 73.3328 195.865ZM60.1648 187.83C61.1402 187.83 61.9937 188.683 61.9937 189.656C61.9937 190.63 61.1402 191.482 60.1648 191.482C59.1894 191.482 58.3359 190.63 58.3359 189.656C58.214 188.683 59.0675 187.83 60.1648 187.83ZM46.9968 204.02C47.9722 204.02 48.8257 204.873 48.8257 205.846C48.8257 206.82 47.9722 207.672 46.9968 207.672C46.0214 207.672 45.168 206.82 45.168 205.846C45.046 204.873 45.8995 204.02 46.9968 204.02Z" fill="#ED394A"/>
<path d="M92.3014 20V11.39L91.1814 11.26C91.0414 11.2267 90.9247 11.1767 90.8314 11.11C90.7447 11.0367 90.7014 10.9333 90.7014 10.8V10.07H92.3014V9.09C92.3014 8.51 92.3814 7.99667 92.5414 7.55C92.7081 7.09667 92.9414 6.71667 93.2414 6.41C93.5481 6.09667 93.9147 5.86 94.3414 5.7C94.7681 5.54 95.2481 5.46 95.7814 5.46C96.2347 5.46 96.6547 5.52667 97.0414 5.66L97.0014 6.55C96.9947 6.68333 96.9381 6.76333 96.8314 6.79C96.7247 6.81667 96.5747 6.83 96.3814 6.83H96.0714C95.7647 6.83 95.4847 6.87 95.2314 6.95C94.9847 7.03 94.7714 7.16 94.5914 7.34C94.4114 7.52 94.2714 7.75667 94.1714 8.05C94.0781 8.34333 94.0314 8.70667 94.0314 9.14V10.07H96.9614V11.36H94.0914V20H92.3014ZM106.08 20H105.29C105.116 20 104.976 19.9733 104.87 19.92C104.763 19.8667 104.693 19.7533 104.66 19.58L104.46 18.64C104.193 18.88 103.933 19.0967 103.68 19.29C103.426 19.4767 103.16 19.6367 102.88 19.77C102.6 19.8967 102.3 19.9933 101.98 20.06C101.666 20.1267 101.316 20.16 100.93 20.16C100.536 20.16 100.166 20.1067 99.8197 20C99.4797 19.8867 99.183 19.72 98.9297 19.5C98.6764 19.28 98.473 19.0033 98.3197 18.67C98.173 18.33 98.0997 17.93 98.0997 17.47C98.0997 17.07 98.2097 16.6867 98.4297 16.32C98.6497 15.9467 99.003 15.6167 99.4897 15.33C99.983 15.0433 100.626 14.81 101.42 14.63C102.213 14.4433 103.183 14.3367 104.33 14.31V13.52C104.33 12.7333 104.16 12.14 103.82 11.74C103.486 11.3333 102.99 11.13 102.33 11.13C101.896 11.13 101.53 11.1867 101.23 11.3C100.936 11.4067 100.68 11.53 100.46 11.67C100.246 11.8033 100.06 11.9267 99.8997 12.04C99.7464 12.1467 99.593 12.2 99.4397 12.2C99.3197 12.2 99.213 12.17 99.1197 12.11C99.033 12.0433 98.963 11.9633 98.9097 11.87L98.5897 11.3C99.1497 10.76 99.753 10.3567 100.4 10.09C101.046 9.82333 101.763 9.69 102.55 9.69C103.116 9.69 103.62 9.78333 104.06 9.97C104.5 10.1567 104.87 10.4167 105.17 10.75C105.47 11.0833 105.696 11.4867 105.85 11.96C106.003 12.4333 106.08 12.9533 106.08 13.52V20ZM101.46 18.91C101.773 18.91 102.06 18.88 102.32 18.82C102.58 18.7533 102.823 18.6633 103.05 18.55C103.283 18.43 103.503 18.2867 103.71 18.12C103.923 17.9533 104.13 17.7633 104.33 17.55V15.44C103.51 15.4667 102.813 15.5333 102.24 15.64C101.666 15.74 101.2 15.8733 100.84 16.04C100.48 16.2067 100.216 16.4033 100.05 16.63C99.8897 16.8567 99.8097 17.11 99.8097 17.39C99.8097 17.6567 99.853 17.8867 99.9397 18.08C100.026 18.2733 100.143 18.4333 100.29 18.56C100.436 18.68 100.61 18.77 100.81 18.83C101.01 18.8833 101.226 18.91 101.46 18.91ZM111.846 20.16C111.046 20.16 110.43 19.9367 109.996 19.49C109.57 19.0433 109.356 18.4 109.356 17.56V11.36H108.136C108.03 11.36 107.94 11.33 107.866 11.27C107.793 11.2033 107.756 11.1033 107.756 10.97V10.26L109.416 10.05L109.826 6.92C109.84 6.82 109.883 6.74 109.956 6.68C110.03 6.61333 110.123 6.58 110.236 6.58H111.136V10.07H114.036V11.36H111.136V17.44C111.136 17.8667 111.24 18.1833 111.446 18.39C111.653 18.5967 111.92 18.7 112.246 18.7C112.433 18.7 112.593 18.6767 112.726 18.63C112.866 18.5767 112.986 18.52 113.086 18.46C113.186 18.4 113.27 18.3467 113.336 18.3C113.41 18.2467 113.473 18.22 113.526 18.22C113.62 18.22 113.703 18.2767 113.776 18.39L114.296 19.24C113.99 19.5267 113.62 19.7533 113.186 19.92C112.753 20.08 112.306 20.16 111.846 20.16ZM118.217 9.87V20H116.437V9.87H118.217ZM118.617 6.69C118.617 6.86333 118.581 7.02667 118.507 7.18C118.441 7.32667 118.347 7.46 118.227 7.58C118.114 7.69333 117.981 7.78333 117.827 7.85C117.674 7.91667 117.511 7.95 117.337 7.95C117.164 7.95 117.001 7.91667 116.847 7.85C116.701 7.78333 116.567 7.69333 116.447 7.58C116.334 7.46 116.244 7.32667 116.177 7.18C116.111 7.02667 116.077 6.86333 116.077 6.69C116.077 6.51667 116.111 6.35333 116.177 6.2C116.244 6.04 116.334 5.90333 116.447 5.79C116.567 5.67 116.701 5.57667 116.847 5.51C117.001 5.44333 117.164 5.41 117.337 5.41C117.511 5.41 117.674 5.44333 117.827 5.51C117.981 5.57667 118.114 5.67 118.227 5.79C118.347 5.90333 118.441 6.04 118.507 6.2C118.581 6.35333 118.617 6.51667 118.617 6.69ZM124.765 9.7C125.205 9.7 125.615 9.75 125.995 9.85C126.381 9.94333 126.731 10.0833 127.045 10.27H129.795V10.93C129.795 11.15 129.655 11.29 129.375 11.35L128.225 11.51C128.451 11.9433 128.565 12.4267 128.565 12.96C128.565 13.4533 128.468 13.9033 128.275 14.31C128.088 14.71 127.825 15.0533 127.485 15.34C127.151 15.6267 126.751 15.8467 126.285 16C125.825 16.1533 125.318 16.23 124.765 16.23C124.291 16.23 123.845 16.1733 123.425 16.06C123.211 16.1933 123.048 16.3367 122.935 16.49C122.828 16.6433 122.775 16.7933 122.775 16.94C122.775 17.18 122.871 17.3633 123.065 17.49C123.258 17.61 123.515 17.6967 123.835 17.75C124.155 17.8033 124.518 17.8367 124.925 17.85C125.331 17.8633 125.745 17.8867 126.165 17.92C126.591 17.9467 127.008 17.9967 127.415 18.07C127.821 18.1433 128.185 18.2633 128.505 18.43C128.825 18.5967 129.081 18.8267 129.275 19.12C129.468 19.4133 129.565 19.7933 129.565 20.26C129.565 20.6933 129.455 21.1133 129.235 21.52C129.021 21.9267 128.711 22.2867 128.305 22.6C127.898 22.92 127.401 23.1733 126.815 23.36C126.228 23.5533 125.565 23.65 124.825 23.65C124.085 23.65 123.435 23.5767 122.875 23.43C122.321 23.2833 121.861 23.0867 121.495 22.84C121.128 22.5933 120.851 22.3067 120.665 21.98C120.485 21.66 120.395 21.3233 120.395 20.97C120.395 20.47 120.551 20.0467 120.865 19.7C121.185 19.3467 121.621 19.0667 122.175 18.86C121.888 18.7267 121.658 18.55 121.485 18.33C121.318 18.1033 121.235 17.8033 121.235 17.43C121.235 17.2833 121.261 17.1333 121.315 16.98C121.368 16.82 121.448 16.6633 121.555 16.51C121.668 16.3567 121.805 16.21 121.965 16.07C122.125 15.93 122.311 15.8067 122.525 15.7C122.025 15.42 121.631 15.05 121.345 14.59C121.065 14.1233 120.925 13.58 120.925 12.96C120.925 12.4667 121.018 12.02 121.205 11.62C121.398 11.2133 121.665 10.87 122.005 10.59C122.345 10.3033 122.748 10.0833 123.215 9.93C123.688 9.77667 124.205 9.7 124.765 9.7ZM127.925 20.55C127.925 20.2967 127.855 20.0933 127.715 19.94C127.575 19.7867 127.385 19.67 127.145 19.59C126.905 19.5033 126.628 19.44 126.315 19.4C126.001 19.36 125.671 19.3333 125.325 19.32C124.978 19.3 124.625 19.28 124.265 19.26C123.905 19.24 123.561 19.2033 123.235 19.15C122.855 19.33 122.545 19.55 122.305 19.81C122.071 20.07 121.955 20.38 121.955 20.74C121.955 20.9667 122.011 21.1767 122.125 21.37C122.245 21.57 122.425 21.74 122.665 21.88C122.905 22.0267 123.205 22.14 123.565 22.22C123.931 22.3067 124.361 22.35 124.855 22.35C125.335 22.35 125.765 22.3067 126.145 22.22C126.525 22.1333 126.845 22.01 127.105 21.85C127.371 21.69 127.575 21.5 127.715 21.28C127.855 21.06 127.925 20.8167 127.925 20.55ZM124.765 15.05C125.125 15.05 125.441 15 125.715 14.9C125.995 14.8 126.228 14.66 126.415 14.48C126.601 14.3 126.741 14.0867 126.835 13.84C126.928 13.5867 126.975 13.31 126.975 13.01C126.975 12.39 126.785 11.8967 126.405 11.53C126.031 11.1633 125.485 10.98 124.765 10.98C124.051 10.98 123.505 11.1633 123.125 11.53C122.751 11.8967 122.565 12.39 122.565 13.01C122.565 13.31 122.611 13.5867 122.705 13.84C122.805 14.0867 122.948 14.3 123.135 14.48C123.321 14.66 123.551 14.8 123.825 14.9C124.098 15 124.411 15.05 124.765 15.05ZM133.109 9.87V16.33C133.109 17.0967 133.286 17.69 133.639 18.11C133.993 18.53 134.526 18.74 135.239 18.74C135.759 18.74 136.249 18.6167 136.709 18.37C137.169 18.1233 137.593 17.78 137.979 17.34V9.87H139.759V20H138.699C138.446 20 138.286 19.8767 138.219 19.63L138.079 18.54C137.639 19.0267 137.146 19.42 136.599 19.72C136.053 20.0133 135.426 20.16 134.719 20.16C134.166 20.16 133.676 20.07 133.249 19.89C132.829 19.7033 132.476 19.4433 132.189 19.11C131.903 18.7767 131.686 18.3733 131.539 17.9C131.399 17.4267 131.329 16.9033 131.329 16.33V9.87H133.109ZM146.693 9.71C147.299 9.71 147.859 9.81333 148.373 10.02C148.886 10.22 149.329 10.5133 149.703 10.9C150.076 11.28 150.366 11.7533 150.573 12.32C150.786 12.88 150.893 13.52 150.893 14.24C150.893 14.52 150.863 14.7067 150.803 14.8C150.743 14.8933 150.629 14.94 150.463 14.94H143.723C143.736 15.58 143.823 16.1367 143.983 16.61C144.143 17.0833 144.363 17.48 144.643 17.8C144.923 18.1133 145.256 18.35 145.643 18.51C146.029 18.6633 146.463 18.74 146.943 18.74C147.389 18.74 147.773 18.69 148.093 18.59C148.419 18.4833 148.699 18.37 148.933 18.25C149.166 18.13 149.359 18.02 149.513 17.92C149.673 17.8133 149.809 17.76 149.923 17.76C150.069 17.76 150.183 17.8167 150.263 17.93L150.763 18.58C150.543 18.8467 150.279 19.08 149.973 19.28C149.666 19.4733 149.336 19.6333 148.983 19.76C148.636 19.8867 148.276 19.98 147.903 20.04C147.529 20.1067 147.159 20.14 146.793 20.14C146.093 20.14 145.446 20.0233 144.853 19.79C144.266 19.55 143.756 19.2033 143.323 18.75C142.896 18.29 142.563 17.7233 142.323 17.05C142.083 16.3767 141.963 15.6033 141.963 14.73C141.963 14.0233 142.069 13.3633 142.283 12.75C142.503 12.1367 142.816 11.6067 143.223 11.16C143.629 10.7067 144.126 10.3533 144.713 10.1C145.299 9.84 145.959 9.71 146.693 9.71ZM146.733 11.02C145.873 11.02 145.196 11.27 144.703 11.77C144.209 12.2633 143.903 12.95 143.783 13.83H149.293C149.293 13.4167 149.236 13.04 149.123 12.7C149.009 12.3533 148.843 12.0567 148.623 11.81C148.403 11.5567 148.133 11.3633 147.813 11.23C147.499 11.09 147.139 11.02 146.733 11.02ZM155.718 9.87H157.118C157.265 9.87 157.385 9.90667 157.478 9.98C157.571 10.0533 157.635 10.14 157.668 10.24L159.608 16.76C159.661 17 159.711 17.2333 159.758 17.46C159.805 17.68 159.845 17.9033 159.878 18.13C159.931 17.9033 159.991 17.68 160.058 17.46C160.125 17.2333 160.195 17 160.268 16.76L162.408 10.2C162.441 10.1 162.498 10.0167 162.578 9.95C162.665 9.88333 162.771 9.85 162.898 9.85H163.668C163.801 9.85 163.911 9.88333 163.998 9.95C164.085 10.0167 164.145 10.1 164.178 10.2L166.268 16.76C166.341 16.9933 166.405 17.2233 166.458 17.45C166.518 17.6767 166.575 17.9 166.628 18.12C166.661 17.9 166.705 17.67 166.758 17.43C166.811 17.19 166.868 16.9667 166.928 16.76L168.908 10.24C168.941 10.1333 169.005 10.0467 169.098 9.98C169.191 9.90667 169.301 9.87 169.428 9.87H170.768L167.488 20H166.078C165.905 20 165.785 19.8867 165.718 19.66L163.478 12.79C163.425 12.6367 163.381 12.4833 163.348 12.33C163.315 12.17 163.281 12.0133 163.248 11.86C163.215 12.0133 163.181 12.17 163.148 12.33C163.115 12.49 163.071 12.6467 163.018 12.8L160.748 19.66C160.675 19.8867 160.538 20 160.338 20H158.998L155.718 9.87ZM176.451 9.71C177.191 9.71 177.857 9.83333 178.451 10.08C179.051 10.3267 179.557 10.6767 179.971 11.13C180.391 11.5833 180.711 12.1333 180.931 12.78C181.157 13.42 181.271 14.1367 181.271 14.93C181.271 15.73 181.157 16.45 180.931 17.09C180.711 17.73 180.391 18.2767 179.971 18.73C179.557 19.1833 179.051 19.5333 178.451 19.78C177.857 20.02 177.191 20.14 176.451 20.14C175.711 20.14 175.041 20.02 174.441 19.78C173.847 19.5333 173.341 19.1833 172.921 18.73C172.501 18.2767 172.177 17.73 171.951 17.09C171.724 16.45 171.611 15.73 171.611 14.93C171.611 14.1367 171.724 13.42 171.951 12.78C172.177 12.1333 172.501 11.5833 172.921 11.13C173.341 10.6767 173.847 10.3267 174.441 10.08C175.041 9.83333 175.711 9.71 176.451 9.71ZM176.451 18.75C177.451 18.75 178.197 18.4167 178.691 17.75C179.184 17.0767 179.431 16.14 179.431 14.94C179.431 13.7333 179.184 12.7933 178.691 12.12C178.197 11.4467 177.451 11.11 176.451 11.11C175.944 11.11 175.504 11.1967 175.131 11.37C174.757 11.5433 174.444 11.7933 174.191 12.12C173.944 12.4467 173.757 12.85 173.631 13.33C173.511 13.8033 173.451 14.34 173.451 14.94C173.451 15.54 173.511 16.0767 173.631 16.55C173.757 17.0233 173.944 17.4233 174.191 17.75C174.444 18.07 174.757 18.3167 175.131 18.49C175.504 18.6633 175.944 18.75 176.451 18.75ZM183.464 20V9.87H184.484C184.677 9.87 184.811 9.90667 184.884 9.98C184.957 10.0533 185.007 10.18 185.034 10.36L185.154 11.94C185.501 11.2333 185.927 10.6833 186.434 10.29C186.947 9.89 187.547 9.69 188.234 9.69C188.514 9.69 188.767 9.72333 188.994 9.79C189.221 9.85 189.431 9.93667 189.624 10.05L189.394 11.38C189.347 11.5467 189.244 11.63 189.084 11.63C188.991 11.63 188.847 11.6 188.654 11.54C188.461 11.4733 188.191 11.44 187.844 11.44C187.224 11.44 186.704 11.62 186.284 11.98C185.871 12.34 185.524 12.8633 185.244 13.55V20H183.464ZM193.38 5.27V13.94H193.84C193.974 13.94 194.084 13.9233 194.17 13.89C194.257 13.85 194.354 13.7733 194.46 13.66L197.66 10.23C197.76 10.1233 197.86 10.0367 197.96 9.97C198.06 9.90333 198.194 9.87 198.36 9.87H199.98L196.25 13.84C196.157 13.9533 196.064 14.0533 195.97 14.14C195.884 14.2267 195.784 14.3033 195.67 14.37C195.79 14.45 195.897 14.5433 195.99 14.65C196.09 14.75 196.184 14.8667 196.27 15L200.23 20H198.63C198.484 20 198.357 19.9733 198.25 19.92C198.15 19.86 198.054 19.77 197.96 19.65L194.63 15.5C194.53 15.36 194.43 15.27 194.33 15.23C194.23 15.1833 194.08 15.16 193.88 15.16H193.38V20H191.59V5.27H193.38Z" fill="#ED394A"/>
<path d="M208.739 236.67C208.686 236.743 208.632 236.8 208.579 236.84C208.526 236.88 208.449 236.9 208.349 236.9C208.249 236.9 208.139 236.86 208.019 236.78C207.906 236.693 207.759 236.6 207.579 236.5C207.399 236.4 207.179 236.31 206.919 236.23C206.666 236.143 206.352 236.1 205.979 236.1C205.486 236.1 205.049 236.19 204.669 236.37C204.289 236.543 203.969 236.797 203.709 237.13C203.456 237.463 203.262 237.867 203.129 238.34C203.002 238.813 202.939 239.343 202.939 239.93C202.939 240.543 203.009 241.09 203.149 241.57C203.289 242.043 203.486 242.443 203.739 242.77C203.992 243.09 204.299 243.337 204.659 243.51C205.026 243.677 205.436 243.76 205.889 243.76C206.322 243.76 206.679 243.71 206.959 243.61C207.239 243.503 207.472 243.387 207.659 243.26C207.846 243.133 207.999 243.02 208.119 242.92C208.239 242.813 208.359 242.76 208.479 242.76C208.632 242.76 208.746 242.817 208.819 242.93L209.319 243.58C208.879 244.12 208.329 244.517 207.669 244.77C207.009 245.017 206.312 245.14 205.579 245.14C204.946 245.14 204.356 245.023 203.809 244.79C203.269 244.557 202.799 244.22 202.399 243.78C201.999 243.333 201.682 242.787 201.449 242.14C201.222 241.493 201.109 240.757 201.109 239.93C201.109 239.177 201.212 238.48 201.419 237.84C201.632 237.2 201.939 236.65 202.339 236.19C202.746 235.723 203.246 235.36 203.839 235.1C204.432 234.84 205.112 234.71 205.879 234.71C206.586 234.71 207.212 234.827 207.759 235.06C208.306 235.287 208.789 235.61 209.209 236.03L208.739 236.67ZM215.265 234.71C216.005 234.71 216.672 234.833 217.265 235.08C217.865 235.327 218.372 235.677 218.785 236.13C219.205 236.583 219.525 237.133 219.745 237.78C219.972 238.42 220.085 239.137 220.085 239.93C220.085 240.73 219.972 241.45 219.745 242.09C219.525 242.73 219.205 243.277 218.785 243.73C218.372 244.183 217.865 244.533 217.265 244.78C216.672 245.02 216.005 245.14 215.265 245.14C214.525 245.14 213.855 245.02 213.255 244.78C212.662 244.533 212.155 244.183 211.735 243.73C211.315 243.277 210.992 242.73 210.765 242.09C210.538 241.45 210.425 240.73 210.425 239.93C210.425 239.137 210.538 238.42 210.765 237.78C210.992 237.133 211.315 236.583 211.735 236.13C212.155 235.677 212.662 235.327 213.255 235.08C213.855 234.833 214.525 234.71 215.265 234.71ZM215.265 243.75C216.265 243.75 217.012 243.417 217.505 242.75C217.998 242.077 218.245 241.14 218.245 239.94C218.245 238.733 217.998 237.793 217.505 237.12C217.012 236.447 216.265 236.11 215.265 236.11C214.758 236.11 214.318 236.197 213.945 236.37C213.572 236.543 213.258 236.793 213.005 237.12C212.758 237.447 212.572 237.85 212.445 238.33C212.325 238.803 212.265 239.34 212.265 239.94C212.265 240.54 212.325 241.077 212.445 241.55C212.572 242.023 212.758 242.423 213.005 242.75C213.258 243.07 213.572 243.317 213.945 243.49C214.318 243.663 214.758 243.75 215.265 243.75ZM222.278 245V234.87H223.338C223.592 234.87 223.752 234.993 223.818 235.24L223.958 236.34C224.398 235.853 224.888 235.46 225.428 235.16C225.975 234.86 226.605 234.71 227.318 234.71C227.872 234.71 228.358 234.803 228.778 234.99C229.205 235.17 229.558 235.43 229.838 235.77C230.125 236.103 230.342 236.507 230.488 236.98C230.635 237.453 230.708 237.977 230.708 238.55V245H228.928V238.55C228.928 237.783 228.752 237.19 228.398 236.77C228.052 236.343 227.518 236.13 226.798 236.13C226.272 236.13 225.778 236.257 225.318 236.51C224.865 236.763 224.445 237.107 224.058 237.54V245H222.278ZM239.192 236.54C239.112 236.687 238.988 236.76 238.822 236.76C238.722 236.76 238.608 236.723 238.482 236.65C238.355 236.577 238.198 236.497 238.012 236.41C237.832 236.317 237.615 236.233 237.362 236.16C237.108 236.08 236.808 236.04 236.462 236.04C236.162 236.04 235.892 236.08 235.652 236.16C235.412 236.233 235.205 236.337 235.032 236.47C234.865 236.603 234.735 236.76 234.642 236.94C234.555 237.113 234.512 237.303 234.512 237.51C234.512 237.77 234.585 237.987 234.732 238.16C234.885 238.333 235.085 238.483 235.332 238.61C235.578 238.737 235.858 238.85 236.172 238.95C236.485 239.043 236.805 239.147 237.132 239.26C237.465 239.367 237.788 239.487 238.102 239.62C238.415 239.753 238.695 239.92 238.942 240.12C239.188 240.32 239.385 240.567 239.532 240.86C239.685 241.147 239.762 241.493 239.762 241.9C239.762 242.367 239.678 242.8 239.512 243.2C239.345 243.593 239.098 243.937 238.772 244.23C238.445 244.517 238.045 244.743 237.572 244.91C237.098 245.077 236.552 245.16 235.932 245.16C235.225 245.16 234.585 245.047 234.012 244.82C233.438 244.587 232.952 244.29 232.552 243.93L232.972 243.25C233.025 243.163 233.088 243.097 233.162 243.05C233.235 243.003 233.332 242.98 233.452 242.98C233.572 242.98 233.698 243.027 233.832 243.12C233.965 243.213 234.125 243.317 234.312 243.43C234.505 243.543 234.735 243.647 235.002 243.74C235.275 243.833 235.615 243.88 236.022 243.88C236.368 243.88 236.672 243.837 236.932 243.75C237.192 243.657 237.408 243.533 237.582 243.38C237.755 243.227 237.882 243.05 237.962 242.85C238.048 242.65 238.092 242.437 238.092 242.21C238.092 241.93 238.015 241.7 237.862 241.52C237.715 241.333 237.518 241.177 237.272 241.05C237.025 240.917 236.742 240.803 236.422 240.71C236.108 240.61 235.785 240.507 235.452 240.4C235.125 240.293 234.802 240.173 234.482 240.04C234.168 239.9 233.888 239.727 233.642 239.52C233.395 239.313 233.195 239.06 233.042 238.76C232.895 238.453 232.822 238.083 232.822 237.65C232.822 237.263 232.902 236.893 233.062 236.54C233.222 236.18 233.455 235.867 233.762 235.6C234.068 235.327 234.445 235.11 234.892 234.95C235.338 234.79 235.848 234.71 236.422 234.71C237.088 234.71 237.685 234.817 238.212 235.03C238.745 235.237 239.205 235.523 239.592 235.89L239.192 236.54ZM243.604 234.87V241.33C243.604 242.097 243.78 242.69 244.134 243.11C244.487 243.53 245.02 243.74 245.734 243.74C246.254 243.74 246.744 243.617 247.204 243.37C247.664 243.123 248.087 242.78 248.474 242.34V234.87H250.254V245H249.194C248.94 245 248.78 244.877 248.714 244.63L248.574 243.54C248.134 244.027 247.64 244.42 247.094 244.72C246.547 245.013 245.92 245.16 245.214 245.16C244.66 245.16 244.17 245.07 243.744 244.89C243.324 244.703 242.97 244.443 242.684 244.11C242.397 243.777 242.18 243.373 242.034 242.9C241.894 242.427 241.824 241.903 241.824 241.33V234.87H243.604ZM253.177 245V234.87H254.237C254.49 234.87 254.65 234.993 254.717 235.24L254.847 236.28C255.22 235.82 255.637 235.443 256.097 235.15C256.563 234.857 257.103 234.71 257.717 234.71C258.403 234.71 258.957 234.9 259.377 235.28C259.803 235.66 260.11 236.173 260.297 236.82C260.437 236.453 260.62 236.137 260.847 235.87C261.08 235.603 261.34 235.383 261.627 235.21C261.913 235.037 262.217 234.91 262.537 234.83C262.863 234.75 263.193 234.71 263.527 234.71C264.06 234.71 264.533 234.797 264.947 234.97C265.367 235.137 265.72 235.383 266.007 235.71C266.3 236.037 266.523 236.44 266.677 236.92C266.83 237.393 266.907 237.937 266.907 238.55V245H265.127V238.55C265.127 237.757 264.953 237.157 264.607 236.75C264.26 236.337 263.757 236.13 263.097 236.13C262.803 236.13 262.523 236.183 262.257 236.29C261.997 236.39 261.767 236.54 261.567 236.74C261.367 236.94 261.207 237.193 261.087 237.5C260.973 237.8 260.917 238.15 260.917 238.55V245H259.137V238.55C259.137 237.737 258.973 237.13 258.647 236.73C258.32 236.33 257.843 236.13 257.217 236.13C256.777 236.13 256.367 236.25 255.987 236.49C255.613 236.723 255.27 237.043 254.957 237.45V245H253.177ZM273.613 234.71C274.219 234.71 274.779 234.813 275.293 235.02C275.806 235.22 276.249 235.513 276.623 235.9C276.996 236.28 277.286 236.753 277.493 237.32C277.706 237.88 277.813 238.52 277.813 239.24C277.813 239.52 277.783 239.707 277.723 239.8C277.663 239.893 277.549 239.94 277.383 239.94H270.643C270.656 240.58 270.743 241.137 270.903 241.61C271.063 242.083 271.283 242.48 271.563 242.8C271.843 243.113 272.176 243.35 272.563 243.51C272.949 243.663 273.383 243.74 273.863 243.74C274.309 243.74 274.693 243.69 275.013 243.59C275.339 243.483 275.619 243.37 275.853 243.25C276.086 243.13 276.279 243.02 276.433 242.92C276.593 242.813 276.729 242.76 276.843 242.76C276.989 242.76 277.103 242.817 277.183 242.93L277.683 243.58C277.463 243.847 277.199 244.08 276.893 244.28C276.586 244.473 276.256 244.633 275.903 244.76C275.556 244.887 275.196 244.98 274.823 245.04C274.449 245.107 274.079 245.14 273.713 245.14C273.013 245.14 272.366 245.023 271.773 244.79C271.186 244.55 270.676 244.203 270.243 243.75C269.816 243.29 269.483 242.723 269.243 242.05C269.003 241.377 268.883 240.603 268.883 239.73C268.883 239.023 268.989 238.363 269.203 237.75C269.423 237.137 269.736 236.607 270.143 236.16C270.549 235.707 271.046 235.353 271.633 235.1C272.219 234.84 272.879 234.71 273.613 234.71ZM273.653 236.02C272.793 236.02 272.116 236.27 271.623 236.77C271.129 237.263 270.823 237.95 270.703 238.83H276.213C276.213 238.417 276.156 238.04 276.043 237.7C275.929 237.353 275.763 237.057 275.543 236.81C275.323 236.557 275.053 236.363 274.733 236.23C274.419 236.09 274.059 236.02 273.653 236.02ZM194.612 269V254.27H196.392V260.23C196.826 259.77 197.306 259.403 197.832 259.13C198.359 258.85 198.966 258.71 199.652 258.71C200.206 258.71 200.692 258.803 201.112 258.99C201.539 259.17 201.892 259.43 202.172 259.77C202.459 260.103 202.676 260.507 202.822 260.98C202.969 261.453 203.042 261.977 203.042 262.55V269H201.262V262.55C201.262 261.783 201.086 261.19 200.732 260.77C200.386 260.343 199.852 260.13 199.132 260.13C198.606 260.13 198.112 260.257 197.652 260.51C197.199 260.763 196.779 261.107 196.392 261.54V269H194.612ZM207.706 258.87V269H205.926V258.87H207.706ZM208.106 255.69C208.106 255.863 208.069 256.027 207.996 256.18C207.929 256.327 207.836 256.46 207.716 256.58C207.602 256.693 207.469 256.783 207.316 256.85C207.162 256.917 206.999 256.95 206.826 256.95C206.652 256.95 206.489 256.917 206.336 256.85C206.189 256.783 206.056 256.693 205.936 256.58C205.822 256.46 205.732 256.327 205.666 256.18C205.599 256.027 205.566 255.863 205.566 255.69C205.566 255.517 205.599 255.353 205.666 255.2C205.732 255.04 205.822 254.903 205.936 254.79C206.056 254.67 206.189 254.577 206.336 254.51C206.489 254.443 206.652 254.41 206.826 254.41C206.999 254.41 207.162 254.443 207.316 254.51C207.469 254.577 207.602 254.67 207.716 254.79C207.836 254.903 207.929 255.04 207.996 255.2C208.069 255.353 208.106 255.517 208.106 255.69ZM214.253 258.7C214.693 258.7 215.103 258.75 215.483 258.85C215.869 258.943 216.219 259.083 216.533 259.27H219.283V259.93C219.283 260.15 219.143 260.29 218.863 260.35L217.713 260.51C217.939 260.943 218.053 261.427 218.053 261.96C218.053 262.453 217.956 262.903 217.763 263.31C217.576 263.71 217.313 264.053 216.973 264.34C216.639 264.627 216.239 264.847 215.773 265C215.313 265.153 214.806 265.23 214.253 265.23C213.779 265.23 213.333 265.173 212.913 265.06C212.699 265.193 212.536 265.337 212.423 265.49C212.316 265.643 212.263 265.793 212.263 265.94C212.263 266.18 212.359 266.363 212.553 266.49C212.746 266.61 213.003 266.697 213.323 266.75C213.643 266.803 214.006 266.837 214.413 266.85C214.819 266.863 215.233 266.887 215.653 266.92C216.079 266.947 216.496 266.997 216.903 267.07C217.309 267.143 217.673 267.263 217.993 267.43C218.313 267.597 218.569 267.827 218.763 268.12C218.956 268.413 219.053 268.793 219.053 269.26C219.053 269.693 218.943 270.113 218.723 270.52C218.509 270.927 218.199 271.287 217.793 271.6C217.386 271.92 216.889 272.173 216.303 272.36C215.716 272.553 215.053 272.65 214.313 272.65C213.573 272.65 212.923 272.577 212.363 272.43C211.809 272.283 211.349 272.087 210.983 271.84C210.616 271.593 210.339 271.307 210.153 270.98C209.973 270.66 209.883 270.323 209.883 269.97C209.883 269.47 210.039 269.047 210.353 268.7C210.673 268.347 211.109 268.067 211.663 267.86C211.376 267.727 211.146 267.55 210.973 267.33C210.806 267.103 210.723 266.803 210.723 266.43C210.723 266.283 210.749 266.133 210.803 265.98C210.856 265.82 210.936 265.663 211.043 265.51C211.156 265.357 211.293 265.21 211.453 265.07C211.613 264.93 211.799 264.807 212.013 264.7C211.513 264.42 211.119 264.05 210.833 263.59C210.553 263.123 210.413 262.58 210.413 261.96C210.413 261.467 210.506 261.02 210.693 260.62C210.886 260.213 211.153 259.87 211.493 259.59C211.833 259.303 212.236 259.083 212.703 258.93C213.176 258.777 213.693 258.7 214.253 258.7ZM217.413 269.55C217.413 269.297 217.343 269.093 217.203 268.94C217.063 268.787 216.873 268.67 216.633 268.59C216.393 268.503 216.116 268.44 215.803 268.4C215.489 268.36 215.159 268.333 214.813 268.32C214.466 268.3 214.113 268.28 213.753 268.26C213.393 268.24 213.049 268.203 212.723 268.15C212.343 268.33 212.033 268.55 211.793 268.81C211.559 269.07 211.443 269.38 211.443 269.74C211.443 269.967 211.499 270.177 211.613 270.37C211.733 270.57 211.913 270.74 212.153 270.88C212.393 271.027 212.693 271.14 213.053 271.22C213.419 271.307 213.849 271.35 214.343 271.35C214.823 271.35 215.253 271.307 215.633 271.22C216.013 271.133 216.333 271.01 216.593 270.85C216.859 270.69 217.063 270.5 217.203 270.28C217.343 270.06 217.413 269.817 217.413 269.55ZM214.253 264.05C214.613 264.05 214.929 264 215.203 263.9C215.483 263.8 215.716 263.66 215.903 263.48C216.089 263.3 216.229 263.087 216.323 262.84C216.416 262.587 216.463 262.31 216.463 262.01C216.463 261.39 216.273 260.897 215.893 260.53C215.519 260.163 214.973 259.98 214.253 259.98C213.539 259.98 212.993 260.163 212.613 260.53C212.239 260.897 212.053 261.39 212.053 262.01C212.053 262.31 212.099 262.587 212.193 262.84C212.293 263.087 212.436 263.3 212.623 263.48C212.809 263.66 213.039 263.8 213.313 263.9C213.586 264 213.899 264.05 214.253 264.05ZM221.058 269V254.27H222.838V260.23C223.271 259.77 223.751 259.403 224.278 259.13C224.804 258.85 225.411 258.71 226.098 258.71C226.651 258.71 227.138 258.803 227.558 258.99C227.984 259.17 228.338 259.43 228.618 259.77C228.904 260.103 229.121 260.507 229.268 260.98C229.414 261.453 229.488 261.977 229.488 262.55V269H227.708V262.55C227.708 261.783 227.531 261.19 227.178 260.77C226.831 260.343 226.298 260.13 225.578 260.13C225.051 260.13 224.558 260.257 224.098 260.51C223.644 260.763 223.224 261.107 222.838 261.54V269H221.058ZM231.711 262.25H236.651V263.76H231.711V262.25ZM244.905 260.54C244.825 260.687 244.701 260.76 244.535 260.76C244.435 260.76 244.321 260.723 244.195 260.65C244.068 260.577 243.911 260.497 243.725 260.41C243.545 260.317 243.328 260.233 243.075 260.16C242.821 260.08 242.521 260.04 242.175 260.04C241.875 260.04 241.605 260.08 241.365 260.16C241.125 260.233 240.918 260.337 240.745 260.47C240.578 260.603 240.448 260.76 240.355 260.94C240.268 261.113 240.225 261.303 240.225 261.51C240.225 261.77 240.298 261.987 240.445 262.16C240.598 262.333 240.798 262.483 241.045 262.61C241.291 262.737 241.571 262.85 241.885 262.95C242.198 263.043 242.518 263.147 242.845 263.26C243.178 263.367 243.501 263.487 243.815 263.62C244.128 263.753 244.408 263.92 244.655 264.12C244.901 264.32 245.098 264.567 245.245 264.86C245.398 265.147 245.475 265.493 245.475 265.9C245.475 266.367 245.391 266.8 245.225 267.2C245.058 267.593 244.811 267.937 244.485 268.23C244.158 268.517 243.758 268.743 243.285 268.91C242.811 269.077 242.265 269.16 241.645 269.16C240.938 269.16 240.298 269.047 239.725 268.82C239.151 268.587 238.665 268.29 238.265 267.93L238.685 267.25C238.738 267.163 238.801 267.097 238.875 267.05C238.948 267.003 239.045 266.98 239.165 266.98C239.285 266.98 239.411 267.027 239.545 267.12C239.678 267.213 239.838 267.317 240.025 267.43C240.218 267.543 240.448 267.647 240.715 267.74C240.988 267.833 241.328 267.88 241.735 267.88C242.081 267.88 242.385 267.837 242.645 267.75C242.905 267.657 243.121 267.533 243.295 267.38C243.468 267.227 243.595 267.05 243.675 266.85C243.761 266.65 243.805 266.437 243.805 266.21C243.805 265.93 243.728 265.7 243.575 265.52C243.428 265.333 243.231 265.177 242.985 265.05C242.738 264.917 242.455 264.803 242.135 264.71C241.821 264.61 241.498 264.507 241.165 264.4C240.838 264.293 240.515 264.173 240.195 264.04C239.881 263.9 239.601 263.727 239.355 263.52C239.108 263.313 238.908 263.06 238.755 262.76C238.608 262.453 238.535 262.083 238.535 261.65C238.535 261.263 238.615 260.893 238.775 260.54C238.935 260.18 239.168 259.867 239.475 259.6C239.781 259.327 240.158 259.11 240.605 258.95C241.051 258.79 241.561 258.71 242.135 258.71C242.801 258.71 243.398 258.817 243.925 259.03C244.458 259.237 244.918 259.523 245.305 259.89L244.905 260.54ZM249.316 258.87V265.33C249.316 266.097 249.493 266.69 249.846 267.11C250.2 267.53 250.733 267.74 251.446 267.74C251.966 267.74 252.456 267.617 252.916 267.37C253.376 267.123 253.8 266.78 254.186 266.34V258.87H255.966V269H254.906C254.653 269 254.493 268.877 254.426 268.63L254.286 267.54C253.846 268.027 253.353 268.42 252.806 268.72C252.26 269.013 251.633 269.16 250.926 269.16C250.373 269.16 249.883 269.07 249.456 268.89C249.036 268.703 248.683 268.443 248.396 268.11C248.11 267.777 247.893 267.373 247.746 266.9C247.606 266.427 247.536 265.903 247.536 265.33V258.87H249.316ZM262.3 258.7C262.74 258.7 263.15 258.75 263.53 258.85C263.916 258.943 264.266 259.083 264.58 259.27H267.33V259.93C267.33 260.15 267.19 260.29 266.91 260.35L265.76 260.51C265.986 260.943 266.1 261.427 266.1 261.96C266.1 262.453 266.003 262.903 265.81 263.31C265.623 263.71 265.36 264.053 265.02 264.34C264.686 264.627 264.286 264.847 263.82 265C263.36 265.153 262.853 265.23 262.3 265.23C261.826 265.23 261.38 265.173 260.96 265.06C260.746 265.193 260.583 265.337 260.47 265.49C260.363 265.643 260.31 265.793 260.31 265.94C260.31 266.18 260.406 266.363 260.6 266.49C260.793 266.61 261.05 266.697 261.37 266.75C261.69 266.803 262.053 266.837 262.46 266.85C262.866 266.863 263.28 266.887 263.7 266.92C264.126 266.947 264.543 266.997 264.95 267.07C265.356 267.143 265.72 267.263 266.04 267.43C266.36 267.597 266.616 267.827 266.81 268.12C267.003 268.413 267.1 268.793 267.1 269.26C267.1 269.693 266.99 270.113 266.77 270.52C266.556 270.927 266.246 271.287 265.84 271.6C265.433 271.92 264.936 272.173 264.35 272.36C263.763 272.553 263.1 272.65 262.36 272.65C261.62 272.65 260.97 272.577 260.41 272.43C259.856 272.283 259.396 272.087 259.03 271.84C258.663 271.593 258.386 271.307 258.2 270.98C258.02 270.66 257.93 270.323 257.93 269.97C257.93 269.47 258.086 269.047 258.4 268.7C258.72 268.347 259.156 268.067 259.71 267.86C259.423 267.727 259.193 267.55 259.02 267.33C258.853 267.103 258.77 266.803 258.77 266.43C258.77 266.283 258.796 266.133 258.85 265.98C258.903 265.82 258.983 265.663 259.09 265.51C259.203 265.357 259.34 265.21 259.5 265.07C259.66 264.93 259.846 264.807 260.06 264.7C259.56 264.42 259.166 264.05 258.88 263.59C258.6 263.123 258.46 262.58 258.46 261.96C258.46 261.467 258.553 261.02 258.74 260.62C258.933 260.213 259.2 259.87 259.54 259.59C259.88 259.303 260.283 259.083 260.75 258.93C261.223 258.777 261.74 258.7 262.3 258.7ZM265.46 269.55C265.46 269.297 265.39 269.093 265.25 268.94C265.11 268.787 264.92 268.67 264.68 268.59C264.44 268.503 264.163 268.44 263.85 268.4C263.536 268.36 263.206 268.333 262.86 268.32C262.513 268.3 262.16 268.28 261.8 268.26C261.44 268.24 261.096 268.203 260.77 268.15C260.39 268.33 260.08 268.55 259.84 268.81C259.606 269.07 259.49 269.38 259.49 269.74C259.49 269.967 259.546 270.177 259.66 270.37C259.78 270.57 259.96 270.74 260.2 270.88C260.44 271.027 260.74 271.14 261.1 271.22C261.466 271.307 261.896 271.35 262.39 271.35C262.87 271.35 263.3 271.307 263.68 271.22C264.06 271.133 264.38 271.01 264.64 270.85C264.906 270.69 265.11 270.5 265.25 270.28C265.39 270.06 265.46 269.817 265.46 269.55ZM262.3 264.05C262.66 264.05 262.976 264 263.25 263.9C263.53 263.8 263.763 263.66 263.95 263.48C264.136 263.3 264.276 263.087 264.37 262.84C264.463 262.587 264.51 262.31 264.51 262.01C264.51 261.39 264.32 260.897 263.94 260.53C263.566 260.163 263.02 259.98 262.3 259.98C261.586 259.98 261.04 260.163 260.66 260.53C260.286 260.897 260.1 261.39 260.1 262.01C260.1 262.31 260.146 262.587 260.24 262.84C260.34 263.087 260.483 263.3 260.67 263.48C260.856 263.66 261.086 263.8 261.36 263.9C261.633 264 261.946 264.05 262.3 264.05ZM276.545 269H275.755C275.581 269 275.441 268.973 275.335 268.92C275.228 268.867 275.158 268.753 275.125 268.58L274.925 267.64C274.658 267.88 274.398 268.097 274.145 268.29C273.891 268.477 273.625 268.637 273.345 268.77C273.065 268.897 272.765 268.993 272.445 269.06C272.131 269.127 271.781 269.16 271.395 269.16C271.001 269.16 270.631 269.107 270.285 269C269.945 268.887 269.648 268.72 269.395 268.5C269.141 268.28 268.938 268.003 268.785 267.67C268.638 267.33 268.565 266.93 268.565 266.47C268.565 266.07 268.675 265.687 268.895 265.32C269.115 264.947 269.468 264.617 269.955 264.33C270.448 264.043 271.091 263.81 271.885 263.63C272.678 263.443 273.648 263.337 274.795 263.31V262.52C274.795 261.733 274.625 261.14 274.285 260.74C273.951 260.333 273.455 260.13 272.795 260.13C272.361 260.13 271.995 260.187 271.695 260.3C271.401 260.407 271.145 260.53 270.925 260.67C270.711 260.803 270.525 260.927 270.365 261.04C270.211 261.147 270.058 261.2 269.905 261.2C269.785 261.2 269.678 261.17 269.585 261.11C269.498 261.043 269.428 260.963 269.375 260.87L269.055 260.3C269.615 259.76 270.218 259.357 270.865 259.09C271.511 258.823 272.228 258.69 273.015 258.69C273.581 258.69 274.085 258.783 274.525 258.97C274.965 259.157 275.335 259.417 275.635 259.75C275.935 260.083 276.161 260.487 276.315 260.96C276.468 261.433 276.545 261.953 276.545 262.52V269ZM271.925 267.91C272.238 267.91 272.525 267.88 272.785 267.82C273.045 267.753 273.288 267.663 273.515 267.55C273.748 267.43 273.968 267.287 274.175 267.12C274.388 266.953 274.595 266.763 274.795 266.55V264.44C273.975 264.467 273.278 264.533 272.705 264.64C272.131 264.74 271.665 264.873 271.305 265.04C270.945 265.207 270.681 265.403 270.515 265.63C270.355 265.857 270.275 266.11 270.275 266.39C270.275 266.657 270.318 266.887 270.405 267.08C270.491 267.273 270.608 267.433 270.755 267.56C270.901 267.68 271.075 267.77 271.275 267.83C271.475 267.883 271.691 267.91 271.925 267.91ZM279.241 269V258.87H280.261C280.455 258.87 280.588 258.907 280.661 258.98C280.735 259.053 280.785 259.18 280.811 259.36L280.931 260.94C281.278 260.233 281.705 259.683 282.211 259.29C282.725 258.89 283.325 258.69 284.011 258.69C284.291 258.69 284.545 258.723 284.771 258.79C284.998 258.85 285.208 258.937 285.401 259.05L285.171 260.38C285.125 260.547 285.021 260.63 284.861 260.63C284.768 260.63 284.625 260.6 284.431 260.54C284.238 260.473 283.968 260.44 283.621 260.44C283.001 260.44 282.481 260.62 282.061 260.98C281.648 261.34 281.301 261.863 281.021 262.55V269H279.241Z" fill="#ED394A"/>
<path d="M1.64109 245V230.27H3.43109V236.33C3.85109 235.843 4.33109 235.453 4.87109 235.16C5.41776 234.86 6.04109 234.71 6.74109 234.71C7.32776 234.71 7.85776 234.82 8.33109 235.04C8.80443 235.26 9.20776 235.59 9.54109 236.03C9.87443 236.463 10.1311 237.003 10.3111 237.65C10.4911 238.29 10.5811 239.03 10.5811 239.87C10.5811 240.617 10.4811 241.313 10.2811 241.96C10.0811 242.6 9.79109 243.157 9.41109 243.63C9.03776 244.097 8.57776 244.467 8.03109 244.74C7.49109 245.007 6.88109 245.14 6.20109 245.14C5.54776 245.14 4.99109 245.013 4.53109 244.76C4.07776 244.507 3.68109 244.153 3.34109 243.7L3.25109 244.62C3.19776 244.873 3.04443 245 2.79109 245H1.64109ZM6.16109 236.13C5.58109 236.13 5.07109 236.263 4.63109 236.53C4.19776 236.797 3.79776 237.173 3.43109 237.66V242.56C3.75109 243 4.10443 243.31 4.49109 243.49C4.88443 243.67 5.32109 243.76 5.80109 243.76C6.74776 243.76 7.47443 243.423 7.98109 242.75C8.48776 242.077 8.74109 241.117 8.74109 239.87C8.74109 239.21 8.68109 238.643 8.56109 238.17C8.44776 237.697 8.28109 237.31 8.06109 237.01C7.84109 236.703 7.57109 236.48 7.25109 236.34C6.93109 236.2 6.56776 236.13 6.16109 236.13ZM14.733 230.27V245H12.953V230.27H14.733ZM21.9702 234.71C22.7102 234.71 23.3768 234.833 23.9702 235.08C24.5702 235.327 25.0768 235.677 25.4902 236.13C25.9102 236.583 26.2302 237.133 26.4502 237.78C26.6768 238.42 26.7902 239.137 26.7902 239.93C26.7902 240.73 26.6768 241.45 26.4502 242.09C26.2302 242.73 25.9102 243.277 25.4902 243.73C25.0768 244.183 24.5702 244.533 23.9702 244.78C23.3768 245.02 22.7102 245.14 21.9702 245.14C21.2302 245.14 20.5602 245.02 19.9602 244.78C19.3668 244.533 18.8602 244.183 18.4402 243.73C18.0202 243.277 17.6968 242.73 17.4702 242.09C17.2435 241.45 17.1302 240.73 17.1302 239.93C17.1302 239.137 17.2435 238.42 17.4702 237.78C17.6968 237.133 18.0202 236.583 18.4402 236.13C18.8602 235.677 19.3668 235.327 19.9602 235.08C20.5602 234.833 21.2302 234.71 21.9702 234.71ZM21.9702 243.75C22.9702 243.75 23.7168 243.417 24.2102 242.75C24.7035 242.077 24.9502 241.14 24.9502 239.94C24.9502 238.733 24.7035 237.793 24.2102 237.12C23.7168 236.447 22.9702 236.11 21.9702 236.11C21.4635 236.11 21.0235 236.197 20.6502 236.37C20.2768 236.543 19.9635 236.793 19.7102 237.12C19.4635 237.447 19.2768 237.85 19.1502 238.33C19.0302 238.803 18.9702 239.34 18.9702 239.94C18.9702 240.54 19.0302 241.077 19.1502 241.55C19.2768 242.023 19.4635 242.423 19.7102 242.75C19.9635 243.07 20.2768 243.317 20.6502 243.49C21.0235 243.663 21.4635 243.75 21.9702 243.75ZM33.0834 234.71C33.8234 234.71 34.4901 234.833 35.0834 235.08C35.6834 235.327 36.1901 235.677 36.6034 236.13C37.0234 236.583 37.3434 237.133 37.5634 237.78C37.7901 238.42 37.9034 239.137 37.9034 239.93C37.9034 240.73 37.7901 241.45 37.5634 242.09C37.3434 242.73 37.0234 243.277 36.6034 243.73C36.1901 244.183 35.6834 244.533 35.0834 244.78C34.4901 245.02 33.8234 245.14 33.0834 245.14C32.3434 245.14 31.6734 245.02 31.0734 244.78C30.4801 244.533 29.9734 244.183 29.5534 243.73C29.1334 243.277 28.8101 242.73 28.5834 242.09C28.3568 241.45 28.2434 240.73 28.2434 239.93C28.2434 239.137 28.3568 238.42 28.5834 237.78C28.8101 237.133 29.1334 236.583 29.5534 236.13C29.9734 235.677 30.4801 235.327 31.0734 235.08C31.6734 234.833 32.3434 234.71 33.0834 234.71ZM33.0834 243.75C34.0834 243.75 34.8301 243.417 35.3234 242.75C35.8168 242.077 36.0634 241.14 36.0634 239.94C36.0634 238.733 35.8168 237.793 35.3234 237.12C34.8301 236.447 34.0834 236.11 33.0834 236.11C32.5768 236.11 32.1368 236.197 31.7634 236.37C31.3901 236.543 31.0768 236.793 30.8234 237.12C30.5768 237.447 30.3901 237.85 30.2634 238.33C30.1434 238.803 30.0834 239.34 30.0834 239.94C30.0834 240.54 30.1434 241.077 30.2634 241.55C30.3901 242.023 30.5768 242.423 30.8234 242.75C31.0768 243.07 31.3901 243.317 31.7634 243.49C32.1368 243.663 32.5768 243.75 33.0834 243.75ZM47.2267 245C46.9734 245 46.8134 244.877 46.7467 244.63L46.5867 243.4C46.1534 243.927 45.6567 244.35 45.0967 244.67C44.5434 244.983 43.9067 245.14 43.1867 245.14C42.6067 245.14 42.0801 245.03 41.6067 244.81C41.1334 244.583 40.7301 244.253 40.3967 243.82C40.0634 243.387 39.8067 242.847 39.6267 242.2C39.4467 241.553 39.3567 240.81 39.3567 239.97C39.3567 239.223 39.4567 238.53 39.6567 237.89C39.8567 237.243 40.1434 236.683 40.5167 236.21C40.8967 235.737 41.3567 235.367 41.8967 235.1C42.4367 234.827 43.0501 234.69 43.7367 234.69C44.3567 234.69 44.8867 234.797 45.3267 235.01C45.7667 235.217 46.1601 235.51 46.5067 235.89V230.27H48.2867V245H47.2267ZM43.7767 243.7C44.3567 243.7 44.8634 243.567 45.2967 243.3C45.7367 243.033 46.1401 242.657 46.5067 242.17V237.27C46.1801 236.83 45.8201 236.523 45.4267 236.35C45.0401 236.17 44.6101 236.08 44.1367 236.08C43.1901 236.08 42.4634 236.417 41.9567 237.09C41.4501 237.763 41.1967 238.723 41.1967 239.97C41.1967 240.63 41.2534 241.197 41.3667 241.67C41.4801 242.137 41.6467 242.523 41.8667 242.83C42.0867 243.13 42.3567 243.35 42.6767 243.49C42.9967 243.63 43.3634 243.7 43.7767 243.7ZM60.9358 236.54C60.8558 236.687 60.7324 236.76 60.5658 236.76C60.4658 236.76 60.3524 236.723 60.2258 236.65C60.0991 236.577 59.9424 236.497 59.7558 236.41C59.5758 236.317 59.3591 236.233 59.1058 236.16C58.8524 236.08 58.5524 236.04 58.2058 236.04C57.9058 236.04 57.6358 236.08 57.3958 236.16C57.1558 236.233 56.9491 236.337 56.7758 236.47C56.6091 236.603 56.4791 236.76 56.3858 236.94C56.2991 237.113 56.2558 237.303 56.2558 237.51C56.2558 237.77 56.3291 237.987 56.4758 238.16C56.6291 238.333 56.8291 238.483 57.0758 238.61C57.3224 238.737 57.6024 238.85 57.9158 238.95C58.2291 239.043 58.5491 239.147 58.8758 239.26C59.2091 239.367 59.5324 239.487 59.8458 239.62C60.1591 239.753 60.4391 239.92 60.6858 240.12C60.9324 240.32 61.1291 240.567 61.2758 240.86C61.4291 241.147 61.5058 241.493 61.5058 241.9C61.5058 242.367 61.4224 242.8 61.2558 243.2C61.0891 243.593 60.8424 243.937 60.5158 244.23C60.1891 244.517 59.7891 244.743 59.3158 244.91C58.8424 245.077 58.2958 245.16 57.6758 245.16C56.9691 245.16 56.3291 245.047 55.7558 244.82C55.1824 244.587 54.6958 244.29 54.2958 243.93L54.7158 243.25C54.7691 243.163 54.8324 243.097 54.9058 243.05C54.9791 243.003 55.0758 242.98 55.1958 242.98C55.3158 242.98 55.4424 243.027 55.5758 243.12C55.7091 243.213 55.8691 243.317 56.0558 243.43C56.2491 243.543 56.4791 243.647 56.7458 243.74C57.0191 243.833 57.3591 243.88 57.7658 243.88C58.1124 243.88 58.4158 243.837 58.6758 243.75C58.9358 243.657 59.1524 243.533 59.3258 243.38C59.4991 243.227 59.6258 243.05 59.7058 242.85C59.7924 242.65 59.8358 242.437 59.8358 242.21C59.8358 241.93 59.7591 241.7 59.6058 241.52C59.4591 241.333 59.2624 241.177 59.0158 241.05C58.7691 240.917 58.4858 240.803 58.1658 240.71C57.8524 240.61 57.5291 240.507 57.1958 240.4C56.8691 240.293 56.5458 240.173 56.2258 240.04C55.9124 239.9 55.6324 239.727 55.3858 239.52C55.1391 239.313 54.9391 239.06 54.7858 238.76C54.6391 238.453 54.5658 238.083 54.5658 237.65C54.5658 237.263 54.6458 236.893 54.8058 236.54C54.9658 236.18 55.1991 235.867 55.5058 235.6C55.8124 235.327 56.1891 235.11 56.6358 234.95C57.0824 234.79 57.5924 234.71 58.1658 234.71C58.8324 234.71 59.4291 234.817 59.9558 235.03C60.4891 235.237 60.9491 235.523 61.3358 235.89L60.9358 236.54ZM65.3477 234.87V241.33C65.3477 242.097 65.5243 242.69 65.8777 243.11C66.231 243.53 66.7643 243.74 67.4777 243.74C67.9977 243.74 68.4877 243.617 68.9477 243.37C69.4077 243.123 69.831 242.78 70.2177 242.34V234.87H71.9977V245H70.9377C70.6843 245 70.5243 244.877 70.4577 244.63L70.3177 243.54C69.8777 244.027 69.3843 244.42 68.8377 244.72C68.291 245.013 67.6643 245.16 66.9577 245.16C66.4043 245.16 65.9143 245.07 65.4877 244.89C65.0677 244.703 64.7143 244.443 64.4277 244.11C64.141 243.777 63.9243 243.373 63.7777 242.9C63.6377 242.427 63.5677 241.903 63.5677 241.33V234.87H65.3477ZM78.3309 234.7C78.7709 234.7 79.1809 234.75 79.5609 234.85C79.9476 234.943 80.2976 235.083 80.6109 235.27H83.3609V235.93C83.3609 236.15 83.2209 236.29 82.9409 236.35L81.7909 236.51C82.0176 236.943 82.1309 237.427 82.1309 237.96C82.1309 238.453 82.0343 238.903 81.8409 239.31C81.6543 239.71 81.3909 240.053 81.0509 240.34C80.7176 240.627 80.3176 240.847 79.8509 241C79.3909 241.153 78.8843 241.23 78.3309 241.23C77.8576 241.23 77.4109 241.173 76.9909 241.06C76.7776 241.193 76.6143 241.337 76.5009 241.49C76.3943 241.643 76.3409 241.793 76.3409 241.94C76.3409 242.18 76.4376 242.363 76.6309 242.49C76.8243 242.61 77.0809 242.697 77.4009 242.75C77.7209 242.803 78.0843 242.837 78.4909 242.85C78.8976 242.863 79.3109 242.887 79.7309 242.92C80.1576 242.947 80.5743 242.997 80.9809 243.07C81.3876 243.143 81.7509 243.263 82.0709 243.43C82.3909 243.597 82.6476 243.827 82.8409 244.12C83.0343 244.413 83.1309 244.793 83.1309 245.26C83.1309 245.693 83.0209 246.113 82.8009 246.52C82.5876 246.927 82.2776 247.287 81.8709 247.6C81.4643 247.92 80.9676 248.173 80.3809 248.36C79.7943 248.553 79.1309 248.65 78.3909 248.65C77.6509 248.65 77.0009 248.577 76.4409 248.43C75.8876 248.283 75.4276 248.087 75.0609 247.84C74.6943 247.593 74.4176 247.307 74.2309 246.98C74.0509 246.66 73.9609 246.323 73.9609 245.97C73.9609 245.47 74.1176 245.047 74.4309 244.7C74.7509 244.347 75.1876 244.067 75.7409 243.86C75.4543 243.727 75.2243 243.55 75.0509 243.33C74.8843 243.103 74.8009 242.803 74.8009 242.43C74.8009 242.283 74.8276 242.133 74.8809 241.98C74.9343 241.82 75.0143 241.663 75.1209 241.51C75.2343 241.357 75.3709 241.21 75.5309 241.07C75.6909 240.93 75.8776 240.807 76.0909 240.7C75.5909 240.42 75.1976 240.05 74.9109 239.59C74.6309 239.123 74.4909 238.58 74.4909 237.96C74.4909 237.467 74.5843 237.02 74.7709 236.62C74.9643 236.213 75.2309 235.87 75.5709 235.59C75.9109 235.303 76.3143 235.083 76.7809 234.93C77.2543 234.777 77.7709 234.7 78.3309 234.7ZM81.4909 245.55C81.4909 245.297 81.4209 245.093 81.2809 244.94C81.1409 244.787 80.9509 244.67 80.7109 244.59C80.4709 244.503 80.1943 244.44 79.8809 244.4C79.5676 244.36 79.2376 244.333 78.8909 244.32C78.5443 244.3 78.1909 244.28 77.8309 244.26C77.4709 244.24 77.1276 244.203 76.8009 244.15C76.4209 244.33 76.1109 244.55 75.8709 244.81C75.6376 245.07 75.5209 245.38 75.5209 245.74C75.5209 245.967 75.5776 246.177 75.6909 246.37C75.8109 246.57 75.9909 246.74 76.2309 246.88C76.4709 247.027 76.7709 247.14 77.1309 247.22C77.4976 247.307 77.9276 247.35 78.4209 247.35C78.9009 247.35 79.3309 247.307 79.7109 247.22C80.0909 247.133 80.4109 247.01 80.6709 246.85C80.9376 246.69 81.1409 246.5 81.2809 246.28C81.4209 246.06 81.4909 245.817 81.4909 245.55ZM78.3309 240.05C78.6909 240.05 79.0076 240 79.2809 239.9C79.5609 239.8 79.7943 239.66 79.9809 239.48C80.1676 239.3 80.3076 239.087 80.4009 238.84C80.4943 238.587 80.5409 238.31 80.5409 238.01C80.5409 237.39 80.3509 236.897 79.9709 236.53C79.5976 236.163 79.0509 235.98 78.3309 235.98C77.6176 235.98 77.0709 236.163 76.6909 236.53C76.3176 236.897 76.1309 237.39 76.1309 238.01C76.1309 238.31 76.1776 238.587 76.2709 238.84C76.3709 239.087 76.5143 239.3 76.7009 239.48C76.8876 239.66 77.1176 239.8 77.3909 239.9C77.6643 240 77.9776 240.05 78.3309 240.05ZM92.5758 245H91.7858C91.6124 245 91.4724 244.973 91.3658 244.92C91.2591 244.867 91.1891 244.753 91.1558 244.58L90.9558 243.64C90.6891 243.88 90.4291 244.097 90.1758 244.29C89.9224 244.477 89.6558 244.637 89.3758 244.77C89.0958 244.897 88.7958 244.993 88.4758 245.06C88.1624 245.127 87.8124 245.16 87.4258 245.16C87.0324 245.16 86.6624 245.107 86.3158 245C85.9758 244.887 85.6791 244.72 85.4258 244.5C85.1724 244.28 84.9691 244.003 84.8158 243.67C84.6691 243.33 84.5958 242.93 84.5958 242.47C84.5958 242.07 84.7058 241.687 84.9258 241.32C85.1458 240.947 85.4991 240.617 85.9858 240.33C86.4791 240.043 87.1224 239.81 87.9158 239.63C88.7091 239.443 89.6791 239.337 90.8258 239.31V238.52C90.8258 237.733 90.6558 237.14 90.3158 236.74C89.9824 236.333 89.4858 236.13 88.8258 236.13C88.3924 236.13 88.0258 236.187 87.7258 236.3C87.4324 236.407 87.1758 236.53 86.9558 236.67C86.7424 236.803 86.5558 236.927 86.3958 237.04C86.2424 237.147 86.0891 237.2 85.9358 237.2C85.8158 237.2 85.7091 237.17 85.6158 237.11C85.5291 237.043 85.4591 236.963 85.4058 236.87L85.0858 236.3C85.6458 235.76 86.2491 235.357 86.8958 235.09C87.5424 234.823 88.2591 234.69 89.0458 234.69C89.6124 234.69 90.1158 234.783 90.5558 234.97C90.9958 235.157 91.3658 235.417 91.6658 235.75C91.9658 236.083 92.1924 236.487 92.3458 236.96C92.4991 237.433 92.5758 237.953 92.5758 238.52V245ZM87.9558 243.91C88.2691 243.91 88.5558 243.88 88.8158 243.82C89.0758 243.753 89.3191 243.663 89.5458 243.55C89.7791 243.43 89.9991 243.287 90.2058 243.12C90.4191 242.953 90.6258 242.763 90.8258 242.55V240.44C90.0058 240.467 89.3091 240.533 88.7358 240.64C88.1624 240.74 87.6958 240.873 87.3358 241.04C86.9758 241.207 86.7124 241.403 86.5458 241.63C86.3858 241.857 86.3058 242.11 86.3058 242.39C86.3058 242.657 86.3491 242.887 86.4358 243.08C86.5224 243.273 86.6391 243.433 86.7858 243.56C86.9324 243.68 87.1058 243.77 87.3058 243.83C87.5058 243.883 87.7224 243.91 87.9558 243.91ZM95.2725 245V234.87H96.2925C96.4858 234.87 96.6192 234.907 96.6925 234.98C96.7658 235.053 96.8158 235.18 96.8425 235.36L96.9625 236.94C97.3092 236.233 97.7358 235.683 98.2425 235.29C98.7558 234.89 99.3558 234.69 100.043 234.69C100.323 234.69 100.576 234.723 100.803 234.79C101.029 234.85 101.239 234.937 101.433 235.05L101.203 236.38C101.156 236.547 101.053 236.63 100.893 236.63C100.799 236.63 100.656 236.6 100.463 236.54C100.269 236.473 99.9992 236.44 99.6525 236.44C99.0325 236.44 98.5125 236.62 98.0925 236.98C97.6792 237.34 97.3325 237.863 97.0525 238.55V245H95.2725ZM17.731 258.87V269H15.951V258.87H17.731ZM18.131 255.69C18.131 255.863 18.0943 256.027 18.021 256.18C17.9543 256.327 17.861 256.46 17.741 256.58C17.6277 256.693 17.4943 256.783 17.341 256.85C17.1877 256.917 17.0243 256.95 16.851 256.95C16.6777 256.95 16.5143 256.917 16.361 256.85C16.2143 256.783 16.081 256.693 15.961 256.58C15.8477 256.46 15.7577 256.327 15.691 256.18C15.6243 256.027 15.591 255.863 15.591 255.69C15.591 255.517 15.6243 255.353 15.691 255.2C15.7577 255.04 15.8477 254.903 15.961 254.79C16.081 254.67 16.2143 254.577 16.361 254.51C16.5143 254.443 16.6777 254.41 16.851 254.41C17.0243 254.41 17.1877 254.443 17.341 254.51C17.4943 254.577 17.6277 254.67 17.741 254.79C17.861 254.903 17.9543 255.04 18.021 255.2C18.0943 255.353 18.131 255.517 18.131 255.69ZM20.8682 269V258.87H21.9282C22.1815 258.87 22.3415 258.993 22.4082 259.24L22.5482 260.34C22.9882 259.853 23.4782 259.46 24.0182 259.16C24.5649 258.86 25.1949 258.71 25.9082 258.71C26.4615 258.71 26.9482 258.803 27.3682 258.99C27.7949 259.17 28.1482 259.43 28.4282 259.77C28.7149 260.103 28.9315 260.507 29.0782 260.98C29.2249 261.453 29.2982 261.977 29.2982 262.55V269H27.5182V262.55C27.5182 261.783 27.3415 261.19 26.9882 260.77C26.6415 260.343 26.1082 260.13 25.3882 260.13C24.8615 260.13 24.3682 260.257 23.9082 260.51C23.4549 260.763 23.0349 261.107 22.6482 261.54V269H20.8682ZM38.8915 260.67C38.8382 260.743 38.7848 260.8 38.7315 260.84C38.6782 260.88 38.6015 260.9 38.5015 260.9C38.4015 260.9 38.2915 260.86 38.1715 260.78C38.0582 260.693 37.9115 260.6 37.7315 260.5C37.5515 260.4 37.3315 260.31 37.0715 260.23C36.8182 260.143 36.5048 260.1 36.1315 260.1C35.6382 260.1 35.2015 260.19 34.8215 260.37C34.4415 260.543 34.1215 260.797 33.8615 261.13C33.6082 261.463 33.4148 261.867 33.2815 262.34C33.1548 262.813 33.0915 263.343 33.0915 263.93C33.0915 264.543 33.1615 265.09 33.3015 265.57C33.4415 266.043 33.6382 266.443 33.8915 266.77C34.1448 267.09 34.4515 267.337 34.8115 267.51C35.1782 267.677 35.5882 267.76 36.0415 267.76C36.4748 267.76 36.8315 267.71 37.1115 267.61C37.3915 267.503 37.6248 267.387 37.8115 267.26C37.9982 267.133 38.1515 267.02 38.2715 266.92C38.3915 266.813 38.5115 266.76 38.6315 266.76C38.7848 266.76 38.8982 266.817 38.9715 266.93L39.4715 267.58C39.0315 268.12 38.4815 268.517 37.8215 268.77C37.1615 269.017 36.4648 269.14 35.7315 269.14C35.0982 269.14 34.5082 269.023 33.9615 268.79C33.4215 268.557 32.9515 268.22 32.5515 267.78C32.1515 267.333 31.8348 266.787 31.6015 266.14C31.3748 265.493 31.2615 264.757 31.2615 263.93C31.2615 263.177 31.3648 262.48 31.5715 261.84C31.7848 261.2 32.0915 260.65 32.4915 260.19C32.8982 259.723 33.3982 259.36 33.9915 259.1C34.5848 258.84 35.2648 258.71 36.0315 258.71C36.7382 258.71 37.3648 258.827 37.9115 259.06C38.4582 259.287 38.9415 259.61 39.3615 260.03L38.8915 260.67ZM41.3174 269V258.87H42.3374C42.5308 258.87 42.6641 258.907 42.7374 258.98C42.8108 259.053 42.8608 259.18 42.8874 259.36L43.0074 260.94C43.3541 260.233 43.7808 259.683 44.2874 259.29C44.8008 258.89 45.4008 258.69 46.0874 258.69C46.3674 258.69 46.6208 258.723 46.8474 258.79C47.0741 258.85 47.2841 258.937 47.4774 259.05L47.2474 260.38C47.2008 260.547 47.0974 260.63 46.9374 260.63C46.8441 260.63 46.7008 260.6 46.5074 260.54C46.3141 260.473 46.0441 260.44 45.6974 260.44C45.0774 260.44 44.5574 260.62 44.1374 260.98C43.7241 261.34 43.3774 261.863 43.0974 262.55V269H41.3174ZM53.3938 258.71C54.0005 258.71 54.5605 258.813 55.0738 259.02C55.5872 259.22 56.0305 259.513 56.4038 259.9C56.7772 260.28 57.0672 260.753 57.2738 261.32C57.4872 261.88 57.5938 262.52 57.5938 263.24C57.5938 263.52 57.5638 263.707 57.5038 263.8C57.4438 263.893 57.3305 263.94 57.1638 263.94H50.4238C50.4372 264.58 50.5238 265.137 50.6838 265.61C50.8438 266.083 51.0638 266.48 51.3438 266.8C51.6238 267.113 51.9572 267.35 52.3438 267.51C52.7305 267.663 53.1638 267.74 53.6438 267.74C54.0905 267.74 54.4738 267.69 54.7938 267.59C55.1205 267.483 55.4005 267.37 55.6338 267.25C55.8672 267.13 56.0605 267.02 56.2138 266.92C56.3738 266.813 56.5105 266.76 56.6238 266.76C56.7705 266.76 56.8838 266.817 56.9638 266.93L57.4638 267.58C57.2438 267.847 56.9805 268.08 56.6738 268.28C56.3672 268.473 56.0372 268.633 55.6838 268.76C55.3372 268.887 54.9772 268.98 54.6038 269.04C54.2305 269.107 53.8605 269.14 53.4938 269.14C52.7938 269.14 52.1472 269.023 51.5538 268.79C50.9672 268.55 50.4572 268.203 50.0238 267.75C49.5972 267.29 49.2638 266.723 49.0238 266.05C48.7838 265.377 48.6638 264.603 48.6638 263.73C48.6638 263.023 48.7705 262.363 48.9838 261.75C49.2038 261.137 49.5172 260.607 49.9238 260.16C50.3305 259.707 50.8272 259.353 51.4138 259.1C52.0005 258.84 52.6605 258.71 53.3938 258.71ZM53.4338 260.02C52.5738 260.02 51.8972 260.27 51.4038 260.77C50.9105 261.263 50.6038 261.95 50.4838 262.83H55.9938C55.9938 262.417 55.9372 262.04 55.8238 261.7C55.7105 261.353 55.5438 261.057 55.3238 260.81C55.1038 260.557 54.8338 260.363 54.5138 260.23C54.2005 260.09 53.8405 260.02 53.4338 260.02ZM67.3121 269H66.5221C66.3488 269 66.2088 268.973 66.1021 268.92C65.9954 268.867 65.9254 268.753 65.8921 268.58L65.6921 267.64C65.4254 267.88 65.1654 268.097 64.9121 268.29C64.6588 268.477 64.3921 268.637 64.1121 268.77C63.8321 268.897 63.5321 268.993 63.2121 269.06C62.8988 269.127 62.5488 269.16 62.1621 269.16C61.7688 269.16 61.3988 269.107 61.0521 269C60.7121 268.887 60.4154 268.72 60.1621 268.5C59.9088 268.28 59.7054 268.003 59.5521 267.67C59.4054 267.33 59.3321 266.93 59.3321 266.47C59.3321 266.07 59.4421 265.687 59.6621 265.32C59.8821 264.947 60.2354 264.617 60.7221 264.33C61.2154 264.043 61.8588 263.81 62.6521 263.63C63.4454 263.443 64.4154 263.337 65.5621 263.31V262.52C65.5621 261.733 65.3921 261.14 65.0521 260.74C64.7188 260.333 64.2221 260.13 63.5621 260.13C63.1288 260.13 62.7621 260.187 62.4621 260.3C62.1688 260.407 61.9121 260.53 61.6921 260.67C61.4788 260.803 61.2921 260.927 61.1321 261.04C60.9788 261.147 60.8254 261.2 60.6721 261.2C60.5521 261.2 60.4454 261.17 60.3521 261.11C60.2654 261.043 60.1954 260.963 60.1421 260.87L59.8221 260.3C60.3821 259.76 60.9854 259.357 61.6321 259.09C62.2788 258.823 62.9954 258.69 63.7821 258.69C64.3488 258.69 64.8521 258.783 65.2921 258.97C65.7321 259.157 66.1021 259.417 66.4021 259.75C66.7021 260.083 66.9288 260.487 67.0821 260.96C67.2354 261.433 67.3121 261.953 67.3121 262.52V269ZM62.6921 267.91C63.0054 267.91 63.2921 267.88 63.5521 267.82C63.8121 267.753 64.0554 267.663 64.2821 267.55C64.5154 267.43 64.7354 267.287 64.9421 267.12C65.1554 266.953 65.3621 266.763 65.5621 266.55V264.44C64.7421 264.467 64.0454 264.533 63.4721 264.64C62.8988 264.74 62.4321 264.873 62.0721 265.04C61.7121 265.207 61.4488 265.403 61.2821 265.63C61.1221 265.857 61.0421 266.11 61.0421 266.39C61.0421 266.657 61.0854 266.887 61.1721 267.08C61.2588 267.273 61.3754 267.433 61.5221 267.56C61.6688 267.68 61.8421 267.77 62.0421 267.83C62.2421 267.883 62.4588 267.91 62.6921 267.91ZM75.8088 260.54C75.7288 260.687 75.6055 260.76 75.4388 260.76C75.3388 260.76 75.2255 260.723 75.0988 260.65C74.9722 260.577 74.8155 260.497 74.6288 260.41C74.4488 260.317 74.2322 260.233 73.9788 260.16C73.7255 260.08 73.4255 260.04 73.0788 260.04C72.7788 260.04 72.5088 260.08 72.2688 260.16C72.0288 260.233 71.8222 260.337 71.6488 260.47C71.4822 260.603 71.3522 260.76 71.2588 260.94C71.1722 261.113 71.1288 261.303 71.1288 261.51C71.1288 261.77 71.2022 261.987 71.3488 262.16C71.5022 262.333 71.7022 262.483 71.9488 262.61C72.1955 262.737 72.4755 262.85 72.7888 262.95C73.1022 263.043 73.4222 263.147 73.7488 263.26C74.0822 263.367 74.4055 263.487 74.7188 263.62C75.0322 263.753 75.3122 263.92 75.5588 264.12C75.8055 264.32 76.0022 264.567 76.1488 264.86C76.3022 265.147 76.3788 265.493 76.3788 265.9C76.3788 266.367 76.2955 266.8 76.1288 267.2C75.9622 267.593 75.7155 267.937 75.3888 268.23C75.0622 268.517 74.6622 268.743 74.1888 268.91C73.7155 269.077 73.1688 269.16 72.5488 269.16C71.8422 269.16 71.2022 269.047 70.6288 268.82C70.0555 268.587 69.5688 268.29 69.1688 267.93L69.5888 267.25C69.6422 267.163 69.7055 267.097 69.7788 267.05C69.8522 267.003 69.9488 266.98 70.0688 266.98C70.1888 266.98 70.3155 267.027 70.4488 267.12C70.5822 267.213 70.7422 267.317 70.9288 267.43C71.1222 267.543 71.3522 267.647 71.6188 267.74C71.8922 267.833 72.2322 267.88 72.6388 267.88C72.9855 267.88 73.2888 267.837 73.5488 267.75C73.8088 267.657 74.0255 267.533 74.1988 267.38C74.3722 267.227 74.4988 267.05 74.5788 266.85C74.6655 266.65 74.7088 266.437 74.7088 266.21C74.7088 265.93 74.6322 265.7 74.4788 265.52C74.3322 265.333 74.1355 265.177 73.8888 265.05C73.6422 264.917 73.3588 264.803 73.0388 264.71C72.7255 264.61 72.4022 264.507 72.0688 264.4C71.7422 264.293 71.4188 264.173 71.0988 264.04C70.7855 263.9 70.5055 263.727 70.2588 263.52C70.0122 263.313 69.8122 263.06 69.6588 262.76C69.5122 262.453 69.4388 262.083 69.4388 261.65C69.4388 261.263 69.5188 260.893 69.6788 260.54C69.8388 260.18 70.0722 259.867 70.3788 259.6C70.6855 259.327 71.0622 259.11 71.5088 258.95C71.9555 258.79 72.4655 258.71 73.0388 258.71C73.7055 258.71 74.3022 258.817 74.8288 259.03C75.3622 259.237 75.8222 259.523 76.2088 259.89L75.8088 260.54ZM82.6907 258.71C83.2974 258.71 83.8574 258.813 84.3707 259.02C84.884 259.22 85.3274 259.513 85.7007 259.9C86.074 260.28 86.364 260.753 86.5707 261.32C86.784 261.88 86.8907 262.52 86.8907 263.24C86.8907 263.52 86.8607 263.707 86.8007 263.8C86.7407 263.893 86.6274 263.94 86.4607 263.94H79.7207C79.734 264.58 79.8207 265.137 79.9807 265.61C80.1407 266.083 80.3607 266.48 80.6407 266.8C80.9207 267.113 81.254 267.35 81.6407 267.51C82.0274 267.663 82.4607 267.74 82.9407 267.74C83.3874 267.74 83.7707 267.69 84.0907 267.59C84.4174 267.483 84.6974 267.37 84.9307 267.25C85.164 267.13 85.3574 267.02 85.5107 266.92C85.6707 266.813 85.8074 266.76 85.9207 266.76C86.0674 266.76 86.1807 266.817 86.2607 266.93L86.7607 267.58C86.5407 267.847 86.2774 268.08 85.9707 268.28C85.664 268.473 85.334 268.633 84.9807 268.76C84.634 268.887 84.274 268.98 83.9007 269.04C83.5274 269.107 83.1574 269.14 82.7907 269.14C82.0907 269.14 81.444 269.023 80.8507 268.79C80.264 268.55 79.754 268.203 79.3207 267.75C78.894 267.29 78.5607 266.723 78.3207 266.05C78.0807 265.377 77.9607 264.603 77.9607 263.73C77.9607 263.023 78.0674 262.363 78.2807 261.75C78.5007 261.137 78.814 260.607 79.2207 260.16C79.6274 259.707 80.124 259.353 80.7107 259.1C81.2974 258.84 81.9574 258.71 82.6907 258.71ZM82.7307 260.02C81.8707 260.02 81.194 260.27 80.7007 260.77C80.2074 261.263 79.9007 261.95 79.7807 262.83H85.2907C85.2907 262.417 85.234 262.04 85.1207 261.7C85.0074 261.353 84.8407 261.057 84.6207 260.81C84.4007 260.557 84.1307 260.363 83.8107 260.23C83.4974 260.09 83.1374 260.02 82.7307 260.02Z" fill="#ED394A"/>
</svg>
