<svg id="d3aab4cb-2a1b-4a35-b858-3cb1b6d65f2e" data-name="Layer 1" xmlns="http://www.w3.org/2000/svg" xmlns:xlink="http://www.w3.org/1999/xlink" viewBox="0 0 594 539"><defs><clipPath id="c2c7d6ce-14ae-42b2-b144-a9376ef13cd9"><rect x="230" y="155" width="158" height="54" style="fill:none"/></clipPath><clipPath id="55bf3dac-324f-43d7-888f-4e9b7ffe552b"><rect x="230" y="84" width="158" height="54" style="fill:none"/></clipPath><clipPath id="a56cff42-2e1e-4e85-8002-535f864700e4"><rect x="230" y="5" width="158" height="54" style="fill:none"/></clipPath><clipPath id="fdb672fb-ef9d-48da-80ff-96ba5d658e5c"><rect x="170" y="159" width="47" height="47" style="fill:none"/></clipPath><clipPath id="66f741b6-9e3e-46b8-9346-e5d8d81c6653"><rect x="-424" y="-5190" width="1440" height="7912" style="fill:none"/></clipPath><clipPath id="875b587f-ae85-4c7a-9efb-66349b3fe2bc"><rect x="166" y="86" width="51" height="51" style="fill:none"/></clipPath><clipPath id="536e8648-bba4-4566-b9f8-f38cc6a25421"><rect x="153" width="64" height="64" style="fill:none"/></clipPath><clipPath id="0afaae27-7f04-40c8-801c-c529c778b254"><path d="M263.79,421.46l-5.24,1.93c0-2.45-1.54-5.41-5.51-4.56-3.81.82-6.79,4.67-6.74,10,0,6.08,3.72,7.78,7.65,6.94,3.4-.74,5.67-3.47,6.74-5.22l3.4,2.8a16.07,16.07,0,0,1-10.26,7.37c-7.86,1.69-13.2-2.3-13.27-10.66s5.11-14.61,12.36-16.17c7.94-1.71,10.84,3.28,10.87,7.53" style="fill:none;clip-rule:evenodd"/></clipPath><clipPath id="1405adc4-7766-4356-b227-aab3b13c241b"><polygon points="267.19 409.3 272.68 408.12 272.91 436.38 267.42 437.56 267.19 409.3" style="fill:none;clip-rule:evenodd"/></clipPath><clipPath id="4394573e-b62e-49eb-b13c-60cba457f81f"><path d="M292.11,426.16l2.63,2.45a12.9,12.9,0,0,1-8.11,5.07c-6.38,1.37-10.22-1.82-10.27-7.5A11.83,11.83,0,0,1,286,414.41c5.53-1.19,8.73,1.9,8.77,7.06a12.24,12.24,0,0,1-.14,2l-12.75,2.74c.5,2.42,2.28,3.8,5.4,3.13a8,8,0,0,0,4.88-3.22M281.8,423.4l7.9-1.69c-.06-2.24-1.43-3.63-3.72-3.13a5.44,5.44,0,0,0-4.18,4.82" style="fill:none;clip-rule:evenodd"/></clipPath><clipPath id="4e72ad99-86e8-4b80-be85-8a9bd9b1045b"><path d="M329,412.75l.09,11.57-5.49,1.18-.09-10.6c0-2.29-1.11-3.54-3.32-3.06-2.73.58-3.79,3.26-3.77,5.42l.08,9.77L311,428.21l-.09-10.61c0-2.28-1.11-3.53-3.32-3.06-2.69.58-3.75,3.25-3.73,5.42l.08,9.77-5.5,1.18-.15-18.9,4.29-1.08a13.89,13.89,0,0,1,.71,3.81l.12,0a7.8,7.8,0,0,1,5.91-5.28c3.36-.72,5.54.53,6.53,2.89a7.83,7.83,0,0,1,6.06-5.59c4.61-1,7,1.69,7.08,6" style="fill:none;clip-rule:evenodd"/></clipPath><clipPath id="211cb70b-6b4e-4fe7-800d-9fcd587c4dc7"><path d="M348.09,414.14l2.63,2.44a12.82,12.82,0,0,1-8.11,5.07c-6.38,1.37-10.22-1.81-10.27-7.5a11.83,11.83,0,0,1,9.59-11.76c5.53-1.19,8.73,1.89,8.77,7.06a12,12,0,0,1-.14,2l-12.76,2.74c.51,2.42,2.29,3.8,5.41,3.13a8,8,0,0,0,4.88-3.21m-10.31-2.76,7.9-1.7c-.06-2.23-1.43-3.62-3.72-3.13a5.46,5.46,0,0,0-4.18,4.83" style="fill:none;clip-rule:evenodd"/></clipPath><clipPath id="1e39da01-616d-4c97-bd6c-32414f8acd78"><path d="M372.63,403.33l.09,11.61-5.49,1.18-.09-10.64c0-2.25-1.15-3.53-3.36-3.05-2.81.6-4,3.3-4,5.5l.08,9.77-5.5,1.18-.15-18.9,4.29-1.08a14.88,14.88,0,0,1,.71,3.82l.16,0a8.08,8.08,0,0,1,6.11-5.37c4.69-1,7.08,1.73,7.12,6" style="fill:none;clip-rule:evenodd"/></clipPath><clipPath id="e856929d-f3be-4773-95e1-ec35cf9c23c1"><path d="M391.36,409.82a13.14,13.14,0,0,1-5.65,2.57c-5,1.07-7.6-1.05-7.64-6.41l-.06-6.93-2.88.62,0-4.16,3.13-.68,0-5.32,5.29-1.34,0,5.53,6.66-1.43,0,4.16-6.65,1.43.05,6.69c0,2.52,1,3.43,3.12,3a6.18,6.18,0,0,0,3-1.66Z" style="fill:none;clip-rule:evenodd"/></clipPath><clipPath id="877416c3-4a7e-40a2-994f-e0f6e87023df"><polygon points="393.49 395.64 404.84 393.21 404.87 396.97 393.52 399.41 393.49 395.64" style="fill:none;clip-rule:evenodd"/></clipPath><clipPath id="6837073d-1caf-4d34-83ed-52c5aa89ee3d"><path d="M442.56,373.47l-7.16,28-6.46,1.39L425.3,390a30,30,0,0,1-.84-4.27l-.12,0c-.11.91-.34,2.56-.8,4.62L420,404.79l-6.5,1.4L406,381.32l5.81-1.25,4.28,16.85.71,3.1.12,0c.15-.79.38-2.09.65-3.35l4.23-18.71,5-1.08,4.48,16.85c.33,1.17.58,2.28.75,3l.11,0,.66-3.39,4-18.62Z" style="fill:none;clip-rule:evenodd"/></clipPath><clipPath id="6b8ac626-0b61-479f-9b9f-27c59104dff5"><path d="M458.37,390.45l2.63,2.44a12.9,12.9,0,0,1-8.12,5.08c-6.37,1.37-10.22-1.82-10.26-7.5a11.82,11.82,0,0,1,9.58-11.77c5.54-1.19,8.74,1.9,8.78,7.06a11.53,11.53,0,0,1-.15,2l-12.75,2.74c.5,2.41,2.28,3.8,5.41,3.12a7.92,7.92,0,0,0,4.88-3.21m-10.31-2.76L456,386c-.06-2.24-1.44-3.63-3.72-3.14a5.44,5.44,0,0,0-4.18,4.83" style="fill:none;clip-rule:evenodd"/></clipPath><clipPath id="3a039fad-38d9-42ee-9c80-26bc9ebb5604"><path d="M484.36,381.5c.05,6-3.57,10.47-8.62,11.56-3.13.67-5.23-.44-6.33-2.45h-.08a20.37,20.37,0,0,1-.45,3.67l-4.21.9-.23-28.26,5.49-1.18.1,12.13a8.28,8.28,0,0,1,5.83-4.26c4.77-1,8.45,1.71,8.5,7.88m-5.57,1.2c0-3.13-1.65-4.74-4.37-4.16a5.7,5.7,0,0,0-4.34,5.42v1.25a3.47,3.47,0,0,0,4.53,3.48c2.57-.56,4.19-2.87,4.17-6" style="fill:none;clip-rule:evenodd"/></clipPath></defs><title>CodingPackage</title><g style="clip-path:url(#c2c7d6ce-14ae-42b2-b144-a9376ef13cd9)"><g style="opacity:0.2590999901294708"><path d="M244.17,186.53h-2.42a3.42,3.42,0,0,0-1.24-2.17,4.93,4.93,0,0,0-2.94-.75,4.54,4.54,0,0,0-2.61.62,1.87,1.87,0,0,0-1,1.68c0,.68.43,1.27,1.36,1.73a24.45,24.45,0,0,0,3.32,1.06,14.31,14.31,0,0,1,4.12,1.49,3.72,3.72,0,0,1,1.93,3.28c0,3.29-2.27,5-6.79,5-4.22,0-6.52-1.86-6.89-5.55h2.42a4.17,4.17,0,0,0,1.33,2.73,5.21,5.21,0,0,0,3.07.75c2.86,0,4.31-.93,4.31-2.73a2.31,2.31,0,0,0-1.52-2.08,22.3,22.3,0,0,0-3.41-1,13.89,13.89,0,0,1-4-1.43A3.42,3.42,0,0,1,231.4,186a3.65,3.65,0,0,1,1.79-3.22,7.4,7.4,0,0,1,4.41-1.21C241.57,181.54,243.74,183.18,244.17,186.53Z"/><path d="M250.52,175.43V198h-2.45V175.43Z"/><path d="M266.92,183.33a6.43,6.43,0,0,1,1.43,4.38V198H266v-2.7a7.38,7.38,0,0,1-2.45,2.14,8.12,8.12,0,0,1-4,1,5.74,5.74,0,0,1-3.84-1.21,4,4,0,0,1-1.49-3.22,4.53,4.53,0,0,1,2.2-4.12,10.28,10.28,0,0,1,5.58-1.37l3.85-.06v-.84q0-4-4.19-4a5.13,5.13,0,0,0-2.88.71,3.51,3.51,0,0,0-1.61,2.3l-2.45-.19a5.52,5.52,0,0,1,2.48-3.75,8.54,8.54,0,0,1,4.62-1.11C264.13,181.54,265.81,182.12,266.92,183.33Zm-4.74,7c-3.6.06-5.4,1.24-5.4,3.57a2.22,2.22,0,0,0,.9,1.83,4,4,0,0,0,2.42.71,6.08,6.08,0,0,0,4-1.49,4.27,4.27,0,0,0,1.74-3.32v-1.36Z"/><path d="M283.88,182.93a6.39,6.39,0,0,1,2.26,4.37h-2.45a4.36,4.36,0,0,0-1.48-2.79,4.93,4.93,0,0,0-3.11-.9,4.37,4.37,0,0,0-3.68,1.77,7.53,7.53,0,0,0-1.31,4.65,7.42,7.42,0,0,0,1.27,4.62,4.36,4.36,0,0,0,3.69,1.71c2.73,0,4.31-1.4,4.69-4.16h2.48a7.73,7.73,0,0,1-2.39,4.68,7.1,7.1,0,0,1-4.78,1.55,6.87,6.87,0,0,1-5.61-2.41,9,9,0,0,1-1.89-6,9.1,9.1,0,0,1,1.89-6,6.83,6.83,0,0,1,5.64-2.54A7.61,7.61,0,0,1,283.88,182.93Z"/><path d="M291.63,175.43v14l8-7.44h3.28l-7.06,6.45,7.75,9.58h-3.2l-6.26-8-2.54,2.3V198h-2.48V175.43Z"/><path d="M309.05,194.87a1.82,1.82,0,0,1,.56,1.36,1.89,1.89,0,0,1-1.89,1.89,1.72,1.72,0,0,1-1.34-.55,1.93,1.93,0,0,1,0-2.7,1.73,1.73,0,0,1,1.34-.56A1.86,1.86,0,0,1,309.05,194.87Z"/><path d="M317.33,182v17.89c0,2.85-1.52,4.28-4.5,4.28h-1.49v-2.08h1.3a2,2,0,0,0,2.21-2.29V182Zm.12-5.52a1.69,1.69,0,0,1,.53,1.3,1.93,1.93,0,0,1-.53,1.34,2,2,0,0,1-1.36.52,1.91,1.91,0,0,1-1.34-.52,1.8,1.8,0,0,1-.52-1.34,1.59,1.59,0,0,1,.52-1.3,1.79,1.79,0,0,1,1.34-.53A1.85,1.85,0,0,1,317.45,176.45Z"/><path d="M334.25,186.53h-2.41a3.42,3.42,0,0,0-1.24-2.17,5,5,0,0,0-3-.75,4.56,4.56,0,0,0-2.61.62,1.87,1.87,0,0,0-1,1.68c0,.68.44,1.27,1.37,1.73a24.17,24.17,0,0,0,3.31,1.06,14.4,14.4,0,0,1,4.13,1.49,3.71,3.71,0,0,1,1.92,3.28c0,3.29-2.26,5-6.79,5-4.22,0-6.51-1.86-6.88-5.55h2.42a4.12,4.12,0,0,0,1.33,2.73,5.16,5.16,0,0,0,3.07.75c2.85,0,4.31-.93,4.31-2.73a2.32,2.32,0,0,0-1.52-2.08,23.09,23.09,0,0,0-3.41-1,13.77,13.77,0,0,1-4-1.43,3.43,3.43,0,0,1-1.83-3.13,3.66,3.66,0,0,1,1.8-3.22,7.34,7.34,0,0,1,4.4-1.21C331.65,181.54,333.82,183.18,334.25,186.53Z"/></g></g><g style="clip-path:url(#55bf3dac-324f-43d7-888f-4e9b7ffe552b)"><g style="opacity:0.6345000267028809"><path d="M248.29,106.44a8.67,8.67,0,0,1,2.92,5.52h-2.54a6.3,6.3,0,0,0-2.24-3.84,7.4,7.4,0,0,0-4.74-1.43,7.08,7.08,0,0,0-5.74,2.54,10.16,10.16,0,0,0-2.11,6.79,9.94,9.94,0,0,0,2,6.61c1.46,1.7,3.63,2.57,6.51,2.57a12.94,12.94,0,0,0,3.48-.49,10.55,10.55,0,0,0,2.79-1.25v-5.64h-6.95v-2.2h9.46v9a11.88,11.88,0,0,1-3.88,2,17.24,17.24,0,0,1-5.15.74c-3.5,0-6.23-1.11-8.15-3.34a11.91,11.91,0,0,1-2.7-8.07A12.15,12.15,0,0,1,234,107.9a9.41,9.41,0,0,1,7.72-3.47A10,10,0,0,1,248.29,106.44Z"/><path d="M264.35,110.91v2.48a8,8,0,0,0-2.39-.34,3.75,3.75,0,0,0-3.13,1.64,5.79,5.79,0,0,0-1.27,3.81V127h-2.45V111h2.45v2.79a5.84,5.84,0,0,1,1.67-2.2,4.48,4.48,0,0,1,2.92-1A5.68,5.68,0,0,1,264.35,110.91Z"/><path d="M269.8,105.45a1.59,1.59,0,0,1,.56,1.3,1.8,1.8,0,0,1-.56,1.34,2,2,0,0,1-2.66,0,1.81,1.81,0,0,1-.53-1.34,1.6,1.6,0,0,1,.53-1.3,1.93,1.93,0,0,1,2.66,0Zm-.09,5.52v16h-2.48V111Z"/><path d="M288.69,104.43V127h-2.33v-2.64a5.65,5.65,0,0,1-5.33,3.07,6.56,6.56,0,0,1-5.49-2.54,9.37,9.37,0,0,1-1.8-6,9.13,9.13,0,0,1,1.8-5.83,6.27,6.27,0,0,1,5.36-2.57,5.79,5.79,0,0,1,5.31,3.38v-9.49Zm-11.23,10a7.38,7.38,0,0,0-1.18,4.5,7.86,7.86,0,0,0,1.15,4.56,4.48,4.48,0,0,0,3.91,1.89,4.36,4.36,0,0,0,3.75-1.86,7.57,7.57,0,0,0,1.18-4.37v-.31a7.34,7.34,0,0,0-1.34-4.53,4.18,4.18,0,0,0-3.5-1.74A4.53,4.53,0,0,0,277.46,114.44Z"/><path d="M296,123.87a1.82,1.82,0,0,1,.56,1.36,1.89,1.89,0,0,1-1.89,1.89,1.74,1.74,0,0,1-1.34-.55,1.93,1.93,0,0,1,0-2.7,1.74,1.74,0,0,1,1.34-.56A1.86,1.86,0,0,1,296,123.87Z"/><path d="M312.4,111.93a6.39,6.39,0,0,1,2.26,4.37h-2.45a4.36,4.36,0,0,0-1.48-2.79,4.93,4.93,0,0,0-3.11-.9,4.37,4.37,0,0,0-3.68,1.77,7.53,7.53,0,0,0-1.31,4.65,7.42,7.42,0,0,0,1.27,4.62,4.36,4.36,0,0,0,3.69,1.71c2.73,0,4.31-1.4,4.69-4.16h2.48a7.73,7.73,0,0,1-2.39,4.68,7.1,7.1,0,0,1-4.78,1.55A6.87,6.87,0,0,1,302,125a9,9,0,0,1-1.89-6,9.1,9.1,0,0,1,1.89-6,6.83,6.83,0,0,1,5.64-2.54A7.61,7.61,0,0,1,312.4,111.93Z"/><path d="M329.91,115.53H327.5a3.42,3.42,0,0,0-1.24-2.17,5,5,0,0,0-2.95-.75,4.51,4.51,0,0,0-2.6.62,1.86,1.86,0,0,0-1,1.68c0,.68.44,1.27,1.37,1.73a24.17,24.17,0,0,0,3.31,1.06,14.4,14.4,0,0,1,4.13,1.49,3.71,3.71,0,0,1,1.92,3.28c0,3.29-2.26,5-6.79,5-4.22,0-6.51-1.86-6.88-5.55h2.42a4.12,4.12,0,0,0,1.33,2.73,5.16,5.16,0,0,0,3.07.75c2.85,0,4.31-.93,4.31-2.73a2.32,2.32,0,0,0-1.52-2.08,23.09,23.09,0,0,0-3.41-1,13.77,13.77,0,0,1-4-1.43,3.43,3.43,0,0,1-1.83-3.13,3.66,3.66,0,0,1,1.8-3.22,7.34,7.34,0,0,1,4.4-1.21C327.31,110.54,329.48,112.18,329.91,115.53Z"/><path d="M345.57,115.53h-2.42a3.42,3.42,0,0,0-1.24-2.17,4.94,4.94,0,0,0-3-.75,4.53,4.53,0,0,0-2.6.62,1.87,1.87,0,0,0-1,1.68c0,.68.43,1.27,1.36,1.73A24.45,24.45,0,0,0,340,117.7a14.31,14.31,0,0,1,4.12,1.49,3.72,3.72,0,0,1,1.93,3.28c0,3.29-2.27,5-6.79,5-4.22,0-6.52-1.86-6.89-5.55h2.42a4.17,4.17,0,0,0,1.33,2.73,5.21,5.21,0,0,0,3.07.75c2.86,0,4.31-.93,4.31-2.73a2.31,2.31,0,0,0-1.52-2.08,22.3,22.3,0,0,0-3.41-1,13.89,13.89,0,0,1-4-1.43,3.43,3.43,0,0,1-1.83-3.13,3.66,3.66,0,0,1,1.8-3.22,7.4,7.4,0,0,1,4.41-1.21C343,110.54,345.13,112.18,345.57,115.53Z"/></g></g><g style="clip-path:url(#a56cff42-2e1e-4e85-8002-535f864700e4)"><path d="M237.6,26.36h4.86V28.9H237.6V41.4A2.16,2.16,0,0,0,238,43a1.88,1.88,0,0,0,1.44.49H242V46h-3a4.27,4.27,0,0,1-3.45-1.25,5,5,0,0,1-1-3.35V28.9h-3.95V26.36h3.95V21.27l3-1.26Z"/><path d="M247,26.36l4.83,15.92,4.56-15.92h2.85l4.56,15.92,4.82-15.92H272L265.3,46h-2.89l-4.56-15.81L253.22,46h-2.85l-6.69-19.64Z"/><path d="M289.77,29c1.44,1.9,2.2,4.59,2.28,8h-15.5a8.44,8.44,0,0,0,1.78,5.13A5.58,5.58,0,0,0,282.74,44a6.1,6.1,0,0,0,3.92-1.22,6.85,6.85,0,0,0,2-3.08h3A8.92,8.92,0,0,1,289,44.33a9.14,9.14,0,0,1-6.27,2.2A8.79,8.79,0,0,1,276,43.76a10.72,10.72,0,0,1-2.58-7.6,10.68,10.68,0,0,1,2.47-7.26,8.24,8.24,0,0,1,6.76-3.07C285.78,25.83,288.18,26.89,289.77,29Zm-11.28,1.06a7.54,7.54,0,0,0-1.87,4.6H288.9c-.38-4.22-2.47-6.31-6.2-6.31A5.49,5.49,0,0,0,278.49,30.08Z"/><path d="M312.15,33.92V46h-3V34.15c0-3.84-1.74-5.74-5.16-5.74a4.83,4.83,0,0,0-3.54,1.48,6.36,6.36,0,0,0-1.75,4.26V46h-3V26.36h3v2.88a7.24,7.24,0,0,1,6.16-3.41C309.68,25.83,312.15,28.52,312.15,33.92Z"/><path d="M322.11,26.36H327V28.9h-4.86V41.4a2.16,2.16,0,0,0,.42,1.56,1.88,1.88,0,0,0,1.44.49h2.51V46h-3a4.28,4.28,0,0,1-3.46-1.25,5,5,0,0,1-.95-3.35V28.9h-3.95V26.36h3.95V21.27l3-1.26Z"/><path d="M331.5,26.36l6,15.5,5.81-15.5h3.35L335.9,53.52h-3.3l3.38-8-7.79-19.18Z"/><path d="M353.5,42.16a2.35,2.35,0,0,1,0,3.31,2.31,2.31,0,0,1-1.64.68,2.11,2.11,0,0,1-1.63-.68,2.35,2.35,0,0,1,0-3.31,2.11,2.11,0,0,1,1.63-.68A2.31,2.31,0,0,1,353.5,42.16Z"/><path d="M363.64,26.36V48.28c0,3.5-1.86,5.24-5.51,5.24h-1.82V51h1.6c1.78,0,2.69-.95,2.69-2.81V26.36Zm.15-6.77a2.07,2.07,0,0,1,.65,1.6,2.3,2.3,0,0,1-.65,1.63,2.39,2.39,0,0,1-1.67.65,2.33,2.33,0,0,1-1.63-.65,2.14,2.14,0,0,1-.65-1.63,1.94,1.94,0,0,1,.65-1.6,2.2,2.2,0,0,1,1.63-.64A2.26,2.26,0,0,1,363.79,19.59Z"/><path d="M384.39,31.94h-3a4.22,4.22,0,0,0-1.52-2.66,6.11,6.11,0,0,0-3.61-.91,5.52,5.52,0,0,0-3.19.76,2.28,2.28,0,0,0-1.26,2.05c0,.84.53,1.56,1.67,2.13a29,29,0,0,0,4.07,1.29,17.78,17.78,0,0,1,5.05,1.83,4.54,4.54,0,0,1,2.36,4c0,4-2.78,6.08-8.32,6.08-5.17,0-8-2.28-8.44-6.8h3a5,5,0,0,0,1.63,3.34,6.35,6.35,0,0,0,3.76.92c3.5,0,5.28-1.14,5.28-3.35A2.82,2.82,0,0,0,380,38.1a28.75,28.75,0,0,0-4.18-1.26A17.1,17.1,0,0,1,371,35.1a4.21,4.21,0,0,1-2.24-3.84,4.49,4.49,0,0,1,2.2-4,9,9,0,0,1,5.39-1.48C381.2,25.83,383.86,27.84,384.39,31.94Z"/></g><g style="clip-path:url(#fdb672fb-ef9d-48da-80ff-96ba5d658e5c)"><g style="clip-path:url(#66f741b6-9e3e-46b8-9346-e5d8d81c6653)"><g style="opacity:0.2590999901294708"><rect x="165" y="154" width="57" height="57" style="fill:#dadada"/></g></g></g><g style="clip-path:url(#875b587f-ae85-4c7a-9efb-66349b3fe2bc)"><g style="clip-path:url(#66f741b6-9e3e-46b8-9346-e5d8d81c6653)"><g style="opacity:0.6345000267028809"><rect x="161" y="81" width="61" height="61" style="fill:#dadada"/></g></g></g><g style="clip-path:url(#536e8648-bba4-4566-b9f8-f38cc6a25421)"><g style="clip-path:url(#66f741b6-9e3e-46b8-9346-e5d8d81c6653)"><rect x="148" y="-5" width="74" height="74" style="fill:#b00"/></g></g><path d="M192.86,335.48a8,8,0,0,1-6.45-3.27l-45.27-61.78a8,8,0,0,1,5.35-12.65l246.26-34.5a8,8,0,0,1,3.38.25l143.5,42.38a8,8,0,0,1-1,15.58l-344.5,53.9A8.62,8.62,0,0,1,192.86,335.48ZM162,271.76l34.48,47.07L501,271.18,393.26,239.37Z" style="fill:#dadada"/><path d="M193.36,538.79a8.06,8.06,0,0,1-3.64-.87L62.92,473.28a8,8,0,0,1-4.37-7L55.94,277.52A8,8,0,0,1,66.83,270L195.76,320a8,8,0,0,1,5.11,7.43l.49,203.31a8,8,0,0,1-8,8ZM74.48,461.22l110.85,56.49L184.88,333,72.1,289.17Z" style="fill:#6b7e82"/><path d="M192.86,335.49a7.88,7.88,0,0,1-2.89-.55L61,284.87a8,8,0,0,1-3.48-2.63L-.38,205.79a8,8,0,0,1,9-12.37l126.89,44.66a8,8,0,0,1,3.79,2.82l60,81.86a8,8,0,0,1-6.46,12.73ZM68.94,270.77l101.27,39.34L127.9,252.35l-99.44-35Z" style="fill:#93adb5"/><path d="M537.37,281.59a8,8,0,0,1-2.27-.33L391.6,238.88a8,8,0,0,1-4.75-11.52l46.26-84.42A8,8,0,0,1,442,139l146.34,35.73a8,8,0,0,1,5.14,11.57l-49.09,91.07A8,8,0,0,1,537.37,281.59ZM405.65,226.34,533.4,264.07l41.11-76.24L444.19,156Z" style="fill:#93adb5"/><path d="M193.36,538.79a8,8,0,0,1-8-8l-.49-203.31a8,8,0,0,1,6.76-7.92l344.5-53.9a8,8,0,0,1,9.23,8.13l-5.28,187.62a8,8,0,0,1-6.39,7.61L195,538.62A8.08,8.08,0,0,1,193.36,538.79Zm7.52-204.46L201.33,521l322.93-66.34L529.1,283Z" style="fill:#b6d6dd"/><g style="clip-path:url(#0afaae27-7f04-40c8-801c-c529c778b254)"><g style="clip-path:url(#66f741b6-9e3e-46b8-9346-e5d8d81c6653)"><rect x="235.56" y="408.58" width="33.53" height="37.56" style="fill:#93adb5"/></g></g><g style="clip-path:url(#1405adc4-7766-4356-b227-aab3b13c241b)"><g style="clip-path:url(#66f741b6-9e3e-46b8-9346-e5d8d81c6653)"><rect x="262.19" y="403.12" width="15.72" height="39.45" style="fill:#93adb5"/></g></g><g style="clip-path:url(#4394573e-b62e-49eb-b13c-60cba457f81f)"><g style="clip-path:url(#66f741b6-9e3e-46b8-9346-e5d8d81c6653)"><rect x="271.36" y="409.16" width="28.38" height="29.84" style="fill:#93adb5"/></g></g><g style="clip-path:url(#4e72ad99-86e8-4b80-be85-8a9bd9b1045b)"><g style="clip-path:url(#66f741b6-9e3e-46b8-9346-e5d8d81c6653)"><rect x="293.26" y="401.53" width="40.79" height="34.38" style="fill:#93adb5"/></g></g><g style="clip-path:url(#211cb70b-6b4e-4fe7-800d-9fcd587c4dc7)"><g style="clip-path:url(#66f741b6-9e3e-46b8-9346-e5d8d81c6653)"><rect x="327.34" y="397.13" width="28.38" height="29.84" style="fill:#93adb5"/></g></g><g style="clip-path:url(#1e39da01-616d-4c97-bd6c-32414f8acd78)"><g style="clip-path:url(#66f741b6-9e3e-46b8-9346-e5d8d81c6653)"><rect x="349.24" y="392.12" width="28.48" height="31.77" style="fill:#93adb5"/></g></g><g style="clip-path:url(#e856929d-f3be-4773-95e1-ec35cf9c23c1)"><g style="clip-path:url(#66f741b6-9e3e-46b8-9346-e5d8d81c6653)"><rect x="370.09" y="383.17" width="26.27" height="34.49" style="fill:#93adb5"/></g></g><g style="clip-path:url(#877416c3-4a7e-40a2-994f-e0f6e87023df)"><g style="clip-path:url(#66f741b6-9e3e-46b8-9346-e5d8d81c6653)"><rect x="388.49" y="388.21" width="21.38" height="16.2" style="fill:#93adb5"/></g></g><g style="clip-path:url(#6837073d-1caf-4d34-83ed-52c5aa89ee3d)"><g style="clip-path:url(#66f741b6-9e3e-46b8-9346-e5d8d81c6653)"><rect x="401.03" y="368.47" width="46.53" height="42.71" style="fill:#93adb5"/></g></g><g style="clip-path:url(#6b8ac626-0b61-479f-9b9f-27c59104dff5)"><g style="clip-path:url(#66f741b6-9e3e-46b8-9346-e5d8d81c6653)"><rect x="437.62" y="373.45" width="28.38" height="29.84" style="fill:#93adb5"/></g></g><g style="clip-path:url(#3a039fad-38d9-42ee-9c80-26bc9ebb5604)"><g style="clip-path:url(#66f741b6-9e3e-46b8-9346-e5d8d81c6653)"><rect x="459.44" y="360.75" width="29.92" height="39.45" style="fill:#93adb5"/></g></g></svg>