<?xml version="1.0" encoding="UTF-8"?>
<svg width="598px" height="539px" viewBox="0 0 598 539" version="1.1" xmlns="http://www.w3.org/2000/svg" xmlns:xlink="http://www.w3.org/1999/xlink">
    <!-- Generator: Sketch 49.3 (51167) - http://www.bohemiancoding.com/sketch -->
    <title>CodingPackage</title>
    <desc>Created with Sketch.</desc>
    <defs></defs>
    <g id="Page-1" stroke="none" stroke-width="1" fill="none" fill-rule="evenodd">
        <g id="Process" transform="translate(-421.000000, -5190.000000)">
            <g id="CodingPackage" transform="translate(430.000000, 5190.000000)">
                <text id="slack.js" opacity="0.259057971" font-family="PingFangSC-Regular, PingFang SC" font-size="31" font-weight="normal" fill="#000000">
                    <tspan x="224" y="188">slack.js</tspan>
                </text>
                <text id="Grid.css" opacity="0.63451087" font-family="PingFangSC-Regular, PingFang SC" font-size="31" font-weight="normal" fill="#000000">
                    <tspan x="224" y="117">Grid.css</tspan>
                </text>
                <text id="twenty.js" font-family="PingFangSC-Regular, PingFang SC" font-size="38" font-weight="normal" fill="#000000">
                    <tspan x="224" y="45">twenty.js</tspan>
                </text>
                <polygon id="Rectangle-6" fill="#DADADA" opacity="0.259057971" points="164 159 211 159 211 206 164 206"></polygon>
                <polygon id="Rectangle-6-Copy" fill="#DADADA" opacity="0.63451087" points="160 86 211 86 211 137 160 137"></polygon>
                <polygon id="Rectangle-6-Copy-2" fill="#BB0000" points="147 0 211 0 211 64 147 64"></polygon>
                <g id="Page-1" transform="translate(0.000000, 146.000000)">
                    <polygon id="Stroke-1" stroke="#DADADA" stroke-width="16" stroke-linejoin="round" points="531.365029 127.585804 386.864707 150.193264 186.864828 181.484487 141.595244 119.697792 387.864277 85.2048214"></polygon>
                    <g id="Group-32" transform="translate(0.000000, 0.577876)">
                        <polygon id="Stroke-2" stroke="#6B7E82" stroke-width="16" stroke-linejoin="round" points="187.356804 384.209287 60.5519918 319.573037 57.93593 130.833937 186.864828 180.906142 187.145957 296.247136"></polygon>
                        <polygon id="Stroke-4" stroke="#93ADB5" stroke-width="16" stroke-linejoin="round" points="186.864906 180.906298 57.9360081 130.834094 0 54.3826152 126.890712 99.0516757 141.595323 119.120384"></polygon>
                        <polygon id="Stroke-6" stroke="#93ADB5" stroke-width="16" stroke-linejoin="round" points="580.461169 35.9376613 531.365108 127.007849 387.864355 84.6276478 434.125699 0.203037634"></polygon>
                        <polygon id="Stroke-8" stroke="#B6D6DD" stroke-width="16" stroke-linejoin="round" points="531.365029 127.007928 526.078242 314.622511 187.356804 384.208975 187.145957 296.247605 186.864828 180.90661 386.864707 149.615387"></polygon>
                        <path d="M257.791965,274.879846 L252.545004,276.809485 C252.525481,274.366786 251.014412,271.403217 247.044246,272.255975 C243.234166,273.074373 240.253418,276.922717 240.297149,282.287596 C240.346346,288.373259 244.015861,290.071747 247.946201,289.227579 C251.35411,288.495862 253.621884,285.762663 254.692517,284.00795 L258.090274,286.807526 C256.940768,288.739508 253.720279,292.920521 247.82594,294.186383 C239.96526,295.874719 234.630056,291.886591 234.562117,283.519098 C234.494958,275.271865 239.66617,268.908197 246.923985,267.348712 C254.864318,265.643196 257.757604,270.63636 257.791965,274.879846" id="Fill-10" fill="#93ADB5"></path>
                        <polygon id="Fill-12" fill="#93ADB5" points="261.186676 262.720703 266.680406 261.540742 266.909994 289.805924 261.416265 290.985885"></polygon>
                        <path d="M275.802496,276.826743 L283.703003,275.129817 C283.644434,272.896403 282.266902,271.507157 279.981948,271.998352 C277.815692,272.463776 276.182801,274.21849 275.802496,276.826743 M286.108999,279.585712 L288.739898,282.028411 C287.470132,283.986162 284.71741,286.221919 280.626983,287.100447 C274.249258,288.47017 270.407942,285.284822 270.361088,279.599768 C270.315794,273.954541 274.092294,269.093352 279.947588,267.834518 C285.481925,266.646748 288.680549,269.729016 288.721937,274.893981 C288.732089,276.095026 288.578249,276.929824 288.578249,276.929824 L275.825924,279.66927 C276.32727,282.08776 278.106192,283.470759 281.233753,282.798392 C283.920878,282.221297 285.314028,280.639165 286.108999,279.585712" id="Fill-14" fill="#93ADB5"></path>
                        <path d="M322.95705,266.176872 L323.05154,277.746894 L317.55781,278.926855 L317.47191,268.317358 C317.452387,266.034746 316.357546,264.786845 314.152244,265.26086 C311.424512,265.846546 310.361688,268.521176 310.38043,270.683527 L310.459302,280.451199 L304.965572,281.631941 L304.879672,271.022444 C304.860149,268.739832 303.765308,267.491931 301.560007,267.965165 C298.872882,268.542261 297.810058,271.216891 297.827238,273.379242 L297.906891,283.147695 L292.413161,284.327656 L292.25854,265.431099 L296.549662,264.349534 C296.958861,265.384245 297.25639,267.365423 297.263418,268.166641 L297.383679,268.140871 C298.247369,265.708324 300.037224,263.559249 303.285826,262.861892 C306.654689,262.138766 308.83422,263.394476 309.817391,265.750493 C310.640474,263.16723 312.469375,260.889304 315.878845,260.157587 C320.490142,259.166608 322.921908,261.852952 322.95705,266.176872" id="Fill-16" fill="#93ADB5"></path>
                        <path d="M331.782002,264.801917 L339.681728,263.104991 C339.62394,260.872358 338.246408,259.483112 335.961454,259.974307 C333.795199,260.439732 332.162307,262.193664 331.782002,264.801917 M342.088505,267.561667 L344.719404,270.004366 C343.449638,271.961336 340.696135,274.197093 336.606489,275.075621 C330.229545,276.445344 326.387449,273.259996 326.341375,267.575724 C326.296082,261.930496 330.072582,257.068526 335.927094,255.810474 C341.461431,254.621922 344.660055,257.704971 344.702224,262.869155 C344.712376,264.070201 344.557755,264.905779 344.557755,264.905779 L331.804649,267.645225 C332.306776,270.063715 334.085699,271.446714 337.21404,270.774347 C339.900384,270.197252 341.294315,268.614339 342.088505,267.561667" id="Fill-18" fill="#93ADB5"></path>
                        <path d="M366.625681,256.756395 L366.719391,268.367024 L361.225661,269.546985 L361.13898,258.897661 C361.120238,256.655657 359.98557,255.374958 357.780269,255.849753 C354.972883,256.451838 353.789798,259.152239 353.807759,261.355197 L353.887412,271.122869 L348.392121,272.303611 L348.239062,253.407055 L352.528622,252.324708 C352.940164,253.47968 353.23613,255.341378 353.242377,256.142596 L353.402465,256.107455 C354.307544,253.667099 356.137226,251.468826 359.506088,250.746481 C364.198601,249.738321 366.59054,252.473081 366.625681,256.756395" id="Fill-20" fill="#93ADB5"></path>
                        <path d="M385.357777,263.24087 C385.357777,263.24087 383.362542,265.033068 379.713331,265.816324 C374.740471,266.884615 372.112695,264.76131 372.068964,259.397211 L372.012738,252.471285 L369.125699,253.091331 L369.09212,248.927498 L372.220461,248.255912 L372.17673,242.930859 L377.468203,241.593935 L377.513496,247.11812 L384.170007,245.688267 L384.203586,249.8521 L377.547076,251.282734 L377.600959,257.96892 C377.622043,260.491272 378.5935,261.404941 380.719148,260.948107 C382.64332,260.535003 383.758465,259.292569 383.758465,259.292569 L385.357777,263.24087 Z" id="Fill-22" fill="#93ADB5"></path>
                        <polygon id="Fill-24" fill="#93ADB5" points="387.490766 249.066188 398.839788 246.628956 398.870244 250.391399 387.521221 252.829412"></polygon>
                        <path d="M436.56176,226.894791 L429.397655,254.903832 L422.941839,256.290736 L419.301218,243.436892 C418.76395,241.54708 418.590587,240.020393 418.463298,239.165292 L418.343037,239.191062 C418.229804,240.097703 418.001778,241.750117 417.537134,243.815635 L413.998032,258.211784 L407.501608,259.607277 L400.028261,234.742976 L405.842947,233.493514 L410.11767,250.341733 L410.825959,253.438057 L410.94622,253.412287 C411.100841,252.617316 411.330429,251.324904 411.602187,250.063728 L415.828494,231.348343 L420.841962,230.271463 L425.31738,247.117339 C425.647706,248.289491 425.89838,249.39917 426.065495,250.165246 L426.184975,250.139476 L426.840943,246.75031 L430.786901,228.135663 L436.56176,226.894791 Z" id="Fill-26" fill="#93ADB5"></path>
                        <path d="M442.058692,241.115234 L449.958417,239.417527 C449.90063,237.184894 448.523098,235.795648 446.238143,236.286843 C444.071888,236.752268 442.438997,238.506201 442.058692,241.115234 M452.365194,243.874203 L454.996094,246.316902 C453.726327,248.274654 450.972825,250.509629 446.882397,251.388158 C440.506235,252.758662 436.663357,249.573314 436.617283,243.88826 C436.57199,238.243033 440.349271,233.381062 446.203783,232.12301 C451.73812,230.934459 454.936744,234.017507 454.978913,239.181691 C454.989065,240.383518 454.833663,241.218315 454.833663,241.218315 L442.081338,243.957761 C442.583466,246.376252 444.362388,247.75925 447.489948,247.086883 C450.177073,246.509788 451.571005,244.927656 452.365194,243.874203" id="Fill-28" fill="#93ADB5"></path>
                        <path d="M472.788828,236.118556 C472.763839,232.995681 471.143442,231.378408 468.41571,231.964094 C465.609105,232.566959 464.064457,235.305625 464.082418,237.38676 L464.091789,238.628414 C464.110531,240.870418 465.772316,242.718841 468.619528,242.107385 C471.185612,241.55606 472.814598,239.241431 472.788828,236.118556 M478.363773,234.921415 C478.411409,240.886036 474.791872,245.393472 469.74014,246.479723 C466.611799,247.151309 464.512702,246.037726 463.412394,244.027653 L463.332741,244.044833 C463.338207,244.806224 463.150788,246.490656 462.879811,247.712005 L458.669122,248.616303 L458.439534,220.351122 L463.933264,219.171161 L464.03244,231.301879 C465.060903,229.396449 466.854663,227.687028 469.862743,227.041212 C474.634909,226.015872 478.313014,228.755318 478.363773,234.921415" id="Fill-30" fill="#93ADB5"></path>
                    </g>
                </g>
            </g>
        </g>
    </g>
</svg>