<svg xmlns="http://www.w3.org/2000/svg" xmlns:xlink="http://www.w3.org/1999/xlink" viewBox="0 0 1100 403">
  <defs>
    <clipPath id="a">
      <rect x="639" y="63" width="461" height="331" style="fill: none"/>
    </clipPath>
    <clipPath id="b">
      <rect y="10" width="177" height="23" style="fill: none"/>
    </clipPath>
    <clipPath id="c">
      <rect y="268" width="177" height="28" style="fill: none"/>
    </clipPath>
    <clipPath id="d">
      <rect x="598" width="177" height="23" style="fill: none"/>
    </clipPath>
    <clipPath id="e">
      <rect x="24" y="77" width="201" height="89" style="fill: none"/>
    </clipPath>
    <clipPath id="f">
      <rect x="-191" y="-4383" width="1440" height="7912" style="fill: none"/>
    </clipPath>
    <clipPath id="g">
      <rect x="376" y="77" width="102" height="89" style="fill: none"/>
    </clipPath>
    <clipPath id="i">
      <rect x="478" y="77" width="51" height="89" style="fill: none"/>
    </clipPath>
    <clipPath id="k">
      <rect x="225" y="77" width="151" height="89" style="fill: none"/>
    </clipPath>
    <clipPath id="m">
      <rect x="24" y="345" width="490" height="68" style="fill: none"/>
    </clipPath>
    <clipPath id="n">
      <rect x="24" y="-471" width="201" height="89" style="fill: none"/>
    </clipPath>
    <clipPath id="o">
      <rect x="376" y="-471" width="102" height="89" style="fill: none"/>
    </clipPath>
    <clipPath id="p">
      <rect x="478" y="-471" width="51" height="89" style="fill: none"/>
    </clipPath>
    <clipPath id="q">
      <rect x="225" y="-471" width="151" height="89" style="fill: none"/>
    </clipPath>
  </defs>
  <title>elementsAnim</title>
  <g style="clip-path: url(#a)">
    <g>
      <path d="M677.05,82.72V121H666.2V106.27H653.09V121H642.25V82.72h10.84V97.45H666.2V82.72Z" style="fill: #111925"/>
      <path d="M690.74,93.45l-9.57,2.38V86.38l18.27-3.66h1.79V121H690.74Z" style="fill: #111925"/>
      <path d="M744.85,112.18V121H718.29V82.72h10.84v29.46Z" style="fill: #111925"/>
      <path d="M776.11,107.25c0,8.18-5.8,14.1-14.67,14.1s-14.68-5.92-14.68-14.1,5.8-14,14.68-14S776.11,99.08,776.11,107.25Zm-10.56,0c0-3.36-1.45-5.51-4.11-5.51s-4.12,2.15-4.12,5.51,1.45,5.63,4.12,5.63S765.55,110.62,765.55,107.25Z" style="fill: #111925"/>
      <path d="M801.63,94.38l-2.79,9.92a5.58,5.58,0,0,0-3.65-1.34c-3,0-4.81,2.15-4.81,5.74V121H779.94V93.62l8.58-.29a19.16,19.16,0,0,1,1.22,5.75h.17c1-3.31,3.08-5.8,7.25-5.8A8.91,8.91,0,0,1,801.63,94.38Z" style="fill: #111925"/>
      <path d="M829.35,116.77c-1.22,1.62-5.16,4.58-12.12,4.58-9.69,0-15.19-5.92-15.19-14s5.68-14,14.32-14c8,0,12.76,5.33,12.76,13a15.9,15.9,0,0,1-.29,3.19H812.42c.75,2.43,2.61,4.29,6.14,4.29a8.65,8.65,0,0,0,6.44-2.67Zm-17.22-11.84H820c-.11-2.08-1.27-4.06-3.65-4.06C814.39,100.87,812.59,101.92,812.13,104.93Z" style="fill: #111925"/>
      <path d="M878.25,104.12V121H867.8V106.79c0-2.73-1-4.41-3.36-4.41-2.78,0-3.48,2.21-3.48,4.58v14H850.52V106.79c0-2.73-1-4.41-3.36-4.41-2.79,0-3.48,2.21-3.48,4.58v14H833.24V93.62l8.58-.29A16.19,16.19,0,0,1,843,98.5h.17c1.22-3,3.54-5.22,8-5.22,4.81,0,7.65,2.43,8.93,6,1.1-3.48,3.48-6,8.35-6C875.29,93.28,878.25,98.15,878.25,104.12Z" style="fill: #111925"/>
      <path d="M898.66,91.19a6.24,6.24,0,1,1,0-12.47,6.24,6.24,0,1,1,0,12.47Zm-5.1,2.43L904,93.33V121H893.56Z" style="fill: #111925"/>
      <path d="M938.33,107.31c0,9.34-5.45,14-11.83,14-3.54,0-5.74-1.22-7.08-2.9v14.38H909V93.62l8.65-.29a17,17,0,0,1,1.16,4.59H919c1.39-2.79,3.88-4.64,8-4.64C934.16,93.28,938.33,99.31,938.33,107.31Zm-10.55,0c0-3.3-1.63-5.28-4.06-5.28a4.15,4.15,0,0,0-4.3,4v2.49a4.28,4.28,0,0,0,4.3,4.06C926.15,112.59,927.78,110.56,927.78,107.31Z" style="fill: #111925"/>
      <path d="M956.83,102.27a2.55,2.55,0,0,0-2.9-2.73c-2,0-2.9.87-2.9,2,0,4.64,15.55.64,15.55,11.25,0,4.93-4.29,8.59-12.53,8.59-9.69,0-13.63-4.06-13.63-4.06l4.29-6s4.64,3.37,8.76,3.37c1.62,0,2.44-.29,2.44-1,0-3.25-14.21-1.39-14.21-11.25,0-6,5-9.16,12.64-9.16,6.78,0,11.66,3.07,11.66,7.42a6.31,6.31,0,0,1-.23,1.8l-9,.46A4.49,4.49,0,0,0,956.83,102.27Z" style="fill: #111925"/>
      <path d="M998.07,93.62V121l-8.82.29a24.45,24.45,0,0,1-1-5.16h-.12c-1.21,3.07-3.53,5.22-8,5.22-7,0-9.86-4.93-9.86-10.85V93.62h10.44v14.21c0,2.67,1.1,4.41,3.48,4.41s3.42-2.09,3.42-4.58v-14Z" style="fill: #111925"/>
      <path d="M1048.07,104.12V121h-10.44V106.79c0-2.73-1-4.41-3.37-4.41-2.78,0-3.48,2.21-3.48,4.58v14h-10.44V106.79c0-2.73-1-4.41-3.36-4.41-2.78,0-3.48,2.21-3.48,4.58v14h-10.44V93.62l8.58-.29a16.19,16.19,0,0,1,1.22,5.17h.18c1.21-3,3.53-5.22,8-5.22,4.81,0,7.65,2.43,8.93,6,1.1-3.48,3.48-6,8.35-6C1045.11,93.28,1048.07,98.15,1048.07,104.12Z" style="fill: #111925"/>
    </g>
    <g>
      <path d="M660.55,144.56V167h-4.28v-9.72H645.8V167h-4.28V144.56h4.28v9.18h10.47v-9.18Z" style="fill: #111925"/>
      <path d="M673,163.5H681V167H664.7v-3c5.31-3.95,11.46-7.24,11.46-12.17a3.54,3.54,0,0,0-3.77-3.78c-2.18,0-3.64,1.23-3.64,3.06a3.24,3.24,0,0,0,.13.85l-4.11.72a4.49,4.49,0,0,1-.27-1.77c0-3.91,3.2-6.6,8-6.6s8,3,8,7.38c0,4.63-3.88,8.13-7.72,10.78a11.66,11.66,0,0,1-1.66,1l.06.14A15.4,15.4,0,0,1,673,163.5Z" style="fill: #111925"/>
      <path d="M706.83,163.46V167H692.07V144.56h4.29v18.9Z" style="fill: #111925"/>
      <path d="M725,159c0,4.83-3.33,8.19-8.4,8.19s-8.4-3.36-8.4-8.19,3.37-8.26,8.4-8.26S725,154.18,725,159Zm-4.22,0c0-2.85-1.63-4.86-4.18-4.86s-4.18,2-4.18,4.86,1.63,4.79,4.18,4.79S720.8,161.83,720.8,159Z" style="fill: #111925"/>
      <path d="M738.62,151.16l-1.06,4a2.82,2.82,0,0,0-1.73-.51c-1.8,0-3.47,1.47-3.47,4.35v8h-4.15V151l3.2-.13a17.84,17.84,0,0,1,.51,3.6h.1c.61-2,1.94-3.67,4.32-3.67A6.09,6.09,0,0,1,738.62,151.16Z" style="fill: #111925"/>
      <path d="M752.73,162.07l2.1,2.28c-1.22,1.6-3.56,2.85-6.79,2.85-5.34,0-8.57-3.36-8.57-8.19s3.19-8.26,8.12-8.26c4.7,0,7.38,3.23,7.38,7.55a7.1,7.1,0,0,1-.17,1.66H743.65a4.5,4.5,0,0,0,4.83,4A5.22,5.22,0,0,0,752.73,162.07Zm-9.08-4.45h7.41a3.4,3.4,0,0,0-3.47-3.64A3.94,3.94,0,0,0,743.65,157.62Z" style="fill: #111925"/>
      <path d="M784.07,157.21V167h-4.14v-9.25c0-2.07-1.06-3.4-3.1-3.4-2.51,0-3.64,2.35-3.64,4.32V167h-4.14v-9.25c0-2.07-1.06-3.4-3.1-3.4-2.51,0-3.6,2.35-3.6,4.32V167H758.2V151l3.2-.13a16.76,16.76,0,0,1,.51,3.5h0a5.25,5.25,0,0,1,5.2-3.54,5.54,5.54,0,0,1,5.61,3.68,5.28,5.28,0,0,1,5.27-3.68C781.9,150.78,784.07,153.47,784.07,157.21Z" style="fill: #111925"/>
      <path d="M797.3,148.4a2.62,2.62,0,1,1,0-5.23,2.64,2.64,0,0,1,2.72,2.62A2.61,2.61,0,0,1,797.3,148.4ZM795.19,151l4.15-.13V167h-4.15Z" style="fill: #111925"/>
      <path d="M820.08,159c0,5.1-3.16,8.19-7.51,8.19a5.77,5.77,0,0,1-5-2.41v9.15h-4.14V151l3.19-.13a16.54,16.54,0,0,1,.51,3.36h.07a5.68,5.68,0,0,1,5.57-3.43C817.19,150.75,820.08,154.15,820.08,159Zm-4.22,0c0-2.89-1.59-4.79-4.11-4.79a4.2,4.2,0,0,0-4.15,4.28v.95a4.22,4.22,0,0,0,4.29,4.29C814.3,163.74,815.86,161.87,815.86,159Z" style="fill: #111925"/>
      <path d="M832.29,156c0-1.39-1.13-2.28-2.89-2.28s-2.62.79-2.62,1.87c0,3.37,9.45.79,9.52,6.94,0,2.89-2.65,4.72-6.9,4.72-4.56,0-6.73-1.93-7.31-2.41l2.07-2.55a9,9,0,0,0,5.13,1.94c1.87,0,2.79-.61,2.79-1.53,0-2.79-9.25-1.06-9.25-6.94,0-3,2.66-5,6.7-5,3.84,0,6.5,1.9,6.5,4.52a3.94,3.94,0,0,1-.14,1.09l-3.67.24A3.48,3.48,0,0,0,832.29,156Z" style="fill: #111925"/>
      <path d="M854.38,151V167l-3.26.14a20.35,20.35,0,0,1-.47-3.27h-.07a5.26,5.26,0,0,1-5.1,3.33c-3.91,0-6.05-2.68-6.05-6.39V151h4.14v9.28c0,2.08,1.06,3.44,3.1,3.44,2.38,0,3.57-2.38,3.57-4.39V151Z" style="fill: #111925"/>
      <path d="M884.34,157.21V167h-4.15v-9.25c0-2.07-1.05-3.4-3.09-3.4-2.52,0-3.64,2.35-3.64,4.32V167h-4.15v-9.25c0-2.07-1-3.4-3.09-3.4-2.52,0-3.61,2.35-3.61,4.32V167h-4.14V151l3.19-.13a16.12,16.12,0,0,1,.51,3.5h0a5.25,5.25,0,0,1,5.2-3.54,5.56,5.56,0,0,1,5.61,3.68,5.28,5.28,0,0,1,5.27-3.68C882.16,150.78,884.34,153.47,884.34,157.21Z" style="fill: #111925"/>
      <path d="M911.23,143v24l-3.29.14a17.9,17.9,0,0,1-.41-3.37h-.1a5.72,5.72,0,0,1-5.55,3.43c-4.38,0-7.27-3.4-7.27-8.19,0-5.17,3.23-8.26,7.48-8.26a5.8,5.8,0,0,1,5,2.35V143Zm-4.14,16.45v-.95a4.21,4.21,0,0,0-4.29-4.28c-2.41,0-4,1.87-4,4.79s1.6,4.73,4.15,4.73A4.21,4.21,0,0,0,907.09,159.45Z" style="fill: #111925"/>
      <path d="M931.22,159c0,4.83-3.33,8.19-8.39,8.19s-8.4-3.36-8.4-8.19,3.37-8.26,8.4-8.26S931.22,154.18,931.22,159ZM927,159c0-2.85-1.63-4.86-4.18-4.86s-4.18,2-4.18,4.86,1.63,4.79,4.18,4.79S927,161.83,927,159Z" style="fill: #111925"/>
      <path d="M934.46,143h4.11v24h-4.11Z" style="fill: #111925"/>
      <path d="M958.59,159c0,4.83-3.33,8.19-8.39,8.19s-8.4-3.36-8.4-8.19,3.37-8.26,8.4-8.26S958.59,154.18,958.59,159Zm-4.21,0c0-2.85-1.63-4.86-4.18-4.86s-4.18,2-4.18,4.86,1.63,4.79,4.18,4.79S954.38,161.83,954.38,159Z" style="fill: #111925"/>
      <path d="M972.2,151.16l-1.06,4a2.82,2.82,0,0,0-1.73-.51c-1.8,0-3.47,1.47-3.47,4.35v8h-4.15V151l3.2-.13a18.59,18.59,0,0,1,.51,3.6h.1c.61-2,1.94-3.67,4.32-3.67A6.13,6.13,0,0,1,972.2,151.16Z" style="fill: #111925"/>
      <path d="M989.7,156c0-1.39-1.12-2.28-2.89-2.28s-2.61.79-2.61,1.87c0,3.37,9.45.79,9.52,6.94,0,2.89-2.66,4.72-6.91,4.72-4.55,0-6.73-1.93-7.3-2.41l2.07-2.55a9,9,0,0,0,5.13,1.94c1.87,0,2.79-.61,2.79-1.53,0-2.79-9.25-1.06-9.25-6.94,0-3,2.66-5,6.7-5,3.84,0,6.49,1.9,6.49,4.52a4.22,4.22,0,0,1-.13,1.09l-3.67.24A3.6,3.6,0,0,0,989.7,156Z" style="fill: #111925"/>
      <path d="M999.12,148.4a2.62,2.62,0,1,1,0-5.23,2.64,2.64,0,0,1,2.72,2.62A2.61,2.61,0,0,1,999.12,148.4ZM997,151l4.14-.13V167H997Z" style="fill: #111925"/>
      <path d="M1017.24,166.08a8.72,8.72,0,0,1-4.59,1.12c-4.18,0-6.22-2.24-6.22-6.69v-6.36H1004V151h2.59v-4.59l4-.17V151h5.81v3.2h-5.81v6.22c0,2.28.85,3.33,2.75,3.33a4.27,4.27,0,0,0,2.72-.88Z" style="fill: #111925"/>
    </g>
    <g>
      <path d="M654.85,200.5V217H651.7v-7.15H644V217h-3.15V200.5H644v6.75h7.7V200.5Z" style="fill: #111925"/>
      <path d="M669.47,205.15a3.42,3.42,0,0,1-3.3,3.53v0a3.92,3.92,0,0,1,3.88,3.87c0,2.63-2.3,4.57-6.28,4.57-5,0-6.35-3.24-6.35-3.24l2.35-1.53a4.9,4.9,0,0,0,3.9,2c2,0,3.18-.87,3.2-2.22s-1-2.1-3.3-2.2l-1.45,0v-2.4l1.1,0c1.88-.08,3.08-.8,3.08-2.1a2.42,2.42,0,0,0-2.68-2.4c-1.55,0-2.52.8-2.52,1.85a1.85,1.85,0,0,0,.1.62l-3.05.48a4.2,4.2,0,0,1-.15-1.28c0-2.57,2.27-4.42,5.7-4.42S669.47,202.3,669.47,205.15Z" style="fill: #111925"/>
      <path d="M689.05,214.4V217H678.2V200.5h3.15v13.9Z" style="fill: #111925"/>
      <path d="M702.42,211.13a6.18,6.18,0,0,1-12.35,0,6.18,6.18,0,0,1,12.35,0Zm-3.1,0c0-2.1-1.2-3.58-3.07-3.58s-3.08,1.48-3.08,3.58,1.2,3.52,3.08,3.52S699.32,213.2,699.32,211.13Z" style="fill: #111925"/>
      <path d="M712.42,205.35l-.77,3a2.09,2.09,0,0,0-1.28-.38c-1.32,0-2.55,1.08-2.55,3.2V217h-3.05V205.2l2.35-.1a13.11,13.11,0,0,1,.38,2.65h.07a3.29,3.29,0,0,1,3.18-2.7A4.44,4.44,0,0,1,712.42,205.35Z" style="fill: #111925"/>
      <path d="M722.8,213.38l1.55,1.67a6.14,6.14,0,0,1-5,2.1c-3.93,0-6.3-2.47-6.3-6a5.72,5.72,0,0,1,6-6.08c3.45,0,5.43,2.38,5.43,5.55a5.17,5.17,0,0,1-.13,1.23h-8.2a3.32,3.32,0,0,0,3.55,2.95A3.85,3.85,0,0,0,722.8,213.38Zm-6.68-3.28h5.45a2.5,2.5,0,0,0-2.55-2.67A2.9,2.9,0,0,0,716.12,210.1Z" style="fill: #111925"/>
      <path d="M745.84,209.8V217h-3.05v-6.8c0-1.52-.77-2.5-2.27-2.5-1.85,0-2.67,1.73-2.67,3.18V217H734.8v-6.8a2.19,2.19,0,0,0-2.28-2.5c-1.85,0-2.65,1.73-2.65,3.18V217h-3V205.2l2.35-.1a11.82,11.82,0,0,1,.38,2.58h0a3.87,3.87,0,0,1,3.83-2.6,4.08,4.08,0,0,1,4.12,2.7,3.87,3.87,0,0,1,3.87-2.7C744.24,205.08,745.84,207.05,745.84,209.8Z" style="fill: #111925"/>
      <path d="M755.57,203.33a1.93,1.93,0,1,1,0-3.85,1.93,1.93,0,1,1,0,3.85ZM754,205.2l3.05-.1V217H754Z" style="fill: #111925"/>
      <path d="M772.32,211.13c0,3.75-2.32,6-5.52,6a4.24,4.24,0,0,1-3.65-1.77v6.72h-3V205.2l2.35-.1a12.71,12.71,0,0,1,.37,2.48h0a4.18,4.18,0,0,1,4.1-2.53C770.2,205.05,772.32,207.55,772.32,211.13Zm-3.1,0c0-2.13-1.17-3.53-3-3.53a3.09,3.09,0,0,0-3.05,3.15v.7a3.09,3.09,0,0,0,3.15,3.15C768.07,214.6,769.22,213.23,769.22,211.13Z" style="fill: #111925"/>
      <path d="M781.3,208.88c0-1-.83-1.68-2.13-1.68s-1.92.58-1.92,1.38c0,2.47,7,.57,7,5.1,0,2.12-2,3.47-5.08,3.47a7.76,7.76,0,0,1-5.37-1.77l1.52-1.88a6.66,6.66,0,0,0,3.78,1.43c1.37,0,2-.45,2-1.13,0-2.05-6.8-.77-6.8-5.1,0-2.2,1.95-3.65,4.92-3.65s4.77,1.4,4.77,3.33a3.35,3.35,0,0,1-.09.8l-2.7.17A2.7,2.7,0,0,0,781.3,208.88Z" style="fill: #111925"/>
      <path d="M797.54,205.2V217l-2.39.1a15,15,0,0,1-.36-2.4h0a3.86,3.86,0,0,1-3.75,2.45c-2.88,0-4.45-2-4.45-4.7V205.2h3.05V212c0,1.52.77,2.52,2.27,2.52,1.75,0,2.63-1.75,2.63-3.22V205.2Z" style="fill: #111925"/>
      <path d="M819.57,209.8V217h-3.05v-6.8a2.19,2.19,0,0,0-2.28-2.5c-1.85,0-2.67,1.73-2.67,3.18V217h-3.05v-6.8c0-1.52-.77-2.5-2.27-2.5-1.85,0-2.65,1.73-2.65,3.18V217h-3.05V205.2l2.35-.1a12.38,12.38,0,0,1,.37,2.58h0a3.85,3.85,0,0,1,3.82-2.6,4.1,4.1,0,0,1,4.13,2.7,3.86,3.86,0,0,1,3.87-2.7C818,205.08,819.57,207.05,819.57,209.8Z" style="fill: #111925"/>
      <path d="M839.34,199.35V217l-2.42.1a14.49,14.49,0,0,1-.3-2.47h-.08a4.17,4.17,0,0,1-4.07,2.52c-3.22,0-5.35-2.5-5.35-6,0-3.8,2.38-6.08,5.5-6.08a4.23,4.23,0,0,1,3.67,1.73v-7.43Zm-3.05,12.1v-.7a3.09,3.09,0,0,0-3.14-3.15c-1.78,0-2.95,1.38-2.95,3.53s1.17,3.47,3,3.47A3.09,3.09,0,0,0,836.29,211.45Z" style="fill: #111925"/>
      <path d="M854,211.13a6.17,6.17,0,1,1-6.17-6.08A5.78,5.78,0,0,1,854,211.13Zm-3.09,0c0-2.1-1.2-3.58-3.08-3.58s-3.07,1.48-3.07,3.58,1.2,3.52,3.07,3.52S851,213.2,851,211.13Z" style="fill: #111925"/>
      <path d="M856.42,199.35h3V217h-3Z" style="fill: #111925"/>
      <path d="M874.17,211.13a6.18,6.18,0,0,1-12.35,0,6.18,6.18,0,0,1,12.35,0Zm-3.1,0c0-2.1-1.2-3.58-3.07-3.58s-3.08,1.48-3.08,3.58,1.2,3.52,3.08,3.52S871.07,213.2,871.07,211.13Z" style="fill: #111925"/>
      <path d="M884.17,205.35l-.78,3a2.08,2.08,0,0,0-1.27-.38c-1.33,0-2.55,1.08-2.55,3.2V217h-3.05V205.2l2.35-.1a13.11,13.11,0,0,1,.38,2.65h.07a3.29,3.29,0,0,1,3.18-2.7A4.44,4.44,0,0,1,884.17,205.35Z" style="fill: #111925"/>
      <path d="M897,208.88c0-1-.82-1.68-2.12-1.68s-1.92.58-1.92,1.38c0,2.47,6.94.57,7,5.1,0,2.12-2,3.47-5.07,3.47a7.76,7.76,0,0,1-5.37-1.77l1.52-1.88a6.66,6.66,0,0,0,3.78,1.43c1.37,0,2-.45,2-1.13,0-2.05-6.79-.77-6.79-5.1,0-2.2,1.95-3.65,4.92-3.65s4.77,1.4,4.77,3.33a3,3,0,0,1-.1.8l-2.7.17A2,2,0,0,0,897,208.88Z" style="fill: #111925"/>
      <path d="M904,203.33a1.93,1.93,0,1,1,0-3.85,1.93,1.93,0,1,1,0,3.85Zm-1.55,1.87,3.05-.1V217h-3.05Z" style="fill: #111925"/>
      <path d="M917.29,216.33a6.42,6.42,0,0,1-3.37.82c-3.07,0-4.57-1.65-4.57-4.92v-4.68h-1.83V205.2h1.9v-3.37l3-.13v3.5h4.27v2.35H912.4v4.58c0,1.67.62,2.45,2,2.45a3.16,3.16,0,0,0,2-.65Z" style="fill: #111925"/>
    </g>
    <g>
      <path d="M648.62,253.8c0,2.58-1.61,4.29-4,4.29a3.44,3.44,0,0,1-3.12-1.78v5.36h-1.1v-12.1l.78,0a19.15,19.15,0,0,1,.16,2.14h0a3.32,3.32,0,0,1,3.31-2.2C647,249.48,648.62,251.21,648.62,253.8Zm-1.1,0c0-2-1.19-3.4-3-3.4a3,3,0,0,0-3,3v.75a3,3,0,0,0,3,3C646.35,257.17,647.52,255.82,647.52,253.8Z" style="fill: #111925"/>
      <path d="M656.62,247.16v4.21h5.44v1h-5.44V257h6v1h-7.14V246.19h7.14v1Z" style="fill: #111925"/>
      <path d="M670.29,257.51a3.89,3.89,0,0,1-2.13.6c-2,0-2.79-1.05-2.79-3v-4.6H664v-.9h1.39V247l1.1-.08v2.63h3.42v.9h-3.42V255c0,1.4.52,2.12,1.78,2.12a2.77,2.77,0,0,0,1.66-.52Z" style="fill: #111925"/>
      <path d="M672.44,247.65a.84.84,0,1,1,0-1.68.84.84,0,1,1,0,1.68Zm-.57,1.92,1.1,0V258h-1.1Z" style="fill: #111925"/>
      <path d="M683.19,258a3,3,0,0,1-.66.09,1.14,1.14,0,0,1-1.28-1.26v-.43h0a3.29,3.29,0,0,1-3.19,1.69c-1.78,0-2.77-.88-2.77-2.23,0-1.89,2-2.54,5.4-2.58l.53,0v-.64a2.13,2.13,0,0,0-2.4-2.22c-1.37,0-2.27.65-2.27,1.73a1.31,1.31,0,0,0,.09.49l-1,.18a2.37,2.37,0,0,1-.11-.72c0-1.53,1.31-2.6,3.33-2.6s3.47,1.21,3.47,3.12v3.83c0,.49.17.69.56.69a1.3,1.3,0,0,0,.31,0Zm-2-2.84v-1.1l-.53,0c-2.82,0-4.28.5-4.28,1.74,0,.83.61,1.35,1.89,1.35C680.35,257.17,681.18,255.7,681.18,255.16Z" style="fill: #111925"/>
      <path d="M698.51,252.87V258h-1.1v-5.13a2.21,2.21,0,0,0-2.28-2.45,2.88,2.88,0,0,0-2.7,3V258h-1.1v-5.13a2.21,2.21,0,0,0-2.29-2.45,2.88,2.88,0,0,0-2.7,3V258h-1.1v-8.43l.78,0a17.44,17.44,0,0,1,.16,2.14,3.09,3.09,0,0,1,3-2.18,3,3,0,0,1,3.06,2.2,3.14,3.14,0,0,1,3-2.2A3.09,3.09,0,0,1,698.51,252.87Z" style="fill: #111925"/>
      <path d="M709.87,249.61l-.27,1.08a1.78,1.78,0,0,0-.74-.14c-1.26,0-2.22,1.44-2.22,2.89V258h-1.1v-8.43l.78,0a15.67,15.67,0,0,1,.16,2.14h0a2.62,2.62,0,0,1,2.39-2.2A3.42,3.42,0,0,1,709.87,249.61Z" style="fill: #111925"/>
      <path d="M718.92,252.83V258h-1.1v-5.17a2.22,2.22,0,0,0-2.34-2.43,3,3,0,0,0-2.9,3V258h-1.1V245.29h1.09v6.14a3.28,3.28,0,0,1,3.09-2A3.11,3.11,0,0,1,718.92,252.83Z" style="fill: #111925"/>
      <path d="M729.49,253.8a4.2,4.2,0,1,1-4.2-4.32A4,4,0,0,1,729.49,253.8Zm-1.12,0a3.1,3.1,0,1,0-3.08,3.37A3.09,3.09,0,0,0,728.37,253.8Z" style="fill: #111925"/>
      <path d="M739.19,252.83V258h-1.1v-5.17a2.23,2.23,0,0,0-2.34-2.43,3,3,0,0,0-2.9,3V258h-1.1v-8.43l.78,0a17.44,17.44,0,0,1,.16,2.14h0a3.33,3.33,0,0,1,3.19-2.2A3.12,3.12,0,0,1,739.19,252.83Z" style="fill: #111925"/>
      <path d="M748.87,252.33a3,3,0,0,1,0,.54l-1,.07a1.8,1.8,0,0,0,0-.45,2.1,2.1,0,0,0-2.34-2.09c-1.8,0-3,1.35-3,3.4a3.05,3.05,0,0,0,3.17,3.37,3.3,3.3,0,0,0,2.63-1.1l.65.69a4.24,4.24,0,0,1-3.31,1.33,4.31,4.31,0,0,1-.13-8.61C747.56,249.48,748.87,250.71,748.87,252.33Z" style="fill: #111925"/>
      <path d="M758.25,249.57V258l-.79,0a15.74,15.74,0,0,1-.16-2h0a3.18,3.18,0,0,1-3,2.09,3,3,0,0,1-3.19-3.33v-5.19h1.1v5.19a2.14,2.14,0,0,0,2.25,2.41,2.93,2.93,0,0,0,2.77-3v-4.61Z" style="fill: #111925"/>
      <path d="M765.88,252c0-1-.9-1.59-2.12-1.59s-2,.58-2,1.44c0,2.24,5.24.79,5.28,3.93,0,1.46-1.3,2.32-3.29,2.32a4.91,4.91,0,0,1-3.48-1.24l.68-.72a4.26,4.26,0,0,0,2.8,1c1.42,0,2.19-.56,2.19-1.4,0-2.11-5.29-.89-5.29-4,0-1.35,1.24-2.34,3.11-2.34s3.1.92,3.1,2.31a3.09,3.09,0,0,1,0,.54l-1,.09A2,2,0,0,0,765.88,252Z" style="fill: #111925"/>
      <path d="M769.86,256.47a.82.82,0,0,1,.81.83.81.81,0,0,1-.81.81.82.82,0,0,1-.83-.81A.84.84,0,0,1,769.86,256.47Z" style="fill: #111925"/>
      <path d="M788.4,258h-1.11v-8.62a11.42,11.42,0,0,1,.06-1.19l-.06,0c0,.14-.23.74-.38,1.06L783,258h-.72l-4-8.88a5.08,5.08,0,0,1-.35-1l0,0c0,.1,0,.75,0,1.19l0,8.62H776.9V246.19h1.27l4,9a12.52,12.52,0,0,1,.51,1.29h0c.08-.25.35-.9.52-1.29l3.95-9h1.24Z" style="fill: #111925"/>
      <path d="M798.89,258a2.88,2.88,0,0,1-.66.09,1.14,1.14,0,0,1-1.28-1.26v-.43h0a3.29,3.29,0,0,1-3.18,1.69c-1.79,0-2.78-.88-2.78-2.23,0-1.89,1.95-2.54,5.41-2.58l.52,0v-.64a2.13,2.13,0,0,0-2.4-2.22c-1.37,0-2.27.65-2.27,1.73a1.31,1.31,0,0,0,.09.49l-1,.18a2.37,2.37,0,0,1-.11-.72c0-1.53,1.31-2.6,3.33-2.6s3.48,1.21,3.48,3.12v3.83c0,.49.16.69.55.69a1.3,1.3,0,0,0,.31,0Zm-2-2.84v-1.1l-.52,0c-2.83,0-4.29.5-4.29,1.74,0,.83.61,1.35,1.89,1.35C796.05,257.17,796.88,255.7,796.88,255.16Z" style="fill: #111925"/>
      <path d="M808.09,253.3a4.37,4.37,0,0,1-.05.72h-6.52a3,3,0,0,0,3.2,3.15,3.11,3.11,0,0,0,2.51-1.1l.68.63a4.32,4.32,0,1,1-3.47-7.22A3.52,3.52,0,0,1,808.09,253.3Zm-6.53-.09H807v-.07a2.47,2.47,0,0,0-2.53-2.74A2.9,2.9,0,0,0,801.56,253.21Z" style="fill: #111925"/>
      <path d="M817.29,252.33a3,3,0,0,1,0,.54l-1,.07a1.8,1.8,0,0,0,0-.45,2.1,2.1,0,0,0-2.35-2.09c-1.8,0-3,1.35-3,3.4a3.05,3.05,0,0,0,3.17,3.37,3.3,3.3,0,0,0,2.63-1.1l.65.69a4.24,4.24,0,0,1-3.32,1.33,4.31,4.31,0,0,1-.12-8.61C816,249.48,817.29,250.71,817.29,252.33Z" style="fill: #111925"/>
      <path d="M826.7,253.3a4.37,4.37,0,0,1-.05.72h-6.52a3.05,3.05,0,0,0,3.21,3.15,3.1,3.1,0,0,0,2.5-1.1l.68.63a4.32,4.32,0,0,1-7.5-2.9,4,4,0,0,1,4-4.32A3.52,3.52,0,0,1,826.7,253.3Zm-6.53-.09h5.42v-.07a2.47,2.47,0,0,0-2.54-2.74A2.91,2.91,0,0,0,820.17,253.21Z" style="fill: #111925"/>
      <path d="M836.37,252.83V258h-1.1v-5.17a2.23,2.23,0,0,0-2.34-2.43,3,3,0,0,0-2.9,3V258h-1.1v-8.43l.78,0a15.67,15.67,0,0,1,.16,2.14h0a3.32,3.32,0,0,1,3.18-2.2A3.12,3.12,0,0,1,836.37,252.83Z" style="fill: #111925"/>
      <path d="M846.49,258a3.14,3.14,0,0,1-.67.09,1.14,1.14,0,0,1-1.28-1.26v-.43h0a3.28,3.28,0,0,1-3.18,1.69c-1.78,0-2.78-.88-2.78-2.23,0-1.89,2-2.54,5.41-2.58l.52,0v-.64a2.13,2.13,0,0,0-2.4-2.22c-1.36,0-2.27.65-2.27,1.73a1.09,1.09,0,0,0,.1.49l-1,.18a2.37,2.37,0,0,1-.11-.72c0-1.53,1.32-2.6,3.33-2.6s3.48,1.21,3.48,3.12v3.83c0,.49.16.69.55.69a1.3,1.3,0,0,0,.31,0Zm-2-2.84v-1.1l-.52,0c-2.83,0-4.29.5-4.29,1.74,0,.83.61,1.35,1.89,1.35C843.64,257.17,844.47,255.7,844.47,255.16Z" style="fill: #111925"/>
      <path d="M853.36,252c0-1-.9-1.59-2.12-1.59s-2,.58-2,1.44c0,2.24,5.24.79,5.28,3.93,0,1.46-1.3,2.32-3.3,2.32a4.9,4.9,0,0,1-3.47-1.24l.68-.72a4.25,4.25,0,0,0,2.79,1c1.43,0,2.2-.56,2.2-1.4,0-2.11-5.29-.89-5.29-4,0-1.35,1.24-2.34,3.11-2.34s3.1.92,3.1,2.31a2.59,2.59,0,0,1-.06.54l-1,.09A3,3,0,0,0,853.36,252Z" style="fill: #111925"/>
      <path d="M866.32,257.51a3.88,3.88,0,0,1-2.12.6c-2,0-2.8-1.05-2.8-3v-4.6H860v-.9h1.38V247l1.1-.08v2.63h3.42v.9H862.5V255c0,1.4.53,2.12,1.79,2.12a2.76,2.76,0,0,0,1.65-.52Z" style="fill: #111925"/>
      <path d="M874.89,253.3a3.66,3.66,0,0,1-.06.72h-6.51a3.26,3.26,0,0,0,5.7,2l.69.63a4.33,4.33,0,0,1-7.51-2.9,4,4,0,0,1,4-4.32A3.53,3.53,0,0,1,874.89,253.3Zm-6.54-.09h5.42v-.07a2.47,2.47,0,0,0-2.54-2.74A2.91,2.91,0,0,0,868.35,253.21Z" style="fill: #111925"/>
      <path d="M890.39,252.87V258h-1.1v-5.13a2.21,2.21,0,0,0-2.29-2.45,2.88,2.88,0,0,0-2.7,3V258h-1.1v-5.13a2.21,2.21,0,0,0-2.28-2.45,2.88,2.88,0,0,0-2.7,3V258h-1.1v-8.43l.77,0a15.67,15.67,0,0,1,.16,2.14,3.11,3.11,0,0,1,3-2.18,3,3,0,0,1,3.06,2.2,3.21,3.21,0,0,1,6.25,1.17Z" style="fill: #111925"/>
      <path d="M901.31,253.8c0,2.58-1.6,4.29-4,4.29a3.44,3.44,0,0,1-3.12-1.78v5.36h-1.1v-12.1l.78,0a19.15,19.15,0,0,1,.16,2.14h0a3.32,3.32,0,0,1,3.31-2.2C899.71,249.48,901.31,251.21,901.31,253.8Zm-1.1,0c0-2-1.18-3.4-3-3.4a3,3,0,0,0-3,3v.75a3,3,0,0,0,3,3C899,257.17,900.21,255.82,900.21,253.8Z" style="fill: #111925"/>
      <path d="M910.71,249.57V258l-.79,0a16,16,0,0,1-.17-2h0a3.18,3.18,0,0,1-3,2.09,3,3,0,0,1-3.18-3.33v-5.19h1.09v5.19a2.15,2.15,0,0,0,2.26,2.41,2.94,2.94,0,0,0,2.77-3v-4.61Z" style="fill: #111925"/>
      <path d="M918.34,252c0-1-.9-1.59-2.13-1.59s-2,.58-2,1.44c0,2.24,5.24.79,5.28,3.93,0,1.46-1.3,2.32-3.3,2.32a4.9,4.9,0,0,1-3.47-1.24l.68-.72a4.25,4.25,0,0,0,2.79,1c1.43,0,2.2-.56,2.2-1.4,0-2.11-5.29-.89-5.29-4,0-1.35,1.24-2.34,3.11-2.34s3.1.92,3.1,2.31a2.59,2.59,0,0,1-.06.54l-1,.09A3,3,0,0,0,918.34,252Z" style="fill: #111925"/>
      <path d="M922.35,256.54a1,1,0,0,1,1,1.12,3.64,3.64,0,0,1-1.47,2.86l-.54-.65a2.67,2.67,0,0,0,1-1.76.8.8,0,0,1-.86-.78A.79.79,0,0,1,922.35,256.54Z" style="fill: #111925"/>
      <path d="M934.43,257.51a3.88,3.88,0,0,1-2.12.6c-2,0-2.79-1.05-2.79-3v-4.6h-1.39v-.9h1.39V247l1.09-.08v2.63H934v.9h-3.43V255c0,1.4.53,2.12,1.79,2.12a2.76,2.76,0,0,0,1.65-.52Z" style="fill: #111925"/>
      <path d="M943,253.3a4.37,4.37,0,0,1,0,.72h-6.52a3.26,3.26,0,0,0,5.7,2l.69.63a4.33,4.33,0,0,1-7.51-2.9,4,4,0,0,1,4-4.32A3.53,3.53,0,0,1,943,253.3Zm-6.54-.09h5.42v-.07a2.47,2.47,0,0,0-2.54-2.74A2.91,2.91,0,0,0,936.46,253.21Z" style="fill: #111925"/>
      <path d="M945.27,245.29h1.08V258h-1.08Z" style="fill: #111925"/>
      <path d="M949.22,245.29h1.09V258h-1.09Z" style="fill: #111925"/>
      <path d="M960.26,249.57V258l-.79,0a15.74,15.74,0,0,1-.16-2h0a3.18,3.18,0,0,1-3,2.09,3,3,0,0,1-3.19-3.33v-5.19h1.1v5.19a2.14,2.14,0,0,0,2.25,2.41,2.93,2.93,0,0,0,2.77-3v-4.61Z" style="fill: #111925"/>
      <path d="M967.89,252c0-1-.9-1.59-2.12-1.59s-2,.58-2,1.44c0,2.24,5.24.79,5.28,3.93,0,1.46-1.3,2.32-3.29,2.32a4.91,4.91,0,0,1-3.48-1.24l.68-.72a4.26,4.26,0,0,0,2.8,1c1.42,0,2.19-.56,2.19-1.4,0-2.11-5.29-.89-5.29-4,0-1.35,1.24-2.34,3.11-2.34s3.1.92,3.1,2.31a3.09,3.09,0,0,1,0,.54l-1,.09A2,2,0,0,0,967.89,252Z" style="fill: #111925"/>
      <path d="M982.81,253.3a4.37,4.37,0,0,1,0,.72h-6.52a3.05,3.05,0,0,0,3.21,3.15,3.1,3.1,0,0,0,2.5-1.1l.68.63a4.32,4.32,0,1,1-3.47-7.22A3.52,3.52,0,0,1,982.81,253.3Zm-6.53-.09h5.42v-.07a2.47,2.47,0,0,0-2.54-2.74A2.91,2.91,0,0,0,976.28,253.21Z" style="fill: #111925"/>
      <path d="M992.61,259.17c0,1.53-1.34,2.59-4.27,2.59-2.77,0-4.25-.9-4.25-2.36a2,2,0,0,1,1.55-1.9,1.43,1.43,0,0,1-1-1.39,1.47,1.47,0,0,1,1.22-1.37,2.83,2.83,0,0,1-1-2.25c0-1.8,1.37-3,3.43-3a3.8,3.8,0,0,1,2.37.72c.69-.23,1-.93,1-1.83l1,.2a2,2,0,0,1-1.46,2.07,2.83,2.83,0,0,1,.63,1.85c0,1.8-1.37,3-3.44,3a4.1,4.1,0,0,1-1.62-.31c-.63.09-1,.36-1,.79,0,.71.75.87,2,.87h1.83C991.44,256.85,992.61,257.69,992.61,259.17Zm-1.08,0c0-1-.76-1.39-2.22-1.39h-1.94c-1.51,0-2.2.63-2.2,1.48,0,1,1.06,1.57,3.17,1.57S991.53,260.3,991.53,259.17ZM986,252.49a2.35,2.35,0,1,0,2.34-2.11A2.1,2.1,0,0,0,986,252.49Z" style="fill: #111925"/>
      <path d="M1001.46,253.3a4.37,4.37,0,0,1-.05.72h-6.52a3.05,3.05,0,0,0,3.21,3.15,3.1,3.1,0,0,0,2.5-1.1l.68.63a4.32,4.32,0,1,1-3.47-7.22A3.52,3.52,0,0,1,1001.46,253.3Zm-6.53-.09h5.42v-.07a2.47,2.47,0,0,0-2.54-2.74A2.9,2.9,0,0,0,994.93,253.21Z" style="fill: #111925"/>
      <path d="M1009,257.51a3.89,3.89,0,0,1-2.13.6c-2,0-2.79-1.05-2.79-3v-4.6h-1.38v-.9h1.38V247l1.1-.08v2.63h3.42v.9h-3.42V255c0,1.4.52,2.12,1.78,2.12a2.77,2.77,0,0,0,1.66-.52Z" style="fill: #111925"/>
    </g>
    <g>
      <path d="M647.37,274.33a3,3,0,0,1,0,.54l-1,.07a1.8,1.8,0,0,0,0-.45A2.1,2.1,0,0,0,644,272.4c-1.8,0-3,1.35-3,3.4a3.05,3.05,0,0,0,3.17,3.37,3.3,3.3,0,0,0,2.63-1.1l.65.69a4.24,4.24,0,0,1-3.31,1.33,4.31,4.31,0,0,1-.13-8.61C646.06,271.48,647.37,272.71,647.37,274.33Z" style="fill: #111925"/>
      <path d="M657.49,275.8a4.2,4.2,0,1,1-4.2-4.32A4,4,0,0,1,657.49,275.8Zm-1.12,0a3.1,3.1,0,1,0-3.08,3.37A3.09,3.09,0,0,0,656.37,275.8Z" style="fill: #111925"/>
      <path d="M667.19,274.83V280h-1.1v-5.17a2.23,2.23,0,0,0-2.34-2.43,3,3,0,0,0-2.9,3V280h-1.1v-8.43l.78,0a15.67,15.67,0,0,1,.16,2.14h0a3.32,3.32,0,0,1,3.18-2.2A3.12,3.12,0,0,1,667.19,274.83Z" style="fill: #111925"/>
      <path d="M677.58,267.32V280l-.8,0a19.34,19.34,0,0,1-.12-2.16h0a3.37,3.37,0,0,1-3.31,2.21c-2.34,0-4-1.73-4-4.32s1.62-4.3,4-4.3a3.36,3.36,0,0,1,3.12,1.76v-5.91Zm-1.08,8.83v-.76a3,3,0,0,0-3.06-3c-1.79,0-3,1.35-3,3.37s1.19,3.38,3,3.38A3,3,0,0,0,676.5,276.15Z" style="fill: #111925"/>
      <path d="M681,269.65a.84.84,0,1,1,0-1.68.84.84,0,1,1,0,1.68Zm-.57,1.92,1.09,0V280h-1.09Z" style="fill: #111925"/>
      <path d="M697.63,274.87V280h-1.1v-5.13a2.21,2.21,0,0,0-2.29-2.45,2.88,2.88,0,0,0-2.7,3V280h-1.09v-5.13a2.21,2.21,0,0,0-2.29-2.45,2.88,2.88,0,0,0-2.7,3V280h-1.1v-8.43l.77,0a15.8,15.8,0,0,1,.17,2.14,3.09,3.09,0,0,1,3-2.18,3,3,0,0,1,3.06,2.2,3.14,3.14,0,0,1,3-2.2A3.09,3.09,0,0,1,697.63,274.87Z" style="fill: #111925"/>
      <path d="M707.49,275.3a4.37,4.37,0,0,1,0,.72h-6.52a3,3,0,0,0,3.2,3.15,3.11,3.11,0,0,0,2.51-1.1l.68.63a4.32,4.32,0,1,1-3.47-7.22A3.52,3.52,0,0,1,707.49,275.3Zm-6.53-.09h5.42v-.07a2.47,2.47,0,0,0-2.54-2.74A2.9,2.9,0,0,0,701,275.21Z" style="fill: #111925"/>
      <path d="M717.16,274.83V280h-1.1v-5.17a2.23,2.23,0,0,0-2.34-2.43,3,3,0,0,0-2.9,3V280h-1.1v-8.43l.78,0a17.44,17.44,0,0,1,.16,2.14h0a3.33,3.33,0,0,1,3.19-2.2A3.12,3.12,0,0,1,717.16,274.83Z" style="fill: #111925"/>
      <path d="M725.15,279.51a3.89,3.89,0,0,1-2.13.6c-2,0-2.79-1.05-2.79-3v-4.6h-1.38v-.9h1.38V269l1.1-.08v2.63h3.42v.9h-3.42V277c0,1.4.52,2.12,1.78,2.12a2.77,2.77,0,0,0,1.66-.52Z" style="fill: #111925"/>
      <path d="M733.81,271.57V280l-.8,0a17.76,17.76,0,0,1-.16-2h0a3.17,3.17,0,0,1-3,2.09,3,3,0,0,1-3.18-3.33v-5.19h1.09v5.19a2.15,2.15,0,0,0,2.25,2.41,2.94,2.94,0,0,0,2.78-3v-4.61Z" style="fill: #111925"/>
      <path d="M749.88,274.87V280h-1.09v-5.13a2.21,2.21,0,0,0-2.29-2.45,2.88,2.88,0,0,0-2.7,3V280h-1.1v-5.13a2.21,2.21,0,0,0-2.29-2.45,2.88,2.88,0,0,0-2.7,3V280h-1.1v-8.43l.78,0a15.67,15.67,0,0,1,.16,2.14,3.09,3.09,0,0,1,3-2.18,3,3,0,0,1,3.06,2.2,3.15,3.15,0,0,1,3-2.2A3.09,3.09,0,0,1,749.88,274.87Z" style="fill: #111925"/>
      <path d="M761.24,271.61l-.27,1.08a1.78,1.78,0,0,0-.74-.14c-1.26,0-2.21,1.44-2.21,2.89V280h-1.1v-8.43l.77,0a15.67,15.67,0,0,1,.16,2.14h0a2.62,2.62,0,0,1,2.39-2.2A3.42,3.42,0,0,1,761.24,271.61Z" style="fill: #111925"/>
      <path d="M770.29,274.83V280h-1.1v-5.17a2.22,2.22,0,0,0-2.34-2.43,3,3,0,0,0-2.89,3V280h-1.1V267.29h1.08v6.14a3.28,3.28,0,0,1,3.09-1.95A3.11,3.11,0,0,1,770.29,274.83Z" style="fill: #111925"/>
      <path d="M780.86,275.8a4.2,4.2,0,1,1-4.2-4.32A4,4,0,0,1,780.86,275.8Zm-1.12,0a3.1,3.1,0,1,0-3.08,3.37A3.09,3.09,0,0,0,779.74,275.8Z" style="fill: #111925"/>
      <path d="M790.56,274.83V280h-1.1v-5.17a2.23,2.23,0,0,0-2.34-2.43,3,3,0,0,0-2.9,3V280h-1.1v-8.43l.78,0a15.67,15.67,0,0,1,.16,2.14h0a3.32,3.32,0,0,1,3.18-2.2A3.12,3.12,0,0,1,790.56,274.83Z" style="fill: #111925"/>
      <path d="M800.24,274.33a3,3,0,0,1,0,.54l-1,.07a1.8,1.8,0,0,0,0-.45,2.1,2.1,0,0,0-2.34-2.09c-1.8,0-3,1.35-3,3.4a3.05,3.05,0,0,0,3.17,3.37,3.28,3.28,0,0,0,2.63-1.1l.65.69a4.24,4.24,0,0,1-3.31,1.33,4.31,4.31,0,0,1-.13-8.61C798.93,271.48,800.24,272.71,800.24,274.33Z" style="fill: #111925"/>
      <path d="M809.62,271.57V280l-.79,0a15.74,15.74,0,0,1-.16-2h0a3.18,3.18,0,0,1-3,2.09,3,3,0,0,1-3.19-3.33v-5.19h1.1v5.19a2.14,2.14,0,0,0,2.25,2.41,2.93,2.93,0,0,0,2.77-3v-4.61Z" style="fill: #111925"/>
      <path d="M817.25,274c0-1-.9-1.59-2.12-1.59s-2,.58-2,1.44c0,2.24,5.24.79,5.27,3.93,0,1.46-1.29,2.32-3.29,2.32a4.93,4.93,0,0,1-3.48-1.24l.69-.72a4.2,4.2,0,0,0,2.79,1c1.42,0,2.19-.56,2.19-1.4,0-2.11-5.29-.89-5.29-3.95,0-1.35,1.24-2.34,3.11-2.34s3.1.92,3.1,2.31a3.09,3.09,0,0,1,0,.54l-1,.09A2,2,0,0,0,817.25,274Z" style="fill: #111925"/>
      <path d="M821.27,278.54a1,1,0,0,1,1,1.12,3.64,3.64,0,0,1-1.48,2.86l-.54-.65a2.67,2.67,0,0,0,1-1.76.81.81,0,0,1-.87-.78A.79.79,0,0,1,821.27,278.54Z" style="fill: #111925"/>
      <path d="M833,274c0-1-.9-1.59-2.12-1.59s-2,.58-2,1.44c0,2.24,5.24.79,5.27,3.93,0,1.46-1.29,2.32-3.29,2.32a4.93,4.93,0,0,1-3.48-1.24l.69-.72a4.2,4.2,0,0,0,2.79,1c1.42,0,2.19-.56,2.19-1.4,0-2.11-5.29-.89-5.29-3.95,0-1.35,1.24-2.34,3.12-2.34s3.09.92,3.09,2.31a3.09,3.09,0,0,1,0,.54l-1,.09A2,2,0,0,0,833,274Z" style="fill: #111925"/>
      <path d="M843.59,275.3a3.66,3.66,0,0,1-.06.72H837a3,3,0,0,0,3.2,3.15,3.1,3.1,0,0,0,2.5-1.1l.69.63a4.33,4.33,0,0,1-7.51-2.9,4,4,0,0,1,4-4.32A3.53,3.53,0,0,1,843.59,275.3Zm-6.54-.09h5.42v-.07a2.47,2.47,0,0,0-2.54-2.74A2.91,2.91,0,0,0,837.05,275.21Z" style="fill: #111925"/>
      <path d="M859.09,274.87V280H858v-5.13a2.21,2.21,0,0,0-2.29-2.45,2.88,2.88,0,0,0-2.7,3V280h-1.1v-5.13a2.21,2.21,0,0,0-2.28-2.45,2.88,2.88,0,0,0-2.7,3V280h-1.1v-8.43l.77,0a15.67,15.67,0,0,1,.16,2.14,3.11,3.11,0,0,1,3-2.18,3,3,0,0,1,3.06,2.2,3.21,3.21,0,0,1,6.25,1.17Z" style="fill: #111925"/>
      <path d="M873.79,271.57v12.1h-1.08v-5.45a3.35,3.35,0,0,1-3.17,1.87c-2.34,0-4-1.73-4-4.32s1.62-4.29,4-4.29a3.27,3.27,0,0,1,3.25,2.2h0a12.69,12.69,0,0,1,.17-2.11Zm-1.08,4.6v-.76a3,3,0,0,0-3.06-3c-1.78,0-2.95,1.35-2.95,3.37s1.18,3.4,3,3.4A3,3,0,0,0,872.71,276.17Z" style="fill: #111925"/>
      <path d="M883.73,271.57V280l-.8,0a17.76,17.76,0,0,1-.16-2h0a3.17,3.17,0,0,1-3,2.09,3,3,0,0,1-3.19-3.33v-5.19h1.1v5.19a2.15,2.15,0,0,0,2.25,2.41,2.94,2.94,0,0,0,2.78-3v-4.61Z" style="fill: #111925"/>
      <path d="M893.93,280a3,3,0,0,1-.66.09,1.14,1.14,0,0,1-1.28-1.26v-.43h0a3.29,3.29,0,0,1-3.18,1.69c-1.79,0-2.78-.88-2.78-2.23,0-1.89,2-2.54,5.4-2.58l.53,0v-.64a2.13,2.13,0,0,0-2.4-2.22c-1.37,0-2.27.65-2.27,1.73a1.31,1.31,0,0,0,.09.49l-1,.18a2.37,2.37,0,0,1-.11-.72c0-1.53,1.31-2.6,3.33-2.6s3.47,1.21,3.47,3.12v3.83c0,.49.17.69.56.69a1.3,1.3,0,0,0,.31,0Zm-2-2.84v-1.1l-.53,0c-2.82,0-4.28.5-4.28,1.74,0,.83.61,1.35,1.89,1.35C891.09,279.17,891.92,277.7,891.92,277.16Z" style="fill: #111925"/>
      <path d="M909.25,274.87V280h-1.1v-5.13a2.21,2.21,0,0,0-2.28-2.45,2.88,2.88,0,0,0-2.7,3V280h-1.1v-5.13a2.21,2.21,0,0,0-2.29-2.45,2.88,2.88,0,0,0-2.7,3V280H896v-8.43l.78,0a15.67,15.67,0,0,1,.16,2.14,3.09,3.09,0,0,1,3-2.18,3,3,0,0,1,3.06,2.2,3.15,3.15,0,0,1,3-2.2A3.09,3.09,0,0,1,909.25,274.87Z" style="fill: #111925"/>
      <path d="M921.11,274c0-1-.9-1.59-2.12-1.59s-2,.58-2,1.44c0,2.24,5.24.79,5.28,3.93,0,1.46-1.3,2.32-3.3,2.32a4.9,4.9,0,0,1-3.47-1.24l.68-.72a4.25,4.25,0,0,0,2.79,1c1.43,0,2.2-.56,2.2-1.4,0-2.11-5.29-.89-5.29-3.95,0-1.35,1.24-2.34,3.11-2.34s3.1.92,3.1,2.31a3.09,3.09,0,0,1,0,.54l-1,.09A2,2,0,0,0,921.11,274Z" style="fill: #111925"/>
      <path d="M931.71,275.3a4.37,4.37,0,0,1-.05.72h-6.52a3.05,3.05,0,0,0,3.21,3.15,3.1,3.1,0,0,0,2.5-1.1l.68.63a4.32,4.32,0,0,1-7.5-2.9,4,4,0,0,1,4-4.32A3.52,3.52,0,0,1,931.71,275.3Zm-6.53-.09h5.42v-.07a2.47,2.47,0,0,0-2.54-2.74A2.91,2.91,0,0,0,925.18,275.21Z" style="fill: #111925"/>
      <path d="M947.21,274.87V280h-1.09v-5.13a2.21,2.21,0,0,0-2.29-2.45,2.88,2.88,0,0,0-2.7,3V280H940v-5.13a2.21,2.21,0,0,0-2.29-2.45,2.88,2.88,0,0,0-2.7,3V280h-1.1v-8.43l.78,0a15.67,15.67,0,0,1,.16,2.14,3.09,3.09,0,0,1,3-2.18,3,3,0,0,1,3.07,2.2,3.12,3.12,0,0,1,3-2.2A3.09,3.09,0,0,1,947.21,274.87Z" style="fill: #111925"/>
      <path d="M958.14,275.8c0,2.58-1.6,4.29-4,4.29a3.43,3.43,0,0,1-3.11-1.78v5.36h-1.1v-12.1l.77,0a19.15,19.15,0,0,1,.16,2.14h0a3.32,3.32,0,0,1,3.32-2.2C956.54,271.48,958.14,273.21,958.14,275.8Zm-1.1,0c0-2-1.19-3.4-3-3.4a3,3,0,0,0-3,3v.75a3,3,0,0,0,3,3C955.87,279.17,957,277.82,957,275.8Z" style="fill: #111925"/>
      <path d="M967.57,275.3a4.37,4.37,0,0,1-.05.72H961a3,3,0,0,0,3.2,3.15,3.11,3.11,0,0,0,2.51-1.1l.68.63a4.32,4.32,0,1,1-3.48-7.22A3.53,3.53,0,0,1,967.57,275.3Zm-6.54-.09h5.42v-.07a2.47,2.47,0,0,0-2.54-2.74A2.91,2.91,0,0,0,961,275.21Z" style="fill: #111925"/>
      <path d="M974.12,271.61l-.27,1.08a1.75,1.75,0,0,0-.74-.14c-1.26,0-2.21,1.44-2.21,2.89V280h-1.1v-8.43l.77,0a15.8,15.8,0,0,1,.17,2.14h0a2.63,2.63,0,0,1,2.4-2.2A3.39,3.39,0,0,1,974.12,271.61Z" style="fill: #111925"/>
      <path d="M979.66,267.29h1.08V280h-1.08Z" style="fill: #111925"/>
      <path d="M984.2,269.65a.84.84,0,1,1,0-1.68.84.84,0,1,1,0,1.68Zm-.58,1.92,1.1,0V280h-1.1Z" style="fill: #111925"/>
      <path d="M995.76,275.79c0,2.59-1.61,4.3-4,4.3a3.28,3.28,0,0,1-3.28-2.2,18.82,18.82,0,0,1-.16,2.11h-.77V267.32h1.09v6a3.38,3.38,0,0,1,3.17-1.85C994.15,271.47,995.76,273.19,995.76,275.79Zm-1.1,0c0-2-1.19-3.39-3-3.39a3,3,0,0,0-3,3v.78a3,3,0,0,0,3.05,3C993.49,279.15,994.66,277.8,994.66,275.79Z" style="fill: #111925"/>
      <path d="M1005.19,275.3a3.66,3.66,0,0,1-.06.72h-6.51a3.26,3.26,0,0,0,5.7,2.05l.69.63a4.33,4.33,0,0,1-7.51-2.9,4,4,0,0,1,4-4.32A3.53,3.53,0,0,1,1005.19,275.3Zm-6.54-.09h5.42v-.07a2.47,2.47,0,0,0-2.54-2.74A2.91,2.91,0,0,0,998.65,275.21Z" style="fill: #111925"/>
      <path d="M1011.74,271.61l-.27,1.08a1.78,1.78,0,0,0-.74-.14c-1.26,0-2.21,1.44-2.21,2.89V280h-1.1v-8.43l.77,0a15.67,15.67,0,0,1,.16,2.14h0a2.62,2.62,0,0,1,2.4-2.2A3.39,3.39,0,0,1,1011.74,271.61Z" style="fill: #111925"/>
      <path d="M1020.81,275.8a4.2,4.2,0,1,1-4.19-4.32A4,4,0,0,1,1020.81,275.8Zm-1.11,0a3.1,3.1,0,1,0-3.08,3.37A3.1,3.1,0,0,0,1019.7,275.8Z" style="fill: #111925"/>
      <path d="M1023.37,278.54a1,1,0,0,1,1,1.12,3.64,3.64,0,0,1-1.48,2.86l-.54-.65a2.67,2.67,0,0,0,1-1.76.81.81,0,0,1-.87-.78A.79.79,0,0,1,1023.37,278.54Z" style="fill: #111925"/>
      <path d="M1035.07,274c0-1-.9-1.59-2.13-1.59s-2,.58-2,1.44c0,2.24,5.24.79,5.28,3.93,0,1.46-1.3,2.32-3.3,2.32a4.9,4.9,0,0,1-3.47-1.24l.68-.72a4.2,4.2,0,0,0,2.79,1c1.42,0,2.2-.56,2.2-1.4,0-2.11-5.3-.89-5.3-3.95,0-1.35,1.25-2.34,3.12-2.34s3.1.92,3.1,2.31a2.59,2.59,0,0,1-.06.54l-1,.09A1.91,1.91,0,0,0,1035.07,274Z" style="fill: #111925"/>
      <path d="M1039.13,269.65a.84.84,0,1,1,0-1.68.84.84,0,1,1,0,1.68Zm-.57,1.92,1.1,0V280h-1.1Z" style="fill: #111925"/>
      <path d="M1047.9,279.51a3.88,3.88,0,0,1-2.12.6c-2,0-2.79-1.05-2.79-3v-4.6h-1.39v-.9H1043V269l1.09-.08v2.63h3.42v.9h-3.42V277c0,1.4.53,2.12,1.79,2.12a2.76,2.76,0,0,0,1.65-.52Z" style="fill: #111925"/>
      <path d="M1061.17,280a3.14,3.14,0,0,1-.67.09,1.14,1.14,0,0,1-1.28-1.26v-.43h0a3.31,3.31,0,0,1-3.19,1.69c-1.78,0-2.77-.88-2.77-2.23,0-1.89,1.94-2.54,5.4-2.58l.52,0v-.64a2.13,2.13,0,0,0-2.39-2.22c-1.37,0-2.27.65-2.27,1.73a1.13,1.13,0,0,0,.09.49l-1,.18a2.37,2.37,0,0,1-.11-.72c0-1.53,1.32-2.6,3.33-2.6,2.16,0,3.48,1.21,3.48,3.12v3.83c0,.49.16.69.56.69a1.21,1.21,0,0,0,.3,0Zm-2-2.84v-1.1l-.52,0c-2.83,0-4.29.5-4.29,1.74,0,.83.62,1.35,1.89,1.35C1058.32,279.17,1059.15,277.7,1059.15,277.16Z" style="fill: #111925"/>
      <path d="M1076.49,274.87V280h-1.1v-5.13a2.21,2.21,0,0,0-2.29-2.45,2.88,2.88,0,0,0-2.7,3V280h-1.1v-5.13a2.21,2.21,0,0,0-2.28-2.45,2.88,2.88,0,0,0-2.7,3V280h-1.1v-8.43l.77,0a15.67,15.67,0,0,1,.16,2.14,3.11,3.11,0,0,1,3-2.18,3,3,0,0,1,3.06,2.2,3.21,3.21,0,0,1,6.25,1.17Z" style="fill: #111925"/>
      <path d="M1086.35,275.3a3.66,3.66,0,0,1-.06.72h-6.51a3.26,3.26,0,0,0,5.7,2.05l.69.63a4.33,4.33,0,0,1-7.51-2.9,4,4,0,0,1,4-4.32A3.53,3.53,0,0,1,1086.35,275.3Zm-6.54-.09h5.42v-.07a2.47,2.47,0,0,0-2.54-2.74A2.91,2.91,0,0,0,1079.81,275.21Z" style="fill: #111925"/>
      <path d="M1093.87,279.51a3.88,3.88,0,0,1-2.12.6c-2,0-2.79-1.05-2.79-3v-4.6h-1.39v-.9H1089V269l1.09-.08v2.63h3.43v.9h-3.43V277c0,1.4.53,2.12,1.79,2.12a2.76,2.76,0,0,0,1.65-.52Z" style="fill: #111925"/>
    </g>
    <g>
      <path d="M647.8,302a2.88,2.88,0,0,1-.66.09,1.14,1.14,0,0,1-1.28-1.26v-.43h0a3.28,3.28,0,0,1-3.18,1.69c-1.79,0-2.78-.88-2.78-2.23,0-1.89,1.95-2.54,5.41-2.58l.52,0v-.64a2.13,2.13,0,0,0-2.4-2.22c-1.36,0-2.27.65-2.27,1.73a1.31,1.31,0,0,0,.09.49l-1,.18a2.37,2.37,0,0,1-.11-.72c0-1.53,1.31-2.6,3.33-2.6s3.48,1.21,3.48,3.12v3.83c0,.49.16.69.55.69a1.3,1.3,0,0,0,.31,0Zm-2-2.84v-1.1l-.52,0c-2.83,0-4.29.5-4.29,1.74,0,.83.61,1.35,1.89,1.35C645,301.17,645.79,299.7,645.79,299.16Z" style="fill: #111925"/>
      <path d="M657.52,289.32V302l-.79,0a19.34,19.34,0,0,1-.12-2.16h0a3.38,3.38,0,0,1-3.31,2.21c-2.35,0-4-1.73-4-4.32s1.62-4.3,4-4.3a3.33,3.33,0,0,1,3.11,1.76v-5.91Zm-1.08,8.83v-.76a3,3,0,0,0-3.06-3c-1.78,0-3,1.35-3,3.37s1.19,3.38,3,3.38A3,3,0,0,0,656.44,298.15Z" style="fill: #111925"/>
      <path d="M661,291.65a.84.84,0,1,1,0-1.68.84.84,0,1,1,0,1.68Zm-.58,1.92,1.1,0V302h-1.1Z" style="fill: #111925"/>
      <path d="M672.52,297.8c0,2.58-1.6,4.29-4,4.29a3.43,3.43,0,0,1-3.11-1.78v5.36h-1.1v-12.1l.77,0a19.15,19.15,0,0,1,.16,2.14h0a3.32,3.32,0,0,1,3.32-2.2C670.92,293.48,672.52,295.21,672.52,297.8Zm-1.1,0c0-2-1.19-3.4-3-3.4a3,3,0,0,0-3,3v.75a3,3,0,0,0,3,3C670.25,301.17,671.42,299.82,671.42,297.8Z" style="fill: #111925"/>
      <path d="M675.41,291.65a.84.84,0,1,1,0-1.68.84.84,0,1,1,0,1.68Zm-.57,1.92,1.1,0V302h-1.1Z" style="fill: #111925"/>
      <path d="M683.59,296c0-1-.9-1.59-2.13-1.59s-2,.58-2,1.44c0,2.24,5.24.79,5.28,3.93,0,1.46-1.3,2.32-3.3,2.32a5,5,0,0,1-3.48-1.24l.69-.72a4.2,4.2,0,0,0,2.79,1c1.42,0,2.2-.56,2.2-1.4,0-2.11-5.3-.89-5.3-3.95,0-1.35,1.24-2.34,3.12-2.34s3.1.92,3.1,2.31a2.59,2.59,0,0,1-.06.54l-1,.09A1.91,1.91,0,0,0,683.59,296Z" style="fill: #111925"/>
      <path d="M694,296.33a3,3,0,0,1,0,.54l-1,.07a2,2,0,0,0,0-.45,2.1,2.1,0,0,0-2.34-2.09c-1.8,0-3,1.35-3,3.4a3.05,3.05,0,0,0,3.17,3.37,3.31,3.31,0,0,0,2.63-1.1l.64.69a4.21,4.21,0,0,1-3.31,1.33,4.31,4.31,0,0,1-.12-8.61C692.7,293.48,694,294.71,694,296.33Z" style="fill: #111925"/>
      <path d="M696.89,291.65a.84.84,0,1,1,0-1.68.84.84,0,1,1,0,1.68Zm-.58,1.92,1.1,0V302h-1.1Z" style="fill: #111925"/>
      <path d="M707.67,296.83V302h-1.1v-5.17a2.23,2.23,0,0,0-2.34-2.43,3,3,0,0,0-2.9,3V302h-1.1v-8.43l.78,0a15.67,15.67,0,0,1,.16,2.14h0a3.32,3.32,0,0,1,3.18-2.2A3.12,3.12,0,0,1,707.67,296.83Z" style="fill: #111925"/>
      <path d="M718,303.17c0,1.53-1.33,2.59-4.27,2.59-2.77,0-4.25-.9-4.25-2.36a2,2,0,0,1,1.55-1.9,1.44,1.44,0,0,1-1-1.39,1.47,1.47,0,0,1,1.22-1.37,2.83,2.83,0,0,1-1-2.25c0-1.8,1.37-3,3.42-3a3.8,3.8,0,0,1,2.37.72c.69-.23,1-.93,1-1.83l.95.2a2,2,0,0,1-1.45,2.07,2.88,2.88,0,0,1,.62,1.85c0,1.8-1.36,3-3.43,3a4,4,0,0,1-1.62-.31c-.64.09-1,.36-1,.79,0,.71.76.87,2,.87h1.83C716.78,300.85,718,301.69,718,303.17Zm-1.08,0c0-1-.76-1.39-2.22-1.39h-1.94c-1.51,0-2.2.63-2.2,1.48,0,1,1.07,1.57,3.17,1.57S716.87,304.3,716.87,303.17Zm-5.57-6.68a2.36,2.36,0,1,0,2.35-2.11A2.1,2.1,0,0,0,711.3,296.49Z" style="fill: #111925"/>
      <path d="M728.91,296c0-1-.9-1.59-2.12-1.59s-2,.58-2,1.44c0,2.24,5.24.79,5.28,3.93,0,1.46-1.3,2.32-3.3,2.32a4.9,4.9,0,0,1-3.47-1.24l.68-.72a4.25,4.25,0,0,0,2.79,1c1.43,0,2.2-.56,2.2-1.4,0-2.11-5.29-.89-5.29-3.95,0-1.35,1.24-2.34,3.11-2.34s3.1.92,3.1,2.31a2.59,2.59,0,0,1-.06.54l-1,.09A3,3,0,0,0,728.91,296Z" style="fill: #111925"/>
      <path d="M739.51,297.3a4.37,4.37,0,0,1,0,.72h-6.52a3.05,3.05,0,0,0,3.21,3.15,3.1,3.1,0,0,0,2.5-1.1l.68.63a4.32,4.32,0,1,1-3.47-7.22A3.52,3.52,0,0,1,739.51,297.3Zm-6.53-.09h5.42v-.07a2.47,2.47,0,0,0-2.54-2.74A2.9,2.9,0,0,0,733,297.21Z" style="fill: #111925"/>
      <path d="M755,296.87V302h-1.1v-5.13a2.21,2.21,0,0,0-2.28-2.45,2.88,2.88,0,0,0-2.7,3V302h-1.1v-5.13a2.21,2.21,0,0,0-2.29-2.45,2.88,2.88,0,0,0-2.7,3V302h-1.1v-8.43l.78,0a17.44,17.44,0,0,1,.16,2.14,3.09,3.09,0,0,1,3-2.18,3,3,0,0,1,3.06,2.2,3.15,3.15,0,0,1,3-2.2A3.09,3.09,0,0,1,755,296.87Z" style="fill: #111925"/>
      <path d="M769.48,296.83V302h-1.1v-5.17A2.23,2.23,0,0,0,766,294.4a3,3,0,0,0-2.9,3V302h-1.09v-8.43l.77,0a15.67,15.67,0,0,1,.16,2.14h0a3.32,3.32,0,0,1,3.19-2.2A3.12,3.12,0,0,1,769.48,296.83Z" style="fill: #111925"/>
      <path d="M779.35,297.3a3.66,3.66,0,0,1-.06.72h-6.52a3.05,3.05,0,0,0,3.21,3.15,3.1,3.1,0,0,0,2.5-1.1l.69.63a4.33,4.33,0,0,1-7.51-2.9,4,4,0,0,1,4-4.32A3.53,3.53,0,0,1,779.35,297.3Zm-6.54-.09h5.42v-.07a2.47,2.47,0,0,0-2.54-2.74A2.91,2.91,0,0,0,772.81,297.21Z" style="fill: #111925"/>
      <path d="M789.25,293.57v12.1h-1.08v-5.45a3.37,3.37,0,0,1-3.17,1.87c-2.34,0-4-1.73-4-4.32s1.62-4.29,4-4.29a3.28,3.28,0,0,1,3.26,2.2h0a12.6,12.6,0,0,1,.16-2.11Zm-1.08,4.6v-.76a3,3,0,0,0-3.06-3c-1.79,0-3,1.35-3,3.37s1.19,3.4,3,3.4A3,3,0,0,0,788.17,298.17Z" style="fill: #111925"/>
      <path d="M799.18,293.57V302l-.79,0a15.74,15.74,0,0,1-.16-2h0a3.18,3.18,0,0,1-3,2.09,3,3,0,0,1-3.19-3.33v-5.19h1.1v5.19a2.14,2.14,0,0,0,2.25,2.41,2.93,2.93,0,0,0,2.77-3v-4.61Z" style="fill: #111925"/>
      <path d="M809.14,297.3a3.66,3.66,0,0,1-.06.72h-6.52a3.05,3.05,0,0,0,3.21,3.15,3.1,3.1,0,0,0,2.5-1.1l.69.63a4.33,4.33,0,0,1-7.51-2.9,4,4,0,0,1,4-4.32A3.53,3.53,0,0,1,809.14,297.3Zm-6.54-.09H808v-.07a2.47,2.47,0,0,0-2.54-2.74A2.91,2.91,0,0,0,802.6,297.21Z" style="fill: #111925"/>
      <path d="M820.51,296c0-1-.9-1.59-2.12-1.59s-2,.58-2,1.44c0,2.24,5.24.79,5.28,3.93,0,1.46-1.3,2.32-3.3,2.32a4.9,4.9,0,0,1-3.47-1.24l.68-.72a4.25,4.25,0,0,0,2.79,1c1.43,0,2.2-.56,2.2-1.4,0-2.11-5.29-.89-5.29-3.95,0-1.35,1.24-2.34,3.11-2.34s3.1.92,3.1,2.31a2.59,2.59,0,0,1-.06.54l-1,.09A3,3,0,0,0,820.51,296Z" style="fill: #111925"/>
      <path d="M831.11,297.3a4.37,4.37,0,0,1-.05.72h-6.52a3.05,3.05,0,0,0,3.21,3.15,3.1,3.1,0,0,0,2.5-1.1l.68.63a4.32,4.32,0,1,1-3.47-7.22A3.52,3.52,0,0,1,831.11,297.3Zm-6.53-.09H830v-.07a2.47,2.47,0,0,0-2.54-2.74A2.91,2.91,0,0,0,824.58,297.21Z" style="fill: #111925"/>
      <path d="M841,289.32V302l-.79,0c-.07-.69-.14-1.64-.13-2.16h0a3.38,3.38,0,0,1-3.32,2.21c-2.34,0-4-1.73-4-4.32s1.62-4.3,4-4.3a3.33,3.33,0,0,1,3.11,1.76v-5.91Zm-1.08,8.83v-.76a3,3,0,0,0-3.06-3c-1.78,0-3,1.35-3,3.37s1.19,3.38,3,3.38A3,3,0,0,0,839.93,298.15Z" style="fill: #111925"/>
      <path d="M848.77,291.65a.84.84,0,1,1,0-1.68.84.84,0,1,1,0,1.68Zm-.58,1.92,1.1,0V302h-1.1Z" style="fill: #111925"/>
      <path d="M860.33,297.8c0,2.58-1.61,4.29-4,4.29a3.44,3.44,0,0,1-3.12-1.78v5.36h-1.09v-12.1l.77,0a19.15,19.15,0,0,1,.16,2.14h0a3.32,3.32,0,0,1,3.31-2.2C858.72,293.48,860.33,295.21,860.33,297.8Zm-1.1,0c0-2-1.19-3.4-3-3.4a3,3,0,0,0-3,3v.75a3,3,0,0,0,3,3C858.06,301.17,859.23,299.82,859.23,297.8Z" style="fill: #111925"/>
      <path d="M867.44,296c0-1-.9-1.59-2.13-1.59s-2,.58-2,1.44c0,2.24,5.24.79,5.27,3.93,0,1.46-1.29,2.32-3.29,2.32a5,5,0,0,1-3.48-1.24l.69-.72a4.2,4.2,0,0,0,2.79,1c1.42,0,2.2-.56,2.2-1.4,0-2.11-5.3-.89-5.3-3.95,0-1.35,1.24-2.34,3.12-2.34s3.09.92,3.09,2.31a3.09,3.09,0,0,1-.05.54l-1,.09A1.91,1.91,0,0,0,867.44,296Z" style="fill: #111925"/>
      <path d="M878,293.57V302l-.79,0a15.74,15.74,0,0,1-.16-2h0a3.18,3.18,0,0,1-3,2.09,3,3,0,0,1-3.19-3.33v-5.19h1.1v5.19a2.14,2.14,0,0,0,2.25,2.41,2.93,2.93,0,0,0,2.77-3v-4.61Z" style="fill: #111925"/>
      <path d="M894.08,296.87V302H893v-5.13a2.21,2.21,0,0,0-2.29-2.45,2.88,2.88,0,0,0-2.7,3V302h-1.1v-5.13a2.21,2.21,0,0,0-2.28-2.45,2.88,2.88,0,0,0-2.7,3V302h-1.1v-8.43l.77,0a15.67,15.67,0,0,1,.16,2.14,3.11,3.11,0,0,1,3-2.18,3,3,0,0,1,3.06,2.2,3.21,3.21,0,0,1,6.25,1.17Z" style="fill: #111925"/>
      <path d="M897.31,300.47a.82.82,0,0,1,.81.83.81.81,0,0,1-.81.81.82.82,0,0,1-.82-.81A.83.83,0,0,1,897.31,300.47Z" style="fill: #111925"/>
      <path d="M913.37,302h-1.29l-5.6-8.57c-.38-.61-1-1.6-1-1.75l-.07,0a14,14,0,0,1,.07,1.6l0,8.68h-1.14V290.19h1.3l5.6,8.62c.54.87.84,1.43,1,1.73l.09,0c0-.2-.09-.89-.09-1.63l0-8.69h1.13Z" style="fill: #111925"/>
      <path d="M923.87,302a3.14,3.14,0,0,1-.67.09,1.14,1.14,0,0,1-1.28-1.26v-.43h0a3.28,3.28,0,0,1-3.18,1.69c-1.78,0-2.77-.88-2.77-2.23,0-1.89,1.94-2.54,5.4-2.58l.52,0v-.64a2.13,2.13,0,0,0-2.4-2.22c-1.36,0-2.26.65-2.26,1.73a1.13,1.13,0,0,0,.09.49l-1,.18a2.37,2.37,0,0,1-.11-.72c0-1.53,1.32-2.6,3.33-2.6s3.48,1.21,3.48,3.12v3.83c0,.49.16.69.56.69a1.28,1.28,0,0,0,.3,0Zm-2-2.84v-1.1l-.52,0c-2.83,0-4.29.5-4.29,1.74,0,.83.61,1.35,1.89,1.35C921,301.17,921.85,299.7,921.85,299.16Z" style="fill: #111925"/>
      <path d="M939.19,296.87V302h-1.1v-5.13a2.21,2.21,0,0,0-2.29-2.45,2.88,2.88,0,0,0-2.7,3V302H932v-5.13a2.21,2.21,0,0,0-2.29-2.45,2.88,2.88,0,0,0-2.7,3V302h-1.09v-8.43l.77,0a15.67,15.67,0,0,1,.16,2.14,3.1,3.1,0,0,1,3-2.18,3,3,0,0,1,3.06,2.2,3.21,3.21,0,0,1,6.25,1.17Z" style="fill: #111925"/>
      <path d="M953.89,293.57v12.1h-1.08v-5.45a3.35,3.35,0,0,1-3.17,1.87c-2.34,0-4-1.73-4-4.32s1.62-4.29,4-4.29a3.28,3.28,0,0,1,3.26,2.2h0a13.76,13.76,0,0,1,.16-2.11Zm-1.08,4.6v-.76a3,3,0,0,0-3.06-3c-1.79,0-3,1.35-3,3.37s1.19,3.4,3,3.4A3,3,0,0,0,952.81,298.17Z" style="fill: #111925"/>
      <path d="M963.82,293.57V302l-.79,0a15.74,15.74,0,0,1-.16-2h0a3.17,3.17,0,0,1-3,2.09,3,3,0,0,1-3.19-3.33v-5.19h1.1v5.19a2.14,2.14,0,0,0,2.25,2.41,2.93,2.93,0,0,0,2.77-3v-4.61Z" style="fill: #111925"/>
      <path d="M974,302a3,3,0,0,1-.67.09,1.14,1.14,0,0,1-1.27-1.26v-.43h0a3.31,3.31,0,0,1-3.19,1.69c-1.78,0-2.77-.88-2.77-2.23,0-1.89,1.95-2.54,5.4-2.58l.52,0v-.64a2.13,2.13,0,0,0-2.39-2.22c-1.37,0-2.27.65-2.27,1.73a1.13,1.13,0,0,0,.09.49l-1,.18a2.59,2.59,0,0,1-.1-.72c0-1.53,1.31-2.6,3.33-2.6s3.47,1.21,3.47,3.12v3.83c0,.49.16.69.56.69a1.37,1.37,0,0,0,.31,0Zm-2-2.84v-1.1l-.52,0c-2.82,0-4.28.5-4.28,1.74,0,.83.61,1.35,1.89,1.35C971.19,301.17,972,299.7,972,299.16Z" style="fill: #111925"/>
      <path d="M989.35,296.87V302h-1.1v-5.13a2.21,2.21,0,0,0-2.28-2.45,2.88,2.88,0,0,0-2.71,3V302h-1.09v-5.13a2.21,2.21,0,0,0-2.29-2.45,2.88,2.88,0,0,0-2.7,3V302h-1.1v-8.43l.78,0a17.44,17.44,0,0,1,.16,2.14,3.09,3.09,0,0,1,3-2.18,3,3,0,0,1,3.06,2.2,3.14,3.14,0,0,1,3-2.2A3.09,3.09,0,0,1,989.35,296.87Z" style="fill: #111925"/>
      <path d="M1003.82,296.83V302h-1.1v-5.17a2.23,2.23,0,0,0-2.34-2.43,3,3,0,0,0-2.9,3V302h-1.1v-8.43l.78,0a15.67,15.67,0,0,1,.16,2.14h0a3.32,3.32,0,0,1,3.18-2.2A3.12,3.12,0,0,1,1003.82,296.83Z" style="fill: #111925"/>
      <path d="M1013.65,293.57V302l-.79,0a16,16,0,0,1-.17-2h0a3.18,3.18,0,0,1-3,2.09,3,3,0,0,1-3.18-3.33v-5.19h1.09v5.19a2.15,2.15,0,0,0,2.25,2.41,2.94,2.94,0,0,0,2.78-3v-4.61Z" style="fill: #111925"/>
      <path d="M1023.89,296.83V302h-1.1v-5.17a2.23,2.23,0,0,0-2.34-2.43,3,3,0,0,0-2.9,3V302h-1.1v-8.43l.78,0a15.67,15.67,0,0,1,.16,2.14h0a3.32,3.32,0,0,1,3.18-2.2A3.12,3.12,0,0,1,1023.89,296.83Z" style="fill: #111925"/>
      <path d="M1033.57,296.33a3,3,0,0,1,0,.54l-1,.07a1.8,1.8,0,0,0,0-.45,2.1,2.1,0,0,0-2.34-2.09c-1.8,0-3,1.35-3,3.4a3.05,3.05,0,0,0,3.17,3.37,3.3,3.3,0,0,0,2.63-1.1l.65.69a4.24,4.24,0,0,1-3.31,1.33,4.31,4.31,0,0,1-.13-8.61C1032.26,293.48,1033.57,294.71,1033.57,296.33Z" style="fill: #111925"/>
      <path d="M1036.4,300.54a1,1,0,0,1,1,1.12,3.64,3.64,0,0,1-1.48,2.86l-.54-.65a2.67,2.67,0,0,0,1.05-1.76.81.81,0,0,1-.87-.78A.8.8,0,0,1,1036.4,300.54Z" style="fill: #111925"/>
      <path d="M1051.48,297.79c0,2.59-1.6,4.3-4,4.3a3.26,3.26,0,0,1-3.28-2.2,18.82,18.82,0,0,1-.16,2.11h-.78V289.32h1.1v6a3.37,3.37,0,0,1,3.17-1.85C1049.88,293.47,1051.48,295.19,1051.48,297.79Zm-1.09,0c0-2-1.19-3.39-3-3.39a3,3,0,0,0-3,3v.78a3,3,0,0,0,3.05,3C1049.21,301.15,1050.39,299.8,1050.39,297.79Z" style="fill: #111925"/>
      <path d="M1053.8,289.29h1.08V302h-1.08Z" style="fill: #111925"/>
      <path d="M1065.13,302a3.14,3.14,0,0,1-.67.09,1.14,1.14,0,0,1-1.28-1.26v-.43h0a3.31,3.31,0,0,1-3.19,1.69c-1.78,0-2.77-.88-2.77-2.23,0-1.89,1.94-2.54,5.4-2.58l.52,0v-.64a2.13,2.13,0,0,0-2.39-2.22c-1.37,0-2.27.65-2.27,1.73a1.13,1.13,0,0,0,.09.49l-1,.18a2.37,2.37,0,0,1-.11-.72c0-1.53,1.32-2.6,3.33-2.6,2.16,0,3.48,1.21,3.48,3.12v3.83c0,.49.16.69.56.69a1.21,1.21,0,0,0,.3,0Zm-2-2.84v-1.1l-.52,0c-2.83,0-4.29.5-4.29,1.74,0,.83.62,1.35,1.89,1.35C1062.28,301.17,1063.11,299.7,1063.11,299.16Z" style="fill: #111925"/>
      <path d="M1074.61,296.83V302h-1.1v-5.17a2.23,2.23,0,0,0-2.34-2.43,3,3,0,0,0-2.89,3V302h-1.1v-8.43l.77,0a15.67,15.67,0,0,1,.16,2.14h0a3.32,3.32,0,0,1,3.19-2.2A3.12,3.12,0,0,1,1074.61,296.83Z" style="fill: #111925"/>
      <path d="M1085,289.32V302l-.79,0a17.37,17.37,0,0,1-.13-2.16h0a3.37,3.37,0,0,1-3.31,2.21c-2.34,0-4-1.73-4-4.32s1.62-4.3,4-4.3a3.35,3.35,0,0,1,3.12,1.76v-5.91Zm-1.08,8.83v-.76a3,3,0,0,0-3.06-3c-1.78,0-3,1.35-3,3.37s1.19,3.38,3,3.38A3,3,0,0,0,1083.92,298.15Z" style="fill: #111925"/>
      <path d="M1088.43,291.65a.84.84,0,1,1,0-1.68.84.84,0,1,1,0,1.68Zm-.57,1.92,1.1,0V302h-1.1Z" style="fill: #111925"/>
      <path d="M1097.2,301.51a3.88,3.88,0,0,1-2.12.6c-2,0-2.79-1.05-2.79-3v-4.6h-1.39v-.9h1.39V291l1.09-.08v2.63h3.43v.9h-3.43V299c0,1.4.53,2.12,1.79,2.12a2.76,2.76,0,0,0,1.65-.52Z" style="fill: #111925"/>
    </g>
    <g>
      <path d="M647.66,315.57,644.15,324h-1.24l-3.51-8.43h1.22l2.74,6.72a3.79,3.79,0,0,1,.19.61h0a3.92,3.92,0,0,1,.18-.61l2.77-6.72Z" style="fill: #111925"/>
      <path d="M656.39,319.3a4.37,4.37,0,0,1,0,.72h-6.52a3,3,0,0,0,3.2,3.15,3.11,3.11,0,0,0,2.51-1.1l.68.63a4.32,4.32,0,1,1-3.47-7.22A3.53,3.53,0,0,1,656.39,319.3Zm-6.54-.09h5.42v-.07a2.47,2.47,0,0,0-2.53-2.74A2.92,2.92,0,0,0,649.85,319.21Z" style="fill: #111925"/>
      <path d="M658.66,311.29h1.08V324h-1.08Z" style="fill: #111925"/>
      <path d="M663.14,322.54a1,1,0,0,1,1,1.12,3.64,3.64,0,0,1-1.48,2.86l-.54-.65a2.67,2.67,0,0,0,1-1.76.81.81,0,0,1-.87-.78A.8.8,0,0,1,663.14,322.54Z" style="fill: #111925"/>
      <path d="M670.07,311.29h1.08V324h-1.08Z" style="fill: #111925"/>
      <path d="M681.1,315.57V324l-.79,0a15.74,15.74,0,0,1-.16-2h0a3.17,3.17,0,0,1-3,2.09,3,3,0,0,1-3.19-3.33v-5.19H675v5.19a2.14,2.14,0,0,0,2.25,2.41,2.93,2.93,0,0,0,2.77-3v-4.61Z" style="fill: #111925"/>
      <path d="M690.88,318.33a2.48,2.48,0,0,1-.06.54l-1,.07a2.94,2.94,0,0,0,0-.45,2.1,2.1,0,0,0-2.34-2.09c-1.8,0-3,1.35-3,3.4a3.05,3.05,0,0,0,3.17,3.37,3.31,3.31,0,0,0,2.63-1.1l.64.69a4.21,4.21,0,0,1-3.31,1.33,4.31,4.31,0,0,1-.13-8.61C689.56,315.48,690.88,316.71,690.88,318.33Z" style="fill: #111925"/>
      <path d="M698.46,323.51a3.89,3.89,0,0,1-2.13.6c-2,0-2.79-1.05-2.79-3v-4.6h-1.39v-.9h1.39V313l1.1-.08v2.63h3.42v.9h-3.42V321c0,1.4.52,2.12,1.78,2.12a2.77,2.77,0,0,0,1.66-.52Z" style="fill: #111925"/>
      <path d="M707.11,315.57V324l-.79,0a15.74,15.74,0,0,1-.16-2h0a3.18,3.18,0,0,1-3,2.09,3,3,0,0,1-3.19-3.33v-5.19H701v5.19a2.14,2.14,0,0,0,2.25,2.41,2.93,2.93,0,0,0,2.77-3v-4.61Z" style="fill: #111925"/>
      <path d="M714.74,318c0-1-.9-1.59-2.12-1.59s-2,.58-2,1.44c0,2.24,5.24.79,5.27,3.93,0,1.46-1.29,2.32-3.29,2.32a4.93,4.93,0,0,1-3.48-1.24l.69-.72a4.2,4.2,0,0,0,2.79,1c1.42,0,2.19-.56,2.19-1.4,0-2.11-5.29-.89-5.29-3.95,0-1.35,1.24-2.34,3.12-2.34s3.09.92,3.09,2.31a3.09,3.09,0,0,1,0,.54l-1,.09A2,2,0,0,0,714.74,318Z" style="fill: #111925"/>
      <path d="M730.73,319.8c0,2.58-1.6,4.29-4,4.29a3.44,3.44,0,0,1-3.11-1.78v5.36h-1.1v-12.1l.77,0a19.31,19.31,0,0,1,.17,2.14h0a3.34,3.34,0,0,1,3.32-2.2C729.13,315.48,730.73,317.21,730.73,319.8Zm-1.1,0c0-2-1.19-3.4-3-3.4a3,3,0,0,0-3,3v.75a3,3,0,0,0,3,3C728.46,323.17,729.63,321.82,729.63,319.8Z" style="fill: #111925"/>
      <path d="M740.12,315.57V324l-.79,0a15.74,15.74,0,0,1-.16-2h0a3.17,3.17,0,0,1-3,2.09,3,3,0,0,1-3.19-3.33v-5.19H734v5.19a2.14,2.14,0,0,0,2.25,2.41,2.93,2.93,0,0,0,2.77-3v-4.61Z" style="fill: #111925"/>
      <path d="M743,311.29h1.08V324H743Z" style="fill: #111925"/>
      <path d="M754.15,315.57,750.63,324h-1.24l-3.51-8.43h1.23l2.73,6.72a3.08,3.08,0,0,1,.2.61h0a3.07,3.07,0,0,1,.18-.61l2.77-6.72Z" style="fill: #111925"/>
      <path d="M756.57,313.65a.84.84,0,1,1,0-1.68.84.84,0,1,1,0,1.68Zm-.57,1.92,1.1,0V324H756Z" style="fill: #111925"/>
      <path d="M767.36,318.83V324h-1.1v-5.17a2.23,2.23,0,0,0-2.34-2.43,3,3,0,0,0-2.9,3V324h-1.1v-8.43l.78,0a17.44,17.44,0,0,1,.16,2.14h0a3.33,3.33,0,0,1,3.19-2.2A3.12,3.12,0,0,1,767.36,318.83Z" style="fill: #111925"/>
      <path d="M777.47,324a2.88,2.88,0,0,1-.66.09,1.14,1.14,0,0,1-1.28-1.26v-.43h0a3.29,3.29,0,0,1-3.18,1.69c-1.79,0-2.78-.88-2.78-2.23,0-1.89,2-2.54,5.41-2.58l.52,0v-.64a2.13,2.13,0,0,0-2.4-2.22c-1.37,0-2.27.65-2.27,1.73a1.31,1.31,0,0,0,.09.49l-1,.18a2.37,2.37,0,0,1-.11-.72c0-1.53,1.31-2.6,3.33-2.6s3.48,1.21,3.48,3.12v3.83c0,.49.16.69.55.69a1.3,1.3,0,0,0,.31,0Zm-2-2.84v-1.1l-.52,0c-2.83,0-4.29.5-4.29,1.74,0,.83.61,1.35,1.89,1.35C774.63,323.17,775.46,321.7,775.46,321.16Z" style="fill: #111925"/>
      <path d="M783.84,315.61l-.27,1.08a1.69,1.69,0,0,0-.73-.14c-1.26,0-2.22,1.44-2.22,2.89V324h-1.1v-8.43l.78,0a15.67,15.67,0,0,1,.16,2.14h0a2.61,2.61,0,0,1,2.39-2.2A3.28,3.28,0,0,1,783.84,315.61Z" style="fill: #111925"/>
      <path d="M785.09,322.54a1,1,0,0,1,1,1.12,3.64,3.64,0,0,1-1.48,2.86l-.54-.65a2.67,2.67,0,0,0,1.05-1.76.81.81,0,0,1-.87-.78A.79.79,0,0,1,785.09,322.54Z" style="fill: #111925"/>
      <path d="M799.42,318.83V324h-1.1v-5.17A2.23,2.23,0,0,0,796,316.4a3,3,0,0,0-2.9,3V324H792V311.29h1.08v6.14a3.28,3.28,0,0,1,3.1-1.95A3.11,3.11,0,0,1,799.42,318.83Z" style="fill: #111925"/>
      <path d="M809.28,319.3a3.66,3.66,0,0,1-.06.72h-6.51a3,3,0,0,0,3.2,3.15,3.11,3.11,0,0,0,2.51-1.1l.68.63a4.33,4.33,0,0,1-7.51-2.9,4,4,0,0,1,4-4.32A3.53,3.53,0,0,1,809.28,319.3Zm-6.54-.09h5.42v-.07a2.47,2.47,0,0,0-2.54-2.74A2.91,2.91,0,0,0,802.74,319.21Z" style="fill: #111925"/>
      <path d="M819,318.83V324h-1.1v-5.17a2.24,2.24,0,0,0-2.34-2.43,3,3,0,0,0-2.9,3V324h-1.1v-8.43l.77,0a15.8,15.8,0,0,1,.17,2.14h0a3.33,3.33,0,0,1,3.19-2.2A3.13,3.13,0,0,1,819,318.83Z" style="fill: #111925"/>
      <path d="M829.33,311.32V324l-.79,0c-.07-.69-.14-1.64-.13-2.16h0a3.38,3.38,0,0,1-3.32,2.21c-2.34,0-4-1.73-4-4.32s1.62-4.3,4-4.3a3.33,3.33,0,0,1,3.11,1.76v-5.91Zm-1.08,8.83v-.76a3,3,0,0,0-3.06-3c-1.78,0-3,1.35-3,3.37s1.19,3.38,3,3.38A3,3,0,0,0,828.25,320.15Z" style="fill: #111925"/>
      <path d="M836.48,315.61l-.27,1.08a1.78,1.78,0,0,0-.74-.14c-1.26,0-2.22,1.44-2.22,2.89V324h-1.1v-8.43l.78,0a15.67,15.67,0,0,1,.16,2.14h0a2.62,2.62,0,0,1,2.39-2.2A3.42,3.42,0,0,1,836.48,315.61Z" style="fill: #111925"/>
      <path d="M844.85,319.3a3.66,3.66,0,0,1-.06.72h-6.51a3,3,0,0,0,3.2,3.15,3.1,3.1,0,0,0,2.5-1.1l.69.63a4.33,4.33,0,0,1-7.51-2.9,4,4,0,0,1,4-4.32A3.53,3.53,0,0,1,844.85,319.3Zm-6.54-.09h5.42v-.07a2.47,2.47,0,0,0-2.54-2.74A2.91,2.91,0,0,0,838.31,319.21Z" style="fill: #111925"/>
      <path d="M851.4,315.61l-.27,1.08a1.78,1.78,0,0,0-.74-.14c-1.26,0-2.21,1.44-2.21,2.89V324h-1.1v-8.43l.77,0a15.67,15.67,0,0,1,.16,2.14h0a2.62,2.62,0,0,1,2.39-2.2A3.42,3.42,0,0,1,851.4,315.61Z" style="fill: #111925"/>
      <path d="M853.63,313.65a.84.84,0,1,1,0-1.68.84.84,0,1,1,0,1.68Zm-.58,1.92,1.1,0V324h-1.1Z" style="fill: #111925"/>
      <path d="M862.4,323.51a3.89,3.89,0,0,1-2.13.6c-2,0-2.79-1.05-2.79-3v-4.6h-1.39v-.9h1.39V313l1.1-.08v2.63H862v.9h-3.42V321c0,1.4.52,2.12,1.78,2.12a2.77,2.77,0,0,0,1.66-.52Z" style="fill: #111925"/>
      <path d="M868.87,313.65a.84.84,0,1,1,0-1.68.84.84,0,1,1,0,1.68Zm-.57,1.92,1.1,0V324h-1.1Z" style="fill: #111925"/>
      <path d="M879.89,311.32V324l-.79,0c-.07-.69-.14-1.64-.13-2.16h0a3.38,3.38,0,0,1-3.32,2.21c-2.34,0-4-1.73-4-4.32s1.62-4.3,4-4.3a3.33,3.33,0,0,1,3.11,1.76v-5.91Zm-1.08,8.83v-.76a3,3,0,0,0-3.06-3c-1.78,0-3,1.35-3,3.37s1.19,3.38,3,3.38A3,3,0,0,0,878.81,320.15Z" style="fill: #111925"/>
      <path d="M883.27,322.54a1,1,0,0,1,1,1.12,3.64,3.64,0,0,1-1.48,2.86l-.54-.65a2.67,2.67,0,0,0,1-1.76.81.81,0,0,1-.86-.78A.79.79,0,0,1,883.27,322.54Z" style="fill: #111925"/>
      <path d="M890.2,311.29h1.08V324H890.2Z" style="fill: #111925"/>
      <path d="M902,319.8a4.2,4.2,0,1,1-4.2-4.32A4,4,0,0,1,902,319.8Zm-1.12,0a3.1,3.1,0,1,0-3.08,3.37A3.09,3.09,0,0,0,900.86,319.8Z" style="fill: #111925"/>
      <path d="M908.56,315.61l-.27,1.08a1.69,1.69,0,0,0-.73-.14c-1.27,0-2.22,1.44-2.22,2.89V324h-1.1v-8.43l.78,0a17.44,17.44,0,0,1,.16,2.14h0a2.63,2.63,0,0,1,2.4-2.2A3.28,3.28,0,0,1,908.56,315.61Z" style="fill: #111925"/>
      <path d="M916.94,319.3a3.66,3.66,0,0,1-.06.72h-6.52a3.05,3.05,0,0,0,3.21,3.15,3.1,3.1,0,0,0,2.5-1.1l.68.63a4.32,4.32,0,1,1-3.47-7.22A3.53,3.53,0,0,1,916.94,319.3Zm-6.54-.09h5.42v-.07a2.47,2.47,0,0,0-2.54-2.74A2.91,2.91,0,0,0,910.4,319.21Z" style="fill: #111925"/>
      <path d="M932.43,318.87V324h-1.09v-5.13a2.21,2.21,0,0,0-2.29-2.45,2.88,2.88,0,0,0-2.7,3V324h-1.1v-5.13a2.21,2.21,0,0,0-2.29-2.45,2.88,2.88,0,0,0-2.7,3V324h-1.1v-8.43l.78,0a15.67,15.67,0,0,1,.16,2.14,3.1,3.1,0,0,1,3-2.18,3,3,0,0,1,3.06,2.2,3.12,3.12,0,0,1,3-2.2A3.09,3.09,0,0,1,932.43,318.87Z" style="fill: #111925"/>
      <path d="M935.67,322.47a.82.82,0,0,1,.81.83.81.81,0,0,1-.81.81.82.82,0,0,1-.83-.81A.84.84,0,0,1,935.67,322.47Z" style="fill: #111925"/>
      <path d="M954.21,324H953.1l0-8.62c0-.47,0-1.1,0-1.19l0,0c-.06.14-.24.74-.38,1.06L948.85,324h-.72l-4-8.88a4.15,4.15,0,0,1-.34-1l-.06,0c0,.1.06.75.06,1.19V324h-1.11V312.19H944l4,9a12.18,12.18,0,0,1,.5,1.29h0a12.88,12.88,0,0,1,.52-1.29l3.94-9h1.24Z" style="fill: #111925"/>
      <path d="M964.71,324a3.14,3.14,0,0,1-.67.09,1.14,1.14,0,0,1-1.28-1.26v-.43h0a3.31,3.31,0,0,1-3.19,1.69c-1.78,0-2.77-.88-2.77-2.23,0-1.89,1.94-2.54,5.4-2.58l.52,0v-.64a2.13,2.13,0,0,0-2.4-2.22c-1.36,0-2.26.65-2.26,1.73a1.13,1.13,0,0,0,.09.49l-1,.18a2.37,2.37,0,0,1-.11-.72c0-1.53,1.32-2.6,3.33-2.6,2.16,0,3.48,1.21,3.48,3.12v3.83c0,.49.16.69.56.69a1.28,1.28,0,0,0,.3,0Zm-2-2.84v-1.1l-.52,0c-2.83,0-4.29.5-4.29,1.74,0,.83.61,1.35,1.89,1.35C961.86,323.17,962.69,321.7,962.69,321.16Z" style="fill: #111925"/>
      <path d="M973.9,319.3a4.37,4.37,0,0,1,0,.72h-6.52a3.05,3.05,0,0,0,3.21,3.15,3.1,3.1,0,0,0,2.5-1.1l.68.63a4.32,4.32,0,0,1-7.5-2.9,4,4,0,0,1,4-4.32A3.52,3.52,0,0,1,973.9,319.3Zm-6.53-.09h5.42v-.07a2.47,2.47,0,0,0-2.54-2.74A2.91,2.91,0,0,0,967.37,319.21Z" style="fill: #111925"/>
      <path d="M983.1,318.33a3,3,0,0,1-.05.54l-1,.07a1.8,1.8,0,0,0,0-.45,2.1,2.1,0,0,0-2.34-2.09c-1.8,0-3,1.35-3,3.4a3.05,3.05,0,0,0,3.17,3.37,3.3,3.3,0,0,0,2.63-1.1l.65.69a4.24,4.24,0,0,1-3.31,1.33,4.31,4.31,0,0,1-.13-8.61C981.79,315.48,983.1,316.71,983.1,318.33Z" style="fill: #111925"/>
      <path d="M992.52,319.3a3.66,3.66,0,0,1-.06.72h-6.52a3.05,3.05,0,0,0,3.21,3.15,3.1,3.1,0,0,0,2.5-1.1l.69.63a4.33,4.33,0,0,1-7.51-2.9,4,4,0,0,1,4-4.32A3.53,3.53,0,0,1,992.52,319.3Zm-6.54-.09h5.42v-.07a2.47,2.47,0,0,0-2.54-2.74A2.91,2.91,0,0,0,986,319.21Z" style="fill: #111925"/>
      <path d="M1002.18,318.83V324h-1.1v-5.17a2.23,2.23,0,0,0-2.34-2.43,3,3,0,0,0-2.9,3V324h-1.09v-8.43l.77,0a15.67,15.67,0,0,1,.16,2.14h0a3.32,3.32,0,0,1,3.18-2.2A3.12,3.12,0,0,1,1002.18,318.83Z" style="fill: #111925"/>
      <path d="M1012.3,324a3.14,3.14,0,0,1-.67.09,1.14,1.14,0,0,1-1.28-1.26v-.43h0a3.31,3.31,0,0,1-3.19,1.69c-1.78,0-2.77-.88-2.77-2.23,0-1.89,1.94-2.54,5.4-2.58l.52,0v-.64a2.13,2.13,0,0,0-2.39-2.22c-1.37,0-2.27.65-2.27,1.73a1.13,1.13,0,0,0,.09.49l-1,.18a2.37,2.37,0,0,1-.11-.72c0-1.53,1.32-2.6,3.33-2.6s3.48,1.21,3.48,3.12v3.83c0,.49.16.69.56.69a1.28,1.28,0,0,0,.3,0Zm-2-2.84v-1.1l-.52,0c-2.83,0-4.29.5-4.29,1.74,0,.83.62,1.35,1.89,1.35C1009.45,323.17,1010.28,321.7,1010.28,321.16Z" style="fill: #111925"/>
      <path d="M1019.17,318c0-1-.9-1.59-2.12-1.59s-2,.58-2,1.44c0,2.24,5.24.79,5.27,3.93,0,1.46-1.3,2.32-3.29,2.32a4.93,4.93,0,0,1-3.48-1.24l.69-.72a4.2,4.2,0,0,0,2.79,1c1.42,0,2.19-.56,2.19-1.4,0-2.11-5.29-.89-5.29-3.95,0-1.35,1.24-2.34,3.11-2.34s3.1.92,3.1,2.31a3.09,3.09,0,0,1,0,.54l-1,.09A2,2,0,0,0,1019.17,318Z" style="fill: #111925"/>
      <path d="M1034.38,318.83V324h-1.09v-5.17a2.24,2.24,0,0,0-2.35-2.43,3,3,0,0,0-2.9,3V324H1027v-8.43l.77,0a15.67,15.67,0,0,1,.16,2.14h0a3.32,3.32,0,0,1,3.19-2.2A3.12,3.12,0,0,1,1034.38,318.83Z" style="fill: #111925"/>
      <path d="M1044.25,319.3a3.66,3.66,0,0,1-.06.72h-6.52a3.06,3.06,0,0,0,3.21,3.15,3.1,3.1,0,0,0,2.5-1.1l.69.63a4.33,4.33,0,0,1-7.51-2.9,4,4,0,0,1,4-4.32A3.53,3.53,0,0,1,1044.25,319.3Zm-6.54-.09h5.42v-.07a2.47,2.47,0,0,0-2.54-2.74A2.91,2.91,0,0,0,1037.71,319.21Z" style="fill: #111925"/>
      <path d="M1053.45,318.33a2.48,2.48,0,0,1-.06.54l-1,.07a1.8,1.8,0,0,0,0-.45,2.1,2.1,0,0,0-2.34-2.09c-1.8,0-3,1.35-3,3.4a3,3,0,0,0,3.16,3.37,3.28,3.28,0,0,0,2.63-1.1l.65.69a4.24,4.24,0,0,1-3.31,1.33,4.31,4.31,0,0,1-.13-8.61C1052.13,315.48,1053.45,316.71,1053.45,318.33Z" style="fill: #111925"/>
      <path d="M1067.88,319.8a4.2,4.2,0,1,1-4.19-4.32A4,4,0,0,1,1067.88,319.8Zm-1.12,0a3.1,3.1,0,1,0-3.07,3.37A3.06,3.06,0,0,0,1066.76,319.8Z" style="fill: #111925"/>
      <path d="M1077.82,311.32V324l-.8,0a19.34,19.34,0,0,1-.12-2.16h0a3.37,3.37,0,0,1-3.31,2.21c-2.34,0-4-1.73-4-4.32s1.62-4.3,4-4.3a3.36,3.36,0,0,1,3.12,1.76v-5.91Zm-1.08,8.83v-.76a3,3,0,0,0-3.06-3c-1.79,0-3,1.35-3,3.37s1.19,3.38,3,3.38A3,3,0,0,0,1076.74,320.15Z" style="fill: #111925"/>
      <path d="M1081.25,313.65a.84.84,0,1,1,0-1.68.84.84,0,1,1,0,1.68Zm-.57,1.92,1.09,0V324h-1.09Z" style="fill: #111925"/>
      <path d="M1092.45,319.8a4.2,4.2,0,1,1-4.2-4.32A4,4,0,0,1,1092.45,319.8Zm-1.12,0a3.1,3.1,0,1,0-3.08,3.37A3.09,3.09,0,0,0,1091.33,319.8Z" style="fill: #111925"/>
    </g>
    <g>
      <path d="M647.55,341.3a4.37,4.37,0,0,1,0,.72H641a3.05,3.05,0,0,0,3.21,3.15,3.1,3.1,0,0,0,2.5-1.1l.68.63a4.32,4.32,0,1,1-3.47-7.22A3.52,3.52,0,0,1,647.55,341.3Zm-6.53-.09h5.42v-.07a2.47,2.47,0,0,0-2.54-2.74A2.9,2.9,0,0,0,641,341.21Z" style="fill: #111925"/>
      <path d="M655.06,345.51a3.89,3.89,0,0,1-2.13.6c-2,0-2.79-1.05-2.79-3v-4.6h-1.38v-.9h1.38V335l1.1-.08v2.63h3.42v.9h-3.42V343c0,1.4.52,2.12,1.78,2.12a2.77,2.77,0,0,0,1.66-.52Z" style="fill: #111925"/>
      <path d="M668.32,346a2.88,2.88,0,0,1-.66.09,1.14,1.14,0,0,1-1.28-1.26v-.43h0a3.28,3.28,0,0,1-3.18,1.69c-1.79,0-2.78-.88-2.78-2.23,0-1.89,2-2.54,5.41-2.58l.52,0v-.64a2.13,2.13,0,0,0-2.4-2.22c-1.37,0-2.27.65-2.27,1.73a1.31,1.31,0,0,0,.09.49l-1,.18a2.37,2.37,0,0,1-.11-.72c0-1.53,1.31-2.6,3.33-2.6s3.48,1.21,3.48,3.12v3.83c0,.49.16.69.55.69a1.3,1.3,0,0,0,.31,0Zm-2-2.84v-1.1l-.52,0c-2.83,0-4.29.5-4.29,1.74,0,.83.61,1.35,1.89,1.35C665.48,345.17,666.31,343.7,666.31,343.16Z" style="fill: #111925"/>
      <path d="M677.81,340.83V346h-1.1v-5.17a2.23,2.23,0,0,0-2.34-2.43,3,3,0,0,0-2.9,3V346h-1.1v-8.43l.78,0a15.67,15.67,0,0,1,.16,2.14h0a3.32,3.32,0,0,1,3.18-2.2A3.12,3.12,0,0,1,677.81,340.83Z" style="fill: #111925"/>
      <path d="M685.8,345.51a3.88,3.88,0,0,1-2.12.6c-2,0-2.79-1.05-2.79-3v-4.6H679.5v-.9h1.39V335l1.09-.08v2.63h3.43v.9H682V343c0,1.4.53,2.12,1.79,2.12a2.76,2.76,0,0,0,1.65-.52Z" style="fill: #111925"/>
      <path d="M694.39,341.3a3.66,3.66,0,0,1-.06.72h-6.51a3.26,3.26,0,0,0,5.7,2.05l.69.63a4.33,4.33,0,0,1-7.51-2.9,4,4,0,0,1,4-4.32A3.53,3.53,0,0,1,694.39,341.3Zm-6.54-.09h5.42v-.07a2.47,2.47,0,0,0-2.54-2.74A2.91,2.91,0,0,0,687.85,341.21Z" style="fill: #111925"/>
      <path d="M706.12,345.51a3.88,3.88,0,0,1-2.12.6c-2,0-2.79-1.05-2.79-3v-4.6h-1.39v-.9h1.39V335l1.1-.08v2.63h3.42v.9h-3.42V343c0,1.4.52,2.12,1.78,2.12a2.77,2.77,0,0,0,1.66-.52Z" style="fill: #111925"/>
      <path d="M708.28,335.65a.84.84,0,1,1,0-1.68.84.84,0,1,1,0,1.68Zm-.57,1.92,1.09,0V346h-1.09Z" style="fill: #111925"/>
      <path d="M719.07,340.83V346H718v-5.17a2.24,2.24,0,0,0-2.34-2.43,3,3,0,0,0-2.9,3V346h-1.1v-8.43l.77,0a15.8,15.8,0,0,1,.17,2.14h0a3.33,3.33,0,0,1,3.19-2.2A3.13,3.13,0,0,1,719.07,340.83Z" style="fill: #111925"/>
      <path d="M728.75,340.33a3,3,0,0,1,0,.54l-1,.07a1.8,1.8,0,0,0,0-.45,2.1,2.1,0,0,0-2.35-2.09c-1.8,0-3,1.35-3,3.4a3.05,3.05,0,0,0,3.17,3.37,3.3,3.3,0,0,0,2.63-1.1l.65.69a4.24,4.24,0,0,1-3.32,1.33,4.31,4.31,0,0,1-.12-8.61C727.43,337.48,728.75,338.71,728.75,340.33Z" style="fill: #111925"/>
      <path d="M731.63,335.65a.84.84,0,1,1,0-1.68.84.84,0,1,1,0,1.68Zm-.58,1.92,1.1,0V346h-1.1Z" style="fill: #111925"/>
      <path d="M742.64,333.32V346l-.79,0a19.34,19.34,0,0,1-.12-2.16h0a3.38,3.38,0,0,1-3.31,2.21c-2.35,0-4-1.73-4-4.32s1.62-4.3,4-4.3a3.33,3.33,0,0,1,3.11,1.76v-5.91Zm-1.08,8.83v-.76a3,3,0,0,0-3.06-3c-1.78,0-3,1.35-3,3.37s1.19,3.38,3,3.38A3,3,0,0,0,741.56,342.15Z" style="fill: #111925"/>
      <path d="M752.58,337.57V346l-.79,0a15.74,15.74,0,0,1-.16-2h0a3.18,3.18,0,0,1-3,2.09,3,3,0,0,1-3.19-3.33v-5.19h1.1v5.19a2.14,2.14,0,0,0,2.25,2.41,2.93,2.93,0,0,0,2.77-3v-4.61Z" style="fill: #111925"/>
      <path d="M762.82,340.83V346h-1.1v-5.17a2.23,2.23,0,0,0-2.34-2.43,3,3,0,0,0-2.9,3V346h-1.09v-8.43l.77,0a15.67,15.67,0,0,1,.16,2.14h0a3.32,3.32,0,0,1,3.18-2.2A3.12,3.12,0,0,1,762.82,340.83Z" style="fill: #111925"/>
      <path d="M770.81,345.51a3.84,3.84,0,0,1-2.12.6c-2,0-2.79-1.05-2.79-3v-4.6h-1.39v-.9h1.39V335l1.1-.08v2.63h3.42v.9H767V343c0,1.4.52,2.12,1.78,2.12a2.77,2.77,0,0,0,1.66-.52Z" style="fill: #111925"/>
      <path d="M781.87,345.51a3.89,3.89,0,0,1-2.13.6c-2,0-2.79-1.05-2.79-3v-4.6h-1.39v-.9H777V335l1.1-.08v2.63h3.42v.9h-3.42V343c0,1.4.52,2.12,1.78,2.12a2.77,2.77,0,0,0,1.66-.52Z" style="fill: #111925"/>
      <path d="M790.43,341.3a4.37,4.37,0,0,1,0,.72h-6.52a3.05,3.05,0,0,0,3.21,3.15,3.1,3.1,0,0,0,2.5-1.1l.68.63a4.32,4.32,0,1,1-3.47-7.22A3.52,3.52,0,0,1,790.43,341.3Zm-6.53-.09h5.42v-.07a2.47,2.47,0,0,0-2.54-2.74A2.91,2.91,0,0,0,783.9,341.21Z" style="fill: #111925"/>
      <path d="M805.93,340.87V346h-1.09v-5.13a2.21,2.21,0,0,0-2.29-2.45,2.88,2.88,0,0,0-2.7,3V346h-1.1v-5.13a2.21,2.21,0,0,0-2.29-2.45,2.88,2.88,0,0,0-2.7,3V346h-1.1v-8.43l.78,0a15.67,15.67,0,0,1,.16,2.14,3.09,3.09,0,0,1,3-2.18,3,3,0,0,1,3.07,2.2,3.12,3.12,0,0,1,3-2.2A3.09,3.09,0,0,1,805.93,340.87Z" style="fill: #111925"/>
      <path d="M816.86,341.8c0,2.58-1.6,4.29-4,4.29a3.43,3.43,0,0,1-3.11-1.78v5.36h-1.1v-12.1l.77,0a19.15,19.15,0,0,1,.16,2.14h0a3.32,3.32,0,0,1,3.32-2.2C815.26,337.48,816.86,339.21,816.86,341.8Zm-1.1,0c0-2-1.19-3.4-3-3.4a3,3,0,0,0-3,3v.75a3,3,0,0,0,3,3C814.59,345.17,815.76,343.82,815.76,341.8Z" style="fill: #111925"/>
      <path d="M826.25,337.57V346l-.79,0a15.74,15.74,0,0,1-.16-2h0a3.18,3.18,0,0,1-3,2.09,3,3,0,0,1-3.19-3.33v-5.19h1.1v5.19a2.14,2.14,0,0,0,2.25,2.41,2.93,2.93,0,0,0,2.77-3v-4.61Z" style="fill: #111925"/>
      <path d="M833.88,340c0-1-.9-1.59-2.12-1.59s-2,.58-2,1.44c0,2.24,5.24.79,5.27,3.93,0,1.46-1.29,2.32-3.29,2.32a4.93,4.93,0,0,1-3.48-1.24l.69-.72a4.2,4.2,0,0,0,2.79,1c1.42,0,2.19-.56,2.19-1.4,0-2.11-5.29-.89-5.29-3.95,0-1.35,1.24-2.34,3.12-2.34s3.09.92,3.09,2.31a3.09,3.09,0,0,1,0,.54l-1,.09A2,2,0,0,0,833.88,340Z" style="fill: #111925"/>
      <path d="M837.86,344.47a.82.82,0,0,1,.81.83.81.81,0,0,1-.81.81.82.82,0,0,1-.83-.81A.84.84,0,0,1,837.86,344.47Z" style="fill: #111925"/>
      <path d="M854.12,340.09c0,3.91-2.07,5.91-5.35,5.91H844.9V334.19h3.2C851.85,334.19,854.12,336.38,854.12,340.09Zm-1.14,0c0-3.22-1.85-4.93-4.88-4.93H846V345h2.74C851.31,345,853,343.33,853,340.09Z" style="fill: #111925"/>
      <path d="M864.36,341.8a4.2,4.2,0,1,1-4.2-4.32A4,4,0,0,1,864.36,341.8Zm-1.12,0a3.1,3.1,0,1,0-3.08,3.37A3.09,3.09,0,0,0,863.24,341.8Z" style="fill: #111925"/>
      <path d="M874.06,340.83V346H873v-5.17a2.23,2.23,0,0,0-2.34-2.43,3,3,0,0,0-2.9,3V346h-1.1v-8.43l.78,0a15.67,15.67,0,0,1,.16,2.14h0a3.32,3.32,0,0,1,3.18-2.2A3.12,3.12,0,0,1,874.06,340.83Z" style="fill: #111925"/>
      <path d="M883.92,341.3a4.37,4.37,0,0,1,0,.72h-6.52a3.05,3.05,0,0,0,3.21,3.15,3.1,3.1,0,0,0,2.5-1.1l.68.63a4.32,4.32,0,1,1-3.47-7.22A3.52,3.52,0,0,1,883.92,341.3Zm-6.53-.09h5.42v-.07a2.47,2.47,0,0,0-2.54-2.74A2.91,2.91,0,0,0,877.39,341.21Z" style="fill: #111925"/>
      <path d="M893.12,340.33a3,3,0,0,1,0,.54l-1,.07a1.8,1.8,0,0,0,0-.45,2.1,2.1,0,0,0-2.34-2.09c-1.8,0-3,1.35-3,3.4a3.05,3.05,0,0,0,3.17,3.37,3.3,3.3,0,0,0,2.63-1.1l.65.69a4.24,4.24,0,0,1-3.31,1.33,4.31,4.31,0,0,1-.13-8.61C891.81,337.48,893.12,338.71,893.12,340.33Z" style="fill: #111925"/>
      <path d="M906.66,337.57,903.15,346H901.9l-3.51-8.43h1.23l2.74,6.72a3.79,3.79,0,0,1,.19.61h0a3.07,3.07,0,0,1,.18-.61l2.77-6.72Z" style="fill: #111925"/>
      <path d="M909.09,335.65a.84.84,0,1,1,0-1.68.84.84,0,1,1,0,1.68Zm-.58,1.92,1.1,0V346h-1.1Z" style="fill: #111925"/>
      <path d="M917.85,345.51a3.84,3.84,0,0,1-2.12.6c-2,0-2.79-1.05-2.79-3v-4.6h-1.39v-.9h1.39V335l1.1-.08v2.63h3.42v.9H914V343c0,1.4.52,2.12,1.78,2.12a2.72,2.72,0,0,0,1.65-.52Z" style="fill: #111925"/>
      <path d="M926.8,346a3,3,0,0,1-.67.09,1.14,1.14,0,0,1-1.27-1.26v-.43h0a3.31,3.31,0,0,1-3.19,1.69c-1.78,0-2.77-.88-2.77-2.23,0-1.89,1.94-2.54,5.4-2.58l.52,0v-.64a2.13,2.13,0,0,0-2.39-2.22c-1.37,0-2.27.65-2.27,1.73a1.13,1.13,0,0,0,.09.49l-1,.18a2.59,2.59,0,0,1-.1-.72c0-1.53,1.31-2.6,3.33-2.6s3.47,1.21,3.47,3.12v3.83c0,.49.16.69.56.69a1.37,1.37,0,0,0,.31,0Zm-2-2.84v-1.1l-.52,0c-2.83,0-4.28.5-4.28,1.74,0,.83.61,1.35,1.89,1.35C924,345.17,924.78,343.7,924.78,343.16Z" style="fill: #111925"/>
      <path d="M936,341.3a3.66,3.66,0,0,1-.06.72h-6.51a3,3,0,0,0,3.2,3.15,3.09,3.09,0,0,0,2.5-1.1l.69.63a4.33,4.33,0,0,1-7.51-2.9,4,4,0,0,1,4-4.32A3.53,3.53,0,0,1,936,341.3Zm-6.54-.09h5.42v-.07a2.47,2.47,0,0,0-2.54-2.74A2.91,2.91,0,0,0,929.46,341.21Z" style="fill: #111925"/>
      <path d="M947.37,340c0-1-.9-1.59-2.12-1.59s-2,.58-2,1.44c0,2.24,5.24.79,5.27,3.93,0,1.46-1.3,2.32-3.29,2.32a4.93,4.93,0,0,1-3.48-1.24l.68-.72a4.26,4.26,0,0,0,2.8,1c1.42,0,2.19-.56,2.19-1.4,0-2.11-5.29-.89-5.29-3.95,0-1.35,1.24-2.34,3.11-2.34s3.1.92,3.1,2.31a3.09,3.09,0,0,1,0,.54l-1,.09A2,2,0,0,0,947.37,340Z" style="fill: #111925"/>
      <path d="M958.23,346a3.14,3.14,0,0,1-.67.09,1.14,1.14,0,0,1-1.28-1.26v-.43h0a3.31,3.31,0,0,1-3.19,1.69c-1.78,0-2.77-.88-2.77-2.23,0-1.89,1.94-2.54,5.4-2.58l.52,0v-.64a2.13,2.13,0,0,0-2.39-2.22c-1.37,0-2.27.65-2.27,1.73a1.13,1.13,0,0,0,.09.49l-1,.18a2.37,2.37,0,0,1-.11-.72c0-1.53,1.32-2.6,3.33-2.6s3.48,1.21,3.48,3.12v3.83c0,.49.16.69.56.69a1.21,1.21,0,0,0,.3,0Zm-2-2.84v-1.1l-.52,0c-2.83,0-4.29.5-4.29,1.74,0,.83.62,1.35,1.89,1.35C955.38,345.17,956.21,343.7,956.21,343.16Z" style="fill: #111925"/>
      <path d="M968.49,341.8c0,2.58-1.61,4.29-4,4.29a3.43,3.43,0,0,1-3.11-1.78v5.36h-1.1v-12.1l.77,0a19.15,19.15,0,0,1,.16,2.14h0a3.32,3.32,0,0,1,3.31-2.2C966.88,337.48,968.49,339.21,968.49,341.8Zm-1.1,0c0-2-1.19-3.4-3-3.4a3,3,0,0,0-3,3v.75a3,3,0,0,0,3,3C966.22,345.17,967.39,343.82,967.39,341.8Z" style="fill: #111925"/>
      <path d="M971.38,335.65a.84.84,0,1,1,0-1.68.84.84,0,1,1,0,1.68Zm-.57,1.92,1.09,0V346h-1.09Z" style="fill: #111925"/>
      <path d="M981.88,341.3a3.66,3.66,0,0,1-.06.72h-6.51a3.26,3.26,0,0,0,5.7,2.05l.69.63a4.33,4.33,0,0,1-7.51-2.9,4,4,0,0,1,4-4.32A3.53,3.53,0,0,1,981.88,341.3Zm-6.54-.09h5.42v-.07a2.47,2.47,0,0,0-2.54-2.74A2.91,2.91,0,0,0,975.34,341.21Z" style="fill: #111925"/>
      <path d="M991.54,340.83V346h-1.09v-5.17a2.24,2.24,0,0,0-2.34-2.43,3,3,0,0,0-2.9,3V346h-1.1v-8.43l.77,0a15.67,15.67,0,0,1,.16,2.14h0a3.33,3.33,0,0,1,3.19-2.2A3.12,3.12,0,0,1,991.54,340.83Z" style="fill: #111925"/>
      <path d="M1005.69,337.57V346l-.79,0a15.74,15.74,0,0,1-.16-2h0a3.18,3.18,0,0,1-3,2.09,3,3,0,0,1-3.19-3.33v-5.19h1.1v5.19a2.14,2.14,0,0,0,2.25,2.41,2.93,2.93,0,0,0,2.77-3v-4.61Z" style="fill: #111925"/>
      <path d="M1013.92,345.51a3.89,3.89,0,0,1-2.13.6c-2,0-2.79-1.05-2.79-3v-4.6h-1.38v-.9H1009V335l1.1-.08v2.63h3.42v.9h-3.42V343c0,1.4.52,2.12,1.78,2.12a2.77,2.77,0,0,0,1.66-.52Z" style="fill: #111925"/>
      <path d="M1019.82,333.29h1.08V346h-1.08Z" style="fill: #111925"/>
      <path d="M1024.36,335.65a.84.84,0,1,1,0-1.68.84.84,0,1,1,0,1.68Zm-.58,1.92,1.1,0V346h-1.1Z" style="fill: #111925"/>
      <path d="M1035.91,341.79c0,2.59-1.6,4.3-4,4.3a3.26,3.26,0,0,1-3.28-2.2,18.82,18.82,0,0,1-.16,2.11h-.78V333.32h1.1v6a3.37,3.37,0,0,1,3.17-1.85C1034.31,337.47,1035.91,339.19,1035.91,341.79Zm-1.09,0c0-2-1.19-3.39-3-3.39a3,3,0,0,0-3,3v.78a3,3,0,0,0,3,3C1033.64,345.15,1034.82,343.8,1034.82,341.79Z" style="fill: #111925"/>
      <path d="M1045.35,341.3a3.66,3.66,0,0,1-.06.72h-6.52a3.05,3.05,0,0,0,3.21,3.15,3.1,3.1,0,0,0,2.5-1.1l.69.63a4.33,4.33,0,0,1-7.51-2.9,4,4,0,0,1,4-4.32A3.53,3.53,0,0,1,1045.35,341.3Zm-6.54-.09h5.42v-.07a2.47,2.47,0,0,0-2.54-2.74A2.91,2.91,0,0,0,1038.81,341.21Z" style="fill: #111925"/>
      <path d="M1051.9,337.61l-.27,1.08a1.78,1.78,0,0,0-.74-.14c-1.26,0-2.22,1.44-2.22,2.89V346h-1.09v-8.43l.77,0a15.67,15.67,0,0,1,.16,2.14h0a2.62,2.62,0,0,1,2.39-2.2A3.42,3.42,0,0,1,1051.9,337.61Z" style="fill: #111925"/>
      <path d="M1061,341.8a4.2,4.2,0,1,1-4.2-4.32A4,4,0,0,1,1061,341.8Zm-1.12,0a3.1,3.1,0,1,0-3.08,3.37A3.09,3.09,0,0,0,1059.85,341.8Z" style="fill: #111925"/>
    </g>
    <g>
      <path d="M647.66,359.57,644.15,368h-1.24l-3.51-8.43h1.22l2.74,6.72a3.79,3.79,0,0,1,.19.61h0a3.92,3.92,0,0,1,.18-.61l2.77-6.72Z" style="fill: #111925"/>
      <path d="M656.39,363.3a4.37,4.37,0,0,1,0,.72h-6.52a3,3,0,0,0,3.2,3.15,3.11,3.11,0,0,0,2.51-1.1l.68.63a4.32,4.32,0,1,1-3.47-7.22A3.53,3.53,0,0,1,656.39,363.3Zm-6.54-.09h5.42v-.07a2.47,2.47,0,0,0-2.53-2.74A2.92,2.92,0,0,0,649.85,363.21Z" style="fill: #111925"/>
      <path d="M666.06,362.83V368H665v-5.17a2.23,2.23,0,0,0-2.34-2.43,3,3,0,0,0-2.9,3V368h-1.1v-8.43l.77,0a15.8,15.8,0,0,1,.17,2.14h0a3.33,3.33,0,0,1,3.19-2.2A3.12,3.12,0,0,1,666.06,362.83Z" style="fill: #111925"/>
      <path d="M675.92,363.3a4.37,4.37,0,0,1,0,.72h-6.52a3,3,0,0,0,3.2,3.15,3.11,3.11,0,0,0,2.51-1.1l.68.63a4.33,4.33,0,0,1-7.51-2.9,4,4,0,0,1,4-4.32A3.53,3.53,0,0,1,675.92,363.3Zm-6.54-.09h5.42v-.07a2.47,2.47,0,0,0-2.53-2.74A2.92,2.92,0,0,0,669.38,363.21Z" style="fill: #111925"/>
      <path d="M685.59,362.83V368h-1.1v-5.17a2.23,2.23,0,0,0-2.34-2.43,3,3,0,0,0-2.9,3V368h-1.1v-8.43l.77,0a15.8,15.8,0,0,1,.17,2.14h0a3.33,3.33,0,0,1,3.19-2.2A3.12,3.12,0,0,1,685.59,362.83Z" style="fill: #111925"/>
      <path d="M695.7,368a3,3,0,0,1-.66.09,1.14,1.14,0,0,1-1.28-1.26v-.43h0a3.29,3.29,0,0,1-3.18,1.69c-1.79,0-2.78-.88-2.78-2.23,0-1.89,2-2.54,5.4-2.58l.53,0v-.64a2.13,2.13,0,0,0-2.4-2.22c-1.37,0-2.27.65-2.27,1.73a1.31,1.31,0,0,0,.09.49l-1,.18a2.37,2.37,0,0,1-.11-.72c0-1.53,1.31-2.6,3.33-2.6s3.47,1.21,3.47,3.12v3.83c0,.49.17.69.56.69a1.3,1.3,0,0,0,.31,0Zm-2-2.84v-1.1l-.53,0c-2.82,0-4.28.5-4.28,1.74,0,.83.61,1.35,1.89,1.35C692.86,367.17,693.69,365.7,693.69,365.16Z" style="fill: #111925"/>
      <path d="M702.94,367.51a3.89,3.89,0,0,1-2.13.6c-2,0-2.79-1.05-2.79-3v-4.6h-1.38v-.9H698V357l1.1-.08v2.63h3.42v.9h-3.42V365c0,1.4.52,2.12,1.78,2.12a2.77,2.77,0,0,0,1.66-.52Z" style="fill: #111925"/>
      <path d="M705.1,357.65a.84.84,0,1,1,0-1.68.84.84,0,1,1,0,1.68Zm-.58,1.92,1.1,0V368h-1.1Z" style="fill: #111925"/>
      <path d="M713.27,362c0-1-.9-1.59-2.13-1.59s-2,.58-2,1.44c0,2.24,5.24.79,5.28,3.93,0,1.46-1.3,2.32-3.3,2.32a4.9,4.9,0,0,1-3.47-1.24l.68-.72a4.25,4.25,0,0,0,2.79,1c1.42,0,2.2-.56,2.2-1.4,0-2.11-5.29-.89-5.29-3.95,0-1.35,1.24-2.34,3.11-2.34s3.1.92,3.1,2.31a2.59,2.59,0,0,1-.06.54l-1,.09A1.91,1.91,0,0,0,713.27,362Z" style="fill: #111925"/>
      <path d="M722.72,358.22v1.35h3.09v.9h-3.09V368h-1.1v-7.53h-1.26v-.9h1.26v-1.33a2.78,2.78,0,0,1,2.84-3,3.55,3.55,0,0,1,1.88.52l-.42.86a2.25,2.25,0,0,0-1.37-.46C723.42,356.12,722.72,356.94,722.72,358.22Z" style="fill: #111925"/>
      <path d="M734.63,368a2.88,2.88,0,0,1-.66.09,1.14,1.14,0,0,1-1.28-1.26v-.43h0a3.28,3.28,0,0,1-3.18,1.69c-1.78,0-2.77-.88-2.77-2.23,0-1.89,1.94-2.54,5.4-2.58l.52,0v-.64a2.13,2.13,0,0,0-2.4-2.22c-1.36,0-2.26.65-2.26,1.73a1.37,1.37,0,0,0,.08.49l-1,.18a2.37,2.37,0,0,1-.11-.72c0-1.53,1.31-2.6,3.33-2.6s3.48,1.21,3.48,3.12v3.83c0,.49.16.69.56.69a1.28,1.28,0,0,0,.3,0Zm-2-2.84v-1.1l-.52,0c-2.83,0-4.29.5-4.29,1.74,0,.83.61,1.35,1.89,1.35C731.79,367.17,732.62,365.7,732.62,365.16Z" style="fill: #111925"/>
      <path d="M743.8,359.57V368l-.8,0a17.76,17.76,0,0,1-.16-2h0a3.18,3.18,0,0,1-3.05,2.09,3,3,0,0,1-3.18-3.33v-5.19h1.09v5.19a2.15,2.15,0,0,0,2.25,2.41,2.94,2.94,0,0,0,2.78-3v-4.61Z" style="fill: #111925"/>
      <path d="M753.57,362.33a3,3,0,0,1-.05.54l-1,.07a1.8,1.8,0,0,0,0-.45,2.1,2.1,0,0,0-2.34-2.09c-1.8,0-3,1.35-3,3.4a3.05,3.05,0,0,0,3.17,3.37,3.3,3.3,0,0,0,2.63-1.1l.65.69a4.24,4.24,0,0,1-3.32,1.33,4.31,4.31,0,0,1-.12-8.61C752.26,359.48,753.57,360.71,753.57,362.33Z" style="fill: #111925"/>
      <path d="M756.45,357.65a.84.84,0,1,1,0-1.68.84.84,0,1,1,0,1.68Zm-.58,1.92,1.1,0V368h-1.1Z" style="fill: #111925"/>
      <path d="M768,363.79c0,2.59-1.61,4.3-4,4.3a3.28,3.28,0,0,1-3.28-2.2,18.82,18.82,0,0,1-.16,2.11h-.77V355.32h1.09v6a3.38,3.38,0,0,1,3.17-1.85C766.4,359.47,768,361.19,768,363.79Zm-1.1,0c0-2-1.19-3.39-3-3.39a3,3,0,0,0-3,3v.78a3,3,0,0,0,3.05,3C765.74,367.15,766.91,365.8,766.91,363.79Z" style="fill: #111925"/>
      <path d="M777.4,359.57V368l-.79,0a15.74,15.74,0,0,1-.16-2h0a3.18,3.18,0,0,1-3,2.09,3,3,0,0,1-3.19-3.33v-5.19h1.1v5.19a2.14,2.14,0,0,0,2.25,2.41,2.93,2.93,0,0,0,2.77-3v-4.61Z" style="fill: #111925"/>
      <path d="M785,362c0-1-.9-1.59-2.12-1.59s-2,.58-2,1.44c0,2.24,5.24.79,5.27,3.93,0,1.46-1.29,2.32-3.29,2.32a4.93,4.93,0,0,1-3.48-1.24l.69-.72a4.2,4.2,0,0,0,2.79,1c1.42,0,2.19-.56,2.19-1.4,0-2.11-5.29-.89-5.29-3.95,0-1.35,1.24-2.34,3.12-2.34s3.09.92,3.09,2.31a3.09,3.09,0,0,1,0,.54l-1,.09A2,2,0,0,0,785,362Z" style="fill: #111925"/>
      <path d="M789,366.47a.82.82,0,0,1,.81.83.81.81,0,0,1-.81.81.82.82,0,0,1-.83-.81A.84.84,0,0,1,789,366.47Z" style="fill: #111925"/>
      <path d="M805.07,368h-1.3l-5.6-8.57c-.38-.61-.95-1.6-1-1.75l-.08,0a11.29,11.29,0,0,1,.08,1.6l0,8.68h-1.13V356.19h1.29l5.6,8.62c.54.87.85,1.43,1,1.73l.09,0c0-.2-.09-.89-.09-1.63l0-8.69h1.14Z" style="fill: #111925"/>
      <path d="M815.27,359.57V368l-.79,0a15.74,15.74,0,0,1-.16-2h0a3.17,3.17,0,0,1-3,2.09,3,3,0,0,1-3.19-3.33v-5.19h1.1v5.19a2.14,2.14,0,0,0,2.25,2.41,2.93,2.93,0,0,0,2.77-3v-4.61Z" style="fill: #111925"/>
      <path d="M818.12,355.29h1.08V368h-1.08Z" style="fill: #111925"/>
      <path d="M822.08,355.29h1.08V368h-1.08Z" style="fill: #111925"/>
      <path d="M833.4,368a3,3,0,0,1-.67.09,1.14,1.14,0,0,1-1.27-1.26v-.43h0a3.31,3.31,0,0,1-3.19,1.69c-1.78,0-2.77-.88-2.77-2.23,0-1.89,1.94-2.54,5.4-2.58l.52,0v-.64A2.13,2.13,0,0,0,829,360.4c-1.37,0-2.27.65-2.27,1.73a1.13,1.13,0,0,0,.09.49l-1,.18a2.37,2.37,0,0,1-.11-.72c0-1.53,1.32-2.6,3.34-2.6s3.47,1.21,3.47,3.12v3.83c0,.49.16.69.56.69a1.37,1.37,0,0,0,.31,0Zm-2-2.84v-1.1l-.52,0c-2.83,0-4.28.5-4.28,1.74,0,.83.61,1.35,1.89,1.35A2.69,2.69,0,0,0,831.38,365.16Z" style="fill: #111925"/>
      <path d="M848.72,362.87V368h-1.1v-5.13a2.21,2.21,0,0,0-2.29-2.45,2.88,2.88,0,0,0-2.7,3V368h-1.09v-5.13a2.21,2.21,0,0,0-2.29-2.45,2.88,2.88,0,0,0-2.7,3V368h-1.1v-8.43l.77,0a15.67,15.67,0,0,1,.16,2.14,3.11,3.11,0,0,1,3-2.18,3,3,0,0,1,3.06,2.2,3.21,3.21,0,0,1,6.25,1.17Z" style="fill: #111925"/>
      <path d="M863.42,359.57v12.1h-1.08v-5.45a3.35,3.35,0,0,1-3.17,1.87c-2.34,0-4-1.73-4-4.32s1.62-4.29,4-4.29a3.29,3.29,0,0,1,3.26,2.2h0a13.86,13.86,0,0,1,.17-2.11Zm-1.08,4.6v-.76a3,3,0,0,0-3.06-3c-1.78,0-2.95,1.35-2.95,3.37s1.19,3.4,3,3.4A3,3,0,0,0,862.34,364.17Z" style="fill: #111925"/>
      <path d="M873.36,359.57V368l-.79,0a16,16,0,0,1-.17-2h0a3.18,3.18,0,0,1-3,2.09,3,3,0,0,1-3.18-3.33v-5.19h1.09v5.19a2.15,2.15,0,0,0,2.26,2.41,2.94,2.94,0,0,0,2.77-3v-4.61Z" style="fill: #111925"/>
      <path d="M876.78,357.65a.84.84,0,1,1,0-1.68.84.84,0,1,1,0,1.68Zm-.58,1.92,1.1,0V368h-1.1Z" style="fill: #111925"/>
      <path d="M885,362c0-1-.9-1.59-2.12-1.59s-2,.58-2,1.44c0,2.24,5.24.79,5.28,3.93,0,1.46-1.3,2.32-3.3,2.32a4.9,4.9,0,0,1-3.47-1.24l.68-.72a4.25,4.25,0,0,0,2.79,1c1.43,0,2.2-.56,2.2-1.4,0-2.11-5.29-.89-5.29-3.95,0-1.35,1.24-2.34,3.11-2.34s3.1.92,3.1,2.31a2.59,2.59,0,0,1-.06.54l-1,.09A3,3,0,0,0,885,362Z" style="fill: #111925"/>
      <path d="M900.12,368a2.88,2.88,0,0,1-.66.09,1.14,1.14,0,0,1-1.28-1.26v-.43h0a3.28,3.28,0,0,1-3.18,1.69c-1.79,0-2.78-.88-2.78-2.23,0-1.89,2-2.54,5.4-2.58l.53,0v-.64a2.13,2.13,0,0,0-2.4-2.22c-1.37,0-2.27.65-2.27,1.73a1.31,1.31,0,0,0,.09.49l-1,.18a2.37,2.37,0,0,1-.11-.72c0-1.53,1.31-2.6,3.33-2.6s3.48,1.21,3.48,3.12v3.83c0,.49.16.69.55.69a1.3,1.3,0,0,0,.31,0Zm-2-2.84v-1.1l-.53,0c-2.82,0-4.28.5-4.28,1.74,0,.83.61,1.35,1.89,1.35C897.28,367.17,898.11,365.7,898.11,365.16Z" style="fill: #111925"/>
      <path d="M909.61,362.83V368h-1.1v-5.17a2.23,2.23,0,0,0-2.34-2.43,3,3,0,0,0-2.9,3V368h-1.1v-8.43l.78,0a15.67,15.67,0,0,1,.16,2.14h0a3.32,3.32,0,0,1,3.18-2.2A3.12,3.12,0,0,1,909.61,362.83Z" style="fill: #111925"/>
      <path d="M917.6,367.51a3.88,3.88,0,0,1-2.12.6c-2,0-2.79-1.05-2.79-3v-4.6H911.3v-.9h1.39V357l1.09-.08v2.63h3.43v.9h-3.43V365c0,1.4.53,2.12,1.79,2.12a2.76,2.76,0,0,0,1.65-.52Z" style="fill: #111925"/>
      <path d="M926.17,363.3a4.37,4.37,0,0,1,0,.72H919.6a3.26,3.26,0,0,0,5.7,2.05l.69.63a4.33,4.33,0,0,1-7.51-2.9,4,4,0,0,1,4-4.32A3.53,3.53,0,0,1,926.17,363.3Zm-6.54-.09h5.42v-.07a2.47,2.47,0,0,0-2.54-2.74A2.91,2.91,0,0,0,919.63,363.21Z" style="fill: #111925"/>
      <path d="M928.92,366.47a.82.82,0,0,1,.81.83.81.81,0,0,1-.81.81.82.82,0,0,1-.83-.81A.84.84,0,0,1,928.92,366.47Z" style="fill: #111925"/>
      <path d="M937.08,357.16v4.21h5.43v1h-5.43V367h6v1H936V356.19h7.15v1Z" style="fill: #111925"/>
      <path d="M950.74,367.51a3.89,3.89,0,0,1-2.13.6c-2,0-2.79-1.05-2.79-3v-4.6h-1.38v-.9h1.38V357l1.1-.08v2.63h3.42v.9h-3.42V365c0,1.4.52,2.12,1.78,2.12a2.77,2.77,0,0,0,1.66-.52Z" style="fill: #111925"/>
      <path d="M952.9,357.65a.84.84,0,1,1,0-1.68.84.84,0,1,1,0,1.68Zm-.58,1.92,1.1,0V368h-1.1Z" style="fill: #111925"/>
      <path d="M963.64,368a2.88,2.88,0,0,1-.66.09,1.14,1.14,0,0,1-1.28-1.26v-.43h0a3.28,3.28,0,0,1-3.18,1.69c-1.79,0-2.78-.88-2.78-2.23,0-1.89,1.95-2.54,5.41-2.58l.52,0v-.64a2.13,2.13,0,0,0-2.4-2.22c-1.36,0-2.27.65-2.27,1.73a1.31,1.31,0,0,0,.09.49l-1,.18a2.37,2.37,0,0,1-.11-.72c0-1.53,1.31-2.6,3.33-2.6s3.48,1.21,3.48,3.12v3.83c0,.49.16.69.55.69a1.3,1.3,0,0,0,.31,0Zm-2-2.84v-1.1l-.52,0c-2.83,0-4.29.5-4.29,1.74,0,.83.61,1.35,1.89,1.35C960.8,367.17,961.63,365.7,961.63,365.16Z" style="fill: #111925"/>
      <path d="M979,362.87V368h-1.09v-5.13a2.21,2.21,0,0,0-2.29-2.45,2.88,2.88,0,0,0-2.7,3V368h-1.1v-5.13a2.21,2.21,0,0,0-2.29-2.45,2.88,2.88,0,0,0-2.7,3V368h-1.1v-8.43l.78,0a15.67,15.67,0,0,1,.16,2.14,3.09,3.09,0,0,1,3-2.18,3,3,0,0,1,3.06,2.2,3.12,3.12,0,0,1,3-2.2A3.09,3.09,0,0,1,979,362.87Z" style="fill: #111925"/>
      <path d="M990.82,362c0-1-.9-1.59-2.12-1.59s-2,.58-2,1.44c0,2.24,5.24.79,5.27,3.93,0,1.46-1.3,2.32-3.29,2.32a4.93,4.93,0,0,1-3.48-1.24l.69-.72a4.2,4.2,0,0,0,2.79,1c1.42,0,2.19-.56,2.19-1.4,0-2.11-5.29-.89-5.29-3.95,0-1.35,1.24-2.34,3.11-2.34s3.1.92,3.1,2.31a3.09,3.09,0,0,1-.05.54l-1,.09A2,2,0,0,0,990.82,362Z" style="fill: #111925"/>
      <path d="M994.89,357.65a.84.84,0,1,1,0-1.68.84.84,0,1,1,0,1.68Zm-.58,1.92,1.1,0V368h-1.1Z" style="fill: #111925"/>
      <path d="M1003.66,367.51a3.89,3.89,0,0,1-2.13.6c-2,0-2.79-1.05-2.79-3v-4.6h-1.38v-.9h1.38V357l1.1-.08v2.63h3.42v.9h-3.42V365c0,1.4.52,2.12,1.78,2.12a2.77,2.77,0,0,0,1.66-.52Z" style="fill: #111925"/>
      <path d="M1016.92,368a2.88,2.88,0,0,1-.66.09,1.14,1.14,0,0,1-1.28-1.26v-.43h0a3.29,3.29,0,0,1-3.18,1.69c-1.79,0-2.78-.88-2.78-2.23,0-1.89,1.95-2.54,5.4-2.58l.53,0v-.64a2.13,2.13,0,0,0-2.4-2.22c-1.37,0-2.27.65-2.27,1.73a1.31,1.31,0,0,0,.09.49l-1,.18a2.37,2.37,0,0,1-.11-.72c0-1.53,1.31-2.6,3.33-2.6s3.47,1.21,3.47,3.12v3.83c0,.49.17.69.56.69a1.3,1.3,0,0,0,.31,0Zm-2-2.84v-1.1l-.53,0c-2.82,0-4.28.5-4.28,1.74,0,.83.61,1.35,1.89,1.35C1014.08,367.17,1014.91,365.7,1014.91,365.16Z" style="fill: #111925"/>
      <path d="M1032.24,362.87V368h-1.1v-5.13a2.21,2.21,0,0,0-2.28-2.45,2.88,2.88,0,0,0-2.7,3V368h-1.1v-5.13a2.21,2.21,0,0,0-2.29-2.45,2.88,2.88,0,0,0-2.7,3V368H1019v-8.43l.78,0a15.67,15.67,0,0,1,.16,2.14,3.09,3.09,0,0,1,3-2.18,3,3,0,0,1,3.07,2.2,3.12,3.12,0,0,1,3-2.2A3.09,3.09,0,0,1,1032.24,362.87Z" style="fill: #111925"/>
      <path d="M1042.11,363.3a3.66,3.66,0,0,1-.06.72h-6.52a3.05,3.05,0,0,0,3.21,3.15,3.1,3.1,0,0,0,2.5-1.1l.68.63a4.32,4.32,0,1,1-3.47-7.22A3.53,3.53,0,0,1,1042.11,363.3Zm-6.54-.09H1041v-.07a2.47,2.47,0,0,0-2.54-2.74A2.91,2.91,0,0,0,1035.57,363.21Z" style="fill: #111925"/>
      <path d="M1049.63,367.51a3.89,3.89,0,0,1-2.13.6c-2,0-2.79-1.05-2.79-3v-4.6h-1.38v-.9h1.38V357l1.1-.08v2.63h3.42v.9h-3.42V365c0,1.4.52,2.12,1.78,2.12a2.77,2.77,0,0,0,1.66-.52Z" style="fill: #111925"/>
      <path d="M1063.34,363.8a4.2,4.2,0,1,1-4.19-4.32A4,4,0,0,1,1063.34,363.8Zm-1.11,0a3.1,3.1,0,1,0-3.08,3.37A3.1,3.1,0,0,0,1062.23,363.8Z" style="fill: #111925"/>
      <path d="M1069.93,359.61l-.27,1.08a1.71,1.71,0,0,0-.74-.14c-1.26,0-2.21,1.44-2.21,2.89V368h-1.1v-8.43l.77,0a15.8,15.8,0,0,1,.17,2.14h0a2.63,2.63,0,0,1,2.4-2.2A3.28,3.28,0,0,1,1069.93,359.61Z" style="fill: #111925"/>
      <path d="M1078.12,362.33a3,3,0,0,1,0,.54l-1,.07a1.8,1.8,0,0,0,0-.45,2.1,2.1,0,0,0-2.34-2.09c-1.8,0-3,1.35-3,3.4a3.05,3.05,0,0,0,3.17,3.37,3.3,3.3,0,0,0,2.63-1.1l.65.69a4.24,4.24,0,0,1-3.31,1.33,4.31,4.31,0,0,1-.13-8.61C1076.81,359.48,1078.12,360.71,1078.12,362.33Z" style="fill: #111925"/>
      <path d="M1081,357.65a.84.84,0,1,1,0-1.68.84.84,0,1,1,0,1.68Zm-.58,1.92,1.1,0V368h-1.1Z" style="fill: #111925"/>
    </g>
    <g>
      <path d="M647.55,385.3a4.37,4.37,0,0,1,0,.72H641a3.05,3.05,0,0,0,3.21,3.15,3.1,3.1,0,0,0,2.5-1.1l.68.63a4.32,4.32,0,1,1-3.47-7.22A3.52,3.52,0,0,1,647.55,385.3Zm-6.53-.09h5.42v-.07a2.47,2.47,0,0,0-2.54-2.74A2.9,2.9,0,0,0,641,385.21Z" style="fill: #111925"/>
      <path d="M657.34,391.17c0,1.53-1.33,2.59-4.26,2.59s-4.25-.9-4.25-2.36a2,2,0,0,1,1.55-1.9,1.44,1.44,0,0,1-1-1.39,1.48,1.48,0,0,1,1.23-1.37,2.83,2.83,0,0,1-1-2.25c0-1.8,1.37-3,3.42-3a3.81,3.81,0,0,1,2.38.72c.68-.23,1-.93,1-1.83l1,.2a2,2,0,0,1-1.46,2.07,2.83,2.83,0,0,1,.63,1.85c0,1.8-1.37,3-3.44,3a4.1,4.1,0,0,1-1.62-.31c-.63.09-1,.36-1,.79,0,.71.76.87,2,.87h1.84C656.17,388.85,657.34,389.69,657.34,391.17Zm-1.08,0c0-1-.75-1.39-2.21-1.39h-1.94c-1.52,0-2.2.63-2.2,1.48,0,1,1.06,1.57,3.17,1.57S656.26,392.3,656.26,391.17Zm-5.56-6.68a2.35,2.35,0,1,0,2.34-2.11A2.1,2.1,0,0,0,650.7,384.49Z" style="fill: #111925"/>
      <path d="M666.2,385.3a4.37,4.37,0,0,1-.05.72h-6.52a3,3,0,0,0,3.2,3.15,3.11,3.11,0,0,0,2.51-1.1l.68.63a4.32,4.32,0,1,1-3.48-7.22A3.53,3.53,0,0,1,666.2,385.3Zm-6.54-.09h5.42v-.07a2.47,2.47,0,0,0-2.54-2.74A2.91,2.91,0,0,0,659.66,385.21Z" style="fill: #111925"/>
      <path d="M673.72,389.51a3.84,3.84,0,0,1-2.12.6c-2,0-2.79-1.05-2.79-3v-4.6h-1.39v-.9h1.39V379l1.1-.08v2.63h3.42v.9h-3.42V387c0,1.4.52,2.12,1.78,2.12a2.77,2.77,0,0,0,1.66-.52Z" style="fill: #111925"/>
      <path d="M686.74,385.3a3.66,3.66,0,0,1-.06.72h-6.51a3.26,3.26,0,0,0,5.7,2.05l.69.63a4.33,4.33,0,0,1-7.51-2.9,4,4,0,0,1,4-4.32A3.53,3.53,0,0,1,686.74,385.3Zm-6.54-.09h5.42v-.07a2.47,2.47,0,0,0-2.54-2.74A2.91,2.91,0,0,0,680.2,385.21Z" style="fill: #111925"/>
      <path d="M693.29,381.61l-.27,1.08a1.75,1.75,0,0,0-.74-.14c-1.26,0-2.21,1.44-2.21,2.89V390H689v-8.43l.77,0a15.67,15.67,0,0,1,.16,2.14h0a2.62,2.62,0,0,1,2.39-2.2A3.42,3.42,0,0,1,693.29,381.61Z" style="fill: #111925"/>
      <path d="M702.36,385.8a4.2,4.2,0,1,1-4.19-4.32A4,4,0,0,1,702.36,385.8Zm-1.11,0a3.1,3.1,0,1,0-3.08,3.37A3.1,3.1,0,0,0,701.25,385.8Z" style="fill: #111925"/>
      <path d="M709.45,384c0-1-.9-1.59-2.12-1.59s-2,.58-2,1.44c0,2.24,5.24.79,5.27,3.93,0,1.46-1.3,2.32-3.29,2.32a4.93,4.93,0,0,1-3.48-1.24l.69-.72a4.2,4.2,0,0,0,2.79,1c1.42,0,2.19-.56,2.19-1.4,0-2.11-5.29-.89-5.29-3.95,0-1.35,1.24-2.34,3.11-2.34s3.1.92,3.1,2.31a3.09,3.09,0,0,1-.05.54l-1,.09A2,2,0,0,0,709.45,384Z" style="fill: #111925"/>
      <path d="M718.9,380.22v1.35H722v.9h-3.1V390h-1.1v-7.53h-1.26v-.9h1.26v-1.33a2.78,2.78,0,0,1,2.85-3,3.54,3.54,0,0,1,1.87.52l-.41.86a2.31,2.31,0,0,0-1.37-.46A1.84,1.84,0,0,0,718.9,380.22Z" style="fill: #111925"/>
      <path d="M730.82,390a3,3,0,0,1-.67.09,1.14,1.14,0,0,1-1.27-1.26v-.43h0a3.31,3.31,0,0,1-3.19,1.69c-1.78,0-2.77-.88-2.77-2.23,0-1.89,1.94-2.54,5.4-2.58l.52,0v-.64a2.13,2.13,0,0,0-2.39-2.22c-1.37,0-2.27.65-2.27,1.73a1.13,1.13,0,0,0,.09.49l-1,.18a2.37,2.37,0,0,1-.11-.72c0-1.53,1.32-2.6,3.34-2.6s3.47,1.21,3.47,3.12v3.83c0,.49.16.69.56.69a1.37,1.37,0,0,0,.31,0Zm-2-2.84v-1.1l-.52,0c-2.83,0-4.28.5-4.28,1.74,0,.83.61,1.35,1.89,1.35A2.69,2.69,0,0,0,728.8,387.16Z" style="fill: #111925"/>
      <path d="M740,381.57V390l-.79,0a15.74,15.74,0,0,1-.16-2h0a3.18,3.18,0,0,1-3,2.09,3,3,0,0,1-3.19-3.33v-5.19h1.1v5.19a2.14,2.14,0,0,0,2.25,2.41,2.93,2.93,0,0,0,2.77-3v-4.61Z" style="fill: #111925"/>
      <path d="M749.75,384.33a3,3,0,0,1,0,.54l-1,.07a1.8,1.8,0,0,0,0-.45,2.1,2.1,0,0,0-2.34-2.09c-1.8,0-3,1.35-3,3.4a3.05,3.05,0,0,0,3.17,3.37,3.28,3.28,0,0,0,2.63-1.1l.65.69a4.22,4.22,0,0,1-3.31,1.33,4.31,4.31,0,0,1-.13-8.61C748.44,381.48,749.75,382.71,749.75,384.33Z" style="fill: #111925"/>
      <path d="M752.63,379.65a.84.84,0,1,1,0-1.68.84.84,0,1,1,0,1.68Zm-.57,1.92,1.09,0V390h-1.09Z" style="fill: #111925"/>
      <path d="M764.19,385.79c0,2.59-1.6,4.3-4,4.3a3.26,3.26,0,0,1-3.27-2.2,19,19,0,0,1-.17,2.11H756V377.32h1.1v6a3.37,3.37,0,0,1,3.17-1.85C762.59,381.47,764.19,383.19,764.19,385.79Zm-1.1,0c0-2-1.19-3.39-3-3.39a3,3,0,0,0-3,3v.78a3,3,0,0,0,3,3C761.92,389.15,763.09,387.8,763.09,385.79Z" style="fill: #111925"/>
      <path d="M773.59,381.57V390l-.8,0a17.76,17.76,0,0,1-.16-2h0a3.17,3.17,0,0,1-3,2.09,3,3,0,0,1-3.19-3.33v-5.19h1.1v5.19a2.15,2.15,0,0,0,2.25,2.41,2.94,2.94,0,0,0,2.78-3v-4.61Z" style="fill: #111925"/>
      <path d="M781.22,384c0-1-.9-1.59-2.13-1.59s-2,.58-2,1.44c0,2.24,5.24.79,5.28,3.93,0,1.46-1.3,2.32-3.3,2.32a4.9,4.9,0,0,1-3.47-1.24l.68-.72a4.2,4.2,0,0,0,2.79,1c1.42,0,2.2-.56,2.2-1.4,0-2.11-5.3-.89-5.3-3.95,0-1.35,1.25-2.34,3.12-2.34s3.1.92,3.1,2.31a2.59,2.59,0,0,1-.06.54l-1,.09A1.91,1.91,0,0,0,781.22,384Z" style="fill: #111925"/>
      <path d="M794.18,389.51a3.89,3.89,0,0,1-2.13.6c-2,0-2.79-1.05-2.79-3v-4.6h-1.38v-.9h1.38V379l1.1-.08v2.63h3.42v.9h-3.42V387c0,1.4.52,2.12,1.78,2.12a2.77,2.77,0,0,0,1.66-.52Z" style="fill: #111925"/>
      <path d="M796.34,379.65a.84.84,0,1,1,0-1.68.84.84,0,1,1,0,1.68Zm-.58,1.92,1.1,0V390h-1.1Z" style="fill: #111925"/>
      <path d="M807.12,384.83V390H806v-5.17a2.23,2.23,0,0,0-2.34-2.43,3,3,0,0,0-2.9,3V390h-1.1v-8.43l.78,0a15.67,15.67,0,0,1,.16,2.14h0a3.32,3.32,0,0,1,3.18-2.2A3.12,3.12,0,0,1,807.12,384.83Z" style="fill: #111925"/>
      <path d="M816.8,384.33a3,3,0,0,1,0,.54l-1,.07a1.8,1.8,0,0,0,0-.45,2.1,2.1,0,0,0-2.34-2.09c-1.8,0-3,1.35-3,3.4a3.05,3.05,0,0,0,3.17,3.37,3.28,3.28,0,0,0,2.63-1.1l.65.69a4.24,4.24,0,0,1-3.31,1.33,4.31,4.31,0,0,1-.13-8.61C815.49,381.48,816.8,382.71,816.8,384.33Z" style="fill: #111925"/>
      <path d="M819.68,379.65a.84.84,0,1,1,0-1.68.84.84,0,1,1,0,1.68Zm-.57,1.92,1.09,0V390h-1.09Z" style="fill: #111925"/>
      <path d="M830.7,377.32V390l-.79,0a17.37,17.37,0,0,1-.13-2.16h0a3.37,3.37,0,0,1-3.31,2.21c-2.34,0-4-1.73-4-4.32s1.62-4.3,4-4.3a3.35,3.35,0,0,1,3.12,1.76v-5.91Zm-1.08,8.83v-.76a3,3,0,0,0-3.06-3c-1.78,0-2.95,1.35-2.95,3.37s1.18,3.38,3,3.38A3,3,0,0,0,829.62,386.15Z" style="fill: #111925"/>
      <path d="M840.63,381.57V390l-.79,0a15.74,15.74,0,0,1-.16-2h0a3.17,3.17,0,0,1-3,2.09,3,3,0,0,1-3.19-3.33v-5.19h1.1v5.19a2.14,2.14,0,0,0,2.25,2.41,2.93,2.93,0,0,0,2.77-3v-4.61Z" style="fill: #111925"/>
      <path d="M850.88,384.83V390h-1.1v-5.17a2.23,2.23,0,0,0-2.34-2.43,3,3,0,0,0-2.9,3V390h-1.1v-8.43l.77,0a15.8,15.8,0,0,1,.17,2.14h0a3.33,3.33,0,0,1,3.19-2.2A3.12,3.12,0,0,1,850.88,384.83Z" style="fill: #111925"/>
      <path d="M858.85,389.51a3.88,3.88,0,0,1-2.12.6c-2,0-2.79-1.05-2.79-3v-4.6h-1.39v-.9h1.39V379l1.09-.08v2.63h3.42v.9H855V387c0,1.4.53,2.12,1.79,2.12a2.76,2.76,0,0,0,1.65-.52Z" style="fill: #111925"/>
      <path d="M860.92,388.47a.82.82,0,0,1,.81.83.81.81,0,0,1-.81.81.82.82,0,0,1-.83-.81A.84.84,0,0,1,860.92,388.47Z" style="fill: #111925"/>
      <path d="M877.17,384.09c0,3.91-2.07,5.91-5.34,5.91H868V378.19h3.2C874.91,378.19,877.17,380.38,877.17,384.09Zm-1.13,0c0-3.22-1.85-4.93-4.88-4.93h-2.09V389h2.74C874.37,389,876,387.33,876,384.09Z" style="fill: #111925"/>
      <path d="M886.68,381.57V390l-.79,0a16,16,0,0,1-.17-2h0a3.18,3.18,0,0,1-3.05,2.09,3,3,0,0,1-3.18-3.33v-5.19h1.09v5.19a2.15,2.15,0,0,0,2.26,2.41,2.94,2.94,0,0,0,2.77-3v-4.61Z" style="fill: #111925"/>
      <path d="M890.1,379.65a.84.84,0,1,1,0-1.68.84.84,0,1,1,0,1.68Zm-.58,1.92,1.1,0V390h-1.1Z" style="fill: #111925"/>
      <path d="M898.27,384c0-1-.9-1.59-2.13-1.59s-2,.58-2,1.44c0,2.24,5.24.79,5.28,3.93,0,1.46-1.3,2.32-3.3,2.32a4.9,4.9,0,0,1-3.47-1.24l.68-.72a4.25,4.25,0,0,0,2.79,1c1.42,0,2.2-.56,2.2-1.4,0-2.11-5.29-.89-5.29-3.95,0-1.35,1.24-2.34,3.11-2.34s3.1.92,3.1,2.31a2.59,2.59,0,0,1-.06.54l-1,.09A1.91,1.91,0,0,0,898.27,384Z" style="fill: #111925"/>
      <path d="M906.08,377.29h1.08V390h-1.08Z" style="fill: #111925"/>
      <path d="M917.15,385.3a4.37,4.37,0,0,1,0,.72h-6.52a3,3,0,0,0,3.2,3.15,3.11,3.11,0,0,0,2.51-1.1l.68.63a4.32,4.32,0,1,1-3.47-7.22A3.53,3.53,0,0,1,917.15,385.3Zm-6.53-.09H916v-.07a2.47,2.47,0,0,0-2.54-2.74A2.9,2.9,0,0,0,910.62,385.21Z" style="fill: #111925"/>
      <path d="M927.23,385.8a4.2,4.2,0,1,1-4.19-4.32A4,4,0,0,1,927.23,385.8Zm-1.11,0a3.1,3.1,0,1,0-3.08,3.37A3.1,3.1,0,0,0,926.12,385.8Z" style="fill: #111925"/>
      <path d="M929.73,388.47a.82.82,0,0,1,.81.83.81.81,0,0,1-.81.81.82.82,0,0,1-.83-.81A.84.84,0,0,1,929.73,388.47Z" style="fill: #111925"/>
    </g>
  </g>
  <g style="clip-path: url(#b)">
    <g>
      <path d="M13.49,18.45l-2.58.27c0-.93-.85-2.21-3.14-2.21s-3.95,1.26-3.95,3.42c0,2.43,2.09,3.41,4.34,3.41A5.6,5.6,0,0,0,12,21.91l1.64,1.16A7.67,7.67,0,0,1,8.1,25C3.88,25,1,23.09,1,19.93s2.79-5.08,6.7-5.08C12,14.85,13.47,17,13.49,18.45Z" style="fill: #27897f"/>
      <path d="M25.69,21.35c0,2.14-2.14,3.63-5.39,3.63s-5.39-1.49-5.39-3.63,2.16-3.65,5.39-3.65S25.69,19.22,25.69,21.35Zm-2.7,0c0-1.26-1-2.15-2.69-2.15s-2.68.89-2.68,2.15,1,2.13,2.68,2.13S23,22.6,23,21.35Z" style="fill: #27897f"/>
      <path d="M27.77,14.27h2.64V24.89H27.77Z" style="fill: #27897f"/>
      <path d="M43.27,21.35c0,2.14-2.14,3.63-5.39,3.63s-5.4-1.49-5.4-3.63,2.16-3.65,5.4-3.65S43.27,19.22,43.27,21.35Zm-2.71,0c0-1.26-1.05-2.15-2.68-2.15s-2.69.89-2.69,2.15,1.05,2.13,2.69,2.13S40.56,22.6,40.56,21.35Z" style="fill: #27897f"/>
      <path d="M52,17.88l-.68,1.79a2.41,2.41,0,0,0-1.11-.23A2,2,0,0,0,48,21.37v3.52H45.32v-7.1l2-.06a5.63,5.63,0,0,1,.33,1.59h.07a2.76,2.76,0,0,1,2.77-1.62A5.51,5.51,0,0,1,52,17.88Z" style="fill: #27897f"/>
    </g>
  </g>
  <g style="clip-path: url(#c)">
    <g>
      <path d="M5.4,276.1H.3v-2.6H13.67v2.6H8.55V290H5.4Z" style="fill: #4a748a"/>
      <path d="M15.17,295.22a5,5,0,0,1-2.1-.42l.48-2.38a3.25,3.25,0,0,0,1.37.33A2.1,2.1,0,0,0,17,291.22l.32-.77L12.4,278.2h3.3l2.67,7.38a6.61,6.61,0,0,1,.38,1.5h.05a8.68,8.68,0,0,1,.4-1.5l2.62-7.38H24.9l-5.2,13.52C19,293.7,17.62,295.22,15.17,295.22Z" style="fill: #4a748a"/>
      <path d="M38.87,284.13c0,3.75-2.32,6-5.52,6a4.24,4.24,0,0,1-3.65-1.77v6.72H26.65V278.2l2.35-.1a12.71,12.71,0,0,1,.37,2.48h.05a4.18,4.18,0,0,1,4.1-2.53C36.75,278.05,38.87,280.55,38.87,284.13Zm-3.1,0c0-2.13-1.17-3.53-3-3.53a3.09,3.09,0,0,0-3.05,3.15v.7a3.09,3.09,0,0,0,3.15,3.15C34.62,287.6,35.77,286.23,35.77,284.13Z" style="fill: #4a748a"/>
      <path d="M50.4,286.38,52,288.05a6.14,6.14,0,0,1-5,2.1c-3.93,0-6.3-2.47-6.3-6a5.72,5.72,0,0,1,6-6.08c3.45,0,5.43,2.38,5.43,5.55a5.17,5.17,0,0,1-.13,1.23h-8.2a3.32,3.32,0,0,0,3.55,2.95A3.85,3.85,0,0,0,50.4,286.38Zm-6.68-3.28h5.45a2.5,2.5,0,0,0-2.55-2.67A2.9,2.9,0,0,0,43.72,283.1Z" style="fill: #4a748a"/>
    </g>
  </g>
  <g style="clip-path: url(#d)">
    <g>
      <path d="M605.17,8c-1.65,0-2.67.77-2.67,2,0,3.18,8.72,1.45,8.72,7.63,0,2.6-2.17,4.54-6.15,4.54A10.08,10.08,0,0,1,598.6,20l1.87-2.3a7.19,7.19,0,0,0,4.68,1.9c1.9,0,2.92-.73,2.92-1.9,0-3.65-8.72-1.78-8.72-7.53,0-2.75,2.3-4.82,5.75-4.82,4.42,0,5.67,2.65,6,4.25l-2.85.7A2.83,2.83,0,0,0,605.17,8Z" style="fill: #4a748a"/>
      <path d="M615.27,8.33a1.93,1.93,0,1,1,0-3.85,1.93,1.93,0,1,1,0,3.85Zm-1.55,1.87,3-.1V22h-3Z" style="fill: #4a748a"/>
      <path d="M619.1,19.75l6-6.55a6.08,6.08,0,0,1,.6-.65l0-.07a7.6,7.6,0,0,1-1.25.07h-5.15V10.2h9.85v2.25l-5.63,6.33c-.45.5-.62.67-.82.87l0,.08a6.56,6.56,0,0,1,1.25-.08h5.38V22H619.1Z" style="fill: #4a748a"/>
      <path d="M640.5,18.38l1.55,1.67a6.14,6.14,0,0,1-5,2.1c-3.93,0-6.3-2.47-6.3-6a5.72,5.72,0,0,1,6-6.08c3.45,0,5.43,2.38,5.43,5.55a5.17,5.17,0,0,1-.13,1.23h-8.2a3.32,3.32,0,0,0,3.55,3A3.85,3.85,0,0,0,640.5,18.38Zm-6.68-3.28h5.45a2.5,2.5,0,0,0-2.55-2.67A2.9,2.9,0,0,0,633.82,15.1Z" style="fill: #4a748a"/>
    </g>
  </g>
  <g style="clip-path: url(#e)">
    <g style="clip-path: url(#f)">
      <rect x="19" y="72" width="211" height="99" style="fill: #93adb5"/>
    </g>
  </g>
  <g style="clip-path: url(#g)">
    <g style="clip-path: url(#f)">
      <rect x="371" y="72" width="112" height="99" style="fill: #b00"/>
    </g>
  </g>
  <g style="clip-path: url(#i)">
    <g style="clip-path: url(#f)">
      <rect x="473" y="72" width="61" height="99" style="fill: #111925"/>
    </g>
  </g>
  <g style="clip-path: url(#k)">
    <g style="clip-path: url(#f)">
      <rect x="220" y="72" width="161" height="99" style="fill: #dadada"/>
    </g>
  </g>
  <g style="clip-path: url(#m)">
    <g>
      <path d="M65.48,385.11c0,8.21-5.84,12.89-16.28,12.89H29.33V350.48H47.26c10.08,0,16.13,4.6,16.13,12.81,0,7.06-4.9,9.29-7.64,9.72v.22A11.72,11.72,0,0,1,65.48,385.11Zm-20-27.58h-7.2v13h7.85c5.33,0,8.13-2.66,8.13-6.41C54.31,359.84,51.51,357.53,45.53,357.53Zm10.8,26.57c0-4.89-4-7.27-9.29-7.27H38.33v14.11h9.36C52.73,390.94,56.33,388.78,56.33,384.1Z" style="fill: #111925"/>
      <path d="M105.29,397.86a19.28,19.28,0,0,1-4.32.5c-4.39,0-6.84-1.73-7.42-5.4-1,1.94-3.88,5.47-11.16,5.47s-11.52-3.74-11.52-9.36c0-8.14,8.28-10.51,21.67-10.73h.58v-1.65c0-3.82-2.3-6.34-6.84-6.34-4.18,0-6.48,1.66-6.48,4.46a3.4,3.4,0,0,0,.29,1.37l-7.78,1.3a11.7,11.7,0,0,1-.43-3.17c0-6.41,5.54-10.73,14.69-10.73,9.72,0,15.12,5,15.12,13.32v12c0,1.72.58,2.3,2,2.3a6.49,6.49,0,0,0,1.22-.14ZM93.12,386.05v-2.88h-.58c-9.21.14-13.1,1.58-13.1,5,0,2.31,1.87,3.61,5.26,3.61C90,391.74,93.12,388.93,93.12,386.05Z" style="fill: #111925"/>
      <path d="M130.49,374.6c0-3-2.38-4.83-6.12-4.83s-5.55,1.66-5.55,4c0,7.13,20,1.66,20.17,14.69,0,6.12-5.62,10-14.62,10-9.65,0-14.26-4.1-15.48-5.11l4.39-5.4c.93.86,5.76,4.1,10.87,4.1,4,0,5.91-1.29,5.91-3.24,0-5.9-19.59-2.23-19.59-14.69,0-6.33,5.62-10.51,14.19-10.51,8.13,0,13.75,4,13.75,9.58a8.48,8.48,0,0,1-.29,2.3l-7.78.51A6.13,6.13,0,0,0,130.49,374.6Z" style="fill: #111925"/>
      <path d="M150.43,358.61a5.55,5.55,0,1,1,0-11.09,5.55,5.55,0,1,1,0,11.09ZM146,364l8.78-.29V398H146Z" style="fill: #111925"/>
      <path d="M193.34,375.46a12,12,0,0,1-.21,2.38l-7.85.5a6.92,6.92,0,0,0,.14-1.58c0-3.31-2.23-6-6.4-6-5.12,0-8.5,4-8.5,10.08s3.31,10.37,9.58,10.37a12.14,12.14,0,0,0,9.64-4.1l4.47,5.47c-2.45,3.1-7.49,5.83-14.62,5.83-11.16,0-18-7.13-18-17.28,0-10.37,7.13-17.57,17.5-17.57C187.94,363.58,193.34,368.84,193.34,375.46Z" style="fill: #111925"/>
    </g>
    <g>
      <path d="M231.15,355.8c-5.55,0-9.15,2.67-9.15,7.2,0,10.09,26,5,26,22.76,0,7.63-6.7,12.67-16.93,12.67-8.49,0-14.61-3.17-17.49-5.61l4.1-5.12a19.39,19.39,0,0,0,13.39,5c6.56,0,10.44-2.66,10.44-6.91,0-12.67-26.13-6.48-26.13-22.68,0-7.78,6.48-13,15.77-13,12.89,0,15.69,8.21,16.56,11.6l-6.12,1.51C241.15,360.63,238.56,355.8,231.15,355.8Z" style="fill: #111925"/>
      <path d="M287.45,397.93a15.61,15.61,0,0,1-3.46.43c-3.52,0-6.12-1.66-6.12-5.62v-.07h-.14c-.94,1.73-3.89,5.76-11.81,5.76-7.49,0-11.52-3.89-11.52-9.43,0-7.42,7.06-10.37,22-10.37h1v-2.16c0-4.61-2.81-7.56-8.42-7.56-4.83,0-7.78,1.94-7.78,5.47a3.81,3.81,0,0,0,.36,1.73l-6,1a10.41,10.41,0,0,1-.43-2.95c0-6.2,5.33-10.59,14-10.59,9.22,0,14.62,5,14.62,12.82v13.75c0,1.87.5,2.59,2.09,2.59a5.86,5.86,0,0,0,1.22-.14Zm-10-11.67V383h-1c-11.59,0-15.55,2.09-15.55,5.84,0,2.66,2,4.24,6.34,4.24C273.84,393.1,277.44,389.43,277.44,386.26Z" style="fill: #111925"/>
      <path d="M325.68,377.19V398h-6.41V377.19c0-5-2.8-8.28-7.92-8.28-7.05,0-10.22,6.41-10.22,11.3V398h-6.34V364l4.47-.21a46.55,46.55,0,0,1,.86,7.92h.22a12.63,12.63,0,0,1,12.09-8.14C320.57,363.58,325.68,369.05,325.68,377.19Z" style="fill: #111925"/>
      <path d="M354.77,374.53c0-3.53-3.1-5.62-7.56-5.62-4.25,0-6.7,1.94-6.7,4.75,0,8,20.45,2.23,20.67,15.12.07,6.12-5.76,9.65-14,9.65s-12.75-3.53-14.69-5.11l3.89-4.32a17.14,17.14,0,0,0,10.87,4.1c5,0,7.49-1.8,7.49-4.39,0-7-20.67-2.52-20.67-15.12,0-5.62,5.33-10,13.32-10s13.32,4.18,13.32,9.79a9.83,9.83,0,0,1-.28,2.38l-5.84.43A6.24,6.24,0,0,0,354.77,374.53Z" style="fill: #111925"/>
    </g>
  </g>
  <rect width="1100" height="403" style="fill: none"/>
</svg>
