<?xml version="1.0" encoding="UTF-8"?>
<svg width="254px" height="836px" viewBox="0 0 254 836" version="1.1" xmlns="http://www.w3.org/2000/svg" xmlns:xlink="http://www.w3.org/1999/xlink">
    <!-- Generator: Sketch 49.3 (51167) - http://www.bohemiancoding.com/sketch -->
    <title>Phone</title>
    <desc>Created with Sketch.</desc>
    <defs>
        <polygon id="path-1" points="0 0 254 0 254 836 0 836"></polygon>
        <linearGradient x1="50%" y1="63.9225339%" x2="50%" y2="98.5503974%" id="linearGradient-3">
            <stop stop-color="#F6F6F6" stop-opacity="0" offset="0%"></stop>
            <stop stop-color="#FFFFFF" offset="100%"></stop>
        </linearGradient>
        <polygon id="path-4" points="0 0 254 0 254 836 0 836"></polygon>
    </defs>
    <g id="Page-1" stroke="none" stroke-width="1" fill="none" fill-rule="evenodd">
        <g id="Process" transform="translate(-703.000000, -3220.000000)">
            <g id="wireframeAnimation" transform="translate(492.000000, 3220.000000)">
                <g id="Phone" transform="translate(211.000000, 0.000000)">
                    <mask id="mask-2" fill="white">
                        <use xlink:href="#path-1"></use>
                    </mask>
                    <use id="Mask" fill="#EAEAEA" xlink:href="#path-1"></use>
                    <g mask="url(#mask-2)">
                        <g transform="translate(0.000000, 58.000000)">
                            <g id="Button-/-Small-/-menu" fill="none" transform="translate(226.906667, 0.000000)" fill-rule="evenodd">
                                <path d="M17,1.75909091 C17,2.73010909 16.3996316,3.51818182 15.6578947,3.51818182 L1.34210526,3.51818182 C0.600368421,3.51818182 0,2.73010909 0,1.75909091 C0,0.788072727 0.600368421,0 1.34210526,0 L15.6578947,0 C16.4005263,0 17,0.788072727 17,1.75909091 Z M17,8.79545455 C17,9.76647273 16.3996316,10.5545455 15.6578947,10.5545455 L1.34210526,10.5545455 C0.600368421,10.5545455 0,9.76647273 0,8.79545455 C0,7.82443636 0.600368421,7.03636364 1.34210526,7.03636364 L15.6578947,7.03636364 C16.4005263,7.03636364 17,7.82443636 17,8.79545455 Z M17,15.8318182 C17,16.8028364 16.3996316,17.5909091 15.6578947,17.5909091 L1.34210526,17.5909091 C0.600368421,17.5909091 0,16.8028364 0,15.8318182 C0,14.8608 0.600368421,14.0727273 1.34210526,14.0727273 L15.6578947,14.0727273 C16.4005263,14.0727273 17,14.8608 17,15.8318182 Z" id="menu" fill="#93ADB5"></path>
                            </g>
                            <path d="M11.0066667,2.9960291 C11.0066667,1.34136792 12.3495509,0 14.0144951,0 L24.9321716,0 C26.5933493,0 27.94,1.33638978 27.94,2.9960291 L27.94,14.7839709 C27.94,16.4386321 26.5971158,17.78 24.9321716,17.78 L14.0144951,17.78 C12.3533173,17.78 11.0066667,16.4436102 11.0066667,14.7839709 L11.0066667,2.9960291 Z" id="telephone" fill="#93ADB5" fill-rule="evenodd"></path>
                            <g id="Text-/-Medium-/-texts-left" fill="none" transform="translate(30.480000, 141.393333)" fill-rule="evenodd">
                                <path d="M2.99596057,69.3134328 L112.329621,69.3134328 C113.990539,69.3134328 115.325581,70.657696 115.325581,72.3159285 L115.325581,82.9975043 C115.325581,84.6626752 113.984244,86 112.329621,86 L2.99596057,86 C1.33504272,86 0,84.6557369 0,82.9975043 L0,72.3159285 C0,70.6507576 1.34133723,69.3134328 2.99596057,69.3134328 Z M3.00208978,34.6567164 L148.99791,34.6567164 C150.662833,34.6567164 152,36.0009795 152,37.6592121 L152,48.3407879 C152,50.0059588 150.655919,51.3432836 148.99791,51.3432836 L3.00208978,51.3432836 C1.33716678,51.3432836 0,49.9990205 0,48.3407879 L0,37.6592121 C0,35.9940412 1.34408138,34.6567164 3.00208978,34.6567164 Z M3.00423478,0 L136.195765,0 C137.855834,0 139.2,1.34426312 139.2,3.00249571 L139.2,13.6840715 C139.2,15.3492424 137.854958,16.6865672 136.195765,16.6865672 L3.00423478,16.6865672 C1.34416645,16.6865672 0,15.342304 0,13.6840715 L0,3.00249571 C0,1.33732481 1.34504173,0 3.00423478,0 Z" id="paragraph" fill="#93ADB5"></path>
                            </g>
                            <path d="M33.4732679,59.2666667 L179.040065,59.2666667 C180.700096,59.2666667 182.033333,60.606103 182.033333,62.2583814 L182.033333,108.768285 C182.033333,110.409653 180.693202,111.76 179.040065,111.76 L33.4732679,111.76 C31.8132374,111.76 30.48,110.420564 30.48,108.768285 L30.48,62.2583814 C30.48,60.6170135 31.8201317,59.2666667 33.4732679,59.2666667 Z" id="text" fill="#93ADB5" fill-rule="evenodd"></path>
                            <g id="project-mobile" fill="none" transform="translate(0.000000, 340.360000)">
                                <g id="IMG">
                                    <rect fill="#93ADB5" fill-rule="evenodd" x="0" y="0" width="254" height="205" rx="3"></rect>
                                    <path d="M120.368235,95.8333306 C120.368235,93.6249964 118.585948,91.833329 116.389175,91.833329 C114.192403,91.833329 112.410116,93.6249964 112.410116,95.8333306 C112.410116,98.0416648 114.192403,99.8333322 116.389175,99.8333322 C118.585948,99.8333322 120.368235,98.0416648 120.368235,95.8333306 L120.368235,95.8333306 Z M141.589884,103.833334 L132.968589,95.1666637 L122.357764,105.833335 L119.041882,102.5 L112.410116,109.166669 L112.410116,113.166671 L141.589884,113.166671 L141.589884,103.833334 Z M146.895296,89.8333281 C146.895296,87.9999941 145.403149,86.4999934 143.579413,86.4999934 L110.420587,86.4999934 C108.596851,86.4999934 107.104704,87.9999941 107.104704,89.8333281 L107.104704,115.166672 C107.104704,117.000006 108.596851,118.500007 110.420587,118.500007 L143.579413,118.500007 C145.403149,118.500007 146.895296,117.000006 146.895296,115.166672 L146.895296,89.8333281 Z" id="photo-icon" stroke="#FFFFFF" stroke-width="1"></path>
                                </g>
                                <g id="Text-/-Medium-/-texts-left" transform="translate(30.667965, 312.794649)" fill="#93ADB5" fill-rule="evenodd">
                                    <path d="M2.99141309,69.3134328 L143.441726,69.3134328 C145.099844,69.3134328 146.43314,70.657696 146.43314,72.3159285 L146.43314,82.9975043 C146.43314,84.6626752 145.093838,86 143.441726,86 L2.99141309,86 C1.33329582,86 0,84.6557369 0,82.9975043 L0,72.3159285 C0,70.6507576 1.33930126,69.3134328 2.99141309,69.3134328 Z M2.99283586,34.6567164 L190.007164,34.6567164 C191.664493,34.6567164 193,36.0009795 193,37.6592121 L193,48.3407879 C193,50.0059588 191.660062,51.3432836 190.007164,51.3432836 L2.99283586,51.3432836 C1.33550726,51.3432836 0,49.9990205 0,48.3407879 L0,37.6592121 C0,35.9940412 1.33993826,34.6567164 2.99283586,34.6567164 Z M2.993621,0 L173.753747,0 C175.401231,0 176.747368,1.34426312 176.747368,3.00249571 L176.747368,13.6840715 C176.747368,15.3492424 175.407079,16.6865672 173.753747,16.6865672 L2.993621,16.6865672 C1.34613693,16.6865672 0,15.342304 0,13.6840715 L0,3.00249571 C0,1.33732481 1.34028977,0 2.993621,0 Z" id="paragraph"></path>
                                </g>
                                <rect id="text-copy" fill="#93ADB5" fill-rule="evenodd" x="30.6679649" y="238.065552" width="126.629017" height="52.3103679" rx="3"></rect>
                            </g>
                        </g>
                    </g>
                    <g id="Phone-head" mask="url(#mask-2)">
                        <path d="M21.9998015,0 L232.000199,0 C244.159729,0 254,9.8497355 254,22 L254,44 L0,44 L0,22 C0,9.84706399 9.84964662,0 21.9998015,0 Z" id="background" fill="#DADADA"></path>
                        <circle id="object" fill="#FFFFFF" cx="126.5" cy="14.5" r="3.5"></circle>
                        <path d="M97.004723,25 L155.995277,25 C157.657303,25 159,26.3431458 159,28 C159,29.6534829 157.65474,31 155.995277,31 L97.004723,31 C95.3426972,31 94,29.6568542 94,28 C94,26.3465171 95.3452603,25 97.004723,25 Z" id="search" fill="#FFFFFF" opacity="0.85"></path>
                    </g>
                    <mask id="mask-5" fill="white">
                        <use xlink:href="#path-4"></use>
                    </mask>
                    <use id="Mask" fill="url(#linearGradient-3)" xlink:href="#path-4"></use>
                </g>
            </g>
        </g>
    </g>
</svg>