<?xml version="1.0" encoding="UTF-8"?>
<svg width="424px" height="874px" viewBox="0 0 424 874" version="1.1" xmlns="http://www.w3.org/2000/svg" xmlns:xlink="http://www.w3.org/1999/xlink">
    <!-- Generator: Sketch 49.3 (51167) - http://www.bohemiancoding.com/sketch -->
    <title>webframe_browser</title>
    <desc>Created with Sketch.</desc>
    <defs>
        <polygon id="path-1" points="0 33 424 33 424 874 0 874"></polygon>
        <rect id="path-3" x="0" y="0" width="106" height="120" rx="3"></rect>
        <rect id="path-4" x="0" y="0" width="106" height="120" rx="3"></rect>
        <rect id="path-5" x="0" y="0" width="106" height="120" rx="3"></rect>
        <linearGradient x1="50%" y1="63.9225339%" x2="50%" y2="98.5503974%" id="linearGradient-6">
            <stop stop-color="#F6F6F6" stop-opacity="0" offset="0%"></stop>
            <stop stop-color="#FFFFFF" offset="100%"></stop>
        </linearGradient>
        <polygon id="path-7" points="0 33 424 33 424 874 0 874"></polygon>
    </defs>
    <g id="Page-1" stroke="none" stroke-width="1" fill="none" fill-rule="evenodd">
        <g id="Process" transform="translate(-492.000000, -3291.000000)">
            <g id="wireframeAnimation" transform="translate(492.000000, 3220.000000)">
                <g id="webframe_browser" transform="translate(0.000000, 71.000000)">
                    <g id="Browser">
                        <g>
                            <path d="M7.00555766,0 L416.994442,0 C420.860766,0 424,3.13131578 424,6.99398954 L424,33.4602457 L0,33.4602457 L0,6.99398954 C0,3.1328203 3.136495,0 7.00555766,0 Z" id="background" fill="#DADADA"></path>
                            <circle id="object" fill="#BB0000" cx="18" cy="15" r="6"></circle>
                            <path d="M33,21 C36.3137085,21 39,18.3137085 39,15 C39,11.6862915 36.3137085,9 33,9 C29.6862915,9 27,11.6862915 27,15 C27,18.3137085 29.6862915,21 33,21 Z" id="object" fill="#93ADB5"></path>
                            <circle id="object" fill="#93ADB5" cx="48" cy="15" r="6"></circle>
                            <path d="M72.9904953,9 L351.009505,9 C354.314294,9 357,11.6862915 357,15 C357,18.3069658 354.317964,21 351.009505,21 L72.9904953,21 C69.6857065,21 67,18.3137085 67,15 C67,11.6930342 69.6820361,9 72.9904953,9 Z" id="search" fill="#FFFFFF" opacity="0.85"></path>
                        </g>
                    </g>
                    <mask id="mask-2" fill="white">
                        <use xlink:href="#path-1"></use>
                    </mask>
                    <use id="Mask" fill="#D8D8D8" xlink:href="#path-1"></use>
                    <polygon id="Background" fill="#EAEAEA" mask="url(#mask-2)" points="0 33 424 33 424 874 0 874"></polygon>
                    <g id="Media-player/Minimal-version" mask="url(#mask-2)">
                        <g transform="translate(0.000000, 33.000000)">
                            <rect id="Rectangle-106" fill="#93ADB5" x="0" y="0" width="424" height="226"></rect>
                            <polygon id="Triangle-12" fill="#FFFFFF" points="203.3875 129.587197 203.3875 86.3683581 234.743868 107.977778"></polygon>
                        </g>
                    </g>
                    <g id="Text-/-Medium-/-texts-left" mask="url(#mask-2)" fill="#93ADB5">
                        <g transform="translate(103.583062, 201.461538)" id="paragraph">
                            <path d="M2.53171298,20.9552239 L65.7531707,20.9552239 C67.1566439,20.9552239 68.2848837,22.0845355 68.2848837,23.4776119 C68.2848837,24.8804007 67.1513972,26 65.7531707,26 L2.53171298,26 C1.12823983,26 0,24.8706884 0,23.4776119 C0,22.0748232 1.13348651,20.9552239 2.53171298,20.9552239 Z M2.52474815,10.4776119 L87.4752518,10.4776119 C88.8620675,10.4776119 90,11.6069235 90,13 C90,14.4027887 88.8696317,15.5223881 87.4752518,15.5223881 L2.52474815,15.5223881 C1.13793254,15.5223881 0,14.3930765 0,13 C0,11.5972113 1.13036825,10.4776119 2.52474815,10.4776119 Z M2.5230109,0 L79.8980417,0 C81.2872888,0 82.4210526,1.1293116 82.4210526,2.52238806 C82.4210526,3.92517679 81.2914622,5.04477612 79.8980417,5.04477612 L2.5230109,5.04477612 C1.13376385,5.04477612 0,3.91546452 0,2.52238806 C0,1.11959933 1.12959046,0 2.5230109,0 Z"></path>
                        </g>
                    </g>
                    <g id="Text-/-Medium-/-text-big-light" mask="url(#mask-2)" fill="#FFFFFF">
                        <g transform="translate(103.583062, 176.606557)" id="text">
                            <rect x="5.68434189e-14" y="0" width="90" height="17" rx="3"></rect>
                        </g>
                    </g>
                    <path d="M269.787339,270.745444 C269.787339,269.086405 271.130216,267.741488 272.785983,267.741488 L289.907233,267.741488 C291.563339,267.741488 292.905877,269.084981 292.905877,270.745444 L292.905877,275.78419 C292.905877,277.443229 291.563,278.788146 289.907233,278.788146 L272.785983,278.788146 C271.129878,278.788146 269.787339,277.444653 269.787339,275.78419 L269.787339,270.745444 Z M297.2984,270.745444 C297.2984,269.086405 298.641277,267.741488 300.297044,267.741488 L317.418294,267.741488 C319.074399,267.741488 320.416938,269.084981 320.416938,270.745444 L320.416938,275.78419 C320.416938,277.443229 319.074061,278.788146 317.418294,278.788146 L300.297044,278.788146 C298.640939,278.788146 297.2984,277.444653 297.2984,275.78419 L297.2984,270.745444 Z M241.813907,270.745444 C241.813907,269.086405 243.156784,267.741488 244.812552,267.741488 L261.933801,267.741488 C263.589907,267.741488 264.932446,269.084981 264.932446,270.745444 L264.932446,275.78419 C264.932446,277.443229 263.589569,278.788146 261.933801,278.788146 L244.812552,278.788146 C243.156446,278.788146 241.813907,277.444653 241.813907,275.78419 L241.813907,270.745444 Z M214.071661,270.745444 C214.071661,269.086405 215.414538,267.741488 217.070306,267.741488 L234.191555,267.741488 C235.847661,267.741488 237.1902,269.084981 237.1902,270.745444 L237.1902,275.78419 C237.1902,277.443229 235.847323,278.788146 234.191555,278.788146 L217.070306,278.788146 C215.4142,278.788146 214.071661,277.444653 214.071661,275.78419 L214.071661,270.745444 Z" id="navigation" fill="#93ADB5" mask="url(#mask-2)"></path>
                    <path d="M103.583062,270.745444 C103.583062,269.086405 104.923623,267.741488 106.588882,267.741488 L151.678219,267.741488 C153.338288,267.741488 154.684039,269.084981 154.684039,270.745444 L154.684039,275.78419 C154.684039,277.443229 153.343478,278.788146 151.678219,278.788146 L106.588882,278.788146 C104.928813,278.788146 103.583062,277.444653 103.583062,275.78419 L103.583062,270.745444 Z" id="telephone" fill="#93ADB5" mask="url(#mask-2)"></path>
                    <g id="project-block" mask="url(#mask-2)">
                        <g transform="translate(103.583062, 309.166456)">
                            <g id="Text-/-Medium-/-texts-left" transform="translate(127.429787, 40.652174)" fill-rule="evenodd">
                                <path d="M2.61419914,21.761194 L65.6706846,21.761194 C67.1140386,21.761194 68.2848837,22.9339407 68.2848837,24.380597 C68.2848837,25.8243097 67.1144669,27 65.6706846,27 L2.61419914,27 C1.17084511,27 0,25.8272533 0,24.380597 C0,22.9368843 1.17041682,21.761194 2.61419914,21.761194 Z M2.62057485,10.880597 L87.3794252,10.880597 C88.8291509,10.880597 90,12.0533437 90,13.5 C90,14.9437127 88.8267287,16.119403 87.3794252,16.119403 L2.62057485,16.119403 C1.17084911,16.119403 0,14.9466563 0,13.5 C0,12.0562873 1.17327132,10.880597 2.62057485,10.880597 Z M2.62584022,0 L79.7952124,0 C81.2559227,0 82.4210526,1.17274666 82.4210526,2.61940299 C82.4210526,4.06311565 81.2454239,5.23880597 79.7952124,5.23880597 L2.62584022,5.23880597 C1.16512991,5.23880597 0,4.06605931 0,2.61940299 C0,1.17569032 1.17562871,0 2.62584022,0 Z" id="paragraph" fill="#93ADB5"></path>
                            </g>
                            <g id="IMG">
                                <g>
                                    <use fill="#93ADB5" fill-rule="evenodd" xlink:href="#path-3"></use>
                                    <rect stroke="#B7BBC0" stroke-width="1" x="0.5" y="0.5" width="105" height="119" rx="3"></rect>
                                </g>
                                <path d="M46.3682346,53.3333306 C46.3682346,51.1249964 44.5859477,49.333329 42.3891754,49.333329 C40.1924031,49.333329 38.4101162,51.1249964 38.4101162,53.3333306 C38.4101162,55.5416648 40.1924031,57.3333322 42.3891754,57.3333322 C44.5859477,57.3333322 46.3682346,55.5416648 46.3682346,53.3333306 L46.3682346,53.3333306 Z M67.5898838,61.3333339 L58.9685888,52.6666637 L48.3577642,63.3333347 L45.0418816,60 L38.4101162,66.6666694 L38.4101162,70.666671 L67.5898838,70.666671 L67.5898838,61.3333339 Z M72.8952961,47.3333281 C72.8952961,45.4999941 71.4031489,43.9999934 69.5794134,43.9999934 L36.4205866,43.9999934 C34.5968511,43.9999934 33.1047039,45.4999941 33.1047039,47.3333281 L33.1047039,72.6666719 C33.1047039,74.5000059 34.5968511,76.0000066 36.4205866,76.0000066 L69.5794134,76.0000066 C71.4031489,76.0000066 72.8952961,74.5000059 72.8952961,72.6666719 L72.8952961,47.3333281 Z" id="photo-icon" stroke="#FFFFFF" stroke-width="1"></path>
                            </g>
                            <g id="Text-/-Medium-/-text-big" transform="translate(127.429787, 15.217391)" fill-rule="evenodd">
                                <rect id="text" fill="#93ADB5" x="5.68434189e-14" y="0" width="79" height="15" rx="3"></rect>
                            </g>
                            <g id="Text-/-Medium-/-text-small" transform="translate(127.429787, 78.695652)" fill-rule="evenodd">
                                <rect id="text" fill="#93ADB5" x="0" y="0" width="39.5266272" height="5" rx="2.5"></rect>
                            </g>
                        </g>
                    </g>
                    <g id="project-block" mask="url(#mask-2)">
                        <g transform="translate(103.583062, 472.933165)">
                            <g id="Text-/-Medium-/-texts-left" transform="translate(127.429787, 40.652174)" fill-rule="evenodd">
                                <path d="M2.61419914,21.761194 L65.6706846,21.761194 C67.1140386,21.761194 68.2848837,22.9339407 68.2848837,24.380597 C68.2848837,25.8243097 67.1144669,27 65.6706846,27 L2.61419914,27 C1.17084511,27 0,25.8272533 0,24.380597 C0,22.9368843 1.17041682,21.761194 2.61419914,21.761194 Z M2.62057485,10.880597 L87.3794252,10.880597 C88.8291509,10.880597 90,12.0533437 90,13.5 C90,14.9437127 88.8267287,16.119403 87.3794252,16.119403 L2.62057485,16.119403 C1.17084911,16.119403 0,14.9466563 0,13.5 C0,12.0562873 1.17327132,10.880597 2.62057485,10.880597 Z M2.62584022,0 L79.7952124,0 C81.2559227,0 82.4210526,1.17274666 82.4210526,2.61940299 C82.4210526,4.06311565 81.2454239,5.23880597 79.7952124,5.23880597 L2.62584022,5.23880597 C1.16512991,5.23880597 0,4.06605931 0,2.61940299 C0,1.17569032 1.17562871,0 2.62584022,0 Z" id="paragraph" fill="#93ADB5"></path>
                            </g>
                            <g id="IMG">
                                <g>
                                    <use fill="#93ADB5" fill-rule="evenodd" xlink:href="#path-4"></use>
                                    <rect stroke="#B7BBC0" stroke-width="1" x="0.5" y="0.5" width="105" height="119" rx="3"></rect>
                                </g>
                                <path d="M46.3682346,53.3333306 C46.3682346,51.1249964 44.5859477,49.333329 42.3891754,49.333329 C40.1924031,49.333329 38.4101162,51.1249964 38.4101162,53.3333306 C38.4101162,55.5416648 40.1924031,57.3333322 42.3891754,57.3333322 C44.5859477,57.3333322 46.3682346,55.5416648 46.3682346,53.3333306 L46.3682346,53.3333306 Z M67.5898838,61.3333339 L58.9685888,52.6666637 L48.3577642,63.3333347 L45.0418816,60 L38.4101162,66.6666694 L38.4101162,70.666671 L67.5898838,70.666671 L67.5898838,61.3333339 Z M72.8952961,47.3333281 C72.8952961,45.4999941 71.4031489,43.9999934 69.5794134,43.9999934 L36.4205866,43.9999934 C34.5968511,43.9999934 33.1047039,45.4999941 33.1047039,47.3333281 L33.1047039,72.6666719 C33.1047039,74.5000059 34.5968511,76.0000066 36.4205866,76.0000066 L69.5794134,76.0000066 C71.4031489,76.0000066 72.8952961,74.5000059 72.8952961,72.6666719 L72.8952961,47.3333281 Z" id="photo-icon" stroke="#FFFFFF" stroke-width="1"></path>
                            </g>
                            <g id="Text-/-Medium-/-text-big" transform="translate(127.429787, 15.217391)" fill-rule="evenodd">
                                <rect id="text" fill="#93ADB5" x="5.68434189e-14" y="0" width="79" height="15" rx="3"></rect>
                            </g>
                            <g id="Text-/-Medium-/-text-small" transform="translate(127.429787, 78.695652)" fill-rule="evenodd">
                                <rect id="text" fill="#93ADB5" x="0" y="0" width="39.5266272" height="5" rx="2.5"></rect>
                            </g>
                        </g>
                    </g>
                    <g id="project-block" mask="url(#mask-2)">
                        <g transform="translate(103.583062, 636.699874)">
                            <g id="Text-/-Medium-/-texts-left" transform="translate(127.429787, 40.652174)" fill-rule="evenodd">
                                <path d="M2.61419914,21.761194 L65.6706846,21.761194 C67.1140386,21.761194 68.2848837,22.9339407 68.2848837,24.380597 C68.2848837,25.8243097 67.1144669,27 65.6706846,27 L2.61419914,27 C1.17084511,27 0,25.8272533 0,24.380597 C0,22.9368843 1.17041682,21.761194 2.61419914,21.761194 Z M2.62057485,10.880597 L87.3794252,10.880597 C88.8291509,10.880597 90,12.0533437 90,13.5 C90,14.9437127 88.8267287,16.119403 87.3794252,16.119403 L2.62057485,16.119403 C1.17084911,16.119403 0,14.9466563 0,13.5 C0,12.0562873 1.17327132,10.880597 2.62057485,10.880597 Z M2.62584022,0 L79.7952124,0 C81.2559227,0 82.4210526,1.17274666 82.4210526,2.61940299 C82.4210526,4.06311565 81.2454239,5.23880597 79.7952124,5.23880597 L2.62584022,5.23880597 C1.16512991,5.23880597 0,4.06605931 0,2.61940299 C0,1.17569032 1.17562871,0 2.62584022,0 Z" id="paragraph" fill="#93ADB5"></path>
                            </g>
                            <g id="IMG">
                                <g>
                                    <use fill="#93ADB5" fill-rule="evenodd" xlink:href="#path-5"></use>
                                    <rect stroke="#B7BBC0" stroke-width="1" x="0.5" y="0.5" width="105" height="119" rx="3"></rect>
                                </g>
                                <path d="M46.3682346,53.3333306 C46.3682346,51.1249964 44.5859477,49.333329 42.3891754,49.333329 C40.1924031,49.333329 38.4101162,51.1249964 38.4101162,53.3333306 C38.4101162,55.5416648 40.1924031,57.3333322 42.3891754,57.3333322 C44.5859477,57.3333322 46.3682346,55.5416648 46.3682346,53.3333306 L46.3682346,53.3333306 Z M67.5898838,61.3333339 L58.9685888,52.6666637 L48.3577642,63.3333347 L45.0418816,60 L38.4101162,66.6666694 L38.4101162,70.666671 L67.5898838,70.666671 L67.5898838,61.3333339 Z M72.8952961,47.3333281 C72.8952961,45.4999941 71.4031489,43.9999934 69.5794134,43.9999934 L36.4205866,43.9999934 C34.5968511,43.9999934 33.1047039,45.4999941 33.1047039,47.3333281 L33.1047039,72.6666719 C33.1047039,74.5000059 34.5968511,76.0000066 36.4205866,76.0000066 L69.5794134,76.0000066 C71.4031489,76.0000066 72.8952961,74.5000059 72.8952961,72.6666719 L72.8952961,47.3333281 Z" id="photo-icon" stroke="#FFFFFF" stroke-width="1"></path>
                            </g>
                            <g id="Text-/-Medium-/-text-big" transform="translate(127.429787, 15.217391)" fill-rule="evenodd">
                                <rect id="text" fill="#93ADB5" x="5.68434189e-14" y="0" width="79" height="15" rx="3"></rect>
                            </g>
                            <g id="Text-/-Medium-/-text-small" transform="translate(127.429787, 78.695652)" fill-rule="evenodd">
                                <rect id="text" fill="#93ADB5" x="0" y="0" width="39.5266272" height="5" rx="2.5"></rect>
                            </g>
                        </g>
                    </g>
                    <mask id="mask-8" fill="white">
                        <use xlink:href="#path-7"></use>
                    </mask>
                    <use id="Mask" fill="url(#linearGradient-6)" xlink:href="#path-7"></use>
                </g>
            </g>
        </g>
    </g>
</svg>