<svg xmlns="http://www.w3.org/2000/svg" xmlns:xlink="http://www.w3.org/1999/xlink" viewBox="0 0 465 945"><defs><clipPath id="347fd447-351e-4a87-8fe0-fc3f42a582c7"><path d="M7,71H417a7,7,0,0,1,7,7v26.47H0V78A7,7,0,0,1,7,71Z" style="fill:none;clip-rule:evenodd"/></clipPath><clipPath id="199807c7-aacc-42b0-9c1c-0a0955c86eb2"><rect x="-492" y="-3220" width="1440" height="7912" style="fill:none"/></clipPath><clipPath id="4d81e8c6-56fe-4ceb-829b-f029ff43a7ac"><circle cx="18" cy="86" r="6" style="fill:none"/></clipPath><clipPath id="b94abad1-8ce9-48de-a06d-ca2b8e4f0565"><circle cx="33" cy="86" r="6" style="fill:none"/></clipPath><clipPath id="93a0fdff-7113-47e7-9778-493b7e931f46"><circle cx="48" cy="86" r="6" style="fill:none"/></clipPath><clipPath id="b0bd4b00-5e48-427e-8c62-cc41c906c543"><path d="M73,80H351a6,6,0,0,1,0,12H73a6,6,0,0,1,0-12Z" style="fill:none;clip-rule:evenodd"/></clipPath><clipPath id="6c90c129-6816-41f1-bd96-f68404166d3a"><rect y="104" width="424" height="841" style="fill:none"/></clipPath><clipPath id="73844225-498b-4be7-9667-00c254178360"><rect x="-5" y="99" width="434" height="851" style="fill:none"/></clipPath><clipPath id="7d763b79-e6c8-44ca-914a-eb035b76ca77"><rect y="104" width="424" height="226" style="fill:none"/></clipPath><clipPath id="bcf46b63-17ed-4ed2-8aeb-af3d6b87ea68"><rect y="104" width="424" height="226.46" style="fill:none"/></clipPath><clipPath id="714ba769-1a44-42a5-90ba-50f16fcf3f85"><polygon points="203.39 233.59 203.39 190.37 234.74 211.98 203.39 233.59" style="fill:none;clip-rule:evenodd"/></clipPath><clipPath id="09b8a3dd-4178-4a67-a2b2-cb1ad81ee6e5"><path d="M106.11,272.46h77.37a2.53,2.53,0,0,1,0,5.05H106.11a2.53,2.53,0,1,1,0-5.05Zm0,10.48h85a2.52,2.52,0,1,1,0,5H106.11a2.52,2.52,0,1,1,0-5Zm0,10.48h63.23a2.52,2.52,0,1,1,0,5H106.11a2.52,2.52,0,1,1,0-5Z" style="fill:none;clip-rule:evenodd"/></clipPath><clipPath id="cfb04c3d-89f7-4e9c-842c-b53776c5586e"><rect x="103.58" y="272.46" width="89.77" height="26.24" style="fill:none"/></clipPath><clipPath id="7078cef9-73ab-4ccc-b38b-c6749580b82c"><path d="M106.58,247.61a3,3,0,0,0-3,3v11a3,3,0,0,0,3,3h84a3,3,0,0,0,3-3v-11a3,3,0,0,0-3-3Z" style="fill:none;clip-rule:evenodd"/></clipPath><clipPath id="804eb8d7-ee93-4c28-babb-5044d6ef415f"><rect x="103.58" y="247.61" width="89.77" height="16.57" style="fill:none"/></clipPath><clipPath id="6f549a2b-8b02-4606-9922-beb1e855ed8f"><path d="M214.07,341.75a3,3,0,0,1,3-3h17.12a3,3,0,0,1,3,3v5a3,3,0,0,1-3,3H217.07a3,3,0,0,1-3-3Zm27.74,0a3,3,0,0,1,3-3h17.12a3,3,0,0,1,3,3v5a3,3,0,0,1-3,3H244.81a3,3,0,0,1-3-3Zm55.49,0a3,3,0,0,1,3-3h17.12a3,3,0,0,1,3,3v5a3,3,0,0,1-3,3H300.3a3,3,0,0,1-3-3Zm-27.51,0a3,3,0,0,1,3-3h17.12a3,3,0,0,1,3,3v5a3,3,0,0,1-3,3H272.79a3,3,0,0,1-3-3Z" style="fill:none;clip-rule:evenodd"/></clipPath><clipPath id="2938c74a-ece6-490d-9a83-2e40a6de65db"><path d="M106.59,338.74h45.09a3,3,0,0,1,3,3v5a3,3,0,0,1-3,3H106.59a3,3,0,0,1-3-3v-5A3,3,0,0,1,106.59,338.74Z" style="fill:none"/></clipPath><clipPath id="d55021b3-ca10-43cb-b1ee-0df2802f3f14"><path d="M233.64,420.82h77.17a2.62,2.62,0,0,1,0,5.24H233.64a2.62,2.62,0,1,1,0-5.24Zm0,10.88h84.76a2.62,2.62,0,0,1,0,5.24H233.63a2.62,2.62,0,0,1,0-5.24Zm0,10.88h63.05a2.62,2.62,0,0,1,0,5.24H233.63a2.62,2.62,0,1,1,0-5.24Z" style="fill:none;clip-rule:evenodd"/></clipPath><clipPath id="dab30a34-2ef1-49be-be5d-542ef99bd03d"><rect x="231.01" y="420.82" width="89.4" height="26.52" style="fill:none"/></clipPath><clipPath id="d63ef8d6-b4d1-419f-b85a-912441f3f29a"><path d="M106.58,380.67h100a2.49,2.49,0,0,1,2.5,2.49v114a2.51,2.51,0,0,1-2.5,2.5h-100a2.5,2.5,0,0,1-2.5-2.5v-114A2.51,2.51,0,0,1,106.58,380.67Zm0-1a3.5,3.5,0,0,0-3.5,3.49v114a3.5,3.5,0,0,0,3.5,3.5h100a3.5,3.5,0,0,0,3.5-3.5v-114a3.49,3.49,0,0,0-3.5-3.49Zm-23.5-20h147v161h-147Z" style="fill:none;clip-rule:evenodd"/></clipPath><clipPath id="dbf01d23-1582-4dc9-8e00-e689347f0178"><path d="M106.58,380.17a3,3,0,0,0-3,3v114a3,3,0,0,0,3,3h100a3,3,0,0,0,3-3v-114a3,3,0,0,0-3-3Z" style="fill:none;clip-rule:evenodd"/></clipPath><clipPath id="14e50d68-391c-48bd-ad8b-5d1a7d42ab0f"><rect x="103.58" y="380.17" width="106.19" height="120" style="fill:none"/></clipPath><clipPath id="9b918a67-b67d-43ee-831a-d8385c8c2c9d"><rect x="231.01" y="395.38" width="79" height="15" rx="3" ry="3" style="fill:none"/></clipPath><clipPath id="7254384f-1d14-4996-a013-10471d08fc0c"><rect x="231.01" y="395.38" width="79.41" height="20.43" style="fill:none"/></clipPath><clipPath id="cea91202-6929-44a2-ab79-37a3c7f2562f"><path d="M233.52,458.86a2.5,2.5,0,1,0,0,5H268a2.5,2.5,0,1,0,0-5Z" style="fill:none;clip-rule:evenodd"/></clipPath><clipPath id="48efccd9-8410-4c1f-8cde-81996bf672d9"><rect x="231.01" y="458.86" width="40.17" height="5" style="fill:none"/></clipPath><clipPath id="ad877fe3-6a8f-4952-8151-45acf0bafcb2"><path d="M233.64,584.59h77.17a2.62,2.62,0,1,1,0,5.23H233.64a2.62,2.62,0,1,1,0-5.23Zm0,10.88h84.76a2.62,2.62,0,1,1,0,5.23H233.63a2.62,2.62,0,1,1,0-5.23Zm0,10.88h63.05a2.62,2.62,0,1,1,0,5.24H233.63a2.62,2.62,0,1,1,0-5.24Z" style="fill:none;clip-rule:evenodd"/></clipPath><clipPath id="d2a9cbe2-a16c-4728-8a90-999e06bbf694"><rect x="231.01" y="584.59" width="89.4" height="26.52" style="fill:none"/></clipPath><clipPath id="3ad23a45-6098-485d-a921-04b729d96b7d"><path d="M106.58,544.43h100a2.49,2.49,0,0,1,2.5,2.5v114a2.5,2.5,0,0,1-2.5,2.49h-100a2.49,2.49,0,0,1-2.5-2.49v-114A2.51,2.51,0,0,1,106.58,544.43Zm0-1a3.5,3.5,0,0,0-3.5,3.5v114a3.5,3.5,0,0,0,3.5,3.49h100a3.5,3.5,0,0,0,3.5-3.49v-114a3.5,3.5,0,0,0-3.5-3.5Zm-23.5-20h147v161h-147Z" style="fill:none;clip-rule:evenodd"/></clipPath><clipPath id="2d568f56-2fba-4efa-8f81-a474b176111e"><path d="M106.58,543.93a3,3,0,0,0-3,3v114a3,3,0,0,0,3,3h100a3,3,0,0,0,3-3v-114a3,3,0,0,0-3-3Z" style="fill:none;clip-rule:evenodd"/></clipPath><clipPath id="b6ec2bdc-636d-4066-a9e7-5d4846be8183"><rect x="103.58" y="543.93" width="106.19" height="120" style="fill:none"/></clipPath><clipPath id="e0a3bd4d-cc9a-45b8-9d9e-41d27cef7301"><rect x="231.01" y="559.15" width="79" height="15" rx="3" ry="3" style="fill:none"/></clipPath><clipPath id="78a26c6b-6418-490d-962b-d3808ab2e3ad"><rect x="231.01" y="559.15" width="79.41" height="20.43" style="fill:none"/></clipPath><clipPath id="4c7bad4d-5a92-4ef3-a707-dcea5593d5e8"><path d="M233.52,622.63a2.5,2.5,0,1,0,0,5H268a2.5,2.5,0,1,0,0-5Z" style="fill:none;clip-rule:evenodd"/></clipPath><clipPath id="d65a7d3a-ba9f-490e-9114-7bbab1427f8b"><rect x="231.01" y="622.63" width="40.17" height="5" style="fill:none"/></clipPath><clipPath id="8b0b6507-a8b8-4879-806e-6c33ec0af7f1"><path d="M233.64,748.35h77.17a2.62,2.62,0,1,1,0,5.24H233.64a2.62,2.62,0,1,1,0-5.24Zm0,10.88h84.76a2.62,2.62,0,0,1,0,5.24H233.63a2.62,2.62,0,0,1,0-5.24Zm0,10.88h63.05a2.62,2.62,0,1,1,0,5.24H233.63a2.62,2.62,0,1,1,0-5.24Z" style="fill:none;clip-rule:evenodd"/></clipPath><clipPath id="c4b2d065-c4bc-4986-b35f-bff102e63067"><rect x="231.01" y="748.35" width="89.4" height="26.52" style="fill:none"/></clipPath><clipPath id="8e829bd5-3034-461e-9f71-d0d4a4e0bc26"><path d="M106.58,708.2h100a2.49,2.49,0,0,1,2.5,2.5v114a2.5,2.5,0,0,1-2.5,2.5h-100a2.5,2.5,0,0,1-2.5-2.5v-114A2.51,2.51,0,0,1,106.58,708.2Zm0-1a3.5,3.5,0,0,0-3.5,3.5v114a3.5,3.5,0,0,0,3.5,3.5h100a3.5,3.5,0,0,0,3.5-3.5v-114a3.49,3.49,0,0,0-3.5-3.5Zm-23.5-20h147v161h-147Z" style="fill:none;clip-rule:evenodd"/></clipPath><clipPath id="3f726db1-4c65-4a24-a2ce-f6a9b5158f06"><path d="M106.58,707.7a3,3,0,0,0-3,3v114a3,3,0,0,0,3,3h100a3,3,0,0,0,3-3v-114a3,3,0,0,0-3-3Z" style="fill:none;clip-rule:evenodd"/></clipPath><clipPath id="163c146f-3458-4a68-993d-a2b2d2ce4765"><rect x="103.58" y="707.7" width="106.19" height="120" style="fill:none"/></clipPath><clipPath id="c68dfec0-d6aa-405f-a603-80f4313388ed"><rect x="231.01" y="722.92" width="79" height="15" rx="3" ry="3" style="fill:none"/></clipPath><clipPath id="c909afde-92c5-4950-9092-989229675969"><rect x="231.01" y="722.92" width="79.41" height="20.43" style="fill:none"/></clipPath><clipPath id="498ab1ae-a207-4848-b2b7-d641a6e8c3ec"><path d="M233.52,786.4a2.5,2.5,0,1,0,0,5H268a2.5,2.5,0,1,0,0-5Z" style="fill:none;clip-rule:evenodd"/></clipPath><clipPath id="dbea7a2b-9c18-4344-8635-c14b2f2a674e"><rect x="231.01" y="786.4" width="40.17" height="5" style="fill:none"/></clipPath><linearGradient id="3baa7a90-1c77-45f1-b0e4-cde98d336b90" x1="213" y1="176" x2="213" y2="940" gradientUnits="userSpaceOnUse"><stop offset="0" stop-color="#fff" stop-opacity="0"/><stop offset="0.3" stop-color="#fff" stop-opacity="0.01"/><stop offset="0.44" stop-color="#fff" stop-opacity="0.04"/><stop offset="0.54" stop-color="#fff" stop-opacity="0.09"/><stop offset="0.63" stop-color="#fff" stop-opacity="0.16"/><stop offset="0.71" stop-color="#fff" stop-opacity="0.25"/><stop offset="0.78" stop-color="#fff" stop-opacity="0.36"/><stop offset="0.84" stop-color="#fff" stop-opacity="0.5"/><stop offset="0.9" stop-color="#fff" stop-opacity="0.66"/><stop offset="0.95" stop-color="#fff" stop-opacity="0.83"/><stop offset="1" stop-color="#fff"/></linearGradient><clipPath id="c9137d9d-360f-47a5-a517-4117ef8b5578"><rect x="211" width="254" height="836" style="fill:none"/></clipPath><clipPath id="514b99bb-4a6a-4759-ad32-f08e3bc9c75f"><rect x="206" y="-5" width="264" height="846" style="fill:none"/></clipPath><clipPath id="900cd0bd-b2dc-440f-bf3d-0a7374a68e5b"><rect x="211" y="42" width="254" height="794" style="fill:none"/></clipPath><clipPath id="b4616c63-f3f3-472d-a63f-bf1fa2647929"><path d="M454.91,73.83a1.59,1.59,0,0,1-1.35,1.76H439.25a1.83,1.83,0,0,1,0-3.52h14.31A1.59,1.59,0,0,1,454.91,73.83Zm0-7a1.58,1.58,0,0,1-1.35,1.75H439.25a1.82,1.82,0,0,1,0-3.51h14.31A1.59,1.59,0,0,1,454.91,66.8Zm0-7a1.59,1.59,0,0,1-1.35,1.76H439.25a1.83,1.83,0,0,1,0-3.52h14.31A1.59,1.59,0,0,1,454.91,59.76Z" style="fill:none;clip-rule:evenodd"/></clipPath><clipPath id="acc3c529-91b6-47a5-a9d4-de4acea6830c"><rect x="437.91" y="58" width="16.93" height="17.78" style="fill:none"/></clipPath><clipPath id="81bd8378-fa75-4a2f-9e97-7637631f25c9"><path d="M222,61a3,3,0,0,1,3-3h10.92a3,3,0,0,1,3,3V72.78a3,3,0,0,1-3,3H225a3,3,0,0,1-3-3Z" style="fill:none;clip-rule:evenodd"/></clipPath><clipPath id="4310a413-5457-4a00-9791-f252e670aba0"><path d="M244.48,199.39h133.2a3,3,0,0,1,3,3v10.68a3,3,0,0,1-3,3H244.48a3,3,0,0,1-3-3V202.4A3,3,0,0,1,244.48,199.39Zm0,34.66h146a3,3,0,0,1,3,3v10.68a3,3,0,0,1-3,3h-146a3,3,0,0,1-3-3V237.05A3,3,0,0,1,244.48,234.05Zm0,34.66H353.81a3,3,0,0,1,3,3v10.68a3,3,0,0,1-3,3H244.48a3,3,0,0,1-3-3V271.71A3,3,0,0,1,244.48,268.71Z" style="fill:none;clip-rule:evenodd"/></clipPath><clipPath id="15cca7a5-8a40-4d88-83f4-bbab591e7afd"><rect x="241.48" y="199.39" width="151.55" height="86.36" style="fill:none"/></clipPath><clipPath id="58e26df2-4b41-4c57-8170-4de798c988a6"><path d="M244.47,117.27H390a3,3,0,0,1,3,3v46.51a3,3,0,0,1-3,3H244.47a3,3,0,0,1-3-3V120.26A3,3,0,0,1,244.47,117.27Z" style="fill:none;clip-rule:evenodd"/></clipPath><clipPath id="29e144a6-d468-4c22-bc8a-25f86b8597fb"><path d="M214,398.36a3,3,0,0,0-3,3v199a3,3,0,0,0,3,3H462a3,3,0,0,0,3-3v-199a3,3,0,0,0-3-3Z" style="fill:none;clip-rule:evenodd"/></clipPath><clipPath id="39b3b17a-3335-401f-a5ba-a4c9325d1078"><rect x="211" y="398.36" width="254" height="204.7" style="fill:none"/></clipPath><clipPath id="722cb0cf-6da3-411b-93d7-ce8975413511"><path d="M244.66,711.15H415.42a3,3,0,0,1,3,3v10.68a3,3,0,0,1-3,3H244.66a3,3,0,0,1-3-3V714.16A3,3,0,0,1,244.66,711.15Zm0,34.66h187a3,3,0,0,1,3,3V759.5a3,3,0,0,1-3,3h-187a3,3,0,0,1-3-3V748.81A3,3,0,0,1,244.66,745.81Zm0,34.66H385.11a3,3,0,0,1,3,3v10.68a3,3,0,0,1-3,3H244.66a3,3,0,0,1-3-3V783.47A3,3,0,0,1,244.66,780.47Z" style="fill:none;clip-rule:evenodd"/></clipPath><clipPath id="fe0812e4-550b-4ee0-9ff7-230c274ed5c4"><rect x="241.67" y="711.15" width="192.91" height="85.99" style="fill:none"/></clipPath><clipPath id="16eec481-570a-4c73-bdc2-79a38d9fd6cc"><path d="M244.67,636.43a3,3,0,0,0-3,3v46.31a3,3,0,0,0,3,3H365.29a3,3,0,0,0,3-3V639.43a3,3,0,0,0-3-3Z" style="fill:none;clip-rule:evenodd"/></clipPath><clipPath id="1dd8236e-ccd5-4baa-bdea-ab069165e5d1"><rect x="211" y="398.36" width="254" height="398.78" style="fill:none"/></clipPath><clipPath id="31986392-488a-42de-ab26-60d870ad87b5"><path d="M233,0H443a22,22,0,0,1,22,22V44H211V22A22,22,0,0,1,233,0Z" style="fill:none;clip-rule:evenodd"/></clipPath><clipPath id="e86e2408-4a45-420d-a7e1-441749144808"><circle cx="337.5" cy="14.5" r="3.5" style="fill:none"/></clipPath><clipPath id="8763b190-3a26-4263-8eb6-99090c90b4ff"><path d="M308,25h59a3,3,0,0,1,0,6H308a3,3,0,0,1,0-6Z" style="fill:none;clip-rule:evenodd"/></clipPath><linearGradient id="7883335f-5ed1-4e32-a04d-42190abbe598" x1="338.5" y1="69" x2="338.5" y2="833" xlink:href="#3baa7a90-1c77-45f1-b0e4-cde98d336b90"/></defs><title>wireframeAnimation</title><g id="fafe9fcf-8fd2-4a7b-b97d-16ae9dc1dd2b" data-name="Layer 2"><g style="clip-path:url(#347fd447-351e-4a87-8fe0-fc3f42a582c7)"><g style="clip-path:url(#199807c7-aacc-42b0-9c1c-0a0955c86eb2)"><rect x="-5" y="66" width="434" height="43.46" style="fill:#dadada"/></g></g><g style="clip-path:url(#4d81e8c6-56fe-4ceb-829b-f029ff43a7ac)"><g style="clip-path:url(#199807c7-aacc-42b0-9c1c-0a0955c86eb2)"><rect x="7" y="75" width="22" height="22" style="fill:#b00"/></g></g><g style="clip-path:url(#b94abad1-8ce9-48de-a06d-ca2b8e4f0565)"><g style="clip-path:url(#199807c7-aacc-42b0-9c1c-0a0955c86eb2)"><rect x="22" y="75" width="22" height="22" style="fill:#93adb5"/></g></g><g style="clip-path:url(#93a0fdff-7113-47e7-9778-493b7e931f46)"><g style="clip-path:url(#199807c7-aacc-42b0-9c1c-0a0955c86eb2)"><rect x="37" y="75" width="22" height="22" style="fill:#93adb5"/></g></g><g style="clip-path:url(#b0bd4b00-5e48-427e-8c62-cc41c906c543)"><g style="clip-path:url(#199807c7-aacc-42b0-9c1c-0a0955c86eb2)"><rect x="62" y="75" width="300" height="22" style="fill:#fff;opacity:0.8500000238418579"/></g></g><g style="clip-path:url(#6c90c129-6816-41f1-bd96-f68404166d3a)"><g style="clip-path:url(#199807c7-aacc-42b0-9c1c-0a0955c86eb2)"><g style="isolation:isolate"><g style="clip-path:url(#73844225-498b-4be7-9667-00c254178360)"><g style="clip-path:url(#6c90c129-6816-41f1-bd96-f68404166d3a)"><rect x="-5" y="99" width="434" height="851" style="fill:#d8d8d8"/></g><g style="clip-path:url(#6c90c129-6816-41f1-bd96-f68404166d3a)"><g style="clip-path:url(#6c90c129-6816-41f1-bd96-f68404166d3a)"><rect x="-5" y="99" width="434" height="851" style="fill:#eaeaea"/></g></g><g style="clip-path:url(#7d763b79-e6c8-44ca-914a-eb035b76ca77)"><g style="clip-path:url(#bcf46b63-17ed-4ed2-8aeb-af3d6b87ea68)"><rect x="-5" y="99" width="434" height="236" style="fill:#93adb5"/></g></g><g style="clip-path:url(#714ba769-1a44-42a5-90ba-50f16fcf3f85)"><g style="clip-path:url(#bcf46b63-17ed-4ed2-8aeb-af3d6b87ea68)"><rect x="198.39" y="185.37" width="41.36" height="53.22" style="fill:#fff"/></g></g><g style="clip-path:url(#09b8a3dd-4178-4a67-a2b2-cb1ad81ee6e5)"><g style="clip-path:url(#cfb04c3d-89f7-4e9c-842c-b53776c5586e)"><rect x="98.58" y="267.46" width="100" height="36" style="fill:#93adb5"/></g></g><g style="clip-path:url(#7078cef9-73ab-4ccc-b38b-c6749580b82c)"><g style="clip-path:url(#804eb8d7-ee93-4c28-babb-5044d6ef415f)"><rect x="98.58" y="242.61" width="100" height="27" style="fill:#fff"/></g></g><g style="clip-path:url(#6f549a2b-8b02-4606-9922-beb1e855ed8f)"><g style="clip-path:url(#6c90c129-6816-41f1-bd96-f68404166d3a)"><rect x="209.07" y="333.74" width="116.35" height="21.05" style="fill:#93adb5"/></g></g><g style="clip-path:url(#2938c74a-ece6-490d-9a83-2e40a6de65db)"><g style="clip-path:url(#6c90c129-6816-41f1-bd96-f68404166d3a)"><rect x="98.58" y="333.74" width="61.1" height="21.05" style="fill:#93adb5"/></g></g><g style="clip-path:url(#d55021b3-ca10-43cb-b1ee-0df2802f3f14)"><g style="clip-path:url(#dab30a34-2ef1-49be-be5d-542ef99bd03d)"><rect x="226.01" y="415.82" width="100" height="37" style="fill:#93adb5"/></g></g><g style="clip-path:url(#d63ef8d6-b4d1-419f-b85a-912441f3f29a)"><g style="clip-path:url(#dbf01d23-1582-4dc9-8e00-e689347f0178)"><g style="clip-path:url(#14e50d68-391c-48bd-ad8b-5d1a7d42ab0f)"><path d="M106.58,380.17a3,3,0,0,0-3,3v114a3,3,0,0,0,3,3h100a3,3,0,0,0,3-3v-114a3,3,0,0,0-3-3Z" style="fill:#93adb5"/></g></g></g><g style="clip-path:url(#dbf01d23-1582-4dc9-8e00-e689347f0178)"><g style="clip-path:url(#14e50d68-391c-48bd-ad8b-5d1a7d42ab0f)"><path d="M106.58,380.17a3,3,0,0,0-3,3v114a3,3,0,0,0,3,3h100a3,3,0,0,0,3-3v-114a3,3,0,0,0-3-3Z" style="fill:none;stroke:#b7bbc0;stroke-miterlimit:10;stroke-width:2px"/></g></g><g style="clip-path:url(#14e50d68-391c-48bd-ad8b-5d1a7d42ab0f)"><path d="M176.48,427.5a3.33,3.33,0,0,0-3.32-3.33H140a3.33,3.33,0,0,0-3.31,3.33v25.33a3.33,3.33,0,0,0,3.31,3.34h33.16a3.34,3.34,0,0,0,3.32-3.34Zm-5.31,14-8.62-8.67L151.94,443.5l-3.32-3.33L142,446.83v4h29.18Zm-21.22-8a4,4,0,1,0-4,4A4,4,0,0,0,150,433.5Z" style="fill:none;stroke:#fff;stroke-miterlimit:10"/></g><g style="clip-path:url(#9b918a67-b67d-43ee-831a-d8385c8c2c9d)"><g style="clip-path:url(#7254384f-1d14-4996-a013-10471d08fc0c)"><rect x="226.01" y="390.38" width="89" height="25" style="fill:#93adb5"/></g></g><g style="clip-path:url(#cea91202-6929-44a2-ab79-37a3c7f2562f)"><g style="clip-path:url(#48efccd9-8410-4c1f-8cde-81996bf672d9)"><rect x="226.01" y="453.86" width="49.53" height="15" style="fill:#93adb5"/></g></g><g style="clip-path:url(#ad877fe3-6a8f-4952-8151-45acf0bafcb2)"><g style="clip-path:url(#d2a9cbe2-a16c-4728-8a90-999e06bbf694)"><rect x="226.01" y="579.59" width="100" height="37" style="fill:#93adb5"/></g></g><g style="clip-path:url(#3ad23a45-6098-485d-a921-04b729d96b7d)"><g style="clip-path:url(#2d568f56-2fba-4efa-8f81-a474b176111e)"><g style="clip-path:url(#b6ec2bdc-636d-4066-a9e7-5d4846be8183)"><path d="M106.58,543.93a3,3,0,0,0-3,3v114a3,3,0,0,0,3,3h100a3,3,0,0,0,3-3v-114a3,3,0,0,0-3-3Z" style="fill:#93adb5"/></g></g></g><g style="clip-path:url(#2d568f56-2fba-4efa-8f81-a474b176111e)"><g style="clip-path:url(#b6ec2bdc-636d-4066-a9e7-5d4846be8183)"><path d="M106.58,543.93a3,3,0,0,0-3,3v114a3,3,0,0,0,3,3h100a3,3,0,0,0,3-3v-114a3,3,0,0,0-3-3Z" style="fill:none;stroke:#b7bbc0;stroke-miterlimit:10;stroke-width:2px"/></g></g><g style="clip-path:url(#b6ec2bdc-636d-4066-a9e7-5d4846be8183)"><path d="M176.48,591.27a3.34,3.34,0,0,0-3.32-3.34H140a3.33,3.33,0,0,0-3.31,3.34V616.6a3.33,3.33,0,0,0,3.31,3.33h33.16a3.33,3.33,0,0,0,3.32-3.33Zm-5.31,14-8.62-8.67-10.61,10.67-3.32-3.34L142,610.6v4h29.18Zm-21.22-8a4,4,0,1,0-4,4A4,4,0,0,0,150,597.27Z" style="fill:none;stroke:#fff;stroke-miterlimit:10"/></g><g style="clip-path:url(#e0a3bd4d-cc9a-45b8-9d9e-41d27cef7301)"><g style="clip-path:url(#78a26c6b-6418-490d-962b-d3808ab2e3ad)"><rect x="226.01" y="554.15" width="89" height="25" style="fill:#93adb5"/></g></g><g style="clip-path:url(#4c7bad4d-5a92-4ef3-a707-dcea5593d5e8)"><g style="clip-path:url(#d65a7d3a-ba9f-490e-9114-7bbab1427f8b)"><rect x="226.01" y="617.63" width="49.53" height="15" style="fill:#93adb5"/></g></g><g style="clip-path:url(#8b0b6507-a8b8-4879-806e-6c33ec0af7f1)"><g style="clip-path:url(#c4b2d065-c4bc-4986-b35f-bff102e63067)"><rect x="226.01" y="743.35" width="100" height="37" style="fill:#93adb5"/></g></g><g style="clip-path:url(#8e829bd5-3034-461e-9f71-d0d4a4e0bc26)"><g style="clip-path:url(#3f726db1-4c65-4a24-a2ce-f6a9b5158f06)"><g style="clip-path:url(#163c146f-3458-4a68-993d-a2b2d2ce4765)"><path d="M106.58,707.7a3,3,0,0,0-3,3v114a3,3,0,0,0,3,3h100a3,3,0,0,0,3-3v-114a3,3,0,0,0-3-3Z" style="fill:#93adb5"/></g></g></g><g style="clip-path:url(#3f726db1-4c65-4a24-a2ce-f6a9b5158f06)"><g style="clip-path:url(#163c146f-3458-4a68-993d-a2b2d2ce4765)"><path d="M106.58,707.7a3,3,0,0,0-3,3v114a3,3,0,0,0,3,3h100a3,3,0,0,0,3-3v-114a3,3,0,0,0-3-3Z" style="fill:none;stroke:#b7bbc0;stroke-miterlimit:10;stroke-width:2px"/></g></g><g style="clip-path:url(#163c146f-3458-4a68-993d-a2b2d2ce4765)"><path d="M176.48,755a3.33,3.33,0,0,0-3.32-3.33H140a3.33,3.33,0,0,0-3.31,3.33v25.34A3.33,3.33,0,0,0,140,783.7h33.16a3.33,3.33,0,0,0,3.32-3.33Zm-5.31,14-8.62-8.66L151.94,771l-3.32-3.33L142,774.37v4h29.18ZM150,761a4,4,0,1,0-4,4A4,4,0,0,0,150,761Z" style="fill:none;stroke:#fff;stroke-miterlimit:10"/></g><g style="clip-path:url(#c68dfec0-d6aa-405f-a603-80f4313388ed)"><g style="clip-path:url(#c909afde-92c5-4950-9092-989229675969)"><rect x="226.01" y="717.92" width="89" height="25" style="fill:#93adb5"/></g></g><g style="clip-path:url(#498ab1ae-a207-4848-b2b7-d641a6e8c3ec)"><g style="clip-path:url(#dbea7a2b-9c18-4344-8635-c14b2f2a674e)"><rect x="226.01" y="781.4" width="49.53" height="15" style="fill:#93adb5"/></g></g></g></g></g></g><rect x="2" y="151" width="422" height="792" style="fill:url(#3baa7a90-1c77-45f1-b0e4-cde98d336b90)"/><g style="clip-path:url(#c9137d9d-360f-47a5-a517-4117ef8b5578)"><g style="clip-path:url(#199807c7-aacc-42b0-9c1c-0a0955c86eb2)"><g style="isolation:isolate"><g style="clip-path:url(#514b99bb-4a6a-4759-ad32-f08e3bc9c75f)"><g style="clip-path:url(#900cd0bd-b2dc-440f-bf3d-0a7374a68e5b)"><rect x="206" y="-5" width="264" height="846" style="fill:#eaeaea"/></g><g style="clip-path:url(#b4616c63-f3f3-472d-a63f-bf1fa2647929)"><g style="clip-path:url(#acc3c529-91b6-47a5-a9d4-de4acea6830c)"><rect x="432.91" y="53" width="27" height="27.59" style="fill:#93adb5"/></g></g><g style="clip-path:url(#81bd8378-fa75-4a2f-9e97-7637631f25c9)"><g style="clip-path:url(#c9137d9d-360f-47a5-a517-4117ef8b5578)"><rect x="217.01" y="53" width="26.93" height="27.78" style="fill:#93adb5"/></g></g><g style="clip-path:url(#4310a413-5457-4a00-9791-f252e670aba0)"><g style="clip-path:url(#15cca7a5-8a40-4d88-83f4-bbab591e7afd)"><rect x="236.48" y="194.39" width="162" height="96" style="fill:#93adb5"/></g></g><g style="clip-path:url(#58e26df2-4b41-4c57-8170-4de798c988a6)"><g style="clip-path:url(#c9137d9d-360f-47a5-a517-4117ef8b5578)"><rect x="236.48" y="112.27" width="161.55" height="62.49" style="fill:#93adb5"/></g></g><g style="clip-path:url(#29e144a6-d468-4c22-bc8a-25f86b8597fb)"><g style="clip-path:url(#39b3b17a-3335-401f-a5ba-a4c9325d1078)"><rect x="206" y="393.36" width="264" height="215" style="fill:#93adb5"/></g></g><g style="clip-path:url(#39b3b17a-3335-401f-a5ba-a4c9325d1078)"><path d="M357.9,488.19a3.34,3.34,0,0,0-3.32-3.33H321.42a3.34,3.34,0,0,0-3.32,3.33v25.34a3.34,3.34,0,0,0,3.32,3.33h33.16a3.34,3.34,0,0,0,3.32-3.33Zm-5.31,14L344,493.53l-10.61,10.66L330,500.86l-6.63,6.67v4h29.18Zm-21.22-8a4,4,0,1,0-4,4A4,4,0,0,0,331.37,494.19Z" style="fill:none;stroke:#fff;stroke-miterlimit:10"/></g><g style="clip-path:url(#722cb0cf-6da3-411b-93d7-ce8975413511)"><g style="clip-path:url(#fe0812e4-550b-4ee0-9ff7-230c274ed5c4)"><rect x="236.67" y="706.15" width="203" height="96" style="fill:#93adb5"/></g></g><g style="clip-path:url(#16eec481-570a-4c73-bdc2-79a38d9fd6cc)"><g style="clip-path:url(#1dd8236e-ccd5-4baa-bdea-ab069165e5d1)"><rect x="236.67" y="631.43" width="136.63" height="62.31" style="fill:#93adb5"/></g></g><g style="clip-path:url(#31986392-488a-42de-ab26-60d870ad87b5)"><g style="clip-path:url(#c9137d9d-360f-47a5-a517-4117ef8b5578)"><rect x="206" y="-5" width="264" height="54" style="fill:#dadada"/></g></g><g style="clip-path:url(#e86e2408-4a45-420d-a7e1-441749144808)"><g style="clip-path:url(#c9137d9d-360f-47a5-a517-4117ef8b5578)"><rect x="329" y="6" width="17" height="17" style="fill:#fff"/></g></g><g style="clip-path:url(#8763b190-3a26-4263-8eb6-99090c90b4ff)"><g style="clip-path:url(#c9137d9d-360f-47a5-a517-4117ef8b5578)"><rect x="300" y="20" width="75" height="16" style="fill:#fff;opacity:0.8500000238418579"/></g></g></g></g></g><rect x="212" y="44" width="253" height="792" style="fill:url(#7883335f-5ed1-4e32-a04d-42190abbe598)"/></g></g></svg>