<?xml version="1.0" encoding="UTF-8"?>
<svg width="465px" height="945px" viewBox="0 0 465 945" version="1.1" xmlns="http://www.w3.org/2000/svg" xmlns:xlink="http://www.w3.org/1999/xlink">
    <!-- Generator: Sketch 49.3 (51167) - http://www.bohemiancoding.com/sketch -->
    <title>wireframeAnimation</title>
    <desc>Created with Sketch.</desc>
    <defs>
        <polygon id="path-1" points="0 33 424 33 424 874 0 874"></polygon>
        <rect id="path-3" x="0" y="0" width="106" height="120" rx="3"></rect>
        <rect id="path-4" x="0" y="0" width="106" height="120" rx="3"></rect>
        <rect id="path-5" x="0" y="0" width="106" height="120" rx="3"></rect>
        <linearGradient x1="50%" y1="63.9225339%" x2="50%" y2="98.5503974%" id="linearGradient-6">
            <stop stop-color="#F6F6F6" stop-opacity="0" offset="0%"></stop>
            <stop stop-color="#FFFFFF" offset="100%"></stop>
        </linearGradient>
        <polygon id="path-7" points="0 33 424 33 424 874 0 874"></polygon>
        <polygon id="path-9" points="0 0 254 0 254 836 0 836"></polygon>
        <polygon id="path-11" points="0 0 254 0 254 836 0 836"></polygon>
    </defs>
    <g id="Page-1" stroke="none" stroke-width="1" fill="none" fill-rule="evenodd">
        <g id="Process" transform="translate(-492.000000, -3220.000000)">
            <g id="wireframeAnimation" transform="translate(492.000000, 3220.000000)">
                <g id="webframe_browser" transform="translate(0.000000, 71.000000)">
                    <g id="Browser">
                        <g>
                            <path d="M7.00555766,0 L416.994442,0 C420.860766,0 424,3.13131578 424,6.99398954 L424,33.4602457 L0,33.4602457 L0,6.99398954 C0,3.1328203 3.136495,0 7.00555766,0 Z" id="background" fill="#DADADA"></path>
                            <circle id="object" fill="#BB0000" cx="18" cy="15" r="6"></circle>
                            <path d="M33,21 C36.3137085,21 39,18.3137085 39,15 C39,11.6862915 36.3137085,9 33,9 C29.6862915,9 27,11.6862915 27,15 C27,18.3137085 29.6862915,21 33,21 Z" id="object" fill="#93ADB5"></path>
                            <circle id="object" fill="#93ADB5" cx="48" cy="15" r="6"></circle>
                            <path d="M72.9904953,9 L351.009505,9 C354.314294,9 357,11.6862915 357,15 C357,18.3069658 354.317964,21 351.009505,21 L72.9904953,21 C69.6857065,21 67,18.3137085 67,15 C67,11.6930342 69.6820361,9 72.9904953,9 Z" id="search" fill="#FFFFFF" opacity="0.85"></path>
                        </g>
                    </g>
                    <mask id="mask-2" fill="white">
                        <use xlink:href="#path-1"></use>
                    </mask>
                    <use id="Mask" fill="#D8D8D8" xlink:href="#path-1"></use>
                    <polygon id="Background" fill="#EAEAEA" mask="url(#mask-2)" points="0 33 424 33 424 874 0 874"></polygon>
                    <g id="Media-player/Minimal-version" mask="url(#mask-2)">
                        <g transform="translate(0.000000, 33.000000)">
                            <rect id="Rectangle-106" fill="#93ADB5" x="0" y="0" width="424" height="226"></rect>
                            <polygon id="Triangle-12" fill="#FFFFFF" points="203.3875 129.587197 203.3875 86.3683581 234.743868 107.977778"></polygon>
                        </g>
                    </g>
                    <g id="Text-/-Medium-/-texts-left" mask="url(#mask-2)" fill="#93ADB5">
                        <g transform="translate(103.583062, 201.461538)" id="paragraph">
                            <path d="M2.53171298,20.9552239 L65.7531707,20.9552239 C67.1566439,20.9552239 68.2848837,22.0845355 68.2848837,23.4776119 C68.2848837,24.8804007 67.1513972,26 65.7531707,26 L2.53171298,26 C1.12823983,26 0,24.8706884 0,23.4776119 C0,22.0748232 1.13348651,20.9552239 2.53171298,20.9552239 Z M2.52474815,10.4776119 L87.4752518,10.4776119 C88.8620675,10.4776119 90,11.6069235 90,13 C90,14.4027887 88.8696317,15.5223881 87.4752518,15.5223881 L2.52474815,15.5223881 C1.13793254,15.5223881 0,14.3930765 0,13 C0,11.5972113 1.13036825,10.4776119 2.52474815,10.4776119 Z M2.5230109,0 L79.8980417,0 C81.2872888,0 82.4210526,1.1293116 82.4210526,2.52238806 C82.4210526,3.92517679 81.2914622,5.04477612 79.8980417,5.04477612 L2.5230109,5.04477612 C1.13376385,5.04477612 0,3.91546452 0,2.52238806 C0,1.11959933 1.12959046,0 2.5230109,0 Z"></path>
                        </g>
                    </g>
                    <g id="Text-/-Medium-/-text-big-light" mask="url(#mask-2)" fill="#FFFFFF">
                        <g transform="translate(103.583062, 176.606557)" id="text">
                            <rect x="5.68434189e-14" y="0" width="90" height="17" rx="3"></rect>
                        </g>
                    </g>
                    <path d="M269.787339,270.745444 C269.787339,269.086405 271.130216,267.741488 272.785983,267.741488 L289.907233,267.741488 C291.563339,267.741488 292.905877,269.084981 292.905877,270.745444 L292.905877,275.78419 C292.905877,277.443229 291.563,278.788146 289.907233,278.788146 L272.785983,278.788146 C271.129878,278.788146 269.787339,277.444653 269.787339,275.78419 L269.787339,270.745444 Z M297.2984,270.745444 C297.2984,269.086405 298.641277,267.741488 300.297044,267.741488 L317.418294,267.741488 C319.074399,267.741488 320.416938,269.084981 320.416938,270.745444 L320.416938,275.78419 C320.416938,277.443229 319.074061,278.788146 317.418294,278.788146 L300.297044,278.788146 C298.640939,278.788146 297.2984,277.444653 297.2984,275.78419 L297.2984,270.745444 Z M241.813907,270.745444 C241.813907,269.086405 243.156784,267.741488 244.812552,267.741488 L261.933801,267.741488 C263.589907,267.741488 264.932446,269.084981 264.932446,270.745444 L264.932446,275.78419 C264.932446,277.443229 263.589569,278.788146 261.933801,278.788146 L244.812552,278.788146 C243.156446,278.788146 241.813907,277.444653 241.813907,275.78419 L241.813907,270.745444 Z M214.071661,270.745444 C214.071661,269.086405 215.414538,267.741488 217.070306,267.741488 L234.191555,267.741488 C235.847661,267.741488 237.1902,269.084981 237.1902,270.745444 L237.1902,275.78419 C237.1902,277.443229 235.847323,278.788146 234.191555,278.788146 L217.070306,278.788146 C215.4142,278.788146 214.071661,277.444653 214.071661,275.78419 L214.071661,270.745444 Z" id="navigation" fill="#93ADB5" mask="url(#mask-2)"></path>
                    <path d="M103.583062,270.745444 C103.583062,269.086405 104.923623,267.741488 106.588882,267.741488 L151.678219,267.741488 C153.338288,267.741488 154.684039,269.084981 154.684039,270.745444 L154.684039,275.78419 C154.684039,277.443229 153.343478,278.788146 151.678219,278.788146 L106.588882,278.788146 C104.928813,278.788146 103.583062,277.444653 103.583062,275.78419 L103.583062,270.745444 Z" id="telephone" fill="#93ADB5" mask="url(#mask-2)"></path>
                    <g id="project-block" mask="url(#mask-2)">
                        <g transform="translate(103.583062, 309.166456)">
                            <g id="Text-/-Medium-/-texts-left" transform="translate(127.429787, 40.652174)" fill-rule="evenodd">
                                <path d="M2.61419914,21.761194 L65.6706846,21.761194 C67.1140386,21.761194 68.2848837,22.9339407 68.2848837,24.380597 C68.2848837,25.8243097 67.1144669,27 65.6706846,27 L2.61419914,27 C1.17084511,27 0,25.8272533 0,24.380597 C0,22.9368843 1.17041682,21.761194 2.61419914,21.761194 Z M2.62057485,10.880597 L87.3794252,10.880597 C88.8291509,10.880597 90,12.0533437 90,13.5 C90,14.9437127 88.8267287,16.119403 87.3794252,16.119403 L2.62057485,16.119403 C1.17084911,16.119403 0,14.9466563 0,13.5 C0,12.0562873 1.17327132,10.880597 2.62057485,10.880597 Z M2.62584022,0 L79.7952124,0 C81.2559227,0 82.4210526,1.17274666 82.4210526,2.61940299 C82.4210526,4.06311565 81.2454239,5.23880597 79.7952124,5.23880597 L2.62584022,5.23880597 C1.16512991,5.23880597 0,4.06605931 0,2.61940299 C0,1.17569032 1.17562871,0 2.62584022,0 Z" id="paragraph" fill="#93ADB5"></path>
                            </g>
                            <g id="IMG">
                                <g>
                                    <use fill="#93ADB5" fill-rule="evenodd" xlink:href="#path-3"></use>
                                    <rect stroke="#B7BBC0" stroke-width="1" x="0.5" y="0.5" width="105" height="119" rx="3"></rect>
                                </g>
                                <path d="M46.3682346,53.3333306 C46.3682346,51.1249964 44.5859477,49.333329 42.3891754,49.333329 C40.1924031,49.333329 38.4101162,51.1249964 38.4101162,53.3333306 C38.4101162,55.5416648 40.1924031,57.3333322 42.3891754,57.3333322 C44.5859477,57.3333322 46.3682346,55.5416648 46.3682346,53.3333306 L46.3682346,53.3333306 Z M67.5898838,61.3333339 L58.9685888,52.6666637 L48.3577642,63.3333347 L45.0418816,60 L38.4101162,66.6666694 L38.4101162,70.666671 L67.5898838,70.666671 L67.5898838,61.3333339 Z M72.8952961,47.3333281 C72.8952961,45.4999941 71.4031489,43.9999934 69.5794134,43.9999934 L36.4205866,43.9999934 C34.5968511,43.9999934 33.1047039,45.4999941 33.1047039,47.3333281 L33.1047039,72.6666719 C33.1047039,74.5000059 34.5968511,76.0000066 36.4205866,76.0000066 L69.5794134,76.0000066 C71.4031489,76.0000066 72.8952961,74.5000059 72.8952961,72.6666719 L72.8952961,47.3333281 Z" id="photo-icon" stroke="#FFFFFF" stroke-width="1"></path>
                            </g>
                            <g id="Text-/-Medium-/-text-big" transform="translate(127.429787, 15.217391)" fill-rule="evenodd">
                                <rect id="text" fill="#93ADB5" x="5.68434189e-14" y="0" width="79" height="15" rx="3"></rect>
                            </g>
                            <g id="Text-/-Medium-/-text-small" transform="translate(127.429787, 78.695652)" fill-rule="evenodd">
                                <rect id="text" fill="#93ADB5" x="0" y="0" width="39.5266272" height="5" rx="2.5"></rect>
                            </g>
                        </g>
                    </g>
                    <g id="project-block" mask="url(#mask-2)">
                        <g transform="translate(103.583062, 472.933165)">
                            <g id="Text-/-Medium-/-texts-left" transform="translate(127.429787, 40.652174)" fill-rule="evenodd">
                                <path d="M2.61419914,21.761194 L65.6706846,21.761194 C67.1140386,21.761194 68.2848837,22.9339407 68.2848837,24.380597 C68.2848837,25.8243097 67.1144669,27 65.6706846,27 L2.61419914,27 C1.17084511,27 0,25.8272533 0,24.380597 C0,22.9368843 1.17041682,21.761194 2.61419914,21.761194 Z M2.62057485,10.880597 L87.3794252,10.880597 C88.8291509,10.880597 90,12.0533437 90,13.5 C90,14.9437127 88.8267287,16.119403 87.3794252,16.119403 L2.62057485,16.119403 C1.17084911,16.119403 0,14.9466563 0,13.5 C0,12.0562873 1.17327132,10.880597 2.62057485,10.880597 Z M2.62584022,0 L79.7952124,0 C81.2559227,0 82.4210526,1.17274666 82.4210526,2.61940299 C82.4210526,4.06311565 81.2454239,5.23880597 79.7952124,5.23880597 L2.62584022,5.23880597 C1.16512991,5.23880597 0,4.06605931 0,2.61940299 C0,1.17569032 1.17562871,0 2.62584022,0 Z" id="paragraph" fill="#93ADB5"></path>
                            </g>
                            <g id="IMG">
                                <g>
                                    <use fill="#93ADB5" fill-rule="evenodd" xlink:href="#path-4"></use>
                                    <rect stroke="#B7BBC0" stroke-width="1" x="0.5" y="0.5" width="105" height="119" rx="3"></rect>
                                </g>
                                <path d="M46.3682346,53.3333306 C46.3682346,51.1249964 44.5859477,49.333329 42.3891754,49.333329 C40.1924031,49.333329 38.4101162,51.1249964 38.4101162,53.3333306 C38.4101162,55.5416648 40.1924031,57.3333322 42.3891754,57.3333322 C44.5859477,57.3333322 46.3682346,55.5416648 46.3682346,53.3333306 L46.3682346,53.3333306 Z M67.5898838,61.3333339 L58.9685888,52.6666637 L48.3577642,63.3333347 L45.0418816,60 L38.4101162,66.6666694 L38.4101162,70.666671 L67.5898838,70.666671 L67.5898838,61.3333339 Z M72.8952961,47.3333281 C72.8952961,45.4999941 71.4031489,43.9999934 69.5794134,43.9999934 L36.4205866,43.9999934 C34.5968511,43.9999934 33.1047039,45.4999941 33.1047039,47.3333281 L33.1047039,72.6666719 C33.1047039,74.5000059 34.5968511,76.0000066 36.4205866,76.0000066 L69.5794134,76.0000066 C71.4031489,76.0000066 72.8952961,74.5000059 72.8952961,72.6666719 L72.8952961,47.3333281 Z" id="photo-icon" stroke="#FFFFFF" stroke-width="1"></path>
                            </g>
                            <g id="Text-/-Medium-/-text-big" transform="translate(127.429787, 15.217391)" fill-rule="evenodd">
                                <rect id="text" fill="#93ADB5" x="5.68434189e-14" y="0" width="79" height="15" rx="3"></rect>
                            </g>
                            <g id="Text-/-Medium-/-text-small" transform="translate(127.429787, 78.695652)" fill-rule="evenodd">
                                <rect id="text" fill="#93ADB5" x="0" y="0" width="39.5266272" height="5" rx="2.5"></rect>
                            </g>
                        </g>
                    </g>
                    <g id="project-block" mask="url(#mask-2)">
                        <g transform="translate(103.583062, 636.699874)">
                            <g id="Text-/-Medium-/-texts-left" transform="translate(127.429787, 40.652174)" fill-rule="evenodd">
                                <path d="M2.61419914,21.761194 L65.6706846,21.761194 C67.1140386,21.761194 68.2848837,22.9339407 68.2848837,24.380597 C68.2848837,25.8243097 67.1144669,27 65.6706846,27 L2.61419914,27 C1.17084511,27 0,25.8272533 0,24.380597 C0,22.9368843 1.17041682,21.761194 2.61419914,21.761194 Z M2.62057485,10.880597 L87.3794252,10.880597 C88.8291509,10.880597 90,12.0533437 90,13.5 C90,14.9437127 88.8267287,16.119403 87.3794252,16.119403 L2.62057485,16.119403 C1.17084911,16.119403 0,14.9466563 0,13.5 C0,12.0562873 1.17327132,10.880597 2.62057485,10.880597 Z M2.62584022,0 L79.7952124,0 C81.2559227,0 82.4210526,1.17274666 82.4210526,2.61940299 C82.4210526,4.06311565 81.2454239,5.23880597 79.7952124,5.23880597 L2.62584022,5.23880597 C1.16512991,5.23880597 0,4.06605931 0,2.61940299 C0,1.17569032 1.17562871,0 2.62584022,0 Z" id="paragraph" fill="#93ADB5"></path>
                            </g>
                            <g id="IMG">
                                <g>
                                    <use fill="#93ADB5" fill-rule="evenodd" xlink:href="#path-5"></use>
                                    <rect stroke="#B7BBC0" stroke-width="1" x="0.5" y="0.5" width="105" height="119" rx="3"></rect>
                                </g>
                                <path d="M46.3682346,53.3333306 C46.3682346,51.1249964 44.5859477,49.333329 42.3891754,49.333329 C40.1924031,49.333329 38.4101162,51.1249964 38.4101162,53.3333306 C38.4101162,55.5416648 40.1924031,57.3333322 42.3891754,57.3333322 C44.5859477,57.3333322 46.3682346,55.5416648 46.3682346,53.3333306 L46.3682346,53.3333306 Z M67.5898838,61.3333339 L58.9685888,52.6666637 L48.3577642,63.3333347 L45.0418816,60 L38.4101162,66.6666694 L38.4101162,70.666671 L67.5898838,70.666671 L67.5898838,61.3333339 Z M72.8952961,47.3333281 C72.8952961,45.4999941 71.4031489,43.9999934 69.5794134,43.9999934 L36.4205866,43.9999934 C34.5968511,43.9999934 33.1047039,45.4999941 33.1047039,47.3333281 L33.1047039,72.6666719 C33.1047039,74.5000059 34.5968511,76.0000066 36.4205866,76.0000066 L69.5794134,76.0000066 C71.4031489,76.0000066 72.8952961,74.5000059 72.8952961,72.6666719 L72.8952961,47.3333281 Z" id="photo-icon" stroke="#FFFFFF" stroke-width="1"></path>
                            </g>
                            <g id="Text-/-Medium-/-text-big" transform="translate(127.429787, 15.217391)" fill-rule="evenodd">
                                <rect id="text" fill="#93ADB5" x="5.68434189e-14" y="0" width="79" height="15" rx="3"></rect>
                            </g>
                            <g id="Text-/-Medium-/-text-small" transform="translate(127.429787, 78.695652)" fill-rule="evenodd">
                                <rect id="text" fill="#93ADB5" x="0" y="0" width="39.5266272" height="5" rx="2.5"></rect>
                            </g>
                        </g>
                    </g>
                    <mask id="mask-8" fill="white">
                        <use xlink:href="#path-7"></use>
                    </mask>
                    <use id="Mask" fill="url(#linearGradient-6)" xlink:href="#path-7"></use>
                </g>
                <g id="Phone" transform="translate(211.000000, 0.000000)">
                    <mask id="mask-10" fill="white">
                        <use xlink:href="#path-9"></use>
                    </mask>
                    <use id="Mask" fill="#EAEAEA" xlink:href="#path-9"></use>
                    <g mask="url(#mask-10)">
                        <g transform="translate(0.000000, 58.000000)">
                            <g id="Button-/-Small-/-menu" fill="none" transform="translate(226.906667, 0.000000)" fill-rule="evenodd">
                                <path d="M17,1.75909091 C17,2.73010909 16.3996316,3.51818182 15.6578947,3.51818182 L1.34210526,3.51818182 C0.600368421,3.51818182 0,2.73010909 0,1.75909091 C0,0.788072727 0.600368421,0 1.34210526,0 L15.6578947,0 C16.4005263,0 17,0.788072727 17,1.75909091 Z M17,8.79545455 C17,9.76647273 16.3996316,10.5545455 15.6578947,10.5545455 L1.34210526,10.5545455 C0.600368421,10.5545455 0,9.76647273 0,8.79545455 C0,7.82443636 0.600368421,7.03636364 1.34210526,7.03636364 L15.6578947,7.03636364 C16.4005263,7.03636364 17,7.82443636 17,8.79545455 Z M17,15.8318182 C17,16.8028364 16.3996316,17.5909091 15.6578947,17.5909091 L1.34210526,17.5909091 C0.600368421,17.5909091 0,16.8028364 0,15.8318182 C0,14.8608 0.600368421,14.0727273 1.34210526,14.0727273 L15.6578947,14.0727273 C16.4005263,14.0727273 17,14.8608 17,15.8318182 Z" id="menu" fill="#93ADB5"></path>
                            </g>
                            <path d="M11.0066667,2.9960291 C11.0066667,1.34136792 12.3495509,0 14.0144951,0 L24.9321716,0 C26.5933493,0 27.94,1.33638978 27.94,2.9960291 L27.94,14.7839709 C27.94,16.4386321 26.5971158,17.78 24.9321716,17.78 L14.0144951,17.78 C12.3533173,17.78 11.0066667,16.4436102 11.0066667,14.7839709 L11.0066667,2.9960291 Z" id="telephone" fill="#93ADB5" fill-rule="evenodd"></path>
                            <g id="Text-/-Medium-/-texts-left" fill="none" transform="translate(30.480000, 141.393333)" fill-rule="evenodd">
                                <path d="M2.99596057,69.3134328 L112.329621,69.3134328 C113.990539,69.3134328 115.325581,70.657696 115.325581,72.3159285 L115.325581,82.9975043 C115.325581,84.6626752 113.984244,86 112.329621,86 L2.99596057,86 C1.33504272,86 0,84.6557369 0,82.9975043 L0,72.3159285 C0,70.6507576 1.34133723,69.3134328 2.99596057,69.3134328 Z M3.00208978,34.6567164 L148.99791,34.6567164 C150.662833,34.6567164 152,36.0009795 152,37.6592121 L152,48.3407879 C152,50.0059588 150.655919,51.3432836 148.99791,51.3432836 L3.00208978,51.3432836 C1.33716678,51.3432836 0,49.9990205 0,48.3407879 L0,37.6592121 C0,35.9940412 1.34408138,34.6567164 3.00208978,34.6567164 Z M3.00423478,0 L136.195765,0 C137.855834,0 139.2,1.34426312 139.2,3.00249571 L139.2,13.6840715 C139.2,15.3492424 137.854958,16.6865672 136.195765,16.6865672 L3.00423478,16.6865672 C1.34416645,16.6865672 0,15.342304 0,13.6840715 L0,3.00249571 C0,1.33732481 1.34504173,0 3.00423478,0 Z" id="paragraph" fill="#93ADB5"></path>
                            </g>
                            <path d="M33.4732679,59.2666667 L179.040065,59.2666667 C180.700096,59.2666667 182.033333,60.606103 182.033333,62.2583814 L182.033333,108.768285 C182.033333,110.409653 180.693202,111.76 179.040065,111.76 L33.4732679,111.76 C31.8132374,111.76 30.48,110.420564 30.48,108.768285 L30.48,62.2583814 C30.48,60.6170135 31.8201317,59.2666667 33.4732679,59.2666667 Z" id="text" fill="#93ADB5" fill-rule="evenodd"></path>
                            <g id="project-mobile" fill="none" transform="translate(0.000000, 340.360000)">
                                <g id="IMG">
                                    <rect fill="#93ADB5" fill-rule="evenodd" x="0" y="0" width="254" height="205" rx="3"></rect>
                                    <path d="M120.368235,95.8333306 C120.368235,93.6249964 118.585948,91.833329 116.389175,91.833329 C114.192403,91.833329 112.410116,93.6249964 112.410116,95.8333306 C112.410116,98.0416648 114.192403,99.8333322 116.389175,99.8333322 C118.585948,99.8333322 120.368235,98.0416648 120.368235,95.8333306 L120.368235,95.8333306 Z M141.589884,103.833334 L132.968589,95.1666637 L122.357764,105.833335 L119.041882,102.5 L112.410116,109.166669 L112.410116,113.166671 L141.589884,113.166671 L141.589884,103.833334 Z M146.895296,89.8333281 C146.895296,87.9999941 145.403149,86.4999934 143.579413,86.4999934 L110.420587,86.4999934 C108.596851,86.4999934 107.104704,87.9999941 107.104704,89.8333281 L107.104704,115.166672 C107.104704,117.000006 108.596851,118.500007 110.420587,118.500007 L143.579413,118.500007 C145.403149,118.500007 146.895296,117.000006 146.895296,115.166672 L146.895296,89.8333281 Z" id="photo-icon" stroke="#FFFFFF" stroke-width="1"></path>
                                </g>
                                <g id="Text-/-Medium-/-texts-left" transform="translate(30.667965, 312.794649)" fill="#93ADB5" fill-rule="evenodd">
                                    <path d="M2.99141309,69.3134328 L143.441726,69.3134328 C145.099844,69.3134328 146.43314,70.657696 146.43314,72.3159285 L146.43314,82.9975043 C146.43314,84.6626752 145.093838,86 143.441726,86 L2.99141309,86 C1.33329582,86 0,84.6557369 0,82.9975043 L0,72.3159285 C0,70.6507576 1.33930126,69.3134328 2.99141309,69.3134328 Z M2.99283586,34.6567164 L190.007164,34.6567164 C191.664493,34.6567164 193,36.0009795 193,37.6592121 L193,48.3407879 C193,50.0059588 191.660062,51.3432836 190.007164,51.3432836 L2.99283586,51.3432836 C1.33550726,51.3432836 0,49.9990205 0,48.3407879 L0,37.6592121 C0,35.9940412 1.33993826,34.6567164 2.99283586,34.6567164 Z M2.993621,0 L173.753747,0 C175.401231,0 176.747368,1.34426312 176.747368,3.00249571 L176.747368,13.6840715 C176.747368,15.3492424 175.407079,16.6865672 173.753747,16.6865672 L2.993621,16.6865672 C1.34613693,16.6865672 0,15.342304 0,13.6840715 L0,3.00249571 C0,1.33732481 1.34028977,0 2.993621,0 Z" id="paragraph"></path>
                                </g>
                                <rect id="text-copy" fill="#93ADB5" fill-rule="evenodd" x="30.6679649" y="238.065552" width="126.629017" height="52.3103679" rx="3"></rect>
                            </g>
                        </g>
                    </g>
                    <g id="Phone-head" mask="url(#mask-10)">
                        <path d="M21.9998015,0 L232.000199,0 C244.159729,0 254,9.8497355 254,22 L254,44 L0,44 L0,22 C0,9.84706399 9.84964662,0 21.9998015,0 Z" id="background" fill="#DADADA"></path>
                        <circle id="object" fill="#FFFFFF" cx="126.5" cy="14.5" r="3.5"></circle>
                        <path d="M97.004723,25 L155.995277,25 C157.657303,25 159,26.3431458 159,28 C159,29.6534829 157.65474,31 155.995277,31 L97.004723,31 C95.3426972,31 94,29.6568542 94,28 C94,26.3465171 95.3452603,25 97.004723,25 Z" id="search" fill="#FFFFFF" opacity="0.85"></path>
                    </g>
                    <mask id="mask-12" fill="white">
                        <use xlink:href="#path-11"></use>
                    </mask>
                    <use id="Mask" fill="url(#linearGradient-6)" xlink:href="#path-11"></use>
                </g>
            </g>
        </g>
    </g>
</svg>