<svg width="456" height="255" viewBox="0 0 456 255" fill="none" xmlns="http://www.w3.org/2000/svg">
<rect width="456" height="254.216" fill="#F4F4EF"/>
<g clip-path="url(#clip0)">
<path d="M78.8702 116.195H75.9765V108.703C75.9765 98.3223 67.5668 89.9275 57.1676 89.9275C46.7684 89.9275 38.3587 98.3223 38.3587 108.703V116.195H35.465C33.8373 116.195 32.5713 117.549 32.5713 119.084V150.858C32.5713 152.482 33.8373 153.746 35.465 153.746H78.8702C80.4979 153.746 81.7639 152.482 81.7639 150.858V119.084C81.7639 117.549 80.4979 116.195 78.8702 116.195ZM41.2523 108.703C41.2523 99.9471 48.3961 92.816 57.1676 92.816C65.9391 92.816 73.0829 99.9471 73.0829 108.703V116.195H70.1892V108.703C70.1892 101.572 64.3114 95.7046 57.1676 95.7046C50.0238 95.7046 44.146 101.572 44.146 108.703V116.195H41.2523V108.703ZM47.0397 116.195V108.703C47.0397 103.106 51.5611 98.5931 57.1676 98.5931C62.7741 98.5931 67.2955 103.106 67.2955 108.703V116.195H47.0397ZM78.8702 150.858H70.1892V143.636C70.1892 142.824 69.5562 142.192 68.7423 142.192C67.9285 142.192 67.2955 142.824 67.2955 143.636V150.858H35.465V119.084H67.2955V138.762C67.2955 139.574 67.9285 140.206 68.7423 140.206C69.5562 140.206 70.1892 139.574 70.1892 138.762V119.084H78.8702V150.858Z" fill="black"/>
<path d="M51.3799 124.861C48.2149 124.861 45.5925 127.478 45.5925 130.638C45.5925 132.172 46.2255 133.707 47.3106 134.79L45.5925 143.365C45.5021 143.817 45.5925 144.268 45.8638 144.539C46.1351 144.9 46.5872 145.08 46.9489 145.08H55.63C56.0821 145.08 56.4438 144.9 56.7151 144.539C56.9864 144.178 57.0768 143.726 56.9864 143.365L55.2683 134.79C56.3534 133.707 56.9864 132.263 56.9864 130.638C57.1672 127.478 54.5448 124.861 51.3799 124.861ZM52.3746 134.519L53.9118 142.192H48.8479L50.3852 134.519C50.4756 133.978 50.2947 133.346 49.7522 133.075C48.9383 132.533 48.4862 131.631 48.4862 130.728C48.4862 129.103 49.7522 127.839 51.3799 127.839C53.0076 127.839 54.2736 129.103 54.2736 130.728C54.2736 131.721 53.8214 132.624 53.0076 133.075C52.5554 133.346 52.2841 133.978 52.3746 134.519Z" fill="black"/>
<path d="M164.144 177.306C169.298 177.306 173.548 173.063 173.548 167.918C173.548 162.773 169.298 158.53 164.144 158.53C158.989 158.53 154.739 162.773 154.739 167.918C154.739 173.063 158.989 177.306 164.144 177.306ZM164.144 161.419C167.761 161.419 170.655 164.307 170.655 167.918C170.655 171.529 167.761 174.417 164.144 174.417C160.527 174.417 157.633 171.529 157.633 167.918C157.633 164.307 160.527 161.419 164.144 161.419Z" fill="black"/>
<path d="M164.144 180.736C159.17 180.736 154.468 182.902 151.122 186.603C150.58 187.235 150.67 188.138 151.213 188.679C151.846 189.221 152.75 189.131 153.293 188.589C155.734 185.881 159.08 184.166 162.697 183.805V185.249C162.697 186.062 163.33 186.694 164.144 186.694C164.958 186.694 165.591 186.062 165.591 185.249V183.805C172.915 184.527 178.612 190.665 178.612 198.157C178.612 198.97 179.245 199.602 180.059 199.602C180.873 199.602 181.506 198.97 181.506 198.157C181.506 188.589 173.729 180.736 164.144 180.736Z" fill="black"/>
<path d="M134.936 177.306C140.09 177.306 144.34 173.063 144.34 167.918C144.34 162.773 140.09 158.53 134.936 158.53C129.781 158.53 125.531 162.773 125.531 167.918C125.531 173.063 129.691 177.306 134.936 177.306ZM134.936 161.419C138.553 161.419 141.446 164.307 141.446 167.918C141.446 171.529 138.553 174.417 134.936 174.417C131.319 174.417 128.425 171.529 128.425 167.918C128.425 164.307 131.319 161.419 134.936 161.419Z" fill="black"/>
<path d="M134.935 180.736C125.35 180.736 117.573 188.499 117.573 198.067C117.573 198.879 118.206 199.511 119.02 199.511C119.834 199.511 120.467 198.879 120.467 198.067C120.467 190.575 126.164 184.437 133.489 183.715V185.159C133.489 185.971 134.121 186.603 134.935 186.603C135.749 186.603 136.382 185.971 136.382 185.159V183.715C143.707 184.437 149.404 190.575 149.404 198.067C149.404 198.879 150.037 199.511 150.851 199.511C151.664 199.511 152.297 198.879 152.297 198.067C152.297 188.589 144.521 180.736 134.935 180.736Z" fill="black"/>
<path d="M134.935 188.047C134.121 188.047 133.488 188.679 133.488 189.492V198.157C133.488 198.97 134.121 199.602 134.935 199.602C135.749 199.602 136.382 198.97 136.382 198.157V189.492C136.382 188.679 135.749 188.047 134.935 188.047Z" fill="black"/>
<path d="M164.143 188.047C163.329 188.047 162.696 188.679 162.696 189.492V198.157C162.696 198.97 163.329 199.602 164.143 199.602C164.957 199.602 165.59 198.97 165.59 198.157V189.492C165.59 188.679 164.957 188.047 164.143 188.047Z" fill="black"/>
<path d="M241.55 177.306C246.704 177.306 250.954 173.063 250.954 167.918C250.954 162.773 246.704 158.53 241.55 158.53C236.396 158.53 232.146 162.773 232.146 167.918C232.146 173.063 236.396 177.306 241.55 177.306ZM241.55 161.419C245.167 161.419 248.061 164.307 248.061 167.918C248.061 171.529 245.167 174.417 241.55 174.417C237.933 174.417 235.039 171.529 235.039 167.918C235.039 164.307 237.933 161.419 241.55 161.419Z" fill="black"/>
<path d="M241.55 180.736C236.577 180.736 231.874 182.902 228.529 186.603C227.986 187.235 228.076 188.138 228.619 188.679C229.252 189.221 230.156 189.131 230.699 188.589C233.14 185.881 236.486 184.166 240.103 183.805V185.249C240.103 186.062 240.736 186.694 241.55 186.694C242.364 186.694 242.997 186.062 242.997 185.249V183.805C250.322 184.527 256.019 190.665 256.019 198.157C256.019 198.97 256.652 199.602 257.465 199.602C258.279 199.602 258.912 198.97 258.912 198.157C258.912 188.589 251.136 180.736 241.55 180.736Z" fill="black"/>
<path d="M212.342 177.306C217.496 177.306 221.746 173.063 221.746 167.918C221.746 162.773 217.496 158.53 212.342 158.53C207.188 158.53 202.938 162.773 202.938 167.918C202.938 173.063 207.097 177.306 212.342 177.306ZM212.342 161.419C215.959 161.419 218.853 164.307 218.853 167.918C218.853 171.529 215.959 174.417 212.342 174.417C208.725 174.417 205.831 171.529 205.831 167.918C205.831 164.307 208.725 161.419 212.342 161.419Z" fill="black"/>
<path d="M212.342 180.736C202.756 180.736 194.979 188.499 194.979 198.067C194.979 198.879 195.612 199.511 196.426 199.511C197.24 199.511 197.873 198.879 197.873 198.067C197.873 190.575 203.57 184.437 210.895 183.715V185.159C210.895 185.971 211.528 186.603 212.342 186.603C213.155 186.603 213.788 185.971 213.788 185.159V183.715C221.113 184.437 226.81 190.575 226.81 198.067C226.81 198.879 227.443 199.511 228.257 199.511C229.071 199.511 229.704 198.879 229.704 198.067C229.704 188.589 221.927 180.736 212.342 180.736Z" fill="black"/>
<path d="M212.341 188.047C211.528 188.047 210.895 188.679 210.895 189.492V198.157C210.895 198.97 211.528 199.602 212.341 199.602C213.155 199.602 213.788 198.97 213.788 198.157V189.492C213.788 188.679 213.155 188.047 212.341 188.047Z" fill="black"/>
<path d="M241.549 188.047C240.736 188.047 240.103 188.679 240.103 189.492V198.157C240.103 198.97 240.736 199.602 241.549 199.602C242.363 199.602 242.996 198.97 242.996 198.157V189.492C242.996 188.679 242.363 188.047 241.549 188.047Z" fill="black"/>
<path d="M270.939 177.306C276.093 177.306 280.343 173.063 280.343 167.918C280.343 162.773 276.093 158.53 270.939 158.53C265.784 158.53 261.534 162.773 261.534 167.918C261.534 173.063 265.694 177.306 270.939 177.306ZM270.939 161.419C274.556 161.419 277.449 164.307 277.449 167.918C277.449 171.529 274.556 174.417 270.939 174.417C267.322 174.417 264.428 171.529 264.428 167.918C264.428 164.307 267.322 161.419 270.939 161.419Z" fill="black"/>
<path d="M270.939 180.736C265.965 180.736 261.263 182.902 257.917 186.603C257.375 187.235 257.465 188.138 258.008 188.679C258.641 189.221 259.545 189.131 260.088 188.589C262.529 185.881 265.875 184.166 269.492 183.805V185.249C269.492 186.062 270.125 186.694 270.939 186.694C271.753 186.694 272.386 186.062 272.386 185.249V183.805C279.71 184.527 285.407 190.665 285.407 198.157C285.407 198.97 286.04 199.602 286.854 199.602C287.668 199.602 288.301 198.97 288.301 198.157C288.301 188.589 280.434 180.736 270.939 180.736Z" fill="black"/>
<path d="M270.939 188.047C270.125 188.047 269.492 188.679 269.492 189.492V198.157C269.492 198.97 270.125 199.602 270.939 199.602C271.753 199.602 272.386 198.97 272.386 198.157V189.492C272.386 188.679 271.662 188.047 270.939 188.047Z" fill="black"/>
<path d="M300.237 177.306C305.392 177.306 309.642 173.063 309.642 167.918C309.642 162.773 305.392 158.53 300.237 158.53C295.083 158.53 290.833 162.773 290.833 167.918C290.833 173.063 295.083 177.306 300.237 177.306ZM300.237 161.419C303.855 161.419 306.748 164.307 306.748 167.918C306.748 171.529 303.855 174.417 300.237 174.417C296.62 174.417 293.727 171.529 293.727 167.918C293.727 164.307 296.62 161.419 300.237 161.419Z" fill="black"/>
<path d="M300.238 180.736C295.264 180.736 290.562 182.902 287.216 186.603C286.674 187.235 286.764 188.138 287.307 188.679C287.94 189.221 288.844 189.131 289.386 188.589C291.828 185.881 295.174 184.166 298.791 183.805V185.249C298.791 186.062 299.424 186.694 300.238 186.694C301.051 186.694 301.684 186.062 301.684 185.249V183.805C309.009 184.527 314.706 190.665 314.706 198.157C314.706 198.97 315.339 199.602 316.153 199.602C316.967 199.602 317.6 198.97 317.6 198.157C317.6 188.589 309.823 180.736 300.238 180.736Z" fill="black"/>
<path d="M300.237 188.047C299.423 188.047 298.79 188.679 298.79 189.492V198.157C298.79 198.97 299.423 199.602 300.237 199.602C301.051 199.602 301.684 198.97 301.684 198.157V189.492C301.684 188.679 301.051 188.047 300.237 188.047Z" fill="black"/>
<path d="M329.626 177.306C334.781 177.306 339.031 173.063 339.031 167.918C339.031 162.773 334.781 158.53 329.626 158.53C324.472 158.53 320.222 162.773 320.222 167.918C320.222 173.063 324.381 177.306 329.626 177.306ZM329.626 161.419C333.243 161.419 336.137 164.307 336.137 167.918C336.137 171.529 333.243 174.417 329.626 174.417C326.009 174.417 323.115 171.529 323.115 167.918C323.115 164.307 326.009 161.419 329.626 161.419Z" fill="black"/>
<path d="M329.626 180.736C324.653 180.736 319.951 182.902 316.605 186.603C316.062 187.235 316.153 188.138 316.695 188.679C317.328 189.221 318.232 189.131 318.775 188.589C321.217 185.881 324.562 184.166 328.179 183.805V185.249C328.179 186.062 328.812 186.694 329.626 186.694C330.44 186.694 331.073 186.062 331.073 185.249V183.805C338.398 184.527 344.095 190.665 344.095 198.157C344.095 198.97 344.728 199.602 345.542 199.602C346.355 199.602 346.988 198.97 346.988 198.157C346.988 188.589 339.212 180.736 329.626 180.736Z" fill="black"/>
<path d="M329.627 188.047C328.813 188.047 328.18 188.679 328.18 189.492V198.157C328.18 198.97 328.813 199.602 329.627 199.602C330.44 199.602 331.073 198.97 331.073 198.157V189.492C331.073 188.679 330.44 188.047 329.627 188.047Z" fill="black"/>
<path d="M191.723 118.993C190.005 118.993 188.468 119.535 187.202 120.438L159.17 92.455V68.8954C159.17 68.083 158.537 67.4511 157.723 67.4511C154.196 67.4511 150.85 68.1732 147.685 69.5272C145.153 70.6104 142.802 72.145 140.632 73.9503L127.068 60.4103C125.802 59.1466 124.084 58.4244 122.365 58.4244C120.557 58.4244 118.929 59.1466 117.663 60.4103C116.397 61.674 115.674 63.3891 115.674 65.1042C115.674 66.9095 116.397 68.5343 117.663 69.798L119.833 71.9644C120.376 72.506 121.371 72.506 121.913 71.9644C122.456 71.4228 122.456 70.4299 121.913 69.8883L119.743 67.7219C119.02 66.9998 118.658 66.0971 118.658 65.0139C118.658 64.021 119.02 63.028 119.743 62.3059C120.466 61.5838 121.371 61.2227 122.456 61.2227C123.451 61.2227 124.445 61.5838 125.169 62.3059L138.733 75.8459C129.871 85.7752 130.052 101.03 139.456 110.689L134.573 119.264C133.759 118.993 132.855 118.813 131.951 118.813C127.52 118.813 123.903 122.424 123.903 126.847C123.903 131.27 127.52 134.88 131.951 134.88C136.382 134.88 139.999 131.27 139.999 126.847C139.999 124.409 138.914 122.153 137.105 120.708L141.627 112.675C146.238 116.466 151.935 118.452 157.904 118.452C164.233 118.452 170.292 116.105 174.994 111.953L185.303 122.243C184.399 123.507 183.856 125.132 183.856 126.756C183.856 131.179 187.473 134.79 191.904 134.79C196.335 134.79 199.952 131.179 199.952 126.756C199.681 122.514 196.154 118.993 191.723 118.993ZM136.834 127.027C136.834 129.825 134.573 132.082 131.77 132.082C128.967 132.082 126.706 129.825 126.706 127.027C126.706 124.229 128.967 121.972 131.77 121.972C132.132 121.972 132.493 121.972 132.855 122.062L130.504 126.305C130.142 127.027 130.323 127.93 131.047 128.291C131.318 128.381 131.499 128.471 131.77 128.471C132.313 128.471 132.765 128.201 133.036 127.749L135.387 123.507C136.291 124.409 136.834 125.673 136.834 127.027ZM156.185 70.3396V85.8655L150.127 71.6034C152.026 70.8812 154.106 70.5202 156.185 70.3396ZM147.414 72.7768L153.382 86.6779L142.712 76.0264C144.068 74.6724 145.696 73.5892 147.414 72.7768ZM140.541 78.0123L151.483 88.9346L140.632 108.161C133.036 99.586 133.036 86.5876 140.541 78.0123ZM157.723 115.744C152.207 115.744 147.052 113.848 142.893 110.328L153.744 91.1912L172.734 110.147C168.574 113.758 163.239 115.744 157.723 115.744ZM191.723 132.082C188.92 132.082 186.66 129.825 186.66 127.027C186.66 126.124 186.84 125.312 187.293 124.59L190.729 128.02C191 128.291 191.362 128.471 191.723 128.471C192.085 128.471 192.447 128.291 192.718 128.02C193.261 127.478 193.261 126.486 192.718 125.944L189.282 122.514C190.005 122.153 190.819 121.882 191.723 121.882C194.527 121.882 196.787 124.139 196.787 126.937C196.787 129.735 194.527 132.082 191.723 132.082Z" fill="black"/>
<path d="M255.927 61.1324H219.666C218.852 61.1324 218.219 61.7643 218.219 62.5767V68.7148C218.219 69.0759 218.4 69.437 218.58 69.7078L228.347 80.0884C228.618 80.3592 228.98 80.5398 229.432 80.5398H229.522C229.974 80.5398 230.336 80.269 230.607 79.9079L231.602 78.4636L233.23 82.2549L229.974 118.452C229.974 118.903 230.155 119.445 230.517 119.716L236.847 124.68C237.118 124.861 237.389 124.951 237.751 124.951C238.022 124.951 238.384 124.861 238.655 124.68L244.985 119.716C245.347 119.445 245.618 118.903 245.528 118.452L242.273 82.2549L243.9 78.4636L244.895 79.9079C245.166 80.269 245.528 80.5398 245.98 80.5398H246.07C246.432 80.5398 246.884 80.3592 247.156 80.0884L256.922 69.7078C257.193 69.437 257.284 69.0759 257.284 68.7148V62.5767C257.374 61.8546 256.741 61.1324 255.927 61.1324ZM237.842 121.701L232.958 117.91L236.033 83.4283H239.56L242.634 117.91L237.842 121.701ZM240.012 80.5398H235.671L233.501 75.5751L235.49 72.506H240.102L242.092 75.5751L240.012 80.5398ZM246.432 76.8389L244.985 74.6724L242.996 71.6034L249.959 67.6316C250.682 67.2706 250.863 66.3679 250.501 65.6458C250.14 64.9236 249.235 64.7431 248.512 65.1042L240.464 69.6175H235.038L226.99 65.1042C226.267 64.7431 225.453 64.9236 225.001 65.6458C224.639 66.3679 224.82 67.1803 225.543 67.6316L232.506 71.6034L230.517 74.6724L229.07 76.8389L220.932 68.1732V64.021H254.299V68.1732L246.432 76.8389Z" fill="black"/>
<path d="M331.887 100.128C332.791 98.4125 332.52 96.2461 331.073 94.7116C330.621 94.2602 330.168 93.9894 329.626 93.7186L329.807 93.5381C330.711 92.6354 331.163 91.462 331.163 90.2885C331.163 89.115 330.711 87.8513 329.807 87.0389C329.355 86.5876 328.902 86.3168 328.36 86.046L334.509 79.9078C335.413 79.0052 335.865 77.8317 335.865 76.6582C335.865 75.4848 335.413 74.221 334.509 73.4086C332.7 71.6033 329.807 71.6033 327.998 73.4086L305.482 95.885C302.407 98.9541 300.87 103.197 301.322 107.439L285.135 123.597C284.593 124.139 284.593 125.041 285.135 125.673C285.678 126.305 286.582 126.215 287.215 125.673L303.673 108.974C304.035 108.613 304.125 108.161 304.035 107.71C303.492 104.099 304.668 100.489 307.29 97.8709L329.807 75.3945C330.168 75.0334 330.53 74.8529 331.073 74.8529C331.525 74.8529 331.977 75.0334 332.339 75.3945C332.972 76.0264 332.972 77.1998 332.339 77.8317L318.503 91.6425C317.961 92.1841 317.961 93.0868 318.503 93.7186C319.046 94.2602 319.95 94.2602 320.583 93.7186L325.195 89.115C325.828 88.4832 327.003 88.4832 327.636 89.115C327.998 89.4761 328.179 89.8372 328.179 90.3788C328.179 90.8301 327.998 91.2814 327.636 91.6425L324.471 94.8018L322.211 97.0585C321.668 97.6001 321.668 98.5028 322.211 99.1346C322.753 99.7665 323.658 99.6762 324.291 99.1346L326.551 96.878C326.913 96.5169 327.275 96.4266 327.727 96.4266C328.179 96.4266 328.631 96.6072 328.993 96.9682C329.355 97.3293 329.535 97.6904 329.535 98.232C329.535 98.6833 329.355 99.1346 328.993 99.4957L327.003 101.482L325.918 102.565C325.376 103.106 325.376 104.009 325.918 104.641C326.461 105.273 327.365 105.182 327.998 104.641L329.083 103.558C329.445 103.197 329.807 103.016 330.349 103.016C330.801 103.016 331.254 103.197 331.615 103.558C331.977 103.919 332.158 104.28 332.158 104.821C332.158 105.273 331.977 105.724 331.615 106.085L323.386 114.299C320.764 116.917 317.147 118.091 313.53 117.549C313.078 117.459 312.625 117.639 312.264 117.91L306.115 124.048C305.572 124.59 305.572 125.493 306.115 126.124C306.386 126.395 306.748 126.576 307.109 126.576C307.471 126.576 307.833 126.395 308.104 126.124L313.711 120.528C317.961 120.979 322.211 119.445 325.285 116.376L333.514 108.161C334.418 107.259 334.871 106.085 334.871 104.912C334.871 103.648 334.418 102.475 333.514 101.662C333.062 100.669 332.52 100.308 331.887 100.128Z" fill="black"/>
<path d="M343.099 76.8388C343.371 77.1096 343.732 77.2901 344.094 77.2901C344.456 77.2901 344.818 77.1096 345.089 76.8388C348.977 72.9573 348.977 66.5484 345.089 62.6669C343.19 60.7713 340.658 59.7784 338.035 59.7784C335.323 59.7784 332.881 60.8616 330.982 62.6669C330.44 63.2085 330.44 64.1112 330.982 64.7431C331.525 65.2847 332.429 65.2847 333.062 64.7431C334.418 63.389 336.227 62.6669 338.126 62.6669C340.025 62.6669 341.833 63.389 343.19 64.7431C345.993 67.5413 345.993 72.0547 343.19 74.8529C342.557 75.3043 342.557 76.2069 343.099 76.8388Z" fill="black"/>
<path d="M362.542 215.579H63.6788V165.21C63.6788 164.398 63.0458 163.766 62.232 163.766C61.4181 163.766 60.7852 164.398 60.7852 165.21V216.933C60.7852 217.745 61.5086 218.467 62.3224 218.467H363.899C364.712 218.467 365.436 217.745 365.436 216.933V52.1057C365.436 51.2934 364.803 50.6615 363.989 50.6615C363.175 50.6615 362.542 51.2934 362.542 52.1057V215.579ZM363.899 34.9551H62.3224C61.5086 34.9551 60.7852 35.6772 60.7852 36.4896V73.6795C60.7852 74.4919 61.4181 75.1238 62.232 75.1238C63.0458 75.1238 63.6788 74.4919 63.6788 73.6795V37.8436H362.542V46.2384C362.542 47.0508 363.175 47.6827 363.989 47.6827C364.803 47.6827 365.436 47.0508 365.436 46.2384V36.4896C365.436 35.6772 364.712 34.9551 363.899 34.9551Z" fill="black"/>
</g>
<defs>
<clipPath id="clip0">
<rect x="32.5713" y="34.9551" width="332.864" height="183.512" fill="white"/>
</clipPath>
</defs>
</svg>
