<svg width="456" height="255" viewBox="0 0 456 255" fill="none" xmlns="http://www.w3.org/2000/svg">
<g clip-path="url(#clip0)">
<path d="M78.8693 116.195H75.9756V108.703C75.9756 98.3223 67.5658 89.9275 57.1666 89.9275C46.7675 89.9275 38.3577 98.3223 38.3577 108.703V116.195H35.464C33.8363 116.195 32.5703 117.549 32.5703 119.084V150.858C32.5703 152.482 33.8363 153.746 35.464 153.746H78.8693C80.497 153.746 81.7629 152.482 81.7629 150.858V119.084C81.7629 117.549 80.497 116.195 78.8693 116.195ZM41.2514 108.703C41.2514 99.9471 48.3951 92.816 57.1666 92.816C65.9381 92.816 73.0819 99.9471 73.0819 108.703V116.195H70.1882V108.703C70.1882 101.572 64.3104 95.7046 57.1666 95.7046C50.0228 95.7046 44.145 101.572 44.145 108.703V116.195H41.2514V108.703ZM47.0387 116.195V108.703C47.0387 103.106 51.5601 98.5931 57.1666 98.5931C62.7731 98.5931 67.2945 103.106 67.2945 108.703V116.195H47.0387ZM78.8693 150.858H70.1882V143.636C70.1882 142.824 69.5552 142.192 68.7414 142.192C67.9275 142.192 67.2945 142.824 67.2945 143.636V150.858H35.464V119.084H67.2945V138.762C67.2945 139.574 67.9275 140.206 68.7414 140.206C69.5552 140.206 70.1882 139.574 70.1882 138.762V119.084H78.8693V150.858Z" fill="black"/>
<path d="M51.3799 124.861C48.2149 124.861 45.5925 127.478 45.5925 130.638C45.5925 132.172 46.2255 133.707 47.3106 134.79L45.5925 143.365C45.5021 143.817 45.5925 144.268 45.8638 144.539C46.1351 144.9 46.5872 145.08 46.9489 145.08H55.63C56.0821 145.08 56.4438 144.9 56.7151 144.539C56.9864 144.178 57.0768 143.726 56.9864 143.365L55.2683 134.79C56.3534 133.707 56.9864 132.263 56.9864 130.638C57.1672 127.478 54.5448 124.861 51.3799 124.861ZM52.3746 134.519L53.9118 142.192H48.8479L50.3852 134.519C50.4756 133.978 50.2947 133.346 49.7522 133.075C48.9383 132.533 48.4862 131.631 48.4862 130.728C48.4862 129.103 49.7522 127.84 51.3799 127.84C53.0076 127.84 54.2736 129.103 54.2736 130.728C54.2736 131.721 53.8214 132.624 53.0076 133.075C52.5554 133.346 52.2841 133.978 52.3746 134.519Z" fill="black"/>
<path d="M164.143 177.306C169.297 177.306 173.547 173.063 173.547 167.918C173.547 162.773 169.297 158.53 164.143 158.53C158.988 158.53 154.738 162.773 154.738 167.918C154.738 173.063 158.988 177.306 164.143 177.306ZM164.143 161.419C167.76 161.419 170.654 164.307 170.654 167.918C170.654 171.529 167.76 174.417 164.143 174.417C160.526 174.417 157.632 171.529 157.632 167.918C157.632 164.307 160.526 161.419 164.143 161.419Z" fill="black"/>
<path d="M164.142 180.736C159.168 180.736 154.466 182.902 151.12 186.603C150.578 187.235 150.668 188.138 151.211 188.679C151.844 189.221 152.748 189.131 153.291 188.589C155.732 185.881 159.078 184.166 162.695 183.805V185.249C162.695 186.062 163.328 186.693 164.142 186.693C164.956 186.693 165.589 186.062 165.589 185.249V183.805C172.913 184.527 178.61 190.665 178.61 198.157C178.61 198.97 179.243 199.602 180.057 199.602C180.871 199.602 181.504 198.97 181.504 198.157C181.504 188.589 173.727 180.736 164.142 180.736Z" fill="black"/>
<path d="M134.934 177.306C140.088 177.306 144.338 173.063 144.338 167.918C144.338 162.773 140.088 158.53 134.934 158.53C129.779 158.53 125.529 162.773 125.529 167.918C125.529 173.063 129.689 177.306 134.934 177.306ZM134.934 161.419C138.551 161.419 141.445 164.307 141.445 167.918C141.445 171.529 138.551 174.417 134.934 174.417C131.317 174.417 128.423 171.529 128.423 167.918C128.423 164.307 131.317 161.419 134.934 161.419Z" fill="black"/>
<path d="M134.934 180.736C125.349 180.736 117.572 188.499 117.572 198.067C117.572 198.879 118.205 199.511 119.019 199.511C119.833 199.511 120.466 198.879 120.466 198.067C120.466 190.575 126.163 184.437 133.488 183.715V185.159C133.488 185.971 134.121 186.603 134.934 186.603C135.748 186.603 136.381 185.971 136.381 185.159V183.715C143.706 184.437 149.403 190.575 149.403 198.067C149.403 198.879 150.036 199.511 150.85 199.511C151.663 199.511 152.296 198.879 152.296 198.067C152.296 188.589 144.52 180.736 134.934 180.736Z" fill="black"/>
<path d="M134.935 188.047C134.121 188.047 133.488 188.679 133.488 189.492V198.157C133.488 198.97 134.121 199.602 134.935 199.602C135.749 199.602 136.382 198.97 136.382 198.157V189.492C136.382 188.679 135.749 188.047 134.935 188.047Z" fill="black"/>
<path d="M164.142 188.047C163.328 188.047 162.695 188.679 162.695 189.492V198.157C162.695 198.97 163.328 199.602 164.142 199.602C164.956 199.602 165.589 198.97 165.589 198.157V189.492C165.589 188.679 164.956 188.047 164.142 188.047Z" fill="black"/>
<path d="M241.549 177.306C246.703 177.306 250.953 173.063 250.953 167.918C250.953 162.773 246.703 158.53 241.549 158.53C236.395 158.53 232.145 162.773 232.145 167.918C232.145 173.063 236.395 177.306 241.549 177.306ZM241.549 161.419C245.166 161.419 248.06 164.307 248.06 167.918C248.06 171.529 245.166 174.417 241.549 174.417C237.932 174.417 235.038 171.529 235.038 167.918C235.038 164.307 237.932 161.419 241.549 161.419Z" fill="black"/>
<path d="M241.548 180.736C236.575 180.736 231.872 182.902 228.527 186.603C227.984 187.235 228.074 188.138 228.617 188.679C229.25 189.221 230.154 189.131 230.697 188.589C233.138 185.881 236.484 184.166 240.101 183.805V185.249C240.101 186.062 240.734 186.693 241.548 186.693C242.362 186.693 242.995 186.062 242.995 185.249V183.805C250.32 184.527 256.017 190.665 256.017 198.157C256.017 198.97 256.65 199.602 257.463 199.602C258.277 199.602 258.91 198.97 258.91 198.157C258.91 188.589 251.134 180.736 241.548 180.736Z" fill="black"/>
<path d="M212.34 177.306C217.494 177.306 221.744 173.063 221.744 167.918C221.744 162.773 217.494 158.53 212.34 158.53C207.186 158.53 202.936 162.773 202.936 167.918C202.936 173.063 207.095 177.306 212.34 177.306ZM212.34 161.419C215.957 161.419 218.851 164.307 218.851 167.918C218.851 171.529 215.957 174.417 212.34 174.417C208.723 174.417 205.829 171.529 205.829 167.918C205.829 164.307 208.723 161.419 212.34 161.419Z" fill="black"/>
<path d="M212.341 180.736C202.755 180.736 194.979 188.499 194.979 198.067C194.979 198.879 195.612 199.511 196.425 199.511C197.239 199.511 197.872 198.879 197.872 198.067C197.872 190.575 203.569 184.437 210.894 183.715V185.159C210.894 185.971 211.527 186.603 212.341 186.603C213.154 186.603 213.787 185.971 213.787 185.159V183.715C221.112 184.437 226.809 190.575 226.809 198.067C226.809 198.879 227.442 199.511 228.256 199.511C229.07 199.511 229.703 198.879 229.703 198.067C229.703 188.589 221.926 180.736 212.341 180.736Z" fill="black"/>
<path d="M212.341 188.047C211.528 188.047 210.895 188.679 210.895 189.492V198.157C210.895 198.97 211.528 199.602 212.341 199.602C213.155 199.602 213.788 198.97 213.788 198.157V189.492C213.788 188.679 213.155 188.047 212.341 188.047Z" fill="black"/>
<path d="M241.548 188.047C240.735 188.047 240.102 188.679 240.102 189.492V198.157C240.102 198.97 240.735 199.602 241.548 199.602C242.362 199.602 242.995 198.97 242.995 198.157V189.492C242.995 188.679 242.362 188.047 241.548 188.047Z" fill="black"/>
<path d="M270.938 177.306C276.092 177.306 280.342 173.063 280.342 167.918C280.342 162.773 276.092 158.53 270.938 158.53C265.783 158.53 261.533 162.773 261.533 167.918C261.533 173.063 265.693 177.306 270.938 177.306ZM270.938 161.419C274.555 161.419 277.448 164.307 277.448 167.918C277.448 171.529 274.555 174.417 270.938 174.417C267.321 174.417 264.427 171.529 264.427 167.918C264.427 164.307 267.321 161.419 270.938 161.419Z" fill="black"/>
<path d="M270.937 180.736C265.963 180.736 261.261 182.902 257.915 186.603C257.373 187.235 257.463 188.138 258.006 188.679C258.639 189.221 259.543 189.131 260.086 188.589C262.527 185.881 265.873 184.166 269.49 183.805V185.249C269.49 186.062 270.123 186.693 270.937 186.693C271.751 186.693 272.384 186.062 272.384 185.249V183.805C279.708 184.527 285.405 190.665 285.405 198.157C285.405 198.97 286.038 199.602 286.852 199.602C287.666 199.602 288.299 198.97 288.299 198.157C288.299 188.589 280.432 180.736 270.937 180.736Z" fill="black"/>
<path d="M270.937 188.047C270.123 188.047 269.49 188.679 269.49 189.492V198.157C269.49 198.97 270.123 199.602 270.937 199.602C271.751 199.602 272.384 198.97 272.384 198.157V189.492C272.384 188.679 271.661 188.047 270.937 188.047Z" fill="black"/>
<path d="M300.236 177.306C305.391 177.306 309.641 173.063 309.641 167.918C309.641 162.773 305.391 158.53 300.236 158.53C295.082 158.53 290.832 162.773 290.832 167.918C290.832 173.063 295.082 177.306 300.236 177.306ZM300.236 161.419C303.854 161.419 306.747 164.307 306.747 167.918C306.747 171.529 303.854 174.417 300.236 174.417C296.619 174.417 293.726 171.529 293.726 167.918C293.726 164.307 296.619 161.419 300.236 161.419Z" fill="black"/>
<path d="M300.236 180.736C295.262 180.736 290.56 182.902 287.214 186.603C286.672 187.235 286.762 188.138 287.305 188.679C287.938 189.221 288.842 189.131 289.384 188.589C291.826 185.881 295.172 184.166 298.789 183.805V185.249C298.789 186.062 299.422 186.693 300.236 186.693C301.05 186.693 301.683 186.062 301.683 185.249V183.805C309.007 184.527 314.704 190.665 314.704 198.157C314.704 198.97 315.337 199.602 316.151 199.602C316.965 199.602 317.598 198.97 317.598 198.157C317.598 188.589 309.821 180.736 300.236 180.736Z" fill="black"/>
<path d="M300.236 188.047C299.422 188.047 298.789 188.679 298.789 189.492V198.157C298.789 198.97 299.422 199.602 300.236 199.602C301.05 199.602 301.683 198.97 301.683 198.157V189.492C301.683 188.679 301.05 188.047 300.236 188.047Z" fill="black"/>
<path d="M329.625 177.306C334.78 177.306 339.03 173.063 339.03 167.918C339.03 162.773 334.78 158.53 329.625 158.53C324.471 158.53 320.221 162.773 320.221 167.918C320.221 173.063 324.38 177.306 329.625 177.306ZM329.625 161.419C333.242 161.419 336.136 164.307 336.136 167.918C336.136 171.529 333.242 174.417 329.625 174.417C326.008 174.417 323.114 171.529 323.114 167.918C323.114 164.307 326.008 161.419 329.625 161.419Z" fill="black"/>
<path d="M329.624 180.736C324.651 180.736 319.949 182.902 316.603 186.603C316.06 187.235 316.151 188.138 316.693 188.679C317.326 189.221 318.23 189.131 318.773 188.589C321.215 185.881 324.56 184.166 328.178 183.805V185.249C328.178 186.062 328.811 186.693 329.624 186.693C330.438 186.693 331.071 186.062 331.071 185.249V183.805C338.396 184.527 344.093 190.665 344.093 198.157C344.093 198.97 344.726 199.602 345.54 199.602C346.354 199.602 346.987 198.97 346.987 198.157C346.987 188.589 339.21 180.736 329.624 180.736Z" fill="black"/>
<path d="M329.625 188.047C328.811 188.047 328.178 188.679 328.178 189.492V198.157C328.178 198.97 328.811 199.602 329.625 199.602C330.438 199.602 331.071 198.97 331.071 198.157V189.492C331.071 188.679 330.438 188.047 329.625 188.047Z" fill="black"/>
<path d="M191.723 118.993C190.005 118.993 188.468 119.535 187.202 120.438L159.17 92.455V68.8954C159.17 68.083 158.537 67.4511 157.723 67.4511C154.196 67.4511 150.85 68.1732 147.685 69.5272C145.153 70.6104 142.802 72.145 140.632 73.9503L127.068 60.4103C125.802 59.1466 124.084 58.4244 122.365 58.4244C120.557 58.4244 118.929 59.1466 117.663 60.4103C116.397 61.674 115.674 63.3891 115.674 65.1042C115.674 66.9095 116.397 68.5343 117.663 69.798L119.833 71.9644C120.376 72.506 121.371 72.506 121.913 71.9644C122.456 71.4228 122.456 70.4299 121.913 69.8883L119.743 67.7219C119.02 66.9998 118.658 66.0971 118.658 65.0139C118.658 64.021 119.02 63.028 119.743 62.3059C120.466 61.5838 121.371 61.2227 122.456 61.2227C123.451 61.2227 124.445 61.5838 125.169 62.3059L138.733 75.8459C129.871 85.7752 130.052 101.03 139.456 110.689L134.573 119.264C133.759 118.993 132.855 118.813 131.951 118.813C127.52 118.813 123.903 122.424 123.903 126.847C123.903 131.27 127.52 134.88 131.951 134.88C136.382 134.88 139.999 131.27 139.999 126.847C139.999 124.409 138.914 122.153 137.105 120.708L141.627 112.675C146.238 116.466 151.935 118.452 157.904 118.452C164.233 118.452 170.292 116.105 174.994 111.953L185.303 122.243C184.399 123.507 183.856 125.132 183.856 126.756C183.856 131.179 187.473 134.79 191.904 134.79C196.335 134.79 199.952 131.179 199.952 126.756C199.681 122.514 196.154 118.993 191.723 118.993ZM136.834 127.027C136.834 129.825 134.573 132.082 131.77 132.082C128.967 132.082 126.706 129.825 126.706 127.027C126.706 124.229 128.967 121.972 131.77 121.972C132.132 121.972 132.493 121.972 132.855 122.062L130.504 126.305C130.142 127.027 130.323 127.93 131.047 128.291C131.318 128.381 131.499 128.471 131.77 128.471C132.313 128.471 132.765 128.201 133.036 127.749L135.387 123.507C136.291 124.409 136.834 125.673 136.834 127.027ZM156.185 70.3396V85.8655L150.127 71.6034C152.026 70.8812 154.106 70.5202 156.185 70.3396ZM147.414 72.7768L153.382 86.6779L142.712 76.0264C144.068 74.6724 145.696 73.5892 147.414 72.7768ZM140.541 78.0123L151.483 88.9346L140.632 108.161C133.036 99.586 133.036 86.5876 140.541 78.0123ZM157.723 115.744C152.207 115.744 147.052 113.848 142.893 110.328L153.744 91.1912L172.734 110.147C168.574 113.758 163.239 115.744 157.723 115.744ZM191.723 132.082C188.92 132.082 186.66 129.825 186.66 127.027C186.66 126.124 186.84 125.312 187.293 124.59L190.729 128.02C191 128.291 191.362 128.471 191.723 128.471C192.085 128.471 192.447 128.291 192.718 128.02C193.261 127.478 193.261 126.486 192.718 125.944L189.282 122.514C190.005 122.153 190.819 121.882 191.723 121.882C194.527 121.882 196.787 124.139 196.787 126.937C196.787 129.735 194.527 132.082 191.723 132.082Z" fill="black"/>
<path d="M255.927 61.1324H219.666C218.852 61.1324 218.219 61.7643 218.219 62.5767V68.7148C218.219 69.0759 218.4 69.437 218.58 69.7078L228.347 80.0884C228.618 80.3592 228.98 80.5398 229.432 80.5398H229.522C229.974 80.5398 230.336 80.269 230.607 79.9079L231.602 78.4636L233.23 82.2549L229.974 118.452C229.974 118.903 230.155 119.445 230.517 119.716L236.847 124.68C237.118 124.861 237.389 124.951 237.751 124.951C238.022 124.951 238.384 124.861 238.655 124.68L244.985 119.716C245.347 119.445 245.618 118.903 245.528 118.452L242.273 82.2549L243.9 78.4636L244.895 79.9079C245.166 80.269 245.528 80.5398 245.98 80.5398H246.07C246.432 80.5398 246.884 80.3592 247.156 80.0884L256.922 69.7078C257.193 69.437 257.284 69.0759 257.284 68.7148V62.5767C257.374 61.8546 256.741 61.1324 255.927 61.1324ZM237.842 121.701L232.958 117.91L236.033 83.4283H239.56L242.634 117.91L237.842 121.701ZM240.012 80.5398H235.671L233.501 75.5751L235.49 72.506H240.102L242.092 75.5751L240.012 80.5398ZM246.432 76.8389L244.985 74.6724L242.996 71.6034L249.959 67.6316C250.682 67.2706 250.863 66.3679 250.501 65.6458C250.14 64.9236 249.235 64.7431 248.512 65.1042L240.464 69.6175H235.038L226.99 65.1042C226.267 64.7431 225.453 64.9236 225.001 65.6458C224.639 66.3679 224.82 67.1803 225.543 67.6316L232.506 71.6034L230.517 74.6724L229.07 76.8389L220.932 68.1732V64.021H254.299V68.1732L246.432 76.8389Z" fill="black"/>
<path d="M331.887 100.128C332.791 98.4126 332.52 96.2462 331.073 94.7116C330.621 94.2603 330.168 93.9895 329.626 93.7187L329.807 93.5382C330.711 92.6355 331.163 91.462 331.163 90.2886C331.163 89.1151 330.711 87.8514 329.807 87.039C329.355 86.5876 328.902 86.3168 328.36 86.046L334.509 79.9079C335.413 79.0052 335.865 77.8318 335.865 76.6583C335.865 75.4848 335.413 74.2211 334.509 73.4087C332.7 71.6034 329.807 71.6034 327.998 73.4087L305.482 95.8851C302.407 98.9542 300.87 103.197 301.322 107.439L285.135 123.597C284.593 124.139 284.593 125.041 285.135 125.673C285.678 126.305 286.582 126.215 287.215 125.673L303.673 108.974C304.035 108.613 304.125 108.161 304.035 107.71C303.492 104.099 304.668 100.489 307.29 97.871L329.807 75.3946C330.168 75.0335 330.53 74.853 331.073 74.853C331.525 74.853 331.977 75.0335 332.339 75.3946C332.972 76.0264 332.972 77.1999 332.339 77.8318L318.503 91.6426C317.961 92.1842 317.961 93.0868 318.503 93.7187C319.046 94.2603 319.95 94.2603 320.583 93.7187L325.195 89.1151C325.828 88.4832 327.003 88.4832 327.636 89.1151C327.998 89.4762 328.179 89.8372 328.179 90.3788C328.179 90.8302 327.998 91.2815 327.636 91.6426L324.471 94.8019L322.211 97.0586C321.668 97.6002 321.668 98.5028 322.211 99.1347C322.753 99.7666 323.658 99.6763 324.291 99.1347L326.551 96.878C326.913 96.517 327.275 96.4267 327.727 96.4267C328.179 96.4267 328.631 96.6072 328.993 96.9683C329.355 97.3294 329.535 97.6904 329.535 98.232C329.535 98.6834 329.355 99.1347 328.993 99.4958L327.003 101.482L325.918 102.565C325.376 103.106 325.376 104.009 325.918 104.641C326.461 105.273 327.365 105.183 327.998 104.641L329.083 103.558C329.445 103.197 329.807 103.016 330.349 103.016C330.801 103.016 331.254 103.197 331.615 103.558C331.977 103.919 332.158 104.28 332.158 104.821C332.158 105.273 331.977 105.724 331.615 106.085L323.386 114.299C320.764 116.917 317.147 118.091 313.53 117.549C313.078 117.459 312.625 117.639 312.264 117.91L306.115 124.048C305.572 124.59 305.572 125.493 306.115 126.124C306.386 126.395 306.748 126.576 307.109 126.576C307.471 126.576 307.833 126.395 308.104 126.124L313.711 120.528C317.961 120.979 322.211 119.445 325.285 116.376L333.514 108.161C334.418 107.259 334.871 106.085 334.871 104.912C334.871 103.648 334.418 102.475 333.514 101.662C333.062 100.669 332.52 100.308 331.887 100.128Z" fill="black"/>
<path d="M343.1 76.8389C343.372 77.1097 343.733 77.2902 344.095 77.2902C344.457 77.2902 344.819 77.1097 345.09 76.8389C348.978 72.9574 348.978 66.5484 345.09 62.667C343.191 60.7714 340.659 59.7784 338.036 59.7784C335.324 59.7784 332.882 60.8616 330.983 62.667C330.441 63.2086 330.441 64.1112 330.983 64.7431C331.526 65.2847 332.43 65.2847 333.063 64.7431C334.419 63.3891 336.228 62.667 338.127 62.667C340.026 62.667 341.834 63.3891 343.191 64.7431C345.994 67.5414 345.994 72.0547 343.191 74.853C342.558 75.3043 342.558 76.207 343.1 76.8389Z" fill="black"/>
<path d="M362.54 215.579H63.6769V165.21C63.6769 164.398 63.0439 163.766 62.23 163.766C61.4162 163.766 60.7832 164.398 60.7832 165.21V216.933C60.7832 217.745 61.5066 218.467 62.3205 218.467H363.897C364.71 218.467 365.434 217.745 365.434 216.933V52.1057C365.434 51.2934 364.801 50.6615 363.987 50.6615C363.173 50.6615 362.54 51.2934 362.54 52.1057V215.579ZM363.897 34.9551H62.3205C61.5066 34.9551 60.7832 35.6772 60.7832 36.4896V73.6795C60.7832 74.4919 61.4162 75.1238 62.23 75.1238C63.0439 75.1238 63.6769 74.4919 63.6769 73.6795V37.8436H362.54V46.2384C362.54 47.0508 363.173 47.6827 363.987 47.6827C364.801 47.6827 365.434 47.0508 365.434 46.2384V36.4896C365.434 35.6772 364.71 34.9551 363.897 34.9551Z" fill="black"/>
</g>
<defs>
<clipPath id="clip0">
<rect width="332.864" height="183.512" fill="white" transform="translate(32.5703 34.9551)"/>
</clipPath>
</defs>
</svg>
