<svg width="1020" height="128" viewBox="0 0 1020 128" fill="none" xmlns="http://www.w3.org/2000/svg">
<rect x="58" width="905" height="107" rx="13" fill="white"/>
<path d="M106.244 41.845C106.244 42.604 106.871 43.264 107.63 43.264C108.422 43.264 109.049 42.604 109.049 41.845V32.737H119.609V41.845C119.609 42.604 120.236 43.264 120.995 43.264C121.787 43.264 122.414 42.604 122.414 41.845V21.055C122.414 20.263 121.787 19.636 120.995 19.636C120.236 19.636 119.609 20.263 119.609 21.055V30.13H109.049V21.055C109.049 20.263 108.422 19.636 107.63 19.636C106.871 19.636 106.244 20.263 106.244 21.055V41.845ZM134.162 43.33C139.112 43.33 142.841 39.469 142.841 34.585C142.841 29.701 139.112 25.84 134.162 25.84C129.212 25.84 125.45 29.701 125.45 34.585C125.45 39.469 129.212 43.33 134.162 43.33ZM134.162 40.888C130.763 40.888 128.123 38.05 128.123 34.585C128.123 31.087 130.763 28.282 134.162 28.282C137.561 28.282 140.168 31.087 140.168 34.585C140.168 38.05 137.561 40.888 134.162 40.888ZM147.236 43.264C147.665 43.264 147.929 43.132 148.226 42.802L155.057 34.651V41.911C155.057 42.67 155.651 43.264 156.377 43.264C156.806 43.264 157.103 43.132 157.367 42.802L169.841 27.919C170.039 27.688 170.138 27.391 170.138 27.127C170.138 26.434 169.61 25.906 168.884 25.906C168.521 25.906 168.224 26.071 167.96 26.368L157.697 38.611V27.226C157.697 26.5 157.136 25.906 156.377 25.906C155.651 25.906 155.057 26.5 155.057 27.226V30.823L148.556 38.611V27.226C148.556 26.5 147.962 25.906 147.236 25.906C146.477 25.906 145.916 26.5 145.916 27.226V41.911C145.916 42.67 146.477 43.264 147.236 43.264ZM179.626 41.911C179.626 42.67 180.187 43.264 180.946 43.264C181.672 43.264 182.266 42.67 182.266 41.911V32.209C182.266 29.602 183.784 28.282 185.698 28.282C187.645 28.282 189.163 29.602 189.163 32.209V41.911C189.163 42.67 189.724 43.264 190.483 43.264C191.209 43.264 191.803 42.67 191.803 41.911V32.209C191.803 29.602 193.321 28.282 195.235 28.282C197.182 28.282 198.7 29.602 198.7 32.209V41.911C198.7 42.67 199.261 43.264 200.02 43.264C200.746 43.264 201.34 42.67 201.34 41.911V32.242C201.34 28.117 198.634 25.84 195.235 25.84C193.255 25.84 191.407 26.632 190.483 28.249C189.526 26.632 187.843 25.84 185.698 25.84C182.332 25.84 179.626 28.117 179.626 32.242V41.911ZM219.093 41.911C219.093 42.67 219.687 43.264 220.413 43.264C221.172 43.264 221.733 42.67 221.733 41.911V27.226C221.733 26.5 221.172 25.906 220.413 25.906C219.687 25.906 219.093 26.5 219.093 27.226V28.48C217.542 26.863 215.397 25.84 212.922 25.84C208.071 25.84 204.375 29.701 204.375 34.585C204.375 39.469 208.071 43.33 212.922 43.33C215.397 43.33 217.542 42.34 219.093 40.69V41.911ZM213.087 40.888C209.721 40.888 207.048 38.149 207.048 34.585C207.048 31.021 209.721 28.282 213.087 28.282C216.354 28.282 218.961 30.889 219.093 34.321V34.849C218.961 38.281 216.354 40.888 213.087 40.888ZM225.551 41.911C225.551 42.67 226.112 43.264 226.871 43.264C227.597 43.264 228.191 42.67 228.191 41.911V33.397C228.191 30.031 230.237 28.282 232.778 28.282C235.352 28.282 237.398 30.031 237.398 33.397V41.911C237.398 42.67 237.959 43.264 238.718 43.264C239.444 43.264 240.038 42.67 240.038 41.911V33.463C240.038 28.678 236.837 25.84 232.778 25.84C228.752 25.84 225.551 28.678 225.551 33.463V41.911ZM239.48 47.521C239.282 47.752 239.183 48.049 239.183 48.313C239.183 49.006 239.744 49.534 240.437 49.534C240.833 49.534 241.097 49.369 241.361 49.072L259.115 27.919C259.313 27.688 259.412 27.391 259.412 27.127C259.412 26.434 258.851 25.906 258.158 25.906C257.762 25.906 257.498 26.071 257.234 26.368L246.971 38.611V27.226C246.971 26.5 246.377 25.906 245.651 25.906C244.892 25.906 244.331 26.5 244.331 27.226V41.779L239.48 47.521ZM277.724 43.33C282.575 43.33 286.271 39.469 286.271 34.585C286.271 29.701 282.575 25.84 277.724 25.84C275.249 25.84 273.071 26.863 271.553 28.48V27.226C271.553 26.5 270.959 25.906 270.233 25.906C269.474 25.906 268.913 26.5 268.913 27.226V48.181C268.913 48.94 269.474 49.534 270.233 49.534C270.959 49.534 271.553 48.94 271.553 48.181V40.69C273.071 42.34 275.249 43.33 277.724 43.33ZM277.559 40.888C274.259 40.888 271.685 38.281 271.553 34.849V34.321C271.685 30.889 274.259 28.282 277.559 28.282C280.925 28.282 283.598 31.021 283.598 34.585C283.598 38.149 280.925 40.888 277.559 40.888ZM289.33 41.911C289.33 42.67 289.891 43.264 290.65 43.264C291.376 43.264 291.97 42.67 291.97 41.911V32.968C291.97 29.899 293.686 28.282 296.128 28.282C296.788 28.282 297.349 27.721 297.349 27.061C297.349 26.368 296.788 25.84 296.128 25.84C292.036 25.84 289.33 28.711 289.33 32.968V41.911ZM306.806 43.33C309.578 43.33 311.855 42.109 313.241 40.459C313.472 40.195 313.637 39.832 313.637 39.568C313.637 38.842 313.076 38.314 312.317 38.314C311.855 38.314 311.558 38.578 311.195 38.908C310.172 40.063 308.687 40.888 306.806 40.888C303.407 40.888 300.767 38.083 300.767 34.585C300.767 31.054 303.44 28.282 306.806 28.282C307.895 28.282 309.116 28.612 309.974 29.338L304.826 35.41C304.595 35.641 304.529 35.938 304.529 36.235C304.529 36.928 305.057 37.423 305.783 37.423C306.146 37.423 306.443 37.291 306.707 36.994L312.581 29.965C312.911 29.602 313.01 29.305 313.01 28.975C313.01 28.579 312.812 28.216 312.515 27.952C311.228 26.764 309.215 25.84 306.806 25.84C301.856 25.84 298.094 29.701 298.094 34.585C298.094 39.469 301.889 43.33 306.806 43.33ZM316.595 33.331C315.902 33.331 315.341 33.892 315.341 34.585C315.341 35.278 315.902 35.839 316.595 35.839H323.657C324.35 35.839 324.911 35.278 324.911 34.585C324.911 33.892 324.35 33.331 323.657 33.331H316.595ZM341.431 41.911C341.431 42.67 342.025 43.264 342.751 43.264C343.51 43.264 344.071 42.67 344.071 41.911V20.956C344.071 20.23 343.51 19.636 342.751 19.636C342.025 19.636 341.431 20.23 341.431 20.956V28.48C339.88 26.863 337.735 25.84 335.26 25.84C330.409 25.84 326.713 29.701 326.713 34.585C326.713 39.469 330.409 43.33 335.26 43.33C337.735 43.33 339.88 42.34 341.431 40.69V41.911ZM335.425 40.888C332.059 40.888 329.386 38.149 329.386 34.585C329.386 31.021 332.059 28.282 335.425 28.282C338.692 28.282 341.299 30.889 341.431 34.321V34.849C341.299 38.281 338.692 40.888 335.425 40.888ZM347.888 41.911C347.888 42.67 348.449 43.264 349.208 43.264C349.934 43.264 350.528 42.67 350.528 41.911V27.226C350.528 26.5 349.934 25.906 349.208 25.906C348.449 25.906 347.888 26.5 347.888 27.226V41.911ZM349.208 23.728C350.099 23.728 350.858 22.969 350.858 22.078C350.858 21.154 350.099 20.428 349.208 20.428C348.284 20.428 347.558 21.154 347.558 22.078C347.558 22.969 348.284 23.728 349.208 23.728ZM368.277 41.911C368.277 42.67 368.871 43.264 369.597 43.264C370.356 43.264 370.917 42.67 370.917 41.911V27.226C370.917 26.5 370.356 25.906 369.597 25.906C368.871 25.906 368.277 26.5 368.277 27.226V28.48C366.726 26.863 364.581 25.84 362.106 25.84C357.255 25.84 353.559 29.701 353.559 34.585C353.559 39.469 357.255 43.33 362.106 43.33C364.581 43.33 366.726 42.34 368.277 40.69V41.911ZM362.271 40.888C358.905 40.888 356.232 38.149 356.232 34.585C356.232 31.021 358.905 28.282 362.271 28.282C365.538 28.282 368.145 30.889 368.277 34.321V34.849C368.145 38.281 365.538 40.888 362.271 40.888ZM383.545 43.33C388.396 43.33 392.092 39.469 392.092 34.585C392.092 29.701 388.396 25.84 383.545 25.84C381.07 25.84 378.892 26.863 377.374 28.48V20.956C377.374 20.23 376.78 19.636 376.054 19.636C375.295 19.636 374.734 20.23 374.734 20.956V41.911C374.734 42.67 375.295 43.264 376.054 43.264C376.78 43.264 377.374 42.67 377.374 41.911V40.69C378.892 42.34 381.07 43.33 383.545 43.33ZM383.38 40.888C380.08 40.888 377.506 38.281 377.374 34.849V34.321C377.506 30.889 380.08 28.282 383.38 28.282C386.746 28.282 389.419 31.021 389.419 34.585C389.419 38.149 386.746 40.888 383.38 40.888ZM403.103 43.33C405.875 43.33 408.152 42.109 409.538 40.459C409.769 40.195 409.934 39.832 409.934 39.568C409.934 38.842 409.373 38.314 408.614 38.314C408.152 38.314 407.855 38.578 407.492 38.908C406.469 40.063 404.984 40.888 403.103 40.888C399.704 40.888 397.064 38.083 397.064 34.585C397.064 31.054 399.737 28.282 403.103 28.282C404.192 28.282 405.413 28.612 406.271 29.338L401.123 35.41C400.892 35.641 400.826 35.938 400.826 36.235C400.826 36.928 401.354 37.423 402.08 37.423C402.443 37.423 402.74 37.291 403.004 36.994L408.878 29.965C409.208 29.602 409.307 29.305 409.307 28.975C409.307 28.579 409.109 28.216 408.812 27.952C407.525 26.764 405.512 25.84 403.103 25.84C398.153 25.84 394.391 29.701 394.391 34.585C394.391 39.469 398.186 43.33 403.103 43.33ZM411.525 28.612H413.274V36.07C413.274 40.492 416.178 43.264 420.27 43.264C420.93 43.264 421.491 42.703 421.491 42.01C421.491 41.35 420.93 40.789 420.27 40.789C417.663 40.789 415.914 39.139 415.914 36.07V28.612H420.27C420.93 28.612 421.491 28.051 421.491 27.391C421.491 26.698 420.93 26.17 420.27 26.17H415.914V23.2C415.914 22.441 415.353 21.88 414.594 21.88C413.868 21.88 413.274 22.441 413.274 23.2V26.17H411.525C410.865 26.17 410.304 26.698 410.304 27.391C410.304 28.051 410.865 28.612 411.525 28.612ZM431.431 43.33C434.203 43.33 436.48 42.109 437.866 40.459C438.097 40.195 438.262 39.832 438.262 39.568C438.262 38.842 437.701 38.314 436.942 38.314C436.48 38.314 436.183 38.578 435.82 38.908C434.797 40.063 433.312 40.888 431.431 40.888C428.032 40.888 425.392 38.083 425.392 34.585C425.392 31.054 428.065 28.282 431.431 28.282C432.52 28.282 433.741 28.612 434.599 29.338L429.451 35.41C429.22 35.641 429.154 35.938 429.154 36.235C429.154 36.928 429.682 37.423 430.408 37.423C430.771 37.423 431.068 37.291 431.332 36.994L437.206 29.965C437.536 29.602 437.635 29.305 437.635 28.975C437.635 28.579 437.437 28.216 437.14 27.952C435.853 26.764 433.84 25.84 431.431 25.84C426.481 25.84 422.719 29.701 422.719 34.585C422.719 39.469 426.514 43.33 431.431 43.33ZM440.461 39.238C440.461 41.383 442.837 43.33 445.708 43.33C448.711 43.33 450.955 41.086 450.955 38.479C450.955 35.377 448.81 34.222 446.731 33.595C444.784 32.968 443.2 32.374 443.2 30.625C443.2 29.338 444.124 28.183 445.741 28.183C447.292 28.183 448.282 29.206 448.513 30.064C448.711 30.823 449.305 30.988 449.668 30.988C450.328 30.988 450.856 30.46 450.856 29.8C450.856 27.556 448.513 25.84 445.741 25.84C442.804 25.84 440.659 27.919 440.659 30.625C440.659 33.892 442.969 34.783 445.246 35.542C446.995 36.136 448.315 36.895 448.315 38.545C448.315 39.799 447.292 40.954 445.708 40.954C443.926 40.954 443.068 39.766 442.771 38.842C442.606 38.314 442.078 38.05 441.649 38.05C440.989 38.05 440.461 38.578 440.461 39.238ZM461.62 41.911C461.62 42.67 462.181 43.264 462.94 43.264C463.666 43.264 464.26 42.67 464.26 41.911V27.226C464.26 26.5 463.666 25.906 462.94 25.906C462.181 25.906 461.62 26.5 461.62 27.226V41.911ZM462.94 23.728C463.831 23.728 464.59 22.969 464.59 22.078C464.59 21.154 463.831 20.428 462.94 20.428C462.016 20.428 461.29 21.154 461.29 22.078C461.29 22.969 462.016 23.728 462.94 23.728ZM468.05 41.911C468.05 42.67 468.611 43.264 469.37 43.264C470.096 43.264 470.69 42.67 470.69 41.911V33.397C470.69 30.031 472.736 28.282 475.277 28.282C477.851 28.282 479.897 30.031 479.897 33.397V41.911C479.897 42.67 480.458 43.264 481.217 43.264C481.943 43.264 482.537 42.67 482.537 41.911V33.463C482.537 28.678 479.336 25.84 475.277 25.84C471.251 25.84 468.05 28.678 468.05 33.463V41.911ZM493.402 28.612H495.151V36.07C495.151 40.492 498.055 43.264 502.147 43.264C502.807 43.264 503.368 42.703 503.368 42.01C503.368 41.35 502.807 40.789 502.147 40.789C499.54 40.789 497.791 39.139 497.791 36.07V28.612H502.147C502.807 28.612 503.368 28.051 503.368 27.391C503.368 26.698 502.807 26.17 502.147 26.17H497.791V23.2C497.791 22.441 497.23 21.88 496.471 21.88C495.745 21.88 495.151 22.441 495.151 23.2V26.17H493.402C492.742 26.17 492.181 26.698 492.181 27.391C492.181 28.051 492.742 28.612 493.402 28.612ZM505.999 41.911C505.999 42.67 506.56 43.264 507.319 43.264C508.045 43.264 508.639 42.67 508.639 41.911V33.397C508.639 29.965 510.718 28.282 513.226 28.282C515.8 28.282 517.846 29.998 517.846 33.397V41.911C517.846 42.67 518.407 43.264 519.166 43.264C519.892 43.264 520.486 42.67 520.486 41.911V33.463C520.486 28.678 517.417 25.84 513.556 25.84C511.378 25.84 509.695 26.764 508.639 27.886V20.956C508.639 20.23 508.045 19.636 507.319 19.636C506.56 19.636 505.999 20.23 505.999 20.956V41.911ZM532.241 43.33C535.013 43.33 537.29 42.109 538.676 40.459C538.907 40.195 539.072 39.832 539.072 39.568C539.072 38.842 538.511 38.314 537.752 38.314C537.29 38.314 536.993 38.578 536.63 38.908C535.607 40.063 534.122 40.888 532.241 40.888C528.842 40.888 526.202 38.083 526.202 34.585C526.202 31.054 528.875 28.282 532.241 28.282C533.33 28.282 534.551 28.612 535.409 29.338L530.261 35.41C530.03 35.641 529.964 35.938 529.964 36.235C529.964 36.928 530.492 37.423 531.218 37.423C531.581 37.423 531.878 37.291 532.142 36.994L538.016 29.965C538.346 29.602 538.445 29.305 538.445 28.975C538.445 28.579 538.247 28.216 537.95 27.952C536.663 26.764 534.65 25.84 532.241 25.84C527.291 25.84 523.529 29.701 523.529 34.585C523.529 39.469 527.324 43.33 532.241 43.33ZM558.101 43.33C562.853 43.33 566.615 39.766 566.615 34.321V21.055C566.615 20.263 565.988 19.636 565.196 19.636C564.437 19.636 563.81 20.263 563.81 21.055V34.486C563.81 38.38 561.302 40.723 558.101 40.723C554.933 40.723 552.425 38.38 552.425 34.486V21.055C552.425 20.263 551.798 19.636 551.006 19.636C550.247 19.636 549.62 20.263 549.62 21.055V34.321C549.62 39.766 553.349 43.33 558.101 43.33ZM570.423 41.911C570.423 42.67 570.984 43.264 571.743 43.264C572.469 43.264 573.063 42.67 573.063 41.911V33.397C573.063 30.031 575.109 28.282 577.65 28.282C580.224 28.282 582.27 30.031 582.27 33.397V41.911C582.27 42.67 582.831 43.264 583.59 43.264C584.316 43.264 584.91 42.67 584.91 41.911V33.463C584.91 28.678 581.709 25.84 577.65 25.84C573.624 25.84 570.423 28.678 570.423 33.463V41.911ZM588.712 41.911C588.712 42.67 589.273 43.264 590.032 43.264C590.758 43.264 591.352 42.67 591.352 41.911V27.226C591.352 26.5 590.758 25.906 590.032 25.906C589.273 25.906 588.712 26.5 588.712 27.226V41.911ZM590.032 23.728C590.923 23.728 591.682 22.969 591.682 22.078C591.682 21.154 590.923 20.428 590.032 20.428C589.108 20.428 588.382 21.154 588.382 22.078C588.382 22.969 589.108 23.728 590.032 23.728ZM594.614 28.612H596.363V36.07C596.363 40.492 599.267 43.264 603.359 43.264C604.019 43.264 604.58 42.703 604.58 42.01C604.58 41.35 604.019 40.789 603.359 40.789C600.752 40.789 599.003 39.139 599.003 36.07V28.612H603.359C604.019 28.612 604.58 28.051 604.58 27.391C604.58 26.698 604.019 26.17 603.359 26.17H599.003V23.2C599.003 22.441 598.442 21.88 597.683 21.88C596.957 21.88 596.363 22.441 596.363 23.2V26.17H594.614C593.954 26.17 593.393 26.698 593.393 27.391C593.393 28.051 593.954 28.612 594.614 28.612ZM614.52 43.33C617.292 43.33 619.569 42.109 620.955 40.459C621.186 40.195 621.351 39.832 621.351 39.568C621.351 38.842 620.79 38.314 620.031 38.314C619.569 38.314 619.272 38.578 618.909 38.908C617.886 40.063 616.401 40.888 614.52 40.888C611.121 40.888 608.481 38.083 608.481 34.585C608.481 31.054 611.154 28.282 614.52 28.282C615.609 28.282 616.83 28.612 617.688 29.338L612.54 35.41C612.309 35.641 612.243 35.938 612.243 36.235C612.243 36.928 612.771 37.423 613.497 37.423C613.86 37.423 614.157 37.291 614.421 36.994L620.295 29.965C620.625 29.602 620.724 29.305 620.724 28.975C620.724 28.579 620.526 28.216 620.229 27.952C618.942 26.764 616.929 25.84 614.52 25.84C609.57 25.84 605.808 29.701 605.808 34.585C605.808 39.469 609.603 43.33 614.52 43.33ZM637.687 41.911C637.687 42.67 638.281 43.264 639.007 43.264C639.766 43.264 640.327 42.67 640.327 41.911V20.956C640.327 20.23 639.766 19.636 639.007 19.636C638.281 19.636 637.687 20.23 637.687 20.956V28.48C636.136 26.863 633.991 25.84 631.516 25.84C626.665 25.84 622.969 29.701 622.969 34.585C622.969 39.469 626.665 43.33 631.516 43.33C633.991 43.33 636.136 42.34 637.687 40.69V41.911ZM631.681 40.888C628.315 40.888 625.642 38.149 625.642 34.585C625.642 31.021 628.315 28.282 631.681 28.282C634.948 28.282 637.555 30.889 637.687 34.321V34.849C637.555 38.281 634.948 40.888 631.681 40.888ZM657.806 43.33C661.832 43.33 664.868 40.426 664.868 36.928C664.868 32.209 661.403 30.922 659.258 30.295L657.773 29.866C656.354 29.47 653.846 28.612 653.846 25.972C653.846 23.992 655.397 22.177 657.839 22.177C660.347 22.177 661.601 23.827 661.865 25.114C661.964 25.708 662.393 26.236 663.185 26.236C663.944 26.236 664.538 25.642 664.538 24.883C664.538 22.309 661.865 19.57 657.839 19.57C653.912 19.57 651.041 22.21 651.041 25.807C651.041 30.13 654.341 31.516 656.42 32.143L658.07 32.605C659.819 33.1 662.063 34.057 662.063 36.763C662.063 38.776 660.347 40.69 657.806 40.69C655.166 40.69 653.747 38.875 653.483 37.555C653.351 36.994 652.922 36.499 652.163 36.499C651.404 36.499 650.81 37.093 650.81 37.852C650.81 40.393 653.813 43.33 657.806 43.33ZM666.982 28.612H668.731V36.07C668.731 40.492 671.635 43.264 675.727 43.264C676.387 43.264 676.948 42.703 676.948 42.01C676.948 41.35 676.387 40.789 675.727 40.789C673.12 40.789 671.371 39.139 671.371 36.07V28.612H675.727C676.387 28.612 676.948 28.051 676.948 27.391C676.948 26.698 676.387 26.17 675.727 26.17H671.371V23.2C671.371 22.441 670.81 21.88 670.051 21.88C669.325 21.88 668.731 22.441 668.731 23.2V26.17H666.982C666.322 26.17 665.761 26.698 665.761 27.391C665.761 28.051 666.322 28.612 666.982 28.612ZM692.893 41.911C692.893 42.67 693.487 43.264 694.213 43.264C694.972 43.264 695.533 42.67 695.533 41.911V27.226C695.533 26.5 694.972 25.906 694.213 25.906C693.487 25.906 692.893 26.5 692.893 27.226V28.48C691.342 26.863 689.197 25.84 686.722 25.84C681.871 25.84 678.175 29.701 678.175 34.585C678.175 39.469 681.871 43.33 686.722 43.33C689.197 43.33 691.342 42.34 692.893 40.69V41.911ZM686.887 40.888C683.521 40.888 680.848 38.149 680.848 34.585C680.848 31.021 683.521 28.282 686.887 28.282C690.154 28.282 692.761 30.889 692.893 34.321V34.849C692.761 38.281 690.154 40.888 686.887 40.888ZM698.823 28.612H700.572V36.07C700.572 40.492 703.476 43.264 707.568 43.264C708.228 43.264 708.789 42.703 708.789 42.01C708.789 41.35 708.228 40.789 707.568 40.789C704.961 40.789 703.212 39.139 703.212 36.07V28.612H707.568C708.228 28.612 708.789 28.051 708.789 27.391C708.789 26.698 708.228 26.17 707.568 26.17H703.212V23.2C703.212 22.441 702.651 21.88 701.892 21.88C701.166 21.88 700.572 22.441 700.572 23.2V26.17H698.823C698.163 26.17 697.602 26.698 697.602 27.391C697.602 28.051 698.163 28.612 698.823 28.612ZM718.729 43.33C721.501 43.33 723.778 42.109 725.164 40.459C725.395 40.195 725.56 39.832 725.56 39.568C725.56 38.842 724.999 38.314 724.24 38.314C723.778 38.314 723.481 38.578 723.118 38.908C722.095 40.063 720.61 40.888 718.729 40.888C715.33 40.888 712.69 38.083 712.69 34.585C712.69 31.054 715.363 28.282 718.729 28.282C719.818 28.282 721.039 28.612 721.897 29.338L716.749 35.41C716.518 35.641 716.452 35.938 716.452 36.235C716.452 36.928 716.98 37.423 717.706 37.423C718.069 37.423 718.366 37.291 718.63 36.994L724.504 29.965C724.834 29.602 724.933 29.305 724.933 28.975C724.933 28.579 724.735 28.216 724.438 27.952C723.151 26.764 721.138 25.84 718.729 25.84C713.779 25.84 710.017 29.701 710.017 34.585C710.017 39.469 713.812 43.33 718.729 43.33ZM727.758 39.238C727.758 41.383 730.134 43.33 733.005 43.33C736.008 43.33 738.252 41.086 738.252 38.479C738.252 35.377 736.107 34.222 734.028 33.595C732.081 32.968 730.497 32.374 730.497 30.625C730.497 29.338 731.421 28.183 733.038 28.183C734.589 28.183 735.579 29.206 735.81 30.064C736.008 30.823 736.602 30.988 736.965 30.988C737.625 30.988 738.153 30.46 738.153 29.8C738.153 27.556 735.81 25.84 733.038 25.84C730.101 25.84 727.956 27.919 727.956 30.625C727.956 33.892 730.266 34.783 732.543 35.542C734.292 36.136 735.612 36.895 735.612 38.545C735.612 39.799 734.589 40.954 733.005 40.954C731.223 40.954 730.365 39.766 730.068 38.842C729.903 38.314 729.375 38.05 728.946 38.05C728.286 38.05 727.758 38.578 727.758 39.238ZM747.202 43.264C748.192 43.264 748.951 42.472 748.951 41.515C748.951 40.525 748.192 39.766 747.202 39.766C746.245 39.766 745.486 40.525 745.486 41.515C745.486 42.472 746.245 43.264 747.202 43.264ZM745.882 36.235C745.882 36.961 746.476 37.522 747.202 37.522C747.961 37.522 748.522 36.961 748.522 36.202V33.892L751.624 30.757C753.175 29.173 753.703 27.82 753.703 25.972C753.703 22.441 750.865 19.57 747.202 19.57C743.638 19.57 740.833 22.342 740.734 25.807C740.734 26.566 741.328 27.127 742.054 27.127C742.813 27.127 743.374 26.566 743.374 25.807C743.44 23.695 745.09 22.012 747.202 22.012C749.413 22.012 751.063 23.794 751.063 25.972C751.063 26.995 750.865 27.952 749.842 29.041L746.509 32.44C746.014 32.968 745.882 33.298 745.882 33.826V36.235ZM104.66 83.086C104.396 83.383 104.33 83.647 104.33 83.944C104.33 84.67 104.924 85.264 105.65 85.264C106.013 85.264 106.442 85.033 106.673 84.769L121.886 66.586V76.651H115.946C115.22 76.651 114.659 77.245 114.659 77.971C114.659 78.697 115.22 79.258 115.946 79.258H121.886V83.845C121.886 84.604 122.513 85.264 123.305 85.264C124.064 85.264 124.691 84.604 124.691 83.845V63.055C124.691 62.263 124.064 61.636 123.305 61.636C122.909 61.636 122.513 61.801 122.15 62.197L104.66 83.086ZM129.684 85.264C130.641 85.264 131.4 84.472 131.4 83.515C131.4 82.525 130.641 81.766 129.684 81.766C128.694 81.766 127.935 82.525 127.935 83.515C127.935 84.472 128.694 85.264 129.684 85.264ZM150.18 85.33C155.13 85.33 158.859 81.469 158.859 76.585C158.859 71.701 155.13 67.84 150.18 67.84C145.23 67.84 141.468 71.701 141.468 76.585C141.468 81.469 145.23 85.33 150.18 85.33ZM150.18 82.888C146.781 82.888 144.141 80.05 144.141 76.585C144.141 73.087 146.781 70.282 150.18 70.282C153.579 70.282 156.186 73.087 156.186 76.585C156.186 80.05 153.579 82.888 150.18 82.888ZM161.934 83.911C161.934 84.67 162.495 85.264 163.254 85.264C163.98 85.264 164.574 84.67 164.574 83.911V75.397C164.574 72.031 166.62 70.282 169.161 70.282C171.735 70.282 173.781 72.031 173.781 75.397V83.911C173.781 84.67 174.342 85.264 175.101 85.264C175.827 85.264 176.421 84.67 176.421 83.911V75.463C176.421 70.678 173.22 67.84 169.161 67.84C165.135 67.84 161.934 70.678 161.934 75.463V83.911ZM188.176 85.33C190.948 85.33 193.225 84.109 194.611 82.459C194.842 82.195 195.007 81.832 195.007 81.568C195.007 80.842 194.446 80.314 193.687 80.314C193.225 80.314 192.928 80.578 192.565 80.908C191.542 82.063 190.057 82.888 188.176 82.888C184.777 82.888 182.137 80.083 182.137 76.585C182.137 73.054 184.81 70.282 188.176 70.282C189.265 70.282 190.486 70.612 191.344 71.338L186.196 77.41C185.965 77.641 185.899 77.938 185.899 78.235C185.899 78.928 186.427 79.423 187.153 79.423C187.516 79.423 187.813 79.291 188.077 78.994L193.951 71.965C194.281 71.602 194.38 71.305 194.38 70.975C194.38 70.579 194.182 70.216 193.885 69.952C192.598 68.764 190.585 67.84 188.176 67.84C183.226 67.84 179.464 71.701 179.464 76.585C179.464 81.469 183.259 85.33 188.176 85.33ZM205.555 83.911C205.555 84.67 206.116 85.264 206.875 85.264C207.601 85.264 208.195 84.67 208.195 83.911V69.226C208.195 68.5 207.601 67.906 206.875 67.906C206.116 67.906 205.555 68.5 205.555 69.226V83.911ZM206.875 65.728C207.766 65.728 208.525 64.969 208.525 64.078C208.525 63.154 207.766 62.428 206.875 62.428C205.951 62.428 205.225 63.154 205.225 64.078C205.225 64.969 205.951 65.728 206.875 65.728ZM211.985 83.911C211.985 84.67 212.546 85.264 213.305 85.264C214.031 85.264 214.625 84.67 214.625 83.911V75.397C214.625 72.031 216.671 70.282 219.212 70.282C221.786 70.282 223.832 72.031 223.832 75.397V83.911C223.832 84.67 224.393 85.264 225.152 85.264C225.878 85.264 226.472 84.67 226.472 83.911V75.463C226.472 70.678 223.271 67.84 219.212 67.84C215.186 67.84 211.985 70.678 211.985 75.463V83.911ZM237.336 70.612H239.085V78.07C239.085 82.492 241.989 85.264 246.081 85.264C246.741 85.264 247.302 84.703 247.302 84.01C247.302 83.35 246.741 82.789 246.081 82.789C243.474 82.789 241.725 81.139 241.725 78.07V70.612H246.081C246.741 70.612 247.302 70.051 247.302 69.391C247.302 68.698 246.741 68.17 246.081 68.17H241.725V65.2C241.725 64.441 241.164 63.88 240.405 63.88C239.679 63.88 239.085 64.441 239.085 65.2V68.17H237.336C236.676 68.17 236.115 68.698 236.115 69.391C236.115 70.051 236.676 70.612 237.336 70.612ZM251.253 85.264C251.682 85.264 251.946 85.132 252.243 84.802L259.074 76.651V83.911C259.074 84.67 259.668 85.264 260.394 85.264C260.823 85.264 261.12 85.132 261.384 84.802L273.858 69.919C274.056 69.688 274.155 69.391 274.155 69.127C274.155 68.434 273.627 67.906 272.901 67.906C272.538 67.906 272.241 68.071 271.977 68.368L261.714 80.611V69.226C261.714 68.5 261.153 67.906 260.394 67.906C259.668 67.906 259.074 68.5 259.074 69.226V72.823L252.573 80.611V69.226C252.573 68.5 251.979 67.906 251.253 67.906C250.494 67.906 249.933 68.5 249.933 69.226V83.911C249.933 84.67 250.494 85.264 251.253 85.264ZM282.363 85.33C285.135 85.33 287.412 84.109 288.798 82.459C289.029 82.195 289.194 81.832 289.194 81.568C289.194 80.842 288.633 80.314 287.874 80.314C287.412 80.314 287.115 80.578 286.752 80.908C285.729 82.063 284.244 82.888 282.363 82.888C278.964 82.888 276.324 80.083 276.324 76.585C276.324 73.054 278.997 70.282 282.363 70.282C283.452 70.282 284.673 70.612 285.531 71.338L280.383 77.41C280.152 77.641 280.086 77.938 280.086 78.235C280.086 78.928 280.614 79.423 281.34 79.423C281.703 79.423 282 79.291 282.264 78.994L288.138 71.965C288.468 71.602 288.567 71.305 288.567 70.975C288.567 70.579 288.369 70.216 288.072 69.952C286.785 68.764 284.772 67.84 282.363 67.84C277.413 67.84 273.651 71.701 273.651 76.585C273.651 81.469 277.446 85.33 282.363 85.33ZM292.151 83.911C292.151 84.67 292.712 85.264 293.471 85.264C294.197 85.264 294.791 84.67 294.791 83.911V75.397C294.791 72.031 296.837 70.282 299.378 70.282C301.952 70.282 303.998 72.031 303.998 75.397V83.911C303.998 84.67 304.559 85.264 305.318 85.264C306.044 85.264 306.638 84.67 306.638 83.911V75.463C306.638 70.678 303.437 67.84 299.378 67.84C295.352 67.84 292.151 70.678 292.151 75.463V83.911ZM309.075 70.612H310.824V78.07C310.824 82.492 313.728 85.264 317.82 85.264C318.48 85.264 319.041 84.703 319.041 84.01C319.041 83.35 318.48 82.789 317.82 82.789C315.213 82.789 313.464 81.139 313.464 78.07V70.612H317.82C318.48 70.612 319.041 70.051 319.041 69.391C319.041 68.698 318.48 68.17 317.82 68.17H313.464V65.2C313.464 64.441 312.903 63.88 312.144 63.88C311.418 63.88 310.824 64.441 310.824 65.2V68.17H309.075C308.415 68.17 307.854 68.698 307.854 69.391C307.854 70.051 308.415 70.612 309.075 70.612ZM317.473 89.521C317.275 89.752 317.176 90.049 317.176 90.313C317.176 91.006 317.737 91.534 318.43 91.534C318.826 91.534 319.09 91.369 319.354 91.072L337.108 69.919C337.306 69.688 337.405 69.391 337.405 69.127C337.405 68.434 336.844 67.906 336.151 67.906C335.755 67.906 335.491 68.071 335.227 68.368L324.964 80.611V69.226C324.964 68.5 324.37 67.906 323.644 67.906C322.885 67.906 322.324 68.5 322.324 69.226V83.779L317.473 89.521ZM345.191 85.264C346.181 85.264 346.94 84.472 346.94 83.515C346.94 82.525 346.181 81.766 345.191 81.766C344.234 81.766 343.475 82.525 343.475 83.515C343.475 84.472 344.234 85.264 345.191 85.264ZM343.871 78.235C343.871 78.961 344.465 79.522 345.191 79.522C345.95 79.522 346.511 78.961 346.511 78.202V75.892L349.613 72.757C351.164 71.173 351.692 69.82 351.692 67.972C351.692 64.441 348.854 61.57 345.191 61.57C341.627 61.57 338.822 64.342 338.723 67.807C338.723 68.566 339.317 69.127 340.043 69.127C340.802 69.127 341.363 68.566 341.363 67.807C341.429 65.695 343.079 64.012 345.191 64.012C347.402 64.012 349.052 65.794 349.052 67.972C349.052 68.995 348.854 69.952 347.831 71.041L344.498 74.44C344.003 74.968 343.871 75.298 343.871 75.826V78.235ZM385.291 83.581C385.291 84.373 385.918 85 386.677 85H392.32C396.148 85 398.92 82.162 398.92 78.664C398.92 76.354 397.6 74.11 395.059 73.219C397.501 72.328 398.59 70.183 398.59 68.104C398.59 64.672 395.884 61.9 392.122 61.9H386.677C385.918 61.9 385.291 62.527 385.291 63.286V83.581ZM388.096 82.393V64.507H391.726C394.135 64.507 395.686 66.157 395.686 68.269C395.686 70.348 394.036 71.998 391.957 71.998H390.868C390.142 71.998 389.581 72.592 389.581 73.318C389.581 74.044 390.142 74.605 390.868 74.605H392.155C394.3 74.605 396.016 76.354 396.016 78.499C396.016 80.677 394.399 82.393 391.924 82.393H388.096ZM402.802 85.264C403.759 85.264 404.518 84.472 404.518 83.515C404.518 82.525 403.759 81.766 402.802 81.766C401.812 81.766 401.053 82.525 401.053 83.515C401.053 84.472 401.812 85.264 402.802 85.264ZM423.297 85.33C428.247 85.33 431.976 81.469 431.976 76.585C431.976 71.701 428.247 67.84 423.297 67.84C418.347 67.84 414.585 71.701 414.585 76.585C414.585 81.469 418.347 85.33 423.297 85.33ZM423.297 82.888C419.898 82.888 417.258 80.05 417.258 76.585C417.258 73.087 419.898 70.282 423.297 70.282C426.696 70.282 429.303 73.087 429.303 76.585C429.303 80.05 426.696 82.888 423.297 82.888ZM435.052 83.911C435.052 84.67 435.613 85.264 436.372 85.264C437.098 85.264 437.692 84.67 437.692 83.911V75.397C437.692 72.031 439.738 70.282 442.279 70.282C444.853 70.282 446.899 72.031 446.899 75.397V83.911C446.899 84.67 447.46 85.264 448.219 85.264C448.945 85.264 449.539 84.67 449.539 83.911V75.463C449.539 70.678 446.338 67.84 442.279 67.84C438.253 67.84 435.052 70.678 435.052 75.463V83.911ZM461.294 85.33C464.066 85.33 466.343 84.109 467.729 82.459C467.96 82.195 468.125 81.832 468.125 81.568C468.125 80.842 467.564 80.314 466.805 80.314C466.343 80.314 466.046 80.578 465.683 80.908C464.66 82.063 463.175 82.888 461.294 82.888C457.895 82.888 455.255 80.083 455.255 76.585C455.255 73.054 457.928 70.282 461.294 70.282C462.383 70.282 463.604 70.612 464.462 71.338L459.314 77.41C459.083 77.641 459.017 77.938 459.017 78.235C459.017 78.928 459.545 79.423 460.271 79.423C460.634 79.423 460.931 79.291 461.195 78.994L467.069 71.965C467.399 71.602 467.498 71.305 467.498 70.975C467.498 70.579 467.3 70.216 467.003 69.952C465.716 68.764 463.703 67.84 461.294 67.84C456.344 67.84 452.582 71.701 452.582 76.585C452.582 81.469 456.377 85.33 461.294 85.33ZM478.672 83.911C478.672 84.67 479.233 85.264 479.992 85.264C480.718 85.264 481.312 84.67 481.312 83.911V69.226C481.312 68.5 480.718 67.906 479.992 67.906C479.233 67.906 478.672 68.5 478.672 69.226V83.911ZM479.992 65.728C480.883 65.728 481.642 64.969 481.642 64.078C481.642 63.154 480.883 62.428 479.992 62.428C479.068 62.428 478.342 63.154 478.342 64.078C478.342 64.969 479.068 65.728 479.992 65.728ZM485.102 83.911C485.102 84.67 485.663 85.264 486.422 85.264C487.148 85.264 487.742 84.67 487.742 83.911V75.397C487.742 72.031 489.788 70.282 492.329 70.282C494.903 70.282 496.949 72.031 496.949 75.397V83.911C496.949 84.67 497.51 85.264 498.269 85.264C498.995 85.264 499.589 84.67 499.589 83.911V75.463C499.589 70.678 496.388 67.84 492.329 67.84C488.303 67.84 485.102 70.678 485.102 75.463V83.911ZM510.453 70.612H512.202V78.07C512.202 82.492 515.106 85.264 519.198 85.264C519.858 85.264 520.419 84.703 520.419 84.01C520.419 83.35 519.858 82.789 519.198 82.789C516.591 82.789 514.842 81.139 514.842 78.07V70.612H519.198C519.858 70.612 520.419 70.051 520.419 69.391C520.419 68.698 519.858 68.17 519.198 68.17H514.842V65.2C514.842 64.441 514.281 63.88 513.522 63.88C512.796 63.88 512.202 64.441 512.202 65.2V68.17H510.453C509.793 68.17 509.232 68.698 509.232 69.391C509.232 70.051 509.793 70.612 510.453 70.612ZM530.359 85.33C533.131 85.33 535.408 84.109 536.794 82.459C537.025 82.195 537.19 81.832 537.19 81.568C537.19 80.842 536.629 80.314 535.87 80.314C535.408 80.314 535.111 80.578 534.748 80.908C533.725 82.063 532.24 82.888 530.359 82.888C526.96 82.888 524.32 80.083 524.32 76.585C524.32 73.054 526.993 70.282 530.359 70.282C531.448 70.282 532.669 70.612 533.527 71.338L528.379 77.41C528.148 77.641 528.082 77.938 528.082 78.235C528.082 78.928 528.61 79.423 529.336 79.423C529.699 79.423 529.996 79.291 530.26 78.994L536.134 71.965C536.464 71.602 536.563 71.305 536.563 70.975C536.563 70.579 536.365 70.216 536.068 69.952C534.781 68.764 532.768 67.84 530.359 67.84C525.409 67.84 521.647 71.701 521.647 76.585C521.647 81.469 525.442 85.33 530.359 85.33ZM540.148 83.911C540.148 84.67 540.709 85.264 541.468 85.264C542.194 85.264 542.788 84.67 542.788 83.911V75.397C542.788 72.031 544.834 70.282 547.375 70.282C549.949 70.282 551.995 72.031 551.995 75.397V83.911C551.995 84.67 552.556 85.264 553.315 85.264C554.041 85.264 554.635 84.67 554.635 83.911V75.463C554.635 70.678 551.434 67.84 547.375 67.84C543.349 67.84 540.148 70.678 540.148 75.463V83.911ZM563.956 85.264C564.946 85.264 565.705 84.472 565.705 83.515C565.705 82.525 564.946 81.766 563.956 81.766C562.999 81.766 562.24 82.525 562.24 83.515C562.24 84.472 562.999 85.264 563.956 85.264ZM562.636 78.235C562.636 78.961 563.23 79.522 563.956 79.522C564.715 79.522 565.276 78.961 565.276 78.202V75.892L568.378 72.757C569.929 71.173 570.457 69.82 570.457 67.972C570.457 64.441 567.619 61.57 563.956 61.57C560.392 61.57 557.587 64.342 557.488 67.807C557.488 68.566 558.082 69.127 558.808 69.127C559.567 69.127 560.128 68.566 560.128 67.807C560.194 65.695 561.844 64.012 563.956 64.012C566.167 64.012 567.817 65.794 567.817 67.972C567.817 68.995 567.619 69.952 566.596 71.041L563.263 74.44C562.768 74.968 562.636 75.298 562.636 75.826V78.235ZM607.456 85.33C611.152 85.33 614.353 83.647 616.399 81.139C616.663 80.875 616.795 80.479 616.795 80.182C616.795 79.39 616.168 78.796 615.376 78.796C615.013 78.796 614.617 78.994 614.254 79.357C612.67 81.304 610.294 82.624 607.456 82.624C602.506 82.624 598.612 78.565 598.612 73.45C598.612 68.302 602.506 64.243 607.456 64.243C610.294 64.243 612.67 65.563 614.254 67.543C614.617 67.873 615.013 68.104 615.376 68.104C616.168 68.104 616.795 67.477 616.795 66.718C616.795 66.388 616.663 66.025 616.399 65.728C614.353 63.253 611.152 61.57 607.456 61.57C600.889 61.57 595.708 66.817 595.708 73.45C595.708 80.083 600.889 85.33 607.456 85.33ZM619.617 85.264C620.574 85.264 621.333 84.472 621.333 83.515C621.333 82.525 620.574 81.766 619.617 81.766C618.627 81.766 617.868 82.525 617.868 83.515C617.868 84.472 618.627 85.264 619.617 85.264ZM640.113 85.33C645.063 85.33 648.792 81.469 648.792 76.585C648.792 71.701 645.063 67.84 640.113 67.84C635.163 67.84 631.401 71.701 631.401 76.585C631.401 81.469 635.163 85.33 640.113 85.33ZM640.113 82.888C636.714 82.888 634.074 80.05 634.074 76.585C634.074 73.087 636.714 70.282 640.113 70.282C643.512 70.282 646.119 73.087 646.119 76.585C646.119 80.05 643.512 82.888 640.113 82.888ZM651.867 83.911C651.867 84.67 652.428 85.264 653.187 85.264C653.913 85.264 654.507 84.67 654.507 83.911V75.397C654.507 72.031 656.553 70.282 659.094 70.282C661.668 70.282 663.714 72.031 663.714 75.397V83.911C663.714 84.67 664.275 85.264 665.034 85.264C665.76 85.264 666.354 84.67 666.354 83.911V75.463C666.354 70.678 663.153 67.84 659.094 67.84C655.068 67.84 651.867 70.678 651.867 75.463V83.911ZM678.109 85.33C680.881 85.33 683.158 84.109 684.544 82.459C684.775 82.195 684.94 81.832 684.94 81.568C684.94 80.842 684.379 80.314 683.62 80.314C683.158 80.314 682.861 80.578 682.498 80.908C681.475 82.063 679.99 82.888 678.109 82.888C674.71 82.888 672.07 80.083 672.07 76.585C672.07 73.054 674.743 70.282 678.109 70.282C679.198 70.282 680.419 70.612 681.277 71.338L676.129 77.41C675.898 77.641 675.832 77.938 675.832 78.235C675.832 78.928 676.36 79.423 677.086 79.423C677.449 79.423 677.746 79.291 678.01 78.994L683.884 71.965C684.214 71.602 684.313 71.305 684.313 70.975C684.313 70.579 684.115 70.216 683.818 69.952C682.531 68.764 680.518 67.84 678.109 67.84C673.159 67.84 669.397 71.701 669.397 76.585C669.397 81.469 673.192 85.33 678.109 85.33ZM695.487 83.911C695.487 84.67 696.048 85.264 696.807 85.264C697.533 85.264 698.127 84.67 698.127 83.911V69.226C698.127 68.5 697.533 67.906 696.807 67.906C696.048 67.906 695.487 68.5 695.487 69.226V83.911ZM696.807 65.728C697.698 65.728 698.457 64.969 698.457 64.078C698.457 63.154 697.698 62.428 696.807 62.428C695.883 62.428 695.157 63.154 695.157 64.078C695.157 64.969 695.883 65.728 696.807 65.728ZM701.917 83.911C701.917 84.67 702.478 85.264 703.237 85.264C703.963 85.264 704.557 84.67 704.557 83.911V75.397C704.557 72.031 706.603 70.282 709.144 70.282C711.718 70.282 713.764 72.031 713.764 75.397V83.911C713.764 84.67 714.325 85.264 715.084 85.264C715.81 85.264 716.404 84.67 716.404 83.911V75.463C716.404 70.678 713.203 67.84 709.144 67.84C705.118 67.84 701.917 70.678 701.917 75.463V83.911ZM727.268 70.612H729.017V78.07C729.017 82.492 731.921 85.264 736.013 85.264C736.673 85.264 737.234 84.703 737.234 84.01C737.234 83.35 736.673 82.789 736.013 82.789C733.406 82.789 731.657 81.139 731.657 78.07V70.612H736.013C736.673 70.612 737.234 70.051 737.234 69.391C737.234 68.698 736.673 68.17 736.013 68.17H731.657V65.2C731.657 64.441 731.096 63.88 730.337 63.88C729.611 63.88 729.017 64.441 729.017 65.2V68.17H727.268C726.608 68.17 726.047 68.698 726.047 69.391C726.047 70.051 726.608 70.612 727.268 70.612ZM739.866 83.911C739.866 84.67 740.427 85.264 741.186 85.264C741.912 85.264 742.506 84.67 742.506 83.911V75.397C742.506 71.965 744.585 70.282 747.093 70.282C749.667 70.282 751.713 71.998 751.713 75.397V83.911C751.713 84.67 752.274 85.264 753.033 85.264C753.759 85.264 754.353 84.67 754.353 83.911V75.463C754.353 70.678 751.284 67.84 747.423 67.84C745.245 67.84 743.562 68.764 742.506 69.886V62.956C742.506 62.23 741.912 61.636 741.186 61.636C740.427 61.636 739.866 62.23 739.866 62.956V83.911ZM758.155 83.911C758.155 84.67 758.716 85.264 759.475 85.264C760.201 85.264 760.795 84.67 760.795 83.911V74.968C760.795 71.899 762.511 70.282 764.953 70.282C765.613 70.282 766.174 69.721 766.174 69.061C766.174 68.368 765.613 67.84 764.953 67.84C760.861 67.84 758.155 70.711 758.155 74.968V83.911ZM775.632 85.33C778.404 85.33 780.681 84.109 782.067 82.459C782.298 82.195 782.463 81.832 782.463 81.568C782.463 80.842 781.902 80.314 781.143 80.314C780.681 80.314 780.384 80.578 780.021 80.908C778.998 82.063 777.513 82.888 775.632 82.888C772.233 82.888 769.593 80.083 769.593 76.585C769.593 73.054 772.266 70.282 775.632 70.282C776.721 70.282 777.942 70.612 778.8 71.338L773.652 77.41C773.421 77.641 773.355 77.938 773.355 78.235C773.355 78.928 773.883 79.423 774.609 79.423C774.972 79.423 775.269 79.291 775.533 78.994L781.407 71.965C781.737 71.602 781.836 71.305 781.836 70.975C781.836 70.579 781.638 70.216 781.341 69.952C780.054 68.764 778.041 67.84 775.632 67.84C770.682 67.84 766.92 71.701 766.92 76.585C766.92 81.469 770.715 85.33 775.632 85.33ZM792.793 85.33C795.565 85.33 797.842 84.109 799.228 82.459C799.459 82.195 799.624 81.832 799.624 81.568C799.624 80.842 799.063 80.314 798.304 80.314C797.842 80.314 797.545 80.578 797.182 80.908C796.159 82.063 794.674 82.888 792.793 82.888C789.394 82.888 786.754 80.083 786.754 76.585C786.754 73.054 789.427 70.282 792.793 70.282C793.882 70.282 795.103 70.612 795.961 71.338L790.813 77.41C790.582 77.641 790.516 77.938 790.516 78.235C790.516 78.928 791.044 79.423 791.77 79.423C792.133 79.423 792.43 79.291 792.694 78.994L798.568 71.965C798.898 71.602 798.997 71.305 798.997 70.975C798.997 70.579 798.799 70.216 798.502 69.952C797.215 68.764 795.202 67.84 792.793 67.84C787.843 67.84 784.081 71.701 784.081 76.585C784.081 81.469 787.876 85.33 792.793 85.33ZM807.746 85.264C808.736 85.264 809.495 84.472 809.495 83.515C809.495 82.525 808.736 81.766 807.746 81.766C806.789 81.766 806.03 82.525 806.03 83.515C806.03 84.472 806.789 85.264 807.746 85.264ZM806.426 78.235C806.426 78.961 807.02 79.522 807.746 79.522C808.505 79.522 809.066 78.961 809.066 78.202V75.892L812.168 72.757C813.719 71.173 814.247 69.82 814.247 67.972C814.247 64.441 811.409 61.57 807.746 61.57C804.182 61.57 801.377 64.342 801.278 67.807C801.278 68.566 801.872 69.127 802.598 69.127C803.357 69.127 803.918 68.566 803.918 67.807C803.984 65.695 805.634 64.012 807.746 64.012C809.957 64.012 811.607 65.794 811.607 67.972C811.607 68.995 811.409 69.952 810.386 71.041L807.053 74.44C806.558 74.968 806.426 75.298 806.426 75.826V78.235Z" fill="black"/>
<path d="M31.385 21.44C30.935 22.655 31.835 23.825 33.05 23.825C33.68 23.825 34.445 23.555 34.76 22.655L38.09 13.655C38.54 12.44 37.685 11.225 36.425 11.225C35.84 11.225 35.03 11.54 34.715 12.395L31.385 21.44ZM37.91 21.44C37.46 22.655 38.36 23.825 39.575 23.825C40.205 23.825 40.97 23.555 41.285 22.655L44.615 13.655C45.065 12.44 44.21 11.225 42.95 11.225C42.365 11.225 41.555 11.54 41.24 12.395L37.91 21.44Z" fill="black"/>
<path d="M975.385 95.44C974.935 96.655 975.835 97.825 977.05 97.825C977.68 97.825 978.445 97.555 978.76 96.655L982.09 87.655C982.54 86.44 981.685 85.225 980.425 85.225C979.84 85.225 979.03 85.54 978.715 86.395L975.385 95.44ZM981.91 95.44C981.46 96.655 982.36 97.825 983.575 97.825C984.205 97.825 984.97 97.555 985.285 96.655L988.615 87.655C989.065 86.44 988.21 85.225 986.95 85.225C986.365 85.225 985.555 85.54 985.24 86.395L981.91 95.44Z" fill="black"/>
</svg>
