<svg width="848" height="281" viewBox="0 0 848 281" fill="none" xmlns="http://www.w3.org/2000/svg">
<g clip-path="url(#clip0)">
<path d="M236.3 191.5C238.7 190.9 240.6 188.8 240.9 186.3C247 185.5 251.4 181.5 251.4 176.7C251.4 171.3 245.7 167 238.7 167C231.7 167 226 171.4 226 176.7C226 181.4 230.4 185.5 236.5 186.3C236.7 187.8 236.4 189.3 235.6 190.6L234.9 191.8L236.3 191.5Z" stroke="black" stroke-width="3.2" stroke-miterlimit="10" stroke-linecap="round" stroke-linejoin="round"/>
<path d="M129.6 173.6C132 173 133.9 170.9 134.2 168.4C140.3 167.6 144.7 163.6 144.7 158.8C144.7 153.4 139 149.1 132 149.1C125 149.1 119.3 153.5 119.3 158.8C119.3 163.5 123.7 167.6 129.8 168.4C130 169.9 129.7 171.4 128.9 172.7L128.2 173.9L129.6 173.6Z" stroke="black" stroke-width="3.2" stroke-miterlimit="10" stroke-linecap="round" stroke-linejoin="round"/>
<path d="M192.5 96.7002C194.9 96.1002 196.8 94.0002 197.1 91.5002C203.2 90.7002 207.6 86.7002 207.6 81.9002C207.6 76.5002 201.9 72.2002 194.9 72.2002C187.9 72.2002 182.2 76.6002 182.2 81.9002C182.2 86.6002 186.6 90.7002 192.7 91.5002C192.9 93.0002 192.6 94.5002 191.8 95.8002L191.1 97.0002L192.5 96.7002Z" stroke="black" stroke-width="3.2" stroke-miterlimit="10" stroke-linecap="round" stroke-linejoin="round"/>
<path d="M551.5 185.2C555.6 184.2 558.6 180.7 559.2 176.5C559.2 176.5 559.2 176.4 559.3 176.4C569.4 175 576.8 168.3 576.8 160.4C576.8 151.4 567.3 144.1 555.6 144.1C543.9 144.1 534.4 151.4 534.4 160.4C534.4 168.3 541.8 175 551.9 176.4C551.9 176.4 551.9 176.4 552 176.5C552.4 179 551.9 181.6 550.5 183.7L549.3 185.7L551.5 185.2Z" stroke="black" stroke-width="3.2" stroke-miterlimit="10" stroke-linecap="round" stroke-linejoin="round"/>
<path d="M544.4 154.4C543.5 154.4 542.8 155.1 542.8 156C542.8 156.9 543.5 157.6 544.4 157.6H567.9C568.8 157.6 569.5 156.9 569.5 156C569.5 155.1 568.8 154.4 567.9 154.4H544.4Z" fill="black"/>
<path d="M544.4 159.9C543.4 159.9 542.7 160.8 542.8 161.8C542.9 162.6 543.7 163.1 544.5 163.1H558.8C559.7 163.1 560.4 162.4 560.4 161.5C560.4 160.6 559.7 159.9 558.8 159.9H544.4V159.9Z" fill="black"/>
<path d="M211 126.1C213.4 125.5 215.3 123.4 215.6 120.9C221.7 120.1 226.1 116.1 226.1 111.3C226.1 105.9 220.4 101.6 213.4 101.6C206.4 101.6 200.7 106 200.7 111.3C200.7 116 205.1 120.1 211.2 120.9C211.4 122.4 211.1 123.9 210.3 125.2L209.6 126.4L211 126.1Z" stroke="black" stroke-width="3.2" stroke-miterlimit="10" stroke-linecap="round" stroke-linejoin="round"/>
<path d="M240.3 155.4C242.7 154.8 244.6 152.7 244.9 150.2C251 149.4 255.4 145.4 255.4 140.6C255.4 135.2 249.7 130.9 242.7 130.9C235.7 130.9 230 135.3 230 140.6C230 145.3 234.4 149.4 240.5 150.2C240.7 151.7 240.4 153.2 239.6 154.5L238.9 155.7L240.3 155.4Z" stroke="black" stroke-width="3.2" stroke-miterlimit="10" stroke-linecap="round" stroke-linejoin="round"/>
<path d="M246.3 116.9C248.7 116.3 250.6 114.2 250.9 111.7C257 110.9 261.4 106.9 261.4 102.1C261.4 96.6999 255.7 92.3999 248.7 92.3999C241.7 92.3999 236 96.7999 236 102.1C236 106.8 240.4 110.9 246.5 111.7C246.7 113.2 246.4 114.7 245.6 116L244.9 117.2L246.3 116.9Z" stroke="black" stroke-width="3.2" stroke-miterlimit="10" stroke-linecap="round" stroke-linejoin="round"/>
<path d="M198.3 187.6C200.7 187 202.6 184.9 202.9 182.4C209 181.6 213.4 177.6 213.4 172.8C213.4 167.4 207.7 163.1 200.7 163.1C193.7 163.1 188 167.5 188 172.8C188 177.5 192.4 181.6 198.5 182.4C198.7 183.9 198.4 185.4 197.6 186.7L197 188L198.3 187.6Z" stroke="black" stroke-width="3.2" stroke-miterlimit="10" stroke-linecap="round" stroke-linejoin="round"/>
<path d="M205.2 155.4C207.6 154.8 209.5 152.7 209.8 150.2C215.9 149.4 220.3 145.4 220.3 140.6C220.3 135.2 214.6 130.9 207.6 130.9C200.6 130.9 194.9 135.3 194.9 140.6C194.9 145.3 199.3 149.4 205.4 150.2C205.6 151.7 205.3 153.2 204.5 154.5L203.8 155.7L205.2 155.4Z" stroke="black" stroke-width="3.2" stroke-miterlimit="10" stroke-linecap="round" stroke-linejoin="round"/>
<path d="M175.6 153.7C178 153.1 179.9 151 180.2 148.5C186.3 147.7 190.7 143.7 190.7 138.9C190.7 133.5 185 129.2 178 129.2C171 129.2 165.3 133.6 165.3 138.9C165.3 143.6 169.7 147.7 175.8 148.5C176 150 175.7 151.5 174.9 152.8L174.2 154L175.6 153.7Z" stroke="black" stroke-width="3.2" stroke-miterlimit="10" stroke-linecap="round" stroke-linejoin="round"/>
<path d="M126.8 119.7C129.2 119.1 131.1 117 131.4 114.5C137.5 113.7 141.9 109.7 141.9 104.9C141.9 99.5002 136.2 95.2002 129.2 95.2002C122.2 95.2002 116.6 99.5002 116.6 104.9C116.6 109.6 121 113.7 127.1 114.5C127.3 116 127 117.5 126.2 118.8L125.5 120L126.8 119.7Z" stroke="black" stroke-width="3.2" stroke-miterlimit="10" stroke-linecap="round" stroke-linejoin="round"/>
<path d="M170.6 119C173 118.4 174.9 116.3 175.2 113.8C181.3 113 185.7 109 185.7 104.2C185.7 98.8 180 94.5 173 94.5C166 94.5 160.3 98.9 160.3 104.2C160.3 108.9 164.7 113 170.8 113.8C171 115.3 170.7 116.8 169.9 118.1L169.2 119.3L170.6 119Z" stroke="black" stroke-width="3.2" stroke-miterlimit="10" stroke-linecap="round" stroke-linejoin="round"/>
<path d="M145.5 138.5C147.9 137.9 149.8 135.8 150.1 133.3C156.2 132.5 160.6 128.5 160.6 123.7C160.6 118.3 154.9 114 147.9 114C140.9 114 135.2 118.4 135.2 123.7C135.2 128.4 139.6 132.5 145.7 133.3C145.9 134.8 145.6 136.3 144.8 137.6L144.1 138.8L145.5 138.5Z" stroke="black" stroke-width="3.2" stroke-miterlimit="10" stroke-linecap="round" stroke-linejoin="round"/>
<path d="M167.6 191.5C170 190.9 171.9 188.8 172.2 186.3C178.3 185.5 182.7 181.5 182.7 176.7C182.7 171.3 177 167 170 167C163 167 157.3 171.4 157.3 176.7C157.3 181.4 161.7 185.5 167.8 186.3C168 187.8 167.7 189.3 166.9 190.6L166.2 191.8L167.6 191.5Z" stroke="black" stroke-width="3.2" stroke-miterlimit="10" stroke-linecap="round" stroke-linejoin="round"/>
<path d="M552.1 73.6C556.2 72.6 559.2 69.1 559.8 64.9C559.8 64.9 559.8 64.8 559.9 64.8C570 63.4 577.4 56.7 577.4 48.8C577.4 39.8 567.9 32.5 556.2 32.5C544.5 32.5 535 39.9 535 48.9C535 56.8 542.4 63.5 552.5 64.9C552.5 64.9 552.5 64.9 552.6 65C553 67.5 552.5 70.1 551.1 72.2L549.9 74.2L552.1 73.6Z" stroke="black" stroke-width="3.2" stroke-miterlimit="10" stroke-linecap="round" stroke-linejoin="round"/>
<path d="M545 41.3999C544.1 41.3999 543.4 42.0999 543.4 42.9999C543.4 43.8999 544.1 44.5999 545 44.5999H568.5C569.4 44.5999 570.1 43.8999 570.1 42.9999C570.1 42.0999 569.4 41.3999 568.5 41.3999H545Z" fill="black"/>
<path d="M543.4 53.1999C543.2 54.1999 544 55.0999 545 55.0999H558.6C559.5 55.0999 560.2 54.3999 560.2 53.4999C560.2 52.5999 559.5 51.8999 558.6 51.8999H545.1C544.3 51.8999 543.6 52.3999 543.4 53.1999Z" fill="black"/>
<path d="M545 46.8999C544.1 46.8999 543.4 47.5999 543.4 48.4999C543.4 49.3999 544.1 50.0999 545 50.0999H568.5C569.4 50.0999 570.1 49.3999 570.1 48.4999C570.1 47.5999 569.4 46.8999 568.5 46.8999H545Z" fill="black"/>
<path d="M373.5 223.3H366.5H360.4V196.9H430.2C430.9 196.9 431.6 196.5 431.8 195.8C432.2 194.7 431.3 193.7 430.3 193.7H358.9C358 193.7 357.3 194.4 357.3 195.3V225C357.3 225.9 358 226.6 358.9 226.6H362.9H367.2H373.4C374.2 226.6 374.9 226.1 375.1 225.3C375.2 224.2 374.5 223.3 373.5 223.3Z" fill="black"/>
<path d="M389.1 218.6H405.4C406.3 218.6 407 217.9 407 217C407 216.1 406.3 215.4 405.4 215.4H389.1C388.2 215.4 387.5 216.1 387.5 217C387.5 217.9 388.2 218.6 389.1 218.6Z" fill="black"/>
<path d="M467.9 218.6H484.2C485.1 218.6 485.8 217.9 485.8 217C485.8 216.1 485.1 215.4 484.2 215.4H467.9C467 215.4 466.3 216.1 466.3 217C466.3 217.9 467.1 218.6 467.9 218.6Z" fill="black"/>
<path d="M546.8 218.6H563.1C564 218.6 564.7 217.9 564.7 217C564.7 216.1 564 215.4 563.1 215.4H546.8C545.9 215.4 545.2 216.1 545.2 217C545.2 217.9 545.9 218.6 546.8 218.6Z" fill="black"/>
<path d="M625.6 218.6H641.9C642.8 218.6 643.5 217.9 643.5 217C643.5 216.1 642.8 215.4 641.9 215.4H625.6C624.7 215.4 624 216.1 624 217C624 217.9 624.7 218.6 625.6 218.6Z" fill="black"/>
<path d="M685.3 195.3C685.3 196.2 684.6 196.9 683.7 196.9H440.2C439.4 196.9 438.7 196.4 438.5 195.6C438.3 194.6 439.1 193.7 440.1 193.7H683.7C684.6 193.6 685.3 194.4 685.3 195.3Z" fill="black"/>
<path d="M387.8 223.3H683.8C684.7 223.3 685.4 224 685.4 224.9C685.4 225.8 684.7 226.5 683.8 226.5H379.9C378.8 226.5 378 225.5 378.4 224.4C378.6 223.7 379.3 223.3 380 223.3H387.8Z" fill="black"/>
<path d="M683.7 195.3L708 207.3C710.4 208.5 710.4 211.9 708 213L683.7 225" stroke="black" stroke-width="3.2" stroke-miterlimit="10" stroke-linecap="round" stroke-linejoin="round"/>
<path d="M188.3 80.3999C187.4 80.3999 186.7 81.0999 186.7 81.9999C186.7 82.8999 187.4 83.5999 188.3 83.5999H201.5C202.4 83.5999 203.1 82.8999 203.1 81.9999C203.1 81.0999 202.4 80.3999 201.5 80.3999H188.3Z" fill="black"/>
<path d="M206.8 109.7C205.9 109.7 205.2 110.4 205.2 111.3C205.2 112.2 205.9 112.9 206.8 112.9H220C220.9 112.9 221.6 112.2 221.6 111.3C221.6 110.4 220.9 109.7 220 109.7H206.8Z" fill="black"/>
<path d="M203 139C202.1 139 201.4 139.7 201.4 140.6C201.4 141.5 202.1 142.2 203 142.2H214.2C215.1 142.2 215.8 141.5 215.8 140.6C215.8 139.7 215.1 139 214.2 139H203Z" fill="black"/>
<path d="M172.5 137.7C171.6 137.7 170.9 138.4 170.9 139.3C170.9 140.2 171.6 140.9 172.5 140.9H184.7C185.6 140.9 186.3 140.2 186.3 139.3C186.3 138.4 185.6 137.7 184.7 137.7H172.5Z" fill="black"/>
<path d="M289.7 137.7H316.4" stroke="black" stroke-width="3.2" stroke-miterlimit="10" stroke-linecap="round" stroke-linejoin="round"/>
<path d="M289.7 150H316.4" stroke="black" stroke-width="3.2" stroke-miterlimit="10" stroke-linecap="round" stroke-linejoin="round"/>
<path d="M322.7 126.4L334 143.3L322.7 160" stroke="black" stroke-width="3.2" stroke-miterlimit="10" stroke-linecap="round" stroke-linejoin="round"/>
<path d="M552.1 129.5C556.2 128.5 559.2 125 559.8 120.8C559.8 120.8 559.8 120.7 559.9 120.7C570 119.3 577.4 112.6 577.4 104.7C577.4 95.6999 567.9 88.3999 556.2 88.3999C544.5 88.3999 535 95.7999 535 104.7C535 112.6 542.4 119.3 552.5 120.7C552.5 120.7 552.5 120.7 552.6 120.8C553 123.3 552.5 125.9 551.1 128L549.9 130L552.1 129.5Z" stroke="black" stroke-width="3.2" stroke-miterlimit="10" stroke-linecap="round" stroke-linejoin="round"/>
<path d="M545 97.2998C544.1 97.2998 543.4 97.9998 543.4 98.8998C543.4 99.7998 544.1 100.5 545 100.5H568.5C569.4 100.5 570.1 99.7998 570.1 98.8998C570.1 97.9998 569.4 97.2998 568.5 97.2998H545Z" fill="black"/>
<path d="M543.4 109.1C543.2 110.1 544 111 545 111H558.6C559.5 111 560.2 110.3 560.2 109.4C560.2 108.5 559.5 107.8 558.6 107.8H545.1C544.3 107.8 543.6 108.3 543.4 109.1Z" fill="black"/>
<path d="M545 102.8C544.1 102.8 543.4 103.5 543.4 104.4C543.4 105.3 544.1 106 545 106H568.5C569.4 106 570.1 105.3 570.1 104.4C570.1 103.5 569.4 102.8 568.5 102.8H545Z" fill="black"/>
<path d="M633.6 183.7C637.7 182.7 640.7 179.2 641.3 175C641.3 175 641.3 174.9 641.4 174.9C651.5 173.5 658.9 166.8 658.9 158.9C658.9 149.9 649.4 142.6 637.7 142.6C626 142.6 616.5 149.9 616.5 158.9C616.5 166.8 623.9 173.5 634 174.9C634 174.9 634 174.9 634.1 175C634.5 177.5 634 180.1 632.6 182.2L631.4 184.2L633.6 183.7Z" stroke="black" stroke-width="3.2" stroke-miterlimit="10" stroke-linecap="round" stroke-linejoin="round"/>
<path d="M626.5 151.5C625.6 151.5 624.9 152.2 624.9 153.1C624.9 154 625.6 154.7 626.5 154.7H650C650.9 154.7 651.6 154 651.6 153.1C651.6 152.2 650.9 151.5 650 151.5H626.5Z" fill="black"/>
<path d="M625 163.3C624.8 164.3 625.6 165.2 626.6 165.2H640.2C641.1 165.2 641.8 164.5 641.8 163.6C641.8 162.7 641.1 162 640.2 162H626.7C625.8 161.9 625.1 162.5 625 163.3Z" fill="black"/>
<path d="M626.5 157C625.6 157 624.9 157.7 624.9 158.6C624.9 159.5 625.6 160.2 626.5 160.2H650C650.9 160.2 651.6 159.5 651.6 158.6C651.6 157.7 650.9 157 650 157H626.5Z" fill="black"/>
<path d="M474.6 185.2C478.7 184.2 481.7 180.7 482.3 176.5C482.3 176.5 482.3 176.4 482.4 176.4C492.5 175 499.9 168.3 499.9 160.4C499.9 151.4 490.4 144.1 478.7 144.1C467 144.1 457.5 151.4 457.5 160.4C457.5 168.3 464.9 175 475 176.4C475 176.4 475 176.4 475.1 176.5C475.5 179 475 181.6 473.6 183.7L472.4 185.7L474.6 185.2Z" stroke="black" stroke-width="3.2" stroke-miterlimit="10" stroke-linecap="round" stroke-linejoin="round"/>
<path d="M467.5 154.4C466.6 154.4 465.9 155.1 465.9 156C465.9 156.9 466.6 157.6 467.5 157.6H491C491.9 157.6 492.6 156.9 492.6 156C492.6 155.1 491.9 154.4 491 154.4H467.5Z" fill="black"/>
<path d="M467.5 159.9C466.5 159.9 465.8 160.8 465.9 161.8C466 162.6 466.8 163.1 467.6 163.1H481.9C482.8 163.1 483.5 162.4 483.5 161.5C483.5 160.6 482.8 159.9 481.9 159.9H467.5V159.9Z" fill="black"/>
<path d="M398.2 127.7C402.3 126.7 405.3 123.2 405.9 119C405.9 119 405.9 118.9 406 118.9C416.1 117.5 423.5 110.8 423.5 102.9C423.5 93.9001 414 86.6001 402.3 86.6001C390.6 86.6001 381.1 94.0001 381.1 103C381.1 110.9 388.5 117.6 398.6 119C398.6 119 398.6 119 398.7 119.1C399.1 121.6 398.6 124.2 397.2 126.3L396 128.3L398.2 127.7Z" stroke="black" stroke-width="3.2" stroke-miterlimit="10" stroke-linecap="round" stroke-linejoin="round"/>
<path d="M391.1 95.5C390.2 95.5 389.5 96.2 389.5 97.1C389.5 98 390.2 98.7 391.1 98.7H414.6C415.5 98.7 416.2 98 416.2 97.1C416.2 96.2 415.5 95.5 414.6 95.5H391.1Z" fill="black"/>
<path d="M389.5 107.3C389.3 108.3 390.1 109.2 391.1 109.2H404.7C405.6 109.2 406.3 108.5 406.3 107.6C406.3 106.7 405.6 106 404.7 106H391.2C390.4 106 389.7 106.5 389.5 107.3Z" fill="black"/>
<path d="M391.1 101C390.2 101 389.5 101.7 389.5 102.6C389.5 103.5 390.2 104.2 391.1 104.2H414.6C415.5 104.2 416.2 103.5 416.2 102.6C416.2 101.7 415.5 101 414.6 101H391.1Z" fill="black"/>
<path d="M398.2 183.7C402.3 182.7 405.3 179.2 405.9 175C405.9 175 405.9 174.9 406 174.9C416.1 173.5 423.5 166.8 423.5 158.9C423.5 149.9 414 142.6 402.3 142.6C390.6 142.6 381.1 149.9 381.1 158.9C381.1 166.8 388.5 173.5 398.6 174.9C398.6 174.9 398.6 174.9 398.7 175C399.1 177.5 398.6 180.1 397.2 182.2L396 184.2L398.2 183.7Z" stroke="black" stroke-width="3.2" stroke-miterlimit="10" stroke-linecap="round" stroke-linejoin="round"/>
<path d="M391.1 151.6C390.2 151.6 389.5 152.3 389.5 153.2C389.5 154.1 390.2 154.8 391.1 154.8H414.6C415.5 154.8 416.2 154.1 416.2 153.2C416.2 152.3 415.5 151.6 414.6 151.6H391.1Z" fill="black"/>
<path d="M389.5 163.4C389.3 164.4 390.1 165.3 391.1 165.3H404.7C405.6 165.3 406.3 164.6 406.3 163.7C406.3 162.8 405.6 162.1 404.7 162.1H391.2C390.4 162 389.7 162.6 389.5 163.4Z" fill="black"/>
<path d="M391.1 157.1C390.2 157.1 389.5 157.8 389.5 158.7C389.5 159.6 390.2 160.3 391.1 160.3H414.6C415.5 160.3 416.2 159.6 416.2 158.7C416.2 157.8 415.5 157.1 414.6 157.1H391.1Z" fill="black"/>
</g>
<defs>
<clipPath id="clip0">
<rect x="115" y="31" width="596.4" height="195.5" fill="white"/>
</clipPath>
</defs>
</svg>
