<svg width="504" height="360" viewBox="0 0 504 360" fill="none" xmlns="http://www.w3.org/2000/svg">
<path d="M293.3 108.1C295.7 107.5 297.6 105.4 297.9 102.9C304 102.1 308.4 98.1001 308.4 93.3001C308.4 87.9001 302.7 83.6001 295.7 83.6001C288.7 83.6001 283 88.0001 283 93.3001C283 98.0001 287.4 102.1 293.5 102.9C293.7 104.4 293.4 105.9 292.6 107.2L291.9 108.4L293.3 108.1Z" stroke="black" stroke-width="3.2" stroke-miterlimit="10" stroke-linecap="round" stroke-linejoin="round"/>
<path d="M123.6 89.3999C126 88.7999 127.9 86.6999 128.2 84.1999C134.3 83.3999 138.7 79.3999 138.7 74.5999C138.7 69.1999 133 64.8999 126 64.8999C119 64.8999 113.3 69.2999 113.3 74.5999C113.3 79.2999 117.7 83.3999 123.8 84.1999C124 85.6999 123.7 87.1999 122.9 88.4999L122.2 89.6999L123.6 89.3999Z" stroke="black" stroke-width="3.2" stroke-miterlimit="10" stroke-linecap="round" stroke-linejoin="round"/>
<path d="M227.3 96.5C229.7 95.9 231.6 93.8 231.9 91.3C238 90.5 242.4 86.5 242.4 81.7C242.4 76.3 236.7 72 229.7 72C222.7 72 217 76.4 217 81.7C217 86.4 221.4 90.5 227.5 91.3C227.7 92.8 227.4 94.3 226.6 95.6L225.9 96.8L227.3 96.5Z" stroke="black" stroke-width="3.2" stroke-miterlimit="10" stroke-linecap="round" stroke-linejoin="round"/>
<path d="M263.2 297.5C267.3 296.5 270.3 293 270.9 288.8C270.9 288.8 270.9 288.7 271 288.7C281.1 287.3 288.5 280.6 288.5 272.7C288.5 263.7 279 256.4 267.3 256.4C255.6 256.4 246.1 263.7 246.1 272.7C246.1 280.6 253.5 287.3 263.6 288.7C263.6 288.7 263.6 288.7 263.7 288.8C264.1 291.3 263.6 293.9 262.2 296L261 298L263.2 297.5Z" stroke="black" stroke-width="3.2" stroke-miterlimit="10" stroke-linecap="round" stroke-linejoin="round"/>
<path d="M256.1 266.7C255.2 266.7 254.5 267.4 254.5 268.3C254.5 269.2 255.2 269.9 256.1 269.9H279.6C280.5 269.9 281.2 269.2 281.2 268.3C281.2 267.4 280.5 266.7 279.6 266.7H256.1Z" fill="black"/>
<path d="M256.1 272.2C255.1 272.2 254.4 273.1 254.5 274.1C254.6 274.9 255.4 275.4 256.2 275.4H270.5C271.4 275.4 272.1 274.7 272.1 273.8C272.1 272.9 271.4 272.2 270.5 272.2H256.1V272.2Z" fill="black"/>
<path d="M231.3 33.5C233.7 32.9 235.6 30.8 235.9 28.3C242 27.5 246.4 23.5 246.4 18.7C246.4 13.3 240.7 9 233.7 9C226.7 9 221 13.4 221 18.7C221 23.4 225.4 27.5 231.5 28.3C231.7 29.8 231.4 31.3 230.6 32.6L229.9 33.8L231.3 33.5Z" stroke="black" stroke-width="3.2" stroke-miterlimit="10" stroke-linecap="round" stroke-linejoin="round"/>
<path d="M297.3 72C299.7 71.4 301.6 69.3 301.9 66.8C308 66 312.4 62 312.4 57.2C312.4 51.8 306.7 47.5 299.7 47.5C292.7 47.5 287 51.9 287 57.2C287 61.9 291.4 66 297.5 66.8C297.7 68.3 297.4 69.8 296.6 71.1L295.9 72.3L297.3 72Z" stroke="black" stroke-width="3.2" stroke-miterlimit="10" stroke-linecap="round" stroke-linejoin="round"/>
<path d="M303.3 33.5C305.7 32.9 307.6 30.8 307.9 28.3C314 27.5 318.4 23.5 318.4 18.7C318.4 13.3 312.7 9 305.7 9C298.7 9 293 13.4 293 18.7C293 23.4 297.4 27.5 303.5 28.3C303.7 29.8 303.4 31.3 302.6 32.6L301.9 33.8L303.3 33.5Z" stroke="black" stroke-width="3.2" stroke-miterlimit="10" stroke-linecap="round" stroke-linejoin="round"/>
<path d="M192.3 103.4C194.7 102.8 196.6 100.7 196.9 98.1999C203 97.3999 207.4 93.3999 207.4 88.5999C207.4 83.1999 201.7 78.8999 194.7 78.8999C187.7 78.8999 182 83.2999 182 88.5999C182 93.2999 186.4 97.3999 192.5 98.1999C192.7 99.6999 192.4 101.2 191.6 102.5L191 103.8L192.3 103.4Z" stroke="black" stroke-width="3.2" stroke-miterlimit="10" stroke-linecap="round" stroke-linejoin="round"/>
<path d="M248.3 67.5C250.7 66.9 252.6 64.8 252.9 62.3C259 61.5 263.4 57.5 263.4 52.7C263.4 47.3 257.7 43 250.7 43C243.7 43 238 47.4 238 52.7C238 57.4 242.4 61.5 248.5 62.3C248.7 63.8 248.4 65.3 247.6 66.6L246.9 67.8L248.3 67.5Z" stroke="black" stroke-width="3.2" stroke-miterlimit="10" stroke-linecap="round" stroke-linejoin="round"/>
<path d="M194.3 56.4758C196.7 55.8274 198.6 53.5581 198.9 50.8565C205 49.9919 209.4 45.6694 209.4 40.4823C209.4 34.6468 203.7 30 196.7 30C189.7 30 184 34.7548 184 40.4823C184 45.5613 188.4 49.9919 194.5 50.8565C194.7 52.4774 194.4 54.0984 193.6 55.5032L192.9 56.8L194.3 56.4758Z" stroke="black" stroke-width="3.2" stroke-miterlimit="10" stroke-linecap="round" stroke-linejoin="round"/>
<path d="M120.8 35.5C123.2 34.9 125.1 32.8 125.4 30.3C131.5 29.5 135.9 25.5 135.9 20.7C135.9 15.3 130.2 11 123.2 11C116.2 11 110.6 15.3 110.6 20.7C110.6 25.4 115 29.5 121.1 30.3C121.3 31.8 121 33.3 120.2 34.6L119.5 35.8L120.8 35.5Z" stroke="black" stroke-width="3.2" stroke-miterlimit="10" stroke-linecap="round" stroke-linejoin="round"/>
<path d="M164.6 34.7998C167 34.1998 168.9 32.0998 169.2 29.5998C175.3 28.7998 179.7 24.7998 179.7 19.9998C179.7 14.5998 174 10.2998 167 10.2998C160 10.2998 154.3 14.6998 154.3 19.9998C154.3 24.6998 158.7 28.7998 164.8 29.5998C165 31.0998 164.7 32.5998 163.9 33.8998L163.2 35.0998L164.6 34.7998Z" stroke="black" stroke-width="3.2" stroke-miterlimit="10" stroke-linecap="round" stroke-linejoin="round"/>
<path d="M139.5 54.2998C141.9 53.6998 143.8 51.5998 144.1 49.0998C150.2 48.2998 154.6 44.2998 154.6 39.4998C154.6 34.0998 148.9 29.7998 141.9 29.7998C134.9 29.7998 129.2 34.1998 129.2 39.4998C129.2 44.1998 133.6 48.2998 139.7 49.0998C139.9 50.5998 139.6 52.0998 138.8 53.3998L138.1 54.5998L139.5 54.2998Z" stroke="black" stroke-width="3.2" stroke-miterlimit="10" stroke-linecap="round" stroke-linejoin="round"/>
<path d="M161.6 107.3C164 106.7 165.9 104.6 166.2 102.1C172.3 101.3 176.7 97.2998 176.7 92.4998C176.7 87.0998 171 82.7998 164 82.7998C157 82.7998 151.3 87.1998 151.3 92.4998C151.3 97.1998 155.7 101.3 161.8 102.1C162 103.6 161.7 105.1 160.9 106.4L160.2 107.6L161.6 107.3Z" stroke="black" stroke-width="3.2" stroke-miterlimit="10" stroke-linecap="round" stroke-linejoin="round"/>
<path d="M189.1 238.9C193.2 237.9 196.2 234.4 196.8 230.2C196.8 230.2 196.8 230.1 196.9 230.1C207 228.7 214.4 222 214.4 214.1C214.4 205.1 204.9 197.8 193.2 197.8C181.5 197.8 172 205.2 172 214.2C172 222.1 179.4 228.8 189.5 230.2C189.5 230.2 189.5 230.2 189.6 230.3C190 232.8 189.5 235.4 188.1 237.5L186.9 239.5L189.1 238.9Z" stroke="black" stroke-width="3.2" stroke-miterlimit="10" stroke-linecap="round" stroke-linejoin="round"/>
<path d="M182 206.7C181.1 206.7 180.4 207.4 180.4 208.3C180.4 209.2 181.1 209.9 182 209.9H205.5C206.4 209.9 207.1 209.2 207.1 208.3C207.1 207.4 206.4 206.7 205.5 206.7H182Z" fill="black"/>
<path d="M180.4 218.5C180.2 219.5 181 220.4 182 220.4H195.6C196.5 220.4 197.2 219.7 197.2 218.8C197.2 217.9 196.5 217.2 195.6 217.2H182.1C181.3 217.2 180.6 217.7 180.4 218.5Z" fill="black"/>
<path d="M182 212.2C181.1 212.2 180.4 212.9 180.4 213.8C180.4 214.7 181.1 215.4 182 215.4H205.5C206.4 215.4 207.1 214.7 207.1 213.8C207.1 212.9 206.4 212.2 205.5 212.2H182Z" fill="black"/>
<path d="M85.2 335.6H78.2H72.1V309.2H141.9C142.6 309.2 143.3 308.8 143.5 308.1C143.9 307 143 306 142 306H70.6C69.7 306 69 306.7 69 307.6V337.3C69 338.2 69.7 338.9 70.6 338.9H74.6H78.9H85.1C85.9 338.9 86.6 338.4 86.8 337.6C86.9 336.5 86.2 335.6 85.2 335.6Z" fill="black"/>
<path d="M100.8 330.9H117.1C118 330.9 118.7 330.2 118.7 329.3C118.7 328.4 118 327.7 117.1 327.7H100.8C99.9002 327.7 99.2002 328.4 99.2002 329.3C99.2002 330.2 99.9002 330.9 100.8 330.9Z" fill="black"/>
<path d="M179.6 330.9H195.9C196.8 330.9 197.5 330.2 197.5 329.3C197.5 328.4 196.8 327.7 195.9 327.7H179.6C178.7 327.7 178 328.4 178 329.3C178 330.2 178.8 330.9 179.6 330.9Z" fill="black"/>
<path d="M258.5 330.9H274.8C275.7 330.9 276.4 330.2 276.4 329.3C276.4 328.4 275.7 327.7 274.8 327.7H258.5C257.6 327.7 256.9 328.4 256.9 329.3C256.9 330.2 257.6 330.9 258.5 330.9Z" fill="black"/>
<path d="M337.3 330.9H353.6C354.5 330.9 355.2 330.2 355.2 329.3C355.2 328.4 354.5 327.7 353.6 327.7H337.3C336.4 327.7 335.7 328.4 335.7 329.3C335.7 330.2 336.4 330.9 337.3 330.9Z" fill="black"/>
<path d="M397 307.6C397 308.5 396.3 309.2 395.4 309.2H151.9C151.1 309.2 150.4 308.7 150.2 307.9C150 306.9 150.8 306 151.8 306H395.4C396.3 305.9 397 306.7 397 307.6Z" fill="black"/>
<path d="M99.4997 335.6H395.5C396.4 335.6 397.1 336.3 397.1 337.2C397.1 338.1 396.4 338.8 395.5 338.8H91.5997C90.4997 338.8 89.6997 337.8 90.0997 336.7C90.2997 336 90.9997 335.6 91.6997 335.6H99.4997Z" fill="black"/>
<path d="M395.4 307.6L419.7 319.6C422.1 320.8 422.1 324.2 419.7 325.3L395.4 337.3" stroke="black" stroke-width="3.2" stroke-miterlimit="10" stroke-linecap="round" stroke-linejoin="round"/>
<path d="M223.1 80.1997C222.2 80.1997 221.5 80.8997 221.5 81.7997C221.5 82.6997 222.2 83.3997 223.1 83.3997H236.3C237.2 83.3997 237.9 82.6997 237.9 81.7997C237.9 80.8997 237.2 80.1997 236.3 80.1997H223.1Z" fill="black"/>
<path d="M227.1 17.1001C226.2 17.1001 225.5 17.8001 225.5 18.7001C225.5 19.6001 226.2 20.3001 227.1 20.3001H240.3C241.2 20.3001 241.9 19.6001 241.9 18.7001C241.9 17.8001 241.2 17.1001 240.3 17.1001H227.1Z" fill="black"/>
<path d="M246.1 51.1001C245.2 51.1001 244.5 51.8001 244.5 52.7001C244.5 53.6001 245.2 54.3001 246.1 54.3001H257.3C258.2 54.3001 258.9 53.6001 258.9 52.7001C258.9 51.8001 258.2 51.1001 257.3 51.1001H246.1Z" fill="black"/>
<path d="M191.259 39C190.382 39 189.7 39.875 189.7 41C189.7 42.125 190.382 43 191.259 43H203.142C204.018 43 204.7 42.125 204.7 41C204.7 39.875 204.018 39 203.142 39H191.259Z" fill="black"/>
<path d="M228 133L228 151" stroke="black" stroke-width="3.2" stroke-miterlimit="10" stroke-linecap="round" stroke-linejoin="round"/>
<path d="M205 133L205 151" stroke="black" stroke-width="3.2" stroke-miterlimit="10" stroke-linecap="round" stroke-linejoin="round"/>
<path d="M238 151L216.875 172L196 151" stroke="black" stroke-width="3.2" stroke-miterlimit="10" stroke-linecap="round" stroke-linejoin="round"/>
<path d="M263.8 241.8C267.9 240.8 270.9 237.3 271.5 233.1C271.5 233.1 271.5 233 271.6 233C281.7 231.6 289.1 224.9 289.1 217C289.1 208 279.6 200.7 267.9 200.7C256.2 200.7 246.7 208.1 246.7 217C246.7 224.9 254.1 231.6 264.2 233C264.2 233 264.2 233 264.3 233.1C264.7 235.6 264.2 238.2 262.8 240.3L261.6 242.3L263.8 241.8Z" stroke="black" stroke-width="3.2" stroke-miterlimit="10" stroke-linecap="round" stroke-linejoin="round"/>
<path d="M256.7 209.6C255.8 209.6 255.1 210.3 255.1 211.2C255.1 212.1 255.8 212.8 256.7 212.8H280.2C281.1 212.8 281.8 212.1 281.8 211.2C281.8 210.3 281.1 209.6 280.2 209.6H256.7Z" fill="black"/>
<path d="M255.1 221.4C254.9 222.4 255.7 223.3 256.7 223.3H270.3C271.2 223.3 271.9 222.6 271.9 221.7C271.9 220.8 271.2 220.1 270.3 220.1H256.8C256 220.1 255.3 220.6 255.1 221.4Z" fill="black"/>
<path d="M256.7 215.1C255.8 215.1 255.1 215.8 255.1 216.7C255.1 217.6 255.8 218.3 256.7 218.3H280.2C281.1 218.3 281.8 217.6 281.8 216.7C281.8 215.8 281.1 215.1 280.2 215.1H256.7Z" fill="black"/>
<path d="M345.3 296C349.4 295 352.4 291.5 353 287.3C353 287.3 353 287.2 353.1 287.2C363.2 285.8 370.6 279.1 370.6 271.2C370.6 262.2 361.1 254.9 349.4 254.9C337.7 254.9 328.2 262.2 328.2 271.2C328.2 279.1 335.6 285.8 345.7 287.2C345.7 287.2 345.7 287.2 345.8 287.3C346.2 289.8 345.7 292.4 344.3 294.5L343.1 296.5L345.3 296Z" stroke="black" stroke-width="3.2" stroke-miterlimit="10" stroke-linecap="round" stroke-linejoin="round"/>
<path d="M338.2 263.8C337.3 263.8 336.6 264.5 336.6 265.4C336.6 266.3 337.3 267 338.2 267H361.7C362.6 267 363.3 266.3 363.3 265.4C363.3 264.5 362.6 263.8 361.7 263.8H338.2Z" fill="black"/>
<path d="M336.7 275.6C336.5 276.6 337.3 277.5 338.3 277.5H351.9C352.8 277.5 353.5 276.8 353.5 275.9C353.5 275 352.8 274.3 351.9 274.3H338.4C337.5 274.2 336.8 274.8 336.7 275.6Z" fill="black"/>
<path d="M338.2 269.3C337.3 269.3 336.6 270 336.6 270.9C336.6 271.8 337.3 272.5 338.2 272.5H361.7C362.6 272.5 363.3 271.8 363.3 270.9C363.3 270 362.6 269.3 361.7 269.3H338.2Z" fill="black"/>
<path d="M186.3 297.5C190.4 296.5 193.4 293 194 288.8C194 288.8 194 288.7 194.1 288.7C204.2 287.3 211.6 280.6 211.6 272.7C211.6 263.7 202.1 256.4 190.4 256.4C178.7 256.4 169.2 263.7 169.2 272.7C169.2 280.6 176.6 287.3 186.7 288.7C186.7 288.7 186.7 288.7 186.8 288.8C187.2 291.3 186.7 293.9 185.3 296L184.1 298L186.3 297.5Z" stroke="black" stroke-width="3.2" stroke-miterlimit="10" stroke-linecap="round" stroke-linejoin="round"/>
<path d="M179.2 266.7C178.3 266.7 177.6 267.4 177.6 268.3C177.6 269.2 178.3 269.9 179.2 269.9H202.7C203.6 269.9 204.3 269.2 204.3 268.3C204.3 267.4 203.6 266.7 202.7 266.7H179.2Z" fill="black"/>
<path d="M179.2 272.2C178.2 272.2 177.5 273.1 177.6 274.1C177.7 274.9 178.5 275.4 179.3 275.4H193.6C194.5 275.4 195.2 274.7 195.2 273.8C195.2 272.9 194.5 272.2 193.6 272.2H179.2V272.2Z" fill="black"/>
<path d="M109.9 240C114 239 117 235.5 117.6 231.3C117.6 231.3 117.6 231.2 117.7 231.2C127.8 229.8 135.2 223.1 135.2 215.2C135.2 206.2 125.7 198.9 114 198.9C102.3 198.9 92.7998 206.3 92.7998 215.3C92.7998 223.2 100.2 229.9 110.3 231.3C110.3 231.3 110.3 231.3 110.4 231.4C110.8 233.9 110.3 236.5 108.9 238.6L107.7 240.6L109.9 240Z" stroke="black" stroke-width="3.2" stroke-miterlimit="10" stroke-linecap="round" stroke-linejoin="round"/>
<path d="M102.8 207.8C101.9 207.8 101.2 208.5 101.2 209.4C101.2 210.3 101.9 211 102.8 211H126.3C127.2 211 127.9 210.3 127.9 209.4C127.9 208.5 127.2 207.8 126.3 207.8H102.8Z" fill="black"/>
<path d="M101.2 219.6C101 220.6 101.8 221.5 102.8 221.5H116.4C117.3 221.5 118 220.8 118 219.9C118 219 117.3 218.3 116.4 218.3H102.9C102.1 218.3 101.4 218.8 101.2 219.6Z" fill="black"/>
<path d="M102.8 213.3C101.9 213.3 101.2 214 101.2 214.9C101.2 215.8 101.9 216.5 102.8 216.5H126.3C127.2 216.5 127.9 215.8 127.9 214.9C127.9 214 127.2 213.3 126.3 213.3H102.8Z" fill="black"/>
<path d="M109.9 296C114 295 117 291.5 117.6 287.3C117.6 287.3 117.6 287.2 117.7 287.2C127.8 285.8 135.2 279.1 135.2 271.2C135.2 262.2 125.7 254.9 114 254.9C102.3 254.9 92.7998 262.2 92.7998 271.2C92.7998 279.1 100.2 285.8 110.3 287.2C110.3 287.2 110.3 287.2 110.4 287.3C110.8 289.8 110.3 292.4 108.9 294.5L107.7 296.5L109.9 296Z" stroke="black" stroke-width="3.2" stroke-miterlimit="10" stroke-linecap="round" stroke-linejoin="round"/>
<path d="M102.8 263.9C101.9 263.9 101.2 264.6 101.2 265.5C101.2 266.4 101.9 267.1 102.8 267.1H126.3C127.2 267.1 127.9 266.4 127.9 265.5C127.9 264.6 127.2 263.9 126.3 263.9H102.8Z" fill="black"/>
<path d="M101.2 275.7C101 276.7 101.8 277.6 102.8 277.6H116.4C117.3 277.6 118 276.9 118 276C118 275.1 117.3 274.4 116.4 274.4H102.9C102.1 274.3 101.4 274.9 101.2 275.7Z" fill="black"/>
<path d="M102.8 269.4C101.9 269.4 101.2 270.1 101.2 271C101.2 271.9 101.9 272.6 102.8 272.6H126.3C127.2 272.6 127.9 271.9 127.9 271C127.9 270.1 127.2 269.4 126.3 269.4H102.8Z" fill="black"/>
</svg>
