<svg width="504" height="281" viewBox="0 0 504 281" fill="none" xmlns="http://www.w3.org/2000/svg">
<g clip-path="url(#clip0)">
<path d="M366.5 247.7C366.6 247.6 366.6 247.6 366.5 247.7C366.6 247.6 366.6 247.6 366.6 247.6C366.6 247.6 366.6 247.5 366.7 247.5C366.7 247.5 366.7 247.4 366.8 247.4V247.3V247.2V247.1C366.8 247 366.8 247 366.8 246.9V93.8002C366.8 92.9002 366.1 92.2002 365.2 92.2002H317C316.1 92.2002 315.4 92.9002 315.4 93.8002V257.9C315.4 258.8 316.1 259.5 317 259.5H354.1C354.2 259.5 354.2 259.5 354.3 259.5H354.4H354.5H354.6C354.6 259.5 354.7 259.5 354.7 259.4C354.7 259.4 354.8 259.4 354.8 259.3C354.8 259.3 354.9 259.3 354.9 259.2L355 259.1L366.2 247.9C366.5 247.8 366.5 247.7 366.5 247.7ZM318.6 95.4002H363.7V245.1H354.1C353.2 245.1 352.5 245.8 352.5 246.7V256.3H318.6V95.4002ZM361.4 248.3L355.7 254V248.3H361.4Z" fill="black"/>
<path d="M337.8 208.9H355.7C356.6 208.9 357.3 208.2 357.3 207.3C357.3 206.4 356.6 205.7 355.7 205.7H337.8C336.9 205.7 336.2 206.4 336.2 207.3C336.2 208.2 336.9 208.9 337.8 208.9Z" fill="black"/>
<path d="M337.8 199.1H355.7C356.6 199.1 357.3 198.4 357.3 197.5C357.3 196.6 356.6 195.9 355.7 195.9H337.8C336.9 195.9 336.2 196.6 336.2 197.5C336.2 198.4 336.9 199.1 337.8 199.1Z" fill="black"/>
<path d="M333.9 183.2C333.2 182.7 332.2 182.8 331.7 183.5L327.6 188.8L326 187.5C325.3 187 324.3 187.1 323.8 187.8C323.3 188.5 323.4 189.5 324.1 190L327 192.3C327.3 192.5 327.6 192.6 328 192.6C328.1 192.6 328.1 192.6 328.2 192.6C328.6 192.5 329 192.3 329.3 192L334.4 185.4C334.8 184.8 334.6 183.7 333.9 183.2Z" fill="black"/>
<path d="M337.8 189.4H355.7C356.6 189.4 357.3 188.7 357.3 187.8C357.3 186.9 356.6 186.2 355.7 186.2H337.8C336.9 186.2 336.2 186.9 336.2 187.8C336.2 188.6 336.9 189.4 337.8 189.4Z" fill="black"/>
<path d="M333.9 173.4C333.2 172.9 332.2 173 331.7 173.7L327.6 179L326 177.7C325.3 177.2 324.3 177.3 323.8 178C323.3 178.7 323.4 179.7 324.1 180.2L327 182.5C327.3 182.7 327.6 182.8 328 182.8C328.1 182.8 328.1 182.8 328.2 182.8C328.6 182.7 329 182.5 329.3 182.2L334.4 175.6C334.8 175 334.6 174 333.9 173.4Z" fill="black"/>
<path d="M337.8 179.6H355.7C356.6 179.6 357.3 178.9 357.3 178C357.3 177.1 356.6 176.4 355.7 176.4H337.8C336.9 176.4 336.2 177.1 336.2 178C336.2 178.9 336.9 179.6 337.8 179.6Z" fill="black"/>
<path d="M333.9 163.6C333.2 163.1 332.2 163.2 331.7 163.9L327.6 169.2L326 167.9C325.3 167.4 324.3 167.5 323.8 168.2C323.3 168.9 323.4 169.9 324.1 170.4L327 172.7C327.3 172.9 327.6 173 328 173C328.1 173 328.1 173 328.2 173C328.6 172.9 329 172.7 329.3 172.4L334.4 165.8C334.8 165.2 334.6 164.2 333.9 163.6Z" fill="black"/>
<path d="M337.8 169.8H355.7C356.6 169.8 357.3 169.1 357.3 168.2C357.3 167.3 356.6 166.6 355.7 166.6H337.8C336.9 166.6 336.2 167.3 336.2 168.2C336.2 169.1 336.9 169.8 337.8 169.8Z" fill="black"/>
<path d="M333.9 153.9C333.2 153.4 332.2 153.5 331.7 154.2L327.6 159.5L326 158.2C325.3 157.7 324.3 157.8 323.8 158.5C323.3 159.2 323.4 160.2 324.1 160.7L327 163C327.3 163.2 327.6 163.3 328 163.3C328.1 163.3 328.1 163.3 328.2 163.3C328.6 163.2 329 163 329.3 162.7L334.4 156.1C334.8 155.4 334.6 154.4 333.9 153.9Z" fill="black"/>
<path d="M337.8 160H355.7C356.6 160 357.3 159.3 357.3 158.4C357.3 157.5 356.6 156.8 355.7 156.8H337.8C336.9 156.8 336.2 157.5 336.2 158.4C336.2 159.3 336.9 160 337.8 160Z" fill="black"/>
<path d="M333.9 144.1C333.2 143.6 332.2 143.7 331.7 144.4L327.6 149.7L326 148.4C325.3 147.9 324.3 148 323.8 148.7C323.3 149.4 323.4 150.4 324.1 150.9L327 153.2C327.3 153.4 327.6 153.5 328 153.5C328.1 153.5 328.1 153.5 328.2 153.5C328.6 153.4 329 153.2 329.3 152.9L334.4 146.3C334.8 145.6 334.6 144.6 333.9 144.1Z" fill="black"/>
<path d="M337.8 150.2H355.7C356.6 150.2 357.3 149.5 357.3 148.6C357.3 147.7 356.6 147 355.7 147H337.8C336.9 147 336.2 147.7 336.2 148.6C336.2 149.5 336.9 150.2 337.8 150.2Z" fill="black"/>
<path d="M333.9 134.3C333.2 133.8 332.2 133.9 331.7 134.6L327.6 139.9L326 138.6C325.3 138.1 324.3 138.2 323.8 138.9C323.3 139.6 323.4 140.6 324.1 141.1L327 143.4C327.3 143.6 327.6 143.7 328 143.7C328.1 143.7 328.1 143.7 328.2 143.7C328.6 143.6 329 143.4 329.3 143.1L334.4 136.5C334.8 135.8 334.6 134.8 333.9 134.3Z" fill="black"/>
<path d="M337.8 140.4H355.7C356.6 140.4 357.3 139.7 357.3 138.8C357.3 137.9 356.6 137.2 355.7 137.2H337.8C336.9 137.2 336.2 137.9 336.2 138.8C336.2 139.7 336.9 140.4 337.8 140.4Z" fill="black"/>
<path d="M333.9 124.5C333.2 124 332.2 124.1 331.7 124.8L327.6 130.1L326 128.8C325.3 128.3 324.3 128.4 323.8 129.1C323.3 129.8 323.4 130.8 324.1 131.3L327 133.6C327.3 133.8 327.6 133.9 328 133.9C328.1 133.9 328.1 133.9 328.2 133.9C328.6 133.8 329 133.6 329.3 133.3L334.4 126.7C334.8 126.1 334.6 125 333.9 124.5Z" fill="black"/>
<path d="M337.8 130.7H355.7C356.6 130.7 357.3 130 357.3 129.1C357.3 128.2 356.6 127.5 355.7 127.5H337.8C336.9 127.5 336.2 128.2 336.2 129.1C336.2 130 336.9 130.7 337.8 130.7Z" fill="black"/>
<path d="M333.9 114.7C333.2 114.2 332.2 114.3 331.7 115L327.6 120.3L326 119C325.3 118.5 324.3 118.6 323.8 119.3C323.3 120 323.4 121 324.1 121.5L327 123.8C327.3 124 327.6 124.1 328 124.1C328.1 124.1 328.1 124.1 328.2 124.1C328.6 124 329 123.8 329.3 123.5L334.4 116.9C334.8 116.3 334.6 115.3 333.9 114.7Z" fill="black"/>
<path d="M337.8 120.9H355.7C356.6 120.9 357.3 120.2 357.3 119.3C357.3 118.4 356.6 117.7 355.7 117.7H337.8C336.9 117.7 336.2 118.4 336.2 119.3C336.2 120.2 336.9 120.9 337.8 120.9Z" fill="black"/>
<path d="M333.9 104.9C333.2 104.4 332.2 104.5 331.7 105.2L327.6 110.5L326 109.2C325.3 108.7 324.3 108.8 323.8 109.5C323.3 110.2 323.4 111.2 324.1 111.7L327 114C327.3 114.2 327.6 114.3 328 114.3C328.1 114.3 328.1 114.3 328.2 114.3C328.6 114.2 329 114 329.3 113.7L334.4 107.1C334.8 106.5 334.6 105.5 333.9 104.9Z" fill="black"/>
<path d="M337.8 111.1H355.7C356.6 111.1 357.3 110.4 357.3 109.5C357.3 108.6 356.6 107.9 355.7 107.9H337.8C336.9 107.9 336.2 108.6 336.2 109.5C336.2 110.4 336.9 111.1 337.8 111.1Z" fill="black"/>
<path d="M337.8 220.1H355.7C356.6 220.1 357.3 219.4 357.3 218.5C357.3 217.6 356.6 216.9 355.7 216.9H337.8C336.9 216.9 336.2 217.6 336.2 218.5C336.2 219.4 336.9 220.1 337.8 220.1Z" fill="black"/>
<path d="M355.7 231.3C356.6 231.3 357.3 230.6 357.3 229.7C357.3 228.8 356.6 228.1 355.7 228.1H337.8C336.9 228.1 336.2 228.8 336.2 229.7C336.2 230.6 336.9 231.3 337.8 231.3H355.7Z" fill="black"/>
<path d="M300 247.7C300 247.6 300 247.6 300 247.7C300.1 247.6 300.1 247.6 300.1 247.6C300.1 247.6 300.1 247.5 300.2 247.5C300.2 247.5 300.2 247.4 300.3 247.4V247.3V247.2V247.1C300.3 247 300.3 247 300.3 246.9V93.8002C300.3 92.9002 299.6 92.2002 298.7 92.2002H250.4C249.5 92.2002 248.8 92.9002 248.8 93.8002V257.9C248.8 258.8 249.5 259.5 250.4 259.5H287.5C287.6 259.5 287.6 259.5 287.7 259.5H287.8H287.9H288C288 259.5 288.1 259.5 288.1 259.4C288.1 259.4 288.2 259.4 288.2 259.3C288.2 259.3 288.3 259.3 288.3 259.2L288.4 259.1L299.6 247.9C299.9 247.8 299.9 247.7 300 247.7C299.9 247.7 299.9 247.7 300 247.7ZM252 95.4002H297.1V245.1H287.5C286.6 245.1 285.9 245.8 285.9 246.7V256.3H252V95.4002ZM294.8 248.3L289.1 254V248.3H294.8Z" fill="black"/>
<path d="M271.2 208.9H289.1C290 208.9 290.7 208.2 290.7 207.3C290.7 206.4 290 205.7 289.1 205.7H271.2C270.3 205.7 269.6 206.4 269.6 207.3C269.6 208.2 270.3 208.9 271.2 208.9Z" fill="black"/>
<path d="M271.2 199.1H289.1C290 199.1 290.7 198.4 290.7 197.5C290.7 196.6 290 195.9 289.1 195.9H271.2C270.3 195.9 269.6 196.6 269.6 197.5C269.6 198.4 270.3 199.1 271.2 199.1Z" fill="black"/>
<path d="M267.4 183.2C266.7 182.7 265.7 182.8 265.2 183.5L261.1 188.8L259.5 187.5C258.8 187 257.8 187.1 257.3 187.8C256.8 188.5 256.9 189.5 257.6 190L260.5 192.3C260.8 192.5 261.1 192.6 261.5 192.6C261.6 192.6 261.6 192.6 261.7 192.6C262.1 192.5 262.5 192.3 262.8 192L267.9 185.4C268.2 184.8 268 183.7 267.4 183.2Z" fill="black"/>
<path d="M271.2 189.4H289.1C290 189.4 290.7 188.7 290.7 187.8C290.7 186.9 290 186.2 289.1 186.2H271.2C270.3 186.2 269.6 186.9 269.6 187.8C269.6 188.6 270.3 189.4 271.2 189.4Z" fill="black"/>
<path d="M267.4 173.4C266.7 172.9 265.7 173 265.2 173.7L261 179L259.4 177.7C258.7 177.2 257.7 177.3 257.2 178C256.7 178.7 256.8 179.7 257.5 180.2L260.4 182.5C260.7 182.7 261 182.8 261.4 182.8C261.5 182.8 261.5 182.8 261.6 182.8C262 182.7 262.4 182.5 262.7 182.2L267.8 175.6C268.2 175 268 174 267.4 173.4Z" fill="black"/>
<path d="M271.2 179.6H289.1C290 179.6 290.7 178.9 290.7 178C290.7 177.1 290 176.4 289.1 176.4H271.2C270.3 176.4 269.6 177.1 269.6 178C269.6 178.9 270.3 179.6 271.2 179.6Z" fill="black"/>
<path d="M267.4 163.6C266.7 163.1 265.7 163.2 265.2 163.9L261.1 169.2L259.5 167.9C258.8 167.4 257.8 167.5 257.3 168.2C256.8 168.9 256.9 169.9 257.6 170.4L260.5 172.7C260.8 172.9 261.1 173 261.5 173C261.6 173 261.6 173 261.7 173C262.1 172.9 262.5 172.7 262.8 172.4L267.9 165.8C268.2 165.2 268 164.2 267.4 163.6Z" fill="black"/>
<path d="M271.2 169.8H289.1C290 169.8 290.7 169.1 290.7 168.2C290.7 167.3 290 166.6 289.1 166.6H271.2C270.3 166.6 269.6 167.3 269.6 168.2C269.6 169.1 270.3 169.8 271.2 169.8Z" fill="black"/>
<path d="M267.4 153.9C266.7 153.4 265.7 153.5 265.2 154.2L261.1 159.5L259.5 158.2C258.8 157.7 257.8 157.8 257.3 158.5C256.8 159.2 256.9 160.2 257.6 160.7L260.5 163C260.8 163.2 261.1 163.3 261.5 163.3C261.6 163.3 261.6 163.3 261.7 163.3C262.1 163.2 262.5 163 262.8 162.7L267.9 156.1C268.2 155.4 268 154.4 267.4 153.9Z" fill="black"/>
<path d="M271.2 160H289.1C290 160 290.7 159.3 290.7 158.4C290.7 157.5 290 156.8 289.1 156.8H271.2C270.3 156.8 269.6 157.5 269.6 158.4C269.6 159.3 270.3 160 271.2 160Z" fill="black"/>
<path d="M267.4 144.1C266.7 143.6 265.7 143.7 265.2 144.4L261.1 149.7L259.5 148.4C258.8 147.9 257.8 148 257.3 148.7C256.8 149.4 256.9 150.4 257.6 150.9L260.5 153.2C260.8 153.4 261.1 153.5 261.5 153.5C261.6 153.5 261.6 153.5 261.7 153.5C262.1 153.4 262.5 153.2 262.8 152.9L267.9 146.3C268.2 145.6 268 144.6 267.4 144.1Z" fill="black"/>
<path d="M271.2 150.2H289.1C290 150.2 290.7 149.5 290.7 148.6C290.7 147.7 290 147 289.1 147H271.2C270.3 147 269.6 147.7 269.6 148.6C269.6 149.5 270.3 150.2 271.2 150.2Z" fill="black"/>
<path d="M267.4 134.3C266.7 133.8 265.7 133.9 265.2 134.6L261.1 139.9L259.5 138.6C258.8 138.1 257.8 138.2 257.3 138.9C256.8 139.6 256.9 140.6 257.6 141.1L260.5 143.4C260.8 143.6 261.1 143.7 261.5 143.7C261.6 143.7 261.6 143.7 261.7 143.7C262.1 143.6 262.5 143.4 262.8 143.1L267.9 136.5C268.2 135.8 268 134.8 267.4 134.3Z" fill="black"/>
<path d="M271.2 140.4H289.1C290 140.4 290.7 139.7 290.7 138.8C290.7 137.9 290 137.2 289.1 137.2H271.2C270.3 137.2 269.6 137.9 269.6 138.8C269.6 139.7 270.3 140.4 271.2 140.4Z" fill="black"/>
<path d="M267.4 124.5C266.7 124 265.7 124.1 265.2 124.8L261.1 130.1L259.5 128.8C258.8 128.3 257.8 128.4 257.3 129.1C256.8 129.8 256.9 130.8 257.6 131.3L260.5 133.6C260.8 133.8 261.1 133.9 261.5 133.9C261.6 133.9 261.6 133.9 261.7 133.9C262.1 133.8 262.5 133.6 262.8 133.3L267.9 126.7C268.2 126.1 268 125 267.4 124.5Z" fill="black"/>
<path d="M271.2 130.7H289.1C290 130.7 290.7 130 290.7 129.1C290.7 128.2 290 127.5 289.1 127.5H271.2C270.3 127.5 269.6 128.2 269.6 129.1C269.6 130 270.3 130.7 271.2 130.7Z" fill="black"/>
<path d="M267.4 114.7C266.7 114.2 265.7 114.3 265.2 115L261.1 120.3L259.5 119C258.8 118.5 257.8 118.6 257.3 119.3C256.8 120 256.9 121 257.6 121.5L260.5 123.8C260.8 124 261.1 124.1 261.5 124.1C261.6 124.1 261.6 124.1 261.7 124.1C262.1 124 262.5 123.8 262.8 123.5L267.9 116.9C268.2 116.3 268 115.3 267.4 114.7Z" fill="black"/>
<path d="M271.2 120.9H289.1C290 120.9 290.7 120.2 290.7 119.3C290.7 118.4 290 117.7 289.1 117.7H271.2C270.3 117.7 269.6 118.4 269.6 119.3C269.6 120.2 270.3 120.9 271.2 120.9Z" fill="black"/>
<path d="M267.4 104.9C266.7 104.4 265.7 104.5 265.2 105.2L261.1 110.5L259.5 109.2C258.8 108.7 257.8 108.8 257.3 109.5C256.8 110.2 256.9 111.2 257.6 111.7L260.5 114C260.8 114.2 261.1 114.3 261.5 114.3C261.6 114.3 261.6 114.3 261.7 114.3C262.1 114.2 262.5 114 262.8 113.7L267.9 107.1C268.2 106.5 268 105.5 267.4 104.9Z" fill="black"/>
<path d="M271.2 111.1H289.1C290 111.1 290.7 110.4 290.7 109.5C290.7 108.6 290 107.9 289.1 107.9H271.2C270.3 107.9 269.6 108.6 269.6 109.5C269.6 110.4 270.3 111.1 271.2 111.1Z" fill="black"/>
<path d="M271.2 220.1H289.1C290 220.1 290.7 219.4 290.7 218.5C290.7 217.6 290 216.9 289.1 216.9H271.2C270.3 216.9 269.6 217.6 269.6 218.5C269.6 219.4 270.3 220.1 271.2 220.1Z" fill="black"/>
<path d="M289.1 231.3C290 231.3 290.7 230.6 290.7 229.7C290.7 228.8 290 228.1 289.1 228.1H271.2C270.3 228.1 269.6 228.8 269.6 229.7C269.6 230.6 270.3 231.3 271.2 231.3H289.1Z" fill="black"/>
<path d="M233.4 247.7C233.4 247.6 233.4 247.6 233.4 247.7C233.5 247.6 233.5 247.6 233.5 247.6C233.5 247.6 233.5 247.5 233.6 247.5C233.6 247.5 233.6 247.4 233.7 247.4V247.3V247.2V247.1C233.7 247 233.7 247 233.7 246.9V93.8002C233.7 92.9002 233 92.2002 232.1 92.2002H183.8C182.9 92.2002 182.2 92.9002 182.2 93.8002V257.9C182.2 258.8 182.9 259.5 183.8 259.5H220.9C221 259.5 221 259.5 221.1 259.5H221.2H221.3H221.4C221.4 259.5 221.5 259.5 221.5 259.4C221.5 259.4 221.6 259.4 221.6 259.3C221.6 259.3 221.7 259.3 221.7 259.2L221.8 259.1L233 247.9C233.3 247.8 233.3 247.7 233.4 247.7C233.4 247.7 233.3 247.7 233.4 247.7ZM185.4 95.4002H230.5V245.1H220.9C220 245.1 219.3 245.8 219.3 246.7V256.3H185.4V95.4002ZM228.2 248.3L222.5 254V248.3H228.2Z" fill="black"/>
<path d="M200.8 202.8C200.1 202.3 199.1 202.4 198.6 203.1L194.5 208.4L192.9 207.1C192.2 206.6 191.2 206.7 190.7 207.4C190.2 208.1 190.3 209.1 191 209.6L193.9 211.9C194.2 212.1 194.5 212.2 194.9 212.2C195 212.2 195 212.2 195.1 212.2C195.5 212.1 195.9 211.9 196.2 211.6L201.3 205C201.6 204.3 201.5 203.3 200.8 202.8Z" fill="black"/>
<path d="M204.6 208.9H222.5C223.4 208.9 224.1 208.2 224.1 207.3C224.1 206.4 223.4 205.7 222.5 205.7H204.6C203.7 205.7 203 206.4 203 207.3C203 208.2 203.7 208.9 204.6 208.9Z" fill="black"/>
<path d="M200.8 193C200.1 192.5 199.1 192.6 198.6 193.3L194.5 198.6L192.9 197.3C192.2 196.8 191.2 196.9 190.7 197.6C190.2 198.3 190.3 199.3 191 199.8L193.9 202.1C194.2 202.3 194.5 202.4 194.9 202.4C195 202.4 195 202.4 195.1 202.4C195.5 202.3 195.9 202.1 196.2 201.8L201.3 195.2C201.6 194.5 201.5 193.5 200.8 193Z" fill="black"/>
<path d="M204.6 199.1H222.5C223.4 199.1 224.1 198.4 224.1 197.5C224.1 196.6 223.4 195.9 222.5 195.9H204.6C203.7 195.9 203 196.6 203 197.5C203 198.4 203.7 199.1 204.6 199.1Z" fill="black"/>
<path d="M200.8 183.2C200.1 182.7 199.1 182.8 198.6 183.5L194.5 188.8L192.9 187.5C192.2 187 191.2 187.1 190.7 187.8C190.2 188.5 190.3 189.5 191 190L193.9 192.3C194.2 192.5 194.5 192.6 194.9 192.6C195 192.6 195 192.6 195.1 192.6C195.5 192.5 195.9 192.3 196.2 192L201.3 185.4C201.6 184.8 201.5 183.7 200.8 183.2Z" fill="black"/>
<path d="M204.6 189.4H222.5C223.4 189.4 224.1 188.7 224.1 187.8C224.1 186.9 223.4 186.2 222.5 186.2H204.6C203.7 186.2 203 186.9 203 187.8C203 188.6 203.7 189.4 204.6 189.4Z" fill="black"/>
<path d="M200.8 173.4C200.1 172.9 199.1 173 198.6 173.7L194.5 179L192.9 177.7C192.2 177.2 191.2 177.3 190.7 178C190.2 178.7 190.3 179.7 191 180.2L193.9 182.5C194.2 182.7 194.5 182.8 194.9 182.8C195 182.8 195 182.8 195.1 182.8C195.5 182.7 195.9 182.5 196.2 182.2L201.3 175.6C201.6 175 201.5 174 200.8 173.4Z" fill="black"/>
<path d="M204.6 179.6H222.5C223.4 179.6 224.1 178.9 224.1 178C224.1 177.1 223.4 176.4 222.5 176.4H204.6C203.7 176.4 203 177.1 203 178C203 178.9 203.7 179.6 204.6 179.6Z" fill="black"/>
<path d="M200.8 163.6C200.1 163.1 199.1 163.2 198.6 163.9L194.5 169.2L192.9 167.9C192.2 167.4 191.2 167.5 190.7 168.2C190.2 168.9 190.3 169.9 191 170.4L193.9 172.7C194.2 172.9 194.5 173 194.9 173C195 173 195 173 195.1 173C195.5 172.9 195.9 172.7 196.2 172.4L201.3 165.8C201.6 165.2 201.5 164.2 200.8 163.6Z" fill="black"/>
<path d="M204.6 169.8H222.5C223.4 169.8 224.1 169.1 224.1 168.2C224.1 167.3 223.4 166.6 222.5 166.6H204.6C203.7 166.6 203 167.3 203 168.2C203 169.1 203.7 169.8 204.6 169.8Z" fill="black"/>
<path d="M200.8 153.9C200.1 153.4 199.1 153.5 198.6 154.2L194.5 159.5L192.9 158.2C192.2 157.7 191.2 157.8 190.7 158.5C190.2 159.2 190.3 160.2 191 160.7L193.9 163C194.2 163.2 194.5 163.3 194.9 163.3C195 163.3 195 163.3 195.1 163.3C195.5 163.2 195.9 163 196.2 162.7L201.3 156.1C201.6 155.4 201.5 154.4 200.8 153.9Z" fill="black"/>
<path d="M204.6 160H222.5C223.4 160 224.1 159.3 224.1 158.4C224.1 157.5 223.4 156.8 222.5 156.8H204.6C203.7 156.8 203 157.5 203 158.4C203 159.3 203.7 160 204.6 160Z" fill="black"/>
<path d="M200.8 144.1C200.1 143.6 199.1 143.7 198.6 144.4L194.5 149.7L192.9 148.4C192.2 147.9 191.2 148 190.7 148.7C190.2 149.4 190.3 150.4 191 150.9L193.9 153.2C194.2 153.4 194.5 153.5 194.9 153.5C195 153.5 195 153.5 195.1 153.5C195.5 153.4 195.9 153.2 196.2 152.9L201.3 146.3C201.6 145.6 201.5 144.6 200.8 144.1Z" fill="black"/>
<path d="M204.6 150.2H222.5C223.4 150.2 224.1 149.5 224.1 148.6C224.1 147.7 223.4 147 222.5 147H204.6C203.7 147 203 147.7 203 148.6C203 149.5 203.7 150.2 204.6 150.2Z" fill="black"/>
<path d="M200.8 134.3C200.1 133.8 199.1 133.9 198.6 134.6L194.5 139.9L192.9 138.6C192.2 138.1 191.2 138.2 190.7 138.9C190.2 139.6 190.3 140.6 191 141.1L193.9 143.4C194.2 143.6 194.5 143.7 194.9 143.7C195 143.7 195 143.7 195.1 143.7C195.5 143.6 195.9 143.4 196.2 143.1L201.3 136.5C201.6 135.8 201.5 134.8 200.8 134.3Z" fill="black"/>
<path d="M204.6 140.4H222.5C223.4 140.4 224.1 139.7 224.1 138.8C224.1 137.9 223.4 137.2 222.5 137.2H204.6C203.7 137.2 203 137.9 203 138.8C203 139.7 203.7 140.4 204.6 140.4Z" fill="black"/>
<path d="M200.8 124.5C200.1 124 199.1 124.1 198.6 124.8L194.5 130.1L192.9 128.8C192.2 128.3 191.2 128.4 190.7 129.1C190.2 129.8 190.3 130.8 191 131.3L193.9 133.6C194.2 133.8 194.5 133.9 194.9 133.9C195 133.9 195 133.9 195.1 133.9C195.5 133.8 195.9 133.6 196.2 133.3L201.3 126.7C201.6 126.1 201.5 125 200.8 124.5Z" fill="black"/>
<path d="M204.6 130.7H222.5C223.4 130.7 224.1 130 224.1 129.1C224.1 128.2 223.4 127.5 222.5 127.5H204.6C203.7 127.5 203 128.2 203 129.1C203 130 203.7 130.7 204.6 130.7Z" fill="black"/>
<path d="M200.8 114.7C200.1 114.2 199.1 114.3 198.6 115L194.5 120.3L192.9 119C192.2 118.5 191.2 118.6 190.7 119.3C190.2 120 190.3 121 191 121.5L193.9 123.8C194.2 124 194.5 124.1 194.9 124.1C195 124.1 195 124.1 195.1 124.1C195.5 124 195.9 123.8 196.2 123.5L201.3 116.9C201.6 116.3 201.5 115.3 200.8 114.7Z" fill="black"/>
<path d="M204.6 120.9H222.5C223.4 120.9 224.1 120.2 224.1 119.3C224.1 118.4 223.4 117.7 222.5 117.7H204.6C203.7 117.7 203 118.4 203 119.3C203 120.2 203.7 120.9 204.6 120.9Z" fill="black"/>
<path d="M200.8 104.9C200.1 104.4 199.1 104.5 198.6 105.2L194.5 110.5L192.9 109.2C192.2 108.7 191.2 108.8 190.7 109.5C190.2 110.2 190.3 111.2 191 111.7L193.9 114C194.2 114.2 194.5 114.3 194.9 114.3C195 114.3 195 114.3 195.1 114.3C195.5 114.2 195.9 114 196.2 113.7L201.3 107.1C201.6 106.5 201.5 105.5 200.8 104.9Z" fill="black"/>
<path d="M204.6 111.1H222.5C223.4 111.1 224.1 110.4 224.1 109.5C224.1 108.6 223.4 107.9 222.5 107.9H204.6C203.7 107.9 203 108.6 203 109.5C203 110.4 203.7 111.1 204.6 111.1Z" fill="black"/>
<path d="M204.6 220.1H222.5C223.4 220.1 224.1 219.4 224.1 218.5C224.1 217.6 223.4 216.9 222.5 216.9H204.6C203.7 216.9 203 217.6 203 218.5C203 219.4 203.7 220.1 204.6 220.1Z" fill="black"/>
<path d="M222.5 231.3C223.4 231.3 224.1 230.6 224.1 229.7C224.1 228.8 223.4 228.1 222.5 228.1H204.6C203.7 228.1 203 228.8 203 229.7C203 230.6 203.7 231.3 204.6 231.3H222.5Z" fill="black"/>
<path d="M166.8 247.7C166.8 247.6 166.8 247.6 166.8 247.7C166.9 247.6 166.9 247.6 166.9 247.6C166.9 247.6 166.9 247.5 167 247.5C167 247.5 167 247.4 167.1 247.4V247.3V247.2V247.1C167.1 247 167.1 247 167.1 246.9V93.8002C167.1 92.9002 166.4 92.2002 165.5 92.2002H117.2C116.3 92.2002 115.6 92.9002 115.6 93.8002V257.9C115.6 258.8 116.3 259.5 117.2 259.5H154.3C154.4 259.5 154.4 259.5 154.5 259.5H154.6H154.7H154.8C154.8 259.5 154.9 259.5 154.9 259.4C154.9 259.4 155 259.4 155 259.3C155 259.3 155.1 259.3 155.1 259.2L155.2 259.1L166.4 247.9C166.7 247.8 166.7 247.7 166.8 247.7ZM118.8 95.4002H163.9V245.1H154.3C153.4 245.1 152.7 245.8 152.7 246.7V256.3H118.8V95.4002ZM161.6 248.3L155.9 254V248.3H161.6Z" fill="black"/>
<path d="M138 208.9H155.9C156.8 208.9 157.5 208.2 157.5 207.3C157.5 206.4 156.8 205.7 155.9 205.7H138C137.1 205.7 136.4 206.4 136.4 207.3C136.4 208.2 137.1 208.9 138 208.9Z" fill="black"/>
<path d="M138 199.1H155.9C156.8 199.1 157.5 198.4 157.5 197.5C157.5 196.6 156.8 195.9 155.9 195.9H138C137.1 195.9 136.4 196.6 136.4 197.5C136.4 198.4 137.1 199.1 138 199.1Z" fill="black"/>
<path d="M138 189.4H155.9C156.8 189.4 157.5 188.7 157.5 187.8C157.5 186.9 156.8 186.2 155.9 186.2H138C137.1 186.2 136.4 186.9 136.4 187.8C136.4 188.6 137.1 189.4 138 189.4Z" fill="black"/>
<path d="M138 179.6H155.9C156.8 179.6 157.5 178.9 157.5 178C157.5 177.1 156.8 176.4 155.9 176.4H138C137.1 176.4 136.4 177.1 136.4 178C136.4 178.9 137.1 179.6 138 179.6Z" fill="black"/>
<path d="M138 169.8H155.9C156.8 169.8 157.5 169.1 157.5 168.2C157.5 167.3 156.8 166.6 155.9 166.6H138C137.1 166.6 136.4 167.3 136.4 168.2C136.4 169.1 137.1 169.8 138 169.8Z" fill="black"/>
<path d="M134.2 153.9C133.5 153.4 132.5 153.5 132 154.2L127.9 159.5L126.3 158.2C125.6 157.7 124.6 157.8 124.1 158.5C123.6 159.2 123.7 160.2 124.4 160.7L127.3 163C127.6 163.2 127.9 163.3 128.3 163.3C128.4 163.3 128.4 163.3 128.5 163.3C128.9 163.2 129.3 163 129.6 162.7L134.7 156.1C135 155.4 134.9 154.4 134.2 153.9Z" fill="black"/>
<path d="M138 160H155.9C156.8 160 157.5 159.3 157.5 158.4C157.5 157.5 156.8 156.8 155.9 156.8H138C137.1 156.8 136.4 157.5 136.4 158.4C136.4 159.3 137.1 160 138 160Z" fill="black"/>
<path d="M134.2 144.1C133.5 143.6 132.5 143.7 132 144.4L127.9 149.7L126.3 148.4C125.6 147.9 124.6 148 124.1 148.7C123.6 149.4 123.7 150.4 124.4 150.9L127.3 153.2C127.6 153.4 127.9 153.5 128.3 153.5C128.4 153.5 128.4 153.5 128.5 153.5C128.9 153.4 129.3 153.2 129.6 152.9L134.7 146.3C135 145.6 134.9 144.6 134.2 144.1Z" fill="black"/>
<path d="M138 150.2H155.9C156.8 150.2 157.5 149.5 157.5 148.6C157.5 147.7 156.8 147 155.9 147H138C137.1 147 136.4 147.7 136.4 148.6C136.4 149.5 137.1 150.2 138 150.2Z" fill="black"/>
<path d="M134.2 134.3C133.5 133.8 132.5 133.9 132 134.6L127.9 139.9L126.3 138.6C125.6 138.1 124.6 138.2 124.1 138.9C123.6 139.6 123.7 140.6 124.4 141.1L127.3 143.4C127.6 143.6 127.9 143.7 128.3 143.7C128.4 143.7 128.4 143.7 128.5 143.7C128.9 143.6 129.3 143.4 129.6 143.1L134.7 136.5C135 135.8 134.9 134.8 134.2 134.3Z" fill="black"/>
<path d="M138 140.4H155.9C156.8 140.4 157.5 139.7 157.5 138.8C157.5 137.9 156.8 137.2 155.9 137.2H138C137.1 137.2 136.4 137.9 136.4 138.8C136.4 139.7 137.1 140.4 138 140.4Z" fill="black"/>
<path d="M134.2 124.5C133.5 124 132.5 124.1 132 124.8L127.9 130.1L126.3 128.8C125.6 128.3 124.6 128.4 124.1 129.1C123.6 129.8 123.7 130.8 124.4 131.3L127.3 133.6C127.6 133.8 127.9 133.9 128.3 133.9C128.4 133.9 128.4 133.9 128.5 133.9C128.9 133.8 129.3 133.6 129.6 133.3L134.7 126.7C135 126.1 134.9 125 134.2 124.5Z" fill="black"/>
<path d="M138 130.7H155.9C156.8 130.7 157.5 130 157.5 129.1C157.5 128.2 156.8 127.5 155.9 127.5H138C137.1 127.5 136.4 128.2 136.4 129.1C136.4 130 137.1 130.7 138 130.7Z" fill="black"/>
<path d="M134.2 114.7C133.5 114.2 132.5 114.3 132 115L127.9 120.3L126.3 119C125.6 118.5 124.6 118.6 124.1 119.3C123.6 120 123.7 121 124.4 121.5L127.3 123.8C127.6 124 127.9 124.1 128.3 124.1C128.4 124.1 128.4 124.1 128.5 124.1C128.9 124 129.3 123.8 129.6 123.5L134.7 116.9C135 116.3 134.9 115.3 134.2 114.7Z" fill="black"/>
<path d="M138 120.9H155.9C156.8 120.9 157.5 120.2 157.5 119.3C157.5 118.4 156.8 117.7 155.9 117.7H138C137.1 117.7 136.4 118.4 136.4 119.3C136.4 120.2 137.1 120.9 138 120.9Z" fill="black"/>
<path d="M134.2 104.9C133.5 104.4 132.5 104.5 132 105.2L127.9 110.5L126.3 109.2C125.6 108.7 124.6 108.8 124.1 109.5C123.6 110.2 123.7 111.2 124.4 111.7L127.3 114C127.6 114.2 127.9 114.3 128.3 114.3C128.4 114.3 128.4 114.3 128.5 114.3C128.9 114.2 129.3 114 129.6 113.7L134.7 107.1C135 106.5 134.9 105.5 134.2 104.9Z" fill="black"/>
<path d="M138 111.1H155.9C156.8 111.1 157.5 110.4 157.5 109.5C157.5 108.6 156.8 107.9 155.9 107.9H138C137.1 107.9 136.4 108.6 136.4 109.5C136.4 110.4 137.1 111.1 138 111.1Z" fill="black"/>
<path d="M138 220.1H155.9C156.8 220.1 157.5 219.4 157.5 218.5C157.5 217.6 156.8 216.9 155.9 216.9H138C137.1 216.9 136.4 217.6 136.4 218.5C136.4 219.4 137.1 220.1 138 220.1Z" fill="black"/>
<path d="M155.9 231.3C156.8 231.3 157.5 230.6 157.5 229.7C157.5 228.8 156.8 228.1 155.9 228.1H138C137.1 228.1 136.4 228.8 136.4 229.7C136.4 230.6 137.1 231.3 138 231.3H155.9Z" fill="black"/>
<path d="M98.9 114.7C98 114.7 97.3 115.4 97.3 116.3V245.1H87.7C86.8 245.1 86.1 245.8 86.1 246.7V256.3H52.2V116.3C52.2 115.4 51.5 114.7 50.6 114.7C49.7 114.7 49 115.4 49 116.3V257.9C49 258.8 49.7 259.5 50.6 259.5H87.9H88H88.1H88.2H88.3C88.3 259.5 88.4 259.5 88.4 259.4C88.4 259.4 88.5 259.4 88.5 259.3C88.5 259.3 88.6 259.3 88.6 259.2L100 247.8C100 247.8 100 247.7 100.1 247.7C100.1 247.7 100.1 247.6 100.2 247.6C100.2 247.6 100.2 247.5 100.3 247.5C100.3 247.5 100.3 247.4 100.4 247.4V247.3V247.2V247.1C100.4 247 100.4 247 100.4 246.9V116.3C100.5 115.4 99.8 114.7 98.9 114.7ZM89.3 254V248.3H95L89.3 254Z" fill="black"/>
<path d="M67.6 202.8C66.9 202.3 65.9 202.4 65.4 203.1L61.3 208.4L59.7 207.1C59 206.6 58 206.7 57.5 207.4C56.9 208.1 57.1 209.1 57.8 209.6L60.7 211.9C61 212.1 61.3 212.2 61.7 212.2C61.8 212.2 61.8 212.2 61.9 212.2C62.3 212.2 62.7 211.9 63 211.6L68.1 205C68.4 204.3 68.3 203.3 67.6 202.8Z" fill="black"/>
<path d="M89.3 205.7H71.4C70.5 205.7 69.8 206.4 69.8 207.3C69.8 208.2 70.5 208.9 71.4 208.9H89.3C90.2 208.9 90.9001 208.2 90.9001 207.3C90.9001 206.4 90.2 205.7 89.3 205.7Z" fill="black"/>
<path d="M67.6 193C66.9 192.5 65.9 192.6 65.4 193.3L61.3 198.6L59.7 197.3C59 196.8 58 196.9 57.5 197.6C56.9 198.3 57.1 199.3 57.8 199.8L60.7 202.1C61 202.3 61.3 202.4 61.7 202.4C61.8 202.4 61.8 202.4 61.9 202.4C62.3 202.4 62.7 202.1 63 201.8L68.1 195.2C68.4 194.5 68.3 193.5 67.6 193Z" fill="black"/>
<path d="M89.3 195.9H71.4C70.5 195.9 69.8 196.6 69.8 197.5C69.8 198.4 70.5 199.1 71.4 199.1H89.3C90.2 199.1 90.9001 198.4 90.9001 197.5C90.9001 196.7 90.2 195.9 89.3 195.9Z" fill="black"/>
<path d="M67.6 183.2C66.9 182.7 65.9 182.8 65.4 183.5L61.3 188.8L59.7 187.5C59 186.9 58 187.1 57.5 187.8C56.9 188.5 57.1 189.5 57.8 190L60.7 192.3C61 192.5 61.3 192.6 61.7 192.6C61.8 192.6 61.8 192.6 61.9 192.6C62.3 192.6 62.7 192.3 63 192L68.1 185.4C68.4 184.8 68.3 183.8 67.6 183.2Z" fill="black"/>
<path d="M89.3 186.2H71.4C70.5 186.2 69.8 186.9 69.8 187.8C69.8 188.7 70.5 189.4 71.4 189.4H89.3C90.2 189.4 90.9001 188.7 90.9001 187.8C90.9001 186.9 90.2 186.2 89.3 186.2Z" fill="black"/>
<path d="M67.6 173.4C66.9 172.9 65.9 173 65.4 173.7L61.3 179L59.7 177.7C59 177.2 58 177.3 57.5 178C56.9 178.7 57.1 179.7 57.8 180.2L60.7 182.5C61 182.7 61.3 182.9 61.7 182.9C61.8 182.9 61.8 182.9 61.9 182.9C62.3 182.9 62.7 182.6 63 182.3L68.1 175.7C68.4 175 68.3 174 67.6 173.4Z" fill="black"/>
<path d="M89.3 176.4H71.4C70.5 176.4 69.8 177.1 69.8 178C69.8 178.9 70.5 179.6 71.4 179.6H89.3C90.2 179.6 90.9001 178.9 90.9001 178C90.9001 177.1 90.2 176.4 89.3 176.4Z" fill="black"/>
<path d="M67.6 163.6C66.9 163.1 65.9 163.2 65.4 163.9L61.3 169.2L59.7 167.9C59 167.3 58 167.5 57.5 168.2C56.9 168.9 57.1 169.9 57.8 170.4L60.7 172.7C61 172.9 61.3 173 61.7 173C61.8 173 61.8 173 61.9 173C62.3 172.9 62.7 172.7 63 172.4L68.1 165.8C68.4 165.2 68.3 164.2 67.6 163.6Z" fill="black"/>
<path d="M89.3 166.6H71.4C70.5 166.6 69.8 167.3 69.8 168.2C69.8 169.1 70.5 169.8 71.4 169.8H89.3C90.2 169.8 90.9001 169.1 90.9001 168.2C90.9001 167.3 90.2 166.6 89.3 166.6Z" fill="black"/>
<path d="M67.6 153.9C66.9 153.4 65.9 153.5 65.4 154.2L61.3 159.5L59.7 158.2C59 157.7 58 157.8 57.5 158.5C56.9 159.2 57.1 160.2 57.8 160.7L60.7 163C61 163.2 61.3 163.4 61.7 163.4C61.8 163.4 61.8 163.4 61.9 163.4C62.3 163.4 62.7 163.1 63 162.8L68.1 156.2C68.4 155.4 68.3 154.4 67.6 153.9Z" fill="black"/>
<path d="M89.3 156.8H71.4C70.5 156.8 69.8 157.5 69.8 158.4C69.8 159.3 70.5 160 71.4 160H89.3C90.2 160 90.9001 159.3 90.9001 158.4C90.9001 157.5 90.2 156.8 89.3 156.8Z" fill="black"/>
<path d="M67.6 144.1C66.9 143.6 65.9 143.7 65.4 144.4L61.3 149.7L59.7 148.4C59 147.8 58 148 57.5 148.7C56.9 149.4 57.1 150.4 57.8 150.9L60.7 153.2C61 153.4 61.3 153.5 61.7 153.5C61.8 153.5 61.8 153.5 61.9 153.5C62.3 153.4 62.7 153.2 63 152.9L68.1 146.3C68.4 145.6 68.3 144.6 67.6 144.1Z" fill="black"/>
<path d="M89.3 147H71.4C70.5 147 69.8 147.7 69.8 148.6C69.8 149.5 70.5 150.2 71.4 150.2H89.3C90.2 150.2 90.9001 149.5 90.9001 148.6C90.9001 147.7 90.2 147 89.3 147Z" fill="black"/>
<path d="M67.6 134.3C66.9 133.8 65.9 133.9 65.4 134.6L61.3 139.9L59.7 138.6C59 138.1 58 138.2 57.5 138.9C56.9 139.6 57.1 140.6 57.8 141.1L60.7 143.4C61 143.6 61.3 143.7 61.7 143.7C61.8 143.7 61.8 143.7 61.9 143.7C62.3 143.7 62.7 143.4 63 143.1L68.1 136.5C68.4 135.8 68.3 134.8 67.6 134.3Z" fill="black"/>
<path d="M89.3 137.2H71.4C70.5 137.2 69.8 137.9 69.8 138.8C69.8 139.7 70.5 140.4 71.4 140.4H89.3C90.2 140.4 90.9001 139.7 90.9001 138.8C90.9001 138 90.2 137.2 89.3 137.2Z" fill="black"/>
<path d="M67.6 124.5C66.9 124 65.9 124.1 65.4 124.8L61.3 130.1L59.7 128.8C59 128.3 58 128.4 57.5 129.1C56.9 129.8 57.1 130.8 57.8 131.3L60.7 133.6C61 133.8 61.3 133.9 61.7 133.9C61.8 133.9 61.8 133.9 61.9 133.9C62.3 133.8 62.7 133.6 63 133.3L68.1 126.7C68.4 126.1 68.3 125.1 67.6 124.5Z" fill="black"/>
<path d="M89.3 127.5H71.4C70.5 127.5 69.8 128.2 69.8 129.1C69.8 130 70.5 130.7 71.4 130.7H89.3C90.2 130.7 90.9001 130 90.9001 129.1C90.9001 128.2 90.2 127.5 89.3 127.5Z" fill="black"/>
<path d="M89.3 216.9H71.4C70.5 216.9 69.8 217.6 69.8 218.5C69.8 219.4 70.5 220.1 71.4 220.1H89.3C90.2 220.1 90.9001 219.4 90.9001 218.5C90.9001 217.6 90.2 216.9 89.3 216.9Z" fill="black"/>
<path d="M89.3 228.1H71.4C70.5 228.1 69.8 228.8 69.8 229.7C69.8 230.6 70.5 231.3 71.4 231.3H89.3C90.2 231.3 90.9001 230.6 90.9001 229.7C90.9001 228.8 90.2 228.1 89.3 228.1Z" fill="black"/>
<path d="M454 247.5C454.6 246.9 454.6 245.9 454 245.2L434.4 226.3C433.8 225.7 432.8 225.7 432.1 226.3C431.5 226.9 431.5 227.9 432.1 228.6L448.2 244.2L447.1 245.4L433.3 232C432.7 231.4 431.7 231.4 431 232L430.9 232.1L399.8 202.1C397.2 199.6 394.6 197.8 392.2 197C389.9 196.2 388.3 196.4 387.2 196.9L384.7 194.5C384.4 194.2 384 194 383.6 194.1C383.2 194.2 382.8 194.3 382.5 194.6C381.9 195.2 381.9 196.2 382.5 196.9L385 199.3C384.6 200.4 384.4 202 385.3 204.3C386.2 206.7 388.1 209.2 390.7 211.7L421.8 241.7L421.7 241.8C421.4 242.1 421.2 242.5 421.3 242.9C421.3 243.3 421.5 243.7 421.8 244L438.6 260.2C441.9 263.4 447.2 263.3 450.4 260C453.6 256.7 453.5 251.4 450.2 248.2L449.5 247.5L450.6 246.3L451.8 247.4C452.3 248.2 453.4 248.2 454 247.5ZM391.2 200.1C392.8 200.7 394.6 201.8 396.5 203.4L391.8 208.2C390.1 206.4 388.9 204.6 388.3 203.1C387.8 201.7 387.7 200.6 388.2 200.1C388.7 199.6 389.8 199.6 391.2 200.1ZM428.7 234.5L424 239.4L394 210.5L398.7 205.6L428.7 234.5ZM447.9 250.6C449.9 252.6 450 255.8 448 257.8C446 259.8 442.8 259.9 440.8 257.9L425.1 242.8L425.2 242.7L432.1 235.5L432.2 235.4L446 248.7L447.9 250.6Z" fill="black"/>
<path d="M235.3 26.4C228.6 19.7 219.8 16 210.3 16C200.9 16 192 19.7 185.3 26.4C178.6 33.1 174.9 42 174.9 51.4C174.9 60.8 178.6 69.7 185.3 76.4C192 83.1 200.9 86.8 210.3 86.8C219.7 86.8 228.6 83.1 235.3 76.4C242 69.7 245.7 60.8 245.7 51.4C245.7 41.9 242 33 235.3 26.4ZM210.3 83.5C192.6 83.5 178.1 69.1 178.1 51.3C178.1 33.6 192.5 19.1 210.3 19.1C228 19.1 242.5 33.5 242.5 51.3C242.5 69.1 228.1 83.5 210.3 83.5Z" fill="black"/>
<path d="M210.3 22.3999C194.3 22.3999 181.3 35.3999 181.3 51.3999C181.3 67.3999 194.3 80.3999 210.3 80.3999C217 80.3999 223.5 78.0999 228.6 73.7999C229.3 73.1999 229.4 72.1999 228.8 71.4999C228.2 70.7999 227.2 70.6999 226.5 71.2999C221.9 75.0999 216.1 77.0999 210.2 77.0999C196 77.0999 184.4 65.4999 184.4 51.2999C184.4 37.0999 196 25.4999 210.2 25.4999C224.4 25.4999 236 37.0999 236 51.2999C236 57.1999 233.9 62.9999 230.2 67.5999C229.6 68.2999 229.7 69.2999 230.4 69.8999C231.1 70.4999 232.1 70.3999 232.7 69.6999C236.9 64.4999 239.3 57.9999 239.3 51.3999C239.3 35.3999 226.3 22.3999 210.3 22.3999Z" fill="black"/>
<path d="M215.9 51.6998L222.9 44.6998C223.7 43.8998 224.1 42.8998 224.1 41.7998C224.1 40.6998 223.7 39.5998 222.9 38.8998C221.3 37.2998 218.6 37.2998 217 38.8998L210.3 45.5998L200.2 35.4998C199.4 34.6998 198.4 34.2998 197.3 34.2998C196.2 34.2998 195.1 34.6998 194.4 35.4998C193.6 36.2998 193.2 37.2998 193.2 38.3998C193.2 39.4998 193.6 40.5998 194.4 41.2998L204.8 51.6998C204.8 52.5998 205.1 53.3998 205.5 54.0998L194.5 65.0998C193.9 65.6998 193.9 66.6998 194.5 67.3998C194.8 67.6998 195.2 67.8998 195.6 67.8998C196 67.8998 196.4 67.6998 196.7 67.3998L207.7 56.3998C208.5 56.7998 209.4 57.0998 210.4 57.0998C213.3 56.9998 215.8 54.5998 215.9 51.6998ZM219.3 41.0998C219.7 40.6998 220.3 40.6998 220.7 41.0998C220.9 41.2998 221 41.4998 221 41.7998C221 42.0998 220.9 42.2998 220.7 42.4998L215 48.1998C214.6 47.6998 214.2 47.1998 213.6 46.7998L219.3 41.0998ZM196.3 38.2998C196.3 37.9998 196.4 37.7998 196.6 37.5998C196.8 37.3998 197 37.2998 197.3 37.2998C197.6 37.2998 197.8 37.3998 198 37.5998L207.1 46.6998C206.6 47.0998 206.1 47.4998 205.7 48.0998L196.6 38.9998C196.4 38.7998 196.3 38.5998 196.3 38.2998ZM210.3 53.7998C209.6 53.7998 209 53.4998 208.6 53.0998C208.2 52.6998 207.9 52.0998 207.9 51.3998C207.9 50.0998 209 48.9998 210.3 48.9998C211.6 48.9998 212.7 50.0998 212.7 51.3998C212.7 52.6998 211.6 53.7998 210.3 53.7998Z" fill="black"/>
<path d="M191.8 49.7998H189.4C188.5 49.7998 187.8 50.4998 187.8 51.3998C187.8 52.2998 188.5 52.9998 189.4 52.9998H191.8C192.7 52.9998 193.4 52.2998 193.4 51.3998C193.4 50.4998 192.6 49.7998 191.8 49.7998Z" fill="black"/>
<path d="M211.9 32.7998V30.3998C211.9 29.4998 211.2 28.7998 210.3 28.7998C209.4 28.7998 208.7 29.4998 208.7 30.3998V32.7998C208.7 33.6998 209.4 34.3998 210.3 34.3998C211.2 34.3998 211.9 33.6998 211.9 32.7998Z" fill="black"/>
<path d="M232.9 51.3998C232.9 50.4998 232.2 49.7998 231.3 49.7998H228.9C228 49.7998 227.3 50.4998 227.3 51.3998C227.3 52.2998 228 52.9998 228.9 52.9998H231.3C232.2 52.9998 232.9 52.1998 232.9 51.3998Z" fill="black"/>
<path d="M208.7 69.8998V72.2998C208.7 73.1998 209.4 73.8998 210.3 73.8998C211.2 73.8998 211.9 73.1998 211.9 72.2998V69.8998C211.9 68.9998 211.2 68.2998 210.3 68.2998C209.4 68.2998 208.7 68.9998 208.7 69.8998Z" fill="black"/>
</g>
<defs>
<clipPath id="clip0">
<rect x="49" y="16" width="405.8" height="247.7" fill="white"/>
</clipPath>
</defs>
</svg>
