<svg width="504" height="281" viewBox="0 0 504 281" fill="none" xmlns="http://www.w3.org/2000/svg">
<g clip-path="url(#clip0)">
<path d="M296.5 71.0998H357.6C358.5 71.0998 359.2 70.3998 359.2 69.4998C359.2 68.8998 358.9 68.3998 358.4 68.0998L328 48.8998C327.5 48.5998 326.8 48.5998 326.3 48.8998L295.7 68.0998C295.1 68.4998 294.8 69.1998 295 69.8998C295.2 70.5998 295.8 71.0998 296.5 71.0998ZM327.1 52.1998L352.1 67.8998H302.1L327.1 52.1998Z" fill="black"/>
<path d="M360.9 108.2H359.3V103.4C359.3 102.5 358.6 101.8 357.7 101.8H356.1V77.4998H357.7C358.6 77.4998 359.3 76.7998 359.3 75.8998C359.3 74.9998 358.6 74.2998 357.7 74.2998H296.6C295.7 74.2998 295 74.9998 295 75.8998C295 76.7998 295.7 77.4998 296.6 77.4998H298.2V101.8H296.6C295.7 101.8 295 102.5 295 103.4V108.2H293.4C292.5 108.2 291.8 108.9 291.8 109.8V117.8C291.8 118.7 292.5 119.4 293.4 119.4H360.9C361.8 119.4 362.5 118.7 362.5 117.8V109.8C362.5 108.9 361.8 108.2 360.9 108.2ZM352.9 101.8H349.7V77.4998H352.9V101.8ZM340.2 101.8V77.4998H346.5V101.8H340.2ZM333.8 101.8V77.4998H337V101.8H333.8ZM323.6 101.8V77.4998H330.5V101.8H323.6ZM317.2 101.8V77.4998H320.4V101.8H317.2ZM307.7 101.8V77.4998H314V101.8H307.7ZM301.3 77.4998H304.5V101.8H301.3V77.4998ZM359.3 116.2H295V111.4H307.9C308.8 111.4 309.5 110.7 309.5 109.8C309.5 108.9 308.8 108.2 307.9 108.2H298.2V105H356.1V108.2H313.3C312.4 108.2 311.7 108.9 311.7 109.8C311.7 110.7 312.4 111.4 313.3 111.4H359.3V116.2Z" fill="black"/>
<path d="M212.4 194.3C215.9 194.3 218.8 191.4 218.8 187.9C218.8 184.4 215.9 181.5 212.4 181.5C208.9 181.5 206 184.4 206 187.9C206 191.4 208.8 194.3 212.4 194.3ZM212.4 184.7C214.2 184.7 215.6 186.1 215.6 187.9C215.6 189.7 214.2 191.1 212.4 191.1C210.6 191.1 209.2 189.7 209.2 187.9C209.2 186.1 210.6 184.7 212.4 184.7Z" fill="black"/>
<path d="M202.8 208.7C203.7 208.7 204.4 208 204.4 207.1C204.4 202.7 208 199.1 212.4 199.1C216.8 199.1 220.4 202.7 220.4 207.1C220.4 208 221.1 208.7 222 208.7C222.9 208.7 223.6 208 223.6 207.1C223.6 200.9 218.6 195.9 212.4 195.9C206.2 195.9 201.2 200.9 201.2 207.1C201.2 208 201.9 208.7 202.8 208.7Z" fill="black"/>
<path d="M226 242.1L228.2 213.6H233.1C234 213.6 234.7 212.9 234.7 212C234.7 211.1 234 210.4 233.1 210.4H214V204C214 203.1 213.3 202.4 212.4 202.4C211.5 202.4 210.8 203.1 210.8 204V210.4H191.6C190.7 210.4 190 211.1 190 212C190 212.9 190.7 213.6 191.6 213.6H196.5L198.7 242.1C198.8 242.9 199.5 243.6 200.3 243.6H200.4C201.3 243.5 201.9 242.8 201.9 241.9L199.7 213.6H225L222.8 241.9C222.7 242.8 223.4 243.6 224.3 243.6H224.4C225.3 243.5 226 242.9 226 242.1Z" fill="black"/>
<path d="M218.8 232.2C218.8 228.7 215.9 225.8 212.4 225.8C208.9 225.8 206 228.7 206 232.2C206 235.7 208.9 238.6 212.4 238.6C215.9 238.6 218.8 235.8 218.8 232.2ZM209.2 232.2C209.2 230.4 210.6 229 212.4 229C214.2 229 215.6 230.4 215.6 232.2C215.6 234 214.2 235.4 212.4 235.4C210.6 235.4 209.2 234 209.2 232.2Z" fill="black"/>
<path d="M212.4 240.2C206.2 240.2 201.2 245.2 201.2 251.4C201.2 252.3 201.9 253 202.8 253C203.7 253 204.4 252.3 204.4 251.4C204.4 247 208 243.4 212.4 243.4C216.8 243.4 220.4 247 220.4 251.4C220.4 252.3 221.1 253 222 253C222.9 253 223.6 252.3 223.6 251.4C223.6 245.3 218.5 240.2 212.4 240.2Z" fill="black"/>
<path d="M230.1 232.2C230.1 235.7 233 238.6 236.5 238.6C240 238.6 242.9 235.7 242.9 232.2C242.9 228.7 240 225.8 236.5 225.8C233 225.8 230.1 228.7 230.1 232.2ZM236.5 229C238.3 229 239.7 230.4 239.7 232.2C239.7 234 238.3 235.4 236.5 235.4C234.7 235.4 233.3 234 233.3 232.2C233.3 230.5 234.8 229 236.5 229Z" fill="black"/>
<path d="M236.5 240.2C230.3 240.2 225.3 245.2 225.3 251.4C225.3 252.3 226 253 226.9 253C227.8 253 228.5 252.3 228.5 251.4C228.5 247 232.1 243.4 236.5 243.4C240.9 243.4 244.5 247 244.5 251.4C244.5 252.3 245.2 253 246.1 253C247 253 247.7 252.3 247.7 251.4C247.7 245.3 242.7 240.2 236.5 240.2Z" fill="black"/>
<path d="M188.2 238.6C191.7 238.6 194.6 235.7 194.6 232.2C194.6 228.7 191.7 225.8 188.2 225.8C184.7 225.8 181.8 228.7 181.8 232.2C181.8 235.8 184.7 238.6 188.2 238.6ZM188.2 229C190 229 191.4 230.4 191.4 232.2C191.4 234 190 235.4 188.2 235.4C186.4 235.4 185 234 185 232.2C185 230.5 186.4 229 188.2 229Z" fill="black"/>
<path d="M188.2 240.2C182 240.2 177 245.2 177 251.4C177 252.3 177.7 253 178.6 253C179.5 253 180.2 252.3 180.2 251.4C180.2 247 183.8 243.4 188.2 243.4C192.6 243.4 196.2 247 196.2 251.4C196.2 252.3 196.9 253 197.8 253C198.7 253 199.4 252.3 199.4 251.4C199.4 245.3 194.4 240.2 188.2 240.2Z" fill="black"/>
<path d="M249 30.8001C252.7 29.0001 256.5 27.2001 260.6 25.6001" stroke="black" stroke-width="3.2" stroke-miterlimit="10" stroke-linecap="round" stroke-linejoin="round"/>
<path d="M208.7 64.6C210.9 61.1 213.4 57.8 216.4 54.5" stroke="black" stroke-width="3.2" stroke-miterlimit="10" stroke-linecap="round" stroke-linejoin="round"/>
<path d="M202.9 76.8001C203.4 75.4001 203.9 74.0001 204.5 72.6001" stroke="black" stroke-width="3.2" stroke-miterlimit="10" stroke-linecap="round" stroke-linejoin="round"/>
<path d="M361.3 172C355.7 172.4 349.9 172.6 344.1 172.6C264.8 172.6 200.6 136.3 200.6 91.4998C200.6 86.4998 201.4 81.4998 203 76.7998" stroke="black" stroke-width="3.2" stroke-miterlimit="10" stroke-linecap="round" stroke-linejoin="round"/>
<path d="M378 170.3C373.7 170.9 369.2 171.4 364.7 171.7" stroke="black" stroke-width="3.2" stroke-miterlimit="10" stroke-linecap="round" stroke-linejoin="round"/>
<path d="M364.3 222.1H364.1C363.5 219.3 361.3 217.1 358.5 216.5V212.8C358.5 197.4 346 184.8 330.5 184.8C315.1 184.8 302.5 197.3 302.5 212.8V216.5C299.7 217.1 297.5 219.3 296.9 222.1H296.7C295.8 222.1 295.1 222.8 295.1 223.7C295.1 224.6 295.8 225.3 296.7 225.3H296.9C297.5 228.1 299.8 230.4 302.7 230.9C303.4 233.7 305.9 235.8 308.9 235.8C312.4 235.8 315.3 232.9 315.3 229.4V217.9C315.3 214.4 312.4 211.5 308.9 211.5C307.7 211.5 306.6 211.8 305.7 212.4C305.9 198.9 316.9 188 330.4 188C343.9 188 354.9 198.9 355.1 212.4C354.2 211.9 353.1 211.5 351.9 211.5C348.4 211.5 345.5 214.4 345.5 217.9V229.4C345.5 232.9 348.4 235.8 351.9 235.8C354.9 235.8 357.5 233.7 358.1 230.9C359.1 230.7 360 230.3 360.8 229.7V236.8C360.8 239.8 359.3 242.7 356.7 244.8C354 247.1 350.3 248.3 346.4 248.3H336C335.7 245.8 334.5 244.3 332.8 244.3H326.8C323.7 244.3 321.2 246.8 321.2 249.9C321.2 253 323.7 255.5 326.8 255.5H332.8C334.5 255.5 335.6 254 336 251.5H346.4C356.1 251.5 364 244.9 364 236.8V225.3C364.9 225.3 365.6 224.6 365.6 223.7C365.9 222.8 365.2 222.1 364.3 222.1ZM305.9 217.9C305.9 216.1 307.3 214.7 309.1 214.7C310.9 214.7 312.3 216.1 312.3 217.9V229.4C312.3 231.2 310.9 232.6 309.1 232.6C307.3 232.6 305.9 231.2 305.9 229.4C305.9 228.5 305.2 227.8 304.3 227.8C302 227.8 300.1 225.9 300.1 223.6C300.1 221.9 301.2 220.4 302.7 219.7V223.9C302.7 224.8 303.4 225.5 304.3 225.5C305.2 225.5 305.9 224.8 305.9 223.9V217.9ZM332.8 252.4H327.1C325.8 252.4 324.7 251.3 324.7 250C324.7 248.7 325.8 247.6 327.1 247.6H332.8C333 247.9 333.2 248.8 333.2 250C333.2 251.2 333 252 332.8 252.4ZM356.9 227.8C356 227.8 355.3 228.5 355.3 229.4C355.3 231.2 353.9 232.6 352.1 232.6C350.3 232.6 348.9 231.2 348.9 229.4V217.9C348.9 216.1 350.3 214.7 352.1 214.7C353.9 214.7 355.3 216.1 355.3 217.9V224C355.3 224.9 356 225.6 356.9 225.6C357.8 225.6 358.5 224.9 358.5 224V219.9C360 220.5 361.1 222 361.1 223.7C361.1 226 359.2 227.8 356.9 227.8Z" fill="black"/>
<path d="M153.9 37C148.8 31.9 141.9 29 134.7 29C119.7 29 107.5 41.2 107.5 56.2C107.5 62.9 109.9 69.3 114.4 74.3L109.8 78.9L108.7 77.8C108.4 77.5 108 77.3 107.6 77.3C107.2 77.3 106.8 77.5 106.5 77.8L91.5 92.7C90.9 93.3 90.9 94.3 91.5 95L96 99.5C96.3 99.8 96.7 100 97.1 100C97.5 100 97.9 99.8 98.2 99.5L113.1 84.6C113.7 84 113.7 83 113.1 82.3L112 81.2L116.6 76.6C121.6 81 127.9 83.5 134.7 83.5C149.7 83.5 161.9 71.3 161.9 56.3C161.9 49 159.1 42.2 153.9 37ZM97.1 96.1L94.8 93.8L107.5 81.1L108.6 82.2L109.7 83.3L97.1 96.1ZM134.7 80.3C128.3 80.3 122.3 77.8 117.7 73.3C113.2 68.8 110.7 62.7 110.7 56.3C110.7 43.1 121.5 32.3 134.7 32.3C141.1 32.3 147.1 34.8 151.7 39.3C156.2 43.8 158.7 49.9 158.7 56.3C158.7 69.5 147.9 80.3 134.7 80.3Z" fill="black"/>
<path d="M134.7 35.5C123.2 35.5 113.9 44.8 113.9 56.3C113.9 67.8 123.2 77.1 134.7 77.1C146.2 77.1 155.5 67.8 155.5 56.3C155.5 44.8 146.2 35.5 134.7 35.5ZM134.7 73.9C125 73.9 117.1 66 117.1 56.3C117.1 46.6 125 38.7 134.7 38.7C144.4 38.7 152.3 46.6 152.3 56.3C152.3 66 144.4 73.9 134.7 73.9Z" fill="black"/>
<path d="M142.6 46.0999L132.7 55.9999C132.1 56.5999 132.1 57.5999 132.7 58.2999C133 58.5999 133.4 58.7999 133.8 58.7999C134.2 58.7999 134.6 58.5999 134.9 58.2999L144.8 48.3999C145.4 47.7999 145.4 46.7999 144.8 46.0999C144.2 45.4999 143.2 45.4999 142.6 46.0999Z" fill="black"/>
<path d="M128.8 59.8001L124.5 64.1001C123.9 64.7001 123.9 65.7001 124.5 66.4001C124.8 66.7001 125.2 66.9001 125.6 66.9001C126 66.9001 126.4 66.7001 126.7 66.4001L131 62.1001C131.6 61.5001 131.6 60.5001 131 59.8001C130.5 59.2001 129.5 59.2001 128.8 59.8001Z" fill="black"/>
<path d="M137.2 42.4002C136.6 41.8002 135.6 41.8002 134.9 42.4002L120.8 56.5002C120.2 57.1002 120.2 58.1002 120.8 58.8002C121.1 59.1002 121.5 59.3002 121.9 59.3002C122.3 59.3002 122.7 59.1002 123 58.8002L137.1 44.7002C137.9 44.0002 137.9 43.0002 137.2 42.4002Z" fill="black"/>
<path d="M138.4 166.7C138.7 167 139.1 167.2 139.5 167.2C139.9 167.2 140.3 167 140.6 166.7C141.2 166.1 141.2 165.1 140.6 164.4L131 154.8C130.4 154.2 129.4 154.2 128.7 154.8C128.1 155.4 128.1 156.4 128.7 157.1L138.4 166.7Z" fill="black"/>
<path d="M137.6 157.8C137.9 158.1 138.3 158.3 138.7 158.3C139.1 158.3 139.5 158.1 139.8 157.8C140.4 157.2 140.4 156.2 139.8 155.5L135 150.7C134.4 150.1 133.4 150.1 132.7 150.7C132.1 151.3 132.1 152.3 132.7 153L137.6 157.8Z" fill="black"/>
<path d="M110 146.5C109.2 146.9 109 147.9 109.4 148.7C109.8 149.5 110.8 149.7 111.6 149.3C113.3 148.3 115.5 148.6 117 150C118.4 151.4 118.7 153.6 117.7 155.4C117.3 156.2 117.5 157.1 118.3 157.6C118.5 157.7 118.8 157.8 119.1 157.8C119.7 157.8 120.2 157.5 120.5 157C122.2 154 121.7 150.2 119.3 147.8C116.8 145.3 113 144.8 110 146.5Z" fill="black"/>
<path d="M136.3 170.9C136.9 170.3 136.9 169.3 136.3 168.6L126.7 159C126.1 158.4 125.1 158.4 124.4 159C123.8 159.6 123.8 160.6 124.4 161.3L134 170.9C134.3 171.2 134.7 171.4 135.1 171.4C135.6 171.4 136 171.3 136.3 170.9Z" fill="black"/>
<path d="M153.7 175.3L134.2 194.8L101.7 162.3C101.1 161.7 100.1 161.7 99.4001 162.3C98.7001 162.9 98.8001 163.9 99.4001 164.6L133 198.2C133.3 198.5 133.7 198.7 134.1 198.7C134.5 198.7 134.9 198.5 135.2 198.2L156 177.6C156.6 177 156.6 176 156 175.3C155.4 174.7 154.4 174.7 153.7 175.3Z" fill="black"/>
<path d="M153.7 167.3L134.2 186.8L101.7 154.3C101.1 153.7 100.1 153.7 99.4001 154.3C98.7001 154.9 98.8001 155.9 99.4001 156.6L133 190.2C133.3 190.5 133.7 190.7 134.1 190.7C134.5 190.7 134.9 190.5 135.2 190.2L156 169.6C156.6 169 156.6 168 156 167.3C155.4 166.7 154.4 166.7 153.7 167.3Z" fill="black"/>
<path d="M133.1 182.2C133.4 182.5 133.8 182.7 134.2 182.7C134.6 182.7 135 182.5 135.3 182.2L156 161.6C156.6 161 156.6 160 156 159.3L122.4 125.7C121.8 125.1 120.8 125.1 120.1 125.7L99.5 146.4C98.9 147 98.9 148 99.5 148.7L133.1 182.2ZM121.3 129.1L152.6 160.4L134.2 178.8L102.9 147.5L121.3 129.1Z" fill="black"/>
<path d="M126.9 146.6C127.8 145.7 128.3 144.6 128.3 143.3C128.3 142.1 127.8 140.9 126.9 140C126 139.1 124.9 138.6 123.6 138.6C122.4 138.6 121.2 139.1 120.3 140C119.4 140.9 118.9 142 118.9 143.3C118.9 144.5 119.4 145.7 120.3 146.6C121.2 147.5 122.4 148 123.6 148C124.8 148 126 147.5 126.9 146.6ZM124.7 144.3C124.1 144.9 123.2 144.9 122.7 144.3C122.4 144 122.3 143.7 122.3 143.3C122.3 142.9 122.4 142.6 122.7 142.3C123 142 123.3 141.9 123.7 141.9C124.1 141.9 124.4 142 124.7 142.3C125 142.6 125.1 142.9 125.1 143.3C125.1 143.7 124.9 144.1 124.7 144.3Z" fill="black"/>
</g>
<defs>
<clipPath id="clip0">
<rect x="91" y="24" width="288.6" height="231.6" fill="white"/>
</clipPath>
</defs>
</svg>
