<svg width="504" height="281" viewBox="0 0 504 281" fill="none" xmlns="http://www.w3.org/2000/svg">
<g clip-path="url(#clip0)">
<path d="M83.7999 168.5L80.1999 145.2L80.6999 143C80.8999 142 80.0999 141 79.0999 141C78.3999 141 77.6999 141.5 77.5999 142.2L77.2999 143.6H24.6999L29.6999 122.1H75.8999C76.6999 122.1 77.2999 121.6 77.4999 120.8C77.4999 120.7 77.4999 120.6 77.4999 120.4C77.4999 119.5 76.7999 118.8 75.8999 118.8H28.3999C27.5999 118.8 26.9999 119.3 26.7999 120L20.9999 144.9C20.9999 145.2 20.9999 145.4 20.9999 145.7L26.5999 170.1L20.9999 194.5C20.8999 195 20.9999 195.5 21.2999 195.9C21.5999 196.3 22.0999 196.5 22.5999 196.5H78.4999C79.2999 196.5 79.8999 196 80.0999 195.2L83.6999 170.5C83.7999 170.2 83.8999 168.9 83.7999 168.5ZM77.2999 193.2H24.6999L29.5999 171.7H80.2999L77.2999 193.2ZM29.5999 168.4L24.5999 146.9H77.1999L80.4999 168.4H29.5999Z" fill="black"/>
<path d="M34.6 130.6H62.5C63.4 130.6 64.1 129.9 64.1 129C64.1 128.1 63.4 127.4 62.5 127.4H34.6C33.7 127.4 33 128.1 33 129C33 129.9 33.7 130.6 34.6 130.6Z" fill="black"/>
<path d="M31.6999 138.4H59.5999C60.4999 138.4 61.1999 137.7 61.1999 136.8C61.1999 135.9 60.4999 135.2 59.5999 135.2H31.6999C30.7999 135.2 30.0999 135.9 30.0999 136.8C30.0999 137.7 30.7999 138.4 31.6999 138.4Z" fill="black"/>
<path d="M64.1 178.6C64.1 177.7 63.4 177 62.5 177H34.6C33.7 177 33 177.7 33 178.6C33 179.5 33.7 180.2 34.6 180.2H62.5C63.4 180.2 64.1 179.4 64.1 178.6Z" fill="black"/>
<path d="M31.6999 184.7C30.7999 184.7 30.0999 185.4 30.0999 186.3C30.0999 187.2 30.7999 187.9 31.6999 187.9H59.5999C60.4999 187.9 61.1999 187.2 61.1999 186.3C61.1999 185.4 60.4999 184.7 59.5999 184.7H31.6999Z" fill="black"/>
<path d="M61.1999 153.8C61.1999 152.9 60.4999 152.2 59.5999 152.2H31.6999C30.7999 152.2 30.0999 152.9 30.0999 153.8C30.0999 154.7 30.7999 155.4 31.6999 155.4H59.5999C60.4999 155.4 61.1999 154.7 61.1999 153.8Z" fill="black"/>
<path d="M34.6 163.2H62.5C63.4 163.2 64.1 162.5 64.1 161.6C64.1 160.7 63.4 160 62.5 160H34.6C33.7 160 33 160.7 33 161.6C33 162.5 33.7 163.2 34.6 163.2Z" fill="black"/>
<path d="M67.6999 132.2C67.7999 132.8 68.1999 133.2 68.7999 133.4C68.9999 133.5 69.0999 133.5 69.2999 133.5C69.6999 133.5 70.0999 133.4 70.3999 133.1L75.8999 128.2C76.5999 127.6 76.5999 126.6 75.9999 125.9C75.3999 125.2 74.3999 125.2 73.6999 125.8L70.2999 128.8L70.1999 128.3C69.9999 127.4 69.1999 126.9 68.2999 127C67.3999 127.2 66.8999 128 66.9999 128.9L67.6999 132.2Z" fill="black"/>
<path d="M121 104.9L112.7 96.1001C112.4 95.8001 112 95.6001 111.6 95.6001C111.2 95.6001 110.8 95.7001 110.4 96.0001L79.4998 125C79.2998 125.2 79.1998 125.4 79.0998 125.7L75.1998 137.6C74.9998 138.2 75.1998 138.8 75.5998 139.2C75.8998 139.5 76.2998 139.7 76.7998 139.7C76.8998 139.7 77.0998 139.7 77.1998 139.6L89.3998 136.5C89.6998 136.4 89.8998 136.3 90.0998 136.1L121 107.1C121.6 106.5 121.6 105.5 121 104.9ZM79.1998 135.8L81.2998 129.3L85.7998 134.1L79.1998 135.8ZM88.9998 132.7L82.9998 126.3L111.6 99.5001L117.6 105.9L88.9998 132.7Z" fill="black"/>
<path d="M229.5 153L224.5 144.8L229.1 136.3C229.5 135.5 229.2 134.6 228.5 134.1C227.7 133.7 226.8 134 226.3 134.7L221.7 143.2L212.1 143.4C211.2 143.4 210.5 144.2 210.5 145C210.5 145.9 211.3 146.6 212.1 146.6L221.7 146.4L226.7 154.6C226.9 154.8 227.1 155 227.3 155.2C227.8 155.5 228.4 155.5 228.9 155.2C229.7 154.7 229.9 153.7 229.5 153Z" fill="black"/>
<path d="M170.6 129.1C162.9 129.1 156.6 135.4 156.6 143.1C156.6 150.8 162.9 157.1 170.6 157.1C173.2 157.1 175.8 156.4 178 155C178.8 154.5 179 153.5 178.5 152.8C178 152 177 151.8 176.3 152.3C174.6 153.4 172.6 153.9 170.6 153.9C164.6 153.9 159.8 149.1 159.8 143.1C159.8 137.1 164.6 132.3 170.6 132.3C176.6 132.3 181.4 137.1 181.4 143.1C181.4 144.1 181.2 145 180.7 145.5C180.4 145.9 180 146 179.7 146C178.9 146 178 145.1 178 143.1C178 139 174.7 135.7 170.6 135.7C166.5 135.7 163.2 139 163.2 143.1C163.2 147.2 166.5 150.5 170.6 150.5C172.9 150.5 175 149.4 176.3 147.7C177.2 148.7 178.4 149.2 179.6 149.2C180.9 149.2 182.2 148.6 183.1 147.5C184 146.4 184.5 144.9 184.5 143.1C184.6 135.4 178.3 129.1 170.6 129.1ZM170.6 147.3C168.3 147.3 166.4 145.4 166.4 143.1C166.4 140.8 168.3 138.9 170.6 138.9C172.9 138.9 174.8 140.8 174.8 143.1C174.7 145.4 172.9 147.3 170.6 147.3Z" fill="black"/>
<path d="M200.4 117.9H140.8C137.7 117.9 135.2 120.4 135.2 123.5V162.9C135.2 166 137.7 168.5 140.8 168.5H200.4C203.5 168.5 206 166 206 162.9V123.5C205.9 120.4 203.4 117.9 200.4 117.9ZM202.7 162.8C202.7 164.1 201.6 165.2 200.3 165.2H140.7C139.4 165.2 138.3 164.1 138.3 162.8V123.5C138.3 122.2 139.4 121.1 140.7 121.1H200.3C201.6 121.1 202.7 122.2 202.7 123.5V162.8Z" fill="black"/>
<path d="M187.8 178.5H180.2V171.6C180.2 170.7 179.5 170 178.6 170C177.7 170 177 170.7 177 171.6V178.5H164V171.6C164 170.7 163.3 170 162.4 170C161.5 170 160.8 170.7 160.8 171.6V178.5H153.2C152.3 178.5 151.6 179.2 151.6 180.1C151.6 181 152.3 181.7 153.2 181.7H187.7C188.6 181.7 189.3 181 189.3 180.1C189.4 179.2 188.7 178.5 187.8 178.5Z" fill="black"/>
<path d="M243.7 105.1C236 105.1 229.7 111.4 229.7 119.1C229.7 126.8 236 133.1 243.7 133.1C246.3 133.1 248.9 132.4 251.1 131C251.9 130.5 252.1 129.5 251.6 128.8C251.1 128 250.1 127.8 249.4 128.3C247.7 129.4 245.7 129.9 243.7 129.9C237.7 129.9 232.9 125.1 232.9 119.1C232.9 113.1 237.7 108.3 243.7 108.3C249.7 108.3 254.5 113.1 254.5 119.1C254.5 120.1 254.3 121 253.8 121.5C253.5 121.9 253.1 122 252.8 122C252 122 251.1 121.1 251.1 119.1C251.1 115 247.8 111.7 243.7 111.7C239.6 111.7 236.3 115 236.3 119.1C236.3 123.2 239.6 126.5 243.7 126.5C246 126.5 248.1 125.4 249.4 123.7C250.3 124.7 251.5 125.2 252.7 125.2C254 125.2 255.3 124.6 256.2 123.5C257.1 122.4 257.6 120.9 257.6 119.1C257.7 111.4 251.4 105.1 243.7 105.1ZM243.7 123.3C241.4 123.3 239.5 121.4 239.5 119.1C239.5 116.8 241.4 114.9 243.7 114.9C246 114.9 247.9 116.8 247.9 119.1C247.9 121.4 246 123.3 243.7 123.3Z" fill="black"/>
<path d="M243.7 156C236 156 229.7 162.3 229.7 170C229.7 177.7 236 184 243.7 184C246.3 184 248.9 183.3 251.1 181.9C251.9 181.4 252.1 180.4 251.6 179.7C251.1 178.9 250.1 178.7 249.4 179.2C247.7 180.3 245.7 180.8 243.7 180.8C237.7 180.8 232.9 176 232.9 170C232.9 164 237.7 159.2 243.7 159.2C249.7 159.2 254.5 164 254.5 170C254.5 171 254.3 171.9 253.8 172.4C253.5 172.8 253.1 172.9 252.8 172.9C252 172.9 251.1 172 251.1 170C251.1 165.9 247.8 162.6 243.7 162.6C239.6 162.6 236.3 165.9 236.3 170C236.3 174.1 239.6 177.4 243.7 177.4C246 177.4 248.1 176.3 249.4 174.6C250.3 175.6 251.5 176.1 252.7 176.1C254 176.1 255.3 175.5 256.2 174.4C257.1 173.3 257.6 171.8 257.6 170C257.7 162.3 251.4 156 243.7 156ZM243.7 174.2C241.4 174.2 239.5 172.3 239.5 170C239.5 167.7 241.4 165.8 243.7 165.8C246 165.8 247.9 167.7 247.9 170C247.9 172.3 246 174.2 243.7 174.2Z" fill="black"/>
<path d="M283.3 126.3L278.3 118.1L282.9 109.6C283.3 108.8 283 107.9 282.3 107.4C281.5 107 280.6 107.3 280.1 108L275.5 116.5L265.9 116.7C265 116.7 264.3 117.5 264.3 118.3C264.3 119.2 265.1 119.9 265.9 119.9L275.5 119.7L280.5 127.9C280.7 128.1 280.9 128.3 281.1 128.5C281.6 128.8 282.2 128.8 282.7 128.5C283.5 128 283.7 127 283.3 126.3Z" fill="black"/>
<path d="M297.5 78.3999C289.8 78.3999 283.5 84.6999 283.5 92.3999C283.5 100.1 289.8 106.4 297.5 106.4C300.1 106.4 302.7 105.7 304.9 104.3C305.7 103.8 305.9 102.8 305.4 102.1C304.9 101.3 303.9 101.1 303.2 101.6C301.5 102.7 299.5 103.2 297.5 103.2C291.5 103.2 286.7 98.3999 286.7 92.3999C286.7 86.3999 291.5 81.5999 297.5 81.5999C303.5 81.5999 308.3 86.3999 308.3 92.3999C308.3 93.3999 308.1 94.2999 307.6 94.7999C307.3 95.1999 306.9 95.2999 306.6 95.2999C305.8 95.2999 304.9 94.3999 304.9 92.3999C304.9 88.2999 301.6 84.9999 297.5 84.9999C293.4 84.9999 290.1 88.2999 290.1 92.3999C290.1 96.4999 293.4 99.7999 297.5 99.7999C299.8 99.7999 301.9 98.6999 303.2 96.9999C304.1 97.9999 305.3 98.4999 306.5 98.4999C307.8 98.4999 309.1 97.8999 310 96.7999C310.9 95.6999 311.4 94.1999 311.4 92.3999C311.5 84.6999 305.2 78.3999 297.5 78.3999ZM297.5 96.5999C295.2 96.5999 293.3 94.6999 293.3 92.3999C293.3 90.0999 295.2 88.1999 297.5 88.1999C299.8 88.1999 301.7 90.0999 301.7 92.3999C301.7 94.6999 299.8 96.5999 297.5 96.5999Z" fill="black"/>
<path d="M297.5 129.3C289.8 129.3 283.5 135.6 283.5 143.3C283.5 151 289.8 157.3 297.5 157.3C300.1 157.3 302.7 156.6 304.9 155.2C305.7 154.7 305.9 153.7 305.4 153C304.9 152.2 303.9 152 303.2 152.5C301.5 153.6 299.5 154.1 297.5 154.1C291.5 154.1 286.7 149.3 286.7 143.3C286.7 137.3 291.5 132.5 297.5 132.5C303.5 132.5 308.3 137.3 308.3 143.3C308.3 144.3 308.1 145.2 307.6 145.7C307.3 146.1 306.9 146.2 306.6 146.2C305.8 146.2 304.9 145.3 304.9 143.3C304.9 139.2 301.6 135.9 297.5 135.9C293.4 135.9 290.1 139.2 290.1 143.3C290.1 147.4 293.4 150.7 297.5 150.7C299.8 150.7 301.9 149.6 303.2 147.9C304.1 148.9 305.3 149.4 306.5 149.4C307.8 149.4 309.1 148.8 310 147.7C310.9 146.6 311.4 145.1 311.4 143.3C311.5 135.6 305.2 129.3 297.5 129.3ZM297.5 147.5C295.2 147.5 293.3 145.6 293.3 143.3C293.3 141 295.2 139.1 297.5 139.1C299.8 139.1 301.7 141 301.7 143.3C301.7 145.6 299.8 147.5 297.5 147.5Z" fill="black"/>
<path d="M283.3 176.8L278.3 168.6L282.9 160.1C283.3 159.3 283 158.4 282.3 157.9C281.5 157.5 280.6 157.8 280.1 158.5L275.5 167L265.9 167.2C265 167.2 264.3 168 264.3 168.8C264.3 169.7 265.1 170.4 265.9 170.4L275.5 170.2L280.5 178.4C280.7 178.6 280.9 178.8 281.1 179C281.6 179.3 282.2 179.3 282.7 179C283.5 178.5 283.7 177.5 283.3 176.8Z" fill="black"/>
<path d="M297.5 179.8C289.8 179.8 283.5 186.1 283.5 193.8C283.5 201.5 289.8 207.8 297.5 207.8C300.1 207.8 302.7 207.1 304.9 205.7C305.7 205.2 305.9 204.2 305.4 203.5C304.9 202.7 303.9 202.5 303.2 203C301.5 204.1 299.5 204.6 297.5 204.6C291.5 204.6 286.7 199.8 286.7 193.8C286.7 187.8 291.5 183 297.5 183C303.5 183 308.3 187.8 308.3 193.8C308.3 194.8 308.1 195.7 307.6 196.2C307.3 196.6 306.9 196.7 306.6 196.7C305.8 196.7 304.9 195.8 304.9 193.8C304.9 189.7 301.6 186.4 297.5 186.4C293.4 186.4 290.1 189.7 290.1 193.8C290.1 197.9 293.4 201.2 297.5 201.2C299.8 201.2 301.9 200.1 303.2 198.4C304.1 199.4 305.3 199.9 306.5 199.9C307.8 199.9 309.1 199.3 310 198.2C310.9 197.1 311.4 195.6 311.4 193.8C311.5 186.1 305.2 179.8 297.5 179.8ZM297.5 198C295.2 198 293.3 196.1 293.3 193.8C293.3 191.5 295.2 189.6 297.5 189.6C299.8 189.6 301.7 191.5 301.7 193.8C301.7 196.1 299.8 198 297.5 198Z" fill="black"/>
<path d="M335.7 151.5L330.7 143.3L335.3 134.8C335.7 134 335.4 133.1 334.7 132.6C334 132.1 333 132.5 332.5 133.2L327.9 141.7L318.3 141.9C317.4 141.9 316.7 142.7 316.7 143.5C316.7 144.4 317.5 145.1 318.3 145.1L327.9 144.9L332.9 153.1C333.1 153.3 333.3 153.5 333.5 153.7C334 154 334.6 154 335.1 153.7C335.9 153.3 336.1 152.3 335.7 151.5Z" fill="black"/>
<path d="M349.9 103.7C342.2 103.7 335.9 110 335.9 117.7C335.9 125.4 342.2 131.7 349.9 131.7C352.5 131.7 355.1 131 357.3 129.6C358.1 129.1 358.3 128.1 357.8 127.4C357.3 126.6 356.3 126.4 355.6 126.9C353.9 128 351.9 128.5 349.9 128.5C343.9 128.5 339.1 123.7 339.1 117.7C339.1 111.7 343.9 106.9 349.9 106.9C355.9 106.9 360.7 111.7 360.7 117.7C360.7 118.7 360.5 119.6 360 120.1C359.7 120.5 359.3 120.6 359 120.6C358.2 120.6 357.3 119.7 357.3 117.7C357.3 113.6 354 110.3 349.9 110.3C345.8 110.3 342.5 113.6 342.5 117.7C342.5 121.8 345.8 125.1 349.9 125.1C352.2 125.1 354.3 124 355.6 122.3C356.5 123.3 357.7 123.8 358.9 123.8C360.2 123.8 361.5 123.2 362.4 122.1C363.3 121 363.8 119.5 363.8 117.7C363.9 110 357.6 103.7 349.9 103.7ZM349.9 121.9C347.6 121.9 345.7 120 345.7 117.7C345.7 115.4 347.6 113.5 349.9 113.5C352.2 113.5 354.1 115.4 354.1 117.7C354.1 120 352.2 121.9 349.9 121.9Z" fill="black"/>
<path d="M347.3 53C339.6 53 333.3 59.3 333.3 67C333.3 74.7 339.6 81 347.3 81C349.9 81 352.5 80.3 354.7 78.9C355.5 78.4 355.7 77.4 355.2 76.7C354.7 75.9 353.7 75.7 353 76.2C351.3 77.3 349.3 77.8 347.3 77.8C341.3 77.8 336.5 73 336.5 67C336.5 61 341.3 56.2 347.3 56.2C353.3 56.2 358.1 61 358.1 67C358.1 68 357.9 68.9 357.4 69.4C357.1 69.8 356.7 69.9 356.4 69.9C355.6 69.9 354.7 69 354.7 67C354.7 62.9 351.4 59.6 347.3 59.6C343.2 59.6 339.9 62.9 339.9 67C339.9 71.1 343.2 74.4 347.3 74.4C349.6 74.4 351.7 73.3 353 71.6C353.9 72.6 355.1 73.1 356.3 73.1C357.6 73.1 358.9 72.5 359.8 71.4C360.7 70.3 361.2 68.8 361.2 67C361.3 59.3 355 53 347.3 53ZM347.3 71.2C345 71.2 343.1 69.3 343.1 67C343.1 64.7 345 62.8 347.3 62.8C349.6 62.8 351.5 64.7 351.5 67C351.5 69.3 349.6 71.2 347.3 71.2Z" fill="black"/>
<path d="M333.1 100.5L328.1 92.3001L332.7 83.8001C333.1 83.0001 332.8 82.1001 332.1 81.6001C331.3 81.2001 330.4 81.5001 329.9 82.2001L325.3 90.7001L315.7 90.9001C314.8 90.9001 314.1 91.7001 314.1 92.5001C314.1 93.4001 314.9 94.1001 315.7 94.1001L325.3 93.9001L330.3 102.1C330.5 102.3 330.7 102.5 330.9 102.7C331.4 103 332 103 332.5 102.7C333.3 102.2 333.6 101.2 333.1 100.5Z" fill="black"/>
<path d="M454.1 103.7C446.4 103.7 440.1 110 440.1 117.7C440.1 125.4 446.4 131.7 454.1 131.7C456.7 131.7 459.3 131 461.5 129.6C462.3 129.1 462.5 128.1 462 127.4C461.5 126.6 460.5 126.4 459.8 126.9C458.1 128 456.1 128.5 454.1 128.5C448.1 128.5 443.3 123.7 443.3 117.7C443.3 111.7 448.1 106.9 454.1 106.9C460.1 106.9 464.9 111.7 464.9 117.7C464.9 118.7 464.7 119.6 464.2 120.1C463.9 120.5 463.5 120.6 463.2 120.6C462.4 120.6 461.5 119.7 461.5 117.7C461.5 113.6 458.2 110.3 454.1 110.3C450 110.3 446.7 113.6 446.7 117.7C446.7 121.8 450 125.1 454.1 125.1C456.4 125.1 458.5 124 459.8 122.3C460.7 123.3 461.9 123.8 463.1 123.8C464.4 123.8 465.7 123.2 466.6 122.1C467.5 121 468 119.5 468 117.7C468.1 110 461.8 103.7 454.1 103.7ZM454.1 121.9C451.8 121.9 449.9 120 449.9 117.7C449.9 115.4 451.8 113.5 454.1 113.5C456.4 113.5 458.3 115.4 458.3 117.7C458.2 120 456.4 121.9 454.1 121.9Z" fill="black"/>
<path d="M437.3 100.5L432.3 92.3001L436.9 83.8001C437.3 83.0001 437 82.1001 436.3 81.6001C435.5 81.2001 434.6 81.5001 434.1 82.2001L429.5 90.7001L419.9 90.9001C419 90.9001 418.3 91.7001 418.3 92.5001C418.3 93.4001 419.1 94.1001 419.9 94.1001L429.5 93.9001L434.5 102.1C434.7 102.3 434.9 102.5 435.1 102.7C435.6 103 436.2 103 436.7 102.7C437.5 102.2 437.7 101.2 437.3 100.5Z" fill="black"/>
<path d="M385.5 125.6L380.5 117.4L385.1 108.9C385.5 108.1 385.2 107.2 384.5 106.7C383.8 106.2 382.8 106.6 382.3 107.3L377.7 115.8L368.1 116C367.2 116 366.5 116.8 366.5 117.6C366.5 118.5 367.3 119.2 368.1 119.2L377.7 119L382.7 127.2C382.9 127.4 383.1 127.6 383.3 127.8C383.8 128.1 384.4 128.1 384.9 127.8C385.7 127.4 386 126.4 385.5 125.6Z" fill="black"/>
<path d="M399.7 77.7998C392 77.7998 385.7 84.0998 385.7 91.7998C385.7 99.4998 392 105.8 399.7 105.8C402.3 105.8 404.9 105.1 407.1 103.7C407.9 103.2 408.1 102.2 407.6 101.5C407.1 100.7 406.1 100.5 405.4 101C403.7 102.1 401.7 102.6 399.7 102.6C393.7 102.6 388.9 97.7998 388.9 91.7998C388.9 85.7998 393.7 80.9998 399.7 80.9998C405.7 80.9998 410.5 85.7998 410.5 91.7998C410.5 92.7998 410.3 93.6998 409.8 94.1998C409.5 94.5998 409.1 94.6998 408.8 94.6998C408 94.6998 407.1 93.7998 407.1 91.7998C407.1 87.6998 403.8 84.3998 399.7 84.3998C395.6 84.3998 392.3 87.6998 392.3 91.7998C392.3 95.8998 395.6 99.1998 399.7 99.1998C402 99.1998 404.1 98.0998 405.4 96.3998C406.3 97.3998 407.5 97.8998 408.7 97.8998C410 97.8998 411.3 97.2998 412.2 96.1998C413.1 95.0998 413.6 93.5998 413.6 91.7998C413.7 84.0998 407.5 77.7998 399.7 77.7998ZM399.7 95.9998C397.4 95.9998 395.5 94.0998 395.5 91.7998C395.5 89.4998 397.4 87.5998 399.7 87.5998C402 87.5998 403.9 89.4998 403.9 91.7998C403.9 94.0998 402 95.9998 399.7 95.9998Z" fill="black"/>
<path d="M349.9 154.6C342.2 154.6 335.9 160.9 335.9 168.6C335.9 176.3 342.2 182.6 349.9 182.6C352.5 182.6 355.1 181.9 357.3 180.5C358.1 180 358.3 179 357.8 178.3C357.3 177.5 356.3 177.3 355.6 177.8C353.9 178.9 351.9 179.4 349.9 179.4C343.9 179.4 339.1 174.6 339.1 168.6C339.1 162.6 343.9 157.8 349.9 157.8C355.9 157.8 360.7 162.6 360.7 168.6C360.7 169.6 360.5 170.5 360 171C359.7 171.4 359.3 171.5 359 171.5C358.2 171.5 357.3 170.6 357.3 168.6C357.3 164.5 354 161.2 349.9 161.2C345.8 161.2 342.5 164.5 342.5 168.6C342.5 172.7 345.8 176 349.9 176C352.2 176 354.3 174.9 355.6 173.2C356.5 174.2 357.7 174.7 358.9 174.7C360.2 174.7 361.5 174.1 362.4 173C363.3 171.9 363.8 170.4 363.8 168.6C363.9 160.8 357.6 154.6 349.9 154.6ZM349.9 172.7C347.6 172.7 345.7 170.8 345.7 168.5C345.7 166.2 347.6 164.3 349.9 164.3C352.2 164.3 354.1 166.2 354.1 168.5C354.1 170.9 352.2 172.7 349.9 172.7Z" fill="black"/>
<path d="M335.7 202.1L330.7 193.9L335.3 185.4C335.7 184.6 335.4 183.7 334.7 183.2C333.9 182.8 333 183.1 332.5 183.8L327.9 192.3L318.3 192.5C317.4 192.5 316.7 193.3 316.7 194.1C316.7 195 317.5 195.7 318.3 195.7L327.9 195.5L332.9 203.7C333.1 203.9 333.3 204.1 333.5 204.3C334 204.6 334.6 204.6 335.1 204.3C335.9 203.8 336.1 202.8 335.7 202.1Z" fill="black"/>
<path d="M349.9 205.1C342.2 205.1 335.9 211.4 335.9 219.1C335.9 226.8 342.2 233.1 349.9 233.1C352.5 233.1 355.1 232.4 357.3 231C358.1 230.5 358.3 229.5 357.8 228.8C357.3 228 356.3 227.8 355.6 228.3C353.9 229.4 351.9 229.9 349.9 229.9C343.9 229.9 339.1 225.1 339.1 219.1C339.1 213.1 343.9 208.3 349.9 208.3C355.9 208.3 360.7 213.1 360.7 219.1C360.7 220.1 360.5 221 360 221.5C359.7 221.9 359.3 222 359 222C358.2 222 357.3 221.1 357.3 219.1C357.3 215 354 211.7 349.9 211.7C345.8 211.7 342.5 215 342.5 219.1C342.5 223.2 345.8 226.5 349.9 226.5C352.2 226.5 354.3 225.4 355.6 223.7C356.5 224.7 357.7 225.2 358.9 225.2C360.2 225.2 361.5 224.6 362.4 223.5C363.3 222.4 363.8 220.9 363.8 219.1C363.9 211.4 357.6 205.1 349.9 205.1ZM349.9 223.3C347.6 223.3 345.7 221.4 345.7 219.1C345.7 216.8 347.6 214.9 349.9 214.9C352.2 214.9 354.1 216.8 354.1 219.1C354.1 221.4 352.2 223.3 349.9 223.3Z" fill="black"/>
</g>
<defs>
<clipPath id="clip0">
<rect x="21" y="53" width="447.1" height="180.1" fill="white"/>
</clipPath>
</defs>
</svg>
