<svg width="504" height="281" viewBox="0 0 504 281" fill="none" xmlns="http://www.w3.org/2000/svg">
<g clip-path="url(#clip0)">
<path d="M87.2 128H84V119.7C84 108.2 74.7 98.8999 63.2 98.8999C51.7 98.8999 42.4 108.2 42.4 119.7V128H39.2C37.4 128 36 129.5 36 131.2V166.4C36 168.2 37.4 169.6 39.2 169.6H87.2C89 169.6 90.4 168.2 90.4 166.4V131.2C90.4 129.5 89 128 87.2 128ZM45.6 119.7C45.6 110 53.5 102.1 63.2 102.1C72.9 102.1 80.8 110 80.8 119.7V128H77.6V119.7C77.6 111.8 71.1 105.3 63.2 105.3C55.3 105.3 48.8 111.8 48.8 119.7V128H45.6V119.7ZM52 128V119.7C52 113.5 57 108.5 63.2 108.5C69.4 108.5 74.4 113.5 74.4 119.7V128H52ZM87.2 166.4H77.6V158.4C77.6 157.5 76.9 156.8 76 156.8C75.1 156.8 74.4 157.5 74.4 158.4V166.4H39.2V131.2H74.4V153C74.4 153.9 75.1 154.6 76 154.6C76.9 154.6 77.6 153.9 77.6 153V131.2H87.2V166.4V166.4Z" fill="black"/>
<path d="M56.8 137.6C53.3 137.6 50.4 140.5 50.4 144C50.4 145.7 51.1 147.4 52.3 148.6L50.4 158.1C50.3 158.6 50.4 159.1 50.7 159.4C51 159.8 51.5 160 51.9 160H61.5C62 160 62.4001 159.8 62.7001 159.4C63.0001 159 63.1 158.5 63 158.1L61.1 148.6C62.3001 147.4 63 145.8 63 144C63.2 140.5 60.3 137.6 56.8 137.6ZM57.9 148.3L59.6 156.8H54L55.7 148.3C55.8 147.7 55.6 147 55 146.7C54.1 146.1 53.6 145.1 53.6 144.1C53.6 142.3 55 140.9 56.8 140.9C58.6 140.9 60 142.3 60 144.1C60 145.2 59.5 146.2 58.6 146.7C58.1 147 57.8 147.7 57.9 148.3Z" fill="black"/>
<path d="M181.5 195.7C187.2 195.7 191.9 191 191.9 185.3C191.9 179.6 187.2 174.9 181.5 174.9C175.8 174.9 171.1 179.6 171.1 185.3C171.1 191 175.8 195.7 181.5 195.7ZM181.5 178.1C185.5 178.1 188.7 181.3 188.7 185.3C188.7 189.3 185.5 192.5 181.5 192.5C177.5 192.5 174.3 189.3 174.3 185.3C174.3 181.3 177.5 178.1 181.5 178.1Z" fill="black"/>
<path d="M181.5 199.5C176 199.5 170.8 201.9 167.1 206C166.5 206.7 166.6 207.7 167.2 208.3C167.9 208.9 168.9 208.8 169.5 208.2C172.2 205.2 175.9 203.3 179.9 202.9V204.5C179.9 205.4 180.6 206.1 181.5 206.1C182.4 206.1 183.1 205.4 183.1 204.5V202.9C191.2 203.7 197.5 210.5 197.5 218.8C197.5 219.7 198.2 220.4 199.1 220.4C200 220.4 200.7 219.7 200.7 218.8C200.7 208.2 192.1 199.5 181.5 199.5Z" fill="black"/>
<path d="M149.2 195.7C154.9 195.7 159.6 191 159.6 185.3C159.6 179.6 154.9 174.9 149.2 174.9C143.5 174.9 138.8 179.6 138.8 185.3C138.8 191 143.4 195.7 149.2 195.7ZM149.2 178.1C153.2 178.1 156.4 181.3 156.4 185.3C156.4 189.3 153.2 192.5 149.2 192.5C145.2 192.5 142 189.3 142 185.3C142 181.3 145.2 178.1 149.2 178.1Z" fill="black"/>
<path d="M149.2 199.5C138.6 199.5 130 208.1 130 218.7C130 219.6 130.7 220.3 131.6 220.3C132.5 220.3 133.2 219.6 133.2 218.7C133.2 210.4 139.5 203.6 147.6 202.8V204.4C147.6 205.3 148.3 206 149.2 206C150.1 206 150.8 205.3 150.8 204.4V202.8C158.9 203.6 165.2 210.4 165.2 218.7C165.2 219.6 165.9 220.3 166.8 220.3C167.7 220.3 168.4 219.6 168.4 218.7C168.4 208.2 159.8 199.5 149.2 199.5Z" fill="black"/>
<path d="M149.2 207.6C148.3 207.6 147.6 208.3 147.6 209.2V218.8C147.6 219.7 148.3 220.4 149.2 220.4C150.1 220.4 150.8 219.7 150.8 218.8V209.2C150.8 208.3 150.1 207.6 149.2 207.6Z" fill="black"/>
<path d="M181.5 207.6C180.6 207.6 179.9 208.3 179.9 209.2V218.8C179.9 219.7 180.6 220.4 181.5 220.4C182.4 220.4 183.1 219.7 183.1 218.8V209.2C183.1 208.3 182.4 207.6 181.5 207.6Z" fill="black"/>
<path d="M267.1 195.7C272.8 195.7 277.5 191 277.5 185.3C277.5 179.6 272.8 174.9 267.1 174.9C261.4 174.9 256.7 179.6 256.7 185.3C256.7 191 261.4 195.7 267.1 195.7ZM267.1 178.1C271.1 178.1 274.3 181.3 274.3 185.3C274.3 189.3 271.1 192.5 267.1 192.5C263.1 192.5 259.9 189.3 259.9 185.3C259.9 181.3 263.1 178.1 267.1 178.1Z" fill="black"/>
<path d="M267.1 199.5C261.6 199.5 256.4 201.9 252.7 206C252.1 206.7 252.2 207.7 252.8 208.3C253.5 208.9 254.5 208.8 255.1 208.2C257.8 205.2 261.5 203.3 265.5 202.9V204.5C265.5 205.4 266.2 206.1 267.1 206.1C268 206.1 268.7 205.4 268.7 204.5V202.9C276.8 203.7 283.1 210.5 283.1 218.8C283.1 219.7 283.8 220.4 284.7 220.4C285.6 220.4 286.3 219.7 286.3 218.8C286.3 208.2 277.7 199.5 267.1 199.5Z" fill="black"/>
<path d="M234.8 195.7C240.5 195.7 245.2 191 245.2 185.3C245.2 179.6 240.5 174.9 234.8 174.9C229.1 174.9 224.4 179.6 224.4 185.3C224.4 191 229 195.7 234.8 195.7ZM234.8 178.1C238.8 178.1 242 181.3 242 185.3C242 189.3 238.8 192.5 234.8 192.5C230.8 192.5 227.6 189.3 227.6 185.3C227.6 181.3 230.8 178.1 234.8 178.1Z" fill="black"/>
<path d="M234.8 199.5C224.2 199.5 215.6 208.1 215.6 218.7C215.6 219.6 216.3 220.3 217.2 220.3C218.1 220.3 218.8 219.6 218.8 218.7C218.8 210.4 225.1 203.6 233.2 202.8V204.4C233.2 205.3 233.9 206 234.8 206C235.7 206 236.4 205.3 236.4 204.4V202.8C244.5 203.6 250.8 210.4 250.8 218.7C250.8 219.6 251.5 220.3 252.4 220.3C253.3 220.3 254 219.6 254 218.7C254 208.2 245.4 199.5 234.8 199.5Z" fill="black"/>
<path d="M234.8 207.6C233.9 207.6 233.2 208.3 233.2 209.2V218.8C233.2 219.7 233.9 220.4 234.8 220.4C235.7 220.4 236.4 219.7 236.4 218.8V209.2C236.4 208.3 235.7 207.6 234.8 207.6Z" fill="black"/>
<path d="M267.1 207.6C266.2 207.6 265.5 208.3 265.5 209.2V218.8C265.5 219.7 266.2 220.4 267.1 220.4C268 220.4 268.7 219.7 268.7 218.8V209.2C268.7 208.3 268 207.6 267.1 207.6Z" fill="black"/>
<path d="M299.6 195.7C305.3 195.7 310 191 310 185.3C310 179.6 305.3 174.9 299.6 174.9C293.9 174.9 289.2 179.6 289.2 185.3C289.2 191 293.8 195.7 299.6 195.7ZM299.6 178.1C303.6 178.1 306.8 181.3 306.8 185.3C306.8 189.3 303.6 192.5 299.6 192.5C295.6 192.5 292.4 189.3 292.4 185.3C292.4 181.3 295.6 178.1 299.6 178.1Z" fill="black"/>
<path d="M299.6 199.5C294.1 199.5 288.9 201.9 285.2 206C284.6 206.7 284.7 207.7 285.3 208.3C286 208.9 287 208.8 287.6 208.2C290.3 205.2 294 203.3 298 202.9V204.5C298 205.4 298.7 206.1 299.6 206.1C300.5 206.1 301.2 205.4 301.2 204.5V202.9C309.3 203.7 315.6 210.5 315.6 218.8C315.6 219.7 316.3 220.4 317.2 220.4C318.1 220.4 318.8 219.7 318.8 218.8C318.8 208.2 310.1 199.5 299.6 199.5Z" fill="black"/>
<path d="M299.6 207.6C298.7 207.6 298 208.3 298 209.2V218.8C298 219.7 298.7 220.4 299.6 220.4C300.5 220.4 301.2 219.7 301.2 218.8V209.2C301.2 208.3 300.4 207.6 299.6 207.6Z" fill="black"/>
<path d="M332 195.7C337.7 195.7 342.4 191 342.4 185.3C342.4 179.6 337.7 174.9 332 174.9C326.3 174.9 321.6 179.6 321.6 185.3C321.6 191 326.3 195.7 332 195.7ZM332 178.1C336 178.1 339.2 181.3 339.2 185.3C339.2 189.3 336 192.5 332 192.5C328 192.5 324.8 189.3 324.8 185.3C324.8 181.3 328 178.1 332 178.1Z" fill="black"/>
<path d="M332 199.5C326.5 199.5 321.3 201.9 317.6 206C317 206.7 317.1 207.7 317.7 208.3C318.4 208.9 319.4 208.8 320 208.2C322.7 205.2 326.4 203.3 330.4 202.9V204.5C330.4 205.4 331.1 206.1 332 206.1C332.9 206.1 333.6 205.4 333.6 204.5V202.9C341.7 203.7 348 210.5 348 218.8C348 219.7 348.7 220.4 349.6 220.4C350.5 220.4 351.2 219.7 351.2 218.8C351.2 208.2 342.6 199.5 332 199.5Z" fill="black"/>
<path d="M332 207.6C331.1 207.6 330.4 208.3 330.4 209.2V218.8C330.4 219.7 331.1 220.4 332 220.4C332.9 220.4 333.6 219.7 333.6 218.8V209.2C333.6 208.3 332.9 207.6 332 207.6Z" fill="black"/>
<path d="M364.5 195.7C370.2 195.7 374.9 191 374.9 185.3C374.9 179.6 370.2 174.9 364.5 174.9C358.8 174.9 354.1 179.6 354.1 185.3C354.1 191 358.7 195.7 364.5 195.7ZM364.5 178.1C368.5 178.1 371.7 181.3 371.7 185.3C371.7 189.3 368.5 192.5 364.5 192.5C360.5 192.5 357.3 189.3 357.3 185.3C357.3 181.3 360.5 178.1 364.5 178.1Z" fill="black"/>
<path d="M364.5 199.5C359 199.5 353.8 201.9 350.1 206C349.5 206.7 349.6 207.7 350.2 208.3C350.9 208.9 351.9 208.8 352.5 208.2C355.2 205.2 358.9 203.3 362.9 202.9V204.5C362.9 205.4 363.6 206.1 364.5 206.1C365.4 206.1 366.1 205.4 366.1 204.5V202.9C374.2 203.7 380.5 210.5 380.5 218.8C380.5 219.7 381.2 220.4 382.1 220.4C383 220.4 383.7 219.7 383.7 218.8C383.7 208.2 375.1 199.5 364.5 199.5Z" fill="black"/>
<path d="M364.5 207.6C363.6 207.6 362.9 208.3 362.9 209.2V218.8C362.9 219.7 363.6 220.4 364.5 220.4C365.4 220.4 366.1 219.7 366.1 218.8V209.2C366.1 208.3 365.4 207.6 364.5 207.6Z" fill="black"/>
<path d="M212 131.1C210.1 131.1 208.4 131.7 207 132.7L176 101.7V75.6C176 74.7 175.3 74 174.4 74C170.5 74 166.8 74.8 163.3 76.3C160.5 77.5 157.9 79.2 155.5 81.2L140.5 66.2C139.1 64.8 137.2 64 135.3 64C133.3 64 131.5 64.8 130.1 66.2C128.7 67.6 127.9 69.5 127.9 71.4C127.9 73.4 128.7 75.2 130.1 76.6L132.5 79C133.1 79.6 134.2 79.6 134.8 79C135.4 78.4 135.4 77.3 134.8 76.7L132.4 74.3C131.6 73.5 131.2 72.5 131.2 71.3C131.2 70.2 131.6 69.1 132.4 68.3C133.2 67.5 134.2 67.1 135.4 67.1C136.5 67.1 137.6 67.5 138.4 68.3L153.4 83.3C143.6 94.3 143.8 111.2 154.2 121.9L148.8 131.4C147.9 131.1 146.9 130.9 145.9 130.9C141 130.9 137 134.9 137 139.8C137 144.7 141 148.7 145.9 148.7C150.8 148.7 154.8 144.7 154.8 139.8C154.8 137.1 153.6 134.6 151.6 133L156.6 124.1C161.7 128.3 168 130.5 174.6 130.5C181.6 130.5 188.3 127.9 193.5 123.3L204.9 134.7C203.9 136.1 203.3 137.9 203.3 139.7C203.3 144.6 207.3 148.6 212.2 148.6C217.1 148.6 221.1 144.6 221.1 139.7C220.8 135 216.9 131.1 212 131.1ZM151.3 140C151.3 143.1 148.8 145.6 145.7 145.6C142.6 145.6 140.1 143.1 140.1 140C140.1 136.9 142.6 134.4 145.7 134.4C146.1 134.4 146.5 134.4 146.9 134.5L144.3 139.2C143.9 140 144.1 141 144.9 141.4C145.2 141.5 145.4 141.6 145.7 141.6C146.3 141.6 146.8 141.3 147.1 140.8L149.7 136.1C150.7 137.1 151.3 138.5 151.3 140ZM172.7 77.2V94.4L166 78.6C168.1 77.8 170.4 77.4 172.7 77.2ZM163 79.9L169.6 95.3L157.8 83.5C159.3 82 161.1 80.8 163 79.9ZM155.4 85.7L167.5 97.8L155.5 119.1C147.1 109.6 147.1 95.2 155.4 85.7ZM174.4 127.5C168.3 127.5 162.6 125.4 158 121.5L170 100.3L191 121.3C186.4 125.3 180.5 127.5 174.4 127.5ZM212 145.6C208.9 145.6 206.4 143.1 206.4 140C206.4 139 206.6 138.1 207.1 137.3L210.9 141.1C211.2 141.4 211.6 141.6 212 141.6C212.4 141.6 212.8 141.4 213.1 141.1C213.7 140.5 213.7 139.4 213.1 138.8L209.3 135C210.1 134.6 211 134.3 212 134.3C215.1 134.3 217.6 136.8 217.6 139.9C217.6 143 215.1 145.6 212 145.6Z" fill="black"/>
<path d="M283 67H242.9C242 67 241.3 67.7 241.3 68.6V75.4C241.3 75.8 241.5 76.2 241.7 76.5L252.5 88C252.8 88.3 253.2 88.5 253.7 88.5H253.8C254.3 88.5 254.7 88.2 255 87.8L256.1 86.2L257.9 90.4L254.3 130.5C254.3 131 254.5 131.6 254.9 131.9L261.9 137.4C262.2 137.6 262.5 137.7 262.9 137.7C263.2 137.7 263.6 137.6 263.9 137.4L270.9 131.9C271.3 131.6 271.6 131 271.5 130.5L267.9 90.4L269.7 86.2L270.8 87.8C271.1 88.2 271.5 88.5 272 88.5H272.1C272.5 88.5 273 88.3 273.3 88L284.1 76.5C284.4 76.2 284.5 75.8 284.5 75.4V68.6C284.6 67.8 283.9 67 283 67ZM263 134.1L257.6 129.9L261 91.7H264.9L268.3 129.9L263 134.1ZM265.4 88.5H260.6L258.2 83L260.4 79.6H265.5L267.7 83L265.4 88.5ZM272.5 84.4L270.9 82L268.7 78.6L276.4 74.2C277.2 73.8 277.4 72.8 277 72C276.6 71.2 275.6 71 274.8 71.4L265.9 76.4H259.9L251 71.4C250.2 71 249.3 71.2 248.8 72C248.4 72.8 248.6 73.7 249.4 74.2L257.1 78.6L254.9 82L253.3 84.4L244.3 74.8V70.2H281.2V74.8L272.5 84.4Z" fill="black"/>
<path d="M367 110.2C368 108.3 367.7 105.9 366.1 104.2C365.6 103.7 365.1 103.4 364.5 103.1L364.7 102.9C365.7 101.9 366.2 100.6 366.2 99.3001C366.2 98.0001 365.7 96.6001 364.7 95.7001C364.2 95.2001 363.7 94.9001 363.1 94.6001L369.9 87.8001C370.9 86.8001 371.4 85.5001 371.4 84.2001C371.4 82.9001 370.9 81.5001 369.9 80.6001C367.9 78.6001 364.7 78.6001 362.7 80.6001L337.8 105.5C334.4 108.9 332.7 113.6 333.2 118.3L315.3 136.2C314.7 136.8 314.7 137.8 315.3 138.5C315.9 139.2 316.9 139.1 317.6 138.5L335.8 120C336.2 119.6 336.3 119.1 336.2 118.6C335.6 114.6 336.9 110.6 339.8 107.7L364.7 82.8001C365.1 82.4001 365.5 82.2001 366.1 82.2001C366.6 82.2001 367.1 82.4001 367.5 82.8001C368.2 83.5001 368.2 84.8001 367.5 85.5001L352.2 100.8C351.6 101.4 351.6 102.4 352.2 103.1C352.8 103.7 353.8 103.7 354.5 103.1L359.6 98.0001C360.3 97.3001 361.6 97.3001 362.3 98.0001C362.7 98.4001 362.9 98.8001 362.9 99.4001C362.9 99.9001 362.7 100.4 362.3 100.8L358.8 104.3L356.3 106.8C355.7 107.4 355.7 108.4 356.3 109.1C356.9 109.8 357.9 109.7 358.6 109.1L361.1 106.6C361.5 106.2 361.9 106.1 362.4 106.1C362.9 106.1 363.4 106.3 363.8 106.7C364.2 107.1 364.4 107.5 364.4 108.1C364.4 108.6 364.2 109.1 363.8 109.5L361.6 111.7L360.4 112.9C359.8 113.5 359.8 114.5 360.4 115.2C361 115.9 362 115.8 362.7 115.2L363.9 114C364.3 113.6 364.7 113.4 365.3 113.4C365.8 113.4 366.3 113.6 366.7 114C367.1 114.4 367.3 114.8 367.3 115.4C367.3 115.9 367.1 116.4 366.7 116.8L357.6 125.9C354.7 128.8 350.7 130.1 346.7 129.5C346.2 129.4 345.7 129.6 345.3 129.9L338.5 136.7C337.9 137.3 337.9 138.3 338.5 139C338.8 139.3 339.2 139.5 339.6 139.5C340 139.5 340.4 139.3 340.7 139L346.9 132.8C351.6 133.3 356.3 131.6 359.7 128.2L368.8 119.1C369.8 118.1 370.3 116.8 370.3 115.5C370.3 114.1 369.8 112.8 368.8 111.9C368.3 110.8 367.7 110.4 367 110.2Z" fill="black"/>
<path d="M379.4 84.4C379.7 84.7 380.1 84.9 380.5 84.9C380.9 84.9 381.3 84.7 381.6 84.4C385.9 80.1 385.9 73 381.6 68.7C379.5 66.6 376.7 65.5 373.8 65.5C370.8 65.5 368.1 66.7 366 68.7C365.4 69.3 365.4 70.3 366 71C366.6 71.6 367.6 71.6 368.3 71C369.8 69.5 371.8 68.7 373.9 68.7C376 68.7 378 69.5 379.5 71C382.6 74.1 382.6 79.1 379.5 82.2C378.8 82.7 378.8 83.7 379.4 84.4Z" fill="black"/>
<path d="M400.9 238.1H70.4V182.3C70.4 181.4 69.6999 180.7 68.7999 180.7C67.8999 180.7 67.2 181.4 67.2 182.3V239.6C67.2 240.5 68 241.3 68.9 241.3H402.4C403.3 241.3 404.1 240.5 404.1 239.6V57C404.1 56.1 403.4 55.4 402.5 55.4C401.6 55.4 400.9 56.1 400.9 57V238.1V238.1ZM402.4 38H68.9C68 38 67.2 38.8 67.2 39.7V80.9C67.2 81.8 67.8999 82.5 68.7999 82.5C69.6999 82.5 70.4 81.8 70.4 80.9V41.2H400.9V50.5C400.9 51.4 401.6 52.1 402.5 52.1C403.4 52.1 404.1 51.4 404.1 50.5V39.7C404.1 38.8 403.3 38 402.4 38Z" fill="black"/>
</g>
<defs>
<clipPath id="clip0">
<rect x="36" y="38" width="368.1" height="203.3" fill="white"/>
</clipPath>
</defs>
</svg>
