<svg width="504" height="281" viewBox="0 0 504 281" fill="none" xmlns="http://www.w3.org/2000/svg">
<g clip-path="url(#clip0)">
<path d="M111.2 171.1C111.2 171.1 111.2 171 111.2 171.1C111.3 171 111.3 171 111.3 171C111.3 171 111.3 170.9 111.4 170.9C111.4 170.9 111.4 170.8 111.5 170.8V170.7V170.6V170.5C111.5 170.4 111.5 170.4 111.5 170.3V67.8002C111.5 66.9002 110.8 66.2002 109.9 66.2002H61.6C60.7 66.2002 60 67.0002 60 67.8002V181.3C60 182.2 60.7 182.9 61.6 182.9H98.7C98.8 182.9 98.8 182.9 98.9 182.9H99H99.1H99.2C99.2 182.9 99.3 182.9 99.3 182.8C99.3 182.8 99.4 182.8 99.4 182.7C99.4 182.7 99.5 182.7 99.5 182.6L99.6 182.5L110.8 171.3C111.1 171.2 111.1 171.2 111.2 171.1ZM63.2 69.4002H108.3V168.5H98.7C97.8 168.5 97.1 169.2 97.1 170.1V179.7H63.2V69.4002ZM106.1 171.7L100.4 177.4V171.7H106.1Z" fill="black"/>
<path d="M78.6 157.3C77.9 156.8 76.9 156.9 76.4 157.6L72.3 162.9L70.7 161.6C70 161.1 69 161.2 68.5 161.9C68 162.6 68.1 163.6 68.8 164.1L71.7 166.4C72 166.6 72.3 166.7 72.7 166.7C72.8 166.7 72.8 166.7 72.9 166.7C73.3 166.6 73.7 166.4 74 166.1L79.1 159.5C79.4 158.8 79.3 157.8 78.6 157.3Z" fill="black"/>
<path d="M82.4 163.4H100.3C101.2 163.4 101.9 162.7 101.9 161.8C101.9 160.9 101.2 160.2 100.3 160.2H82.4C81.5 160.2 80.8 160.9 80.8 161.8C80.8 162.7 81.5 163.4 82.4 163.4Z" fill="black"/>
<path d="M78.6 147.5C77.9 147 76.9 147.1 76.4 147.8L72.3 153.1L70.7 151.8C70 151.3 69 151.4 68.5 152.1C68 152.8 68.1 153.8 68.8 154.3L71.7 156.6C72 156.8 72.3 156.9 72.7 156.9C72.8 156.9 72.8 156.9 72.9 156.9C73.3 156.8 73.7 156.6 74 156.3L79.1 149.7C79.4 149 79.3 148 78.6 147.5Z" fill="black"/>
<path d="M82.4 153.6H100.3C101.2 153.6 101.9 152.9 101.9 152C101.9 151.1 101.2 150.4 100.3 150.4H82.4C81.5 150.4 80.8 151.1 80.8 152C80.8 152.9 81.5 153.6 82.4 153.6Z" fill="black"/>
<path d="M78.6001 137.7C77.9001 137.2 76.9001 137.3 76.4001 138L72.3001 143.3L70.6001 142C69.9001 141.5 68.9001 141.6 68.4001 142.3C67.8001 143 67.9001 144 68.6001 144.5L71.5001 146.8C71.8001 147 72.1001 147.1 72.5001 147.1C72.6001 147.1 72.6001 147.1 72.7001 147.1C73.1001 147 73.5001 146.8 73.8001 146.5L78.9001 139.9C79.4001 139.3 79.3001 138.2 78.6001 137.7Z" fill="black"/>
<path d="M82.4 143.9H100.3C101.2 143.9 101.9 143.2 101.9 142.3C101.9 141.4 101.2 140.7 100.3 140.7H82.4C81.5 140.7 80.8 141.4 80.8 142.3C80.8 143.1 81.5 143.9 82.4 143.9Z" fill="black"/>
<path d="M78.6 127.9C77.9 127.4 76.9 127.5 76.4 128.2L72.3 133.5L70.7 132.2C70 131.7 69 131.8 68.5 132.5C68 133.2 68.1 134.2 68.8 134.7L71.7 137C72 137.2 72.3 137.3 72.7 137.3C72.8 137.3 72.8 137.3 72.9 137.3C73.3 137.2 73.7 137 74 136.7L79.1 130.1C79.4 129.5 79.3 128.5 78.6 127.9Z" fill="black"/>
<path d="M82.4 134.1H100.3C101.2 134.1 101.9 133.4 101.9 132.5C101.9 131.6 101.2 130.9 100.3 130.9H82.4C81.5 130.9 80.8 131.6 80.8 132.5C80.8 133.4 81.5 134.1 82.4 134.1Z" fill="black"/>
<path d="M78.6 118.1C77.9 117.6 76.9 117.7 76.4 118.4L72.3 123.7L70.7 122.4C70 121.9 69 122 68.5 122.7C68 123.4 68.1 124.4 68.8 124.9L71.7 127.2C72 127.4 72.3 127.5 72.7 127.5C72.8 127.5 72.8 127.5 72.9 127.5C73.3 127.4 73.7 127.2 74 126.9L79.1 120.3C79.4 119.7 79.3 118.7 78.6 118.1Z" fill="black"/>
<path d="M82.4 124.3H100.3C101.2 124.3 101.9 123.6 101.9 122.7C101.9 121.8 101.2 121.1 100.3 121.1H82.4C81.5 121.1 80.8 121.8 80.8 122.7C80.8 123.6 81.5 124.3 82.4 124.3Z" fill="black"/>
<path d="M78.6 108.4C77.9 107.9 76.9 108 76.4 108.7L72.3 114L70.7 112.7C70 112.2 69 112.3 68.5 113C68 113.7 68.1 114.7 68.8 115.2L71.7 117.5C72 117.7 72.3 117.8 72.7 117.8C72.8 117.8 72.8 117.8 72.9 117.8C73.3 117.7 73.7 117.5 74 117.2L79.1 110.6C79.4 109.9 79.3 108.9 78.6 108.4Z" fill="black"/>
<path d="M82.4 114.5H100.3C101.2 114.5 101.9 113.8 101.9 112.9C101.9 112 101.2 111.3 100.3 111.3H82.4C81.5 111.3 80.8 112 80.8 112.9C80.8 113.8 81.5 114.5 82.4 114.5Z" fill="black"/>
<path d="M78.6 98.6001C77.9 98.1001 76.9 98.2001 76.4 98.9001L72.3 104.2L70.7 102.9C70 102.4 69 102.5 68.5 103.2C68 103.9 68.1 104.9 68.8 105.4L71.7 107.7C72 107.9 72.3 108 72.7 108C72.8 108 72.8 108 72.9 108C73.3 107.9 73.7 107.7 74 107.4L79.1 100.8C79.4 100.1 79.3 99.1001 78.6 98.6001Z" fill="black"/>
<path d="M82.4 104.7H100.3C101.2 104.7 101.9 104 101.9 103.1C101.9 102.2 101.2 101.5 100.3 101.5H82.4C81.5 101.5 80.8 102.2 80.8 103.1C80.8 104 81.5 104.7 82.4 104.7Z" fill="black"/>
<path d="M78.6 88.8003C77.9 88.3003 76.9 88.4003 76.4 89.1003L72.3 94.4003L70.7 93.1003C70 92.6003 69 92.7003 68.5 93.4003C68 94.1003 68.1 95.1003 68.8 95.6003L71.7 97.9003C72 98.1003 72.3 98.2003 72.7 98.2003C72.8 98.2003 72.8 98.2003 72.9 98.2003C73.3 98.1003 73.7 97.9003 74 97.6003L79.1 91.0003C79.4 90.3003 79.3 89.3003 78.6 88.8003Z" fill="black"/>
<path d="M82.4 94.9002H100.3C101.2 94.9002 101.9 94.2002 101.9 93.3002C101.9 92.4002 101.2 91.7002 100.3 91.7002H82.4C81.5 91.7002 80.8 92.4002 80.8 93.3002C80.8 94.2002 81.5 94.9002 82.4 94.9002Z" fill="black"/>
<path d="M78.6 79C77.9 78.5 76.9 78.6 76.4 79.3L72.3 84.6L70.7 83.3C70 82.8 69 82.9 68.5 83.6C68 84.3 68.1 85.3 68.8 85.8L71.7 88.1C72 88.3 72.3 88.4 72.7 88.4C72.8 88.4 72.8 88.4 72.9 88.4C73.3 88.3 73.7 88.1 74 87.8L79.1 81.2C79.4 80.6 79.3 79.5 78.6 79Z" fill="black"/>
<path d="M82.4 85.2H100.3C101.2 85.2 101.9 84.5 101.9 83.6C101.9 82.7 101.2 82 100.3 82H82.4C81.5 82 80.8 82.7 80.8 83.6C80.8 84.4 81.5 85.2 82.4 85.2Z" fill="black"/>
<path d="M274.4 98.6C278.5 97.6 281.5 94.1 282.1 89.9C282.1 89.9 282.1 89.8 282.2 89.8C292.3 88.4 299.7 81.7 299.7 73.8C299.7 64.8 290.2 57.5 278.5 57.5C266.8 57.5 257.3 64.8 257.3 73.8C257.3 81.7 264.7 88.4 274.8 89.8C274.8 89.8 274.8 89.8 274.9 89.9C275.3 92.4 274.8 95 273.4 97.1L272.2 99.1L274.4 98.6Z" stroke="black" stroke-width="3.2" stroke-miterlimit="10" stroke-linecap="round" stroke-linejoin="round"/>
<path d="M330.1 111.3C326 110.7 323 108.6 322.4 106.2C322.4 106.2 322.4 106.2 322.3 106.2C312.2 105.4 304.8 101.4 304.8 96.7998C304.8 91.4998 314.3 87.2998 326 87.2998C337.7 87.2998 347.2 91.5998 347.2 96.7998C347.2 101.4 339.8 105.4 329.7 106.2C329.7 106.2 329.7 106.2 329.6 106.2C329.2 107.7 329.7 109.2 331.1 110.5L332.3 111.7L330.1 111.3Z" stroke="black" stroke-width="3.2" stroke-miterlimit="10" stroke-linecap="round" stroke-linejoin="round"/>
<path d="M270.5 151.9C274.6 150.9 277.6 147.4 278.2 143.2C278.2 143.2 278.2 143.1 278.3 143.1C288.4 141.7 295.8 135 295.8 127.1C295.8 118.1 286.3 110.8 274.6 110.8C262.9 110.8 253.4 118.1 253.4 127.1C253.4 135 260.8 141.7 270.9 143.1C270.9 143.1 270.9 143.1 271 143.2C271.4 145.7 270.9 148.3 269.5 150.4L268.3 152.4L270.5 151.9Z" stroke="black" stroke-width="3.2" stroke-miterlimit="10" stroke-linecap="round" stroke-linejoin="round"/>
<path d="M267.3 67.7998C266.4 67.7998 265.7 68.4998 265.7 69.3998C265.7 70.2998 266.4 70.9998 267.3 70.9998H290.8C291.7 70.9998 292.4 70.2998 292.4 69.3998C292.4 68.4998 291.7 67.7998 290.8 67.7998H267.3Z" fill="black"/>
<path d="M318.5 94.8999C317.6 94.8999 316.9 95.5999 316.9 96.4999C316.9 97.3999 317.6 98.0999 318.5 98.0999H333.5C334.4 98.0999 335.1 97.3999 335.1 96.4999C335.1 95.5999 334.4 94.8999 333.5 94.8999H318.5Z" fill="black"/>
<path d="M267.3 73.2998C266.4 73.2998 265.7 73.9998 265.7 74.8998C265.7 75.7998 266.4 76.4998 267.3 76.4998H290.8C291.7 76.4998 292.4 75.7998 292.4 74.8998C292.4 73.9998 291.7 73.2998 290.8 73.2998H267.3Z" fill="black"/>
<path d="M263.5 119.8C262.6 119.8 261.9 120.5 261.9 121.4C261.9 122.3 262.6 123 263.5 123H287C287.9 123 288.6 122.3 288.6 121.4C288.6 120.5 287.9 119.8 287 119.8H263.5V119.8Z" fill="black"/>
<path d="M263.5 130.2C262.6 130.2 261.9 130.9 261.9 131.8C261.9 132.7 262.6 133.4 263.5 133.4H287C287.9 133.4 288.6 132.7 288.6 131.8C288.6 130.9 287.9 130.2 287 130.2H263.5Z" fill="black"/>
<path d="M263.5 125.2C262.6 125.2 261.9 125.9 261.9 126.8C261.9 127.7 262.6 128.4 263.5 128.4H287C287.9 128.4 288.6 127.7 288.6 126.8C288.6 125.9 287.9 125.2 287 125.2H263.5Z" fill="black"/>
<path d="M270.5 207.7C274.6 206.7 277.6 203.2 278.2 199C278.2 199 278.2 198.9 278.3 198.9C288.4 197.5 295.8 190.8 295.8 182.9C295.8 173.9 286.3 166.6 274.6 166.6C262.9 166.6 253.4 173.9 253.4 182.9C253.4 190.8 260.8 197.5 270.9 198.9C270.9 198.9 270.9 198.9 271 199C271.4 201.5 270.9 204.1 269.5 206.2L268.3 208.2L270.5 207.7Z" stroke="black" stroke-width="3.2" stroke-miterlimit="10" stroke-linecap="round" stroke-linejoin="round"/>
<path d="M263.5 175.6C262.6 175.6 261.9 176.3 261.9 177.2C261.9 178.1 262.6 178.8 263.5 178.8H287C287.9 178.8 288.6 178.1 288.6 177.2C288.6 176.3 287.9 175.6 287 175.6H263.5Z" fill="black"/>
<path d="M263.5 186C262.6 186 261.9 186.7 261.9 187.6C261.9 188.5 262.6 189.2 263.5 189.2H287C287.9 189.2 288.6 188.5 288.6 187.6C288.6 186.7 287.9 186 287 186H263.5Z" fill="black"/>
<path d="M263.5 181C262.6 181 261.9 181.7 261.9 182.6C261.9 183.5 262.6 184.2 263.5 184.2H287C287.9 184.2 288.6 183.5 288.6 182.6C288.6 181.7 287.9 181 287 181H263.5Z" fill="black"/>
<path d="M330.1 168.8C326 168.2 323 166.1 322.4 163.7C322.4 163.7 322.4 163.7 322.3 163.7C312.2 162.9 304.8 158.9 304.8 154.3C304.8 149 314.3 144.8 326 144.8C337.7 144.8 347.2 149.1 347.2 154.3C347.2 158.9 339.8 162.9 329.7 163.7C329.7 163.7 329.7 163.7 329.6 163.7C329.2 165.2 329.7 166.7 331.1 168L332.3 169.2L330.1 168.8Z" stroke="black" stroke-width="3.2" stroke-miterlimit="10" stroke-linecap="round" stroke-linejoin="round"/>
<path d="M318.5 152.4C317.6 152.4 316.9 153.1 316.9 154C316.9 154.9 317.6 155.6 318.5 155.6H333.5C334.4 155.6 335.1 154.9 335.1 154C335.1 153.1 334.4 152.4 333.5 152.4H318.5Z" fill="black"/>
<path d="M409.8 142C410.1 142.3 410.5 142.5 410.9 142.5C411.3 142.5 411.7 142.3 412 142C412.6 141.4 412.6 140.4 412 139.7L402.4 130.1C401.8 129.5 400.8 129.5 400.1 130.1C399.5 130.7 399.5 131.7 400.1 132.4L409.8 142Z" fill="black"/>
<path d="M409.1 133.1C409.4 133.4 409.8 133.6 410.2 133.6C410.6 133.6 411 133.4 411.3 133.1C411.9 132.5 411.9 131.5 411.3 130.8L406.5 126C405.9 125.4 404.9 125.4 404.2 126C403.6 126.6 403.6 127.6 404.2 128.3L409.1 133.1Z" fill="black"/>
<path d="M381.5 121.8C380.7 122.2 380.5 123.2 380.9 124C381.3 124.8 382.3 125 383.1 124.6C384.8 123.6 387 123.9 388.5 125.3C389.9 126.7 390.2 128.9 389.2 130.7C388.8 131.5 389 132.4 389.8 132.9C390 133 390.3 133.1 390.6 133.1C391.2 133.1 391.7 132.8 392 132.3C393.7 129.3 393.2 125.5 390.8 123.1C388.3 120.6 384.5 120.1 381.5 121.8Z" fill="black"/>
<path d="M407.8 146.3C408.4 145.7 408.4 144.7 407.8 144L398.2 134.4C397.6 133.8 396.6 133.8 395.9 134.4C395.3 135 395.3 136 395.9 136.7L405.5 146.3C405.8 146.6 406.2 146.8 406.6 146.8C407.1 146.7 407.5 146.6 407.8 146.3Z" fill="black"/>
<path d="M425.2 150.6L405.7 170.1L373.2 137.6C372.6 137 371.6 137 370.9 137.6C370.2 138.2 370.3 139.2 370.9 139.9L404.5 173.5C404.8 173.8 405.2 174 405.6 174C406 174 406.4 173.8 406.7 173.5L427.4 152.8C428 152.2 428 151.2 427.4 150.5C426.8 150 425.8 150 425.2 150.6Z" fill="black"/>
<path d="M425.2 142.6L405.7 162.1L373.2 129.6C372.6 129 371.6 129 370.9 129.6C370.2 130.2 370.3 131.2 370.9 131.9L404.5 165.5C404.8 165.8 405.2 166 405.6 166C406 166 406.4 165.8 406.7 165.5L427.4 144.8C428 144.2 428 143.2 427.4 142.5C426.8 142 425.8 142 425.2 142.6Z" fill="black"/>
<path d="M404.5 157.6C404.8 157.9 405.2 158.1 405.6 158.1C406 158.1 406.4 157.9 406.7 157.6L427.4 136.9C428 136.3 428 135.3 427.4 134.6L393.9 101C393.3 100.4 392.3 100.4 391.6 101L370.9 121.7C370.3 122.3 370.3 123.3 370.9 124L404.5 157.6ZM392.7 104.4L424 135.7L405.6 154.1L374.3 122.8L392.7 104.4Z" fill="black"/>
<path d="M398.4 121.9C399.3 121 399.8 119.9 399.8 118.6C399.8 117.4 399.3 116.2 398.4 115.3C397.5 114.4 396.4 113.9 395.1 113.9C393.9 113.9 392.7 114.4 391.8 115.3C390.9 116.2 390.4 117.3 390.4 118.6C390.4 119.8 390.9 121 391.8 121.9C392.7 122.8 393.9 123.3 395.1 123.3C396.3 123.3 397.5 122.8 398.4 121.9ZM396.1 119.7C395.5 120.3 394.6 120.3 394.1 119.7C393.8 119.4 393.7 119.1 393.7 118.7C393.7 118.3 393.8 118 394.1 117.7C394.4 117.4 394.7 117.3 395.1 117.3C395.5 117.3 395.8 117.4 396.1 117.7C396.4 118 396.5 118.3 396.5 118.7C396.5 119 396.4 119.4 396.1 119.7Z" fill="black"/>
<path d="M221.1 129.5H226.8C227.7 129.5 228.4 128.8 228.4 127.9C228.4 127 227.7 126.3 226.8 126.3H221.1C220.2 126.3 219.5 127 219.5 127.9C219.5 128.8 220.3 129.5 221.1 129.5Z" fill="black"/>
<path d="M146.4 129.5H197.2C198.1 129.5 198.8 128.8 198.8 127.9C198.8 127 198.1 126.3 197.2 126.3H146.4C145.5 126.3 144.8 127 144.8 127.9C144.8 128.8 145.5 129.5 146.4 129.5Z" fill="black"/>
<path d="M228.4 153C228.4 152.1 227.7 151.4 226.8 151.4H218V104.5H226.8C227.7 104.5 228.4 103.8 228.4 102.9C228.4 102 227.7 101.3 226.8 101.3H216.4C215.5 101.3 214.8 102 214.8 102.9V126.4H206C205.1 126.4 204.4 127.1 204.4 128C204.4 128.9 205.1 129.6 206 129.6H214.8V153C214.8 153.9 215.5 154.6 216.4 154.6H226.8C227.7 154.6 228.4 153.9 228.4 153Z" fill="black"/>
</g>
<defs>
<clipPath id="clip0">
<rect x="60" y="56" width="368.1" height="153.9" fill="white"/>
</clipPath>
</defs>
</svg>
